{
	"asset":{
		"generator":"Khronos glTF Blender I/O v5.0.21",
		"version":"2.0"
	},
	"scene":0,
	"scenes":[
		{
			"name":"Scene",
			"nodes":[
				16
			]
		}
	],
	"nodes":[
		{
			"mesh":0,
			"name":"Arm_L_Lower",
			"rotation":[
				0,
				0,
				-0.04997916892170906,
				0.9987502694129944
			],
			"scale":[
				0.03800000250339508,
				0.12999999523162842,
				0.03799999877810478
			],
			"translation":[
				-0.3400000035762787,
				1.0199999809265137,
				0
			]
		},
		{
			"mesh":1,
			"name":"Arm_L_Upper",
			"rotation":[
				0,
				0,
				-0.0998333990573883,
				0.9950041770935059
			],
			"scale":[
				0.04500000178813934,
				0.15000002086162567,
				0.04500000178813934
			],
			"translation":[
				-0.30000001192092896,
				1.2799999713897705,
				0
			]
		},
		{
			"mesh":2,
			"name":"Arm_R_Lower",
			"rotation":[
				0,
				0,
				0.04997916892170906,
				0.9987502694129944
			],
			"scale":[
				0.03800000250339508,
				0.12999999523162842,
				0.03799999877810478
			],
			"translation":[
				0.3400000035762787,
				1.0199999809265137,
				0
			]
		},
		{
			"mesh":3,
			"name":"Arm_R_Upper",
			"rotation":[
				0,
				0,
				0.0998333990573883,
				0.9950041770935059
			],
			"scale":[
				0.04500000178813934,
				0.15000002086162567,
				0.04500000178813934
			],
			"translation":[
				0.30000001192092896,
				1.2799999713897705,
				0
			]
		},
		{
			"mesh":4,
			"name":"Foot_L",
			"scale":[
				0.05000000074505806,
				0.03999999910593033,
				0.10000000149011612
			],
			"translation":[
				-0.09000000357627869,
				0.05999999865889549,
				-0.03999999910593033
			]
		},
		{
			"mesh":5,
			"name":"Foot_R",
			"scale":[
				0.05000000074505806,
				0.03999999910593033,
				0.10000000149011612
			],
			"translation":[
				0.09000000357627869,
				0.05999999865889549,
				-0.03999999910593033
			]
		},
		{
			"mesh":6,
			"name":"Hand_L",
			"scale":[
				0.03999999910593033,
				0.05000000074505806,
				0.02500000037252903
			],
			"translation":[
				-0.36000001430511475,
				0.8600000143051147,
				0
			]
		},
		{
			"mesh":7,
			"name":"Hand_R",
			"scale":[
				0.03999999910593033,
				0.05000000074505806,
				0.02500000037252903
			],
			"translation":[
				0.36000001430511475,
				0.8600000143051147,
				0
			]
		},
		{
			"mesh":8,
			"name":"Head",
			"scale":[
				0.10999999940395355,
				0.14000000059604645,
				0.12999999523162842
			],
			"translation":[
				0,
				1.6200000047683716,
				0
			]
		},
		{
			"mesh":9,
			"name":"Hips",
			"scale":[
				0.18000000715255737,
				0.10000000149011612,
				0.10000000149011612
			],
			"translation":[
				0,
				0.8799999952316284,
				0
			]
		},
		{
			"mesh":10,
			"name":"Leg_L_Lower",
			"scale":[
				0.05000000074505806,
				0.18000000715255737,
				0.05000000074505806
			],
			"translation":[
				-0.09000000357627869,
				0.3199999928474426,
				0
			]
		},
		{
			"mesh":11,
			"name":"Leg_L_Upper",
			"scale":[
				0.06499999761581421,
				0.18000000715255737,
				0.06499999761581421
			],
			"translation":[
				-0.09000000357627869,
				0.6499999761581421,
				0
			]
		},
		{
			"mesh":12,
			"name":"Leg_R_Lower",
			"scale":[
				0.05000000074505806,
				0.18000000715255737,
				0.05000000074505806
			],
			"translation":[
				0.09000000357627869,
				0.3199999928474426,
				0
			]
		},
		{
			"mesh":13,
			"name":"Leg_R_Upper",
			"scale":[
				0.06499999761581421,
				0.18000000715255737,
				0.06499999761581421
			],
			"translation":[
				0.09000000357627869,
				0.6499999761581421,
				0
			]
		},
		{
			"mesh":14,
			"name":"Neck",
			"scale":[
				0.05000000074505806,
				0.05999999865889549,
				0.05000000074505806
			],
			"translation":[
				0,
				1.4800000190734863,
				0
			]
		},
		{
			"mesh":15,
			"name":"Torso",
			"scale":[
				0.2199999988079071,
				0.2800000011920929,
				0.11999999731779099
			],
			"translation":[
				0,
				1.2000000476837158,
				0
			]
		},
		{
			"children":[
				0,
				1,
				2,
				3,
				4,
				5,
				6,
				7,
				8,
				9,
				10,
				11,
				12,
				13,
				14,
				15
			],
			"name":"char_player_male"
		}
	],
	"materials":[
		{
			"doubleSided":true,
			"name":"Skin",
			"pbrMetallicRoughness":{
				"baseColorFactor":[
					0.7699999809265137,
					0.6399999856948853,
					0.5199999809265137,
					1
				],
				"metallicFactor":0,
				"roughnessFactor":0.699999988079071
			}
		},
		{
			"doubleSided":true,
			"name":"Clothes",
			"pbrMetallicRoughness":{
				"baseColorFactor":[
					0.33000001311302185,
					0.28999999165534973,
					0.2199999988079071,
					1
				],
				"metallicFactor":0,
				"roughnessFactor":0.800000011920929
			}
		},
		{
			"doubleSided":true,
			"name":"Boots",
			"pbrMetallicRoughness":{
				"baseColorFactor":[
					0.11999999731779099,
					0.07999999821186066,
					0.05000000074505806,
					1
				],
				"metallicFactor":0,
				"roughnessFactor":0.6000000238418579
			}
		},
		{
			"doubleSided":true,
			"name":"Pants",
			"pbrMetallicRoughness":{
				"baseColorFactor":[
					0.15000000596046448,
					0.15000000596046448,
					0.18000000715255737,
					1
				],
				"metallicFactor":0,
				"roughnessFactor":0.75
			}
		}
	],
	"meshes":[
		{
			"name":"Cylinder.003",
			"primitives":[
				{
					"attributes":{
						"POSITION":0,
						"NORMAL":1,
						"TEXCOORD_0":2
					},
					"indices":3,
					"material":0
				}
			]
		},
		{
			"name":"Cylinder.001",
			"primitives":[
				{
					"attributes":{
						"POSITION":4,
						"NORMAL":5,
						"TEXCOORD_0":6
					},
					"indices":3,
					"material":1
				}
			]
		},
		{
			"name":"Cylinder.004",
			"primitives":[
				{
					"attributes":{
						"POSITION":7,
						"NORMAL":8,
						"TEXCOORD_0":9
					},
					"indices":3,
					"material":0
				}
			]
		},
		{
			"name":"Cylinder.002",
			"primitives":[
				{
					"attributes":{
						"POSITION":10,
						"NORMAL":11,
						"TEXCOORD_0":12
					},
					"indices":3,
					"material":1
				}
			]
		},
		{
			"name":"Cube.003",
			"primitives":[
				{
					"attributes":{
						"POSITION":13,
						"NORMAL":14,
						"TEXCOORD_0":15
					},
					"indices":16,
					"material":2
				}
			]
		},
		{
			"name":"Cube.004",
			"primitives":[
				{
					"attributes":{
						"POSITION":17,
						"NORMAL":18,
						"TEXCOORD_0":19
					},
					"indices":16,
					"material":2
				}
			]
		},
		{
			"name":"Sphere.001",
			"primitives":[
				{
					"attributes":{
						"POSITION":20,
						"NORMAL":21,
						"TEXCOORD_0":22
					},
					"indices":23,
					"material":0
				}
			]
		},
		{
			"name":"Sphere.002",
			"primitives":[
				{
					"attributes":{
						"POSITION":24,
						"NORMAL":25,
						"TEXCOORD_0":26
					},
					"indices":23,
					"material":0
				}
			]
		},
		{
			"name":"Sphere",
			"primitives":[
				{
					"attributes":{
						"POSITION":27,
						"NORMAL":28,
						"TEXCOORD_0":29
					},
					"indices":30,
					"material":0
				}
			]
		},
		{
			"name":"Cube.002",
			"primitives":[
				{
					"attributes":{
						"POSITION":31,
						"NORMAL":32,
						"TEXCOORD_0":33
					},
					"indices":16,
					"material":3
				}
			]
		},
		{
			"name":"Cylinder.007",
			"primitives":[
				{
					"attributes":{
						"POSITION":34,
						"NORMAL":35,
						"TEXCOORD_0":36
					},
					"indices":3,
					"material":3
				}
			]
		},
		{
			"name":"Cylinder.005",
			"primitives":[
				{
					"attributes":{
						"POSITION":37,
						"NORMAL":38,
						"TEXCOORD_0":39
					},
					"indices":3,
					"material":3
				}
			]
		},
		{
			"name":"Cylinder.008",
			"primitives":[
				{
					"attributes":{
						"POSITION":40,
						"NORMAL":41,
						"TEXCOORD_0":42
					},
					"indices":3,
					"material":3
				}
			]
		},
		{
			"name":"Cylinder.006",
			"primitives":[
				{
					"attributes":{
						"POSITION":43,
						"NORMAL":44,
						"TEXCOORD_0":45
					},
					"indices":3,
					"material":3
				}
			]
		},
		{
			"name":"Cylinder",
			"primitives":[
				{
					"attributes":{
						"POSITION":46,
						"NORMAL":47,
						"TEXCOORD_0":48
					},
					"indices":3,
					"material":0
				}
			]
		},
		{
			"name":"Cube.001",
			"primitives":[
				{
					"attributes":{
						"POSITION":49,
						"NORMAL":50,
						"TEXCOORD_0":51
					},
					"indices":16,
					"material":1
				}
			]
		}
	],
	"accessors":[
		{
			"bufferView":0,
			"componentType":5126,
			"count":72,
			"max":[
				1,
				1,
				1
			],
			"min":[
				-1,
				-1,
				-1
			],
			"type":"VEC3"
		},
		{
			"bufferView":1,
			"componentType":5126,
			"count":72,
			"type":"VEC3"
		},
		{
			"bufferView":2,
			"componentType":5126,
			"count":72,
			"type":"VEC2"
		},
		{
			"bufferView":3,
			"componentType":5123,
			"count":132,
			"type":"SCALAR"
		},
		{
			"bufferView":4,
			"componentType":5126,
			"count":72,
			"max":[
				1,
				1,
				1
			],
			"min":[
				-1,
				-1,
				-1
			],
			"type":"VEC3"
		},
		{
			"bufferView":5,
			"componentType":5126,
			"count":72,
			"type":"VEC3"
		},
		{
			"bufferView":6,
			"componentType":5126,
			"count":72,
			"type":"VEC2"
		},
		{
			"bufferView":7,
			"componentType":5126,
			"count":72,
			"max":[
				1,
				1,
				1
			],
			"min":[
				-1,
				-1,
				-1
			],
			"type":"VEC3"
		},
		{
			"bufferView":8,
			"componentType":5126,
			"count":72,
			"type":"VEC3"
		},
		{
			"bufferView":9,
			"componentType":5126,
			"count":72,
			"type":"VEC2"
		},
		{
			"bufferView":10,
			"componentType":5126,
			"count":72,
			"max":[
				1,
				1,
				1
			],
			"min":[
				-1,
				-1,
				-1
			],
			"type":"VEC3"
		},
		{
			"bufferView":11,
			"componentType":5126,
			"count":72,
			"type":"VEC3"
		},
		{
			"bufferView":12,
			"componentType":5126,
			"count":72,
			"type":"VEC2"
		},
		{
			"bufferView":13,
			"componentType":5126,
			"count":24,
			"max":[
				1,
				1,
				1
			],
			"min":[
				-1,
				-1,
				-1
			],
			"type":"VEC3"
		},
		{
			"bufferView":14,
			"componentType":5126,
			"count":24,
			"type":"VEC3"
		},
		{
			"bufferView":15,
			"componentType":5126,
			"count":24,
			"type":"VEC2"
		},
		{
			"bufferView":16,
			"componentType":5123,
			"count":36,
			"type":"SCALAR"
		},
		{
			"bufferView":17,
			"componentType":5126,
			"count":24,
			"max":[
				1,
				1,
				1
			],
			"min":[
				-1,
				-1,
				-1
			],
			"type":"VEC3"
		},
		{
			"bufferView":18,
			"componentType":5126,
			"count":24,
			"type":"VEC3"
		},
		{
			"bufferView":19,
			"componentType":5126,
			"count":24,
			"type":"VEC2"
		},
		{
			"bufferView":20,
			"componentType":5126,
			"count":480,
			"max":[
				1,
				1,
				1
			],
			"min":[
				-0.9999999403953552,
				-1,
				-1
			],
			"type":"VEC3"
		},
		{
			"bufferView":21,
			"componentType":5126,
			"count":480,
			"type":"VEC3"
		},
		{
			"bufferView":22,
			"componentType":5126,
			"count":480,
			"type":"VEC2"
		},
		{
			"bufferView":23,
			"componentType":5123,
			"count":672,
			"type":"SCALAR"
		},
		{
			"bufferView":24,
			"componentType":5126,
			"count":480,
			"max":[
				1,
				1,
				1
			],
			"min":[
				-0.9999999403953552,
				-1,
				-1
			],
			"type":"VEC3"
		},
		{
			"bufferView":25,
			"componentType":5126,
			"count":480,
			"type":"VEC3"
		},
		{
			"bufferView":26,
			"componentType":5126,
			"count":480,
			"type":"VEC2"
		},
		{
			"bufferView":27,
			"componentType":5126,
			"count":480,
			"max":[
				1,
				1,
				1
			],
			"min":[
				-0.9999999403953552,
				-1,
				-1
			],
			"type":"VEC3"
		},
		{
			"bufferView":28,
			"componentType":5126,
			"count":480,
			"type":"VEC3"
		},
		{
			"bufferView":29,
			"componentType":5126,
			"count":480,
			"type":"VEC2"
		},
		{
			"bufferView":30,
			"componentType":5123,
			"count":672,
			"type":"SCALAR"
		},
		{
			"bufferView":31,
			"componentType":5126,
			"count":24,
			"max":[
				1,
				1,
				1
			],
			"min":[
				-1,
				-1,
				-1
			],
			"type":"VEC3"
		},
		{
			"bufferView":32,
			"componentType":5126,
			"count":24,
			"type":"VEC3"
		},
		{
			"bufferView":33,
			"componentType":5126,
			"count":24,
			"type":"VEC2"
		},
		{
			"bufferView":34,
			"componentType":5126,
			"count":72,
			"max":[
				1,
				1,
				1
			],
			"min":[
				-1,
				-1,
				-1
			],
			"type":"VEC3"
		},
		{
			"bufferView":35,
			"componentType":5126,
			"count":72,
			"type":"VEC3"
		},
		{
			"bufferView":36,
			"componentType":5126,
			"count":72,
			"type":"VEC2"
		},
		{
			"bufferView":37,
			"componentType":5126,
			"count":72,
			"max":[
				1,
				1,
				1
			],
			"min":[
				-1,
				-1,
				-1
			],
			"type":"VEC3"
		},
		{
			"bufferView":38,
			"componentType":5126,
			"count":72,
			"type":"VEC3"
		},
		{
			"bufferView":39,
			"componentType":5126,
			"count":72,
			"type":"VEC2"
		},
		{
			"bufferView":40,
			"componentType":5126,
			"count":72,
			"max":[
				1,
				1,
				1
			],
			"min":[
				-1,
				-1,
				-1
			],
			"type":"VEC3"
		},
		{
			"bufferView":41,
			"componentType":5126,
			"count":72,
			"type":"VEC3"
		},
		{
			"bufferView":42,
			"componentType":5126,
			"count":72,
			"type":"VEC2"
		},
		{
			"bufferView":43,
			"componentType":5126,
			"count":72,
			"max":[
				1,
				1,
				1
			],
			"min":[
				-1,
				-1,
				-1
			],
			"type":"VEC3"
		},
		{
			"bufferView":44,
			"componentType":5126,
			"count":72,
			"type":"VEC3"
		},
		{
			"bufferView":45,
			"componentType":5126,
			"count":72,
			"type":"VEC2"
		},
		{
			"bufferView":46,
			"componentType":5126,
			"count":72,
			"max":[
				1,
				1,
				1
			],
			"min":[
				-1,
				-1,
				-1
			],
			"type":"VEC3"
		},
		{
			"bufferView":47,
			"componentType":5126,
			"count":72,
			"type":"VEC3"
		},
		{
			"bufferView":48,
			"componentType":5126,
			"count":72,
			"type":"VEC2"
		},
		{
			"bufferView":49,
			"componentType":5126,
			"count":24,
			"max":[
				1,
				1,
				1
			],
			"min":[
				-1,
				-1,
				-1
			],
			"type":"VEC3"
		},
		{
			"bufferView":50,
			"componentType":5126,
			"count":24,
			"type":"VEC3"
		},
		{
			"bufferView":51,
			"componentType":5126,
			"count":24,
			"type":"VEC2"
		}
	],
	"bufferViews":[
		{
			"buffer":0,
			"byteLength":864,
			"byteOffset":0,
			"target":34962
		},
		{
			"buffer":0,
			"byteLength":864,
			"byteOffset":864,
			"target":34962
		},
		{
			"buffer":0,
			"byteLength":576,
			"byteOffset":1728,
			"target":34962
		},
		{
			"buffer":0,
			"byteLength":264,
			"byteOffset":2304,
			"target":34963
		},
		{
			"buffer":0,
			"byteLength":864,
			"byteOffset":2568,
			"target":34962
		},
		{
			"buffer":0,
			"byteLength":864,
			"byteOffset":3432,
			"target":34962
		},
		{
			"buffer":0,
			"byteLength":576,
			"byteOffset":4296,
			"target":34962
		},
		{
			"buffer":0,
			"byteLength":864,
			"byteOffset":4872,
			"target":34962
		},
		{
			"buffer":0,
			"byteLength":864,
			"byteOffset":5736,
			"target":34962
		},
		{
			"buffer":0,
			"byteLength":576,
			"byteOffset":6600,
			"target":34962
		},
		{
			"buffer":0,
			"byteLength":864,
			"byteOffset":7176,
			"target":34962
		},
		{
			"buffer":0,
			"byteLength":864,
			"byteOffset":8040,
			"target":34962
		},
		{
			"buffer":0,
			"byteLength":576,
			"byteOffset":8904,
			"target":34962
		},
		{
			"buffer":0,
			"byteLength":288,
			"byteOffset":9480,
			"target":34962
		},
		{
			"buffer":0,
			"byteLength":288,
			"byteOffset":9768,
			"target":34962
		},
		{
			"buffer":0,
			"byteLength":192,
			"byteOffset":10056,
			"target":34962
		},
		{
			"buffer":0,
			"byteLength":72,
			"byteOffset":10248,
			"target":34963
		},
		{
			"buffer":0,
			"byteLength":288,
			"byteOffset":10320,
			"target":34962
		},
		{
			"buffer":0,
			"byteLength":288,
			"byteOffset":10608,
			"target":34962
		},
		{
			"buffer":0,
			"byteLength":192,
			"byteOffset":10896,
			"target":34962
		},
		{
			"buffer":0,
			"byteLength":5760,
			"byteOffset":11088,
			"target":34962
		},
		{
			"buffer":0,
			"byteLength":5760,
			"byteOffset":16848,
			"target":34962
		},
		{
			"buffer":0,
			"byteLength":3840,
			"byteOffset":22608,
			"target":34962
		},
		{
			"buffer":0,
			"byteLength":1344,
			"byteOffset":26448,
			"target":34963
		},
		{
			"buffer":0,
			"byteLength":5760,
			"byteOffset":27792,
			"target":34962
		},
		{
			"buffer":0,
			"byteLength":5760,
			"byteOffset":33552,
			"target":34962
		},
		{
			"buffer":0,
			"byteLength":3840,
			"byteOffset":39312,
			"target":34962
		},
		{
			"buffer":0,
			"byteLength":5760,
			"byteOffset":43152,
			"target":34962
		},
		{
			"buffer":0,
			"byteLength":5760,
			"byteOffset":48912,
			"target":34962
		},
		{
			"buffer":0,
			"byteLength":3840,
			"byteOffset":54672,
			"target":34962
		},
		{
			"buffer":0,
			"byteLength":1344,
			"byteOffset":58512,
			"target":34963
		},
		{
			"buffer":0,
			"byteLength":288,
			"byteOffset":59856,
			"target":34962
		},
		{
			"buffer":0,
			"byteLength":288,
			"byteOffset":60144,
			"target":34962
		},
		{
			"buffer":0,
			"byteLength":192,
			"byteOffset":60432,
			"target":34962
		},
		{
			"buffer":0,
			"byteLength":864,
			"byteOffset":60624,
			"target":34962
		},
		{
			"buffer":0,
			"byteLength":864,
			"byteOffset":61488,
			"target":34962
		},
		{
			"buffer":0,
			"byteLength":576,
			"byteOffset":62352,
			"target":34962
		},
		{
			"buffer":0,
			"byteLength":864,
			"byteOffset":62928,
			"target":34962
		},
		{
			"buffer":0,
			"byteLength":864,
			"byteOffset":63792,
			"target":34962
		},
		{
			"buffer":0,
			"byteLength":576,
			"byteOffset":64656,
			"target":34962
		},
		{
			"buffer":0,
			"byteLength":864,
			"byteOffset":65232,
			"target":34962
		},
		{
			"buffer":0,
			"byteLength":864,
			"byteOffset":66096,
			"target":34962
		},
		{
			"buffer":0,
			"byteLength":576,
			"byteOffset":66960,
			"target":34962
		},
		{
			"buffer":0,
			"byteLength":864,
			"byteOffset":67536,
			"target":34962
		},
		{
			"buffer":0,
			"byteLength":864,
			"byteOffset":68400,
			"target":34962
		},
		{
			"buffer":0,
			"byteLength":576,
			"byteOffset":69264,
			"target":34962
		},
		{
			"buffer":0,
			"byteLength":864,
			"byteOffset":69840,
			"target":34962
		},
		{
			"buffer":0,
			"byteLength":864,
			"byteOffset":70704,
			"target":34962
		},
		{
			"buffer":0,
			"byteLength":576,
			"byteOffset":71568,
			"target":34962
		},
		{
			"buffer":0,
			"byteLength":288,
			"byteOffset":72144,
			"target":34962
		},
		{
			"buffer":0,
			"byteLength":288,
			"byteOffset":72432,
			"target":34962
		},
		{
			"buffer":0,
			"byteLength":192,
			"byteOffset":72720,
			"target":34962
		}
	],
	"buffers":[
		{
			"byteLength":72912,
			"uri":"char_player_male_lod0.bin"
		}
	]
}
