{
	"asset":{
		"generator":"Khronos glTF Blender I/O v5.0.21",
		"version":"2.0"
	},
	"scene":0,
	"scenes":[
		{
			"name":"Scene",
			"nodes":[
				0
			]
		}
	],
	"nodes":[
		{
			"mesh":0,
			"name":"prop_street_trashcan"
		}
	],
	"materials":[
		{
			"doubleSided":true,
			"name":"MetalGray",
			"pbrMetallicRoughness":{
				"baseColorFactor":[
					0.4000000059604645,
					0.4000000059604645,
					0.4000000059604645,
					1
				],
				"metallicFactor":0.6000000238418579,
				"roughnessFactor":0.5
			}
		}
	],
	"meshes":[
		{
			"name":"Cylinder.023",
			"primitives":[
				{
					"attributes":{
						"POSITION":0,
						"NORMAL":1,
						"TEXCOORD_0":2
					},
					"indices":3,
					"material":0
				}
			]
		}
	],
	"accessors":[
		{
			"bufferView":0,
			"componentType":5126,
			"count":2688,
			"max":[
				0.3199999928474426,
				0.5399999618530273,
				0.3199999928474426
			],
			"min":[
				-0.3199999928474426,
				-0.4000000059604645,
				-0.3199999928474426
			],
			"type":"VEC3"
		},
		{
			"bufferView":1,
			"componentType":5126,
			"count":2688,
			"type":"VEC3"
		},
		{
			"bufferView":2,
			"componentType":5126,
			"count":2688,
			"type":"VEC2"
		},
		{
			"bufferView":3,
			"componentType":5123,
			"count":4200,
			"type":"SCALAR"
		}
	],
	"bufferViews":[
		{
			"buffer":0,
			"byteLength":32256,
			"byteOffset":0,
			"target":34962
		},
		{
			"buffer":0,
			"byteLength":32256,
			"byteOffset":32256,
			"target":34962
		},
		{
			"buffer":0,
			"byteLength":21504,
			"byteOffset":64512,
			"target":34962
		},
		{
			"buffer":0,
			"byteLength":8400,
			"byteOffset":86016,
			"target":34963
		}
	],
	"buffers":[
		{
			"byteLength":94416,
			"uri":"prop_street_trashcan_lod0.bin"
		}
	]
}
