{
	"asset":{
		"generator":"Khronos glTF Blender I/O v5.0.21",
		"version":"2.0"
	},
	"scene":0,
	"scenes":[
		{
			"name":"Scene",
			"nodes":[
				0
			]
		}
	],
	"nodes":[
		{
			"mesh":0,
			"name":"prop_street_lamppost"
		}
	],
	"materials":[
		{
			"doubleSided":true,
			"name":"MetalGreen",
			"pbrMetallicRoughness":{
				"baseColorFactor":[
					0.10000000149011612,
					0.30000001192092896,
					0.15000000596046448,
					1
				],
				"metallicFactor":0.5,
				"roughnessFactor":0.4000000059604645
			}
		},
		{
			"doubleSided":true,
			"name":"MetalGray",
			"pbrMetallicRoughness":{
				"baseColorFactor":[
					0.4000000059604645,
					0.4000000059604645,
					0.4000000059604645,
					1
				],
				"metallicFactor":0.6000000238418579,
				"roughnessFactor":0.5
			}
		}
	],
	"meshes":[
		{
			"name":"Cylinder.020",
			"primitives":[
				{
					"attributes":{
						"POSITION":0,
						"NORMAL":1,
						"TEXCOORD_0":2
					},
					"indices":3,
					"material":0
				},
				{
					"attributes":{
						"POSITION":4,
						"NORMAL":5,
						"TEXCOORD_0":6
					},
					"indices":7,
					"material":1
				}
			]
		}
	],
	"accessors":[
		{
			"bufferView":0,
			"componentType":5126,
			"count":2368,
			"max":[
				0.2800000011920929,
				2.5249998569488525,
				0.2800000011920929
			],
			"min":[
				-0.2800000011920929,
				-2,
				-0.2800000011920929
			],
			"type":"VEC3"
		},
		{
			"bufferView":1,
			"componentType":5126,
			"count":2368,
			"type":"VEC3"
		},
		{
			"bufferView":2,
			"componentType":5126,
			"count":2368,
			"type":"VEC2"
		},
		{
			"bufferView":3,
			"componentType":5123,
			"count":3624,
			"type":"SCALAR"
		},
		{
			"bufferView":4,
			"componentType":5126,
			"count":192,
			"max":[
				0.15000000596046448,
				-1.7999999523162842,
				0.15000000596046448
			],
			"min":[
				-0.15000000596046448,
				-2,
				-0.15000000596046448
			],
			"type":"VEC3"
		},
		{
			"bufferView":5,
			"componentType":5126,
			"count":192,
			"type":"VEC3"
		},
		{
			"bufferView":6,
			"componentType":5126,
			"count":192,
			"type":"VEC2"
		},
		{
			"bufferView":7,
			"componentType":5123,
			"count":372,
			"type":"SCALAR"
		}
	],
	"bufferViews":[
		{
			"buffer":0,
			"byteLength":28416,
			"byteOffset":0,
			"target":34962
		},
		{
			"buffer":0,
			"byteLength":28416,
			"byteOffset":28416,
			"target":34962
		},
		{
			"buffer":0,
			"byteLength":18944,
			"byteOffset":56832,
			"target":34962
		},
		{
			"buffer":0,
			"byteLength":7248,
			"byteOffset":75776,
			"target":34963
		},
		{
			"buffer":0,
			"byteLength":2304,
			"byteOffset":83024,
			"target":34962
		},
		{
			"buffer":0,
			"byteLength":2304,
			"byteOffset":85328,
			"target":34962
		},
		{
			"buffer":0,
			"byteLength":1536,
			"byteOffset":87632,
			"target":34962
		},
		{
			"buffer":0,
			"byteLength":744,
			"byteOffset":89168,
			"target":34963
		}
	],
	"buffers":[
		{
			"byteLength":89912,
			"uri":"prop_street_lamppost_lod0.bin"
		}
	]
}
