{
	"asset":{
		"generator":"Khronos glTF Blender I/O v5.0.21",
		"version":"2.0"
	},
	"scene":0,
	"scenes":[
		{
			"name":"Scene",
			"nodes":[
				0
			]
		}
	],
	"nodes":[
		{
			"mesh":0,
			"name":"prop_street_phone_booth"
		}
	],
	"materials":[
		{
			"doubleSided":true,
			"name":"MetalBlueDark",
			"pbrMetallicRoughness":{
				"baseColorFactor":[
					0.11999999731779099,
					0.18000000715255737,
					0.2800000011920929,
					1
				],
				"metallicFactor":0.5,
				"roughnessFactor":0.550000011920929
			}
		},
		{
			"alphaMode":"BLEND",
			"doubleSided":true,
			"name":"GlassWarm",
			"pbrMetallicRoughness":{
				"baseColorFactor":[
					0.8500000238418579,
					0.6499999761581421,
					0.44999998807907104,
					0.4000000059604645
				],
				"metallicFactor":0,
				"roughnessFactor":0.10000000149011612
			}
		},
		{
			"doubleSided":true,
			"name":"WoodFrame",
			"pbrMetallicRoughness":{
				"baseColorFactor":[
					0.3499999940395355,
					0.2199999988079071,
					0.11999999731779099,
					1
				],
				"metallicFactor":0,
				"roughnessFactor":0.699999988079071
			}
		},
		{
			"doubleSided":true,
			"name":"Brass",
			"pbrMetallicRoughness":{
				"baseColorFactor":[
					0.699999988079071,
					0.550000011920929,
					0.25,
					1
				],
				"metallicFactor":0.800000011920929,
				"roughnessFactor":0.30000001192092896
			}
		},
		{
			"doubleSided":true,
			"name":"Black",
			"pbrMetallicRoughness":{
				"baseColorFactor":[
					0.05000000074505806,
					0.05000000074505806,
					0.05000000074505806,
					1
				],
				"metallicFactor":0,
				"roughnessFactor":0.6000000238418579
			}
		},
		{
			"doubleSided":true,
			"name":"Light",
			"pbrMetallicRoughness":{
				"baseColorFactor":[
					1,
					0.8999999761581421,
					0.6000000238418579,
					1
				],
				"metallicFactor":0,
				"roughnessFactor":0
			}
		}
	],
	"meshes":[
		{
			"name":"Cube.055",
			"primitives":[
				{
					"attributes":{
						"POSITION":0,
						"NORMAL":1,
						"TEXCOORD_0":2
					},
					"indices":3,
					"material":0
				},
				{
					"attributes":{
						"POSITION":4,
						"NORMAL":5,
						"TEXCOORD_0":6
					},
					"indices":7,
					"material":1
				},
				{
					"attributes":{
						"POSITION":8,
						"NORMAL":9,
						"TEXCOORD_0":10
					},
					"indices":11,
					"material":2
				},
				{
					"attributes":{
						"POSITION":12,
						"NORMAL":13,
						"TEXCOORD_0":14
					},
					"indices":15,
					"material":3
				},
				{
					"attributes":{
						"POSITION":16,
						"NORMAL":17,
						"TEXCOORD_0":18
					},
					"indices":19,
					"material":4
				},
				{
					"attributes":{
						"POSITION":20,
						"NORMAL":21,
						"TEXCOORD_0":22
					},
					"indices":23,
					"material":5
				}
			]
		}
	],
	"accessors":[
		{
			"bufferView":0,
			"componentType":5126,
			"count":624,
			"max":[
				0.47499996423721313,
				2.794999837875366,
				0.47499996423721313
			],
			"min":[
				-0.47499996423721313,
				0.019999999552965164,
				-0.47499996423721313
			],
			"type":"VEC3"
		},
		{
			"bufferView":1,
			"componentType":5126,
			"count":624,
			"type":"VEC3"
		},
		{
			"bufferView":2,
			"componentType":5126,
			"count":624,
			"type":"VEC2"
		},
		{
			"bufferView":3,
			"componentType":5123,
			"count":1020,
			"type":"SCALAR"
		},
		{
			"bufferView":4,
			"componentType":5126,
			"count":96,
			"max":[
				0.6575000286102295,
				1.9124999046325684,
				0.9871681332588196
			],
			"min":[
				-0.6575000286102295,
				0.8125,
				-0.4570000171661377
			],
			"type":"VEC3"
		},
		{
			"bufferView":5,
			"componentType":5126,
			"count":96,
			"type":"VEC3"
		},
		{
			"bufferView":6,
			"componentType":5126,
			"count":96,
			"type":"VEC2"
		},
		{
			"bufferView":7,
			"componentType":5123,
			"count":144,
			"type":"SCALAR"
		},
		{
			"bufferView":8,
			"componentType":5126,
			"count":312,
			"max":[
				0.6575000286102295,
				1.9199999570846558,
				0.9887750744819641
			],
			"min":[
				-0.6575000286102295,
				0.8125,
				-0.46250003576278687
			],
			"type":"VEC3"
		},
		{
			"bufferView":9,
			"componentType":5126,
			"count":312,
			"type":"VEC3"
		},
		{
			"bufferView":10,
			"componentType":5126,
			"count":312,
			"type":"VEC2"
		},
		{
			"bufferView":11,
			"componentType":5123,
			"count":468,
			"type":"SCALAR"
		},
		{
			"bufferView":12,
			"componentType":5126,
			"count":336,
			"max":[
				0.4925000071525574,
				2.929999828338623,
				0.4925000071525574
			],
			"min":[
				-0.4925000071525574,
				1.1274999380111694,
				-0.4925000071525574
			],
			"type":"VEC3"
		},
		{
			"bufferView":13,
			"componentType":5126,
			"count":336,
			"type":"VEC3"
		},
		{
			"bufferView":14,
			"componentType":5126,
			"count":336,
			"type":"VEC2"
		},
		{
			"bufferView":15,
			"componentType":5123,
			"count":588,
			"type":"SCALAR"
		},
		{
			"bufferView":16,
			"componentType":5126,
			"count":2200,
			"max":[
				0.14999999105930328,
				1.5799999237060547,
				-0.3449999988079071
			],
			"min":[
				-0.07500000298023224,
				1.2999999523162842,
				-0.42500001192092896
			],
			"type":"VEC3"
		},
		{
			"bufferView":17,
			"componentType":5126,
			"count":2200,
			"type":"VEC3"
		},
		{
			"bufferView":18,
			"componentType":5126,
			"count":2200,
			"type":"VEC2"
		},
		{
			"bufferView":19,
			"componentType":5123,
			"count":3288,
			"type":"SCALAR"
		},
		{
			"bufferView":20,
			"componentType":5126,
			"count":24,
			"max":[
				0.07500000298023224,
				2.319999933242798,
				0.07500000298023224
			],
			"min":[
				-0.07500000298023224,
				2.2799999713897705,
				-0.07500000298023224
			],
			"type":"VEC3"
		},
		{
			"bufferView":21,
			"componentType":5126,
			"count":24,
			"type":"VEC3"
		},
		{
			"bufferView":22,
			"componentType":5126,
			"count":24,
			"type":"VEC2"
		},
		{
			"bufferView":23,
			"componentType":5123,
			"count":36,
			"type":"SCALAR"
		}
	],
	"bufferViews":[
		{
			"buffer":0,
			"byteLength":7488,
			"byteOffset":0,
			"target":34962
		},
		{
			"buffer":0,
			"byteLength":7488,
			"byteOffset":7488,
			"target":34962
		},
		{
			"buffer":0,
			"byteLength":4992,
			"byteOffset":14976,
			"target":34962
		},
		{
			"buffer":0,
			"byteLength":2040,
			"byteOffset":19968,
			"target":34963
		},
		{
			"buffer":0,
			"byteLength":1152,
			"byteOffset":22008,
			"target":34962
		},
		{
			"buffer":0,
			"byteLength":1152,
			"byteOffset":23160,
			"target":34962
		},
		{
			"buffer":0,
			"byteLength":768,
			"byteOffset":24312,
			"target":34962
		},
		{
			"buffer":0,
			"byteLength":288,
			"byteOffset":25080,
			"target":34963
		},
		{
			"buffer":0,
			"byteLength":3744,
			"byteOffset":25368,
			"target":34962
		},
		{
			"buffer":0,
			"byteLength":3744,
			"byteOffset":29112,
			"target":34962
		},
		{
			"buffer":0,
			"byteLength":2496,
			"byteOffset":32856,
			"target":34962
		},
		{
			"buffer":0,
			"byteLength":936,
			"byteOffset":35352,
			"target":34963
		},
		{
			"buffer":0,
			"byteLength":4032,
			"byteOffset":36288,
			"target":34962
		},
		{
			"buffer":0,
			"byteLength":4032,
			"byteOffset":40320,
			"target":34962
		},
		{
			"buffer":0,
			"byteLength":2688,
			"byteOffset":44352,
			"target":34962
		},
		{
			"buffer":0,
			"byteLength":1176,
			"byteOffset":47040,
			"target":34963
		},
		{
			"buffer":0,
			"byteLength":26400,
			"byteOffset":48216,
			"target":34962
		},
		{
			"buffer":0,
			"byteLength":26400,
			"byteOffset":74616,
			"target":34962
		},
		{
			"buffer":0,
			"byteLength":17600,
			"byteOffset":101016,
			"target":34962
		},
		{
			"buffer":0,
			"byteLength":6576,
			"byteOffset":118616,
			"target":34963
		},
		{
			"buffer":0,
			"byteLength":288,
			"byteOffset":125192,
			"target":34962
		},
		{
			"buffer":0,
			"byteLength":288,
			"byteOffset":125480,
			"target":34962
		},
		{
			"buffer":0,
			"byteLength":192,
			"byteOffset":125768,
			"target":34962
		},
		{
			"buffer":0,
			"byteLength":72,
			"byteOffset":125960,
			"target":34963
		}
	],
	"buffers":[
		{
			"byteLength":126032,
			"uri":"prop_street_phone_booth_lod0.bin"
		}
	]
}
