{
	"asset":{
		"generator":"Khronos glTF Blender I/O v5.0.21",
		"version":"2.0"
	},
	"scene":0,
	"scenes":[
		{
			"name":"Scene",
			"nodes":[
				1
			]
		}
	],
	"nodes":[
		{
			"mesh":0,
			"name":"geometry_0"
		},
		{
			"children":[
				0
			],
			"name":"world"
		}
	],
	"materials":[
		{
			"name":"Material_0",
			"pbrMetallicRoughness":{
				"baseColorTexture":{
					"index":0
				}
			}
		}
	],
	"meshes":[
		{
			"name":"geometry_0",
			"primitives":[
				{
					"attributes":{
						"POSITION":0,
						"NORMAL":1,
						"TEXCOORD_0":2
					},
					"indices":3,
					"material":0
				}
			]
		}
	],
	"textures":[
		{
			"sampler":0,
			"source":0
		}
	],
	"images":[
		{
			"mimeType":"image/png",
			"name":"Image_0",
			"uri":"Image_0.png"
		}
	],
	"accessors":[
		{
			"bufferView":0,
			"componentType":5126,
			"count":68587,
			"max":[
				0.5009939074516296,
				0.3197760581970215,
				0.4526689052581787
			],
			"min":[
				-0.5016419291496277,
				-0.33215317130088806,
				-0.45295679569244385
			],
			"type":"VEC3"
		},
		{
			"bufferView":1,
			"componentType":5126,
			"count":68587,
			"type":"VEC3"
		},
		{
			"bufferView":2,
			"componentType":5126,
			"count":68587,
			"type":"VEC2"
		},
		{
			"bufferView":3,
			"componentType":5125,
			"count":68607,
			"type":"SCALAR"
		}
	],
	"bufferViews":[
		{
			"buffer":0,
			"byteLength":823044,
			"byteOffset":0,
			"target":34962
		},
		{
			"buffer":0,
			"byteLength":823044,
			"byteOffset":823044,
			"target":34962
		},
		{
			"buffer":0,
			"byteLength":548696,
			"byteOffset":1646088,
			"target":34962
		},
		{
			"buffer":0,
			"byteLength":274428,
			"byteOffset":2194784,
			"target":34963
		}
	],
	"samplers":[
		{
			"magFilter":9729,
			"minFilter":9987
		}
	],
	"buffers":[
		{
			"byteLength":2469212,
			"uri":"tent_1960_02.bin"
		}
	]
}
