{
	"asset":{
		"generator":"Khronos glTF Blender I/O v5.0.21",
		"version":"2.0"
	},
	"scene":0,
	"scenes":[
		{
			"name":"Scene",
			"nodes":[
				1
			]
		}
	],
	"nodes":[
		{
			"mesh":0,
			"name":"geometry_0"
		},
		{
			"children":[
				0
			],
			"name":"world"
		}
	],
	"materials":[
		{
			"name":"Material_0",
			"pbrMetallicRoughness":{
				"baseColorTexture":{
					"index":0
				}
			}
		}
	],
	"meshes":[
		{
			"name":"geometry_0",
			"primitives":[
				{
					"attributes":{
						"POSITION":0,
						"NORMAL":1,
						"TEXCOORD_0":2
					},
					"indices":3,
					"material":0
				}
			]
		}
	],
	"textures":[
		{
			"sampler":0,
			"source":0
		}
	],
	"images":[
		{
			"mimeType":"image/png",
			"name":"Image_0",
			"uri":"Image_0.png"
		}
	],
	"accessors":[
		{
			"bufferView":0,
			"componentType":5126,
			"count":59759,
			"max":[
				0.5009369850158691,
				0.2470569759607315,
				0.4558964669704437
			],
			"min":[
				-0.5010013580322266,
				-0.24921053647994995,
				-0.4820441007614136
			],
			"type":"VEC3"
		},
		{
			"bufferView":1,
			"componentType":5126,
			"count":59759,
			"type":"VEC3"
		},
		{
			"bufferView":2,
			"componentType":5126,
			"count":59759,
			"type":"VEC2"
		},
		{
			"bufferView":3,
			"componentType":5123,
			"count":67635,
			"type":"SCALAR"
		}
	],
	"bufferViews":[
		{
			"buffer":0,
			"byteLength":717108,
			"byteOffset":0,
			"target":34962
		},
		{
			"buffer":0,
			"byteLength":717108,
			"byteOffset":717108,
			"target":34962
		},
		{
			"buffer":0,
			"byteLength":478072,
			"byteOffset":1434216,
			"target":34962
		},
		{
			"buffer":0,
			"byteLength":135270,
			"byteOffset":1912288,
			"target":34963
		}
	],
	"samplers":[
		{
			"magFilter":9729,
			"minFilter":9987
		}
	],
	"buffers":[
		{
			"byteLength":2047560,
			"uri":"tent_1960.bin"
		}
	]
}
