{
	"asset":{
		"generator":"Khronos glTF Blender I/O v5.0.21",
		"version":"2.0"
	},
	"scene":0,
	"scenes":[
		{
			"name":"Scene",
			"nodes":[
				0
			]
		}
	],
	"nodes":[
		{
			"mesh":0,
			"name":"geometry_0"
		}
	],
	"materials":[
		{
			"name":"Material_0",
			"pbrMetallicRoughness":{
				"baseColorTexture":{
					"index":0
				}
			}
		}
	],
	"meshes":[
		{
			"name":"geometry_0",
			"primitives":[
				{
					"attributes":{
						"POSITION":0,
						"NORMAL":1,
						"TEXCOORD_0":2
					},
					"indices":3,
					"material":0
				}
			]
		}
	],
	"textures":[
		{
			"sampler":0,
			"source":0
		}
	],
	"images":[
		{
			"mimeType":"image/png",
			"name":"Image_0",
			"uri":"Image_0.png"
		}
	],
	"accessors":[
		{
			"bufferView":0,
			"componentType":5126,
			"count":32978,
			"max":[
				0.023945357650518417,
				0.10583295673131943,
				0.5004542469978333
			],
			"min":[
				-0.022946830838918686,
				-0.10583896934986115,
				-0.5000970363616943
			],
			"type":"VEC3"
		},
		{
			"bufferView":1,
			"componentType":5126,
			"count":32978,
			"type":"VEC3"
		},
		{
			"bufferView":2,
			"componentType":5126,
			"count":32978,
			"type":"VEC2"
		},
		{
			"bufferView":3,
			"componentType":5123,
			"count":128754,
			"type":"SCALAR"
		}
	],
	"bufferViews":[
		{
			"buffer":0,
			"byteLength":395736,
			"byteOffset":0,
			"target":34962
		},
		{
			"buffer":0,
			"byteLength":395736,
			"byteOffset":395736,
			"target":34962
		},
		{
			"buffer":0,
			"byteLength":263824,
			"byteOffset":791472,
			"target":34962
		},
		{
			"buffer":0,
			"byteLength":257508,
			"byteOffset":1055296,
			"target":34963
		}
	],
	"samplers":[
		{
			"magFilter":9729,
			"minFilter":9987
		}
	],
	"buffers":[
		{
			"byteLength":1312804,
			"uri":"wpn_remington870_lod0.bin"
		}
	]
}
