{
	"asset":{
		"generator":"Khronos glTF Blender I/O v5.0.21",
		"version":"2.0"
	},
	"scene":0,
	"scenes":[
		{
			"name":"Scene",
			"nodes":[
				1
			]
		}
	],
	"nodes":[
		{
			"mesh":0,
			"name":"geometry_0",
			"translation":[
				0.01356494054198265,
				0.05699028819799423,
				-0.0052620768547058105
			]
		},
		{
			"children":[
				0
			],
			"name":"world",
			"translation":[
				-0.015560667961835861,
				0.08582913130521774,
				-0.0705607682466507
			]
		}
	],
	"materials":[
		{
			"name":"Material_0",
			"pbrMetallicRoughness":{
				"baseColorTexture":{
					"index":0
				}
			}
		}
	],
	"meshes":[
		{
			"name":"geometry_0",
			"primitives":[
				{
					"attributes":{
						"POSITION":0,
						"NORMAL":1,
						"TEXCOORD_0":2
					},
					"indices":3,
					"material":0
				}
			]
		}
	],
	"textures":[
		{
			"sampler":0,
			"source":0
		}
	],
	"images":[
		{
			"mimeType":"image/png",
			"name":"Image_0",
			"uri":"Image_0.png"
		}
	],
	"accessors":[
		{
			"bufferView":0,
			"componentType":5126,
			"count":22100,
			"max":[
				0.19009150564670563,
				0.16991814970970154,
				0.5007695555686951
			],
			"min":[
				-0.1902674436569214,
				-0.1699289083480835,
				-0.5003325939178467
			],
			"type":"VEC3"
		},
		{
			"bufferView":1,
			"componentType":5126,
			"count":22100,
			"type":"VEC3"
		},
		{
			"bufferView":2,
			"componentType":5126,
			"count":22100,
			"type":"VEC2"
		},
		{
			"bufferView":3,
			"componentType":5123,
			"count":22116,
			"type":"SCALAR"
		}
	],
	"bufferViews":[
		{
			"buffer":0,
			"byteLength":265200,
			"byteOffset":0,
			"target":34962
		},
		{
			"buffer":0,
			"byteLength":265200,
			"byteOffset":265200,
			"target":34962
		},
		{
			"buffer":0,
			"byteLength":176800,
			"byteOffset":530400,
			"target":34962
		},
		{
			"buffer":0,
			"byteLength":44232,
			"byteOffset":707200,
			"target":34963
		}
	],
	"samplers":[
		{
			"magFilter":9729,
			"minFilter":9987
		}
	],
	"buffers":[
		{
			"byteLength":751432,
			"uri":"vehicle_police_car_1960s_lod0.bin"
		}
	]
}
