{
	"asset":{
		"generator":"Khronos glTF Blender I/O v5.0.21",
		"version":"2.0"
	},
	"extensionsUsed":[
		"KHR_materials_specular",
		"KHR_materials_ior"
	],
	"scene":0,
	"scenes":[
		{
			"name":"Scene",
			"nodes":[
				0
			]
		}
	],
	"nodes":[
		{
			"mesh":0,
			"name":"u2EBuild3",
			"rotation":[
				0.70710688829422,
				0,
				0,
				0.7071066498756409
			]
		}
	],
	"materials":[
		{
			"doubleSided":true,
			"extensions":{
				"KHR_materials_specular":{
					"specularColorFactor":[
						0.04800000041723251,
						0.04800000041723251,
						0.04800000041723251
					]
				},
				"KHR_materials_ior":{
					"ior":0
				}
			},
			"name":"Concrete_u2EBuild3_1",
			"pbrMetallicRoughness":{
				"baseColorTexture":{
					"index":0
				},
				"metallicFactor":0,
				"roughnessFactor":0.9687750339508057
			}
		},
		{
			"doubleSided":true,
			"extensions":{
				"KHR_materials_specular":{
					"specularColorFactor":[
						0.04800000041723251,
						0.04800000041723251,
						0.04800000041723251
					]
				},
				"KHR_materials_ior":{
					"ior":0
				}
			},
			"name":"WindowA_u2EBuild3_1",
			"pbrMetallicRoughness":{
				"baseColorTexture":{
					"index":1
				},
				"metallicFactor":0,
				"roughnessFactor":0.9691779017448425
			}
		},
		{
			"doubleSided":true,
			"extensions":{
				"KHR_materials_specular":{
					"specularColorFactor":[
						0.04800000041723251,
						0.04800000041723251,
						0.04800000041723251
					]
				},
				"KHR_materials_ior":{
					"ior":0
				}
			},
			"name":"Building11_u2EBuild3_1",
			"pbrMetallicRoughness":{
				"baseColorTexture":{
					"index":2
				},
				"metallicFactor":0,
				"roughnessFactor":0.9691779017448425
			}
		},
		{
			"doubleSided":true,
			"extensions":{
				"KHR_materials_specular":{
					"specularColorFactor":[
						0.04800000041723251,
						0.04800000041723251,
						0.04800000041723251
					]
				},
				"KHR_materials_ior":{
					"ior":0
				}
			},
			"name":"WindowsB_u2EBuild3_1",
			"pbrMetallicRoughness":{
				"baseColorTexture":{
					"index":3
				},
				"metallicFactor":0,
				"roughnessFactor":0.9691779017448425
			}
		},
		{
			"doubleSided":true,
			"extensions":{
				"KHR_materials_specular":{
					"specularColorFactor":[
						0.04800000041723251,
						0.04800000041723251,
						0.04800000041723251
					]
				},
				"KHR_materials_ior":{
					"ior":0
				}
			},
			"name":"RooftopProps_u2EBuild3_1",
			"pbrMetallicRoughness":{
				"baseColorTexture":{
					"index":4
				},
				"metallicFactor":0,
				"roughnessFactor":0.9685357213020325
			}
		},
		{
			"doubleSided":true,
			"extensions":{
				"KHR_materials_specular":{
					"specularColorFactor":[
						0.04800000041723251,
						0.04800000041723251,
						0.04800000041723251
					]
				},
				"KHR_materials_ior":{
					"ior":0
				}
			},
			"name":"Concrete1_u2EBuild3_1",
			"pbrMetallicRoughness":{
				"baseColorTexture":{
					"index":5
				},
				"metallicFactor":0,
				"roughnessFactor":0.9687750339508057
			}
		},
		{
			"doubleSided":true,
			"extensions":{
				"KHR_materials_specular":{
					"specularColorFactor":[
						0.04800000041723251,
						0.04800000041723251,
						0.04800000041723251
					]
				},
				"KHR_materials_ior":{
					"ior":0
				}
			},
			"name":"MetalGalvanized_u2EBuild3_1",
			"pbrMetallicRoughness":{
				"baseColorTexture":{
					"index":6
				},
				"metallicFactor":0,
				"roughnessFactor":0.9687750339508057
			}
		},
		{
			"doubleSided":true,
			"extensions":{
				"KHR_materials_specular":{
					"specularColorFactor":[
						0.04800000041723251,
						0.04800000041723251,
						0.04800000041723251
					]
				},
				"KHR_materials_ior":{
					"ior":0
				}
			},
			"name":"Doors_u2EBuild3_1",
			"pbrMetallicRoughness":{
				"baseColorTexture":{
					"index":7
				},
				"metallicFactor":0,
				"roughnessFactor":0.9691779017448425
			}
		},
		{
			"doubleSided":true,
			"extensions":{
				"KHR_materials_specular":{
					"specularColorFactor":[
						0.04800000041723251,
						0.04800000041723251,
						0.04800000041723251
					]
				},
				"KHR_materials_ior":{
					"ior":0
				}
			},
			"name":"AirCon3_u2EBuild3_1",
			"pbrMetallicRoughness":{
				"baseColorTexture":{
					"index":8
				},
				"metallicFactor":0,
				"roughnessFactor":0.9685357213020325
			}
		},
		{
			"doubleSided":true,
			"extensions":{
				"KHR_materials_specular":{
					"specularColorFactor":[
						0.04800000041723251,
						0.04800000041723251,
						0.04800000041723251
					]
				},
				"KHR_materials_ior":{
					"ior":0
				}
			},
			"name":"YellowPaint_u2EBuild3_1",
			"pbrMetallicRoughness":{
				"baseColorTexture":{
					"index":9
				},
				"metallicFactor":0,
				"roughnessFactor":0.9693813920021057
			}
		},
		{
			"doubleSided":true,
			"extensions":{
				"KHR_materials_specular":{
					"specularColorFactor":[
						0.04800000041723251,
						0.04800000041723251,
						0.04800000041723251
					]
				},
				"KHR_materials_ior":{
					"ior":0
				}
			},
			"name":"Props1_u2EBuild3_1",
			"pbrMetallicRoughness":{
				"baseColorTexture":{
					"index":10
				},
				"metallicFactor":0,
				"roughnessFactor":0.9685357213020325
			}
		},
		{
			"doubleSided":true,
			"extensions":{
				"KHR_materials_specular":{
					"specularColorFactor":[
						0.04800000041723251,
						0.04800000041723251,
						0.04800000041723251
					]
				},
				"KHR_materials_ior":{
					"ior":0
				}
			},
			"name":"Props2_u2EBuild3_1",
			"pbrMetallicRoughness":{
				"baseColorTexture":{
					"index":11
				},
				"metallicFactor":0,
				"roughnessFactor":0.9691779017448425
			}
		},
		{
			"doubleSided":true,
			"extensions":{
				"KHR_materials_specular":{
					"specularColorFactor":[
						0.04800000041723251,
						0.04800000041723251,
						0.04800000041723251
					]
				},
				"KHR_materials_ior":{
					"ior":0
				}
			},
			"name":"Paving2_u2EBuild3_1",
			"pbrMetallicRoughness":{
				"baseColorTexture":{
					"index":12
				},
				"metallicFactor":0,
				"roughnessFactor":0.9687750339508057
			}
		},
		{
			"doubleSided":true,
			"extensions":{
				"KHR_materials_specular":{
					"specularColorFactor":[
						0.04800000041723251,
						0.04800000041723251,
						0.04800000041723251
					]
				},
				"KHR_materials_ior":{
					"ior":0
				}
			},
			"name":"Paving3_u2EBuild3_1",
			"pbrMetallicRoughness":{
				"baseColorTexture":{
					"index":13
				},
				"metallicFactor":0,
				"roughnessFactor":0.9687750339508057
			}
		}
	],
	"meshes":[
		{
			"name":"Urban Sprawl 2.051",
			"primitives":[
				{
					"attributes":{
						"POSITION":0,
						"NORMAL":1,
						"TEXCOORD_0":2
					},
					"indices":3,
					"material":0
				},
				{
					"attributes":{
						"POSITION":4,
						"NORMAL":5,
						"TEXCOORD_0":6
					},
					"indices":7,
					"material":1
				},
				{
					"attributes":{
						"POSITION":8,
						"NORMAL":9,
						"TEXCOORD_0":10
					},
					"indices":11,
					"material":2
				},
				{
					"attributes":{
						"POSITION":12,
						"NORMAL":13,
						"TEXCOORD_0":14
					},
					"indices":15,
					"material":3
				},
				{
					"attributes":{
						"POSITION":16,
						"NORMAL":17,
						"TEXCOORD_0":18
					},
					"indices":19,
					"material":4
				},
				{
					"attributes":{
						"POSITION":20,
						"NORMAL":21,
						"TEXCOORD_0":22
					},
					"indices":23,
					"material":5
				},
				{
					"attributes":{
						"POSITION":24,
						"NORMAL":25,
						"TEXCOORD_0":26
					},
					"indices":27,
					"material":6
				},
				{
					"attributes":{
						"POSITION":28,
						"NORMAL":29,
						"TEXCOORD_0":30
					},
					"indices":31,
					"material":7
				},
				{
					"attributes":{
						"POSITION":32,
						"NORMAL":33,
						"TEXCOORD_0":34
					},
					"indices":35,
					"material":8
				},
				{
					"attributes":{
						"POSITION":36,
						"NORMAL":37,
						"TEXCOORD_0":38
					},
					"indices":39,
					"material":9
				},
				{
					"attributes":{
						"POSITION":40,
						"NORMAL":41,
						"TEXCOORD_0":42
					},
					"indices":43,
					"material":10
				},
				{
					"attributes":{
						"POSITION":44,
						"NORMAL":45,
						"TEXCOORD_0":46
					},
					"indices":47,
					"material":11
				},
				{
					"attributes":{
						"POSITION":48,
						"NORMAL":49,
						"TEXCOORD_0":50
					},
					"indices":51,
					"material":12
				},
				{
					"attributes":{
						"POSITION":52,
						"NORMAL":53,
						"TEXCOORD_0":54
					},
					"indices":55,
					"material":13
				}
			]
		}
	],
	"textures":[
		{
			"sampler":0,
			"source":0
		},
		{
			"sampler":0,
			"source":1
		},
		{
			"sampler":0,
			"source":1
		},
		{
			"sampler":0,
			"source":1
		},
		{
			"sampler":0,
			"source":2
		},
		{
			"sampler":0,
			"source":0
		},
		{
			"sampler":0,
			"source":3
		},
		{
			"sampler":0,
			"source":4
		},
		{
			"sampler":0,
			"source":5
		},
		{
			"sampler":0,
			"source":6
		},
		{
			"sampler":0,
			"source":7
		},
		{
			"sampler":0,
			"source":8
		},
		{
			"sampler":0,
			"source":9
		},
		{
			"sampler":0,
			"source":10
		}
	],
	"images":[
		{
			"mimeType":"image/jpeg",
			"name":"u2crete2",
			"uri":"u2crete2.jpg"
		},
		{
			"mimeType":"image/jpeg",
			"name":"u2SEBuild11",
			"uri":"u2SEBuild11.jpg"
		},
		{
			"mimeType":"image/jpeg",
			"name":"u2props4",
			"uri":"u2props4.jpg"
		},
		{
			"mimeType":"image/jpeg",
			"name":"u2metal1",
			"uri":"u2metal1.jpg"
		},
		{
			"mimeType":"image/jpeg",
			"name":"u2doors1",
			"uri":"u2doors1.jpg"
		},
		{
			"mimeType":"image/jpeg",
			"name":"u2acunit1",
			"uri":"u2acunit1.jpg"
		},
		{
			"mimeType":"image/jpeg",
			"name":"u2yellow",
			"uri":"u2yellow.jpg"
		},
		{
			"mimeType":"image/jpeg",
			"name":"u2props1",
			"uri":"u2props1.jpg"
		},
		{
			"mimeType":"image/jpeg",
			"name":"u2props2",
			"uri":"u2props2.jpg"
		},
		{
			"mimeType":"image/jpeg",
			"name":"u2pave4",
			"uri":"u2pave4.jpg"
		},
		{
			"mimeType":"image/jpeg",
			"name":"u2pave3",
			"uri":"u2pave3.jpg"
		}
	],
	"accessors":[
		{
			"bufferView":0,
			"componentType":5126,
			"count":409,
			"max":[
				76.96330261230469,
				-16.988399505615234,
				-7.135809898376465
			],
			"min":[
				65.39569854736328,
				-38.49589920043945,
				-8.761340141296387
			],
			"type":"VEC3"
		},
		{
			"bufferView":1,
			"componentType":5126,
			"count":409,
			"type":"VEC3"
		},
		{
			"bufferView":2,
			"componentType":5126,
			"count":409,
			"type":"VEC2"
		},
		{
			"bufferView":3,
			"componentType":5123,
			"count":636,
			"type":"SCALAR"
		},
		{
			"bufferView":4,
			"componentType":5126,
			"count":14,
			"max":[
				76.50700378417969,
				-17.477800369262695,
				-1.7320499420166016
			],
			"min":[
				65.98179626464844,
				-38.062400817871094,
				-6.862840175628662
			],
			"type":"VEC3"
		},
		{
			"bufferView":5,
			"componentType":5126,
			"count":14,
			"type":"VEC3"
		},
		{
			"bufferView":6,
			"componentType":5126,
			"count":14,
			"type":"VEC2"
		},
		{
			"bufferView":7,
			"componentType":5123,
			"count":24,
			"type":"SCALAR"
		},
		{
			"bufferView":8,
			"componentType":5126,
			"count":884,
			"max":[
				76.90180206298828,
				-17.106199264526367,
				-1.3079500198364258
			],
			"min":[
				65.50469970703125,
				-38.425899505615234,
				-7.192999839782715
			],
			"type":"VEC3"
		},
		{
			"bufferView":9,
			"componentType":5126,
			"count":884,
			"type":"VEC3"
		},
		{
			"bufferView":10,
			"componentType":5126,
			"count":884,
			"type":"VEC2"
		},
		{
			"bufferView":11,
			"componentType":5123,
			"count":1308,
			"type":"SCALAR"
		},
		{
			"bufferView":12,
			"componentType":5126,
			"count":8,
			"max":[
				76.54460144042969,
				-27.772300720214844,
				-1.7320499420166016
			],
			"min":[
				66.12249755859375,
				-38.023799896240234,
				-6.862840175628662
			],
			"type":"VEC3"
		},
		{
			"bufferView":13,
			"componentType":5126,
			"count":8,
			"type":"VEC3"
		},
		{
			"bufferView":14,
			"componentType":5126,
			"count":8,
			"type":"VEC2"
		},
		{
			"bufferView":15,
			"componentType":5123,
			"count":12,
			"type":"SCALAR"
		},
		{
			"bufferView":16,
			"componentType":5126,
			"count":4274,
			"max":[
				75.33930206298828,
				-19.504600524902344,
				-7.256939888000488
			],
			"min":[
				66.06629943847656,
				-37.29199981689453,
				-9.004839897155762
			],
			"type":"VEC3"
		},
		{
			"bufferView":17,
			"componentType":5126,
			"count":4274,
			"type":"VEC3"
		},
		{
			"bufferView":18,
			"componentType":5126,
			"count":4274,
			"type":"VEC2"
		},
		{
			"bufferView":19,
			"componentType":5123,
			"count":7842,
			"type":"SCALAR"
		},
		{
			"bufferView":20,
			"componentType":5126,
			"count":40,
			"max":[
				77.09839630126953,
				-16.887500762939453,
				-0.048611901700496674
			],
			"min":[
				65.49189758300781,
				-38.464900970458984,
				-7.299270153045654
			],
			"type":"VEC3"
		},
		{
			"bufferView":21,
			"componentType":5126,
			"count":40,
			"type":"VEC3"
		},
		{
			"bufferView":22,
			"componentType":5126,
			"count":40,
			"type":"VEC2"
		},
		{
			"bufferView":23,
			"componentType":5123,
			"count":60,
			"type":"SCALAR"
		},
		{
			"bufferView":24,
			"componentType":5126,
			"count":62,
			"max":[
				69.06990051269531,
				-24.384000778198242,
				-7.253280162811279
			],
			"min":[
				67.38079833984375,
				-26.21030044555664,
				-8.761340141296387
			],
			"type":"VEC3"
		},
		{
			"bufferView":25,
			"componentType":5126,
			"count":62,
			"type":"VEC3"
		},
		{
			"bufferView":26,
			"componentType":5126,
			"count":62,
			"type":"VEC2"
		},
		{
			"bufferView":27,
			"componentType":5123,
			"count":108,
			"type":"SCALAR"
		},
		{
			"bufferView":28,
			"componentType":5126,
			"count":4,
			"max":[
				67.41899871826172,
				-24.54990005493164,
				-7.49098014831543
			],
			"min":[
				67.41889953613281,
				-24.92970085144043,
				-8.305150032043457
			],
			"type":"VEC3"
		},
		{
			"bufferView":29,
			"componentType":5126,
			"count":4,
			"type":"VEC3"
		},
		{
			"bufferView":30,
			"componentType":5126,
			"count":4,
			"type":"VEC2"
		},
		{
			"bufferView":31,
			"componentType":5123,
			"count":6,
			"type":"SCALAR"
		},
		{
			"bufferView":32,
			"componentType":5126,
			"count":1599,
			"max":[
				69.00370025634766,
				-23.22949981689453,
				-7.252389907836914
			],
			"min":[
				67.44869995117188,
				-26.226699829101562,
				-8.240139961242676
			],
			"type":"VEC3"
		},
		{
			"bufferView":33,
			"componentType":5126,
			"count":1599,
			"type":"VEC3"
		},
		{
			"bufferView":34,
			"componentType":5126,
			"count":1599,
			"type":"VEC2"
		},
		{
			"bufferView":35,
			"componentType":5123,
			"count":2394,
			"type":"SCALAR"
		},
		{
			"bufferView":36,
			"componentType":5126,
			"count":148,
			"max":[
				67.48390197753906,
				-24.45669937133789,
				-7.257019996643066
			],
			"min":[
				66.94609832763672,
				-25.016000747680664,
				-7.8101701736450195
			],
			"type":"VEC3"
		},
		{
			"bufferView":37,
			"componentType":5126,
			"count":148,
			"type":"VEC3"
		},
		{
			"bufferView":38,
			"componentType":5126,
			"count":148,
			"type":"VEC2"
		},
		{
			"bufferView":39,
			"componentType":5123,
			"count":384,
			"type":"SCALAR"
		},
		{
			"bufferView":40,
			"componentType":5126,
			"count":12,
			"max":[
				69.04119873046875,
				-25.03569984436035,
				-7.538680076599121
			],
			"min":[
				67.41020202636719,
				-26.189800262451172,
				-7.9185099601745605
			],
			"type":"VEC3"
		},
		{
			"bufferView":41,
			"componentType":5126,
			"count":12,
			"type":"VEC3"
		},
		{
			"bufferView":42,
			"componentType":5126,
			"count":12,
			"type":"VEC2"
		},
		{
			"bufferView":43,
			"componentType":5123,
			"count":18,
			"type":"SCALAR"
		},
		{
			"bufferView":44,
			"componentType":5126,
			"count":48,
			"max":[
				69.07879638671875,
				-24.54210090637207,
				-8.272049903869629
			],
			"min":[
				69.03369903564453,
				-24.794300079345703,
				-8.446149826049805
			],
			"type":"VEC3"
		},
		{
			"bufferView":45,
			"componentType":5126,
			"count":48,
			"type":"VEC3"
		},
		{
			"bufferView":46,
			"componentType":5126,
			"count":48,
			"type":"VEC2"
		},
		{
			"bufferView":47,
			"componentType":5123,
			"count":78,
			"type":"SCALAR"
		},
		{
			"bufferView":48,
			"componentType":5126,
			"count":7,
			"max":[
				76.78079986572266,
				-17.189599990844727,
				-7.2637200355529785
			],
			"min":[
				65.57830047607422,
				-38.29119873046875,
				-7.2637200355529785
			],
			"type":"VEC3"
		},
		{
			"bufferView":49,
			"componentType":5126,
			"count":7,
			"type":"VEC3"
		},
		{
			"bufferView":50,
			"componentType":5126,
			"count":7,
			"type":"VEC2"
		},
		{
			"bufferView":51,
			"componentType":5123,
			"count":12,
			"type":"SCALAR"
		},
		{
			"bufferView":52,
			"componentType":5126,
			"count":7,
			"max":[
				76.74199676513672,
				-17.170900344848633,
				-7.2637200355529785
			],
			"min":[
				65.61699676513672,
				-38.31340026855469,
				-7.2637200355529785
			],
			"type":"VEC3"
		},
		{
			"bufferView":53,
			"componentType":5126,
			"count":7,
			"type":"VEC3"
		},
		{
			"bufferView":54,
			"componentType":5126,
			"count":7,
			"type":"VEC2"
		},
		{
			"bufferView":55,
			"componentType":5123,
			"count":12,
			"type":"SCALAR"
		}
	],
	"bufferViews":[
		{
			"buffer":0,
			"byteLength":4908,
			"byteOffset":0,
			"target":34962
		},
		{
			"buffer":0,
			"byteLength":4908,
			"byteOffset":4908,
			"target":34962
		},
		{
			"buffer":0,
			"byteLength":3272,
			"byteOffset":9816,
			"target":34962
		},
		{
			"buffer":0,
			"byteLength":1272,
			"byteOffset":13088,
			"target":34963
		},
		{
			"buffer":0,
			"byteLength":168,
			"byteOffset":14360,
			"target":34962
		},
		{
			"buffer":0,
			"byteLength":168,
			"byteOffset":14528,
			"target":34962
		},
		{
			"buffer":0,
			"byteLength":112,
			"byteOffset":14696,
			"target":34962
		},
		{
			"buffer":0,
			"byteLength":48,
			"byteOffset":14808,
			"target":34963
		},
		{
			"buffer":0,
			"byteLength":10608,
			"byteOffset":14856,
			"target":34962
		},
		{
			"buffer":0,
			"byteLength":10608,
			"byteOffset":25464,
			"target":34962
		},
		{
			"buffer":0,
			"byteLength":7072,
			"byteOffset":36072,
			"target":34962
		},
		{
			"buffer":0,
			"byteLength":2616,
			"byteOffset":43144,
			"target":34963
		},
		{
			"buffer":0,
			"byteLength":96,
			"byteOffset":45760,
			"target":34962
		},
		{
			"buffer":0,
			"byteLength":96,
			"byteOffset":45856,
			"target":34962
		},
		{
			"buffer":0,
			"byteLength":64,
			"byteOffset":45952,
			"target":34962
		},
		{
			"buffer":0,
			"byteLength":24,
			"byteOffset":46016,
			"target":34963
		},
		{
			"buffer":0,
			"byteLength":51288,
			"byteOffset":46040,
			"target":34962
		},
		{
			"buffer":0,
			"byteLength":51288,
			"byteOffset":97328,
			"target":34962
		},
		{
			"buffer":0,
			"byteLength":34192,
			"byteOffset":148616,
			"target":34962
		},
		{
			"buffer":0,
			"byteLength":15684,
			"byteOffset":182808,
			"target":34963
		},
		{
			"buffer":0,
			"byteLength":480,
			"byteOffset":198492,
			"target":34962
		},
		{
			"buffer":0,
			"byteLength":480,
			"byteOffset":198972,
			"target":34962
		},
		{
			"buffer":0,
			"byteLength":320,
			"byteOffset":199452,
			"target":34962
		},
		{
			"buffer":0,
			"byteLength":120,
			"byteOffset":199772,
			"target":34963
		},
		{
			"buffer":0,
			"byteLength":744,
			"byteOffset":199892,
			"target":34962
		},
		{
			"buffer":0,
			"byteLength":744,
			"byteOffset":200636,
			"target":34962
		},
		{
			"buffer":0,
			"byteLength":496,
			"byteOffset":201380,
			"target":34962
		},
		{
			"buffer":0,
			"byteLength":216,
			"byteOffset":201876,
			"target":34963
		},
		{
			"buffer":0,
			"byteLength":48,
			"byteOffset":202092,
			"target":34962
		},
		{
			"buffer":0,
			"byteLength":48,
			"byteOffset":202140,
			"target":34962
		},
		{
			"buffer":0,
			"byteLength":32,
			"byteOffset":202188,
			"target":34962
		},
		{
			"buffer":0,
			"byteLength":12,
			"byteOffset":202220,
			"target":34963
		},
		{
			"buffer":0,
			"byteLength":19188,
			"byteOffset":202232,
			"target":34962
		},
		{
			"buffer":0,
			"byteLength":19188,
			"byteOffset":221420,
			"target":34962
		},
		{
			"buffer":0,
			"byteLength":12792,
			"byteOffset":240608,
			"target":34962
		},
		{
			"buffer":0,
			"byteLength":4788,
			"byteOffset":253400,
			"target":34963
		},
		{
			"buffer":0,
			"byteLength":1776,
			"byteOffset":258188,
			"target":34962
		},
		{
			"buffer":0,
			"byteLength":1776,
			"byteOffset":259964,
			"target":34962
		},
		{
			"buffer":0,
			"byteLength":1184,
			"byteOffset":261740,
			"target":34962
		},
		{
			"buffer":0,
			"byteLength":768,
			"byteOffset":262924,
			"target":34963
		},
		{
			"buffer":0,
			"byteLength":144,
			"byteOffset":263692,
			"target":34962
		},
		{
			"buffer":0,
			"byteLength":144,
			"byteOffset":263836,
			"target":34962
		},
		{
			"buffer":0,
			"byteLength":96,
			"byteOffset":263980,
			"target":34962
		},
		{
			"buffer":0,
			"byteLength":36,
			"byteOffset":264076,
			"target":34963
		},
		{
			"buffer":0,
			"byteLength":576,
			"byteOffset":264112,
			"target":34962
		},
		{
			"buffer":0,
			"byteLength":576,
			"byteOffset":264688,
			"target":34962
		},
		{
			"buffer":0,
			"byteLength":384,
			"byteOffset":265264,
			"target":34962
		},
		{
			"buffer":0,
			"byteLength":156,
			"byteOffset":265648,
			"target":34963
		},
		{
			"buffer":0,
			"byteLength":84,
			"byteOffset":265804,
			"target":34962
		},
		{
			"buffer":0,
			"byteLength":84,
			"byteOffset":265888,
			"target":34962
		},
		{
			"buffer":0,
			"byteLength":56,
			"byteOffset":265972,
			"target":34962
		},
		{
			"buffer":0,
			"byteLength":24,
			"byteOffset":266028,
			"target":34963
		},
		{
			"buffer":0,
			"byteLength":84,
			"byteOffset":266052,
			"target":34962
		},
		{
			"buffer":0,
			"byteLength":84,
			"byteOffset":266136,
			"target":34962
		},
		{
			"buffer":0,
			"byteLength":56,
			"byteOffset":266220,
			"target":34962
		},
		{
			"buffer":0,
			"byteLength":24,
			"byteOffset":266276,
			"target":34963
		}
	],
	"samplers":[
		{
			"magFilter":9729,
			"minFilter":9987
		}
	],
	"buffers":[
		{
			"byteLength":266300,
			"uri":"u2EBuild3.bin"
		}
	]
}
