{
	"asset":{
		"generator":"Khronos glTF Blender I/O v5.0.21",
		"version":"2.0"
	},
	"extensionsUsed":[
		"KHR_materials_specular",
		"KHR_materials_ior"
	],
	"scene":0,
	"scenes":[
		{
			"name":"Scene",
			"nodes":[
				0
			]
		}
	],
	"nodes":[
		{
			"mesh":0,
			"name":"u2NBuild2",
			"rotation":[
				0.70710688829422,
				0,
				0,
				0.7071066498756409
			]
		}
	],
	"materials":[
		{
			"doubleSided":true,
			"extensions":{
				"KHR_materials_specular":{
					"specularColorFactor":[
						0.04800000041723251,
						0.04800000041723251,
						0.04800000041723251
					]
				},
				"KHR_materials_ior":{
					"ior":0
				}
			},
			"name":"Building6_u2NBuild2_1",
			"pbrMetallicRoughness":{
				"baseColorTexture":{
					"index":0
				},
				"metallicFactor":0,
				"roughnessFactor":0.9687750339508057
			}
		},
		{
			"doubleSided":true,
			"extensions":{
				"KHR_materials_specular":{
					"specularColorFactor":[
						0.04800000041723251,
						0.04800000041723251,
						0.04800000041723251
					]
				},
				"KHR_materials_ior":{
					"ior":0
				}
			},
			"name":"Concrete_u2NBuild2_1",
			"pbrMetallicRoughness":{
				"baseColorTexture":{
					"index":1
				},
				"metallicFactor":0,
				"roughnessFactor":0.9687750339508057
			}
		},
		{
			"doubleSided":true,
			"extensions":{
				"KHR_materials_specular":{
					"specularColorFactor":[
						0.04800000041723251,
						0.04800000041723251,
						0.04800000041723251
					]
				},
				"KHR_materials_ior":{
					"ior":0
				}
			},
			"name":"Building6Windows1_u2NBuild2_1",
			"pbrMetallicRoughness":{
				"baseColorTexture":{
					"index":2
				},
				"metallicFactor":0,
				"roughnessFactor":0.9691779017448425
			}
		},
		{
			"doubleSided":true,
			"extensions":{
				"KHR_materials_specular":{
					"specularColorFactor":[
						0.04800000041723251,
						0.04800000041723251,
						0.04800000041723251
					]
				},
				"KHR_materials_ior":{
					"ior":0
				}
			},
			"name":"Building6Windows2_u2NBuild2_1",
			"pbrMetallicRoughness":{
				"baseColorTexture":{
					"index":3
				},
				"metallicFactor":0,
				"roughnessFactor":0.9691779017448425
			}
		},
		{
			"doubleSided":true,
			"extensions":{
				"KHR_materials_specular":{
					"specularColorFactor":[
						0.04800000041723251,
						0.04800000041723251,
						0.04800000041723251
					]
				},
				"KHR_materials_ior":{
					"ior":0
				}
			},
			"name":"RooftopProps_u2NBuild2_1",
			"pbrMetallicRoughness":{
				"baseColorTexture":{
					"index":4
				},
				"metallicFactor":0,
				"roughnessFactor":0.9685357213020325
			}
		},
		{
			"doubleSided":true,
			"extensions":{
				"KHR_materials_specular":{
					"specularColorFactor":[
						0.04800000041723251,
						0.04800000041723251,
						0.04800000041723251
					]
				},
				"KHR_materials_ior":{
					"ior":0
				}
			},
			"name":"MetalGrey_u2NBuild2_1",
			"pbrMetallicRoughness":{
				"baseColorTexture":{
					"index":5
				},
				"metallicFactor":0,
				"roughnessFactor":0.9687750339508057
			}
		},
		{
			"doubleSided":true,
			"extensions":{
				"KHR_materials_specular":{
					"specularColorFactor":[
						0.04800000041723251,
						0.04800000041723251,
						0.04800000041723251
					]
				},
				"KHR_materials_ior":{
					"ior":0
				}
			},
			"name":"BlackMetalPanels_u2NBuild2_1",
			"pbrMetallicRoughness":{
				"baseColorTexture":{
					"index":6
				},
				"metallicFactor":0,
				"roughnessFactor":0.9691779017448425
			}
		},
		{
			"doubleSided":true,
			"extensions":{
				"KHR_materials_specular":{
					"specularColorFactor":[
						0.04800000041723251,
						0.04800000041723251,
						0.04800000041723251
					]
				},
				"KHR_materials_ior":{
					"ior":0
				}
			},
			"name":"SkylightGlass_u2NBuild2_1",
			"pbrMetallicRoughness":{
				"baseColorTexture":{
					"index":7
				},
				"metallicFactor":0,
				"roughnessFactor":0.9687750339508057
			}
		},
		{
			"doubleSided":true,
			"extensions":{
				"KHR_materials_specular":{
					"specularColorFactor":[
						0.04800000041723251,
						0.04800000041723251,
						0.04800000041723251
					]
				},
				"KHR_materials_ior":{
					"ior":0
				}
			},
			"name":"MetalDark_u2NBuild2_1",
			"pbrMetallicRoughness":{
				"baseColorTexture":{
					"index":8
				},
				"metallicFactor":0,
				"roughnessFactor":0.9700000286102295
			}
		},
		{
			"doubleSided":true,
			"extensions":{
				"KHR_materials_specular":{
					"specularColorFactor":[
						0.04800000041723251,
						0.04800000041723251,
						0.04800000041723251
					]
				},
				"KHR_materials_ior":{
					"ior":0
				}
			},
			"name":"MetalLight_u2NBuild2_1",
			"pbrMetallicRoughness":{
				"baseColorTexture":{
					"index":9
				},
				"metallicFactor":0,
				"roughnessFactor":0.9687750339508057
			}
		},
		{
			"doubleSided":true,
			"extensions":{
				"KHR_materials_specular":{
					"specularColorFactor":[
						0.04800000041723251,
						0.04800000041723251,
						0.04800000041723251
					]
				},
				"KHR_materials_ior":{
					"ior":0
				}
			},
			"name":"Props2_u2NBuild2_1",
			"pbrMetallicRoughness":{
				"baseColorTexture":{
					"index":10
				},
				"metallicFactor":0,
				"roughnessFactor":0.9691779017448425
			}
		}
	],
	"meshes":[
		{
			"name":"Urban Sprawl 2.054",
			"primitives":[
				{
					"attributes":{
						"POSITION":0,
						"NORMAL":1,
						"TEXCOORD_0":2
					},
					"indices":3,
					"material":0
				},
				{
					"attributes":{
						"POSITION":4,
						"NORMAL":5,
						"TEXCOORD_0":6
					},
					"indices":7,
					"material":1
				},
				{
					"attributes":{
						"POSITION":8,
						"NORMAL":9,
						"TEXCOORD_0":10
					},
					"indices":11,
					"material":2
				},
				{
					"attributes":{
						"POSITION":12,
						"NORMAL":13,
						"TEXCOORD_0":14
					},
					"indices":15,
					"material":3
				},
				{
					"attributes":{
						"POSITION":16,
						"NORMAL":17,
						"TEXCOORD_0":18
					},
					"indices":19,
					"material":4
				},
				{
					"attributes":{
						"POSITION":20,
						"NORMAL":21,
						"TEXCOORD_0":22
					},
					"indices":23,
					"material":5
				},
				{
					"attributes":{
						"POSITION":24,
						"NORMAL":25,
						"TEXCOORD_0":26
					},
					"indices":27,
					"material":6
				},
				{
					"attributes":{
						"POSITION":28,
						"NORMAL":29,
						"TEXCOORD_0":30
					},
					"indices":31,
					"material":7
				},
				{
					"attributes":{
						"POSITION":32,
						"NORMAL":33,
						"TEXCOORD_0":34
					},
					"indices":35,
					"material":8
				},
				{
					"attributes":{
						"POSITION":36,
						"NORMAL":37,
						"TEXCOORD_0":38
					},
					"indices":39,
					"material":9
				},
				{
					"attributes":{
						"POSITION":40,
						"NORMAL":41,
						"TEXCOORD_0":42
					},
					"indices":43,
					"material":10
				}
			]
		}
	],
	"textures":[
		{
			"sampler":0,
			"source":0
		},
		{
			"sampler":0,
			"source":1
		},
		{
			"sampler":0,
			"source":0
		},
		{
			"sampler":0,
			"source":0
		},
		{
			"sampler":0,
			"source":2
		},
		{
			"sampler":0,
			"source":3
		},
		{
			"sampler":0,
			"source":4
		},
		{
			"sampler":0,
			"source":3
		},
		{
			"sampler":0,
			"source":5
		},
		{
			"sampler":0,
			"source":6
		},
		{
			"sampler":0,
			"source":7
		}
	],
	"images":[
		{
			"mimeType":"image/jpeg",
			"name":"u2bldg3",
			"uri":"u2bldg3.jpg"
		},
		{
			"mimeType":"image/jpeg",
			"name":"u2crete1",
			"uri":"u2crete1.jpg"
		},
		{
			"mimeType":"image/jpeg",
			"name":"u2props4",
			"uri":"u2props4.jpg"
		},
		{
			"mimeType":"image/jpeg",
			"name":"u2metal1",
			"uri":"u2metal1.jpg"
		},
		{
			"mimeType":"image/jpeg",
			"name":"u2blackpanel",
			"uri":"u2blackpanel.jpg"
		},
		{
			"mimeType":"image/jpeg",
			"name":"u2metdark",
			"uri":"u2metdark.jpg"
		},
		{
			"mimeType":"image/jpeg",
			"name":"u2white",
			"uri":"u2white.jpg"
		},
		{
			"mimeType":"image/jpeg",
			"name":"u2props2",
			"uri":"u2props2.jpg"
		}
	],
	"accessors":[
		{
			"bufferView":0,
			"componentType":5126,
			"count":1216,
			"max":[
				-2.1739299297332764,
				-46.234500885009766,
				-1.2132699489593506
			],
			"min":[
				-15.928000450134277,
				-59.98849868774414,
				-27.630399703979492
			],
			"type":"VEC3"
		},
		{
			"bufferView":1,
			"componentType":5126,
			"count":1216,
			"type":"VEC3"
		},
		{
			"bufferView":2,
			"componentType":5126,
			"count":1216,
			"type":"VEC2"
		},
		{
			"bufferView":3,
			"componentType":5123,
			"count":2448,
			"type":"SCALAR"
		},
		{
			"bufferView":4,
			"componentType":5126,
			"count":196,
			"max":[
				-2.1739299297332764,
				-46.234500885009766,
				-27.630399703979492
			],
			"min":[
				-15.928000450134277,
				-59.98849868774414,
				-31.99220085144043
			],
			"type":"VEC3"
		},
		{
			"bufferView":5,
			"componentType":5126,
			"count":196,
			"type":"VEC3"
		},
		{
			"bufferView":6,
			"componentType":5126,
			"count":196,
			"type":"VEC2"
		},
		{
			"bufferView":7,
			"componentType":5123,
			"count":330,
			"type":"SCALAR"
		},
		{
			"bufferView":8,
			"componentType":5126,
			"count":106,
			"max":[
				-2.938430070877075,
				-46.999000549316406,
				-2.46478009223938
			],
			"min":[
				-15.16349983215332,
				-59.2239990234375,
				-27.57539939880371
			],
			"type":"VEC3"
		},
		{
			"bufferView":9,
			"componentType":5126,
			"count":106,
			"type":"VEC3"
		},
		{
			"bufferView":10,
			"componentType":5126,
			"count":106,
			"type":"VEC2"
		},
		{
			"bufferView":11,
			"componentType":5123,
			"count":216,
			"type":"SCALAR"
		},
		{
			"bufferView":12,
			"componentType":5126,
			"count":65,
			"max":[
				-2.938430070877075,
				-46.999000549316406,
				-3.959429979324341
			],
			"min":[
				-15.16349983215332,
				-59.2239990234375,
				-27.57539939880371
			],
			"type":"VEC3"
		},
		{
			"bufferView":13,
			"componentType":5126,
			"count":65,
			"type":"VEC3"
		},
		{
			"bufferView":14,
			"componentType":5126,
			"count":65,
			"type":"VEC2"
		},
		{
			"bufferView":15,
			"componentType":5123,
			"count":120,
			"type":"SCALAR"
		},
		{
			"bufferView":16,
			"componentType":5126,
			"count":4491,
			"max":[
				-4.239439964294434,
				-47.7244987487793,
				-27.76729965209961
			],
			"min":[
				-14.344400405883789,
				-58.18830108642578,
				-32.229801177978516
			],
			"type":"VEC3"
		},
		{
			"bufferView":17,
			"componentType":5126,
			"count":4491,
			"type":"VEC3"
		},
		{
			"bufferView":18,
			"componentType":5126,
			"count":4491,
			"type":"VEC2"
		},
		{
			"bufferView":19,
			"componentType":5123,
			"count":8604,
			"type":"SCALAR"
		},
		{
			"bufferView":20,
			"componentType":5126,
			"count":871,
			"max":[
				-3.4667201042175293,
				-48.66170120239258,
				-27.711599349975586
			],
			"min":[
				-14.421899795532227,
				-58.43330001831055,
				-28.37929916381836
			],
			"type":"VEC3"
		},
		{
			"bufferView":21,
			"componentType":5126,
			"count":871,
			"type":"VEC3"
		},
		{
			"bufferView":22,
			"componentType":5126,
			"count":871,
			"type":"VEC2"
		},
		{
			"bufferView":23,
			"componentType":5123,
			"count":1266,
			"type":"SCALAR"
		},
		{
			"bufferView":24,
			"componentType":5126,
			"count":82,
			"max":[
				-3.782949924468994,
				-47.771400451660156,
				-27.754899978637695
			],
			"min":[
				-15.087699890136719,
				-51.239601135253906,
				-28.39539909362793
			],
			"type":"VEC3"
		},
		{
			"bufferView":25,
			"componentType":5126,
			"count":82,
			"type":"VEC3"
		},
		{
			"bufferView":26,
			"componentType":5126,
			"count":82,
			"type":"VEC2"
		},
		{
			"bufferView":27,
			"componentType":5123,
			"count":120,
			"type":"SCALAR"
		},
		{
			"bufferView":28,
			"componentType":5126,
			"count":84,
			"max":[
				-9.933710098266602,
				-57.443199157714844,
				-27.981199264526367
			],
			"min":[
				-14.391900062561035,
				-57.94670104980469,
				-28.11549949645996
			],
			"type":"VEC3"
		},
		{
			"bufferView":29,
			"componentType":5126,
			"count":84,
			"type":"VEC3"
		},
		{
			"bufferView":30,
			"componentType":5126,
			"count":84,
			"type":"VEC2"
		},
		{
			"bufferView":31,
			"componentType":5123,
			"count":96,
			"type":"SCALAR"
		},
		{
			"bufferView":32,
			"componentType":5126,
			"count":686,
			"max":[
				-9.908889770507812,
				-57.418399810791016,
				-27.911399841308594
			],
			"min":[
				-14.409899711608887,
				-57.97159957885742,
				-28.13290023803711
			],
			"type":"VEC3"
		},
		{
			"bufferView":33,
			"componentType":5126,
			"count":686,
			"type":"VEC3"
		},
		{
			"bufferView":34,
			"componentType":5126,
			"count":686,
			"type":"VEC2"
		},
		{
			"bufferView":35,
			"componentType":5123,
			"count":1008,
			"type":"SCALAR"
		},
		{
			"bufferView":36,
			"componentType":5126,
			"count":38,
			"max":[
				-3.3787200450897217,
				-48.53150177001953,
				-27.797700881958008
			],
			"min":[
				-8.709400177001953,
				-59.215599060058594,
				-31.780899047851562
			],
			"type":"VEC3"
		},
		{
			"bufferView":37,
			"componentType":5126,
			"count":38,
			"type":"VEC3"
		},
		{
			"bufferView":38,
			"componentType":5126,
			"count":38,
			"type":"VEC2"
		},
		{
			"bufferView":39,
			"componentType":5123,
			"count":54,
			"type":"SCALAR"
		},
		{
			"bufferView":40,
			"componentType":5126,
			"count":1585,
			"max":[
				-3.2919700145721436,
				-48.98310089111328,
				-28.65570068359375
			],
			"min":[
				-8.796150207519531,
				-58.111900329589844,
				-29.2091007232666
			],
			"type":"VEC3"
		},
		{
			"bufferView":41,
			"componentType":5126,
			"count":1585,
			"type":"VEC3"
		},
		{
			"bufferView":42,
			"componentType":5126,
			"count":1585,
			"type":"VEC2"
		},
		{
			"bufferView":43,
			"componentType":5123,
			"count":2208,
			"type":"SCALAR"
		}
	],
	"bufferViews":[
		{
			"buffer":0,
			"byteLength":14592,
			"byteOffset":0,
			"target":34962
		},
		{
			"buffer":0,
			"byteLength":14592,
			"byteOffset":14592,
			"target":34962
		},
		{
			"buffer":0,
			"byteLength":9728,
			"byteOffset":29184,
			"target":34962
		},
		{
			"buffer":0,
			"byteLength":4896,
			"byteOffset":38912,
			"target":34963
		},
		{
			"buffer":0,
			"byteLength":2352,
			"byteOffset":43808,
			"target":34962
		},
		{
			"buffer":0,
			"byteLength":2352,
			"byteOffset":46160,
			"target":34962
		},
		{
			"buffer":0,
			"byteLength":1568,
			"byteOffset":48512,
			"target":34962
		},
		{
			"buffer":0,
			"byteLength":660,
			"byteOffset":50080,
			"target":34963
		},
		{
			"buffer":0,
			"byteLength":1272,
			"byteOffset":50740,
			"target":34962
		},
		{
			"buffer":0,
			"byteLength":1272,
			"byteOffset":52012,
			"target":34962
		},
		{
			"buffer":0,
			"byteLength":848,
			"byteOffset":53284,
			"target":34962
		},
		{
			"buffer":0,
			"byteLength":432,
			"byteOffset":54132,
			"target":34963
		},
		{
			"buffer":0,
			"byteLength":780,
			"byteOffset":54564,
			"target":34962
		},
		{
			"buffer":0,
			"byteLength":780,
			"byteOffset":55344,
			"target":34962
		},
		{
			"buffer":0,
			"byteLength":520,
			"byteOffset":56124,
			"target":34962
		},
		{
			"buffer":0,
			"byteLength":240,
			"byteOffset":56644,
			"target":34963
		},
		{
			"buffer":0,
			"byteLength":53892,
			"byteOffset":56884,
			"target":34962
		},
		{
			"buffer":0,
			"byteLength":53892,
			"byteOffset":110776,
			"target":34962
		},
		{
			"buffer":0,
			"byteLength":35928,
			"byteOffset":164668,
			"target":34962
		},
		{
			"buffer":0,
			"byteLength":17208,
			"byteOffset":200596,
			"target":34963
		},
		{
			"buffer":0,
			"byteLength":10452,
			"byteOffset":217804,
			"target":34962
		},
		{
			"buffer":0,
			"byteLength":10452,
			"byteOffset":228256,
			"target":34962
		},
		{
			"buffer":0,
			"byteLength":6968,
			"byteOffset":238708,
			"target":34962
		},
		{
			"buffer":0,
			"byteLength":2532,
			"byteOffset":245676,
			"target":34963
		},
		{
			"buffer":0,
			"byteLength":984,
			"byteOffset":248208,
			"target":34962
		},
		{
			"buffer":0,
			"byteLength":984,
			"byteOffset":249192,
			"target":34962
		},
		{
			"buffer":0,
			"byteLength":656,
			"byteOffset":250176,
			"target":34962
		},
		{
			"buffer":0,
			"byteLength":240,
			"byteOffset":250832,
			"target":34963
		},
		{
			"buffer":0,
			"byteLength":1008,
			"byteOffset":251072,
			"target":34962
		},
		{
			"buffer":0,
			"byteLength":1008,
			"byteOffset":252080,
			"target":34962
		},
		{
			"buffer":0,
			"byteLength":672,
			"byteOffset":253088,
			"target":34962
		},
		{
			"buffer":0,
			"byteLength":192,
			"byteOffset":253760,
			"target":34963
		},
		{
			"buffer":0,
			"byteLength":8232,
			"byteOffset":253952,
			"target":34962
		},
		{
			"buffer":0,
			"byteLength":8232,
			"byteOffset":262184,
			"target":34962
		},
		{
			"buffer":0,
			"byteLength":5488,
			"byteOffset":270416,
			"target":34962
		},
		{
			"buffer":0,
			"byteLength":2016,
			"byteOffset":275904,
			"target":34963
		},
		{
			"buffer":0,
			"byteLength":456,
			"byteOffset":277920,
			"target":34962
		},
		{
			"buffer":0,
			"byteLength":456,
			"byteOffset":278376,
			"target":34962
		},
		{
			"buffer":0,
			"byteLength":304,
			"byteOffset":278832,
			"target":34962
		},
		{
			"buffer":0,
			"byteLength":108,
			"byteOffset":279136,
			"target":34963
		},
		{
			"buffer":0,
			"byteLength":19020,
			"byteOffset":279244,
			"target":34962
		},
		{
			"buffer":0,
			"byteLength":19020,
			"byteOffset":298264,
			"target":34962
		},
		{
			"buffer":0,
			"byteLength":12680,
			"byteOffset":317284,
			"target":34962
		},
		{
			"buffer":0,
			"byteLength":4416,
			"byteOffset":329964,
			"target":34963
		}
	],
	"samplers":[
		{
			"magFilter":9729,
			"minFilter":9987
		}
	],
	"buffers":[
		{
			"byteLength":334380,
			"uri":"u2NBuild2.bin"
		}
	]
}
