{
	"asset":{
		"generator":"Khronos glTF Blender I/O v5.0.21",
		"version":"2.0"
	},
	"extensionsUsed":[
		"KHR_materials_specular",
		"KHR_materials_ior"
	],
	"scene":0,
	"scenes":[
		{
			"name":"Scene",
			"nodes":[
				0
			]
		}
	],
	"nodes":[
		{
			"mesh":0,
			"name":"u2NEBuild7",
			"rotation":[
				0.70710688829422,
				0,
				0,
				0.7071066498756409
			]
		}
	],
	"materials":[
		{
			"doubleSided":true,
			"extensions":{
				"KHR_materials_specular":{
					"specularColorFactor":[
						0.04800000041723251,
						0.04800000041723251,
						0.04800000041723251
					]
				},
				"KHR_materials_ior":{
					"ior":0
				}
			},
			"name":"Building9_u2NEBuild7_1",
			"pbrMetallicRoughness":{
				"baseColorTexture":{
					"index":0
				},
				"metallicFactor":0,
				"roughnessFactor":0.9691779017448425
			}
		},
		{
			"doubleSided":true,
			"extensions":{
				"KHR_materials_specular":{
					"specularColorFactor":[
						0.04800000041723251,
						0.04800000041723251,
						0.04800000041723251
					]
				},
				"KHR_materials_ior":{
					"ior":0
				}
			},
			"name":"Props1_u2NEBuild7_1",
			"pbrMetallicRoughness":{
				"baseColorTexture":{
					"index":1
				},
				"metallicFactor":0,
				"roughnessFactor":0.9685357213020325
			}
		},
		{
			"doubleSided":true,
			"extensions":{
				"KHR_materials_specular":{
					"specularColorFactor":[
						0.04800000041723251,
						0.04800000041723251,
						0.04800000041723251
					]
				},
				"KHR_materials_ior":{
					"ior":0
				}
			},
			"name":"Concrete2_u2NEBuild7_1",
			"pbrMetallicRoughness":{
				"baseColorTexture":{
					"index":2
				},
				"metallicFactor":0,
				"roughnessFactor":0.9687750339508057
			}
		},
		{
			"doubleSided":true,
			"extensions":{
				"KHR_materials_specular":{
					"specularColorFactor":[
						0.04800000041723251,
						0.04800000041723251,
						0.04800000041723251
					]
				},
				"KHR_materials_ior":{
					"ior":0
				}
			},
			"name":"MetalDark_u2NEBuild7_1",
			"pbrMetallicRoughness":{
				"baseColorTexture":{
					"index":3
				},
				"metallicFactor":0,
				"roughnessFactor":0.9691779017448425
			}
		},
		{
			"doubleSided":true,
			"extensions":{
				"KHR_materials_specular":{
					"specularColorFactor":[
						0.04800000041723251,
						0.04800000041723251,
						0.04800000041723251
					]
				},
				"KHR_materials_ior":{
					"ior":0
				}
			},
			"name":"RooftopProps_u2NEBuild7_1",
			"pbrMetallicRoughness":{
				"baseColorTexture":{
					"index":4
				},
				"metallicFactor":0,
				"roughnessFactor":0.9685357213020325
			}
		},
		{
			"doubleSided":true,
			"extensions":{
				"KHR_materials_specular":{
					"specularColorFactor":[
						0.04800000041723251,
						0.04800000041723251,
						0.04800000041723251
					]
				},
				"KHR_materials_ior":{
					"ior":0
				}
			},
			"name":"LEDRed_u2NEBuild7_1",
			"pbrMetallicRoughness":{
				"baseColorFactor":[
					0.800000011920929,
					0.800000011920929,
					0.800000011920929,
					1
				],
				"metallicFactor":0,
				"roughnessFactor":0.9691779017448425
			}
		},
		{
			"doubleSided":true,
			"extensions":{
				"KHR_materials_specular":{
					"specularColorFactor":[
						0.04800000041723251,
						0.04800000041723251,
						0.04800000041723251
					]
				},
				"KHR_materials_ior":{
					"ior":0
				}
			},
			"name":"WindowsA_u2NEBuild7_1",
			"pbrMetallicRoughness":{
				"baseColorTexture":{
					"index":5
				},
				"metallicFactor":0,
				"roughnessFactor":0.9691779017448425
			}
		},
		{
			"doubleSided":true,
			"extensions":{
				"KHR_materials_specular":{
					"specularColorFactor":[
						0.04800000041723251,
						0.04800000041723251,
						0.04800000041723251
					]
				},
				"KHR_materials_ior":{
					"ior":0
				}
			},
			"name":"WindowsB_u2NEBuild7_1",
			"pbrMetallicRoughness":{
				"baseColorTexture":{
					"index":6
				},
				"metallicFactor":0,
				"roughnessFactor":0.9691779017448425
			}
		},
		{
			"doubleSided":true,
			"extensions":{
				"KHR_materials_specular":{
					"specularColorFactor":[
						0.04800000041723251,
						0.04800000041723251,
						0.04800000041723251
					]
				},
				"KHR_materials_ior":{
					"ior":0
				}
			},
			"name":"Grass1_u2NEBuild7_1",
			"pbrMetallicRoughness":{
				"baseColorTexture":{
					"index":7
				},
				"metallicFactor":0,
				"roughnessFactor":0.9691779017448425
			}
		},
		{
			"doubleSided":true,
			"extensions":{
				"KHR_materials_specular":{
					"specularColorFactor":[
						0.04800000041723251,
						0.04800000041723251,
						0.04800000041723251
					]
				},
				"KHR_materials_ior":{
					"ior":0
				}
			},
			"name":"Brick4_u2NEBuild7_1",
			"pbrMetallicRoughness":{
				"baseColorTexture":{
					"index":8
				},
				"metallicFactor":0,
				"roughnessFactor":0.9691779017448425
			}
		}
	],
	"meshes":[
		{
			"name":"Urban Sprawl 2.010",
			"primitives":[
				{
					"attributes":{
						"POSITION":0,
						"NORMAL":1,
						"TEXCOORD_0":2
					},
					"indices":3,
					"material":0
				},
				{
					"attributes":{
						"POSITION":4,
						"NORMAL":5,
						"TEXCOORD_0":6
					},
					"indices":7,
					"material":1
				},
				{
					"attributes":{
						"POSITION":8,
						"NORMAL":9,
						"TEXCOORD_0":10
					},
					"indices":11,
					"material":2
				},
				{
					"attributes":{
						"POSITION":12,
						"NORMAL":13,
						"TEXCOORD_0":14
					},
					"indices":15,
					"material":3
				},
				{
					"attributes":{
						"POSITION":16,
						"NORMAL":17,
						"TEXCOORD_0":18
					},
					"indices":19,
					"material":4
				},
				{
					"attributes":{
						"POSITION":20,
						"NORMAL":21,
						"TEXCOORD_0":22
					},
					"indices":23,
					"material":5
				},
				{
					"attributes":{
						"POSITION":24,
						"NORMAL":25,
						"TEXCOORD_0":26
					},
					"indices":27,
					"material":6
				},
				{
					"attributes":{
						"POSITION":28,
						"NORMAL":29,
						"TEXCOORD_0":30
					},
					"indices":31,
					"material":7
				},
				{
					"attributes":{
						"POSITION":32,
						"NORMAL":33,
						"TEXCOORD_0":34
					},
					"indices":35,
					"material":8
				},
				{
					"attributes":{
						"POSITION":36,
						"NORMAL":37,
						"TEXCOORD_0":38
					},
					"indices":39,
					"material":9
				}
			]
		}
	],
	"textures":[
		{
			"sampler":0,
			"source":0
		},
		{
			"sampler":0,
			"source":1
		},
		{
			"sampler":0,
			"source":2
		},
		{
			"sampler":0,
			"source":3
		},
		{
			"sampler":0,
			"source":4
		},
		{
			"sampler":0,
			"source":0
		},
		{
			"sampler":0,
			"source":0
		},
		{
			"sampler":0,
			"source":5
		},
		{
			"sampler":0,
			"source":6
		}
	],
	"images":[
		{
			"mimeType":"image/jpeg",
			"name":"u2NWBuild12",
			"uri":"u2NWBuild12.jpg"
		},
		{
			"mimeType":"image/jpeg",
			"name":"u2props1",
			"uri":"u2props1.jpg"
		},
		{
			"mimeType":"image/jpeg",
			"name":"u2crete2",
			"uri":"u2crete2.jpg"
		},
		{
			"mimeType":"image/jpeg",
			"name":"u2metdark",
			"uri":"u2metdark.jpg"
		},
		{
			"mimeType":"image/jpeg",
			"name":"u2props4",
			"uri":"u2props4.jpg"
		},
		{
			"mimeType":"image/jpeg",
			"name":"u2grass",
			"uri":"u2grass.jpg"
		},
		{
			"mimeType":"image/jpeg",
			"name":"u2brick4",
			"uri":"u2brick4.jpg"
		}
	],
	"accessors":[
		{
			"bufferView":0,
			"componentType":5126,
			"count":3946,
			"max":[
				22.70050048828125,
				-8.176690101623535,
				-0.14918799698352814
			],
			"min":[
				13.373900413513184,
				-31.97209930419922,
				-12.775400161743164
			],
			"type":"VEC3"
		},
		{
			"bufferView":1,
			"componentType":5126,
			"count":3946,
			"type":"VEC3"
		},
		{
			"bufferView":2,
			"componentType":5126,
			"count":3946,
			"type":"VEC2"
		},
		{
			"bufferView":3,
			"componentType":5123,
			"count":6978,
			"type":"SCALAR"
		},
		{
			"bufferView":4,
			"componentType":5126,
			"count":489,
			"max":[
				22.632400512695312,
				-11.342599868774414,
				-1.0133600234985352
			],
			"min":[
				16.346900939941406,
				-31.80929946899414,
				-13.615099906921387
			],
			"type":"VEC3"
		},
		{
			"bufferView":5,
			"componentType":5126,
			"count":489,
			"type":"VEC3"
		},
		{
			"bufferView":6,
			"componentType":5126,
			"count":489,
			"type":"VEC2"
		},
		{
			"bufferView":7,
			"componentType":5123,
			"count":786,
			"type":"SCALAR"
		},
		{
			"bufferView":8,
			"componentType":5126,
			"count":1186,
			"max":[
				22.53019905090332,
				-8.64840030670166,
				-1.3324099779129028
			],
			"min":[
				13.711099624633789,
				-31.825199127197266,
				-12.422499656677246
			],
			"type":"VEC3"
		},
		{
			"bufferView":9,
			"componentType":5126,
			"count":1186,
			"type":"VEC3"
		},
		{
			"bufferView":10,
			"componentType":5126,
			"count":1186,
			"type":"VEC2"
		},
		{
			"bufferView":11,
			"componentType":5123,
			"count":1878,
			"type":"SCALAR"
		},
		{
			"bufferView":12,
			"componentType":5126,
			"count":20,
			"max":[
				21.006399154663086,
				-11.939599990844727,
				-12.775400161743164
			],
			"min":[
				18.76099967956543,
				-16.31839942932129,
				-12.856900215148926
			],
			"type":"VEC3"
		},
		{
			"bufferView":13,
			"componentType":5126,
			"count":20,
			"type":"VEC3"
		},
		{
			"bufferView":14,
			"componentType":5126,
			"count":20,
			"type":"VEC2"
		},
		{
			"bufferView":15,
			"componentType":5123,
			"count":30,
			"type":"SCALAR"
		},
		{
			"bufferView":16,
			"componentType":5126,
			"count":442,
			"max":[
				14.912099838256836,
				-12.258899688720703,
				-11.493399620056152
			],
			"min":[
				14.532999992370605,
				-25.151500701904297,
				-11.691499710083008
			],
			"type":"VEC3"
		},
		{
			"bufferView":17,
			"componentType":5126,
			"count":442,
			"type":"VEC3"
		},
		{
			"bufferView":18,
			"componentType":5126,
			"count":442,
			"type":"VEC2"
		},
		{
			"bufferView":19,
			"componentType":5123,
			"count":828,
			"type":"SCALAR"
		},
		{
			"bufferView":20,
			"componentType":5126,
			"count":66,
			"max":[
				17.158700942993164,
				-16.86199951171875,
				-12.466899871826172
			],
			"min":[
				16.35569953918457,
				-31.506799697875977,
				-13.640800476074219
			],
			"type":"VEC3"
		},
		{
			"bufferView":21,
			"componentType":5126,
			"count":66,
			"type":"VEC3"
		},
		{
			"bufferView":22,
			"componentType":5126,
			"count":66,
			"type":"VEC2"
		},
		{
			"bufferView":23,
			"componentType":5123,
			"count":117,
			"type":"SCALAR"
		},
		{
			"bufferView":24,
			"componentType":5126,
			"count":211,
			"max":[
				22.44700050354004,
				-8.427300453186035,
				-0.5584189891815186
			],
			"min":[
				13.627400398254395,
				-31.721500396728516,
				-11.612299919128418
			],
			"type":"VEC3"
		},
		{
			"bufferView":25,
			"componentType":5126,
			"count":211,
			"type":"VEC3"
		},
		{
			"bufferView":26,
			"componentType":5126,
			"count":211,
			"type":"VEC2"
		},
		{
			"bufferView":27,
			"componentType":5123,
			"count":423,
			"type":"SCALAR"
		},
		{
			"bufferView":28,
			"componentType":5126,
			"count":172,
			"max":[
				22.44700050354004,
				-8.4273099899292,
				-0.5584189891815186
			],
			"min":[
				13.627400398254395,
				-31.721500396728516,
				-11.612299919128418
			],
			"type":"VEC3"
		},
		{
			"bufferView":29,
			"componentType":5126,
			"count":172,
			"type":"VEC3"
		},
		{
			"bufferView":30,
			"componentType":5126,
			"count":172,
			"type":"VEC2"
		},
		{
			"bufferView":31,
			"componentType":5123,
			"count":312,
			"type":"SCALAR"
		},
		{
			"bufferView":32,
			"componentType":5126,
			"count":8,
			"max":[
				22.494699478149414,
				-8.874320030212402,
				-0.5472249984741211
			],
			"min":[
				13.574999809265137,
				-10.891400337219238,
				-0.5477200150489807
			],
			"type":"VEC3"
		},
		{
			"bufferView":33,
			"componentType":5126,
			"count":8,
			"type":"VEC3"
		},
		{
			"bufferView":34,
			"componentType":5126,
			"count":8,
			"type":"VEC2"
		},
		{
			"bufferView":35,
			"componentType":5123,
			"count":12,
			"type":"SCALAR"
		},
		{
			"bufferView":36,
			"componentType":5126,
			"count":208,
			"max":[
				22.618200302124023,
				-8.720490455627441,
				-0.13394300639629364
			],
			"min":[
				13.451499938964844,
				-10.79640007019043,
				-0.8022739887237549
			],
			"type":"VEC3"
		},
		{
			"bufferView":37,
			"componentType":5126,
			"count":208,
			"type":"VEC3"
		},
		{
			"bufferView":38,
			"componentType":5126,
			"count":208,
			"type":"VEC2"
		},
		{
			"bufferView":39,
			"componentType":5123,
			"count":312,
			"type":"SCALAR"
		}
	],
	"bufferViews":[
		{
			"buffer":0,
			"byteLength":47352,
			"byteOffset":0,
			"target":34962
		},
		{
			"buffer":0,
			"byteLength":47352,
			"byteOffset":47352,
			"target":34962
		},
		{
			"buffer":0,
			"byteLength":31568,
			"byteOffset":94704,
			"target":34962
		},
		{
			"buffer":0,
			"byteLength":13956,
			"byteOffset":126272,
			"target":34963
		},
		{
			"buffer":0,
			"byteLength":5868,
			"byteOffset":140228,
			"target":34962
		},
		{
			"buffer":0,
			"byteLength":5868,
			"byteOffset":146096,
			"target":34962
		},
		{
			"buffer":0,
			"byteLength":3912,
			"byteOffset":151964,
			"target":34962
		},
		{
			"buffer":0,
			"byteLength":1572,
			"byteOffset":155876,
			"target":34963
		},
		{
			"buffer":0,
			"byteLength":14232,
			"byteOffset":157448,
			"target":34962
		},
		{
			"buffer":0,
			"byteLength":14232,
			"byteOffset":171680,
			"target":34962
		},
		{
			"buffer":0,
			"byteLength":9488,
			"byteOffset":185912,
			"target":34962
		},
		{
			"buffer":0,
			"byteLength":3756,
			"byteOffset":195400,
			"target":34963
		},
		{
			"buffer":0,
			"byteLength":240,
			"byteOffset":199156,
			"target":34962
		},
		{
			"buffer":0,
			"byteLength":240,
			"byteOffset":199396,
			"target":34962
		},
		{
			"buffer":0,
			"byteLength":160,
			"byteOffset":199636,
			"target":34962
		},
		{
			"buffer":0,
			"byteLength":60,
			"byteOffset":199796,
			"target":34963
		},
		{
			"buffer":0,
			"byteLength":5304,
			"byteOffset":199856,
			"target":34962
		},
		{
			"buffer":0,
			"byteLength":5304,
			"byteOffset":205160,
			"target":34962
		},
		{
			"buffer":0,
			"byteLength":3536,
			"byteOffset":210464,
			"target":34962
		},
		{
			"buffer":0,
			"byteLength":1656,
			"byteOffset":214000,
			"target":34963
		},
		{
			"buffer":0,
			"byteLength":792,
			"byteOffset":215656,
			"target":34962
		},
		{
			"buffer":0,
			"byteLength":792,
			"byteOffset":216448,
			"target":34962
		},
		{
			"buffer":0,
			"byteLength":528,
			"byteOffset":217240,
			"target":34962
		},
		{
			"buffer":0,
			"byteLength":234,
			"byteOffset":217768,
			"target":34963
		},
		{
			"buffer":0,
			"byteLength":2532,
			"byteOffset":218004,
			"target":34962
		},
		{
			"buffer":0,
			"byteLength":2532,
			"byteOffset":220536,
			"target":34962
		},
		{
			"buffer":0,
			"byteLength":1688,
			"byteOffset":223068,
			"target":34962
		},
		{
			"buffer":0,
			"byteLength":846,
			"byteOffset":224756,
			"target":34963
		},
		{
			"buffer":0,
			"byteLength":2064,
			"byteOffset":225604,
			"target":34962
		},
		{
			"buffer":0,
			"byteLength":2064,
			"byteOffset":227668,
			"target":34962
		},
		{
			"buffer":0,
			"byteLength":1376,
			"byteOffset":229732,
			"target":34962
		},
		{
			"buffer":0,
			"byteLength":624,
			"byteOffset":231108,
			"target":34963
		},
		{
			"buffer":0,
			"byteLength":96,
			"byteOffset":231732,
			"target":34962
		},
		{
			"buffer":0,
			"byteLength":96,
			"byteOffset":231828,
			"target":34962
		},
		{
			"buffer":0,
			"byteLength":64,
			"byteOffset":231924,
			"target":34962
		},
		{
			"buffer":0,
			"byteLength":24,
			"byteOffset":231988,
			"target":34963
		},
		{
			"buffer":0,
			"byteLength":2496,
			"byteOffset":232012,
			"target":34962
		},
		{
			"buffer":0,
			"byteLength":2496,
			"byteOffset":234508,
			"target":34962
		},
		{
			"buffer":0,
			"byteLength":1664,
			"byteOffset":237004,
			"target":34962
		},
		{
			"buffer":0,
			"byteLength":624,
			"byteOffset":238668,
			"target":34963
		}
	],
	"samplers":[
		{
			"magFilter":9729,
			"minFilter":9987
		}
	],
	"buffers":[
		{
			"byteLength":239292,
			"uri":"u2NEBuild7.bin"
		}
	]
}
