{
	"asset":{
		"generator":"Khronos glTF Blender I/O v5.0.21",
		"version":"2.0"
	},
	"extensionsUsed":[
		"KHR_materials_specular",
		"KHR_materials_ior"
	],
	"scene":0,
	"scenes":[
		{
			"name":"Scene",
			"nodes":[
				0
			]
		}
	],
	"nodes":[
		{
			"mesh":0,
			"name":"u2NWBuild3",
			"rotation":[
				0.70710688829422,
				0,
				0,
				0.7071066498756409
			]
		}
	],
	"materials":[
		{
			"doubleSided":true,
			"extensions":{
				"KHR_materials_specular":{
					"specularColorFactor":[
						0.04800000041723251,
						0.04800000041723251,
						0.04800000041723251
					]
				},
				"KHR_materials_ior":{
					"ior":0
				}
			},
			"name":"MetalDark_u2NWBuild3_1",
			"pbrMetallicRoughness":{
				"baseColorTexture":{
					"index":0
				},
				"metallicFactor":0,
				"roughnessFactor":0.9700000286102295
			}
		},
		{
			"doubleSided":true,
			"extensions":{
				"KHR_materials_specular":{
					"specularColorFactor":[
						0.04800000041723251,
						0.04800000041723251,
						0.04800000041723251
					]
				},
				"KHR_materials_ior":{
					"ior":0
				}
			},
			"name":"ACUnit2_u2NWBuild3_1",
			"pbrMetallicRoughness":{
				"baseColorTexture":{
					"index":1
				},
				"metallicFactor":0,
				"roughnessFactor":0.9685357213020325
			}
		},
		{
			"doubleSided":true,
			"extensions":{
				"KHR_materials_specular":{
					"specularColorFactor":[
						0.04800000041723251,
						0.04800000041723251,
						0.04800000041723251
					]
				},
				"KHR_materials_ior":{
					"ior":0
				}
			},
			"name":"Concrete1_u2NWBuild3_1",
			"pbrMetallicRoughness":{
				"baseColorTexture":{
					"index":2
				},
				"metallicFactor":0,
				"roughnessFactor":0.9687750339508057
			}
		},
		{
			"doubleSided":true,
			"extensions":{
				"KHR_materials_specular":{
					"specularColorFactor":[
						0.04800000041723251,
						0.04800000041723251,
						0.04800000041723251
					]
				},
				"KHR_materials_ior":{
					"ior":0
				}
			},
			"name":"MetalLight_u2NWBuild3_1",
			"pbrMetallicRoughness":{
				"baseColorTexture":{
					"index":3
				},
				"metallicFactor":0,
				"roughnessFactor":0.9687750339508057
			}
		},
		{
			"doubleSided":true,
			"extensions":{
				"KHR_materials_specular":{
					"specularColorFactor":[
						0.04800000041723251,
						0.04800000041723251,
						0.04800000041723251
					]
				},
				"KHR_materials_ior":{
					"ior":0
				}
			},
			"name":"SkylightGlass_u2NWBuild3_1",
			"pbrMetallicRoughness":{
				"baseColorTexture":{
					"index":4
				},
				"metallicFactor":0,
				"roughnessFactor":0.9687750339508057
			}
		},
		{
			"doubleSided":true,
			"extensions":{
				"KHR_materials_specular":{
					"specularColorFactor":[
						0.04800000041723251,
						0.04800000041723251,
						0.04800000041723251
					]
				},
				"KHR_materials_ior":{
					"ior":0
				}
			},
			"name":"MetalGrey_u2NWBuild3_1",
			"pbrMetallicRoughness":{
				"baseColorTexture":{
					"index":5
				},
				"metallicFactor":0,
				"roughnessFactor":0.9687750339508057
			}
		},
		{
			"doubleSided":true,
			"extensions":{
				"KHR_materials_specular":{
					"specularColorFactor":[
						0.04800000041723251,
						0.04800000041723251,
						0.04800000041723251
					]
				},
				"KHR_materials_ior":{
					"ior":0
				}
			},
			"name":"Concrete2_u2NWBuild3_1",
			"pbrMetallicRoughness":{
				"baseColorTexture":{
					"index":6
				},
				"metallicFactor":0,
				"roughnessFactor":0.9687750339508057
			}
		},
		{
			"doubleSided":true,
			"extensions":{
				"KHR_materials_specular":{
					"specularColorFactor":[
						0.04800000041723251,
						0.04800000041723251,
						0.04800000041723251
					]
				},
				"KHR_materials_ior":{
					"ior":0
				}
			},
			"name":"RooftopProps_u2NWBuild3_1",
			"pbrMetallicRoughness":{
				"baseColorTexture":{
					"index":7
				},
				"metallicFactor":0,
				"roughnessFactor":0.9685357213020325
			}
		},
		{
			"doubleSided":true,
			"extensions":{
				"KHR_materials_specular":{
					"specularColorFactor":[
						0.04800000041723251,
						0.04800000041723251,
						0.04800000041723251
					]
				},
				"KHR_materials_ior":{
					"ior":0
				}
			},
			"name":"Concrete4_u2NWBuild3_1",
			"pbrMetallicRoughness":{
				"baseColorTexture":{
					"index":8
				},
				"metallicFactor":0,
				"roughnessFactor":0.9687750339508057
			}
		},
		{
			"doubleSided":true,
			"extensions":{
				"KHR_materials_specular":{
					"specularColorFactor":[
						0.04800000041723251,
						0.04800000041723251,
						0.04800000041723251
					]
				},
				"KHR_materials_ior":{
					"ior":0
				}
			},
			"name":"BlackMetalPanels_u2NWBuild3_1",
			"pbrMetallicRoughness":{
				"baseColorTexture":{
					"index":9
				},
				"metallicFactor":0,
				"roughnessFactor":0.9691779017448425
			}
		},
		{
			"doubleSided":true,
			"extensions":{
				"KHR_materials_specular":{
					"specularColorFactor":[
						0.04800000041723251,
						0.04800000041723251,
						0.04800000041723251
					]
				},
				"KHR_materials_ior":{
					"ior":0
				}
			},
			"name":"Watertower_u2NWBuild3_1",
			"pbrMetallicRoughness":{
				"baseColorTexture":{
					"index":10
				},
				"metallicFactor":0,
				"roughnessFactor":0.9693813920021057
			}
		},
		{
			"doubleSided":true,
			"extensions":{
				"KHR_materials_specular":{
					"specularColorFactor":[
						0.04800000041723251,
						0.04800000041723251,
						0.04800000041723251
					]
				},
				"KHR_materials_ior":{
					"ior":0
				}
			},
			"name":"Props2_u2NWBuild3_1",
			"pbrMetallicRoughness":{
				"baseColorTexture":{
					"index":11
				},
				"metallicFactor":0,
				"roughnessFactor":0.9685357213020325
			}
		},
		{
			"doubleSided":true,
			"extensions":{
				"KHR_materials_specular":{
					"specularColorFactor":[
						0.04800000041723251,
						0.04800000041723251,
						0.04800000041723251
					]
				},
				"KHR_materials_ior":{
					"ior":0
				}
			},
			"name":"Facade_u2NWBuild3_1",
			"pbrMetallicRoughness":{
				"baseColorTexture":{
					"index":12
				},
				"metallicFactor":0,
				"roughnessFactor":0.9687750339508057
			}
		}
	],
	"meshes":[
		{
			"name":"Urban Sprawl 2.018",
			"primitives":[
				{
					"attributes":{
						"POSITION":0,
						"NORMAL":1,
						"TEXCOORD_0":2
					},
					"indices":3,
					"material":0
				},
				{
					"attributes":{
						"POSITION":4,
						"NORMAL":5,
						"TEXCOORD_0":6
					},
					"indices":7,
					"material":1
				},
				{
					"attributes":{
						"POSITION":8,
						"NORMAL":9,
						"TEXCOORD_0":10
					},
					"indices":11,
					"material":2
				},
				{
					"attributes":{
						"POSITION":12,
						"NORMAL":13,
						"TEXCOORD_0":14
					},
					"indices":15,
					"material":3
				},
				{
					"attributes":{
						"POSITION":16,
						"NORMAL":17,
						"TEXCOORD_0":18
					},
					"indices":19,
					"material":4
				},
				{
					"attributes":{
						"POSITION":20,
						"NORMAL":21,
						"TEXCOORD_0":22
					},
					"indices":23,
					"material":5
				},
				{
					"attributes":{
						"POSITION":24,
						"NORMAL":25,
						"TEXCOORD_0":26
					},
					"indices":27,
					"material":6
				},
				{
					"attributes":{
						"POSITION":28,
						"NORMAL":29,
						"TEXCOORD_0":30
					},
					"indices":31,
					"material":7
				},
				{
					"attributes":{
						"POSITION":32,
						"NORMAL":33,
						"TEXCOORD_0":34
					},
					"indices":35,
					"material":8
				},
				{
					"attributes":{
						"POSITION":36,
						"NORMAL":37,
						"TEXCOORD_0":38
					},
					"indices":39,
					"material":9
				},
				{
					"attributes":{
						"POSITION":40,
						"NORMAL":41,
						"TEXCOORD_0":42
					},
					"indices":43,
					"material":10
				},
				{
					"attributes":{
						"POSITION":44,
						"NORMAL":45,
						"TEXCOORD_0":46
					},
					"indices":47,
					"material":11
				},
				{
					"attributes":{
						"POSITION":48,
						"NORMAL":49,
						"TEXCOORD_0":50
					},
					"indices":51,
					"material":12
				}
			]
		}
	],
	"textures":[
		{
			"sampler":0,
			"source":0
		},
		{
			"sampler":0,
			"source":1
		},
		{
			"sampler":0,
			"source":2
		},
		{
			"sampler":0,
			"source":2
		},
		{
			"sampler":0,
			"source":3
		},
		{
			"sampler":0,
			"source":4
		},
		{
			"sampler":0,
			"source":2
		},
		{
			"sampler":0,
			"source":5
		},
		{
			"sampler":0,
			"source":2
		},
		{
			"sampler":0,
			"source":6
		},
		{
			"sampler":0,
			"source":7
		},
		{
			"sampler":0,
			"source":8
		},
		{
			"sampler":0,
			"source":9
		}
	],
	"images":[
		{
			"mimeType":"image/jpeg",
			"name":"u2metdark",
			"uri":"u2metdark.jpg"
		},
		{
			"mimeType":"image/jpeg",
			"name":"u2acunit2",
			"uri":"u2acunit2.jpg"
		},
		{
			"mimeType":"image/jpeg",
			"name":"u2crete2",
			"uri":"u2crete2.jpg"
		},
		{
			"mimeType":"image/jpeg",
			"name":"u2metal1",
			"uri":"u2metal1.jpg"
		},
		{
			"mimeType":"image/jpeg",
			"name":"u2white",
			"uri":"u2white.jpg"
		},
		{
			"mimeType":"image/jpeg",
			"name":"u2props4",
			"uri":"u2props4.jpg"
		},
		{
			"mimeType":"image/jpeg",
			"name":"u2blackpanel",
			"uri":"u2blackpanel.jpg"
		},
		{
			"mimeType":"image/jpeg",
			"name":"u2watert",
			"uri":"u2watert.jpg"
		},
		{
			"mimeType":"image/jpeg",
			"name":"u2props2",
			"uri":"u2props2.jpg"
		},
		{
			"mimeType":"image/jpeg",
			"name":"u2sebldg1",
			"uri":"u2sebldg1.jpg"
		}
	],
	"accessors":[
		{
			"bufferView":0,
			"componentType":5126,
			"count":2626,
			"max":[
				-16.44770050048828,
				-17.890899658203125,
				-1.5291600227355957
			],
			"min":[
				-22.450300216674805,
				-30.572799682617188,
				-28.071300506591797
			],
			"type":"VEC3"
		},
		{
			"bufferView":1,
			"componentType":5126,
			"count":2626,
			"type":"VEC3"
		},
		{
			"bufferView":2,
			"componentType":5126,
			"count":2626,
			"type":"VEC2"
		},
		{
			"bufferView":3,
			"componentType":5123,
			"count":4230,
			"type":"SCALAR"
		},
		{
			"bufferView":4,
			"componentType":5126,
			"count":3802,
			"max":[
				-16.120899200439453,
				-17.861099243164062,
				-0.9135500192642212
			],
			"min":[
				-22.395599365234375,
				-30.639699935913086,
				-23.260299682617188
			],
			"type":"VEC3"
		},
		{
			"bufferView":5,
			"componentType":5126,
			"count":3802,
			"type":"VEC3"
		},
		{
			"bufferView":6,
			"componentType":5126,
			"count":3802,
			"type":"VEC2"
		},
		{
			"bufferView":7,
			"componentType":5123,
			"count":6786,
			"type":"SCALAR"
		},
		{
			"bufferView":8,
			"componentType":5126,
			"count":680,
			"max":[
				-16.033300399780273,
				-17.725099563598633,
				0.03746910020709038
			],
			"min":[
				-22.965700149536133,
				-30.703899383544922,
				-27.201900482177734
			],
			"type":"VEC3"
		},
		{
			"bufferView":9,
			"componentType":5126,
			"count":680,
			"type":"VEC3"
		},
		{
			"bufferView":10,
			"componentType":5126,
			"count":680,
			"type":"VEC2"
		},
		{
			"bufferView":11,
			"componentType":5123,
			"count":1182,
			"type":"SCALAR"
		},
		{
			"bufferView":12,
			"componentType":5126,
			"count":1676,
			"max":[
				-16.546199798583984,
				-18.05820083618164,
				-9.608380317687988
			],
			"min":[
				-22.472999572753906,
				-30.2903995513916,
				-29.78820037841797
			],
			"type":"VEC3"
		},
		{
			"bufferView":13,
			"componentType":5126,
			"count":1676,
			"type":"VEC3"
		},
		{
			"bufferView":14,
			"componentType":5126,
			"count":1676,
			"type":"VEC2"
		},
		{
			"bufferView":15,
			"componentType":5123,
			"count":4224,
			"type":"SCALAR"
		},
		{
			"bufferView":16,
			"componentType":5126,
			"count":240,
			"max":[
				-16.840900421142578,
				-18.431699752807617,
				-9.733180046081543
			],
			"min":[
				-21.753799438476562,
				-26.709699630737305,
				-24.018299102783203
			],
			"type":"VEC3"
		},
		{
			"bufferView":17,
			"componentType":5126,
			"count":240,
			"type":"VEC3"
		},
		{
			"bufferView":18,
			"componentType":5126,
			"count":240,
			"type":"VEC2"
		},
		{
			"bufferView":19,
			"componentType":5123,
			"count":336,
			"type":"SCALAR"
		},
		{
			"bufferView":20,
			"componentType":5126,
			"count":1158,
			"max":[
				-16.781700134277344,
				-18.39780044555664,
				-9.569829940795898
			],
			"min":[
				-21.913700103759766,
				-30.019800186157227,
				-24.321699142456055
			],
			"type":"VEC3"
		},
		{
			"bufferView":21,
			"componentType":5126,
			"count":1158,
			"type":"VEC3"
		},
		{
			"bufferView":22,
			"componentType":5126,
			"count":1158,
			"type":"VEC2"
		},
		{
			"bufferView":23,
			"componentType":5123,
			"count":1722,
			"type":"SCALAR"
		},
		{
			"bufferView":24,
			"componentType":5126,
			"count":110,
			"max":[
				-17.591800689697266,
				-17.725099563598633,
				-23.693500518798828
			],
			"min":[
				-22.77239990234375,
				-30.703899383544922,
				-23.95330047607422
			],
			"type":"VEC3"
		},
		{
			"bufferView":25,
			"componentType":5126,
			"count":110,
			"type":"VEC3"
		},
		{
			"bufferView":26,
			"componentType":5126,
			"count":110,
			"type":"VEC2"
		},
		{
			"bufferView":27,
			"componentType":5123,
			"count":150,
			"type":"SCALAR"
		},
		{
			"bufferView":28,
			"componentType":5126,
			"count":3954,
			"max":[
				-18.125600814819336,
				-19.01799964904785,
				-23.625699996948242
			],
			"min":[
				-22.026399612426758,
				-28.25029945373535,
				-24.42970085144043
			],
			"type":"VEC3"
		},
		{
			"bufferView":29,
			"componentType":5126,
			"count":3954,
			"type":"VEC3"
		},
		{
			"bufferView":30,
			"componentType":5126,
			"count":3954,
			"type":"VEC2"
		},
		{
			"bufferView":31,
			"componentType":5123,
			"count":7695,
			"type":"SCALAR"
		},
		{
			"bufferView":32,
			"componentType":5126,
			"count":50,
			"max":[
				-17.939599990844727,
				-18.949399948120117,
				-23.61989974975586
			],
			"min":[
				-22.161699295043945,
				-30.026500701904297,
				-26.99530029296875
			],
			"type":"VEC3"
		},
		{
			"bufferView":33,
			"componentType":5126,
			"count":50,
			"type":"VEC3"
		},
		{
			"bufferView":34,
			"componentType":5126,
			"count":50,
			"type":"VEC2"
		},
		{
			"bufferView":35,
			"componentType":5123,
			"count":84,
			"type":"SCALAR"
		},
		{
			"bufferView":36,
			"componentType":5126,
			"count":750,
			"max":[
				-17.875900268554688,
				-25.670799255371094,
				-23.50119972229004
			],
			"min":[
				-22.553499221801758,
				-30.451099395751953,
				-24.544200897216797
			],
			"type":"VEC3"
		},
		{
			"bufferView":37,
			"componentType":5126,
			"count":750,
			"type":"VEC3"
		},
		{
			"bufferView":38,
			"componentType":5126,
			"count":750,
			"type":"VEC2"
		},
		{
			"bufferView":39,
			"componentType":5123,
			"count":1050,
			"type":"SCALAR"
		},
		{
			"bufferView":40,
			"componentType":5126,
			"count":203,
			"max":[
				-18.85409927368164,
				-28.585399627685547,
				-28.071300506591797
			],
			"min":[
				-20.105100631713867,
				-29.84469985961914,
				-29.329299926757812
			],
			"type":"VEC3"
		},
		{
			"bufferView":41,
			"componentType":5126,
			"count":203,
			"type":"VEC3"
		},
		{
			"bufferView":42,
			"componentType":5126,
			"count":203,
			"type":"VEC2"
		},
		{
			"bufferView":43,
			"componentType":5123,
			"count":504,
			"type":"SCALAR"
		},
		{
			"bufferView":44,
			"componentType":5126,
			"count":710,
			"max":[
				-18.5398006439209,
				-28.298599243164062,
				-24.54210090637207
			],
			"min":[
				-20.389999389648438,
				-30.15920066833496,
				-24.983200073242188
			],
			"type":"VEC3"
		},
		{
			"bufferView":45,
			"componentType":5126,
			"count":710,
			"type":"VEC3"
		},
		{
			"bufferView":46,
			"componentType":5126,
			"count":710,
			"type":"VEC2"
		},
		{
			"bufferView":47,
			"componentType":5123,
			"count":1104,
			"type":"SCALAR"
		},
		{
			"bufferView":48,
			"componentType":5126,
			"count":19847,
			"max":[
				-16.195199966430664,
				-17.85409927368164,
				-0.13274499773979187
			],
			"min":[
				-22.606399536132812,
				-30.582799911499023,
				-23.728900909423828
			],
			"type":"VEC3"
		},
		{
			"bufferView":49,
			"componentType":5126,
			"count":19847,
			"type":"VEC3"
		},
		{
			"bufferView":50,
			"componentType":5126,
			"count":19847,
			"type":"VEC2"
		},
		{
			"bufferView":51,
			"componentType":5123,
			"count":34923,
			"type":"SCALAR"
		}
	],
	"bufferViews":[
		{
			"buffer":0,
			"byteLength":31512,
			"byteOffset":0,
			"target":34962
		},
		{
			"buffer":0,
			"byteLength":31512,
			"byteOffset":31512,
			"target":34962
		},
		{
			"buffer":0,
			"byteLength":21008,
			"byteOffset":63024,
			"target":34962
		},
		{
			"buffer":0,
			"byteLength":8460,
			"byteOffset":84032,
			"target":34963
		},
		{
			"buffer":0,
			"byteLength":45624,
			"byteOffset":92492,
			"target":34962
		},
		{
			"buffer":0,
			"byteLength":45624,
			"byteOffset":138116,
			"target":34962
		},
		{
			"buffer":0,
			"byteLength":30416,
			"byteOffset":183740,
			"target":34962
		},
		{
			"buffer":0,
			"byteLength":13572,
			"byteOffset":214156,
			"target":34963
		},
		{
			"buffer":0,
			"byteLength":8160,
			"byteOffset":227728,
			"target":34962
		},
		{
			"buffer":0,
			"byteLength":8160,
			"byteOffset":235888,
			"target":34962
		},
		{
			"buffer":0,
			"byteLength":5440,
			"byteOffset":244048,
			"target":34962
		},
		{
			"buffer":0,
			"byteLength":2364,
			"byteOffset":249488,
			"target":34963
		},
		{
			"buffer":0,
			"byteLength":20112,
			"byteOffset":251852,
			"target":34962
		},
		{
			"buffer":0,
			"byteLength":20112,
			"byteOffset":271964,
			"target":34962
		},
		{
			"buffer":0,
			"byteLength":13408,
			"byteOffset":292076,
			"target":34962
		},
		{
			"buffer":0,
			"byteLength":8448,
			"byteOffset":305484,
			"target":34963
		},
		{
			"buffer":0,
			"byteLength":2880,
			"byteOffset":313932,
			"target":34962
		},
		{
			"buffer":0,
			"byteLength":2880,
			"byteOffset":316812,
			"target":34962
		},
		{
			"buffer":0,
			"byteLength":1920,
			"byteOffset":319692,
			"target":34962
		},
		{
			"buffer":0,
			"byteLength":672,
			"byteOffset":321612,
			"target":34963
		},
		{
			"buffer":0,
			"byteLength":13896,
			"byteOffset":322284,
			"target":34962
		},
		{
			"buffer":0,
			"byteLength":13896,
			"byteOffset":336180,
			"target":34962
		},
		{
			"buffer":0,
			"byteLength":9264,
			"byteOffset":350076,
			"target":34962
		},
		{
			"buffer":0,
			"byteLength":3444,
			"byteOffset":359340,
			"target":34963
		},
		{
			"buffer":0,
			"byteLength":1320,
			"byteOffset":362784,
			"target":34962
		},
		{
			"buffer":0,
			"byteLength":1320,
			"byteOffset":364104,
			"target":34962
		},
		{
			"buffer":0,
			"byteLength":880,
			"byteOffset":365424,
			"target":34962
		},
		{
			"buffer":0,
			"byteLength":300,
			"byteOffset":366304,
			"target":34963
		},
		{
			"buffer":0,
			"byteLength":47448,
			"byteOffset":366604,
			"target":34962
		},
		{
			"buffer":0,
			"byteLength":47448,
			"byteOffset":414052,
			"target":34962
		},
		{
			"buffer":0,
			"byteLength":31632,
			"byteOffset":461500,
			"target":34962
		},
		{
			"buffer":0,
			"byteLength":15390,
			"byteOffset":493132,
			"target":34963
		},
		{
			"buffer":0,
			"byteLength":600,
			"byteOffset":508524,
			"target":34962
		},
		{
			"buffer":0,
			"byteLength":600,
			"byteOffset":509124,
			"target":34962
		},
		{
			"buffer":0,
			"byteLength":400,
			"byteOffset":509724,
			"target":34962
		},
		{
			"buffer":0,
			"byteLength":168,
			"byteOffset":510124,
			"target":34963
		},
		{
			"buffer":0,
			"byteLength":9000,
			"byteOffset":510292,
			"target":34962
		},
		{
			"buffer":0,
			"byteLength":9000,
			"byteOffset":519292,
			"target":34962
		},
		{
			"buffer":0,
			"byteLength":6000,
			"byteOffset":528292,
			"target":34962
		},
		{
			"buffer":0,
			"byteLength":2100,
			"byteOffset":534292,
			"target":34963
		},
		{
			"buffer":0,
			"byteLength":2436,
			"byteOffset":536392,
			"target":34962
		},
		{
			"buffer":0,
			"byteLength":2436,
			"byteOffset":538828,
			"target":34962
		},
		{
			"buffer":0,
			"byteLength":1624,
			"byteOffset":541264,
			"target":34962
		},
		{
			"buffer":0,
			"byteLength":1008,
			"byteOffset":542888,
			"target":34963
		},
		{
			"buffer":0,
			"byteLength":8520,
			"byteOffset":543896,
			"target":34962
		},
		{
			"buffer":0,
			"byteLength":8520,
			"byteOffset":552416,
			"target":34962
		},
		{
			"buffer":0,
			"byteLength":5680,
			"byteOffset":560936,
			"target":34962
		},
		{
			"buffer":0,
			"byteLength":2208,
			"byteOffset":566616,
			"target":34963
		},
		{
			"buffer":0,
			"byteLength":238164,
			"byteOffset":568824,
			"target":34962
		},
		{
			"buffer":0,
			"byteLength":238164,
			"byteOffset":806988,
			"target":34962
		},
		{
			"buffer":0,
			"byteLength":158776,
			"byteOffset":1045152,
			"target":34962
		},
		{
			"buffer":0,
			"byteLength":69846,
			"byteOffset":1203928,
			"target":34963
		}
	],
	"samplers":[
		{
			"magFilter":9729,
			"minFilter":9987
		}
	],
	"buffers":[
		{
			"byteLength":1273776,
			"uri":"u2NWBuild3.bin"
		}
	]
}
