{
	"asset":{
		"generator":"Khronos glTF Blender I/O v5.0.21",
		"version":"2.0"
	},
	"extensionsUsed":[
		"KHR_materials_specular",
		"KHR_materials_ior"
	],
	"scene":0,
	"scenes":[
		{
			"name":"Scene",
			"nodes":[
				0
			]
		}
	],
	"nodes":[
		{
			"mesh":0,
			"name":"u2NWBuild8",
			"rotation":[
				0.70710688829422,
				0,
				0,
				0.7071066498756409
			]
		}
	],
	"materials":[
		{
			"doubleSided":true,
			"extensions":{
				"KHR_materials_specular":{
					"specularColorFactor":[
						0.04800000041723251,
						0.04800000041723251,
						0.04800000041723251
					]
				},
				"KHR_materials_ior":{
					"ior":0
				}
			},
			"name":"Concrete2_u2NWBuild8_1",
			"pbrMetallicRoughness":{
				"baseColorTexture":{
					"index":0
				},
				"metallicFactor":0,
				"roughnessFactor":0.9687750339508057
			}
		},
		{
			"doubleSided":true,
			"extensions":{
				"KHR_materials_specular":{
					"specularColorFactor":[
						0.04800000041723251,
						0.04800000041723251,
						0.04800000041723251
					]
				},
				"KHR_materials_ior":{
					"ior":0
				}
			},
			"name":"Props1_u2NWBuild8_1",
			"pbrMetallicRoughness":{
				"baseColorTexture":{
					"index":1
				},
				"metallicFactor":0,
				"roughnessFactor":0.9685357213020325
			}
		},
		{
			"doubleSided":true,
			"extensions":{
				"KHR_materials_specular":{
					"specularColorFactor":[
						0.04800000041723251,
						0.04800000041723251,
						0.04800000041723251
					]
				},
				"KHR_materials_ior":{
					"ior":0
				}
			},
			"name":"MetalLight_u2NWBuild8_1",
			"pbrMetallicRoughness":{
				"baseColorTexture":{
					"index":2
				},
				"metallicFactor":0,
				"roughnessFactor":0.9687750339508057
			}
		},
		{
			"doubleSided":true,
			"extensions":{
				"KHR_materials_specular":{
					"specularColorFactor":[
						0.04800000041723251,
						0.04800000041723251,
						0.04800000041723251
					]
				},
				"KHR_materials_ior":{
					"ior":0
				}
			},
			"name":"RooftopProps_u2NWBuild8_1",
			"pbrMetallicRoughness":{
				"baseColorTexture":{
					"index":3
				},
				"metallicFactor":0,
				"roughnessFactor":0.9685357213020325
			}
		},
		{
			"doubleSided":true,
			"extensions":{
				"KHR_materials_specular":{
					"specularColorFactor":[
						0.04800000041723251,
						0.04800000041723251,
						0.04800000041723251
					]
				},
				"KHR_materials_ior":{
					"ior":0
				}
			},
			"name":"SkylightGlass_u2NWBuild8_1",
			"pbrMetallicRoughness":{
				"baseColorTexture":{
					"index":4
				},
				"metallicFactor":0,
				"roughnessFactor":0.9687750339508057
			}
		},
		{
			"doubleSided":true,
			"extensions":{
				"KHR_materials_specular":{
					"specularColorFactor":[
						0.04800000041723251,
						0.04800000041723251,
						0.04800000041723251
					]
				},
				"KHR_materials_ior":{
					"ior":0
				}
			},
			"name":"MetalGrey_u2NWBuild8_1",
			"pbrMetallicRoughness":{
				"baseColorTexture":{
					"index":5
				},
				"metallicFactor":0,
				"roughnessFactor":0.9687750339508057
			}
		},
		{
			"doubleSided":true,
			"extensions":{
				"KHR_materials_specular":{
					"specularColorFactor":[
						0.04800000041723251,
						0.04800000041723251,
						0.04800000041723251
					]
				},
				"KHR_materials_ior":{
					"ior":0
				}
			},
			"name":"MetalDark_u2NWBuild8_1",
			"pbrMetallicRoughness":{
				"baseColorTexture":{
					"index":6
				},
				"metallicFactor":0,
				"roughnessFactor":0.9700000286102295
			}
		},
		{
			"doubleSided":true,
			"extensions":{
				"KHR_materials_specular":{
					"specularColorFactor":[
						0.04800000041723251,
						0.04800000041723251,
						0.04800000041723251
					]
				},
				"KHR_materials_ior":{
					"ior":0
				}
			},
			"name":"Brick2_u2NWBuild8_1",
			"pbrMetallicRoughness":{
				"baseColorTexture":{
					"index":7
				},
				"metallicFactor":0,
				"roughnessFactor":0.9687750339508057
			}
		},
		{
			"doubleSided":true,
			"extensions":{
				"KHR_materials_specular":{
					"specularColorFactor":[
						0.04800000041723251,
						0.04800000041723251,
						0.04800000041723251
					]
				},
				"KHR_materials_ior":{
					"ior":0
				}
			},
			"name":"AirCon3_u2NWBuild8_1",
			"pbrMetallicRoughness":{
				"baseColorTexture":{
					"index":8
				},
				"metallicFactor":0,
				"roughnessFactor":0.9685357213020325
			}
		},
		{
			"doubleSided":true,
			"extensions":{
				"KHR_materials_specular":{
					"specularColorFactor":[
						0.04800000041723251,
						0.04800000041723251,
						0.04800000041723251
					]
				},
				"KHR_materials_ior":{
					"ior":0
				}
			},
			"name":"Signs2_u2NWBuild8_1",
			"pbrMetallicRoughness":{
				"baseColorTexture":{
					"index":9
				},
				"metallicFactor":0,
				"roughnessFactor":0.9686418771743774
			}
		},
		{
			"doubleSided":true,
			"extensions":{
				"KHR_materials_specular":{
					"specularColorFactor":[
						0.04800000041723251,
						0.04800000041723251,
						0.04800000041723251
					]
				},
				"KHR_materials_ior":{
					"ior":0
				}
			},
			"name":"Signs3_u2NWBuild8_1",
			"pbrMetallicRoughness":{
				"baseColorTexture":{
					"index":10
				},
				"metallicFactor":0,
				"roughnessFactor":0.9691779017448425
			}
		}
	],
	"meshes":[
		{
			"name":"Urban Sprawl 2.023",
			"primitives":[
				{
					"attributes":{
						"POSITION":0,
						"NORMAL":1,
						"TEXCOORD_0":2
					},
					"indices":3,
					"material":0
				},
				{
					"attributes":{
						"POSITION":4,
						"NORMAL":5,
						"TEXCOORD_0":6
					},
					"indices":7,
					"material":1
				},
				{
					"attributes":{
						"POSITION":8,
						"NORMAL":9,
						"TEXCOORD_0":10
					},
					"indices":11,
					"material":2
				},
				{
					"attributes":{
						"POSITION":12,
						"NORMAL":13,
						"TEXCOORD_0":14
					},
					"indices":15,
					"material":3
				},
				{
					"attributes":{
						"POSITION":16,
						"NORMAL":17,
						"TEXCOORD_0":18
					},
					"indices":19,
					"material":4
				},
				{
					"attributes":{
						"POSITION":20,
						"NORMAL":21,
						"TEXCOORD_0":22
					},
					"indices":23,
					"material":5
				},
				{
					"attributes":{
						"POSITION":24,
						"NORMAL":25,
						"TEXCOORD_0":26
					},
					"indices":27,
					"material":6
				},
				{
					"attributes":{
						"POSITION":28,
						"NORMAL":29,
						"TEXCOORD_0":30
					},
					"indices":31,
					"material":7
				},
				{
					"attributes":{
						"POSITION":32,
						"NORMAL":33,
						"TEXCOORD_0":34
					},
					"indices":35,
					"material":8
				},
				{
					"attributes":{
						"POSITION":36,
						"NORMAL":37,
						"TEXCOORD_0":38
					},
					"indices":39,
					"material":9
				},
				{
					"attributes":{
						"POSITION":40,
						"NORMAL":41,
						"TEXCOORD_0":42
					},
					"indices":39,
					"material":10
				}
			]
		}
	],
	"textures":[
		{
			"sampler":0,
			"source":0
		},
		{
			"sampler":0,
			"source":1
		},
		{
			"sampler":0,
			"source":2
		},
		{
			"sampler":0,
			"source":3
		},
		{
			"sampler":0,
			"source":4
		},
		{
			"sampler":0,
			"source":4
		},
		{
			"sampler":0,
			"source":5
		},
		{
			"sampler":0,
			"source":6
		},
		{
			"sampler":0,
			"source":7
		},
		{
			"sampler":0,
			"source":8
		},
		{
			"sampler":0,
			"source":9
		}
	],
	"images":[
		{
			"mimeType":"image/jpeg",
			"name":"u2crete2",
			"uri":"u2crete2.jpg"
		},
		{
			"mimeType":"image/jpeg",
			"name":"u2props1",
			"uri":"u2props1.jpg"
		},
		{
			"mimeType":"image/jpeg",
			"name":"u2white",
			"uri":"u2white.jpg"
		},
		{
			"mimeType":"image/jpeg",
			"name":"u2props4",
			"uri":"u2props4.jpg"
		},
		{
			"mimeType":"image/jpeg",
			"name":"u2metal1",
			"uri":"u2metal1.jpg"
		},
		{
			"mimeType":"image/jpeg",
			"name":"u2metdark",
			"uri":"u2metdark.jpg"
		},
		{
			"mimeType":"image/jpeg",
			"name":"Bricks",
			"uri":"Bricks.jpg"
		},
		{
			"mimeType":"image/jpeg",
			"name":"u2acunit1",
			"uri":"u2acunit1.jpg"
		},
		{
			"mimeType":"image/jpeg",
			"name":"u2signs1",
			"uri":"u2signs1.jpg"
		},
		{
			"mimeType":"image/jpeg",
			"name":"u2signs3",
			"uri":"u2signs3.jpg"
		}
	],
	"accessors":[
		{
			"bufferView":0,
			"componentType":5126,
			"count":654,
			"max":[
				-11.435999870300293,
				-7.5738301277160645,
				0.45492398738861084
			],
			"min":[
				-15.57610034942627,
				-19.615699768066406,
				-15.31149959564209
			],
			"type":"VEC3"
		},
		{
			"bufferView":1,
			"componentType":5126,
			"count":654,
			"type":"VEC3"
		},
		{
			"bufferView":2,
			"componentType":5126,
			"count":654,
			"type":"VEC2"
		},
		{
			"bufferView":3,
			"componentType":5123,
			"count":1548,
			"type":"SCALAR"
		},
		{
			"bufferView":4,
			"componentType":5126,
			"count":700,
			"max":[
				-11.574600219726562,
				-7.728899955749512,
				-2.655790090560913
			],
			"min":[
				-15.461199760437012,
				-19.446699142456055,
				-14.703200340270996
			],
			"type":"VEC3"
		},
		{
			"bufferView":5,
			"componentType":5126,
			"count":700,
			"type":"VEC3"
		},
		{
			"bufferView":6,
			"componentType":5126,
			"count":700,
			"type":"VEC2"
		},
		{
			"bufferView":7,
			"componentType":5123,
			"count":1050,
			"type":"SCALAR"
		},
		{
			"bufferView":8,
			"componentType":5126,
			"count":334,
			"max":[
				-12.657299995422363,
				-9.449359893798828,
				-15.180700302124023
			],
			"min":[
				-15.063199996948242,
				-17.685100555419922,
				-17.480899810791016
			],
			"type":"VEC3"
		},
		{
			"bufferView":9,
			"componentType":5126,
			"count":334,
			"type":"VEC3"
		},
		{
			"bufferView":10,
			"componentType":5126,
			"count":334,
			"type":"VEC2"
		},
		{
			"bufferView":11,
			"componentType":5123,
			"count":498,
			"type":"SCALAR"
		},
		{
			"bufferView":12,
			"componentType":5126,
			"count":1026,
			"max":[
				-12.175200462341309,
				-9.576530456542969,
				-15.239800453186035
			],
			"min":[
				-14.538900375366211,
				-17.70199966430664,
				-16.951900482177734
			],
			"type":"VEC3"
		},
		{
			"bufferView":13,
			"componentType":5126,
			"count":1026,
			"type":"VEC3"
		},
		{
			"bufferView":14,
			"componentType":5126,
			"count":1026,
			"type":"VEC2"
		},
		{
			"bufferView":15,
			"componentType":5123,
			"count":2361,
			"type":"SCALAR"
		},
		{
			"bufferView":16,
			"componentType":5126,
			"count":68,
			"max":[
				-13.094200134277344,
				-16.017099380493164,
				-15.383999824523926
			],
			"min":[
				-14.489999771118164,
				-18.355600357055664,
				-15.500300407409668
			],
			"type":"VEC3"
		},
		{
			"bufferView":17,
			"componentType":5126,
			"count":68,
			"type":"VEC3"
		},
		{
			"bufferView":18,
			"componentType":5126,
			"count":68,
			"type":"VEC2"
		},
		{
			"bufferView":19,
			"componentType":5123,
			"count":96,
			"type":"SCALAR"
		},
		{
			"bufferView":20,
			"componentType":5126,
			"count":128,
			"max":[
				-13.06820011138916,
				-15.971699714660645,
				-15.258500099182129
			],
			"min":[
				-14.535499572753906,
				-18.401100158691406,
				-15.32349967956543
			],
			"type":"VEC3"
		},
		{
			"bufferView":21,
			"componentType":5126,
			"count":128,
			"type":"VEC3"
		},
		{
			"bufferView":22,
			"componentType":5126,
			"count":128,
			"type":"VEC2"
		},
		{
			"bufferView":23,
			"componentType":5123,
			"count":192,
			"type":"SCALAR"
		},
		{
			"bufferView":24,
			"componentType":5126,
			"count":642,
			"max":[
				-13.07859992980957,
				-15.995599746704102,
				-15.32349967956543
			],
			"min":[
				-14.511500358581543,
				-18.377099990844727,
				-15.51550006866455
			],
			"type":"VEC3"
		},
		{
			"bufferView":25,
			"componentType":5126,
			"count":642,
			"type":"VEC3"
		},
		{
			"bufferView":26,
			"componentType":5126,
			"count":642,
			"type":"VEC2"
		},
		{
			"bufferView":27,
			"componentType":5123,
			"count":1008,
			"type":"SCALAR"
		},
		{
			"bufferView":28,
			"componentType":5126,
			"count":16,
			"max":[
				-13.06820011138916,
				-15.971699714660645,
				-15.246700286865234
			],
			"min":[
				-14.505000114440918,
				-18.401100158691406,
				-15.258500099182129
			],
			"type":"VEC3"
		},
		{
			"bufferView":29,
			"componentType":5126,
			"count":16,
			"type":"VEC3"
		},
		{
			"bufferView":30,
			"componentType":5126,
			"count":16,
			"type":"VEC2"
		},
		{
			"bufferView":31,
			"componentType":5123,
			"count":24,
			"type":"SCALAR"
		},
		{
			"bufferView":32,
			"componentType":5126,
			"count":2183,
			"max":[
				-12.583100318908691,
				-8.822979927062988,
				-15.205599784851074
			],
			"min":[
				-14.756699562072754,
				-12.258899688720703,
				-16.13949966430664
			],
			"type":"VEC3"
		},
		{
			"bufferView":33,
			"componentType":5126,
			"count":2183,
			"type":"VEC3"
		},
		{
			"bufferView":34,
			"componentType":5126,
			"count":2183,
			"type":"VEC2"
		},
		{
			"bufferView":35,
			"componentType":5123,
			"count":3324,
			"type":"SCALAR"
		},
		{
			"bufferView":36,
			"componentType":5126,
			"count":12,
			"max":[
				-11.539899826049805,
				-7.677710056304932,
				-13.017999649047852
			],
			"min":[
				-15.377900123596191,
				-19.491600036621094,
				-14.973999977111816
			],
			"type":"VEC3"
		},
		{
			"bufferView":37,
			"componentType":5126,
			"count":12,
			"type":"VEC3"
		},
		{
			"bufferView":38,
			"componentType":5126,
			"count":12,
			"type":"VEC2"
		},
		{
			"bufferView":39,
			"componentType":5123,
			"count":18,
			"type":"SCALAR"
		},
		{
			"bufferView":40,
			"componentType":5126,
			"count":12,
			"max":[
				-12.997699737548828,
				-7.868659973144531,
				-7.397059917449951
			],
			"min":[
				-14.826399803161621,
				-7.879580020904541,
				-11.425600051879883
			],
			"type":"VEC3"
		},
		{
			"bufferView":41,
			"componentType":5126,
			"count":12,
			"type":"VEC3"
		},
		{
			"bufferView":42,
			"componentType":5126,
			"count":12,
			"type":"VEC2"
		}
	],
	"bufferViews":[
		{
			"buffer":0,
			"byteLength":7848,
			"byteOffset":0,
			"target":34962
		},
		{
			"buffer":0,
			"byteLength":7848,
			"byteOffset":7848,
			"target":34962
		},
		{
			"buffer":0,
			"byteLength":5232,
			"byteOffset":15696,
			"target":34962
		},
		{
			"buffer":0,
			"byteLength":3096,
			"byteOffset":20928,
			"target":34963
		},
		{
			"buffer":0,
			"byteLength":8400,
			"byteOffset":24024,
			"target":34962
		},
		{
			"buffer":0,
			"byteLength":8400,
			"byteOffset":32424,
			"target":34962
		},
		{
			"buffer":0,
			"byteLength":5600,
			"byteOffset":40824,
			"target":34962
		},
		{
			"buffer":0,
			"byteLength":2100,
			"byteOffset":46424,
			"target":34963
		},
		{
			"buffer":0,
			"byteLength":4008,
			"byteOffset":48524,
			"target":34962
		},
		{
			"buffer":0,
			"byteLength":4008,
			"byteOffset":52532,
			"target":34962
		},
		{
			"buffer":0,
			"byteLength":2672,
			"byteOffset":56540,
			"target":34962
		},
		{
			"buffer":0,
			"byteLength":996,
			"byteOffset":59212,
			"target":34963
		},
		{
			"buffer":0,
			"byteLength":12312,
			"byteOffset":60208,
			"target":34962
		},
		{
			"buffer":0,
			"byteLength":12312,
			"byteOffset":72520,
			"target":34962
		},
		{
			"buffer":0,
			"byteLength":8208,
			"byteOffset":84832,
			"target":34962
		},
		{
			"buffer":0,
			"byteLength":4722,
			"byteOffset":93040,
			"target":34963
		},
		{
			"buffer":0,
			"byteLength":816,
			"byteOffset":97764,
			"target":34962
		},
		{
			"buffer":0,
			"byteLength":816,
			"byteOffset":98580,
			"target":34962
		},
		{
			"buffer":0,
			"byteLength":544,
			"byteOffset":99396,
			"target":34962
		},
		{
			"buffer":0,
			"byteLength":192,
			"byteOffset":99940,
			"target":34963
		},
		{
			"buffer":0,
			"byteLength":1536,
			"byteOffset":100132,
			"target":34962
		},
		{
			"buffer":0,
			"byteLength":1536,
			"byteOffset":101668,
			"target":34962
		},
		{
			"buffer":0,
			"byteLength":1024,
			"byteOffset":103204,
			"target":34962
		},
		{
			"buffer":0,
			"byteLength":384,
			"byteOffset":104228,
			"target":34963
		},
		{
			"buffer":0,
			"byteLength":7704,
			"byteOffset":104612,
			"target":34962
		},
		{
			"buffer":0,
			"byteLength":7704,
			"byteOffset":112316,
			"target":34962
		},
		{
			"buffer":0,
			"byteLength":5136,
			"byteOffset":120020,
			"target":34962
		},
		{
			"buffer":0,
			"byteLength":2016,
			"byteOffset":125156,
			"target":34963
		},
		{
			"buffer":0,
			"byteLength":192,
			"byteOffset":127172,
			"target":34962
		},
		{
			"buffer":0,
			"byteLength":192,
			"byteOffset":127364,
			"target":34962
		},
		{
			"buffer":0,
			"byteLength":128,
			"byteOffset":127556,
			"target":34962
		},
		{
			"buffer":0,
			"byteLength":48,
			"byteOffset":127684,
			"target":34963
		},
		{
			"buffer":0,
			"byteLength":26196,
			"byteOffset":127732,
			"target":34962
		},
		{
			"buffer":0,
			"byteLength":26196,
			"byteOffset":153928,
			"target":34962
		},
		{
			"buffer":0,
			"byteLength":17464,
			"byteOffset":180124,
			"target":34962
		},
		{
			"buffer":0,
			"byteLength":6648,
			"byteOffset":197588,
			"target":34963
		},
		{
			"buffer":0,
			"byteLength":144,
			"byteOffset":204236,
			"target":34962
		},
		{
			"buffer":0,
			"byteLength":144,
			"byteOffset":204380,
			"target":34962
		},
		{
			"buffer":0,
			"byteLength":96,
			"byteOffset":204524,
			"target":34962
		},
		{
			"buffer":0,
			"byteLength":36,
			"byteOffset":204620,
			"target":34963
		},
		{
			"buffer":0,
			"byteLength":144,
			"byteOffset":204656,
			"target":34962
		},
		{
			"buffer":0,
			"byteLength":144,
			"byteOffset":204800,
			"target":34962
		},
		{
			"buffer":0,
			"byteLength":96,
			"byteOffset":204944,
			"target":34962
		}
	],
	"samplers":[
		{
			"magFilter":9729,
			"minFilter":9987
		}
	],
	"buffers":[
		{
			"byteLength":205040,
			"uri":"u2NWBuild8.bin"
		}
	]
}
