{
	"asset":{
		"generator":"Khronos glTF Blender I/O v5.0.21",
		"version":"2.0"
	},
	"extensionsUsed":[
		"KHR_materials_specular",
		"KHR_materials_ior"
	],
	"scene":0,
	"scenes":[
		{
			"name":"Scene",
			"nodes":[
				0
			]
		}
	],
	"nodes":[
		{
			"mesh":0,
			"name":"u2NWBuild6",
			"rotation":[
				0.70710688829422,
				0,
				0,
				0.7071066498756409
			]
		}
	],
	"materials":[
		{
			"doubleSided":true,
			"extensions":{
				"KHR_materials_specular":{
					"specularColorFactor":[
						0.04800000041723251,
						0.04800000041723251,
						0.04800000041723251
					]
				},
				"KHR_materials_ior":{
					"ior":0
				}
			},
			"name":"BuildingFacade_u2NWBuild6_1",
			"pbrMetallicRoughness":{
				"baseColorTexture":{
					"index":0
				},
				"metallicFactor":0,
				"roughnessFactor":0.9687750339508057
			}
		},
		{
			"doubleSided":true,
			"extensions":{
				"KHR_materials_specular":{
					"specularColorFactor":[
						0.04800000041723251,
						0.04800000041723251,
						0.04800000041723251
					]
				},
				"KHR_materials_ior":{
					"ior":0
				}
			},
			"name":"WindowB_u2NWBuild6_1",
			"pbrMetallicRoughness":{
				"baseColorTexture":{
					"index":1
				},
				"metallicFactor":0,
				"roughnessFactor":0.9691779017448425
			}
		},
		{
			"doubleSided":true,
			"extensions":{
				"KHR_materials_specular":{
					"specularColorFactor":[
						0.04800000041723251,
						0.04800000041723251,
						0.04800000041723251
					]
				},
				"KHR_materials_ior":{
					"ior":0
				}
			},
			"name":"WindowA_u2NWBuild6_1",
			"pbrMetallicRoughness":{
				"baseColorTexture":{
					"index":2
				},
				"metallicFactor":0,
				"roughnessFactor":0.9691779017448425
			}
		},
		{
			"doubleSided":true,
			"extensions":{
				"KHR_materials_specular":{
					"specularColorFactor":[
						0.04800000041723251,
						0.04800000041723251,
						0.04800000041723251
					]
				},
				"KHR_materials_ior":{
					"ior":0
				}
			},
			"name":"Concrete2_u2NWBuild6_1",
			"pbrMetallicRoughness":{
				"baseColorTexture":{
					"index":3
				},
				"metallicFactor":0,
				"roughnessFactor":0.9687750339508057
			}
		},
		{
			"doubleSided":true,
			"extensions":{
				"KHR_materials_specular":{
					"specularColorFactor":[
						0.04800000041723251,
						0.04800000041723251,
						0.04800000041723251
					]
				},
				"KHR_materials_ior":{
					"ior":0
				}
			},
			"name":"Concrete1_u2NWBuild6_1",
			"pbrMetallicRoughness":{
				"baseColorTexture":{
					"index":4
				},
				"metallicFactor":0,
				"roughnessFactor":0.9687750339508057
			}
		},
		{
			"doubleSided":true,
			"extensions":{
				"KHR_materials_specular":{
					"specularColorFactor":[
						0.04800000041723251,
						0.04800000041723251,
						0.04800000041723251
					]
				},
				"KHR_materials_ior":{
					"ior":0
				}
			},
			"name":"Brick3_u2NWBuild6_1",
			"pbrMetallicRoughness":{
				"baseColorTexture":{
					"index":5
				},
				"metallicFactor":0,
				"roughnessFactor":0.9687750339508057
			}
		},
		{
			"doubleSided":true,
			"extensions":{
				"KHR_materials_specular":{
					"specularColorFactor":[
						0.04800000041723251,
						0.04800000041723251,
						0.04800000041723251
					]
				},
				"KHR_materials_ior":{
					"ior":0
				}
			},
			"name":"MetalDark_u2NWBuild6_1",
			"pbrMetallicRoughness":{
				"baseColorTexture":{
					"index":6
				},
				"metallicFactor":0,
				"roughnessFactor":0.9700000286102295
			}
		},
		{
			"doubleSided":true,
			"extensions":{
				"KHR_materials_specular":{
					"specularColorFactor":[
						0.04800000041723251,
						0.04800000041723251,
						0.04800000041723251
					]
				},
				"KHR_materials_ior":{
					"ior":0
				}
			},
			"name":"Signs2_u2NWBuild6_1",
			"pbrMetallicRoughness":{
				"baseColorTexture":{
					"index":7
				},
				"metallicFactor":0,
				"roughnessFactor":0.9686418771743774
			}
		},
		{
			"doubleSided":true,
			"extensions":{
				"KHR_materials_specular":{
					"specularColorFactor":[
						0.04800000041723251,
						0.04800000041723251,
						0.04800000041723251
					]
				},
				"KHR_materials_ior":{
					"ior":0
				}
			},
			"name":"RooftopProps_u2NWBuild6_1",
			"pbrMetallicRoughness":{
				"baseColorTexture":{
					"index":8
				},
				"metallicFactor":0,
				"roughnessFactor":0.9685357213020325
			}
		},
		{
			"doubleSided":true,
			"extensions":{
				"KHR_materials_specular":{
					"specularColorFactor":[
						0.04800000041723251,
						0.04800000041723251,
						0.04800000041723251
					]
				},
				"KHR_materials_ior":{
					"ior":0
				}
			},
			"name":"Vent1_u2NWBuild6_1",
			"pbrMetallicRoughness":{
				"baseColorTexture":{
					"index":9
				},
				"metallicFactor":0,
				"roughnessFactor":0.9693813920021057
			}
		},
		{
			"doubleSided":true,
			"extensions":{
				"KHR_materials_specular":{
					"specularColorFactor":[
						0.04800000041723251,
						0.04800000041723251,
						0.04800000041723251
					]
				},
				"KHR_materials_ior":{
					"ior":0
				}
			},
			"name":"MetalGrey_u2NWBuild6_1",
			"pbrMetallicRoughness":{
				"baseColorTexture":{
					"index":10
				},
				"metallicFactor":0,
				"roughnessFactor":0.9687750339508057
			}
		},
		{
			"doubleSided":true,
			"extensions":{
				"KHR_materials_specular":{
					"specularColorFactor":[
						0.04800000041723251,
						0.04800000041723251,
						0.04800000041723251
					]
				},
				"KHR_materials_ior":{
					"ior":0
				}
			},
			"name":"Props2_u2NWBuild6_1",
			"pbrMetallicRoughness":{
				"baseColorTexture":{
					"index":11
				},
				"metallicFactor":0,
				"roughnessFactor":0.9691779017448425
			}
		}
	],
	"meshes":[
		{
			"name":"Urban Sprawl 2.021",
			"primitives":[
				{
					"attributes":{
						"POSITION":0,
						"NORMAL":1,
						"TEXCOORD_0":2
					},
					"indices":3,
					"material":0
				},
				{
					"attributes":{
						"POSITION":4,
						"NORMAL":5,
						"TEXCOORD_0":6
					},
					"indices":7,
					"material":1
				},
				{
					"attributes":{
						"POSITION":8,
						"NORMAL":9,
						"TEXCOORD_0":10
					},
					"indices":11,
					"material":2
				},
				{
					"attributes":{
						"POSITION":12,
						"NORMAL":13,
						"TEXCOORD_0":14
					},
					"indices":15,
					"material":3
				},
				{
					"attributes":{
						"POSITION":16,
						"NORMAL":17,
						"TEXCOORD_0":18
					},
					"indices":19,
					"material":4
				},
				{
					"attributes":{
						"POSITION":20,
						"NORMAL":21,
						"TEXCOORD_0":22
					},
					"indices":23,
					"material":5
				},
				{
					"attributes":{
						"POSITION":24,
						"NORMAL":25,
						"TEXCOORD_0":26
					},
					"indices":27,
					"material":6
				},
				{
					"attributes":{
						"POSITION":28,
						"NORMAL":29,
						"TEXCOORD_0":30
					},
					"indices":31,
					"material":7
				},
				{
					"attributes":{
						"POSITION":32,
						"NORMAL":33,
						"TEXCOORD_0":34
					},
					"indices":35,
					"material":8
				},
				{
					"attributes":{
						"POSITION":36,
						"NORMAL":37,
						"TEXCOORD_0":38
					},
					"indices":39,
					"material":9
				},
				{
					"attributes":{
						"POSITION":40,
						"NORMAL":41,
						"TEXCOORD_0":42
					},
					"indices":43,
					"material":10
				},
				{
					"attributes":{
						"POSITION":44,
						"NORMAL":45,
						"TEXCOORD_0":46
					},
					"indices":47,
					"material":11
				}
			]
		}
	],
	"textures":[
		{
			"sampler":0,
			"source":0
		},
		{
			"sampler":0,
			"source":0
		},
		{
			"sampler":0,
			"source":0
		},
		{
			"sampler":0,
			"source":1
		},
		{
			"sampler":0,
			"source":1
		},
		{
			"sampler":0,
			"source":2
		},
		{
			"sampler":0,
			"source":3
		},
		{
			"sampler":0,
			"source":4
		},
		{
			"sampler":0,
			"source":5
		},
		{
			"sampler":0,
			"source":6
		},
		{
			"sampler":0,
			"source":7
		},
		{
			"sampler":0,
			"source":8
		}
	],
	"images":[
		{
			"mimeType":"image/jpeg",
			"name":"u2nwbldg6",
			"uri":"u2nwbldg6.jpg"
		},
		{
			"mimeType":"image/jpeg",
			"name":"u2crete2",
			"uri":"u2crete2.jpg"
		},
		{
			"mimeType":"image/jpeg",
			"name":"Bricks",
			"uri":"Bricks.jpg"
		},
		{
			"mimeType":"image/jpeg",
			"name":"u2metdark",
			"uri":"u2metdark.jpg"
		},
		{
			"mimeType":"image/jpeg",
			"name":"u2signs1",
			"uri":"u2signs1.jpg"
		},
		{
			"mimeType":"image/jpeg",
			"name":"u2props4",
			"uri":"u2props4.jpg"
		},
		{
			"mimeType":"image/jpeg",
			"name":"u2vent1",
			"uri":"u2vent1.jpg"
		},
		{
			"mimeType":"image/jpeg",
			"name":"u2metal1",
			"uri":"u2metal1.jpg"
		},
		{
			"mimeType":"image/jpeg",
			"name":"u2props2",
			"uri":"u2props2.jpg"
		}
	],
	"accessors":[
		{
			"bufferView":0,
			"componentType":5126,
			"count":4460,
			"max":[
				-3.469249963760376,
				-12.610600471496582,
				-0.3925130069255829
			],
			"min":[
				-9.40664005279541,
				-21.638599395751953,
				-5.382510185241699
			],
			"type":"VEC3"
		},
		{
			"bufferView":1,
			"componentType":5126,
			"count":4460,
			"type":"VEC3"
		},
		{
			"bufferView":2,
			"componentType":5126,
			"count":4460,
			"type":"VEC2"
		},
		{
			"bufferView":3,
			"componentType":5123,
			"count":7023,
			"type":"SCALAR"
		},
		{
			"bufferView":4,
			"componentType":5126,
			"count":80,
			"max":[
				-4.110320091247559,
				-13.054300308227539,
				-0.9165120124816895
			],
			"min":[
				-4.328189849853516,
				-21.21179962158203,
				-4.45320987701416
			],
			"type":"VEC3"
		},
		{
			"bufferView":5,
			"componentType":5126,
			"count":80,
			"type":"VEC3"
		},
		{
			"bufferView":6,
			"componentType":5126,
			"count":80,
			"type":"VEC2"
		},
		{
			"bufferView":7,
			"componentType":5123,
			"count":120,
			"type":"SCALAR"
		},
		{
			"bufferView":8,
			"componentType":5126,
			"count":32,
			"max":[
				-4.125160217285156,
				-13.053000450134277,
				-0.9165120124816895
			],
			"min":[
				-4.328189849853516,
				-20.357900619506836,
				-4.45320987701416
			],
			"type":"VEC3"
		},
		{
			"bufferView":9,
			"componentType":5126,
			"count":32,
			"type":"VEC3"
		},
		{
			"bufferView":10,
			"componentType":5126,
			"count":32,
			"type":"VEC2"
		},
		{
			"bufferView":11,
			"componentType":5123,
			"count":48,
			"type":"SCALAR"
		},
		{
			"bufferView":12,
			"componentType":5126,
			"count":275,
			"max":[
				-3.8091700077056885,
				-12.58810043334961,
				-0.3949440121650696
			],
			"min":[
				-9.429100036621094,
				-21.65850067138672,
				-5.109640121459961
			],
			"type":"VEC3"
		},
		{
			"bufferView":13,
			"componentType":5126,
			"count":275,
			"type":"VEC3"
		},
		{
			"bufferView":14,
			"componentType":5126,
			"count":275,
			"type":"VEC2"
		},
		{
			"bufferView":15,
			"componentType":5123,
			"count":483,
			"type":"SCALAR"
		},
		{
			"bufferView":16,
			"componentType":5126,
			"count":54,
			"max":[
				-4.034719944000244,
				-12.813699722290039,
				-0.42465099692344666
			],
			"min":[
				-9.293089866638184,
				-21.432899475097656,
				-5.109640121459961
			],
			"type":"VEC3"
		},
		{
			"bufferView":17,
			"componentType":5126,
			"count":54,
			"type":"VEC3"
		},
		{
			"bufferView":18,
			"componentType":5126,
			"count":54,
			"type":"VEC2"
		},
		{
			"bufferView":19,
			"componentType":5123,
			"count":72,
			"type":"SCALAR"
		},
		{
			"bufferView":20,
			"componentType":5126,
			"count":26,
			"max":[
				-4.085519790649414,
				-12.830900192260742,
				-2.272819995880127
			],
			"min":[
				-9.170319557189941,
				-21.41309928894043,
				-4.525310039520264
			],
			"type":"VEC3"
		},
		{
			"bufferView":21,
			"componentType":5126,
			"count":26,
			"type":"VEC3"
		},
		{
			"bufferView":22,
			"componentType":5126,
			"count":26,
			"type":"VEC2"
		},
		{
			"bufferView":23,
			"componentType":5123,
			"count":36,
			"type":"SCALAR"
		},
		{
			"bufferView":24,
			"componentType":5126,
			"count":95,
			"max":[
				-3.2806999683380127,
				-14.720100402832031,
				-2.019890069961548
			],
			"min":[
				-4.570499897003174,
				-17.97949981689453,
				-3.0488100051879883
			],
			"type":"VEC3"
		},
		{
			"bufferView":25,
			"componentType":5126,
			"count":95,
			"type":"VEC3"
		},
		{
			"bufferView":26,
			"componentType":5126,
			"count":95,
			"type":"VEC2"
		},
		{
			"bufferView":27,
			"componentType":5123,
			"count":168,
			"type":"SCALAR"
		},
		{
			"bufferView":28,
			"componentType":5126,
			"count":20,
			"max":[
				-3.2879700660705566,
				-14.729399681091309,
				-2.0559799671173096
			],
			"min":[
				-4.4944000244140625,
				-17.970199584960938,
				-2.162209987640381
			],
			"type":"VEC3"
		},
		{
			"bufferView":29,
			"componentType":5126,
			"count":20,
			"type":"VEC3"
		},
		{
			"bufferView":30,
			"componentType":5126,
			"count":20,
			"type":"VEC2"
		},
		{
			"bufferView":31,
			"componentType":5123,
			"count":30,
			"type":"SCALAR"
		},
		{
			"bufferView":32,
			"componentType":5126,
			"count":495,
			"max":[
				-4.482269763946533,
				-16.27750015258789,
				-5.003849983215332
			],
			"min":[
				-8.44180965423584,
				-20.918100357055664,
				-5.5105299949646
			],
			"type":"VEC3"
		},
		{
			"bufferView":33,
			"componentType":5126,
			"count":495,
			"type":"VEC3"
		},
		{
			"bufferView":34,
			"componentType":5126,
			"count":495,
			"type":"VEC2"
		},
		{
			"bufferView":35,
			"componentType":5123,
			"count":1026,
			"type":"SCALAR"
		},
		{
			"bufferView":36,
			"componentType":5126,
			"count":414,
			"max":[
				-5.612840175628662,
				-20.988000869750977,
				-5.003880023956299
			],
			"min":[
				-8.197799682617188,
				-21.609699249267578,
				-7.399179935455322
			],
			"type":"VEC3"
		},
		{
			"bufferView":37,
			"componentType":5126,
			"count":414,
			"type":"VEC3"
		},
		{
			"bufferView":38,
			"componentType":5126,
			"count":414,
			"type":"VEC2"
		},
		{
			"bufferView":39,
			"componentType":5123,
			"count":642,
			"type":"SCALAR"
		},
		{
			"bufferView":40,
			"componentType":5126,
			"count":895,
			"max":[
				-5.611090183258057,
				-20.986299514770508,
				-5.0054497718811035
			],
			"min":[
				-8.203120231628418,
				-21.625999450683594,
				-7.401529788970947
			],
			"type":"VEC3"
		},
		{
			"bufferView":41,
			"componentType":5126,
			"count":895,
			"type":"VEC3"
		},
		{
			"bufferView":42,
			"componentType":5126,
			"count":895,
			"type":"VEC2"
		},
		{
			"bufferView":43,
			"componentType":5123,
			"count":1176,
			"type":"SCALAR"
		},
		{
			"bufferView":44,
			"componentType":5126,
			"count":4,
			"max":[
				-5.619840145111084,
				-21.057100296020508,
				-5.044650077819824
			],
			"min":[
				-5.622640132904053,
				-21.204500198364258,
				-5.231659889221191
			],
			"type":"VEC3"
		},
		{
			"bufferView":45,
			"componentType":5126,
			"count":4,
			"type":"VEC3"
		},
		{
			"bufferView":46,
			"componentType":5126,
			"count":4,
			"type":"VEC2"
		},
		{
			"bufferView":47,
			"componentType":5123,
			"count":6,
			"type":"SCALAR"
		}
	],
	"bufferViews":[
		{
			"buffer":0,
			"byteLength":53520,
			"byteOffset":0,
			"target":34962
		},
		{
			"buffer":0,
			"byteLength":53520,
			"byteOffset":53520,
			"target":34962
		},
		{
			"buffer":0,
			"byteLength":35680,
			"byteOffset":107040,
			"target":34962
		},
		{
			"buffer":0,
			"byteLength":14046,
			"byteOffset":142720,
			"target":34963
		},
		{
			"buffer":0,
			"byteLength":960,
			"byteOffset":156768,
			"target":34962
		},
		{
			"buffer":0,
			"byteLength":960,
			"byteOffset":157728,
			"target":34962
		},
		{
			"buffer":0,
			"byteLength":640,
			"byteOffset":158688,
			"target":34962
		},
		{
			"buffer":0,
			"byteLength":240,
			"byteOffset":159328,
			"target":34963
		},
		{
			"buffer":0,
			"byteLength":384,
			"byteOffset":159568,
			"target":34962
		},
		{
			"buffer":0,
			"byteLength":384,
			"byteOffset":159952,
			"target":34962
		},
		{
			"buffer":0,
			"byteLength":256,
			"byteOffset":160336,
			"target":34962
		},
		{
			"buffer":0,
			"byteLength":96,
			"byteOffset":160592,
			"target":34963
		},
		{
			"buffer":0,
			"byteLength":3300,
			"byteOffset":160688,
			"target":34962
		},
		{
			"buffer":0,
			"byteLength":3300,
			"byteOffset":163988,
			"target":34962
		},
		{
			"buffer":0,
			"byteLength":2200,
			"byteOffset":167288,
			"target":34962
		},
		{
			"buffer":0,
			"byteLength":966,
			"byteOffset":169488,
			"target":34963
		},
		{
			"buffer":0,
			"byteLength":648,
			"byteOffset":170456,
			"target":34962
		},
		{
			"buffer":0,
			"byteLength":648,
			"byteOffset":171104,
			"target":34962
		},
		{
			"buffer":0,
			"byteLength":432,
			"byteOffset":171752,
			"target":34962
		},
		{
			"buffer":0,
			"byteLength":144,
			"byteOffset":172184,
			"target":34963
		},
		{
			"buffer":0,
			"byteLength":312,
			"byteOffset":172328,
			"target":34962
		},
		{
			"buffer":0,
			"byteLength":312,
			"byteOffset":172640,
			"target":34962
		},
		{
			"buffer":0,
			"byteLength":208,
			"byteOffset":172952,
			"target":34962
		},
		{
			"buffer":0,
			"byteLength":72,
			"byteOffset":173160,
			"target":34963
		},
		{
			"buffer":0,
			"byteLength":1140,
			"byteOffset":173232,
			"target":34962
		},
		{
			"buffer":0,
			"byteLength":1140,
			"byteOffset":174372,
			"target":34962
		},
		{
			"buffer":0,
			"byteLength":760,
			"byteOffset":175512,
			"target":34962
		},
		{
			"buffer":0,
			"byteLength":336,
			"byteOffset":176272,
			"target":34963
		},
		{
			"buffer":0,
			"byteLength":240,
			"byteOffset":176608,
			"target":34962
		},
		{
			"buffer":0,
			"byteLength":240,
			"byteOffset":176848,
			"target":34962
		},
		{
			"buffer":0,
			"byteLength":160,
			"byteOffset":177088,
			"target":34962
		},
		{
			"buffer":0,
			"byteLength":60,
			"byteOffset":177248,
			"target":34963
		},
		{
			"buffer":0,
			"byteLength":5940,
			"byteOffset":177308,
			"target":34962
		},
		{
			"buffer":0,
			"byteLength":5940,
			"byteOffset":183248,
			"target":34962
		},
		{
			"buffer":0,
			"byteLength":3960,
			"byteOffset":189188,
			"target":34962
		},
		{
			"buffer":0,
			"byteLength":2052,
			"byteOffset":193148,
			"target":34963
		},
		{
			"buffer":0,
			"byteLength":4968,
			"byteOffset":195200,
			"target":34962
		},
		{
			"buffer":0,
			"byteLength":4968,
			"byteOffset":200168,
			"target":34962
		},
		{
			"buffer":0,
			"byteLength":3312,
			"byteOffset":205136,
			"target":34962
		},
		{
			"buffer":0,
			"byteLength":1284,
			"byteOffset":208448,
			"target":34963
		},
		{
			"buffer":0,
			"byteLength":10740,
			"byteOffset":209732,
			"target":34962
		},
		{
			"buffer":0,
			"byteLength":10740,
			"byteOffset":220472,
			"target":34962
		},
		{
			"buffer":0,
			"byteLength":7160,
			"byteOffset":231212,
			"target":34962
		},
		{
			"buffer":0,
			"byteLength":2352,
			"byteOffset":238372,
			"target":34963
		},
		{
			"buffer":0,
			"byteLength":48,
			"byteOffset":240724,
			"target":34962
		},
		{
			"buffer":0,
			"byteLength":48,
			"byteOffset":240772,
			"target":34962
		},
		{
			"buffer":0,
			"byteLength":32,
			"byteOffset":240820,
			"target":34962
		},
		{
			"buffer":0,
			"byteLength":12,
			"byteOffset":240852,
			"target":34963
		}
	],
	"samplers":[
		{
			"magFilter":9729,
			"minFilter":9987
		}
	],
	"buffers":[
		{
			"byteLength":240864,
			"uri":"u2NWBuild6.bin"
		}
	]
}
