{
	"asset":{
		"generator":"Khronos glTF Blender I/O v5.0.21",
		"version":"2.0"
	},
	"extensionsUsed":[
		"KHR_materials_specular",
		"KHR_materials_ior"
	],
	"scene":0,
	"scenes":[
		{
			"name":"Scene",
			"nodes":[
				0
			]
		}
	],
	"nodes":[
		{
			"mesh":0,
			"name":"u2NWBuild1",
			"rotation":[
				0.70710688829422,
				0,
				0,
				0.7071066498756409
			]
		}
	],
	"materials":[
		{
			"doubleSided":true,
			"extensions":{
				"KHR_materials_specular":{
					"specularColorFactor":[
						0.04800000041723251,
						0.04800000041723251,
						0.04800000041723251
					]
				},
				"KHR_materials_ior":{
					"ior":0
				}
			},
			"name":"Props1_u2NWBuild1_1",
			"pbrMetallicRoughness":{
				"baseColorTexture":{
					"index":0
				},
				"metallicFactor":0,
				"roughnessFactor":0.9685357213020325
			}
		},
		{
			"doubleSided":true,
			"extensions":{
				"KHR_materials_specular":{
					"specularColorFactor":[
						0.04800000041723251,
						0.04800000041723251,
						0.04800000041723251
					]
				},
				"KHR_materials_ior":{
					"ior":0
				}
			},
			"name":"Concrete2_u2NWBuild1_1",
			"pbrMetallicRoughness":{
				"baseColorTexture":{
					"index":1
				},
				"metallicFactor":0,
				"roughnessFactor":0.9687750339508057
			}
		},
		{
			"doubleSided":true,
			"extensions":{
				"KHR_materials_specular":{
					"specularColorFactor":[
						0.04800000041723251,
						0.04800000041723251,
						0.04800000041723251
					]
				},
				"KHR_materials_ior":{
					"ior":0
				}
			},
			"name":"Concrete1_u2NWBuild1_1",
			"pbrMetallicRoughness":{
				"baseColorTexture":{
					"index":2
				},
				"metallicFactor":0,
				"roughnessFactor":0.9700000286102295
			}
		},
		{
			"doubleSided":true,
			"extensions":{
				"KHR_materials_specular":{
					"specularColorFactor":[
						0.04800000041723251,
						0.04800000041723251,
						0.04800000041723251
					]
				},
				"KHR_materials_ior":{
					"ior":0
				}
			},
			"name":"MetalDark_u2NWBuild1_1",
			"pbrMetallicRoughness":{
				"baseColorTexture":{
					"index":3
				},
				"metallicFactor":0,
				"roughnessFactor":0.9687750339508057
			}
		},
		{
			"doubleSided":true,
			"extensions":{
				"KHR_materials_specular":{
					"specularColorFactor":[
						0.04800000041723251,
						0.04800000041723251,
						0.04800000041723251
					]
				},
				"KHR_materials_ior":{
					"ior":0
				}
			},
			"name":"RooftopProps_u2NWBuild1_1",
			"pbrMetallicRoughness":{
				"baseColorTexture":{
					"index":4
				},
				"metallicFactor":0,
				"roughnessFactor":0.9685357213020325
			}
		},
		{
			"doubleSided":true,
			"extensions":{
				"KHR_materials_specular":{
					"specularColorFactor":[
						0.04800000041723251,
						0.04800000041723251,
						0.04800000041723251
					]
				},
				"KHR_materials_ior":{
					"ior":0
				}
			},
			"name":"LEDRed_u2NWBuild1_1",
			"pbrMetallicRoughness":{
				"baseColorFactor":[
					0.800000011920929,
					0.800000011920929,
					0.800000011920929,
					1
				],
				"metallicFactor":0,
				"roughnessFactor":0.9691779017448425
			}
		},
		{
			"doubleSided":true,
			"extensions":{
				"KHR_materials_specular":{
					"specularColorFactor":[
						0.04800000041723251,
						0.04800000041723251,
						0.04800000041723251
					]
				},
				"KHR_materials_ior":{
					"ior":0
				}
			},
			"name":"Brick4_u2NWBuild1_1",
			"pbrMetallicRoughness":{
				"baseColorTexture":{
					"index":5
				},
				"metallicFactor":0,
				"roughnessFactor":0.9691779017448425
			}
		},
		{
			"doubleSided":true,
			"extensions":{
				"KHR_materials_specular":{
					"specularColorFactor":[
						0.04800000041723251,
						0.04800000041723251,
						0.04800000041723251
					]
				},
				"KHR_materials_ior":{
					"ior":0
				}
			},
			"name":"Props2_u2NWBuild1_1",
			"pbrMetallicRoughness":{
				"baseColorTexture":{
					"index":6
				},
				"metallicFactor":0,
				"roughnessFactor":0.9685357213020325
			}
		},
		{
			"doubleSided":true,
			"extensions":{
				"KHR_materials_specular":{
					"specularColorFactor":[
						0.04800000041723251,
						0.04800000041723251,
						0.04800000041723251
					]
				},
				"KHR_materials_ior":{
					"ior":0
				}
			},
			"name":"Doors_u2NWBuild1_1",
			"pbrMetallicRoughness":{
				"baseColorTexture":{
					"index":7
				},
				"metallicFactor":0,
				"roughnessFactor":0.9691779017448425
			}
		},
		{
			"doubleSided":true,
			"extensions":{
				"KHR_materials_specular":{
					"specularColorFactor":[
						0.04800000041723251,
						0.04800000041723251,
						0.04800000041723251
					]
				},
				"KHR_materials_ior":{
					"ior":0
				}
			},
			"name":"MetalGalvanized_u2NWBuild1_1",
			"pbrMetallicRoughness":{
				"baseColorTexture":{
					"index":8
				},
				"metallicFactor":0,
				"roughnessFactor":0.9687750339508057
			}
		}
	],
	"meshes":[
		{
			"name":"Urban Sprawl 2.016",
			"primitives":[
				{
					"attributes":{
						"POSITION":0,
						"NORMAL":1,
						"TEXCOORD_0":2
					},
					"indices":3,
					"material":0
				},
				{
					"attributes":{
						"POSITION":4,
						"NORMAL":5,
						"TEXCOORD_0":6
					},
					"indices":7,
					"material":1
				},
				{
					"attributes":{
						"POSITION":8,
						"NORMAL":9,
						"TEXCOORD_0":10
					},
					"indices":11,
					"material":2
				},
				{
					"attributes":{
						"POSITION":12,
						"NORMAL":13,
						"TEXCOORD_0":14
					},
					"indices":15,
					"material":3
				},
				{
					"attributes":{
						"POSITION":16,
						"NORMAL":17,
						"TEXCOORD_0":18
					},
					"indices":19,
					"material":4
				},
				{
					"attributes":{
						"POSITION":20,
						"NORMAL":21,
						"TEXCOORD_0":22
					},
					"indices":23,
					"material":5
				},
				{
					"attributes":{
						"POSITION":24,
						"NORMAL":25,
						"TEXCOORD_0":26
					},
					"indices":27,
					"material":6
				},
				{
					"attributes":{
						"POSITION":28,
						"NORMAL":29,
						"TEXCOORD_0":30
					},
					"indices":31,
					"material":7
				},
				{
					"attributes":{
						"POSITION":32,
						"NORMAL":33,
						"TEXCOORD_0":34
					},
					"indices":35,
					"material":8
				},
				{
					"attributes":{
						"POSITION":36,
						"NORMAL":37,
						"TEXCOORD_0":38
					},
					"indices":39,
					"material":9
				}
			]
		}
	],
	"textures":[
		{
			"sampler":0,
			"source":0
		},
		{
			"sampler":0,
			"source":1
		},
		{
			"sampler":0,
			"source":2
		},
		{
			"sampler":0,
			"source":1
		},
		{
			"sampler":0,
			"source":3
		},
		{
			"sampler":0,
			"source":4
		},
		{
			"sampler":0,
			"source":5
		},
		{
			"sampler":0,
			"source":6
		},
		{
			"sampler":0,
			"source":7
		}
	],
	"images":[
		{
			"mimeType":"image/jpeg",
			"name":"u2props1",
			"uri":"u2props1.jpg"
		},
		{
			"mimeType":"image/jpeg",
			"name":"u2crete2",
			"uri":"u2crete2.jpg"
		},
		{
			"mimeType":"image/jpeg",
			"name":"u2metdark",
			"uri":"u2metdark.jpg"
		},
		{
			"mimeType":"image/jpeg",
			"name":"u2props4",
			"uri":"u2props4.jpg"
		},
		{
			"mimeType":"image/jpeg",
			"name":"u2brick4",
			"uri":"u2brick4.jpg"
		},
		{
			"mimeType":"image/jpeg",
			"name":"u2props2",
			"uri":"u2props2.jpg"
		},
		{
			"mimeType":"image/jpeg",
			"name":"u2doors1",
			"uri":"u2doors1.jpg"
		},
		{
			"mimeType":"image/jpeg",
			"name":"u2metal1",
			"uri":"u2metal1.jpg"
		}
	],
	"accessors":[
		{
			"bufferView":0,
			"componentType":5126,
			"count":511,
			"max":[
				-41.671600341796875,
				-15.8193998336792,
				-1.6693999767303467
			],
			"min":[
				-47.95709991455078,
				-38.59450149536133,
				-17.334400177001953
			],
			"type":"VEC3"
		},
		{
			"bufferView":1,
			"componentType":5126,
			"count":511,
			"type":"VEC3"
		},
		{
			"bufferView":2,
			"componentType":5126,
			"count":511,
			"type":"VEC2"
		},
		{
			"bufferView":3,
			"componentType":5123,
			"count":828,
			"type":"SCALAR"
		},
		{
			"bufferView":4,
			"componentType":5126,
			"count":1507,
			"max":[
				-41.44110107421875,
				-15.809499740600586,
				-1.988450050354004
			],
			"min":[
				-47.85499954223633,
				-38.61029815673828,
				-16.141799926757812
			],
			"type":"VEC3"
		},
		{
			"bufferView":5,
			"componentType":5126,
			"count":1507,
			"type":"VEC3"
		},
		{
			"bufferView":6,
			"componentType":5126,
			"count":1507,
			"type":"VEC2"
		},
		{
			"bufferView":7,
			"componentType":5123,
			"count":2340,
			"type":"SCALAR"
		},
		{
			"bufferView":8,
			"componentType":5126,
			"count":68,
			"max":[
				-44.020599365234375,
				-18.65959930419922,
				-15.936200141906738
			],
			"min":[
				-46.39630126953125,
				-23.168699264526367,
				-16.494800567626953
			],
			"type":"VEC3"
		},
		{
			"bufferView":9,
			"componentType":5126,
			"count":68,
			"type":"VEC3"
		},
		{
			"bufferView":10,
			"componentType":5126,
			"count":68,
			"type":"VEC2"
		},
		{
			"bufferView":11,
			"componentType":5123,
			"count":120,
			"type":"SCALAR"
		},
		{
			"bufferView":12,
			"componentType":5126,
			"count":20,
			"max":[
				-44.08570098876953,
				-18.724700927734375,
				-16.494800567626953
			],
			"min":[
				-46.33110046386719,
				-23.103599548339844,
				-16.5762996673584
			],
			"type":"VEC3"
		},
		{
			"bufferView":13,
			"componentType":5126,
			"count":20,
			"type":"VEC3"
		},
		{
			"bufferView":14,
			"componentType":5126,
			"count":20,
			"type":"VEC2"
		},
		{
			"bufferView":15,
			"componentType":5123,
			"count":30,
			"type":"SCALAR"
		},
		{
			"bufferView":16,
			"componentType":5126,
			"count":434,
			"max":[
				-39.85770034790039,
				-19.04400062561035,
				-15.212699890136719
			],
			"min":[
				-40.23680114746094,
				-31.93670082092285,
				-15.410900115966797
			],
			"type":"VEC3"
		},
		{
			"bufferView":17,
			"componentType":5126,
			"count":434,
			"type":"VEC3"
		},
		{
			"bufferView":18,
			"componentType":5126,
			"count":434,
			"type":"VEC2"
		},
		{
			"bufferView":19,
			"componentType":5123,
			"count":828,
			"type":"SCALAR"
		},
		{
			"bufferView":20,
			"componentType":5126,
			"count":68,
			"max":[
				-41.68040084838867,
				-23.647199630737305,
				-16.18630027770996
			],
			"min":[
				-42.4833984375,
				-38.29199981689453,
				-17.360200881958008
			],
			"type":"VEC3"
		},
		{
			"bufferView":21,
			"componentType":5126,
			"count":68,
			"type":"VEC3"
		},
		{
			"bufferView":22,
			"componentType":5126,
			"count":68,
			"type":"VEC2"
		},
		{
			"bufferView":23,
			"componentType":5123,
			"count":117,
			"type":"SCALAR"
		},
		{
			"bufferView":24,
			"componentType":5126,
			"count":204,
			"max":[
				-38.840301513671875,
				-15.401900291442871,
				-0.8265699744224548
			],
			"min":[
				-48.00699996948242,
				-17.477800369262695,
				-1.4948999881744385
			],
			"type":"VEC3"
		},
		{
			"bufferView":25,
			"componentType":5126,
			"count":204,
			"type":"VEC3"
		},
		{
			"bufferView":26,
			"componentType":5126,
			"count":204,
			"type":"VEC2"
		},
		{
			"bufferView":27,
			"componentType":5123,
			"count":312,
			"type":"SCALAR"
		},
		{
			"bufferView":28,
			"componentType":5126,
			"count":150,
			"max":[
				-46.38990020751953,
				-19.715299606323242,
				-16.246599197387695
			],
			"min":[
				-46.427398681640625,
				-22.75659942626953,
				-16.378400802612305
			],
			"type":"VEC3"
		},
		{
			"bufferView":29,
			"componentType":5126,
			"count":150,
			"type":"VEC3"
		},
		{
			"bufferView":30,
			"componentType":5126,
			"count":150,
			"type":"VEC2"
		},
		{
			"bufferView":31,
			"componentType":5123,
			"count":234,
			"type":"SCALAR"
		},
		{
			"bufferView":32,
			"componentType":5126,
			"count":28,
			"max":[
				-44.06420135498047,
				-18.84749984741211,
				-15.320199966430664
			],
			"min":[
				-46.35969924926758,
				-22.117000579833984,
				-15.877900123596191
			],
			"type":"VEC3"
		},
		{
			"bufferView":33,
			"componentType":5126,
			"count":28,
			"type":"VEC3"
		},
		{
			"bufferView":34,
			"componentType":5126,
			"count":28,
			"type":"VEC2"
		},
		{
			"bufferView":35,
			"componentType":5123,
			"count":36,
			"type":"SCALAR"
		},
		{
			"bufferView":36,
			"componentType":5126,
			"count":267,
			"max":[
				-44.060001373291016,
				-18.814899444580078,
				-15.287500381469727
			],
			"min":[
				-46.36389923095703,
				-22.149599075317383,
				-15.910499572753906
			],
			"type":"VEC3"
		},
		{
			"bufferView":37,
			"componentType":5126,
			"count":267,
			"type":"VEC3"
		},
		{
			"bufferView":38,
			"componentType":5126,
			"count":267,
			"type":"VEC2"
		},
		{
			"bufferView":39,
			"componentType":5123,
			"count":396,
			"type":"SCALAR"
		}
	],
	"bufferViews":[
		{
			"buffer":0,
			"byteLength":6132,
			"byteOffset":0,
			"target":34962
		},
		{
			"buffer":0,
			"byteLength":6132,
			"byteOffset":6132,
			"target":34962
		},
		{
			"buffer":0,
			"byteLength":4088,
			"byteOffset":12264,
			"target":34962
		},
		{
			"buffer":0,
			"byteLength":1656,
			"byteOffset":16352,
			"target":34963
		},
		{
			"buffer":0,
			"byteLength":18084,
			"byteOffset":18008,
			"target":34962
		},
		{
			"buffer":0,
			"byteLength":18084,
			"byteOffset":36092,
			"target":34962
		},
		{
			"buffer":0,
			"byteLength":12056,
			"byteOffset":54176,
			"target":34962
		},
		{
			"buffer":0,
			"byteLength":4680,
			"byteOffset":66232,
			"target":34963
		},
		{
			"buffer":0,
			"byteLength":816,
			"byteOffset":70912,
			"target":34962
		},
		{
			"buffer":0,
			"byteLength":816,
			"byteOffset":71728,
			"target":34962
		},
		{
			"buffer":0,
			"byteLength":544,
			"byteOffset":72544,
			"target":34962
		},
		{
			"buffer":0,
			"byteLength":240,
			"byteOffset":73088,
			"target":34963
		},
		{
			"buffer":0,
			"byteLength":240,
			"byteOffset":73328,
			"target":34962
		},
		{
			"buffer":0,
			"byteLength":240,
			"byteOffset":73568,
			"target":34962
		},
		{
			"buffer":0,
			"byteLength":160,
			"byteOffset":73808,
			"target":34962
		},
		{
			"buffer":0,
			"byteLength":60,
			"byteOffset":73968,
			"target":34963
		},
		{
			"buffer":0,
			"byteLength":5208,
			"byteOffset":74028,
			"target":34962
		},
		{
			"buffer":0,
			"byteLength":5208,
			"byteOffset":79236,
			"target":34962
		},
		{
			"buffer":0,
			"byteLength":3472,
			"byteOffset":84444,
			"target":34962
		},
		{
			"buffer":0,
			"byteLength":1656,
			"byteOffset":87916,
			"target":34963
		},
		{
			"buffer":0,
			"byteLength":816,
			"byteOffset":89572,
			"target":34962
		},
		{
			"buffer":0,
			"byteLength":816,
			"byteOffset":90388,
			"target":34962
		},
		{
			"buffer":0,
			"byteLength":544,
			"byteOffset":91204,
			"target":34962
		},
		{
			"buffer":0,
			"byteLength":234,
			"byteOffset":91748,
			"target":34963
		},
		{
			"buffer":0,
			"byteLength":2448,
			"byteOffset":91984,
			"target":34962
		},
		{
			"buffer":0,
			"byteLength":2448,
			"byteOffset":94432,
			"target":34962
		},
		{
			"buffer":0,
			"byteLength":1632,
			"byteOffset":96880,
			"target":34962
		},
		{
			"buffer":0,
			"byteLength":624,
			"byteOffset":98512,
			"target":34963
		},
		{
			"buffer":0,
			"byteLength":1800,
			"byteOffset":99136,
			"target":34962
		},
		{
			"buffer":0,
			"byteLength":1800,
			"byteOffset":100936,
			"target":34962
		},
		{
			"buffer":0,
			"byteLength":1200,
			"byteOffset":102736,
			"target":34962
		},
		{
			"buffer":0,
			"byteLength":468,
			"byteOffset":103936,
			"target":34963
		},
		{
			"buffer":0,
			"byteLength":336,
			"byteOffset":104404,
			"target":34962
		},
		{
			"buffer":0,
			"byteLength":336,
			"byteOffset":104740,
			"target":34962
		},
		{
			"buffer":0,
			"byteLength":224,
			"byteOffset":105076,
			"target":34962
		},
		{
			"buffer":0,
			"byteLength":72,
			"byteOffset":105300,
			"target":34963
		},
		{
			"buffer":0,
			"byteLength":3204,
			"byteOffset":105372,
			"target":34962
		},
		{
			"buffer":0,
			"byteLength":3204,
			"byteOffset":108576,
			"target":34962
		},
		{
			"buffer":0,
			"byteLength":2136,
			"byteOffset":111780,
			"target":34962
		},
		{
			"buffer":0,
			"byteLength":792,
			"byteOffset":113916,
			"target":34963
		}
	],
	"samplers":[
		{
			"magFilter":9729,
			"minFilter":9987
		}
	],
	"buffers":[
		{
			"byteLength":114708,
			"uri":"u2NWBuild1.bin"
		}
	]
}
