{
	"asset":{
		"generator":"Khronos glTF Blender I/O v5.0.21",
		"version":"2.0"
	},
	"extensionsUsed":[
		"KHR_materials_specular",
		"KHR_materials_ior"
	],
	"scene":0,
	"scenes":[
		{
			"name":"Scene",
			"nodes":[
				0
			]
		}
	],
	"nodes":[
		{
			"mesh":0,
			"name":"u2SEBuild6",
			"rotation":[
				0.70710688829422,
				0,
				0,
				0.7071066498756409
			]
		}
	],
	"materials":[
		{
			"doubleSided":true,
			"extensions":{
				"KHR_materials_specular":{
					"specularColorFactor":[
						0.04800000041723251,
						0.04800000041723251,
						0.04800000041723251
					]
				},
				"KHR_materials_ior":{
					"ior":0
				}
			},
			"name":"Building9_u2SEBuild6_1",
			"pbrMetallicRoughness":{
				"baseColorTexture":{
					"index":0
				},
				"metallicFactor":0,
				"roughnessFactor":0.9691779017448425
			}
		},
		{
			"doubleSided":true,
			"extensions":{
				"KHR_materials_specular":{
					"specularColorFactor":[
						0.04800000041723251,
						0.04800000041723251,
						0.04800000041723251
					]
				},
				"KHR_materials_ior":{
					"ior":0
				}
			},
			"name":"Concrete_u2SEBuild6_1",
			"pbrMetallicRoughness":{
				"baseColorTexture":{
					"index":1
				},
				"metallicFactor":0,
				"roughnessFactor":0.9687750339508057
			}
		},
		{
			"doubleSided":true,
			"extensions":{
				"KHR_materials_specular":{
					"specularColorFactor":[
						0.04800000041723251,
						0.04800000041723251,
						0.04800000041723251
					]
				},
				"KHR_materials_ior":{
					"ior":0
				}
			},
			"name":"WindowsD_u2SEBuild6_1",
			"pbrMetallicRoughness":{
				"baseColorTexture":{
					"index":2
				},
				"metallicFactor":0,
				"roughnessFactor":0.9691779017448425
			}
		},
		{
			"doubleSided":true,
			"extensions":{
				"KHR_materials_specular":{
					"specularColorFactor":[
						0.04800000041723251,
						0.04800000041723251,
						0.04800000041723251
					]
				},
				"KHR_materials_ior":{
					"ior":0
				}
			},
			"name":"MetalDark_u2SEBuild6_1",
			"pbrMetallicRoughness":{
				"baseColorTexture":{
					"index":3
				},
				"metallicFactor":0,
				"roughnessFactor":0.9700000286102295
			}
		}
	],
	"meshes":[
		{
			"name":"Urban Sprawl 2.033",
			"primitives":[
				{
					"attributes":{
						"POSITION":0,
						"NORMAL":1,
						"TEXCOORD_0":2
					},
					"indices":3,
					"material":0
				},
				{
					"attributes":{
						"POSITION":4,
						"NORMAL":5,
						"TEXCOORD_0":6
					},
					"indices":7,
					"material":1
				},
				{
					"attributes":{
						"POSITION":8,
						"NORMAL":9,
						"TEXCOORD_0":10
					},
					"indices":11,
					"material":2
				},
				{
					"attributes":{
						"POSITION":12,
						"NORMAL":13,
						"TEXCOORD_0":14
					},
					"indices":15,
					"material":3
				}
			]
		}
	],
	"textures":[
		{
			"sampler":0,
			"source":0
		},
		{
			"sampler":0,
			"source":1
		},
		{
			"sampler":0,
			"source":0
		},
		{
			"sampler":0,
			"source":2
		}
	],
	"images":[
		{
			"mimeType":"image/jpeg",
			"name":"u2NWBuild12",
			"uri":"u2NWBuild12.jpg"
		},
		{
			"mimeType":"image/jpeg",
			"name":"u2crete2",
			"uri":"u2crete2.jpg"
		},
		{
			"mimeType":"image/jpeg",
			"name":"u2metdark",
			"uri":"u2metdark.jpg"
		}
	],
	"accessors":[
		{
			"bufferView":0,
			"componentType":5126,
			"count":1474,
			"max":[
				57.083099365234375,
				54.547698974609375,
				-0.2093600034713745
			],
			"min":[
				33.28070068359375,
				47.969200134277344,
				-11.446999549865723
			],
			"type":"VEC3"
		},
		{
			"bufferView":1,
			"componentType":5126,
			"count":1474,
			"type":"VEC3"
		},
		{
			"bufferView":2,
			"componentType":5126,
			"count":1474,
			"type":"VEC2"
		},
		{
			"bufferView":3,
			"componentType":5123,
			"count":2634,
			"type":"SCALAR"
		},
		{
			"bufferView":4,
			"componentType":5126,
			"count":361,
			"max":[
				57.16189956665039,
				54.640499114990234,
				-0.09243030101060867
			],
			"min":[
				33.12699890136719,
				48.307098388671875,
				-10.888500213623047
			],
			"type":"VEC3"
		},
		{
			"bufferView":5,
			"componentType":5126,
			"count":361,
			"type":"VEC3"
		},
		{
			"bufferView":6,
			"componentType":5126,
			"count":361,
			"type":"VEC2"
		},
		{
			"bufferView":7,
			"componentType":5123,
			"count":537,
			"type":"SCALAR"
		},
		{
			"bufferView":8,
			"componentType":5126,
			"count":42,
			"max":[
				56.832000732421875,
				54.53960037231445,
				-1.1318199634552002
			],
			"min":[
				33.53120040893555,
				48.223201751708984,
				-10.283900260925293
			],
			"type":"VEC3"
		},
		{
			"bufferView":9,
			"componentType":5126,
			"count":42,
			"type":"VEC3"
		},
		{
			"bufferView":10,
			"componentType":5126,
			"count":42,
			"type":"VEC2"
		},
		{
			"bufferView":11,
			"componentType":5123,
			"count":72,
			"type":"SCALAR"
		},
		{
			"bufferView":12,
			"componentType":5126,
			"count":20,
			"max":[
				53.31930160522461,
				53.278099060058594,
				-11.446999549865723
			],
			"min":[
				48.936500549316406,
				51.02479934692383,
				-11.528499603271484
			],
			"type":"VEC3"
		},
		{
			"bufferView":13,
			"componentType":5126,
			"count":20,
			"type":"VEC3"
		},
		{
			"bufferView":14,
			"componentType":5126,
			"count":20,
			"type":"VEC2"
		},
		{
			"bufferView":15,
			"componentType":5123,
			"count":30,
			"type":"SCALAR"
		}
	],
	"bufferViews":[
		{
			"buffer":0,
			"byteLength":17688,
			"byteOffset":0,
			"target":34962
		},
		{
			"buffer":0,
			"byteLength":17688,
			"byteOffset":17688,
			"target":34962
		},
		{
			"buffer":0,
			"byteLength":11792,
			"byteOffset":35376,
			"target":34962
		},
		{
			"buffer":0,
			"byteLength":5268,
			"byteOffset":47168,
			"target":34963
		},
		{
			"buffer":0,
			"byteLength":4332,
			"byteOffset":52436,
			"target":34962
		},
		{
			"buffer":0,
			"byteLength":4332,
			"byteOffset":56768,
			"target":34962
		},
		{
			"buffer":0,
			"byteLength":2888,
			"byteOffset":61100,
			"target":34962
		},
		{
			"buffer":0,
			"byteLength":1074,
			"byteOffset":63988,
			"target":34963
		},
		{
			"buffer":0,
			"byteLength":504,
			"byteOffset":65064,
			"target":34962
		},
		{
			"buffer":0,
			"byteLength":504,
			"byteOffset":65568,
			"target":34962
		},
		{
			"buffer":0,
			"byteLength":336,
			"byteOffset":66072,
			"target":34962
		},
		{
			"buffer":0,
			"byteLength":144,
			"byteOffset":66408,
			"target":34963
		},
		{
			"buffer":0,
			"byteLength":240,
			"byteOffset":66552,
			"target":34962
		},
		{
			"buffer":0,
			"byteLength":240,
			"byteOffset":66792,
			"target":34962
		},
		{
			"buffer":0,
			"byteLength":160,
			"byteOffset":67032,
			"target":34962
		},
		{
			"buffer":0,
			"byteLength":60,
			"byteOffset":67192,
			"target":34963
		}
	],
	"samplers":[
		{
			"magFilter":9729,
			"minFilter":9987
		}
	],
	"buffers":[
		{
			"byteLength":67252,
			"uri":"u2SEBuild6.bin"
		}
	]
}
