{
	"asset":{
		"generator":"Khronos glTF Blender I/O v5.0.21",
		"version":"2.0"
	},
	"extensionsUsed":[
		"KHR_materials_specular",
		"KHR_materials_ior"
	],
	"scene":0,
	"scenes":[
		{
			"name":"Scene",
			"nodes":[
				0
			]
		}
	],
	"nodes":[
		{
			"mesh":0,
			"name":"u2SEBuild4",
			"rotation":[
				0.70710688829422,
				0,
				0,
				0.7071066498756409
			]
		}
	],
	"materials":[
		{
			"doubleSided":true,
			"extensions":{
				"KHR_materials_specular":{
					"specularColorFactor":[
						0.04800000041723251,
						0.04800000041723251,
						0.04800000041723251
					]
				},
				"KHR_materials_ior":{
					"ior":0
				}
			},
			"name":"Facade_u2SEBuild4_1",
			"pbrMetallicRoughness":{
				"baseColorTexture":{
					"index":0
				},
				"metallicFactor":0,
				"roughnessFactor":0.9691779017448425
			}
		},
		{
			"doubleSided":true,
			"extensions":{
				"KHR_materials_specular":{
					"specularColorFactor":[
						0.04800000041723251,
						0.04800000041723251,
						0.04800000041723251
					]
				},
				"KHR_materials_ior":{
					"ior":0
				}
			},
			"name":"Concrete_u2SEBuild4_1",
			"pbrMetallicRoughness":{
				"baseColorTexture":{
					"index":1
				},
				"metallicFactor":0,
				"roughnessFactor":0.9687750339508057
			}
		},
		{
			"doubleSided":true,
			"extensions":{
				"KHR_materials_specular":{
					"specularColorFactor":[
						0.04800000041723251,
						0.04800000041723251,
						0.04800000041723251
					]
				},
				"KHR_materials_ior":{
					"ior":0
				}
			},
			"name":"u2WBuild5WindowsB_u2SEBuild4_1",
			"pbrMetallicRoughness":{
				"baseColorTexture":{
					"index":2
				},
				"metallicFactor":0,
				"roughnessFactor":0.9700000286102295
			}
		},
		{
			"doubleSided":true,
			"extensions":{
				"KHR_materials_specular":{
					"specularColorFactor":[
						0.04800000041723251,
						0.04800000041723251,
						0.04800000041723251
					]
				},
				"KHR_materials_ior":{
					"ior":0
				}
			},
			"name":"u2WBuild5Windows2_u2SEBuild4_1",
			"pbrMetallicRoughness":{
				"baseColorTexture":{
					"index":3
				},
				"metallicFactor":0,
				"roughnessFactor":0.9700000286102295
			}
		},
		{
			"doubleSided":true,
			"extensions":{
				"KHR_materials_specular":{
					"specularColorFactor":[
						0.07790850102901459,
						0.07790850102901459,
						0.07790850102901459
					]
				},
				"KHR_materials_ior":{
					"ior":0
				}
			},
			"name":"WindowGroundlevel1_u2SEBuild4_1",
			"pbrMetallicRoughness":{
				"baseColorFactor":[
					0.9490200281143188,
					0.9568629860877991,
					0.9568629860877991,
					1
				],
				"metallicFactor":0,
				"roughnessFactor":0.9776393175125122
			}
		},
		{
			"doubleSided":true,
			"extensions":{
				"KHR_materials_specular":{
					"specularColorFactor":[
						0.04800000041723251,
						0.04800000041723251,
						0.04800000041723251
					]
				},
				"KHR_materials_ior":{
					"ior":0
				}
			},
			"name":"MetalGalvanized_u2SEBuild4_1",
			"pbrMetallicRoughness":{
				"baseColorTexture":{
					"index":4
				},
				"metallicFactor":0,
				"roughnessFactor":0.9687750339508057
			}
		},
		{
			"doubleSided":true,
			"extensions":{
				"KHR_materials_specular":{
					"specularColorFactor":[
						0.04800000041723251,
						0.04800000041723251,
						0.04800000041723251
					]
				},
				"KHR_materials_ior":{
					"ior":0
				}
			},
			"name":"Props2_u2SEBuild4_1",
			"pbrMetallicRoughness":{
				"baseColorTexture":{
					"index":5
				},
				"metallicFactor":0,
				"roughnessFactor":0.9691779017448425
			}
		},
		{
			"doubleSided":true,
			"extensions":{
				"KHR_materials_specular":{
					"specularColorFactor":[
						0.04800000041723251,
						0.04800000041723251,
						0.04800000041723251
					]
				},
				"KHR_materials_ior":{
					"ior":0
				}
			},
			"name":"Props1_u2SEBuild4_1",
			"pbrMetallicRoughness":{
				"baseColorTexture":{
					"index":6
				},
				"metallicFactor":0,
				"roughnessFactor":0.9685357213020325
			}
		},
		{
			"doubleSided":true,
			"extensions":{
				"KHR_materials_specular":{
					"specularColorFactor":[
						0.04800000041723251,
						0.04800000041723251,
						0.04800000041723251
					]
				},
				"KHR_materials_ior":{
					"ior":0
				}
			},
			"name":"Vent1_u2SEBuild4_1",
			"pbrMetallicRoughness":{
				"baseColorTexture":{
					"index":7
				},
				"metallicFactor":0,
				"roughnessFactor":0.9693813920021057
			}
		},
		{
			"doubleSided":true,
			"extensions":{
				"KHR_materials_specular":{
					"specularColorFactor":[
						0.04800000041723251,
						0.04800000041723251,
						0.04800000041723251
					]
				},
				"KHR_materials_ior":{
					"ior":0
				}
			},
			"name":"AirCon3_u2SEBuild4_1",
			"pbrMetallicRoughness":{
				"baseColorTexture":{
					"index":8
				},
				"metallicFactor":0,
				"roughnessFactor":0.9685357213020325
			}
		},
		{
			"doubleSided":true,
			"extensions":{
				"KHR_materials_specular":{
					"specularColorFactor":[
						0.04800000041723251,
						0.04800000041723251,
						0.04800000041723251
					]
				},
				"KHR_materials_ior":{
					"ior":0
				}
			},
			"name":"Grass_u2SEBuild4_1",
			"pbrMetallicRoughness":{
				"baseColorTexture":{
					"index":9
				},
				"metallicFactor":0,
				"roughnessFactor":0.9691779017448425
			}
		},
		{
			"doubleSided":true,
			"extensions":{
				"KHR_materials_specular":{
					"specularColorFactor":[
						0.04800000041723251,
						0.04800000041723251,
						0.04800000041723251
					]
				},
				"KHR_materials_ior":{
					"ior":0
				}
			},
			"name":"Paving2_u2SEBuild4_1",
			"pbrMetallicRoughness":{
				"baseColorTexture":{
					"index":10
				},
				"metallicFactor":0,
				"roughnessFactor":0.9687750339508057
			}
		},
		{
			"doubleSided":true,
			"extensions":{
				"KHR_materials_specular":{
					"specularColorFactor":[
						0.04800000041723251,
						0.04800000041723251,
						0.04800000041723251
					]
				},
				"KHR_materials_ior":{
					"ior":0
				}
			},
			"name":"Brick4_u2SEBuild4_1",
			"pbrMetallicRoughness":{
				"baseColorTexture":{
					"index":11
				},
				"metallicFactor":0,
				"roughnessFactor":0.9691779017448425
			}
		},
		{
			"doubleSided":true,
			"extensions":{
				"KHR_materials_specular":{
					"specularColorFactor":[
						0.04800000041723251,
						0.04800000041723251,
						0.04800000041723251
					]
				},
				"KHR_materials_ior":{
					"ior":0
				}
			},
			"name":"AwningC_u2SEBuild4_1",
			"pbrMetallicRoughness":{
				"baseColorTexture":{
					"index":12
				},
				"metallicFactor":0,
				"roughnessFactor":0.9685357213020325
			}
		},
		{
			"doubleSided":true,
			"extensions":{
				"KHR_materials_specular":{
					"specularColorFactor":[
						0.04800000041723251,
						0.04800000041723251,
						0.04800000041723251
					]
				},
				"KHR_materials_ior":{
					"ior":0
				}
			},
			"name":"RooftopProps_u2SEBuild4_1",
			"pbrMetallicRoughness":{
				"baseColorTexture":{
					"index":13
				},
				"metallicFactor":0,
				"roughnessFactor":0.9685357213020325
			}
		}
	],
	"meshes":[
		{
			"name":"Urban Sprawl 2.031",
			"primitives":[
				{
					"attributes":{
						"POSITION":0,
						"NORMAL":1,
						"TEXCOORD_0":2
					},
					"indices":3,
					"material":0
				},
				{
					"attributes":{
						"POSITION":4,
						"NORMAL":5,
						"TEXCOORD_0":6
					},
					"indices":7,
					"material":1
				},
				{
					"attributes":{
						"POSITION":8,
						"NORMAL":9,
						"TEXCOORD_0":10
					},
					"indices":11,
					"material":2
				},
				{
					"attributes":{
						"POSITION":12,
						"NORMAL":13,
						"TEXCOORD_0":14
					},
					"indices":15,
					"material":3
				},
				{
					"attributes":{
						"POSITION":16,
						"NORMAL":17,
						"TEXCOORD_0":18
					},
					"indices":19,
					"material":4
				},
				{
					"attributes":{
						"POSITION":20,
						"NORMAL":21,
						"TEXCOORD_0":22
					},
					"indices":23,
					"material":5
				},
				{
					"attributes":{
						"POSITION":24,
						"NORMAL":25,
						"TEXCOORD_0":26
					},
					"indices":27,
					"material":6
				},
				{
					"attributes":{
						"POSITION":28,
						"NORMAL":29,
						"TEXCOORD_0":30
					},
					"indices":31,
					"material":7
				},
				{
					"attributes":{
						"POSITION":32,
						"NORMAL":33,
						"TEXCOORD_0":34
					},
					"indices":35,
					"material":8
				},
				{
					"attributes":{
						"POSITION":36,
						"NORMAL":37,
						"TEXCOORD_0":38
					},
					"indices":39,
					"material":9
				},
				{
					"attributes":{
						"POSITION":40,
						"NORMAL":41,
						"TEXCOORD_0":42
					},
					"indices":43,
					"material":10
				},
				{
					"attributes":{
						"POSITION":44,
						"NORMAL":45,
						"TEXCOORD_0":46
					},
					"indices":47,
					"material":11
				},
				{
					"attributes":{
						"POSITION":48,
						"NORMAL":49,
						"TEXCOORD_0":50
					},
					"indices":51,
					"material":12
				},
				{
					"attributes":{
						"POSITION":52,
						"NORMAL":53,
						"TEXCOORD_0":54
					},
					"indices":55,
					"material":13
				},
				{
					"attributes":{
						"POSITION":56,
						"NORMAL":57,
						"TEXCOORD_0":58
					},
					"indices":59,
					"material":14
				}
			]
		}
	],
	"textures":[
		{
			"sampler":0,
			"source":0
		},
		{
			"sampler":0,
			"source":1
		},
		{
			"sampler":0,
			"source":2
		},
		{
			"sampler":0,
			"source":2
		},
		{
			"sampler":0,
			"source":3
		},
		{
			"sampler":0,
			"source":4
		},
		{
			"sampler":0,
			"source":5
		},
		{
			"sampler":0,
			"source":6
		},
		{
			"sampler":0,
			"source":7
		},
		{
			"sampler":0,
			"source":8
		},
		{
			"sampler":0,
			"source":1
		},
		{
			"sampler":0,
			"source":9
		},
		{
			"sampler":0,
			"source":10
		},
		{
			"sampler":0,
			"source":11
		}
	],
	"images":[
		{
			"mimeType":"image/jpeg",
			"name":"u2NWBldg",
			"uri":"u2NWBldg.jpg"
		},
		{
			"mimeType":"image/jpeg",
			"name":"u2crete1",
			"uri":"u2crete1.jpg"
		},
		{
			"mimeType":"image/jpeg",
			"name":"u2swbldg2",
			"uri":"u2swbldg2.jpg"
		},
		{
			"mimeType":"image/jpeg",
			"name":"u2metal1",
			"uri":"u2metal1.jpg"
		},
		{
			"mimeType":"image/jpeg",
			"name":"u2props2",
			"uri":"u2props2.jpg"
		},
		{
			"mimeType":"image/jpeg",
			"name":"u2props1",
			"uri":"u2props1.jpg"
		},
		{
			"mimeType":"image/jpeg",
			"name":"u2vent1",
			"uri":"u2vent1.jpg"
		},
		{
			"mimeType":"image/jpeg",
			"name":"u2acunit1",
			"uri":"u2acunit1.jpg"
		},
		{
			"mimeType":"image/jpeg",
			"name":"u2grass",
			"uri":"u2grass.jpg"
		},
		{
			"mimeType":"image/jpeg",
			"name":"u2brick4",
			"uri":"u2brick4.jpg"
		},
		{
			"mimeType":"image/jpeg",
			"name":"u2awning",
			"uri":"u2awning.jpg"
		},
		{
			"mimeType":"image/jpeg",
			"name":"u2props4",
			"uri":"u2props4.jpg"
		}
	],
	"accessors":[
		{
			"bufferView":0,
			"componentType":5126,
			"count":4215,
			"max":[
				55.03960037231445,
				24.25119972229004,
				-0.25397199392318726
			],
			"min":[
				41.55080032348633,
				10.762399673461914,
				-26.793800354003906
			],
			"type":"VEC3"
		},
		{
			"bufferView":1,
			"componentType":5126,
			"count":4215,
			"type":"VEC3"
		},
		{
			"bufferView":2,
			"componentType":5126,
			"count":4215,
			"type":"VEC2"
		},
		{
			"bufferView":3,
			"componentType":5123,
			"count":7638,
			"type":"SCALAR"
		},
		{
			"bufferView":4,
			"componentType":5126,
			"count":2040,
			"max":[
				56.122100830078125,
				25.46579933166504,
				0.13154800236225128
			],
			"min":[
				39.65510177612305,
				8.1770601272583,
				-26.987300872802734
			],
			"type":"VEC3"
		},
		{
			"bufferView":5,
			"componentType":5126,
			"count":2040,
			"type":"VEC3"
		},
		{
			"bufferView":6,
			"componentType":5126,
			"count":2040,
			"type":"VEC2"
		},
		{
			"bufferView":7,
			"componentType":5123,
			"count":2940,
			"type":"SCALAR"
		},
		{
			"bufferView":8,
			"componentType":5126,
			"count":79,
			"max":[
				51.87879943847656,
				24.101299285888672,
				-4.402040004730225
			],
			"min":[
				41.70069885253906,
				10.912300109863281,
				-26.190799713134766
			],
			"type":"VEC3"
		},
		{
			"bufferView":9,
			"componentType":5126,
			"count":79,
			"type":"VEC3"
		},
		{
			"bufferView":10,
			"componentType":5126,
			"count":79,
			"type":"VEC2"
		},
		{
			"bufferView":11,
			"componentType":5123,
			"count":138,
			"type":"SCALAR"
		},
		{
			"bufferView":12,
			"componentType":5126,
			"count":158,
			"max":[
				54.88970184326172,
				24.101299285888672,
				-4.402040004730225
			],
			"min":[
				41.70069885253906,
				10.912300109863281,
				-26.190799713134766
			],
			"type":"VEC3"
		},
		{
			"bufferView":13,
			"componentType":5126,
			"count":158,
			"type":"VEC3"
		},
		{
			"bufferView":14,
			"componentType":5126,
			"count":158,
			"type":"VEC2"
		},
		{
			"bufferView":15,
			"componentType":5123,
			"count":345,
			"type":"SCALAR"
		},
		{
			"bufferView":16,
			"componentType":5126,
			"count":12,
			"max":[
				50.35969924926758,
				10.911800384521484,
				-0.660897970199585
			],
			"min":[
				46.259300231933594,
				10.911800384521484,
				-1.8830499649047852
			],
			"type":"VEC3"
		},
		{
			"bufferView":17,
			"componentType":5126,
			"count":12,
			"type":"VEC3"
		},
		{
			"bufferView":18,
			"componentType":5126,
			"count":12,
			"type":"VEC2"
		},
		{
			"bufferView":19,
			"componentType":5123,
			"count":24,
			"type":"SCALAR"
		},
		{
			"bufferView":20,
			"componentType":5126,
			"count":510,
			"max":[
				54.330299377441406,
				15.642900466918945,
				-0.20690900087356567
			],
			"min":[
				46.275001525878906,
				10.893099784851074,
				-10.29069995880127
			],
			"type":"VEC3"
		},
		{
			"bufferView":21,
			"componentType":5126,
			"count":510,
			"type":"VEC3"
		},
		{
			"bufferView":22,
			"componentType":5126,
			"count":510,
			"type":"VEC2"
		},
		{
			"bufferView":23,
			"componentType":5123,
			"count":822,
			"type":"SCALAR"
		},
		{
			"bufferView":24,
			"componentType":5126,
			"count":160,
			"max":[
				54.3838005065918,
				15.466400146484375,
				-8.944930076599121
			],
			"min":[
				50.67879867553711,
				11.67959976196289,
				-10.255499839782715
			],
			"type":"VEC3"
		},
		{
			"bufferView":25,
			"componentType":5126,
			"count":160,
			"type":"VEC3"
		},
		{
			"bufferView":26,
			"componentType":5126,
			"count":160,
			"type":"VEC2"
		},
		{
			"bufferView":27,
			"componentType":5123,
			"count":240,
			"type":"SCALAR"
		},
		{
			"bufferView":28,
			"componentType":5126,
			"count":22,
			"max":[
				53.85350036621094,
				12.121399879455566,
				-9.085760116577148
			],
			"min":[
				51.18349838256836,
				12.120400428771973,
				-9.467849731445312
			],
			"type":"VEC3"
		},
		{
			"bufferView":29,
			"componentType":5126,
			"count":22,
			"type":"VEC3"
		},
		{
			"bufferView":30,
			"componentType":5126,
			"count":22,
			"type":"VEC2"
		},
		{
			"bufferView":31,
			"componentType":5123,
			"count":24,
			"type":"SCALAR"
		},
		{
			"bufferView":32,
			"componentType":5126,
			"count":276,
			"max":[
				52.105201721191406,
				12.117600440979004,
				-8.91234016418457
			],
			"min":[
				50.673301696777344,
				11.62440013885498,
				-9.3300199508667
			],
			"type":"VEC3"
		},
		{
			"bufferView":33,
			"componentType":5126,
			"count":276,
			"type":"VEC3"
		},
		{
			"bufferView":34,
			"componentType":5126,
			"count":276,
			"type":"VEC2"
		},
		{
			"bufferView":35,
			"componentType":5123,
			"count":378,
			"type":"SCALAR"
		},
		{
			"bufferView":36,
			"componentType":5126,
			"count":170,
			"max":[
				53.507598876953125,
				12.129500389099121,
				-9.013349533081055
			],
			"min":[
				53.03609848022461,
				12.079500198364258,
				-9.64640998840332
			],
			"type":"VEC3"
		},
		{
			"bufferView":37,
			"componentType":5126,
			"count":170,
			"type":"VEC3"
		},
		{
			"bufferView":38,
			"componentType":5126,
			"count":170,
			"type":"VEC2"
		},
		{
			"bufferView":39,
			"componentType":5123,
			"count":246,
			"type":"SCALAR"
		},
		{
			"bufferView":40,
			"componentType":5126,
			"count":16,
			"max":[
				55.39670181274414,
				9.542059898376465,
				-0.5283259749412537
			],
			"min":[
				41.036399841308594,
				8.890460014343262,
				-0.5283259749412537
			],
			"type":"VEC3"
		},
		{
			"bufferView":41,
			"componentType":5126,
			"count":16,
			"type":"VEC3"
		},
		{
			"bufferView":42,
			"componentType":5126,
			"count":16,
			"type":"VEC2"
		},
		{
			"bufferView":43,
			"componentType":5123,
			"count":24,
			"type":"SCALAR"
		},
		{
			"bufferView":44,
			"componentType":5126,
			"count":4,
			"max":[
				50.39899826049805,
				15.23009967803955,
				-0.5774070024490356
			],
			"min":[
				46.23109817504883,
				9.72661018371582,
				-0.5774070024490356
			],
			"type":"VEC3"
		},
		{
			"bufferView":45,
			"componentType":5126,
			"count":4,
			"type":"VEC3"
		},
		{
			"bufferView":46,
			"componentType":5126,
			"count":4,
			"type":"VEC2"
		},
		{
			"bufferView":47,
			"componentType":5123,
			"count":6,
			"type":"SCALAR"
		},
		{
			"bufferView":48,
			"componentType":5126,
			"count":100,
			"max":[
				50.474300384521484,
				11.127599716186523,
				0.3258500099182129
			],
			"min":[
				46.14979934692383,
				8.241049766540527,
				-0.6589360237121582
			],
			"type":"VEC3"
		},
		{
			"bufferView":49,
			"componentType":5126,
			"count":100,
			"type":"VEC3"
		},
		{
			"bufferView":50,
			"componentType":5126,
			"count":100,
			"type":"VEC2"
		},
		{
			"bufferView":51,
			"componentType":5123,
			"count":168,
			"type":"SCALAR"
		},
		{
			"bufferView":52,
			"componentType":5126,
			"count":993,
			"max":[
				54.74639892578125,
				10.774999618530273,
				-1.603060007095337
			],
			"min":[
				41.852699279785156,
				10.464300155639648,
				-2.2018299102783203
			],
			"type":"VEC3"
		},
		{
			"bufferView":53,
			"componentType":5126,
			"count":993,
			"type":"VEC3"
		},
		{
			"bufferView":54,
			"componentType":5126,
			"count":993,
			"type":"VEC2"
		},
		{
			"bufferView":55,
			"componentType":5123,
			"count":1692,
			"type":"SCALAR"
		},
		{
			"bufferView":56,
			"componentType":5126,
			"count":1639,
			"max":[
				48.84479904174805,
				19.28219985961914,
				-13.384599685668945
			],
			"min":[
				42.75040054321289,
				11.831999778747559,
				-27.3976993560791
			],
			"type":"VEC3"
		},
		{
			"bufferView":57,
			"componentType":5126,
			"count":1639,
			"type":"VEC3"
		},
		{
			"bufferView":58,
			"componentType":5126,
			"count":1639,
			"type":"VEC2"
		},
		{
			"bufferView":59,
			"componentType":5123,
			"count":3504,
			"type":"SCALAR"
		}
	],
	"bufferViews":[
		{
			"buffer":0,
			"byteLength":50580,
			"byteOffset":0,
			"target":34962
		},
		{
			"buffer":0,
			"byteLength":50580,
			"byteOffset":50580,
			"target":34962
		},
		{
			"buffer":0,
			"byteLength":33720,
			"byteOffset":101160,
			"target":34962
		},
		{
			"buffer":0,
			"byteLength":15276,
			"byteOffset":134880,
			"target":34963
		},
		{
			"buffer":0,
			"byteLength":24480,
			"byteOffset":150156,
			"target":34962
		},
		{
			"buffer":0,
			"byteLength":24480,
			"byteOffset":174636,
			"target":34962
		},
		{
			"buffer":0,
			"byteLength":16320,
			"byteOffset":199116,
			"target":34962
		},
		{
			"buffer":0,
			"byteLength":5880,
			"byteOffset":215436,
			"target":34963
		},
		{
			"buffer":0,
			"byteLength":948,
			"byteOffset":221316,
			"target":34962
		},
		{
			"buffer":0,
			"byteLength":948,
			"byteOffset":222264,
			"target":34962
		},
		{
			"buffer":0,
			"byteLength":632,
			"byteOffset":223212,
			"target":34962
		},
		{
			"buffer":0,
			"byteLength":276,
			"byteOffset":223844,
			"target":34963
		},
		{
			"buffer":0,
			"byteLength":1896,
			"byteOffset":224120,
			"target":34962
		},
		{
			"buffer":0,
			"byteLength":1896,
			"byteOffset":226016,
			"target":34962
		},
		{
			"buffer":0,
			"byteLength":1264,
			"byteOffset":227912,
			"target":34962
		},
		{
			"buffer":0,
			"byteLength":690,
			"byteOffset":229176,
			"target":34963
		},
		{
			"buffer":0,
			"byteLength":144,
			"byteOffset":229868,
			"target":34962
		},
		{
			"buffer":0,
			"byteLength":144,
			"byteOffset":230012,
			"target":34962
		},
		{
			"buffer":0,
			"byteLength":96,
			"byteOffset":230156,
			"target":34962
		},
		{
			"buffer":0,
			"byteLength":48,
			"byteOffset":230252,
			"target":34963
		},
		{
			"buffer":0,
			"byteLength":6120,
			"byteOffset":230300,
			"target":34962
		},
		{
			"buffer":0,
			"byteLength":6120,
			"byteOffset":236420,
			"target":34962
		},
		{
			"buffer":0,
			"byteLength":4080,
			"byteOffset":242540,
			"target":34962
		},
		{
			"buffer":0,
			"byteLength":1644,
			"byteOffset":246620,
			"target":34963
		},
		{
			"buffer":0,
			"byteLength":1920,
			"byteOffset":248264,
			"target":34962
		},
		{
			"buffer":0,
			"byteLength":1920,
			"byteOffset":250184,
			"target":34962
		},
		{
			"buffer":0,
			"byteLength":1280,
			"byteOffset":252104,
			"target":34962
		},
		{
			"buffer":0,
			"byteLength":480,
			"byteOffset":253384,
			"target":34963
		},
		{
			"buffer":0,
			"byteLength":264,
			"byteOffset":253864,
			"target":34962
		},
		{
			"buffer":0,
			"byteLength":264,
			"byteOffset":254128,
			"target":34962
		},
		{
			"buffer":0,
			"byteLength":176,
			"byteOffset":254392,
			"target":34962
		},
		{
			"buffer":0,
			"byteLength":48,
			"byteOffset":254568,
			"target":34963
		},
		{
			"buffer":0,
			"byteLength":3312,
			"byteOffset":254616,
			"target":34962
		},
		{
			"buffer":0,
			"byteLength":3312,
			"byteOffset":257928,
			"target":34962
		},
		{
			"buffer":0,
			"byteLength":2208,
			"byteOffset":261240,
			"target":34962
		},
		{
			"buffer":0,
			"byteLength":756,
			"byteOffset":263448,
			"target":34963
		},
		{
			"buffer":0,
			"byteLength":2040,
			"byteOffset":264204,
			"target":34962
		},
		{
			"buffer":0,
			"byteLength":2040,
			"byteOffset":266244,
			"target":34962
		},
		{
			"buffer":0,
			"byteLength":1360,
			"byteOffset":268284,
			"target":34962
		},
		{
			"buffer":0,
			"byteLength":492,
			"byteOffset":269644,
			"target":34963
		},
		{
			"buffer":0,
			"byteLength":192,
			"byteOffset":270136,
			"target":34962
		},
		{
			"buffer":0,
			"byteLength":192,
			"byteOffset":270328,
			"target":34962
		},
		{
			"buffer":0,
			"byteLength":128,
			"byteOffset":270520,
			"target":34962
		},
		{
			"buffer":0,
			"byteLength":48,
			"byteOffset":270648,
			"target":34963
		},
		{
			"buffer":0,
			"byteLength":48,
			"byteOffset":270696,
			"target":34962
		},
		{
			"buffer":0,
			"byteLength":48,
			"byteOffset":270744,
			"target":34962
		},
		{
			"buffer":0,
			"byteLength":32,
			"byteOffset":270792,
			"target":34962
		},
		{
			"buffer":0,
			"byteLength":12,
			"byteOffset":270824,
			"target":34963
		},
		{
			"buffer":0,
			"byteLength":1200,
			"byteOffset":270836,
			"target":34962
		},
		{
			"buffer":0,
			"byteLength":1200,
			"byteOffset":272036,
			"target":34962
		},
		{
			"buffer":0,
			"byteLength":800,
			"byteOffset":273236,
			"target":34962
		},
		{
			"buffer":0,
			"byteLength":336,
			"byteOffset":274036,
			"target":34963
		},
		{
			"buffer":0,
			"byteLength":11916,
			"byteOffset":274372,
			"target":34962
		},
		{
			"buffer":0,
			"byteLength":11916,
			"byteOffset":286288,
			"target":34962
		},
		{
			"buffer":0,
			"byteLength":7944,
			"byteOffset":298204,
			"target":34962
		},
		{
			"buffer":0,
			"byteLength":3384,
			"byteOffset":306148,
			"target":34963
		},
		{
			"buffer":0,
			"byteLength":19668,
			"byteOffset":309532,
			"target":34962
		},
		{
			"buffer":0,
			"byteLength":19668,
			"byteOffset":329200,
			"target":34962
		},
		{
			"buffer":0,
			"byteLength":13112,
			"byteOffset":348868,
			"target":34962
		},
		{
			"buffer":0,
			"byteLength":7008,
			"byteOffset":361980,
			"target":34963
		}
	],
	"samplers":[
		{
			"magFilter":9729,
			"minFilter":9987
		}
	],
	"buffers":[
		{
			"byteLength":368988,
			"uri":"u2SEBuild4.bin"
		}
	]
}
