{
	"asset":{
		"generator":"Khronos glTF Blender I/O v5.0.21",
		"version":"2.0"
	},
	"extensionsUsed":[
		"KHR_materials_specular",
		"KHR_materials_ior"
	],
	"scene":0,
	"scenes":[
		{
			"name":"Scene",
			"nodes":[
				0
			]
		}
	],
	"nodes":[
		{
			"mesh":0,
			"name":"u2SEBuild1",
			"rotation":[
				0.70710688829422,
				0,
				0,
				0.7071066498756409
			]
		}
	],
	"materials":[
		{
			"doubleSided":true,
			"extensions":{
				"KHR_materials_specular":{
					"specularColorFactor":[
						0.04800000041723251,
						0.04800000041723251,
						0.04800000041723251
					]
				},
				"KHR_materials_ior":{
					"ior":0
				}
			},
			"name":"u2SEBuild1",
			"pbrMetallicRoughness":{
				"baseColorTexture":{
					"index":0
				},
				"metallicFactor":0,
				"roughnessFactor":0.9687750339508057
			}
		}
	],
	"meshes":[
		{
			"name":"Urban Sprawl 2.028",
			"primitives":[
				{
					"attributes":{
						"POSITION":0,
						"NORMAL":1,
						"TEXCOORD_0":2
					},
					"indices":3,
					"material":0
				}
			]
		}
	],
	"textures":[
		{
			"sampler":0,
			"source":0
		}
	],
	"images":[
		{
			"mimeType":"image/jpeg",
			"name":"u2sebldg1",
			"uri":"u2sebldg1.jpg"
		}
	],
	"accessors":[
		{
			"bufferView":0,
			"componentType":5126,
			"count":16181,
			"max":[
				15.684700012207031,
				14.862000465393066,
				-0.22072599828243256
			],
			"min":[
				4.735320091247559,
				9.248169898986816,
				-18.058000564575195
			],
			"type":"VEC3"
		},
		{
			"bufferView":1,
			"componentType":5126,
			"count":16181,
			"type":"VEC3"
		},
		{
			"bufferView":2,
			"componentType":5126,
			"count":16181,
			"type":"VEC2"
		},
		{
			"bufferView":3,
			"componentType":5123,
			"count":28461,
			"type":"SCALAR"
		}
	],
	"bufferViews":[
		{
			"buffer":0,
			"byteLength":194172,
			"byteOffset":0,
			"target":34962
		},
		{
			"buffer":0,
			"byteLength":194172,
			"byteOffset":194172,
			"target":34962
		},
		{
			"buffer":0,
			"byteLength":129448,
			"byteOffset":388344,
			"target":34962
		},
		{
			"buffer":0,
			"byteLength":56922,
			"byteOffset":517792,
			"target":34963
		}
	],
	"samplers":[
		{
			"magFilter":9729,
			"minFilter":9987
		}
	],
	"buffers":[
		{
			"byteLength":574716,
			"uri":"u2SEBuild1.bin"
		}
	]
}
