{
	"asset":{
		"generator":"Khronos glTF Blender I/O v5.0.21",
		"version":"2.0"
	},
	"extensionsUsed":[
		"KHR_materials_specular",
		"KHR_materials_ior"
	],
	"scene":0,
	"scenes":[
		{
			"name":"Scene",
			"nodes":[
				0
			]
		}
	],
	"nodes":[
		{
			"mesh":0,
			"name":"u2SEBuild11",
			"rotation":[
				0.70710688829422,
				0,
				0,
				0.7071066498756409
			]
		}
	],
	"materials":[
		{
			"doubleSided":true,
			"extensions":{
				"KHR_materials_specular":{
					"specularColorFactor":[
						0.04800000041723251,
						0.04800000041723251,
						0.04800000041723251
					]
				},
				"KHR_materials_ior":{
					"ior":0
				}
			},
			"name":"Concrete_u2SEBuild11_1",
			"pbrMetallicRoughness":{
				"baseColorTexture":{
					"index":0
				},
				"metallicFactor":0,
				"roughnessFactor":0.9687750339508057
			}
		},
		{
			"doubleSided":true,
			"extensions":{
				"KHR_materials_specular":{
					"specularColorFactor":[
						0.04800000041723251,
						0.04800000041723251,
						0.04800000041723251
					]
				},
				"KHR_materials_ior":{
					"ior":0
				}
			},
			"name":"WindowA_u2SEBuild11_1",
			"pbrMetallicRoughness":{
				"baseColorTexture":{
					"index":1
				},
				"metallicFactor":0,
				"roughnessFactor":0.9691779017448425
			}
		},
		{
			"doubleSided":true,
			"extensions":{
				"KHR_materials_specular":{
					"specularColorFactor":[
						0.04800000041723251,
						0.04800000041723251,
						0.04800000041723251
					]
				},
				"KHR_materials_ior":{
					"ior":0
				}
			},
			"name":"WindowsB_u2SEBuild11_1",
			"pbrMetallicRoughness":{
				"baseColorTexture":{
					"index":2
				},
				"metallicFactor":0,
				"roughnessFactor":0.9691779017448425
			}
		},
		{
			"doubleSided":true,
			"extensions":{
				"KHR_materials_specular":{
					"specularColorFactor":[
						0.04800000041723251,
						0.04800000041723251,
						0.04800000041723251
					]
				},
				"KHR_materials_ior":{
					"ior":0
				}
			},
			"name":"ConcreteBollard_u2SEBuild11_1",
			"pbrMetallicRoughness":{
				"baseColorTexture":{
					"index":3
				},
				"metallicFactor":0,
				"roughnessFactor":0.9687750339508057
			}
		},
		{
			"doubleSided":true,
			"extensions":{
				"KHR_materials_specular":{
					"specularColorFactor":[
						0.04800000041723251,
						0.04800000041723251,
						0.04800000041723251
					]
				},
				"KHR_materials_ior":{
					"ior":0
				}
			},
			"name":"RooftopProps_u2SEBuild11_1",
			"pbrMetallicRoughness":{
				"baseColorTexture":{
					"index":4
				},
				"metallicFactor":0,
				"roughnessFactor":0.9685357213020325
			}
		},
		{
			"doubleSided":true,
			"extensions":{
				"KHR_materials_specular":{
					"specularColorFactor":[
						0.04800000041723251,
						0.04800000041723251,
						0.04800000041723251
					]
				},
				"KHR_materials_ior":{
					"ior":0
				}
			},
			"name":"MetalGalvanized_u2SEBuild11_1",
			"pbrMetallicRoughness":{
				"baseColorTexture":{
					"index":5
				},
				"metallicFactor":0,
				"roughnessFactor":0.9687750339508057
			}
		},
		{
			"doubleSided":true,
			"extensions":{
				"KHR_materials_specular":{
					"specularColorFactor":[
						0.04800000041723251,
						0.04800000041723251,
						0.04800000041723251
					]
				},
				"KHR_materials_ior":{
					"ior":0
				}
			},
			"name":"Doors_u2SEBuild11_1",
			"pbrMetallicRoughness":{
				"baseColorTexture":{
					"index":6
				},
				"metallicFactor":0,
				"roughnessFactor":0.9691779017448425
			}
		},
		{
			"doubleSided":true,
			"extensions":{
				"KHR_materials_specular":{
					"specularColorFactor":[
						0.04800000041723251,
						0.04800000041723251,
						0.04800000041723251
					]
				},
				"KHR_materials_ior":{
					"ior":0
				}
			},
			"name":"AirCon3_u2SEBuild11_1",
			"pbrMetallicRoughness":{
				"baseColorTexture":{
					"index":7
				},
				"metallicFactor":0,
				"roughnessFactor":0.9685357213020325
			}
		},
		{
			"doubleSided":true,
			"extensions":{
				"KHR_materials_specular":{
					"specularColorFactor":[
						0.04800000041723251,
						0.04800000041723251,
						0.04800000041723251
					]
				},
				"KHR_materials_ior":{
					"ior":0
				}
			},
			"name":"YellowPaint_u2SEBuild11_1",
			"pbrMetallicRoughness":{
				"baseColorTexture":{
					"index":8
				},
				"metallicFactor":0,
				"roughnessFactor":0.9693813920021057
			}
		},
		{
			"doubleSided":true,
			"extensions":{
				"KHR_materials_specular":{
					"specularColorFactor":[
						0.04800000041723251,
						0.04800000041723251,
						0.04800000041723251
					]
				},
				"KHR_materials_ior":{
					"ior":0
				}
			},
			"name":"Props1_u2SEBuild11_1",
			"pbrMetallicRoughness":{
				"baseColorTexture":{
					"index":9
				},
				"metallicFactor":0,
				"roughnessFactor":0.9691779017448425
			}
		},
		{
			"doubleSided":true,
			"extensions":{
				"KHR_materials_specular":{
					"specularColorFactor":[
						0.04800000041723251,
						0.04800000041723251,
						0.04800000041723251
					]
				},
				"KHR_materials_ior":{
					"ior":0
				}
			},
			"name":"Props2_u2SEBuild11_1",
			"pbrMetallicRoughness":{
				"baseColorTexture":{
					"index":10
				},
				"metallicFactor":0,
				"roughnessFactor":0.9691779017448425
			}
		},
		{
			"doubleSided":true,
			"extensions":{
				"KHR_materials_specular":{
					"specularColorFactor":[
						0.04800000041723251,
						0.04800000041723251,
						0.04800000041723251
					]
				},
				"KHR_materials_ior":{
					"ior":0
				}
			},
			"name":"Concrete1_u2SEBuild11_1",
			"pbrMetallicRoughness":{
				"baseColorTexture":{
					"index":11
				},
				"metallicFactor":0,
				"roughnessFactor":0.9687750339508057
			}
		}
	],
	"meshes":[
		{
			"name":"Urban Sprawl 2.038",
			"primitives":[
				{
					"attributes":{
						"POSITION":0,
						"NORMAL":1,
						"TEXCOORD_0":2
					},
					"indices":3,
					"material":0
				},
				{
					"attributes":{
						"POSITION":4,
						"NORMAL":5,
						"TEXCOORD_0":6
					},
					"indices":7,
					"material":1
				},
				{
					"attributes":{
						"POSITION":8,
						"NORMAL":9,
						"TEXCOORD_0":10
					},
					"indices":11,
					"material":2
				},
				{
					"attributes":{
						"POSITION":12,
						"NORMAL":13,
						"TEXCOORD_0":14
					},
					"indices":15,
					"material":3
				},
				{
					"attributes":{
						"POSITION":16,
						"NORMAL":17,
						"TEXCOORD_0":18
					},
					"indices":19,
					"material":4
				},
				{
					"attributes":{
						"POSITION":20,
						"NORMAL":21,
						"TEXCOORD_0":22
					},
					"indices":23,
					"material":5
				},
				{
					"attributes":{
						"POSITION":24,
						"NORMAL":25,
						"TEXCOORD_0":26
					},
					"indices":27,
					"material":6
				},
				{
					"attributes":{
						"POSITION":28,
						"NORMAL":29,
						"TEXCOORD_0":30
					},
					"indices":31,
					"material":7
				},
				{
					"attributes":{
						"POSITION":32,
						"NORMAL":33,
						"TEXCOORD_0":34
					},
					"indices":35,
					"material":8
				},
				{
					"attributes":{
						"POSITION":36,
						"NORMAL":37,
						"TEXCOORD_0":38
					},
					"indices":39,
					"material":9
				},
				{
					"attributes":{
						"POSITION":40,
						"NORMAL":41,
						"TEXCOORD_0":42
					},
					"indices":43,
					"material":10
				},
				{
					"attributes":{
						"POSITION":44,
						"NORMAL":45,
						"TEXCOORD_0":46
					},
					"indices":47,
					"material":11
				}
			]
		}
	],
	"textures":[
		{
			"sampler":0,
			"source":0
		},
		{
			"sampler":0,
			"source":1
		},
		{
			"sampler":0,
			"source":1
		},
		{
			"sampler":0,
			"source":2
		},
		{
			"sampler":0,
			"source":3
		},
		{
			"sampler":0,
			"source":4
		},
		{
			"sampler":0,
			"source":5
		},
		{
			"sampler":0,
			"source":6
		},
		{
			"sampler":0,
			"source":7
		},
		{
			"sampler":0,
			"source":8
		},
		{
			"sampler":0,
			"source":9
		},
		{
			"sampler":0,
			"source":10
		}
	],
	"images":[
		{
			"mimeType":"image/jpeg",
			"name":"u2crete2",
			"uri":"u2crete2.jpg"
		},
		{
			"mimeType":"image/jpeg",
			"name":"u2SEBuild11",
			"uri":"u2SEBuild11.jpg"
		},
		{
			"mimeType":"image/jpeg",
			"name":"u2white",
			"uri":"u2white.jpg"
		},
		{
			"mimeType":"image/jpeg",
			"name":"u2props4",
			"uri":"u2props4.jpg"
		},
		{
			"mimeType":"image/jpeg",
			"name":"u2metal1",
			"uri":"u2metal1.jpg"
		},
		{
			"mimeType":"image/jpeg",
			"name":"u2doors1",
			"uri":"u2doors1.jpg"
		},
		{
			"mimeType":"image/jpeg",
			"name":"u2acunit1",
			"uri":"u2acunit1.jpg"
		},
		{
			"mimeType":"image/jpeg",
			"name":"u2yellow",
			"uri":"u2yellow.jpg"
		},
		{
			"mimeType":"image/jpeg",
			"name":"u2props1",
			"uri":"u2props1.jpg"
		},
		{
			"mimeType":"image/jpeg",
			"name":"u2props2",
			"uri":"u2props2.jpg"
		},
		{
			"mimeType":"image/jpeg",
			"name":"u2road1",
			"uri":"u2road1.jpg"
		}
	],
	"accessors":[
		{
			"bufferView":0,
			"componentType":5126,
			"count":111,
			"max":[
				34.1692008972168,
				37.785301208496094,
				-11.437700271606445
			],
			"min":[
				12.703300476074219,
				26.296100616455078,
				-11.968700408935547
			],
			"type":"VEC3"
		},
		{
			"bufferView":1,
			"componentType":5126,
			"count":111,
			"type":"VEC3"
		},
		{
			"bufferView":2,
			"componentType":5126,
			"count":111,
			"type":"VEC2"
		},
		{
			"bufferView":3,
			"componentType":5123,
			"count":204,
			"type":"SCALAR"
		},
		{
			"bufferView":4,
			"componentType":5126,
			"count":28,
			"max":[
				33.681800842285156,
				37.20090103149414,
				-0.5884450078010559
			],
			"min":[
				13.135000228881836,
				26.71339988708496,
				-11.164799690246582
			],
			"type":"VEC3"
		},
		{
			"bufferView":5,
			"componentType":5126,
			"count":28,
			"type":"VEC3"
		},
		{
			"bufferView":6,
			"componentType":5126,
			"count":28,
			"type":"VEC2"
		},
		{
			"bufferView":7,
			"componentType":5123,
			"count":48,
			"type":"SCALAR"
		},
		{
			"bufferView":8,
			"componentType":5126,
			"count":16,
			"max":[
				33.681800842285156,
				37.20090103149414,
				-0.5884450078010559
			],
			"min":[
				13.135000228881836,
				26.71339988708496,
				-11.164799690246582
			],
			"type":"VEC3"
		},
		{
			"bufferView":9,
			"componentType":5126,
			"count":16,
			"type":"VEC3"
		},
		{
			"bufferView":10,
			"componentType":5126,
			"count":16,
			"type":"VEC2"
		},
		{
			"bufferView":11,
			"componentType":5123,
			"count":24,
			"type":"SCALAR"
		},
		{
			"bufferView":12,
			"componentType":5126,
			"count":270,
			"max":[
				25.851499557495117,
				33.61579895019531,
				-11.559800148010254
			],
			"min":[
				23.652299880981445,
				31.78339958190918,
				-13.063300132751465
			],
			"type":"VEC3"
		},
		{
			"bufferView":13,
			"componentType":5126,
			"count":270,
			"type":"VEC3"
		},
		{
			"bufferView":14,
			"componentType":5126,
			"count":270,
			"type":"VEC2"
		},
		{
			"bufferView":15,
			"componentType":5123,
			"count":438,
			"type":"SCALAR"
		},
		{
			"bufferView":16,
			"componentType":5126,
			"count":4094,
			"max":[
				31.661699295043945,
				37.166900634765625,
				-11.558899879455566
			],
			"min":[
				13.901399612426758,
				27.899700164794922,
				-13.30679988861084
			],
			"type":"VEC3"
		},
		{
			"bufferView":17,
			"componentType":5126,
			"count":4094,
			"type":"VEC3"
		},
		{
			"bufferView":18,
			"componentType":5126,
			"count":4094,
			"type":"VEC2"
		},
		{
			"bufferView":19,
			"componentType":5123,
			"count":7842,
			"type":"SCALAR"
		},
		{
			"bufferView":20,
			"componentType":5126,
			"count":78,
			"max":[
				25.347999572753906,
				33.61579895019531,
				-11.55519962310791
			],
			"min":[
				23.652299880981445,
				31.78339958190918,
				-13.063300132751465
			],
			"type":"VEC3"
		},
		{
			"bufferView":21,
			"componentType":5126,
			"count":78,
			"type":"VEC3"
		},
		{
			"bufferView":22,
			"componentType":5126,
			"count":78,
			"type":"VEC2"
		},
		{
			"bufferView":23,
			"componentType":5123,
			"count":108,
			"type":"SCALAR"
		},
		{
			"bufferView":24,
			"componentType":5126,
			"count":4,
			"max":[
				25.305200576782227,
				32.329200744628906,
				-11.792900085449219
			],
			"min":[
				25.303800582885742,
				31.949499130249023,
				-12.607099533081055
			],
			"type":"VEC3"
		},
		{
			"bufferView":25,
			"componentType":5126,
			"count":4,
			"type":"VEC3"
		},
		{
			"bufferView":26,
			"componentType":5126,
			"count":4,
			"type":"VEC2"
		},
		{
			"bufferView":27,
			"componentType":5123,
			"count":6,
			"type":"SCALAR"
		},
		{
			"bufferView":28,
			"componentType":5126,
			"count":1343,
			"max":[
				25.280099868774414,
				33.628299713134766,
				-11.554300308227539
			],
			"min":[
				23.71579933166504,
				30.630599975585938,
				-12.542099952697754
			],
			"type":"VEC3"
		},
		{
			"bufferView":29,
			"componentType":5126,
			"count":1343,
			"type":"VEC3"
		},
		{
			"bufferView":30,
			"componentType":5126,
			"count":1343,
			"type":"VEC2"
		},
		{
			"bufferView":31,
			"componentType":5123,
			"count":2394,
			"type":"SCALAR"
		},
		{
			"bufferView":32,
			"componentType":5126,
			"count":144,
			"max":[
				25.77829933166504,
				32.41569900512695,
				-11.558899879455566
			],
			"min":[
				25.238500595092773,
				31.85460090637207,
				-12.112099647521973
			],
			"type":"VEC3"
		},
		{
			"bufferView":33,
			"componentType":5126,
			"count":144,
			"type":"VEC3"
		},
		{
			"bufferView":34,
			"componentType":5126,
			"count":144,
			"type":"VEC2"
		},
		{
			"bufferView":35,
			"componentType":5123,
			"count":384,
			"type":"SCALAR"
		},
		{
			"bufferView":36,
			"componentType":5126,
			"count":14,
			"max":[
				25.315000534057617,
				33.59230041503906,
				-11.84060001373291
			],
			"min":[
				23.68589973449707,
				32.43519973754883,
				-12.220399856567383
			],
			"type":"VEC3"
		},
		{
			"bufferView":37,
			"componentType":5126,
			"count":14,
			"type":"VEC3"
		},
		{
			"bufferView":38,
			"componentType":5126,
			"count":14,
			"type":"VEC2"
		},
		{
			"bufferView":39,
			"componentType":5123,
			"count":18,
			"type":"SCALAR"
		},
		{
			"bufferView":40,
			"componentType":5126,
			"count":53,
			"max":[
				23.689899444580078,
				32.19990158081055,
				-12.574000358581543
			],
			"min":[
				23.64389991760254,
				31.947599411010742,
				-12.748100280761719
			],
			"type":"VEC3"
		},
		{
			"bufferView":41,
			"componentType":5126,
			"count":53,
			"type":"VEC3"
		},
		{
			"bufferView":42,
			"componentType":5126,
			"count":53,
			"type":"VEC2"
		},
		{
			"bufferView":43,
			"componentType":5123,
			"count":78,
			"type":"SCALAR"
		},
		{
			"bufferView":44,
			"componentType":5126,
			"count":20,
			"max":[
				20.437000274658203,
				37.55500030517578,
				-11.524299621582031
			],
			"min":[
				17.811899185180664,
				26.708999633789062,
				-11.601200103759766
			],
			"type":"VEC3"
		},
		{
			"bufferView":45,
			"componentType":5126,
			"count":20,
			"type":"VEC3"
		},
		{
			"bufferView":46,
			"componentType":5126,
			"count":20,
			"type":"VEC2"
		},
		{
			"bufferView":47,
			"componentType":5123,
			"count":30,
			"type":"SCALAR"
		}
	],
	"bufferViews":[
		{
			"buffer":0,
			"byteLength":1332,
			"byteOffset":0,
			"target":34962
		},
		{
			"buffer":0,
			"byteLength":1332,
			"byteOffset":1332,
			"target":34962
		},
		{
			"buffer":0,
			"byteLength":888,
			"byteOffset":2664,
			"target":34962
		},
		{
			"buffer":0,
			"byteLength":408,
			"byteOffset":3552,
			"target":34963
		},
		{
			"buffer":0,
			"byteLength":336,
			"byteOffset":3960,
			"target":34962
		},
		{
			"buffer":0,
			"byteLength":336,
			"byteOffset":4296,
			"target":34962
		},
		{
			"buffer":0,
			"byteLength":224,
			"byteOffset":4632,
			"target":34962
		},
		{
			"buffer":0,
			"byteLength":96,
			"byteOffset":4856,
			"target":34963
		},
		{
			"buffer":0,
			"byteLength":192,
			"byteOffset":4952,
			"target":34962
		},
		{
			"buffer":0,
			"byteLength":192,
			"byteOffset":5144,
			"target":34962
		},
		{
			"buffer":0,
			"byteLength":128,
			"byteOffset":5336,
			"target":34962
		},
		{
			"buffer":0,
			"byteLength":48,
			"byteOffset":5464,
			"target":34963
		},
		{
			"buffer":0,
			"byteLength":3240,
			"byteOffset":5512,
			"target":34962
		},
		{
			"buffer":0,
			"byteLength":3240,
			"byteOffset":8752,
			"target":34962
		},
		{
			"buffer":0,
			"byteLength":2160,
			"byteOffset":11992,
			"target":34962
		},
		{
			"buffer":0,
			"byteLength":876,
			"byteOffset":14152,
			"target":34963
		},
		{
			"buffer":0,
			"byteLength":49128,
			"byteOffset":15028,
			"target":34962
		},
		{
			"buffer":0,
			"byteLength":49128,
			"byteOffset":64156,
			"target":34962
		},
		{
			"buffer":0,
			"byteLength":32752,
			"byteOffset":113284,
			"target":34962
		},
		{
			"buffer":0,
			"byteLength":15684,
			"byteOffset":146036,
			"target":34963
		},
		{
			"buffer":0,
			"byteLength":936,
			"byteOffset":161720,
			"target":34962
		},
		{
			"buffer":0,
			"byteLength":936,
			"byteOffset":162656,
			"target":34962
		},
		{
			"buffer":0,
			"byteLength":624,
			"byteOffset":163592,
			"target":34962
		},
		{
			"buffer":0,
			"byteLength":216,
			"byteOffset":164216,
			"target":34963
		},
		{
			"buffer":0,
			"byteLength":48,
			"byteOffset":164432,
			"target":34962
		},
		{
			"buffer":0,
			"byteLength":48,
			"byteOffset":164480,
			"target":34962
		},
		{
			"buffer":0,
			"byteLength":32,
			"byteOffset":164528,
			"target":34962
		},
		{
			"buffer":0,
			"byteLength":12,
			"byteOffset":164560,
			"target":34963
		},
		{
			"buffer":0,
			"byteLength":16116,
			"byteOffset":164572,
			"target":34962
		},
		{
			"buffer":0,
			"byteLength":16116,
			"byteOffset":180688,
			"target":34962
		},
		{
			"buffer":0,
			"byteLength":10744,
			"byteOffset":196804,
			"target":34962
		},
		{
			"buffer":0,
			"byteLength":4788,
			"byteOffset":207548,
			"target":34963
		},
		{
			"buffer":0,
			"byteLength":1728,
			"byteOffset":212336,
			"target":34962
		},
		{
			"buffer":0,
			"byteLength":1728,
			"byteOffset":214064,
			"target":34962
		},
		{
			"buffer":0,
			"byteLength":1152,
			"byteOffset":215792,
			"target":34962
		},
		{
			"buffer":0,
			"byteLength":768,
			"byteOffset":216944,
			"target":34963
		},
		{
			"buffer":0,
			"byteLength":168,
			"byteOffset":217712,
			"target":34962
		},
		{
			"buffer":0,
			"byteLength":168,
			"byteOffset":217880,
			"target":34962
		},
		{
			"buffer":0,
			"byteLength":112,
			"byteOffset":218048,
			"target":34962
		},
		{
			"buffer":0,
			"byteLength":36,
			"byteOffset":218160,
			"target":34963
		},
		{
			"buffer":0,
			"byteLength":636,
			"byteOffset":218196,
			"target":34962
		},
		{
			"buffer":0,
			"byteLength":636,
			"byteOffset":218832,
			"target":34962
		},
		{
			"buffer":0,
			"byteLength":424,
			"byteOffset":219468,
			"target":34962
		},
		{
			"buffer":0,
			"byteLength":156,
			"byteOffset":219892,
			"target":34963
		},
		{
			"buffer":0,
			"byteLength":240,
			"byteOffset":220048,
			"target":34962
		},
		{
			"buffer":0,
			"byteLength":240,
			"byteOffset":220288,
			"target":34962
		},
		{
			"buffer":0,
			"byteLength":160,
			"byteOffset":220528,
			"target":34962
		},
		{
			"buffer":0,
			"byteLength":60,
			"byteOffset":220688,
			"target":34963
		}
	],
	"samplers":[
		{
			"magFilter":9729,
			"minFilter":9987
		}
	],
	"buffers":[
		{
			"byteLength":220748,
			"uri":"u2SEBuild11.bin"
		}
	]
}
