{
	"asset":{
		"generator":"Khronos glTF Blender I/O v5.0.21",
		"version":"2.0"
	},
	"extensionsUsed":[
		"KHR_materials_specular",
		"KHR_materials_ior"
	],
	"scene":0,
	"scenes":[
		{
			"name":"Scene",
			"nodes":[
				0
			]
		}
	],
	"nodes":[
		{
			"mesh":0,
			"name":"u2SEBuild7",
			"rotation":[
				0.70710688829422,
				0,
				0,
				0.7071066498756409
			]
		}
	],
	"materials":[
		{
			"doubleSided":true,
			"extensions":{
				"KHR_materials_specular":{
					"specularColorFactor":[
						0.04800000041723251,
						0.04800000041723251,
						0.04800000041723251
					]
				},
				"KHR_materials_ior":{
					"ior":0
				}
			},
			"name":"Concrete_u2SEBuild7_1",
			"pbrMetallicRoughness":{
				"baseColorTexture":{
					"index":0
				},
				"metallicFactor":0,
				"roughnessFactor":0.9687750339508057
			}
		},
		{
			"doubleSided":true,
			"extensions":{
				"KHR_materials_specular":{
					"specularColorFactor":[
						0.04800000041723251,
						0.04800000041723251,
						0.04800000041723251
					]
				},
				"KHR_materials_ior":{
					"ior":0
				}
			},
			"name":"Building11_u2SEBuild7_1",
			"pbrMetallicRoughness":{
				"baseColorTexture":{
					"index":1
				},
				"metallicFactor":0,
				"roughnessFactor":0.9691779017448425
			}
		},
		{
			"doubleSided":true,
			"extensions":{
				"KHR_materials_specular":{
					"specularColorFactor":[
						0.04800000041723251,
						0.04800000041723251,
						0.04800000041723251
					]
				},
				"KHR_materials_ior":{
					"ior":0
				}
			},
			"name":"RooftopProps_u2SEBuild7_1",
			"pbrMetallicRoughness":{
				"baseColorTexture":{
					"index":2
				},
				"metallicFactor":0,
				"roughnessFactor":0.9685357213020325
			}
		}
	],
	"meshes":[
		{
			"name":"Urban Sprawl 2.034",
			"primitives":[
				{
					"attributes":{
						"POSITION":0,
						"NORMAL":1,
						"TEXCOORD_0":2
					},
					"indices":3,
					"material":0
				},
				{
					"attributes":{
						"POSITION":4,
						"NORMAL":5,
						"TEXCOORD_0":6
					},
					"indices":7,
					"material":1
				},
				{
					"attributes":{
						"POSITION":8,
						"NORMAL":9,
						"TEXCOORD_0":10
					},
					"indices":11,
					"material":2
				}
			]
		}
	],
	"textures":[
		{
			"sampler":0,
			"source":0
		},
		{
			"sampler":0,
			"source":1
		},
		{
			"sampler":0,
			"source":2
		}
	],
	"images":[
		{
			"mimeType":"image/jpeg",
			"name":"u2crete2",
			"uri":"u2crete2.jpg"
		},
		{
			"mimeType":"image/jpeg",
			"name":"u2SEBuild11",
			"uri":"u2SEBuild11.jpg"
		},
		{
			"mimeType":"image/jpeg",
			"name":"u2props4",
			"uri":"u2props4.jpg"
		}
	],
	"accessors":[
		{
			"bufferView":0,
			"componentType":5126,
			"count":355,
			"max":[
				33.111698150634766,
				81.75080108642578,
				-5.7054901123046875
			],
			"min":[
				9.760560035705566,
				70.92350006103516,
				-26.69029998779297
			],
			"type":"VEC3"
		},
		{
			"bufferView":1,
			"componentType":5126,
			"count":355,
			"type":"VEC3"
		},
		{
			"bufferView":2,
			"componentType":5126,
			"count":355,
			"type":"VEC2"
		},
		{
			"bufferView":3,
			"componentType":5123,
			"count":576,
			"type":"SCALAR"
		},
		{
			"bufferView":4,
			"componentType":5126,
			"count":3064,
			"max":[
				33.035701751708984,
				81.68399810791016,
				-0.045222699642181396
			],
			"min":[
				9.888680458068848,
				70.99030303955078,
				-26.179800033569336
			],
			"type":"VEC3"
		},
		{
			"bufferView":5,
			"componentType":5126,
			"count":3064,
			"type":"VEC3"
		},
		{
			"bufferView":6,
			"componentType":5126,
			"count":3064,
			"type":"VEC2"
		},
		{
			"bufferView":7,
			"componentType":5123,
			"count":5112,
			"type":"SCALAR"
		},
		{
			"bufferView":8,
			"componentType":5126,
			"count":1284,
			"max":[
				26.704500198364258,
				79.79900360107422,
				-5.82790994644165
			],
			"min":[
				10.659000396728516,
				73.52510070800781,
				-26.61009979248047
			],
			"type":"VEC3"
		},
		{
			"bufferView":9,
			"componentType":5126,
			"count":1284,
			"type":"VEC3"
		},
		{
			"bufferView":10,
			"componentType":5126,
			"count":1284,
			"type":"VEC2"
		},
		{
			"bufferView":11,
			"componentType":5123,
			"count":1656,
			"type":"SCALAR"
		}
	],
	"bufferViews":[
		{
			"buffer":0,
			"byteLength":4260,
			"byteOffset":0,
			"target":34962
		},
		{
			"buffer":0,
			"byteLength":4260,
			"byteOffset":4260,
			"target":34962
		},
		{
			"buffer":0,
			"byteLength":2840,
			"byteOffset":8520,
			"target":34962
		},
		{
			"buffer":0,
			"byteLength":1152,
			"byteOffset":11360,
			"target":34963
		},
		{
			"buffer":0,
			"byteLength":36768,
			"byteOffset":12512,
			"target":34962
		},
		{
			"buffer":0,
			"byteLength":36768,
			"byteOffset":49280,
			"target":34962
		},
		{
			"buffer":0,
			"byteLength":24512,
			"byteOffset":86048,
			"target":34962
		},
		{
			"buffer":0,
			"byteLength":10224,
			"byteOffset":110560,
			"target":34963
		},
		{
			"buffer":0,
			"byteLength":15408,
			"byteOffset":120784,
			"target":34962
		},
		{
			"buffer":0,
			"byteLength":15408,
			"byteOffset":136192,
			"target":34962
		},
		{
			"buffer":0,
			"byteLength":10272,
			"byteOffset":151600,
			"target":34962
		},
		{
			"buffer":0,
			"byteLength":3312,
			"byteOffset":161872,
			"target":34963
		}
	],
	"samplers":[
		{
			"magFilter":9729,
			"minFilter":9987
		}
	],
	"buffers":[
		{
			"byteLength":165184,
			"uri":"u2SEBuild7.bin"
		}
	]
}
