{
	"asset":{
		"generator":"Khronos glTF Blender I/O v5.0.21",
		"version":"2.0"
	},
	"extensionsUsed":[
		"KHR_materials_specular",
		"KHR_materials_ior"
	],
	"scene":0,
	"scenes":[
		{
			"name":"Scene",
			"nodes":[
				0
			]
		}
	],
	"nodes":[
		{
			"mesh":0,
			"name":"u2SWBuild4",
			"rotation":[
				0.70710688829422,
				0,
				0,
				0.7071066498756409
			]
		}
	],
	"materials":[
		{
			"doubleSided":true,
			"extensions":{
				"KHR_materials_specular":{
					"specularColorFactor":[
						0.04800000041723251,
						0.04800000041723251,
						0.04800000041723251
					]
				},
				"KHR_materials_ior":{
					"ior":0
				}
			},
			"name":"u2SWBuild4",
			"pbrMetallicRoughness":{
				"baseColorTexture":{
					"index":0
				},
				"metallicFactor":0,
				"roughnessFactor":0.9691779017448425
			}
		},
		{
			"doubleSided":true,
			"extensions":{
				"KHR_materials_specular":{
					"specularColorFactor":[
						0.04800000041723251,
						0.04800000041723251,
						0.04800000041723251
					]
				},
				"KHR_materials_ior":{
					"ior":0
				}
			},
			"name":"Props1_u2SWBuild4_1",
			"pbrMetallicRoughness":{
				"baseColorTexture":{
					"index":1
				},
				"metallicFactor":0,
				"roughnessFactor":0.9691779017448425
			}
		},
		{
			"doubleSided":true,
			"extensions":{
				"KHR_materials_specular":{
					"specularColorFactor":[
						0.04800000041723251,
						0.04800000041723251,
						0.04800000041723251
					]
				},
				"KHR_materials_ior":{
					"ior":0
				}
			},
			"name":"Concrete_u2SWBuild4_1",
			"pbrMetallicRoughness":{
				"baseColorTexture":{
					"index":2
				},
				"metallicFactor":0,
				"roughnessFactor":0.9687750339508057
			}
		},
		{
			"doubleSided":true,
			"extensions":{
				"KHR_materials_specular":{
					"specularColorFactor":[
						0.04800000041723251,
						0.04800000041723251,
						0.04800000041723251
					]
				},
				"KHR_materials_ior":{
					"ior":0
				}
			},
			"name":"MetalDark_u2SWBuild4_1",
			"pbrMetallicRoughness":{
				"baseColorTexture":{
					"index":3
				},
				"metallicFactor":0,
				"roughnessFactor":0.9700000286102295
			}
		}
	],
	"meshes":[
		{
			"name":"Urban Sprawl 2.043",
			"primitives":[
				{
					"attributes":{
						"POSITION":0,
						"NORMAL":1,
						"TEXCOORD_0":2
					},
					"indices":3,
					"material":0
				},
				{
					"attributes":{
						"POSITION":4,
						"NORMAL":5,
						"TEXCOORD_0":6
					},
					"indices":7,
					"material":1
				},
				{
					"attributes":{
						"POSITION":8,
						"NORMAL":9,
						"TEXCOORD_0":10
					},
					"indices":11,
					"material":2
				},
				{
					"attributes":{
						"POSITION":12,
						"NORMAL":13,
						"TEXCOORD_0":14
					},
					"indices":15,
					"material":3
				}
			]
		}
	],
	"textures":[
		{
			"sampler":0,
			"source":0
		},
		{
			"sampler":0,
			"source":1
		},
		{
			"sampler":0,
			"source":2
		},
		{
			"sampler":0,
			"source":3
		}
	],
	"images":[
		{
			"mimeType":"image/jpeg",
			"name":"u2NWBuild12",
			"uri":"u2NWBuild12.jpg"
		},
		{
			"mimeType":"image/jpeg",
			"name":"u2props1",
			"uri":"u2props1.jpg"
		},
		{
			"mimeType":"image/jpeg",
			"name":"u2crete2",
			"uri":"u2crete2.jpg"
		},
		{
			"mimeType":"image/jpeg",
			"name":"u2metdark",
			"uri":"u2metdark.jpg"
		}
	],
	"accessors":[
		{
			"bufferView":0,
			"componentType":5126,
			"count":1384,
			"max":[
				-12.711999893188477,
				55.347801208496094,
				0.022815100848674774
			],
			"min":[
				-36.50740051269531,
				48.80630111694336,
				-11.214900016784668
			],
			"type":"VEC3"
		},
		{
			"bufferView":1,
			"componentType":5126,
			"count":1384,
			"type":"VEC3"
		},
		{
			"bufferView":2,
			"componentType":5126,
			"count":1384,
			"type":"VEC2"
		},
		{
			"bufferView":3,
			"componentType":5123,
			"count":2634,
			"type":"SCALAR"
		},
		{
			"bufferView":4,
			"componentType":5126,
			"count":111,
			"max":[
				-21.400999069213867,
				55.15449905395508,
				-3.578239917755127
			],
			"min":[
				-36.344600677490234,
				50.1890983581543,
				-12.054499626159668
			],
			"type":"VEC3"
		},
		{
			"bufferView":5,
			"componentType":5126,
			"count":111,
			"type":"VEC3"
		},
		{
			"bufferView":6,
			"componentType":5126,
			"count":111,
			"type":"VEC2"
		},
		{
			"bufferView":7,
			"componentType":5123,
			"count":198,
			"type":"SCALAR"
		},
		{
			"bufferView":8,
			"componentType":5126,
			"count":354,
			"max":[
				-12.626199722290039,
				55.43949890136719,
				0.13974499702453613
			],
			"min":[
				-36.66080093383789,
				51.075801849365234,
				-10.656299591064453
			],
			"type":"VEC3"
		},
		{
			"bufferView":9,
			"componentType":5126,
			"count":354,
			"type":"VEC3"
		},
		{
			"bufferView":10,
			"componentType":5126,
			"count":354,
			"type":"VEC2"
		},
		{
			"bufferView":11,
			"componentType":5123,
			"count":510,
			"type":"SCALAR"
		},
		{
			"bufferView":12,
			"componentType":5126,
			"count":20,
			"max":[
				-16.474899291992188,
				54.08399963378906,
				-11.214900016784668
			],
			"min":[
				-20.853700637817383,
				51.8385009765625,
				-11.296299934387207
			],
			"type":"VEC3"
		},
		{
			"bufferView":13,
			"componentType":5126,
			"count":20,
			"type":"VEC3"
		},
		{
			"bufferView":14,
			"componentType":5126,
			"count":20,
			"type":"VEC2"
		},
		{
			"bufferView":15,
			"componentType":5123,
			"count":30,
			"type":"SCALAR"
		}
	],
	"bufferViews":[
		{
			"buffer":0,
			"byteLength":16608,
			"byteOffset":0,
			"target":34962
		},
		{
			"buffer":0,
			"byteLength":16608,
			"byteOffset":16608,
			"target":34962
		},
		{
			"buffer":0,
			"byteLength":11072,
			"byteOffset":33216,
			"target":34962
		},
		{
			"buffer":0,
			"byteLength":5268,
			"byteOffset":44288,
			"target":34963
		},
		{
			"buffer":0,
			"byteLength":1332,
			"byteOffset":49556,
			"target":34962
		},
		{
			"buffer":0,
			"byteLength":1332,
			"byteOffset":50888,
			"target":34962
		},
		{
			"buffer":0,
			"byteLength":888,
			"byteOffset":52220,
			"target":34962
		},
		{
			"buffer":0,
			"byteLength":396,
			"byteOffset":53108,
			"target":34963
		},
		{
			"buffer":0,
			"byteLength":4248,
			"byteOffset":53504,
			"target":34962
		},
		{
			"buffer":0,
			"byteLength":4248,
			"byteOffset":57752,
			"target":34962
		},
		{
			"buffer":0,
			"byteLength":2832,
			"byteOffset":62000,
			"target":34962
		},
		{
			"buffer":0,
			"byteLength":1020,
			"byteOffset":64832,
			"target":34963
		},
		{
			"buffer":0,
			"byteLength":240,
			"byteOffset":65852,
			"target":34962
		},
		{
			"buffer":0,
			"byteLength":240,
			"byteOffset":66092,
			"target":34962
		},
		{
			"buffer":0,
			"byteLength":160,
			"byteOffset":66332,
			"target":34962
		},
		{
			"buffer":0,
			"byteLength":60,
			"byteOffset":66492,
			"target":34963
		}
	],
	"samplers":[
		{
			"magFilter":9729,
			"minFilter":9987
		}
	],
	"buffers":[
		{
			"byteLength":66552,
			"uri":"u2SWBuild4.bin"
		}
	]
}
