{
	"asset":{
		"generator":"Khronos glTF Blender I/O v5.0.21",
		"version":"2.0"
	},
	"extensionsUsed":[
		"KHR_materials_specular",
		"KHR_materials_ior"
	],
	"scene":0,
	"scenes":[
		{
			"name":"Scene",
			"nodes":[
				0
			]
		}
	],
	"nodes":[
		{
			"mesh":0,
			"name":"u2SWBuild2",
			"rotation":[
				0.70710688829422,
				0,
				0,
				0.7071066498756409
			]
		}
	],
	"materials":[
		{
			"doubleSided":true,
			"extensions":{
				"KHR_materials_specular":{
					"specularColorFactor":[
						0.04800000041723251,
						0.04800000041723251,
						0.04800000041723251
					]
				},
				"KHR_materials_ior":{
					"ior":0
				}
			},
			"name":"BlackMetalPanels_u2SWBuild2_1",
			"pbrMetallicRoughness":{
				"baseColorTexture":{
					"index":0
				},
				"metallicFactor":0,
				"roughnessFactor":0.9691779017448425
			}
		},
		{
			"doubleSided":true,
			"extensions":{
				"KHR_materials_specular":{
					"specularColorFactor":[
						0.04800000041723251,
						0.04800000041723251,
						0.04800000041723251
					]
				},
				"KHR_materials_ior":{
					"ior":0
				}
			},
			"name":"Concrete_u2SWBuild2_1",
			"pbrMetallicRoughness":{
				"baseColorTexture":{
					"index":1
				},
				"metallicFactor":0,
				"roughnessFactor":0.9687750339508057
			}
		},
		{
			"doubleSided":true,
			"extensions":{
				"KHR_materials_specular":{
					"specularColorFactor":[
						0.04800000041723251,
						0.04800000041723251,
						0.04800000041723251
					]
				},
				"KHR_materials_ior":{
					"ior":0
				}
			},
			"name":"RooftopProps_u2SWBuild2_1",
			"pbrMetallicRoughness":{
				"baseColorTexture":{
					"index":2
				},
				"metallicFactor":0,
				"roughnessFactor":0.9685357213020325
			}
		},
		{
			"doubleSided":true,
			"extensions":{
				"KHR_materials_specular":{
					"specularColorFactor":[
						0.04800000041723251,
						0.04800000041723251,
						0.04800000041723251
					]
				},
				"KHR_materials_ior":{
					"ior":0
				}
			},
			"name":"Props1_u2SWBuild2_1",
			"pbrMetallicRoughness":{
				"baseColorTexture":{
					"index":3
				},
				"metallicFactor":0,
				"roughnessFactor":0.9691779017448425
			}
		},
		{
			"doubleSided":true,
			"extensions":{
				"KHR_materials_specular":{
					"specularColorFactor":[
						0.0003137255844194442,
						0.0003137255844194442,
						0.0003137255844194442
					]
				},
				"KHR_materials_ior":{
					"ior":0
				}
			},
			"name":"LEDred_u2SWBuild2_1",
			"pbrMetallicRoughness":{
				"baseColorFactor":[
					0.003921569790691137,
					0.003921569790691137,
					0.003921569790691137,
					1
				],
				"metallicFactor":0,
				"roughnessFactor":0.9691779017448425
			}
		},
		{
			"doubleSided":true,
			"extensions":{
				"KHR_materials_specular":{
					"specularColorFactor":[
						0.04800000041723251,
						0.04800000041723251,
						0.04800000041723251
					]
				},
				"KHR_materials_ior":{
					"ior":0
				}
			},
			"name":"Concrete3_u2SWBuild2_1",
			"pbrMetallicRoughness":{
				"baseColorTexture":{
					"index":4
				},
				"metallicFactor":0,
				"roughnessFactor":0.9687750339508057
			}
		},
		{
			"doubleSided":true,
			"extensions":{
				"KHR_materials_specular":{
					"specularColorFactor":[
						0.04800000041723251,
						0.04800000041723251,
						0.04800000041723251
					]
				},
				"KHR_materials_ior":{
					"ior":0
				}
			},
			"name":"Paving1_u2SWBuild2_1",
			"pbrMetallicRoughness":{
				"baseColorTexture":{
					"index":5
				},
				"metallicFactor":0,
				"roughnessFactor":0.9687750339508057
			}
		},
		{
			"doubleSided":true,
			"extensions":{
				"KHR_materials_specular":{
					"specularColorFactor":[
						0.04800000041723251,
						0.04800000041723251,
						0.04800000041723251
					]
				},
				"KHR_materials_ior":{
					"ior":0
				}
			},
			"name":"Grass_u2SWBuild2_1",
			"pbrMetallicRoughness":{
				"baseColorTexture":{
					"index":6
				},
				"metallicFactor":0,
				"roughnessFactor":0.9691779017448425
			}
		}
	],
	"meshes":[
		{
			"name":"Urban Sprawl 2.041",
			"primitives":[
				{
					"attributes":{
						"POSITION":0,
						"NORMAL":1,
						"TEXCOORD_0":2
					},
					"indices":3,
					"material":0
				},
				{
					"attributes":{
						"POSITION":4,
						"NORMAL":5,
						"TEXCOORD_0":6
					},
					"indices":7,
					"material":1
				},
				{
					"attributes":{
						"POSITION":8,
						"NORMAL":9,
						"TEXCOORD_0":10
					},
					"indices":11,
					"material":2
				},
				{
					"attributes":{
						"POSITION":12,
						"NORMAL":13,
						"TEXCOORD_0":14
					},
					"indices":15,
					"material":3
				},
				{
					"attributes":{
						"POSITION":16,
						"NORMAL":17,
						"TEXCOORD_0":18
					},
					"indices":19,
					"material":4
				},
				{
					"attributes":{
						"POSITION":20,
						"NORMAL":21,
						"TEXCOORD_0":22
					},
					"indices":23,
					"material":5
				},
				{
					"attributes":{
						"POSITION":24,
						"NORMAL":25,
						"TEXCOORD_0":26
					},
					"indices":27,
					"material":6
				},
				{
					"attributes":{
						"POSITION":28,
						"NORMAL":29,
						"TEXCOORD_0":30
					},
					"indices":31,
					"material":7
				}
			]
		}
	],
	"textures":[
		{
			"sampler":0,
			"source":0
		},
		{
			"sampler":0,
			"source":1
		},
		{
			"sampler":0,
			"source":2
		},
		{
			"sampler":0,
			"source":3
		},
		{
			"sampler":0,
			"source":4
		},
		{
			"sampler":0,
			"source":5
		},
		{
			"sampler":0,
			"source":6
		}
	],
	"images":[
		{
			"mimeType":"image/jpeg",
			"name":"u2blackpanel",
			"uri":"u2blackpanel.jpg"
		},
		{
			"mimeType":"image/jpeg",
			"name":"u2crete2",
			"uri":"u2crete2.jpg"
		},
		{
			"mimeType":"image/jpeg",
			"name":"u2props4",
			"uri":"u2props4.jpg"
		},
		{
			"mimeType":"image/jpeg",
			"name":"u2props1",
			"uri":"u2props1.jpg"
		},
		{
			"mimeType":"image/jpeg",
			"name":"u2road1",
			"uri":"u2road1.jpg"
		},
		{
			"mimeType":"image/jpeg",
			"name":"u2pave2",
			"uri":"u2pave2.jpg"
		},
		{
			"mimeType":"image/jpeg",
			"name":"u2grass",
			"uri":"u2grass.jpg"
		}
	],
	"accessors":[
		{
			"bufferView":0,
			"componentType":5126,
			"count":91,
			"max":[
				-45.72520065307617,
				25.129600524902344,
				-43.85490036010742
			],
			"min":[
				-55.27320098876953,
				9.828829765319824,
				-44.37730026245117
			],
			"type":"VEC3"
		},
		{
			"bufferView":1,
			"componentType":5126,
			"count":91,
			"type":"VEC3"
		},
		{
			"bufferView":2,
			"componentType":5126,
			"count":91,
			"type":"VEC2"
		},
		{
			"bufferView":3,
			"componentType":5123,
			"count":204,
			"type":"SCALAR"
		},
		{
			"bufferView":4,
			"componentType":5126,
			"count":3448,
			"max":[
				-43.20709991455078,
				25.423999786376953,
				0.2727839946746826
			],
			"min":[
				-58.19179916381836,
				8.398469924926758,
				-46.44779968261719
			],
			"type":"VEC3"
		},
		{
			"bufferView":5,
			"componentType":5126,
			"count":3448,
			"type":"VEC3"
		},
		{
			"bufferView":6,
			"componentType":5126,
			"count":3448,
			"type":"VEC2"
		},
		{
			"bufferView":7,
			"componentType":5123,
			"count":7404,
			"type":"SCALAR"
		},
		{
			"bufferView":8,
			"componentType":5126,
			"count":10597,
			"max":[
				-45.777099609375,
				25.07390022277832,
				-42.3406982421875
			],
			"min":[
				-55.20940017700195,
				9.87594985961914,
				-46.75320053100586
			],
			"type":"VEC3"
		},
		{
			"bufferView":9,
			"componentType":5126,
			"count":10597,
			"type":"VEC3"
		},
		{
			"bufferView":10,
			"componentType":5126,
			"count":10597,
			"type":"VEC2"
		},
		{
			"bufferView":11,
			"componentType":5123,
			"count":21729,
			"type":"SCALAR"
		},
		{
			"bufferView":12,
			"componentType":5126,
			"count":141,
			"max":[
				-47.07590103149414,
				22.052000045776367,
				-44.155799865722656
			],
			"min":[
				-53.91419982910156,
				12.078499794006348,
				-49.76020050048828
			],
			"type":"VEC3"
		},
		{
			"bufferView":13,
			"componentType":5126,
			"count":141,
			"type":"VEC3"
		},
		{
			"bufferView":14,
			"componentType":5126,
			"count":141,
			"type":"VEC2"
		},
		{
			"bufferView":15,
			"componentType":5123,
			"count":234,
			"type":"SCALAR"
		},
		{
			"bufferView":16,
			"componentType":5126,
			"count":21,
			"max":[
				-52.68730163574219,
				22.025800704956055,
				-49.76020050048828
			],
			"min":[
				-52.71179962158203,
				22.002399444580078,
				-49.80849838256836
			],
			"type":"VEC3"
		},
		{
			"bufferView":17,
			"componentType":5126,
			"count":21,
			"type":"VEC3"
		},
		{
			"bufferView":18,
			"componentType":5126,
			"count":21,
			"type":"VEC2"
		},
		{
			"bufferView":19,
			"componentType":5123,
			"count":39,
			"type":"SCALAR"
		},
		{
			"bufferView":20,
			"componentType":5126,
			"count":63,
			"max":[
				-47.33689880371094,
				22.856000900268555,
				-45.55030059814453
			],
			"min":[
				-53.6614990234375,
				12.320699691772461,
				-45.58679962158203
			],
			"type":"VEC3"
		},
		{
			"bufferView":21,
			"componentType":5126,
			"count":63,
			"type":"VEC3"
		},
		{
			"bufferView":22,
			"componentType":5126,
			"count":63,
			"type":"VEC2"
		},
		{
			"bufferView":23,
			"componentType":5123,
			"count":114,
			"type":"SCALAR"
		},
		{
			"bufferView":24,
			"componentType":5126,
			"count":4,
			"max":[
				-43.820098876953125,
				24.250699996948242,
				-0.3275449872016907
			],
			"min":[
				-57.57899856567383,
				9.01282024383545,
				-0.34856700897216797
			],
			"type":"VEC3"
		},
		{
			"bufferView":25,
			"componentType":5126,
			"count":4,
			"type":"VEC3"
		},
		{
			"bufferView":26,
			"componentType":5126,
			"count":4,
			"type":"VEC2"
		},
		{
			"bufferView":27,
			"componentType":5123,
			"count":6,
			"type":"SCALAR"
		},
		{
			"bufferView":28,
			"componentType":5126,
			"count":13,
			"max":[
				-44.005001068115234,
				14.852899551391602,
				-0.42686599493026733
			],
			"min":[
				-57.36629867553711,
				9.349349975585938,
				-0.4493449926376343
			],
			"type":"VEC3"
		},
		{
			"bufferView":29,
			"componentType":5126,
			"count":13,
			"type":"VEC3"
		},
		{
			"bufferView":30,
			"componentType":5126,
			"count":13,
			"type":"VEC2"
		},
		{
			"bufferView":31,
			"componentType":5123,
			"count":24,
			"type":"SCALAR"
		}
	],
	"bufferViews":[
		{
			"buffer":0,
			"byteLength":1092,
			"byteOffset":0,
			"target":34962
		},
		{
			"buffer":0,
			"byteLength":1092,
			"byteOffset":1092,
			"target":34962
		},
		{
			"buffer":0,
			"byteLength":728,
			"byteOffset":2184,
			"target":34962
		},
		{
			"buffer":0,
			"byteLength":408,
			"byteOffset":2912,
			"target":34963
		},
		{
			"buffer":0,
			"byteLength":41376,
			"byteOffset":3320,
			"target":34962
		},
		{
			"buffer":0,
			"byteLength":41376,
			"byteOffset":44696,
			"target":34962
		},
		{
			"buffer":0,
			"byteLength":27584,
			"byteOffset":86072,
			"target":34962
		},
		{
			"buffer":0,
			"byteLength":14808,
			"byteOffset":113656,
			"target":34963
		},
		{
			"buffer":0,
			"byteLength":127164,
			"byteOffset":128464,
			"target":34962
		},
		{
			"buffer":0,
			"byteLength":127164,
			"byteOffset":255628,
			"target":34962
		},
		{
			"buffer":0,
			"byteLength":84776,
			"byteOffset":382792,
			"target":34962
		},
		{
			"buffer":0,
			"byteLength":43458,
			"byteOffset":467568,
			"target":34963
		},
		{
			"buffer":0,
			"byteLength":1692,
			"byteOffset":511028,
			"target":34962
		},
		{
			"buffer":0,
			"byteLength":1692,
			"byteOffset":512720,
			"target":34962
		},
		{
			"buffer":0,
			"byteLength":1128,
			"byteOffset":514412,
			"target":34962
		},
		{
			"buffer":0,
			"byteLength":468,
			"byteOffset":515540,
			"target":34963
		},
		{
			"buffer":0,
			"byteLength":252,
			"byteOffset":516008,
			"target":34962
		},
		{
			"buffer":0,
			"byteLength":252,
			"byteOffset":516260,
			"target":34962
		},
		{
			"buffer":0,
			"byteLength":168,
			"byteOffset":516512,
			"target":34962
		},
		{
			"buffer":0,
			"byteLength":78,
			"byteOffset":516680,
			"target":34963
		},
		{
			"buffer":0,
			"byteLength":756,
			"byteOffset":516760,
			"target":34962
		},
		{
			"buffer":0,
			"byteLength":756,
			"byteOffset":517516,
			"target":34962
		},
		{
			"buffer":0,
			"byteLength":504,
			"byteOffset":518272,
			"target":34962
		},
		{
			"buffer":0,
			"byteLength":228,
			"byteOffset":518776,
			"target":34963
		},
		{
			"buffer":0,
			"byteLength":48,
			"byteOffset":519004,
			"target":34962
		},
		{
			"buffer":0,
			"byteLength":48,
			"byteOffset":519052,
			"target":34962
		},
		{
			"buffer":0,
			"byteLength":32,
			"byteOffset":519100,
			"target":34962
		},
		{
			"buffer":0,
			"byteLength":12,
			"byteOffset":519132,
			"target":34963
		},
		{
			"buffer":0,
			"byteLength":156,
			"byteOffset":519144,
			"target":34962
		},
		{
			"buffer":0,
			"byteLength":156,
			"byteOffset":519300,
			"target":34962
		},
		{
			"buffer":0,
			"byteLength":104,
			"byteOffset":519456,
			"target":34962
		},
		{
			"buffer":0,
			"byteLength":48,
			"byteOffset":519560,
			"target":34963
		}
	],
	"samplers":[
		{
			"magFilter":9729,
			"minFilter":9987
		}
	],
	"buffers":[
		{
			"byteLength":519608,
			"uri":"u2SWBuild2.bin"
		}
	]
}
