{
	"asset":{
		"generator":"Khronos glTF Blender I/O v5.0.21",
		"version":"2.0"
	},
	"extensionsUsed":[
		"KHR_materials_specular",
		"KHR_materials_ior"
	],
	"scene":0,
	"scenes":[
		{
			"name":"Scene",
			"nodes":[
				0
			]
		}
	],
	"nodes":[
		{
			"mesh":0,
			"name":"u2WBuild3",
			"rotation":[
				0.70710688829422,
				0,
				0,
				0.7071066498756409
			]
		}
	],
	"materials":[
		{
			"doubleSided":true,
			"extensions":{
				"KHR_materials_specular":{
					"specularColorFactor":[
						0.04800000041723251,
						0.04800000041723251,
						0.04800000041723251
					]
				},
				"KHR_materials_ior":{
					"ior":0
				}
			},
			"name":"BlackMetalPanels_u2WBuild3_1",
			"pbrMetallicRoughness":{
				"baseColorTexture":{
					"index":0
				},
				"metallicFactor":0,
				"roughnessFactor":0.9691779017448425
			}
		},
		{
			"doubleSided":true,
			"extensions":{
				"KHR_materials_specular":{
					"specularColorFactor":[
						0.04800000041723251,
						0.04800000041723251,
						0.04800000041723251
					]
				},
				"KHR_materials_ior":{
					"ior":0
				}
			},
			"name":"WindowsG_u2WBuild3_1",
			"pbrMetallicRoughness":{
				"baseColorTexture":{
					"index":1
				},
				"metallicFactor":0,
				"roughnessFactor":0.9700000286102295
			}
		},
		{
			"doubleSided":true,
			"extensions":{
				"KHR_materials_specular":{
					"specularColorFactor":[
						0.04800000041723251,
						0.04800000041723251,
						0.04800000041723251
					]
				},
				"KHR_materials_ior":{
					"ior":0
				}
			},
			"name":"WindowsF_u2WBuild3_1",
			"pbrMetallicRoughness":{
				"baseColorTexture":{
					"index":2
				},
				"metallicFactor":0,
				"roughnessFactor":0.9700000286102295
			}
		},
		{
			"doubleSided":true,
			"extensions":{
				"KHR_materials_specular":{
					"specularColorFactor":[
						0.04800000041723251,
						0.04800000041723251,
						0.04800000041723251
					]
				},
				"KHR_materials_ior":{
					"ior":0
				}
			},
			"name":"Concrete_u2WBuild3_1",
			"pbrMetallicRoughness":{
				"baseColorTexture":{
					"index":3
				},
				"metallicFactor":0,
				"roughnessFactor":0.9687750339508057
			}
		},
		{
			"doubleSided":true,
			"extensions":{
				"KHR_materials_specular":{
					"specularColorFactor":[
						0.04800000041723251,
						0.04800000041723251,
						0.04800000041723251
					]
				},
				"KHR_materials_ior":{
					"ior":0
				}
			},
			"name":"MetalGalvanized_u2WBuild3_1",
			"pbrMetallicRoughness":{
				"baseColorTexture":{
					"index":4
				},
				"metallicFactor":0,
				"roughnessFactor":0.9687750339508057
			}
		},
		{
			"doubleSided":true,
			"extensions":{
				"KHR_materials_specular":{
					"specularColorFactor":[
						0.04800000041723251,
						0.04800000041723251,
						0.04800000041723251
					]
				},
				"KHR_materials_ior":{
					"ior":0
				}
			},
			"name":"RooftopProps_u2WBuild3_1",
			"pbrMetallicRoughness":{
				"baseColorTexture":{
					"index":5
				},
				"metallicFactor":0,
				"roughnessFactor":0.9685357213020325
			}
		},
		{
			"doubleSided":true,
			"extensions":{
				"KHR_materials_specular":{
					"specularColorFactor":[
						0.04800000041723251,
						0.04800000041723251,
						0.04800000041723251
					]
				},
				"KHR_materials_ior":{
					"ior":0
				}
			},
			"name":"Doors_u2WBuild3_1",
			"pbrMetallicRoughness":{
				"baseColorTexture":{
					"index":6
				},
				"metallicFactor":0,
				"roughnessFactor":0.9691779017448425
			}
		},
		{
			"doubleSided":true,
			"extensions":{
				"KHR_materials_specular":{
					"specularColorFactor":[
						0.04800000041723251,
						0.04800000041723251,
						0.04800000041723251
					]
				},
				"KHR_materials_ior":{
					"ior":0
				}
			},
			"name":"Paving2_u2WBuild3_1",
			"pbrMetallicRoughness":{
				"baseColorTexture":{
					"index":7
				},
				"metallicFactor":0,
				"roughnessFactor":0.9687750339508057
			}
		},
		{
			"doubleSided":true,
			"extensions":{
				"KHR_materials_specular":{
					"specularColorFactor":[
						0.04800000041723251,
						0.04800000041723251,
						0.04800000041723251
					]
				},
				"KHR_materials_ior":{
					"ior":0
				}
			},
			"name":"Brick4_u2WBuild3_1",
			"pbrMetallicRoughness":{
				"baseColorTexture":{
					"index":8
				},
				"metallicFactor":0,
				"roughnessFactor":0.9691779017448425
			}
		}
	],
	"meshes":[
		{
			"name":"Urban Sprawl 2.048",
			"primitives":[
				{
					"attributes":{
						"POSITION":0,
						"NORMAL":1,
						"TEXCOORD_0":2
					},
					"indices":3,
					"material":0
				},
				{
					"attributes":{
						"POSITION":4,
						"NORMAL":5,
						"TEXCOORD_0":6
					},
					"indices":7,
					"material":1
				},
				{
					"attributes":{
						"POSITION":8,
						"NORMAL":9,
						"TEXCOORD_0":10
					},
					"indices":11,
					"material":2
				},
				{
					"attributes":{
						"POSITION":12,
						"NORMAL":13,
						"TEXCOORD_0":14
					},
					"indices":15,
					"material":3
				},
				{
					"attributes":{
						"POSITION":16,
						"NORMAL":17,
						"TEXCOORD_0":18
					},
					"indices":19,
					"material":4
				},
				{
					"attributes":{
						"POSITION":20,
						"NORMAL":21,
						"TEXCOORD_0":22
					},
					"indices":23,
					"material":5
				},
				{
					"attributes":{
						"POSITION":24,
						"NORMAL":25,
						"TEXCOORD_0":26
					},
					"indices":27,
					"material":6
				},
				{
					"attributes":{
						"POSITION":28,
						"NORMAL":29,
						"TEXCOORD_0":30
					},
					"indices":31,
					"material":7
				},
				{
					"attributes":{
						"POSITION":32,
						"NORMAL":33,
						"TEXCOORD_0":34
					},
					"indices":35,
					"material":8
				}
			]
		}
	],
	"textures":[
		{
			"sampler":0,
			"source":0
		},
		{
			"sampler":0,
			"source":1
		},
		{
			"sampler":0,
			"source":1
		},
		{
			"sampler":0,
			"source":2
		},
		{
			"sampler":0,
			"source":3
		},
		{
			"sampler":0,
			"source":4
		},
		{
			"sampler":0,
			"source":5
		},
		{
			"sampler":0,
			"source":6
		},
		{
			"sampler":0,
			"source":7
		}
	],
	"images":[
		{
			"mimeType":"image/jpeg",
			"name":"u2awning",
			"uri":"u2awning.jpg"
		},
		{
			"mimeType":"image/jpeg",
			"name":"u2swbldg2",
			"uri":"u2swbldg2.jpg"
		},
		{
			"mimeType":"image/jpeg",
			"name":"u2crete2",
			"uri":"u2crete2.jpg"
		},
		{
			"mimeType":"image/jpeg",
			"name":"u2metal1",
			"uri":"u2metal1.jpg"
		},
		{
			"mimeType":"image/jpeg",
			"name":"u2props4",
			"uri":"u2props4.jpg"
		},
		{
			"mimeType":"image/jpeg",
			"name":"u2doors1",
			"uri":"u2doors1.jpg"
		},
		{
			"mimeType":"image/jpeg",
			"name":"u2pave2",
			"uri":"u2pave2.jpg"
		},
		{
			"mimeType":"image/jpeg",
			"name":"u2brick4",
			"uri":"u2brick4.jpg"
		}
	],
	"accessors":[
		{
			"bufferView":0,
			"componentType":5126,
			"count":1757,
			"max":[
				-67.0802993774414,
				-22.215700149536133,
				-0.7005890011787415
			],
			"min":[
				-81.6176986694336,
				-36.767601013183594,
				-39.248199462890625
			],
			"type":"VEC3"
		},
		{
			"bufferView":1,
			"componentType":5126,
			"count":1757,
			"type":"VEC3"
		},
		{
			"bufferView":2,
			"componentType":5126,
			"count":1757,
			"type":"VEC2"
		},
		{
			"bufferView":3,
			"componentType":5123,
			"count":2508,
			"type":"SCALAR"
		},
		{
			"bufferView":4,
			"componentType":5126,
			"count":334,
			"max":[
				-67.0802993774414,
				-22.215700149536133,
				-1.8402199745178223
			],
			"min":[
				-81.6176986694336,
				-36.767601013183594,
				-37.401100158691406
			],
			"type":"VEC3"
		},
		{
			"bufferView":5,
			"componentType":5126,
			"count":334,
			"type":"VEC3"
		},
		{
			"bufferView":6,
			"componentType":5126,
			"count":334,
			"type":"VEC2"
		},
		{
			"bufferView":7,
			"componentType":5123,
			"count":666,
			"type":"SCALAR"
		},
		{
			"bufferView":8,
			"componentType":5126,
			"count":81,
			"max":[
				-67.0802993774414,
				-22.215700149536133,
				-1.8402199745178223
			],
			"min":[
				-81.6176986694336,
				-36.767601013183594,
				-36.417598724365234
			],
			"type":"VEC3"
		},
		{
			"bufferView":9,
			"componentType":5126,
			"count":81,
			"type":"VEC3"
		},
		{
			"bufferView":10,
			"componentType":5126,
			"count":81,
			"type":"VEC2"
		},
		{
			"bufferView":11,
			"componentType":5123,
			"count":126,
			"type":"SCALAR"
		},
		{
			"bufferView":12,
			"componentType":5126,
			"count":1390,
			"max":[
				-65.16490173339844,
				-21.197099685668945,
				-0.2632859945297241
			],
			"min":[
				-89.66609954833984,
				-37.664100646972656,
				-38.98699951171875
			],
			"type":"VEC3"
		},
		{
			"bufferView":13,
			"componentType":5126,
			"count":1390,
			"type":"VEC3"
		},
		{
			"bufferView":14,
			"componentType":5126,
			"count":1390,
			"type":"VEC2"
		},
		{
			"bufferView":15,
			"componentType":5123,
			"count":2160,
			"type":"SCALAR"
		},
		{
			"bufferView":16,
			"componentType":5126,
			"count":2431,
			"max":[
				-70.52059936523438,
				-24.347299575805664,
				-37.443599700927734
			],
			"min":[
				-81.13279724121094,
				-32.916099548339844,
				-42.6968994140625
			],
			"type":"VEC3"
		},
		{
			"bufferView":17,
			"componentType":5126,
			"count":2431,
			"type":"VEC3"
		},
		{
			"bufferView":18,
			"componentType":5126,
			"count":2431,
			"type":"VEC2"
		},
		{
			"bufferView":19,
			"componentType":5123,
			"count":4803,
			"type":"SCALAR"
		},
		{
			"bufferView":20,
			"componentType":5126,
			"count":9864,
			"max":[
				-68.43509674072266,
				-23.84480094909668,
				-19.20009994506836
			],
			"min":[
				-81.06749725341797,
				-35.41279983520508,
				-39.16630172729492
			],
			"type":"VEC3"
		},
		{
			"bufferView":21,
			"componentType":5126,
			"count":9864,
			"type":"VEC3"
		},
		{
			"bufferView":22,
			"componentType":5126,
			"count":9864,
			"type":"VEC2"
		},
		{
			"bufferView":23,
			"componentType":5123,
			"count":18456,
			"type":"SCALAR"
		},
		{
			"bufferView":24,
			"componentType":5126,
			"count":64,
			"max":[
				-72.5386962890625,
				-26.20669937133789,
				-36.2328987121582
			],
			"min":[
				-79.36009979248047,
				-30.86669921875,
				-38.710201263427734
			],
			"type":"VEC3"
		},
		{
			"bufferView":25,
			"componentType":5126,
			"count":64,
			"type":"VEC3"
		},
		{
			"bufferView":26,
			"componentType":5126,
			"count":64,
			"type":"VEC2"
		},
		{
			"bufferView":27,
			"componentType":5123,
			"count":90,
			"type":"SCALAR"
		},
		{
			"bufferView":28,
			"componentType":5126,
			"count":4,
			"max":[
				-66.7145004272461,
				-26.92020034790039,
				-1.0410900115966797
			],
			"min":[
				-72.21800231933594,
				-31.08810043334961,
				-1.0410900115966797
			],
			"type":"VEC3"
		},
		{
			"bufferView":29,
			"componentType":5126,
			"count":4,
			"type":"VEC3"
		},
		{
			"bufferView":30,
			"componentType":5126,
			"count":4,
			"type":"VEC2"
		},
		{
			"bufferView":31,
			"componentType":5123,
			"count":6,
			"type":"SCALAR"
		},
		{
			"bufferView":32,
			"componentType":5126,
			"count":98,
			"max":[
				-65.22889709472656,
				-26.844900131225586,
				-0.13783200085163116
			],
			"min":[
				-72.19039916992188,
				-31.16939926147461,
				-1.1226199865341187
			],
			"type":"VEC3"
		},
		{
			"bufferView":33,
			"componentType":5126,
			"count":98,
			"type":"VEC3"
		},
		{
			"bufferView":34,
			"componentType":5126,
			"count":98,
			"type":"VEC2"
		},
		{
			"bufferView":35,
			"componentType":5123,
			"count":168,
			"type":"SCALAR"
		}
	],
	"bufferViews":[
		{
			"buffer":0,
			"byteLength":21084,
			"byteOffset":0,
			"target":34962
		},
		{
			"buffer":0,
			"byteLength":21084,
			"byteOffset":21084,
			"target":34962
		},
		{
			"buffer":0,
			"byteLength":14056,
			"byteOffset":42168,
			"target":34962
		},
		{
			"buffer":0,
			"byteLength":5016,
			"byteOffset":56224,
			"target":34963
		},
		{
			"buffer":0,
			"byteLength":4008,
			"byteOffset":61240,
			"target":34962
		},
		{
			"buffer":0,
			"byteLength":4008,
			"byteOffset":65248,
			"target":34962
		},
		{
			"buffer":0,
			"byteLength":2672,
			"byteOffset":69256,
			"target":34962
		},
		{
			"buffer":0,
			"byteLength":1332,
			"byteOffset":71928,
			"target":34963
		},
		{
			"buffer":0,
			"byteLength":972,
			"byteOffset":73260,
			"target":34962
		},
		{
			"buffer":0,
			"byteLength":972,
			"byteOffset":74232,
			"target":34962
		},
		{
			"buffer":0,
			"byteLength":648,
			"byteOffset":75204,
			"target":34962
		},
		{
			"buffer":0,
			"byteLength":252,
			"byteOffset":75852,
			"target":34963
		},
		{
			"buffer":0,
			"byteLength":16680,
			"byteOffset":76104,
			"target":34962
		},
		{
			"buffer":0,
			"byteLength":16680,
			"byteOffset":92784,
			"target":34962
		},
		{
			"buffer":0,
			"byteLength":11120,
			"byteOffset":109464,
			"target":34962
		},
		{
			"buffer":0,
			"byteLength":4320,
			"byteOffset":120584,
			"target":34963
		},
		{
			"buffer":0,
			"byteLength":29172,
			"byteOffset":124904,
			"target":34962
		},
		{
			"buffer":0,
			"byteLength":29172,
			"byteOffset":154076,
			"target":34962
		},
		{
			"buffer":0,
			"byteLength":19448,
			"byteOffset":183248,
			"target":34962
		},
		{
			"buffer":0,
			"byteLength":9606,
			"byteOffset":202696,
			"target":34963
		},
		{
			"buffer":0,
			"byteLength":118368,
			"byteOffset":212304,
			"target":34962
		},
		{
			"buffer":0,
			"byteLength":118368,
			"byteOffset":330672,
			"target":34962
		},
		{
			"buffer":0,
			"byteLength":78912,
			"byteOffset":449040,
			"target":34962
		},
		{
			"buffer":0,
			"byteLength":36912,
			"byteOffset":527952,
			"target":34963
		},
		{
			"buffer":0,
			"byteLength":768,
			"byteOffset":564864,
			"target":34962
		},
		{
			"buffer":0,
			"byteLength":768,
			"byteOffset":565632,
			"target":34962
		},
		{
			"buffer":0,
			"byteLength":512,
			"byteOffset":566400,
			"target":34962
		},
		{
			"buffer":0,
			"byteLength":180,
			"byteOffset":566912,
			"target":34963
		},
		{
			"buffer":0,
			"byteLength":48,
			"byteOffset":567092,
			"target":34962
		},
		{
			"buffer":0,
			"byteLength":48,
			"byteOffset":567140,
			"target":34962
		},
		{
			"buffer":0,
			"byteLength":32,
			"byteOffset":567188,
			"target":34962
		},
		{
			"buffer":0,
			"byteLength":12,
			"byteOffset":567220,
			"target":34963
		},
		{
			"buffer":0,
			"byteLength":1176,
			"byteOffset":567232,
			"target":34962
		},
		{
			"buffer":0,
			"byteLength":1176,
			"byteOffset":568408,
			"target":34962
		},
		{
			"buffer":0,
			"byteLength":784,
			"byteOffset":569584,
			"target":34962
		},
		{
			"buffer":0,
			"byteLength":336,
			"byteOffset":570368,
			"target":34963
		}
	],
	"samplers":[
		{
			"magFilter":9729,
			"minFilter":9987
		}
	],
	"buffers":[
		{
			"byteLength":570704,
			"uri":"u2WBuild3.bin"
		}
	]
}
