{
	"asset":{
		"generator":"Khronos glTF Blender I/O v5.0.21",
		"version":"2.0"
	},
	"extensionsUsed":[
		"KHR_materials_specular",
		"KHR_materials_ior"
	],
	"scene":0,
	"scenes":[
		{
			"name":"Scene",
			"nodes":[
				0
			]
		}
	],
	"nodes":[
		{
			"mesh":0,
			"name":"vehicles",
			"rotation":[
				0.70710688829422,
				0,
				0,
				0.7071066498756409
			]
		}
	],
	"materials":[
		{
			"alphaMode":"BLEND",
			"doubleSided":true,
			"extensions":{
				"KHR_materials_specular":{
					"specularColorFactor":[
						0.059921592473983765,
						0.059921592473983765,
						0.059921592473983765
					]
				},
				"KHR_materials_ior":{
					"ior":0
				}
			},
			"name":"U2Car1Window",
			"pbrMetallicRoughness":{
				"baseColorFactor":[
					1,
					1,
					1,
					0.699999988079071
				],
				"baseColorTexture":{
					"index":0
				},
				"metallicFactor":0,
				"roughnessFactor":0.9776393175125122
			}
		},
		{
			"doubleSided":true,
			"extensions":{
				"KHR_materials_specular":{
					"specularColorFactor":[
						0.04800000041723251,
						0.04800000041723251,
						0.04800000041723251
					]
				},
				"KHR_materials_ior":{
					"ior":0
				}
			},
			"name":"U2Car1",
			"pbrMetallicRoughness":{
				"baseColorTexture":{
					"index":1
				},
				"metallicFactor":0,
				"roughnessFactor":0.9691779017448425
			}
		},
		{
			"doubleSided":true,
			"extensions":{
				"KHR_materials_specular":{
					"specularColorFactor":[
						0.04800000041723251,
						0.04800000041723251,
						0.04800000041723251
					]
				},
				"KHR_materials_ior":{
					"ior":0
				}
			},
			"name":"Truck1",
			"pbrMetallicRoughness":{
				"baseColorTexture":{
					"index":2
				},
				"metallicFactor":0,
				"roughnessFactor":0.9691779017448425
			}
		},
		{
			"doubleSided":true,
			"extensions":{
				"KHR_materials_specular":{
					"specularColorFactor":[
						0.04800000041723251,
						0.04800000041723251,
						0.04800000041723251
					]
				},
				"KHR_materials_ior":{
					"ior":0
				}
			},
			"name":"Wheels_u2Truck3_1",
			"pbrMetallicRoughness":{
				"baseColorTexture":{
					"index":3
				},
				"metallicFactor":0,
				"roughnessFactor":0.9691779017448425
			}
		},
		{
			"doubleSided":true,
			"extensions":{
				"KHR_materials_specular":{
					"specularColorFactor":[
						0.04800000041723251,
						0.04800000041723251,
						0.04800000041723251
					]
				},
				"KHR_materials_ior":{
					"ior":0
				}
			},
			"name":"Truck1_u2Truck3_1",
			"pbrMetallicRoughness":{
				"baseColorTexture":{
					"index":4
				},
				"metallicFactor":0,
				"roughnessFactor":0.9691779017448425
			}
		},
		{
			"doubleSided":true,
			"extensions":{
				"KHR_materials_specular":{
					"specularColorFactor":[
						0.04800000041723251,
						0.04800000041723251,
						0.04800000041723251
					]
				},
				"KHR_materials_ior":{
					"ior":0
				}
			},
			"name":"Windows_u2Truck3_1",
			"pbrMetallicRoughness":{
				"baseColorTexture":{
					"index":5
				},
				"metallicFactor":0,
				"roughnessFactor":0.9691779017448425
			}
		},
		{
			"doubleSided":true,
			"extensions":{
				"KHR_materials_specular":{
					"specularColorFactor":[
						0.04800000041723251,
						0.04800000041723251,
						0.04800000041723251
					]
				},
				"KHR_materials_ior":{
					"ior":0
				}
			},
			"name":"Mirror_u2Truck3_1",
			"pbrMetallicRoughness":{
				"baseColorTexture":{
					"index":6
				},
				"metallicFactor":0,
				"roughnessFactor":0.9691779017448425
			}
		},
		{
			"doubleSided":true,
			"extensions":{
				"KHR_materials_specular":{
					"specularColorFactor":[
						0.04800000041723251,
						0.04800000041723251,
						0.04800000041723251
					]
				},
				"KHR_materials_ior":{
					"ior":0
				}
			},
			"name":"Chrome_u2Truck3_1",
			"pbrMetallicRoughness":{
				"baseColorTexture":{
					"index":7
				},
				"metallicFactor":0,
				"roughnessFactor":0.9691779017448425
			}
		}
	],
	"meshes":[
		{
			"name":"Urban Sprawl 2.061",
			"primitives":[
				{
					"attributes":{
						"POSITION":0,
						"NORMAL":1,
						"TEXCOORD_0":2
					},
					"indices":3,
					"material":0
				},
				{
					"attributes":{
						"POSITION":4,
						"NORMAL":5,
						"TEXCOORD_0":6
					},
					"indices":7,
					"material":1
				},
				{
					"attributes":{
						"POSITION":8,
						"NORMAL":9,
						"TEXCOORD_0":10
					},
					"indices":11,
					"material":2
				},
				{
					"attributes":{
						"POSITION":12,
						"NORMAL":13,
						"TEXCOORD_0":14
					},
					"indices":15,
					"material":3
				},
				{
					"attributes":{
						"POSITION":16,
						"NORMAL":17,
						"TEXCOORD_0":18
					},
					"indices":19,
					"material":4
				},
				{
					"attributes":{
						"POSITION":20,
						"NORMAL":21,
						"TEXCOORD_0":22
					},
					"indices":23,
					"material":5
				},
				{
					"attributes":{
						"POSITION":24,
						"NORMAL":25,
						"TEXCOORD_0":26
					},
					"indices":27,
					"material":6
				},
				{
					"attributes":{
						"POSITION":28,
						"NORMAL":29,
						"TEXCOORD_0":30
					},
					"indices":31,
					"material":7
				}
			]
		}
	],
	"textures":[
		{
			"sampler":0,
			"source":0
		},
		{
			"sampler":0,
			"source":1
		},
		{
			"sampler":0,
			"source":2
		},
		{
			"sampler":0,
			"source":2
		},
		{
			"sampler":0,
			"source":3
		},
		{
			"sampler":0,
			"source":2
		},
		{
			"sampler":0,
			"source":3
		},
		{
			"sampler":0,
			"source":3
		}
	],
	"images":[
		{
			"mimeType":"image/png",
			"name":"u2carblue",
			"uri":"u2carblue.png"
		},
		{
			"mimeType":"image/jpeg",
			"name":"u2carblue",
			"uri":"u2carblue.jpg"
		},
		{
			"mimeType":"image/jpeg",
			"name":"u2van2",
			"uri":"u2van2.jpg"
		},
		{
			"mimeType":"image/jpeg",
			"name":"u2van1",
			"uri":"u2van1.jpg"
		}
	],
	"accessors":[
		{
			"bufferView":0,
			"componentType":5126,
			"count":55,
			"max":[
				-14.838600158691406,
				-4.225039958953857,
				-0.5244789719581604
			],
			"min":[
				-15.831100463867188,
				-5.081830024719238,
				-0.7167260050773621
			],
			"type":"VEC3"
		},
		{
			"bufferView":1,
			"componentType":5126,
			"count":55,
			"type":"VEC3"
		},
		{
			"bufferView":2,
			"componentType":5126,
			"count":55,
			"type":"VEC2"
		},
		{
			"bufferView":3,
			"componentType":5123,
			"count":102,
			"type":"SCALAR"
		},
		{
			"bufferView":4,
			"componentType":5126,
			"count":5596,
			"max":[
				-14.094799995422363,
				-4.153960227966309,
				-0.11200899630784988
			],
			"min":[
				-16.388700485229492,
				-5.1494598388671875,
				-0.7459250092506409
			],
			"type":"VEC3"
		},
		{
			"bufferView":5,
			"componentType":5126,
			"count":5596,
			"type":"VEC3"
		},
		{
			"bufferView":6,
			"componentType":5126,
			"count":5596,
			"type":"VEC2"
		},
		{
			"bufferView":7,
			"componentType":5123,
			"count":14403,
			"type":"SCALAR"
		},
		{
			"bufferView":8,
			"componentType":5126,
			"count":9892,
			"max":[
				-20.231300354003906,
				-2.3518800735473633,
				-0.23691999912261963
			],
			"min":[
				-22.87070083618164,
				-3.524790048599243,
				-1.3665900230407715
			],
			"type":"VEC3"
		},
		{
			"bufferView":9,
			"componentType":5126,
			"count":9892,
			"type":"VEC3"
		},
		{
			"bufferView":10,
			"componentType":5126,
			"count":9892,
			"type":"VEC2"
		},
		{
			"bufferView":11,
			"componentType":5123,
			"count":14493,
			"type":"SCALAR"
		},
		{
			"bufferView":12,
			"componentType":5126,
			"count":3942,
			"max":[
				-0.49187999963760376,
				26.895000457763672,
				-0.10647600144147873
			],
			"min":[
				-1.5575499534606934,
				24.935300827026367,
				-0.4894300103187561
			],
			"type":"VEC3"
		},
		{
			"bufferView":13,
			"componentType":5126,
			"count":3942,
			"type":"VEC3"
		},
		{
			"bufferView":14,
			"componentType":5126,
			"count":3942,
			"type":"VEC2"
		},
		{
			"bufferView":15,
			"componentType":5123,
			"count":12192,
			"type":"SCALAR"
		},
		{
			"bufferView":16,
			"componentType":5126,
			"count":8616,
			"max":[
				-0.4500899910926819,
				27.03019905090332,
				-0.23232899606227875
			],
			"min":[
				-1.6237599849700928,
				24.3966007232666,
				-1.378499984741211
			],
			"type":"VEC3"
		},
		{
			"bufferView":17,
			"componentType":5126,
			"count":8616,
			"type":"VEC3"
		},
		{
			"bufferView":18,
			"componentType":5126,
			"count":8616,
			"type":"VEC2"
		},
		{
			"bufferView":19,
			"componentType":5123,
			"count":14493,
			"type":"SCALAR"
		},
		{
			"bufferView":20,
			"componentType":5126,
			"count":142,
			"max":[
				-0.5289450287818909,
				26.814599990844727,
				-0.7413529753684998
			],
			"min":[
				-1.5414600372314453,
				24.422000885009766,
				-1.1169300079345703
			],
			"type":"VEC3"
		},
		{
			"bufferView":21,
			"componentType":5126,
			"count":142,
			"type":"VEC3"
		},
		{
			"bufferView":22,
			"componentType":5126,
			"count":142,
			"type":"VEC2"
		},
		{
			"bufferView":23,
			"componentType":5123,
			"count":210,
			"type":"SCALAR"
		},
		{
			"bufferView":24,
			"componentType":5126,
			"count":36,
			"max":[
				-0.4545229971408844,
				26.733699798583984,
				-0.7761849761009216
			],
			"min":[
				-1.6193699836730957,
				26.712299346923828,
				-1.027109980583191
			],
			"type":"VEC3"
		},
		{
			"bufferView":25,
			"componentType":5126,
			"count":36,
			"type":"VEC3"
		},
		{
			"bufferView":26,
			"componentType":5126,
			"count":36,
			"type":"VEC2"
		},
		{
			"bufferView":27,
			"componentType":5123,
			"count":54,
			"type":"SCALAR"
		},
		{
			"bufferView":28,
			"componentType":5126,
			"count":307,
			"max":[
				-0.46729499101638794,
				26.756399154663086,
				-0.7451059818267822
			],
			"min":[
				-1.6030499935150146,
				26.72130012512207,
				-1.0402499437332153
			],
			"type":"VEC3"
		},
		{
			"bufferView":29,
			"componentType":5126,
			"count":307,
			"type":"VEC3"
		},
		{
			"bufferView":30,
			"componentType":5126,
			"count":307,
			"type":"VEC2"
		},
		{
			"bufferView":31,
			"componentType":5123,
			"count":504,
			"type":"SCALAR"
		}
	],
	"bufferViews":[
		{
			"buffer":0,
			"byteLength":660,
			"byteOffset":0,
			"target":34962
		},
		{
			"buffer":0,
			"byteLength":660,
			"byteOffset":660,
			"target":34962
		},
		{
			"buffer":0,
			"byteLength":440,
			"byteOffset":1320,
			"target":34962
		},
		{
			"buffer":0,
			"byteLength":204,
			"byteOffset":1760,
			"target":34963
		},
		{
			"buffer":0,
			"byteLength":67152,
			"byteOffset":1964,
			"target":34962
		},
		{
			"buffer":0,
			"byteLength":67152,
			"byteOffset":69116,
			"target":34962
		},
		{
			"buffer":0,
			"byteLength":44768,
			"byteOffset":136268,
			"target":34962
		},
		{
			"buffer":0,
			"byteLength":28806,
			"byteOffset":181036,
			"target":34963
		},
		{
			"buffer":0,
			"byteLength":118704,
			"byteOffset":209844,
			"target":34962
		},
		{
			"buffer":0,
			"byteLength":118704,
			"byteOffset":328548,
			"target":34962
		},
		{
			"buffer":0,
			"byteLength":79136,
			"byteOffset":447252,
			"target":34962
		},
		{
			"buffer":0,
			"byteLength":28986,
			"byteOffset":526388,
			"target":34963
		},
		{
			"buffer":0,
			"byteLength":47304,
			"byteOffset":555376,
			"target":34962
		},
		{
			"buffer":0,
			"byteLength":47304,
			"byteOffset":602680,
			"target":34962
		},
		{
			"buffer":0,
			"byteLength":31536,
			"byteOffset":649984,
			"target":34962
		},
		{
			"buffer":0,
			"byteLength":24384,
			"byteOffset":681520,
			"target":34963
		},
		{
			"buffer":0,
			"byteLength":103392,
			"byteOffset":705904,
			"target":34962
		},
		{
			"buffer":0,
			"byteLength":103392,
			"byteOffset":809296,
			"target":34962
		},
		{
			"buffer":0,
			"byteLength":68928,
			"byteOffset":912688,
			"target":34962
		},
		{
			"buffer":0,
			"byteLength":28986,
			"byteOffset":981616,
			"target":34963
		},
		{
			"buffer":0,
			"byteLength":1704,
			"byteOffset":1010604,
			"target":34962
		},
		{
			"buffer":0,
			"byteLength":1704,
			"byteOffset":1012308,
			"target":34962
		},
		{
			"buffer":0,
			"byteLength":1136,
			"byteOffset":1014012,
			"target":34962
		},
		{
			"buffer":0,
			"byteLength":420,
			"byteOffset":1015148,
			"target":34963
		},
		{
			"buffer":0,
			"byteLength":432,
			"byteOffset":1015568,
			"target":34962
		},
		{
			"buffer":0,
			"byteLength":432,
			"byteOffset":1016000,
			"target":34962
		},
		{
			"buffer":0,
			"byteLength":288,
			"byteOffset":1016432,
			"target":34962
		},
		{
			"buffer":0,
			"byteLength":108,
			"byteOffset":1016720,
			"target":34963
		},
		{
			"buffer":0,
			"byteLength":3684,
			"byteOffset":1016828,
			"target":34962
		},
		{
			"buffer":0,
			"byteLength":3684,
			"byteOffset":1020512,
			"target":34962
		},
		{
			"buffer":0,
			"byteLength":2456,
			"byteOffset":1024196,
			"target":34962
		},
		{
			"buffer":0,
			"byteLength":1008,
			"byteOffset":1026652,
			"target":34963
		}
	],
	"samplers":[
		{
			"magFilter":9729,
			"minFilter":9987
		}
	],
	"buffers":[
		{
			"byteLength":1027660,
			"uri":"vehicles.bin"
		}
	]
}
