{
	"asset":{
		"generator":"Khronos glTF Blender I/O v5.0.21",
		"version":"2.0"
	},
	"extensionsUsed":[
		"KHR_materials_specular",
		"KHR_materials_ior"
	],
	"scene":0,
	"scenes":[
		{
			"name":"Scene",
			"nodes":[
				0
			]
		}
	],
	"nodes":[
		{
			"mesh":0,
			"name":"cables",
			"rotation":[
				0.70710688829422,
				0,
				0,
				0.7071066498756409
			]
		}
	],
	"materials":[
		{
			"doubleSided":true,
			"extensions":{
				"KHR_materials_specular":{
					"specularColorFactor":[
						0.04800000041723251,
						0.04800000041723251,
						0.04800000041723251
					]
				},
				"KHR_materials_ior":{
					"ior":0
				}
			},
			"name":"Cables",
			"pbrMetallicRoughness":{
				"baseColorFactor":[
					0.09019610285758972,
					0.09019610285758972,
					0.09019610285758972,
					1
				],
				"metallicFactor":0,
				"roughnessFactor":0.9691779017448425
			}
		},
		{
			"doubleSided":true,
			"extensions":{
				"KHR_materials_specular":{
					"specularColorFactor":[
						0.04800000041723251,
						0.04800000041723251,
						0.04800000041723251
					]
				},
				"KHR_materials_ior":{
					"ior":0
				}
			},
			"name":"Cables_u2NCablesA_1",
			"pbrMetallicRoughness":{
				"baseColorTexture":{
					"index":0
				},
				"metallicFactor":0,
				"roughnessFactor":0.9685357213020325
			}
		}
	],
	"meshes":[
		{
			"name":"Urban Sprawl 2.059",
			"primitives":[
				{
					"attributes":{
						"POSITION":0,
						"NORMAL":1,
						"TEXCOORD_0":2
					},
					"indices":3,
					"material":0
				},
				{
					"attributes":{
						"POSITION":4,
						"NORMAL":5,
						"TEXCOORD_0":6
					},
					"indices":7,
					"material":1
				}
			]
		}
	],
	"textures":[
		{
			"sampler":0,
			"source":0
		}
	],
	"images":[
		{
			"mimeType":"image/jpeg",
			"name":"u2metdark",
			"uri":"u2metdark.jpg"
		}
	],
	"accessors":[
		{
			"bufferView":0,
			"componentType":5126,
			"count":528,
			"max":[
				7.777919769287109,
				19.133899688720703,
				-2.0985898971557617
			],
			"min":[
				5.272960186004639,
				14.847200393676758,
				-3.9328300952911377
			],
			"type":"VEC3"
		},
		{
			"bufferView":1,
			"componentType":5126,
			"count":528,
			"type":"VEC3"
		},
		{
			"bufferView":2,
			"componentType":5126,
			"count":528,
			"type":"VEC2"
		},
		{
			"bufferView":3,
			"componentType":5123,
			"count":1182,
			"type":"SCALAR"
		},
		{
			"bufferView":4,
			"componentType":5126,
			"count":2571,
			"max":[
				3.509850025177002,
				-12.565899848937988,
				-5.294370174407959
			],
			"min":[
				-8.524740219116211,
				-32.47079849243164,
				-9.342470169067383
			],
			"type":"VEC3"
		},
		{
			"bufferView":5,
			"componentType":5126,
			"count":2571,
			"type":"VEC3"
		},
		{
			"bufferView":6,
			"componentType":5126,
			"count":2571,
			"type":"VEC2"
		},
		{
			"bufferView":7,
			"componentType":5123,
			"count":7296,
			"type":"SCALAR"
		}
	],
	"bufferViews":[
		{
			"buffer":0,
			"byteLength":6336,
			"byteOffset":0,
			"target":34962
		},
		{
			"buffer":0,
			"byteLength":6336,
			"byteOffset":6336,
			"target":34962
		},
		{
			"buffer":0,
			"byteLength":4224,
			"byteOffset":12672,
			"target":34962
		},
		{
			"buffer":0,
			"byteLength":2364,
			"byteOffset":16896,
			"target":34963
		},
		{
			"buffer":0,
			"byteLength":30852,
			"byteOffset":19260,
			"target":34962
		},
		{
			"buffer":0,
			"byteLength":30852,
			"byteOffset":50112,
			"target":34962
		},
		{
			"buffer":0,
			"byteLength":20568,
			"byteOffset":80964,
			"target":34962
		},
		{
			"buffer":0,
			"byteLength":14592,
			"byteOffset":101532,
			"target":34963
		}
	],
	"samplers":[
		{
			"magFilter":9729,
			"minFilter":9987
		}
	],
	"buffers":[
		{
			"byteLength":116124,
			"uri":"cables.bin"
		}
	]
}
