{
	"asset":{
		"generator":"Khronos glTF Blender I/O v5.0.21",
		"version":"2.0"
	},
	"extensionsUsed":[
		"KHR_materials_specular",
		"KHR_materials_ior"
	],
	"scene":0,
	"scenes":[
		{
			"name":"Scene",
			"nodes":[
				0
			]
		}
	],
	"nodes":[
		{
			"mesh":0,
			"name":"fences",
			"rotation":[
				0.70710688829422,
				0,
				0,
				0.7071066498756409
			]
		}
	],
	"materials":[
		{
			"doubleSided":true,
			"extensions":{
				"KHR_materials_specular":{
					"specularColorFactor":[
						0.04800000041723251,
						0.04800000041723251,
						0.04800000041723251
					]
				},
				"KHR_materials_ior":{
					"ior":0
				}
			},
			"name":"Wirefence",
			"pbrMetallicRoughness":{
				"baseColorTexture":{
					"index":0
				},
				"metallicFactor":0,
				"roughnessFactor":0.9686418771743774
			}
		},
		{
			"doubleSided":true,
			"extensions":{
				"KHR_materials_specular":{
					"specularColorFactor":[
						0.04800000041723251,
						0.04800000041723251,
						0.04800000041723251
					]
				},
				"KHR_materials_ior":{
					"ior":0
				}
			},
			"name":"IronFence",
			"pbrMetallicRoughness":{
				"baseColorTexture":{
					"index":1
				},
				"metallicFactor":0,
				"roughnessFactor":0.9700000286102295
			}
		},
		{
			"doubleSided":true,
			"extensions":{
				"KHR_materials_specular":{
					"specularColorFactor":[
						0.04800000041723251,
						0.04800000041723251,
						0.04800000041723251
					]
				},
				"KHR_materials_ior":{
					"ior":0
				}
			},
			"name":"IronFence_u2IronFenceB_1",
			"pbrMetallicRoughness":{
				"baseColorTexture":{
					"index":2
				},
				"metallicFactor":0,
				"roughnessFactor":0.9700000286102295
			}
		},
		{
			"doubleSided":true,
			"extensions":{
				"KHR_materials_specular":{
					"specularColorFactor":[
						0.04800000041723251,
						0.04800000041723251,
						0.04800000041723251
					]
				},
				"KHR_materials_ior":{
					"ior":0
				}
			},
			"name":"IronFence_u2IronFenceA_1",
			"pbrMetallicRoughness":{
				"baseColorTexture":{
					"index":3
				},
				"metallicFactor":0,
				"roughnessFactor":0.9700000286102295
			}
		},
		{
			"doubleSided":true,
			"extensions":{
				"KHR_materials_specular":{
					"specularColorFactor":[
						0.04800000041723251,
						0.04800000041723251,
						0.04800000041723251
					]
				},
				"KHR_materials_ior":{
					"ior":0
				}
			},
			"name":"SteelPosts_u2NWFence_1",
			"pbrMetallicRoughness":{
				"baseColorTexture":{
					"index":4
				},
				"metallicFactor":0,
				"roughnessFactor":0.9687750339508057
			}
		},
		{
			"doubleSided":true,
			"extensions":{
				"KHR_materials_specular":{
					"specularColorFactor":[
						0.04800000041723251,
						0.04800000041723251,
						0.04800000041723251
					]
				},
				"KHR_materials_ior":{
					"ior":0
				}
			},
			"name":"Wirefence_u2NWFence_1",
			"pbrMetallicRoughness":{
				"baseColorTexture":{
					"index":5
				},
				"metallicFactor":0,
				"roughnessFactor":0.9686418771743774
			}
		},
		{
			"doubleSided":true,
			"extensions":{
				"KHR_materials_specular":{
					"specularColorFactor":[
						0.04800000041723251,
						0.04800000041723251,
						0.04800000041723251
					]
				},
				"KHR_materials_ior":{
					"ior":0
				}
			},
			"name":"ConcreteBase_u2NWFence_1",
			"pbrMetallicRoughness":{
				"baseColorTexture":{
					"index":6
				},
				"metallicFactor":0,
				"roughnessFactor":0.9687750339508057
			}
		}
	],
	"meshes":[
		{
			"name":"Urban Sprawl 2.060",
			"primitives":[
				{
					"attributes":{
						"POSITION":0,
						"NORMAL":1,
						"TEXCOORD_0":2
					},
					"indices":3,
					"material":0
				},
				{
					"attributes":{
						"POSITION":4,
						"NORMAL":5,
						"TEXCOORD_0":6
					},
					"indices":7,
					"material":1
				},
				{
					"attributes":{
						"POSITION":8,
						"NORMAL":9,
						"TEXCOORD_0":10
					},
					"indices":11,
					"material":2
				},
				{
					"attributes":{
						"POSITION":12,
						"NORMAL":13,
						"TEXCOORD_0":14
					},
					"indices":15,
					"material":3
				},
				{
					"attributes":{
						"POSITION":16,
						"NORMAL":17,
						"TEXCOORD_0":18
					},
					"indices":19,
					"material":4
				},
				{
					"attributes":{
						"POSITION":20,
						"NORMAL":21,
						"TEXCOORD_0":22
					},
					"indices":23,
					"material":5
				},
				{
					"attributes":{
						"POSITION":24,
						"NORMAL":25,
						"TEXCOORD_0":26
					},
					"indices":27,
					"material":6
				}
			]
		}
	],
	"textures":[
		{
			"sampler":0,
			"source":0
		},
		{
			"sampler":0,
			"source":1
		},
		{
			"sampler":0,
			"source":1
		},
		{
			"sampler":0,
			"source":1
		},
		{
			"sampler":0,
			"source":0
		},
		{
			"sampler":0,
			"source":0
		},
		{
			"sampler":0,
			"source":2
		}
	],
	"images":[
		{
			"mimeType":"image/jpeg",
			"name":"u2metal1",
			"uri":"u2metal1.jpg"
		},
		{
			"mimeType":"image/jpeg",
			"name":"u2metdark",
			"uri":"u2metdark.jpg"
		},
		{
			"mimeType":"image/jpeg",
			"name":"u2crete2",
			"uri":"u2crete2.jpg"
		}
	],
	"accessors":[
		{
			"bufferView":0,
			"componentType":5126,
			"count":24,
			"max":[
				4.904900074005127,
				32.1348991394043,
				-0.3177250027656555
			],
			"min":[
				4.802199840545654,
				15.90060043334961,
				-1.2681299448013306
			],
			"type":"VEC3"
		},
		{
			"bufferView":1,
			"componentType":5126,
			"count":24,
			"type":"VEC3"
		},
		{
			"bufferView":2,
			"componentType":5126,
			"count":24,
			"type":"VEC2"
		},
		{
			"bufferView":3,
			"componentType":5123,
			"count":36,
			"type":"SCALAR"
		},
		{
			"bufferView":4,
			"componentType":5126,
			"count":4106,
			"max":[
				-9.492609977722168,
				6.903659820556641,
				-0.07225800305604935
			],
			"min":[
				-43.345699310302734,
				6.798590183258057,
				-0.5768269896507263
			],
			"type":"VEC3"
		},
		{
			"bufferView":5,
			"componentType":5126,
			"count":4106,
			"type":"VEC3"
		},
		{
			"bufferView":6,
			"componentType":5126,
			"count":4106,
			"type":"VEC2"
		},
		{
			"bufferView":7,
			"componentType":5123,
			"count":6156,
			"type":"SCALAR"
		},
		{
			"bufferView":8,
			"componentType":5126,
			"count":3258,
			"max":[
				-5.783239841461182,
				0.7494900226593018,
				-0.022400999441742897
			],
			"min":[
				-10.715900421142578,
				-0.7880420088768005,
				-0.5205550193786621
			],
			"type":"VEC3"
		},
		{
			"bufferView":9,
			"componentType":5126,
			"count":3258,
			"type":"VEC3"
		},
		{
			"bufferView":10,
			"componentType":5126,
			"count":3258,
			"type":"VEC2"
		},
		{
			"bufferView":11,
			"componentType":5123,
			"count":4470,
			"type":"SCALAR"
		},
		{
			"bufferView":12,
			"componentType":5126,
			"count":3284,
			"max":[
				10.063899993896484,
				0.7494869828224182,
				-0.025940999388694763
			],
			"min":[
				5.131259918212891,
				-0.7891749739646912,
				-0.5037609934806824
			],
			"type":"VEC3"
		},
		{
			"bufferView":13,
			"componentType":5126,
			"count":3284,
			"type":"VEC3"
		},
		{
			"bufferView":14,
			"componentType":5126,
			"count":3284,
			"type":"VEC2"
		},
		{
			"bufferView":15,
			"componentType":5123,
			"count":4470,
			"type":"SCALAR"
		},
		{
			"bufferView":16,
			"componentType":5126,
			"count":6812,
			"max":[
				-46.50559997558594,
				-7.469480037689209,
				-0.18020400404930115
			],
			"min":[
				-58.2666015625,
				-14.572199821472168,
				-1.7450900077819824
			],
			"type":"VEC3"
		},
		{
			"bufferView":17,
			"componentType":5126,
			"count":6812,
			"type":"VEC3"
		},
		{
			"bufferView":18,
			"componentType":5126,
			"count":6812,
			"type":"VEC2"
		},
		{
			"bufferView":19,
			"componentType":5123,
			"count":14103,
			"type":"SCALAR"
		},
		{
			"bufferView":20,
			"componentType":5126,
			"count":121,
			"max":[
				-46.327598571777344,
				-7.329639911651611,
				-0.28934600949287415
			],
			"min":[
				-58.23310089111328,
				-14.465100288391113,
				-1.6065700054168701
			],
			"type":"VEC3"
		},
		{
			"bufferView":21,
			"componentType":5126,
			"count":121,
			"type":"VEC3"
		},
		{
			"bufferView":22,
			"componentType":5126,
			"count":121,
			"type":"VEC2"
		},
		{
			"bufferView":23,
			"componentType":5123,
			"count":192,
			"type":"SCALAR"
		},
		{
			"bufferView":24,
			"componentType":5126,
			"count":132,
			"max":[
				-46.48419952392578,
				-7.485020160675049,
				-0.14426900446414948
			],
			"min":[
				-58.3390998840332,
				-13.451199531555176,
				-0.22190499305725098
			],
			"type":"VEC3"
		},
		{
			"bufferView":25,
			"componentType":5126,
			"count":132,
			"type":"VEC3"
		},
		{
			"bufferView":26,
			"componentType":5126,
			"count":132,
			"type":"VEC2"
		},
		{
			"bufferView":27,
			"componentType":5123,
			"count":210,
			"type":"SCALAR"
		}
	],
	"bufferViews":[
		{
			"buffer":0,
			"byteLength":288,
			"byteOffset":0,
			"target":34962
		},
		{
			"buffer":0,
			"byteLength":288,
			"byteOffset":288,
			"target":34962
		},
		{
			"buffer":0,
			"byteLength":192,
			"byteOffset":576,
			"target":34962
		},
		{
			"buffer":0,
			"byteLength":72,
			"byteOffset":768,
			"target":34963
		},
		{
			"buffer":0,
			"byteLength":49272,
			"byteOffset":840,
			"target":34962
		},
		{
			"buffer":0,
			"byteLength":49272,
			"byteOffset":50112,
			"target":34962
		},
		{
			"buffer":0,
			"byteLength":32848,
			"byteOffset":99384,
			"target":34962
		},
		{
			"buffer":0,
			"byteLength":12312,
			"byteOffset":132232,
			"target":34963
		},
		{
			"buffer":0,
			"byteLength":39096,
			"byteOffset":144544,
			"target":34962
		},
		{
			"buffer":0,
			"byteLength":39096,
			"byteOffset":183640,
			"target":34962
		},
		{
			"buffer":0,
			"byteLength":26064,
			"byteOffset":222736,
			"target":34962
		},
		{
			"buffer":0,
			"byteLength":8940,
			"byteOffset":248800,
			"target":34963
		},
		{
			"buffer":0,
			"byteLength":39408,
			"byteOffset":257740,
			"target":34962
		},
		{
			"buffer":0,
			"byteLength":39408,
			"byteOffset":297148,
			"target":34962
		},
		{
			"buffer":0,
			"byteLength":26272,
			"byteOffset":336556,
			"target":34962
		},
		{
			"buffer":0,
			"byteLength":8940,
			"byteOffset":362828,
			"target":34963
		},
		{
			"buffer":0,
			"byteLength":81744,
			"byteOffset":371768,
			"target":34962
		},
		{
			"buffer":0,
			"byteLength":81744,
			"byteOffset":453512,
			"target":34962
		},
		{
			"buffer":0,
			"byteLength":54496,
			"byteOffset":535256,
			"target":34962
		},
		{
			"buffer":0,
			"byteLength":28206,
			"byteOffset":589752,
			"target":34963
		},
		{
			"buffer":0,
			"byteLength":1452,
			"byteOffset":617960,
			"target":34962
		},
		{
			"buffer":0,
			"byteLength":1452,
			"byteOffset":619412,
			"target":34962
		},
		{
			"buffer":0,
			"byteLength":968,
			"byteOffset":620864,
			"target":34962
		},
		{
			"buffer":0,
			"byteLength":384,
			"byteOffset":621832,
			"target":34963
		},
		{
			"buffer":0,
			"byteLength":1584,
			"byteOffset":622216,
			"target":34962
		},
		{
			"buffer":0,
			"byteLength":1584,
			"byteOffset":623800,
			"target":34962
		},
		{
			"buffer":0,
			"byteLength":1056,
			"byteOffset":625384,
			"target":34962
		},
		{
			"buffer":0,
			"byteLength":420,
			"byteOffset":626440,
			"target":34963
		}
	],
	"samplers":[
		{
			"magFilter":9729,
			"minFilter":9987
		}
	],
	"buffers":[
		{
			"byteLength":626860,
			"uri":"fences.bin"
		}
	]
}
