{
	"asset":{
		"generator":"Khronos glTF Blender I/O v5.0.21",
		"version":"2.0"
	},
	"extensionsUsed":[
		"KHR_materials_specular",
		"KHR_materials_ior"
	],
	"scene":0,
	"scenes":[
		{
			"name":"Scene",
			"nodes":[
				0
			]
		}
	],
	"nodes":[
		{
			"mesh":0,
			"name":"street_infrastructure",
			"rotation":[
				0.70710688829422,
				0,
				0,
				0.7071066498756409
			]
		}
	],
	"materials":[
		{
			"doubleSided":true,
			"extensions":{
				"KHR_materials_specular":{
					"specularColorFactor":[
						0.04800000041723251,
						0.04800000041723251,
						0.04800000041723251
					]
				},
				"KHR_materials_ior":{
					"ior":0
				}
			},
			"name":"SewerGrate1_u2SERoad_1",
			"pbrMetallicRoughness":{
				"baseColorTexture":{
					"index":0
				},
				"metallicFactor":0,
				"roughnessFactor":0.9691779017448425
			}
		},
		{
			"doubleSided":true,
			"extensions":{
				"KHR_materials_specular":{
					"specularColorFactor":[
						0.04800000041723251,
						0.04800000041723251,
						0.04800000041723251
					]
				},
				"KHR_materials_ior":{
					"ior":0
				}
			},
			"name":"SewerGrate1_u2NWRoad_1",
			"pbrMetallicRoughness":{
				"baseColorTexture":{
					"index":1
				},
				"metallicFactor":0,
				"roughnessFactor":0.9691779017448425
			}
		},
		{
			"doubleSided":true,
			"extensions":{
				"KHR_materials_specular":{
					"specularColorFactor":[
						0.04800000041723251,
						0.04800000041723251,
						0.04800000041723251
					]
				},
				"KHR_materials_ior":{
					"ior":0
				}
			},
			"name":"IronFence_u2NERoad_1",
			"pbrMetallicRoughness":{
				"baseColorTexture":{
					"index":2
				},
				"metallicFactor":0,
				"roughnessFactor":0.9700000286102295
			}
		},
		{
			"doubleSided":true,
			"extensions":{
				"KHR_materials_specular":{
					"specularColorFactor":[
						0.04800000041723251,
						0.04800000041723251,
						0.04800000041723251
					]
				},
				"KHR_materials_ior":{
					"ior":0
				}
			},
			"name":"SewerGrate1_u2NERoad_1",
			"pbrMetallicRoughness":{
				"baseColorTexture":{
					"index":3
				},
				"metallicFactor":0,
				"roughnessFactor":0.9691779017448425
			}
		},
		{
			"doubleSided":true,
			"extensions":{
				"KHR_materials_specular":{
					"specularColorFactor":[
						0.04800000041723251,
						0.04800000041723251,
						0.04800000041723251
					]
				},
				"KHR_materials_ior":{
					"ior":0
				}
			},
			"name":"SewerGrate1_u2SWRoad_1",
			"pbrMetallicRoughness":{
				"baseColorTexture":{
					"index":4
				},
				"metallicFactor":0,
				"roughnessFactor":0.9691779017448425
			}
		}
	],
	"meshes":[
		{
			"name":"Urban Sprawl 2.003",
			"primitives":[
				{
					"attributes":{
						"POSITION":0,
						"NORMAL":1,
						"TEXCOORD_0":2
					},
					"indices":3,
					"material":0
				},
				{
					"attributes":{
						"POSITION":4,
						"NORMAL":5,
						"TEXCOORD_0":6
					},
					"indices":7,
					"material":1
				},
				{
					"attributes":{
						"POSITION":8,
						"NORMAL":9,
						"TEXCOORD_0":10
					},
					"indices":11,
					"material":2
				},
				{
					"attributes":{
						"POSITION":12,
						"NORMAL":13,
						"TEXCOORD_0":14
					},
					"indices":15,
					"material":3
				},
				{
					"attributes":{
						"POSITION":16,
						"NORMAL":17,
						"TEXCOORD_0":18
					},
					"indices":19,
					"material":4
				}
			]
		}
	],
	"textures":[
		{
			"sampler":0,
			"source":0
		},
		{
			"sampler":0,
			"source":0
		},
		{
			"sampler":0,
			"source":1
		},
		{
			"sampler":0,
			"source":0
		},
		{
			"sampler":0,
			"source":0
		}
	],
	"images":[
		{
			"mimeType":"image/jpeg",
			"name":"u2grt1",
			"uri":"u2grt1.jpg"
		},
		{
			"mimeType":"image/jpeg",
			"name":"u2metdark",
			"uri":"u2metdark.jpg"
		}
	],
	"accessors":[
		{
			"bufferView":0,
			"componentType":5126,
			"count":126,
			"max":[
				10.736800193786621,
				28.240299224853516,
				-0.10098700225353241
			],
			"min":[
				3.4140501022338867,
				7.661250114440918,
				-0.22074000537395477
			],
			"type":"VEC3"
		},
		{
			"bufferView":1,
			"componentType":5126,
			"count":126,
			"type":"VEC3"
		},
		{
			"bufferView":2,
			"componentType":5126,
			"count":126,
			"type":"VEC2"
		},
		{
			"bufferView":3,
			"componentType":5123,
			"count":198,
			"type":"SCALAR"
		},
		{
			"bufferView":4,
			"componentType":5126,
			"count":254,
			"max":[
				-3.501889944076538,
				-0.15159299969673157,
				-0.03440900146961212
			],
			"min":[
				-48.38629913330078,
				-8.880160331726074,
				-0.18974100053310394
			],
			"type":"VEC3"
		},
		{
			"bufferView":5,
			"componentType":5126,
			"count":254,
			"type":"VEC3"
		},
		{
			"bufferView":6,
			"componentType":5126,
			"count":254,
			"type":"VEC2"
		},
		{
			"bufferView":7,
			"componentType":5123,
			"count":396,
			"type":"SCALAR"
		},
		{
			"bufferView":8,
			"componentType":5126,
			"count":14037,
			"max":[
				64.16020202636719,
				-7.466639995574951,
				-0.5555149912834167
			],
			"min":[
				3.2734899520874023,
				-38.57429885864258,
				-1.8878999948501587
			],
			"type":"VEC3"
		},
		{
			"bufferView":9,
			"componentType":5126,
			"count":14037,
			"type":"VEC3"
		},
		{
			"bufferView":10,
			"componentType":5126,
			"count":14037,
			"type":"VEC2"
		},
		{
			"bufferView":11,
			"componentType":5123,
			"count":21219,
			"type":"SCALAR"
		},
		{
			"bufferView":12,
			"componentType":5126,
			"count":114,
			"max":[
				58.578399658203125,
				-7.063179969787598,
				-0.15148599445819855
			],
			"min":[
				53.98590087890625,
				-16.040199279785156,
				-0.17978200316429138
			],
			"type":"VEC3"
		},
		{
			"bufferView":13,
			"componentType":5126,
			"count":114,
			"type":"VEC3"
		},
		{
			"bufferView":14,
			"componentType":5126,
			"count":114,
			"type":"VEC2"
		},
		{
			"bufferView":15,
			"componentType":5123,
			"count":180,
			"type":"SCALAR"
		},
		{
			"bufferView":16,
			"componentType":5126,
			"count":255,
			"max":[
				-3.5363500118255615,
				45.3578987121582,
				-0.06898999959230423
			],
			"min":[
				-36.412200927734375,
				7.106100082397461,
				-0.381850004196167
			],
			"type":"VEC3"
		},
		{
			"bufferView":17,
			"componentType":5126,
			"count":255,
			"type":"VEC3"
		},
		{
			"bufferView":18,
			"componentType":5126,
			"count":255,
			"type":"VEC2"
		},
		{
			"bufferView":19,
			"componentType":5123,
			"count":396,
			"type":"SCALAR"
		}
	],
	"bufferViews":[
		{
			"buffer":0,
			"byteLength":1512,
			"byteOffset":0,
			"target":34962
		},
		{
			"buffer":0,
			"byteLength":1512,
			"byteOffset":1512,
			"target":34962
		},
		{
			"buffer":0,
			"byteLength":1008,
			"byteOffset":3024,
			"target":34962
		},
		{
			"buffer":0,
			"byteLength":396,
			"byteOffset":4032,
			"target":34963
		},
		{
			"buffer":0,
			"byteLength":3048,
			"byteOffset":4428,
			"target":34962
		},
		{
			"buffer":0,
			"byteLength":3048,
			"byteOffset":7476,
			"target":34962
		},
		{
			"buffer":0,
			"byteLength":2032,
			"byteOffset":10524,
			"target":34962
		},
		{
			"buffer":0,
			"byteLength":792,
			"byteOffset":12556,
			"target":34963
		},
		{
			"buffer":0,
			"byteLength":168444,
			"byteOffset":13348,
			"target":34962
		},
		{
			"buffer":0,
			"byteLength":168444,
			"byteOffset":181792,
			"target":34962
		},
		{
			"buffer":0,
			"byteLength":112296,
			"byteOffset":350236,
			"target":34962
		},
		{
			"buffer":0,
			"byteLength":42438,
			"byteOffset":462532,
			"target":34963
		},
		{
			"buffer":0,
			"byteLength":1368,
			"byteOffset":504972,
			"target":34962
		},
		{
			"buffer":0,
			"byteLength":1368,
			"byteOffset":506340,
			"target":34962
		},
		{
			"buffer":0,
			"byteLength":912,
			"byteOffset":507708,
			"target":34962
		},
		{
			"buffer":0,
			"byteLength":360,
			"byteOffset":508620,
			"target":34963
		},
		{
			"buffer":0,
			"byteLength":3060,
			"byteOffset":508980,
			"target":34962
		},
		{
			"buffer":0,
			"byteLength":3060,
			"byteOffset":512040,
			"target":34962
		},
		{
			"buffer":0,
			"byteLength":2040,
			"byteOffset":515100,
			"target":34962
		},
		{
			"buffer":0,
			"byteLength":792,
			"byteOffset":517140,
			"target":34963
		}
	],
	"samplers":[
		{
			"magFilter":9729,
			"minFilter":9987
		}
	],
	"buffers":[
		{
			"byteLength":517932,
			"uri":"street_infrastructure.bin"
		}
	]
}
