{
	"asset":{
		"generator":"Khronos glTF Blender I/O v5.0.21",
		"version":"2.0"
	},
	"extensionsUsed":[
		"KHR_materials_specular",
		"KHR_materials_ior"
	],
	"scene":0,
	"scenes":[
		{
			"name":"Scene",
			"nodes":[
				0
			]
		}
	],
	"nodes":[
		{
			"mesh":0,
			"name":"u2EBuild4",
			"rotation":[
				0.70710688829422,
				0,
				0,
				0.7071066498756409
			]
		}
	],
	"materials":[
		{
			"doubleSided":true,
			"extensions":{
				"KHR_materials_specular":{
					"specularColorFactor":[
						0.04800000041723251,
						0.04800000041723251,
						0.04800000041723251
					]
				},
				"KHR_materials_ior":{
					"ior":0
				}
			},
			"name":"crConcrete01_u2EBuild4_1",
			"pbrMetallicRoughness":{
				"baseColorTexture":{
					"index":0
				},
				"metallicFactor":0,
				"roughnessFactor":0.9687750339508057
			}
		},
		{
			"doubleSided":true,
			"extensions":{
				"KHR_materials_specular":{
					"specularColorFactor":[
						0.04800000041723251,
						0.04800000041723251,
						0.04800000041723251
					]
				},
				"KHR_materials_ior":{
					"ior":0
				}
			},
			"name":"Props1_u2EBuild4_1",
			"pbrMetallicRoughness":{
				"baseColorTexture":{
					"index":1
				},
				"metallicFactor":0,
				"roughnessFactor":0.9685357213020325
			}
		},
		{
			"doubleSided":true,
			"extensions":{
				"KHR_materials_specular":{
					"specularColorFactor":[
						0.04800000041723251,
						0.04800000041723251,
						0.04800000041723251
					]
				},
				"KHR_materials_ior":{
					"ior":0
				}
			},
			"name":"WindowE_u2EBuild4_1",
			"pbrMetallicRoughness":{
				"baseColorTexture":{
					"index":2
				},
				"metallicFactor":0,
				"roughnessFactor":0.9691779017448425
			}
		},
		{
			"doubleSided":true,
			"extensions":{
				"KHR_materials_specular":{
					"specularColorFactor":[
						0.04800000041723251,
						0.04800000041723251,
						0.04800000041723251
					]
				},
				"KHR_materials_ior":{
					"ior":0
				}
			},
			"name":"Facade_u2EBuild4_1",
			"pbrMetallicRoughness":{
				"baseColorTexture":{
					"index":3
				},
				"metallicFactor":0,
				"roughnessFactor":0.9687750339508057
			}
		},
		{
			"doubleSided":true,
			"extensions":{
				"KHR_materials_specular":{
					"specularColorFactor":[
						0.04800000041723251,
						0.04800000041723251,
						0.04800000041723251
					]
				},
				"KHR_materials_ior":{
					"ior":0
				}
			},
			"name":"WindowsK_u2EBuild4_1",
			"pbrMetallicRoughness":{
				"baseColorTexture":{
					"index":4
				},
				"metallicFactor":0,
				"roughnessFactor":0.9691779017448425
			}
		},
		{
			"doubleSided":true,
			"extensions":{
				"KHR_materials_specular":{
					"specularColorFactor":[
						0.04800000041723251,
						0.04800000041723251,
						0.04800000041723251
					]
				},
				"KHR_materials_ior":{
					"ior":0
				}
			},
			"name":"WindowsJ_u2EBuild4_1",
			"pbrMetallicRoughness":{
				"baseColorTexture":{
					"index":5
				},
				"metallicFactor":0,
				"roughnessFactor":0.9691779017448425
			}
		},
		{
			"doubleSided":true,
			"extensions":{
				"KHR_materials_specular":{
					"specularColorFactor":[
						0.04800000041723251,
						0.04800000041723251,
						0.04800000041723251
					]
				},
				"KHR_materials_ior":{
					"ior":0
				}
			},
			"name":"Concrete_u2EBuild4_1",
			"pbrMetallicRoughness":{
				"baseColorTexture":{
					"index":6
				},
				"metallicFactor":0,
				"roughnessFactor":0.9687750339508057
			}
		},
		{
			"doubleSided":true,
			"extensions":{
				"KHR_materials_specular":{
					"specularColorFactor":[
						0.04800000041723251,
						0.04800000041723251,
						0.04800000041723251
					]
				},
				"KHR_materials_ior":{
					"ior":0
				}
			},
			"name":"Rooftop_u2EBuild4_1",
			"pbrMetallicRoughness":{
				"baseColorTexture":{
					"index":7
				},
				"metallicFactor":0,
				"roughnessFactor":0.9687750339508057
			}
		},
		{
			"doubleSided":true,
			"extensions":{
				"KHR_materials_specular":{
					"specularColorFactor":[
						0.04800000041723251,
						0.04800000041723251,
						0.04800000041723251
					]
				},
				"KHR_materials_ior":{
					"ior":0
				}
			},
			"name":"Brick3_u2EBuild4_1",
			"pbrMetallicRoughness":{
				"baseColorTexture":{
					"index":8
				},
				"metallicFactor":0,
				"roughnessFactor":0.9687750339508057
			}
		},
		{
			"doubleSided":true,
			"extensions":{
				"KHR_materials_specular":{
					"specularColorFactor":[
						0.04800000041723251,
						0.04800000041723251,
						0.04800000041723251
					]
				},
				"KHR_materials_ior":{
					"ior":0
				}
			},
			"name":"RooftopProps_u2EBuild4_1",
			"pbrMetallicRoughness":{
				"baseColorTexture":{
					"index":9
				},
				"metallicFactor":0,
				"roughnessFactor":0.9685357213020325
			}
		},
		{
			"doubleSided":true,
			"extensions":{
				"KHR_materials_specular":{
					"specularColorFactor":[
						0.04800000041723251,
						0.04800000041723251,
						0.04800000041723251
					]
				},
				"KHR_materials_ior":{
					"ior":0
				}
			},
			"name":"Doors_u2EBuild4_1",
			"pbrMetallicRoughness":{
				"baseColorTexture":{
					"index":10
				},
				"metallicFactor":0,
				"roughnessFactor":0.9691779017448425
			}
		},
		{
			"doubleSided":true,
			"extensions":{
				"KHR_materials_specular":{
					"specularColorFactor":[
						0.04800000041723251,
						0.04800000041723251,
						0.04800000041723251
					]
				},
				"KHR_materials_ior":{
					"ior":0
				}
			},
			"name":"PlyWood_u2EBuild4_1",
			"pbrMetallicRoughness":{
				"baseColorTexture":{
					"index":11
				},
				"metallicFactor":0,
				"roughnessFactor":0.9691779017448425
			}
		},
		{
			"doubleSided":true,
			"extensions":{
				"KHR_materials_specular":{
					"specularColorFactor":[
						0.04800000041723251,
						0.04800000041723251,
						0.04800000041723251
					]
				},
				"KHR_materials_ior":{
					"ior":0
				}
			},
			"name":"Rollup_u2EBuild4_1",
			"pbrMetallicRoughness":{
				"baseColorTexture":{
					"index":12
				},
				"metallicFactor":0,
				"roughnessFactor":0.9693813920021057
			}
		},
		{
			"doubleSided":true,
			"extensions":{
				"KHR_materials_specular":{
					"specularColorFactor":[
						0.04800000041723251,
						0.04800000041723251,
						0.04800000041723251
					]
				},
				"KHR_materials_ior":{
					"ior":0
				}
			},
			"name":"Metalgrey_u2EBuild4_1",
			"pbrMetallicRoughness":{
				"baseColorTexture":{
					"index":13
				},
				"metallicFactor":0,
				"roughnessFactor":0.9687750339508057
			}
		}
	],
	"meshes":[
		{
			"name":"Urban Sprawl 2.052",
			"primitives":[
				{
					"attributes":{
						"POSITION":0,
						"NORMAL":1,
						"TEXCOORD_0":2
					},
					"indices":3,
					"material":0
				},
				{
					"attributes":{
						"POSITION":4,
						"NORMAL":5,
						"TEXCOORD_0":6
					},
					"indices":7,
					"material":1
				},
				{
					"attributes":{
						"POSITION":8,
						"NORMAL":9,
						"TEXCOORD_0":10
					},
					"indices":11,
					"material":2
				},
				{
					"attributes":{
						"POSITION":12,
						"NORMAL":13,
						"TEXCOORD_0":14
					},
					"indices":15,
					"material":3
				},
				{
					"attributes":{
						"POSITION":16,
						"NORMAL":17,
						"TEXCOORD_0":18
					},
					"indices":19,
					"material":4
				},
				{
					"attributes":{
						"POSITION":20,
						"NORMAL":21,
						"TEXCOORD_0":22
					},
					"indices":23,
					"material":5
				},
				{
					"attributes":{
						"POSITION":24,
						"NORMAL":25,
						"TEXCOORD_0":26
					},
					"indices":27,
					"material":6
				},
				{
					"attributes":{
						"POSITION":28,
						"NORMAL":29,
						"TEXCOORD_0":30
					},
					"indices":31,
					"material":7
				},
				{
					"attributes":{
						"POSITION":32,
						"NORMAL":33,
						"TEXCOORD_0":34
					},
					"indices":35,
					"material":8
				},
				{
					"attributes":{
						"POSITION":36,
						"NORMAL":37,
						"TEXCOORD_0":38
					},
					"indices":39,
					"material":9
				},
				{
					"attributes":{
						"POSITION":40,
						"NORMAL":41,
						"TEXCOORD_0":42
					},
					"indices":43,
					"material":10
				},
				{
					"attributes":{
						"POSITION":44,
						"NORMAL":45,
						"TEXCOORD_0":46
					},
					"indices":47,
					"material":11
				},
				{
					"attributes":{
						"POSITION":48,
						"NORMAL":49,
						"TEXCOORD_0":50
					},
					"indices":51,
					"material":12
				},
				{
					"attributes":{
						"POSITION":52,
						"NORMAL":53,
						"TEXCOORD_0":54
					},
					"indices":55,
					"material":13
				}
			]
		}
	],
	"textures":[
		{
			"sampler":0,
			"source":0
		},
		{
			"sampler":0,
			"source":1
		},
		{
			"sampler":0,
			"source":2
		},
		{
			"sampler":0,
			"source":3
		},
		{
			"sampler":0,
			"source":4
		},
		{
			"sampler":0,
			"source":4
		},
		{
			"sampler":0,
			"source":5
		},
		{
			"sampler":0,
			"source":6
		},
		{
			"sampler":0,
			"source":7
		},
		{
			"sampler":0,
			"source":8
		},
		{
			"sampler":0,
			"source":9
		},
		{
			"sampler":0,
			"source":10
		},
		{
			"sampler":0,
			"source":11
		},
		{
			"sampler":0,
			"source":12
		}
	],
	"images":[
		{
			"mimeType":"image/jpeg",
			"name":"u2crete1",
			"uri":"u2crete1.jpg"
		},
		{
			"mimeType":"image/jpeg",
			"name":"u2props1",
			"uri":"u2props1.jpg"
		},
		{
			"mimeType":"image/jpeg",
			"name":"u2win3",
			"uri":"u2win3.jpg"
		},
		{
			"mimeType":"image/jpeg",
			"name":"u2brick9",
			"uri":"u2brick9.jpg"
		},
		{
			"mimeType":"image/jpeg",
			"name":"u2nebldg4",
			"uri":"u2nebldg4.jpg"
		},
		{
			"mimeType":"image/jpeg",
			"name":"u2crete2",
			"uri":"u2crete2.jpg"
		},
		{
			"mimeType":"image/jpeg",
			"name":"u2crete3",
			"uri":"u2crete3.jpg"
		},
		{
			"mimeType":"image/jpeg",
			"name":"Bricks",
			"uri":"Bricks.jpg"
		},
		{
			"mimeType":"image/jpeg",
			"name":"u2props4",
			"uri":"u2props4.jpg"
		},
		{
			"mimeType":"image/jpeg",
			"name":"u2redbldg",
			"uri":"u2redbldg.jpg"
		},
		{
			"mimeType":"image/jpeg",
			"name":"u2ply",
			"uri":"u2ply.jpg"
		},
		{
			"mimeType":"image/jpeg",
			"name":"u2rollup1",
			"uri":"u2rollup1.jpg"
		},
		{
			"mimeType":"image/jpeg",
			"name":"u2metal1",
			"uri":"u2metal1.jpg"
		}
	],
	"accessors":[
		{
			"bufferView":0,
			"componentType":5126,
			"count":610,
			"max":[
				69.95429992675781,
				29.89109992980957,
				0.4160560071468353
			],
			"min":[
				65.02100372314453,
				18.081600189208984,
				-19.720699310302734
			],
			"type":"VEC3"
		},
		{
			"bufferView":1,
			"componentType":5126,
			"count":610,
			"type":"VEC3"
		},
		{
			"bufferView":2,
			"componentType":5126,
			"count":610,
			"type":"VEC2"
		},
		{
			"bufferView":3,
			"componentType":5123,
			"count":1062,
			"type":"SCALAR"
		},
		{
			"bufferView":4,
			"componentType":5126,
			"count":2016,
			"max":[
				69.91919708251953,
				29.859600067138672,
				-0.08349079638719559
			],
			"min":[
				65.03070068359375,
				18.1343994140625,
				-18.706499099731445
			],
			"type":"VEC3"
		},
		{
			"bufferView":5,
			"componentType":5126,
			"count":2016,
			"type":"VEC3"
		},
		{
			"bufferView":6,
			"componentType":5126,
			"count":2016,
			"type":"VEC2"
		},
		{
			"bufferView":7,
			"componentType":5123,
			"count":2670,
			"type":"SCALAR"
		},
		{
			"bufferView":8,
			"componentType":5126,
			"count":60,
			"max":[
				69.50070190429688,
				29.797700881958008,
				-2.7990100383758545
			],
			"min":[
				65.7177963256836,
				18.196300506591797,
				-17.888700485229492
			],
			"type":"VEC3"
		},
		{
			"bufferView":9,
			"componentType":5126,
			"count":60,
			"type":"VEC3"
		},
		{
			"bufferView":10,
			"componentType":5126,
			"count":60,
			"type":"VEC2"
		},
		{
			"bufferView":11,
			"componentType":5123,
			"count":90,
			"type":"SCALAR"
		},
		{
			"bufferView":12,
			"componentType":5126,
			"count":1057,
			"max":[
				69.5376968383789,
				29.817699432373047,
				0.07984430342912674
			],
			"min":[
				65.04039764404297,
				18.176300048828125,
				-17.92569923400879
			],
			"type":"VEC3"
		},
		{
			"bufferView":13,
			"componentType":5126,
			"count":1057,
			"type":"VEC3"
		},
		{
			"bufferView":14,
			"componentType":5126,
			"count":1057,
			"type":"VEC2"
		},
		{
			"bufferView":15,
			"componentType":5123,
			"count":1728,
			"type":"SCALAR"
		},
		{
			"bufferView":16,
			"componentType":5126,
			"count":372,
			"max":[
				69.81300354003906,
				29.38159942626953,
				-1.8224999904632568
			],
			"min":[
				65.1427993774414,
				18.595600128173828,
				-19.128299713134766
			],
			"type":"VEC3"
		},
		{
			"bufferView":17,
			"componentType":5126,
			"count":372,
			"type":"VEC3"
		},
		{
			"bufferView":18,
			"componentType":5126,
			"count":372,
			"type":"VEC2"
		},
		{
			"bufferView":19,
			"componentType":5123,
			"count":558,
			"type":"SCALAR"
		},
		{
			"bufferView":20,
			"componentType":5126,
			"count":588,
			"max":[
				69.81300354003906,
				29.38159942626953,
				-1.8224999904632568
			],
			"min":[
				65.1427993774414,
				18.595600128173828,
				-19.128299713134766
			],
			"type":"VEC3"
		},
		{
			"bufferView":21,
			"componentType":5126,
			"count":588,
			"type":"VEC3"
		},
		{
			"bufferView":22,
			"componentType":5126,
			"count":588,
			"type":"VEC2"
		},
		{
			"bufferView":23,
			"componentType":5123,
			"count":882,
			"type":"SCALAR"
		},
		{
			"bufferView":24,
			"componentType":5126,
			"count":84,
			"max":[
				69.95429992675781,
				29.891000747680664,
				0.2750779986381531
			],
			"min":[
				65.02100372314453,
				18.081600189208984,
				-19.353099822998047
			],
			"type":"VEC3"
		},
		{
			"bufferView":25,
			"componentType":5126,
			"count":84,
			"type":"VEC3"
		},
		{
			"bufferView":26,
			"componentType":5126,
			"count":84,
			"type":"VEC2"
		},
		{
			"bufferView":27,
			"componentType":5123,
			"count":132,
			"type":"SCALAR"
		},
		{
			"bufferView":28,
			"componentType":5126,
			"count":57,
			"max":[
				69.95429992675781,
				29.891000747680664,
				-19.447099685668945
			],
			"min":[
				65.02100372314453,
				18.081600189208984,
				-19.552200317382812
			],
			"type":"VEC3"
		},
		{
			"bufferView":29,
			"componentType":5126,
			"count":57,
			"type":"VEC3"
		},
		{
			"bufferView":30,
			"componentType":5126,
			"count":57,
			"type":"VEC2"
		},
		{
			"bufferView":31,
			"componentType":5123,
			"count":102,
			"type":"SCALAR"
		},
		{
			"bufferView":32,
			"componentType":5126,
			"count":20,
			"max":[
				69.93070220947266,
				29.83449935913086,
				0.2458219975233078
			],
			"min":[
				65.20570373535156,
				18.138200759887695,
				-1.2849400043487549
			],
			"type":"VEC3"
		},
		{
			"bufferView":33,
			"componentType":5126,
			"count":20,
			"type":"VEC3"
		},
		{
			"bufferView":34,
			"componentType":5126,
			"count":20,
			"type":"VEC2"
		},
		{
			"bufferView":35,
			"componentType":5123,
			"count":48,
			"type":"SCALAR"
		},
		{
			"bufferView":36,
			"componentType":5126,
			"count":741,
			"max":[
				69.05829620361328,
				28.754100799560547,
				-0.02034910023212433
			],
			"min":[
				65.08660125732422,
				20.93560028076172,
				-19.730199813842773
			],
			"type":"VEC3"
		},
		{
			"bufferView":37,
			"componentType":5126,
			"count":741,
			"type":"VEC3"
		},
		{
			"bufferView":38,
			"componentType":5126,
			"count":741,
			"type":"VEC2"
		},
		{
			"bufferView":39,
			"componentType":5123,
			"count":1398,
			"type":"SCALAR"
		},
		{
			"bufferView":40,
			"componentType":5126,
			"count":4,
			"max":[
				65.08809661865234,
				25.17770004272461,
				-0.02187589928507805
			],
			"min":[
				65.08660125732422,
				24.764999389648438,
				-0.9069409966468811
			],
			"type":"VEC3"
		},
		{
			"bufferView":41,
			"componentType":5126,
			"count":4,
			"type":"VEC3"
		},
		{
			"bufferView":42,
			"componentType":5126,
			"count":4,
			"type":"VEC2"
		},
		{
			"bufferView":43,
			"componentType":5123,
			"count":6,
			"type":"SCALAR"
		},
		{
			"bufferView":44,
			"componentType":5126,
			"count":164,
			"max":[
				65.10209655761719,
				29.183900833129883,
				-0.028699299320578575
			],
			"min":[
				65.09230041503906,
				18.881399154663086,
				-0.9531769752502441
			],
			"type":"VEC3"
		},
		{
			"bufferView":45,
			"componentType":5126,
			"count":164,
			"type":"VEC3"
		},
		{
			"bufferView":46,
			"componentType":5126,
			"count":164,
			"type":"VEC2"
		},
		{
			"bufferView":47,
			"componentType":5123,
			"count":210,
			"type":"SCALAR"
		},
		{
			"bufferView":48,
			"componentType":5126,
			"count":24,
			"max":[
				65.18460083007812,
				29.1156005859375,
				-0.0006427919724956155
			],
			"min":[
				65.18460083007812,
				18.97879981994629,
				-1.04298996925354
			],
			"type":"VEC3"
		},
		{
			"bufferView":49,
			"componentType":5126,
			"count":24,
			"type":"VEC3"
		},
		{
			"bufferView":50,
			"componentType":5126,
			"count":24,
			"type":"VEC2"
		},
		{
			"bufferView":51,
			"componentType":5123,
			"count":36,
			"type":"SCALAR"
		},
		{
			"bufferView":52,
			"componentType":5126,
			"count":542,
			"max":[
				65.18460083007812,
				29.131900787353516,
				0.015670299530029297
			],
			"min":[
				65.0343017578125,
				18.958499908447266,
				-1.0592999458312988
			],
			"type":"VEC3"
		},
		{
			"bufferView":53,
			"componentType":5126,
			"count":542,
			"type":"VEC3"
		},
		{
			"bufferView":54,
			"componentType":5126,
			"count":542,
			"type":"VEC2"
		},
		{
			"bufferView":55,
			"componentType":5123,
			"count":936,
			"type":"SCALAR"
		}
	],
	"bufferViews":[
		{
			"buffer":0,
			"byteLength":7320,
			"byteOffset":0,
			"target":34962
		},
		{
			"buffer":0,
			"byteLength":7320,
			"byteOffset":7320,
			"target":34962
		},
		{
			"buffer":0,
			"byteLength":4880,
			"byteOffset":14640,
			"target":34962
		},
		{
			"buffer":0,
			"byteLength":2124,
			"byteOffset":19520,
			"target":34963
		},
		{
			"buffer":0,
			"byteLength":24192,
			"byteOffset":21644,
			"target":34962
		},
		{
			"buffer":0,
			"byteLength":24192,
			"byteOffset":45836,
			"target":34962
		},
		{
			"buffer":0,
			"byteLength":16128,
			"byteOffset":70028,
			"target":34962
		},
		{
			"buffer":0,
			"byteLength":5340,
			"byteOffset":86156,
			"target":34963
		},
		{
			"buffer":0,
			"byteLength":720,
			"byteOffset":91496,
			"target":34962
		},
		{
			"buffer":0,
			"byteLength":720,
			"byteOffset":92216,
			"target":34962
		},
		{
			"buffer":0,
			"byteLength":480,
			"byteOffset":92936,
			"target":34962
		},
		{
			"buffer":0,
			"byteLength":180,
			"byteOffset":93416,
			"target":34963
		},
		{
			"buffer":0,
			"byteLength":12684,
			"byteOffset":93596,
			"target":34962
		},
		{
			"buffer":0,
			"byteLength":12684,
			"byteOffset":106280,
			"target":34962
		},
		{
			"buffer":0,
			"byteLength":8456,
			"byteOffset":118964,
			"target":34962
		},
		{
			"buffer":0,
			"byteLength":3456,
			"byteOffset":127420,
			"target":34963
		},
		{
			"buffer":0,
			"byteLength":4464,
			"byteOffset":130876,
			"target":34962
		},
		{
			"buffer":0,
			"byteLength":4464,
			"byteOffset":135340,
			"target":34962
		},
		{
			"buffer":0,
			"byteLength":2976,
			"byteOffset":139804,
			"target":34962
		},
		{
			"buffer":0,
			"byteLength":1116,
			"byteOffset":142780,
			"target":34963
		},
		{
			"buffer":0,
			"byteLength":7056,
			"byteOffset":143896,
			"target":34962
		},
		{
			"buffer":0,
			"byteLength":7056,
			"byteOffset":150952,
			"target":34962
		},
		{
			"buffer":0,
			"byteLength":4704,
			"byteOffset":158008,
			"target":34962
		},
		{
			"buffer":0,
			"byteLength":1764,
			"byteOffset":162712,
			"target":34963
		},
		{
			"buffer":0,
			"byteLength":1008,
			"byteOffset":164476,
			"target":34962
		},
		{
			"buffer":0,
			"byteLength":1008,
			"byteOffset":165484,
			"target":34962
		},
		{
			"buffer":0,
			"byteLength":672,
			"byteOffset":166492,
			"target":34962
		},
		{
			"buffer":0,
			"byteLength":264,
			"byteOffset":167164,
			"target":34963
		},
		{
			"buffer":0,
			"byteLength":684,
			"byteOffset":167428,
			"target":34962
		},
		{
			"buffer":0,
			"byteLength":684,
			"byteOffset":168112,
			"target":34962
		},
		{
			"buffer":0,
			"byteLength":456,
			"byteOffset":168796,
			"target":34962
		},
		{
			"buffer":0,
			"byteLength":204,
			"byteOffset":169252,
			"target":34963
		},
		{
			"buffer":0,
			"byteLength":240,
			"byteOffset":169456,
			"target":34962
		},
		{
			"buffer":0,
			"byteLength":240,
			"byteOffset":169696,
			"target":34962
		},
		{
			"buffer":0,
			"byteLength":160,
			"byteOffset":169936,
			"target":34962
		},
		{
			"buffer":0,
			"byteLength":96,
			"byteOffset":170096,
			"target":34963
		},
		{
			"buffer":0,
			"byteLength":8892,
			"byteOffset":170192,
			"target":34962
		},
		{
			"buffer":0,
			"byteLength":8892,
			"byteOffset":179084,
			"target":34962
		},
		{
			"buffer":0,
			"byteLength":5928,
			"byteOffset":187976,
			"target":34962
		},
		{
			"buffer":0,
			"byteLength":2796,
			"byteOffset":193904,
			"target":34963
		},
		{
			"buffer":0,
			"byteLength":48,
			"byteOffset":196700,
			"target":34962
		},
		{
			"buffer":0,
			"byteLength":48,
			"byteOffset":196748,
			"target":34962
		},
		{
			"buffer":0,
			"byteLength":32,
			"byteOffset":196796,
			"target":34962
		},
		{
			"buffer":0,
			"byteLength":12,
			"byteOffset":196828,
			"target":34963
		},
		{
			"buffer":0,
			"byteLength":1968,
			"byteOffset":196840,
			"target":34962
		},
		{
			"buffer":0,
			"byteLength":1968,
			"byteOffset":198808,
			"target":34962
		},
		{
			"buffer":0,
			"byteLength":1312,
			"byteOffset":200776,
			"target":34962
		},
		{
			"buffer":0,
			"byteLength":420,
			"byteOffset":202088,
			"target":34963
		},
		{
			"buffer":0,
			"byteLength":288,
			"byteOffset":202508,
			"target":34962
		},
		{
			"buffer":0,
			"byteLength":288,
			"byteOffset":202796,
			"target":34962
		},
		{
			"buffer":0,
			"byteLength":192,
			"byteOffset":203084,
			"target":34962
		},
		{
			"buffer":0,
			"byteLength":72,
			"byteOffset":203276,
			"target":34963
		},
		{
			"buffer":0,
			"byteLength":6504,
			"byteOffset":203348,
			"target":34962
		},
		{
			"buffer":0,
			"byteLength":6504,
			"byteOffset":209852,
			"target":34962
		},
		{
			"buffer":0,
			"byteLength":4336,
			"byteOffset":216356,
			"target":34962
		},
		{
			"buffer":0,
			"byteLength":1872,
			"byteOffset":220692,
			"target":34963
		}
	],
	"samplers":[
		{
			"magFilter":9729,
			"minFilter":9987
		}
	],
	"buffers":[
		{
			"byteLength":222564,
			"uri":"u2EBuild4.bin"
		}
	]
}
