{
	"asset":{
		"generator":"Khronos glTF Blender I/O v5.0.21",
		"version":"2.0"
	},
	"extensionsUsed":[
		"KHR_materials_specular",
		"KHR_materials_ior"
	],
	"scene":0,
	"scenes":[
		{
			"name":"Scene",
			"nodes":[
				0
			]
		}
	],
	"nodes":[
		{
			"mesh":0,
			"name":"u2EBuild2",
			"rotation":[
				0.70710688829422,
				0,
				0,
				0.7071066498756409
			]
		}
	],
	"materials":[
		{
			"doubleSided":true,
			"extensions":{
				"KHR_materials_specular":{
					"specularColorFactor":[
						0.04800000041723251,
						0.04800000041723251,
						0.04800000041723251
					]
				},
				"KHR_materials_ior":{
					"ior":0
				}
			},
			"name":"Concrete_u2EBuild2_1",
			"pbrMetallicRoughness":{
				"baseColorTexture":{
					"index":0
				},
				"metallicFactor":0,
				"roughnessFactor":0.9687750339508057
			}
		},
		{
			"doubleSided":true,
			"extensions":{
				"KHR_materials_specular":{
					"specularColorFactor":[
						0.04800000041723251,
						0.04800000041723251,
						0.04800000041723251
					]
				},
				"KHR_materials_ior":{
					"ior":0
				}
			},
			"name":"WindowA_u2EBuild2_1",
			"pbrMetallicRoughness":{
				"baseColorTexture":{
					"index":1
				},
				"metallicFactor":0,
				"roughnessFactor":0.9691779017448425
			}
		},
		{
			"doubleSided":true,
			"extensions":{
				"KHR_materials_specular":{
					"specularColorFactor":[
						0.04800000041723251,
						0.04800000041723251,
						0.04800000041723251
					]
				},
				"KHR_materials_ior":{
					"ior":0
				}
			},
			"name":"Building11_u2EBuild2_1",
			"pbrMetallicRoughness":{
				"baseColorTexture":{
					"index":2
				},
				"metallicFactor":0,
				"roughnessFactor":0.9691779017448425
			}
		},
		{
			"doubleSided":true,
			"extensions":{
				"KHR_materials_specular":{
					"specularColorFactor":[
						0.04800000041723251,
						0.04800000041723251,
						0.04800000041723251
					]
				},
				"KHR_materials_ior":{
					"ior":0
				}
			},
			"name":"WindowsB_u2EBuild2_1",
			"pbrMetallicRoughness":{
				"baseColorTexture":{
					"index":3
				},
				"metallicFactor":0,
				"roughnessFactor":0.9691779017448425
			}
		},
		{
			"doubleSided":true,
			"extensions":{
				"KHR_materials_specular":{
					"specularColorFactor":[
						0.04800000041723251,
						0.04800000041723251,
						0.04800000041723251
					]
				},
				"KHR_materials_ior":{
					"ior":0
				}
			},
			"name":"RooftopProps_u2EBuild2_1",
			"pbrMetallicRoughness":{
				"baseColorTexture":{
					"index":4
				},
				"metallicFactor":0,
				"roughnessFactor":0.9685357213020325
			}
		},
		{
			"doubleSided":true,
			"extensions":{
				"KHR_materials_specular":{
					"specularColorFactor":[
						0.04800000041723251,
						0.04800000041723251,
						0.04800000041723251
					]
				},
				"KHR_materials_ior":{
					"ior":0
				}
			},
			"name":"Concrete1_u2EBuild2_1",
			"pbrMetallicRoughness":{
				"baseColorTexture":{
					"index":5
				},
				"metallicFactor":0,
				"roughnessFactor":0.9687750339508057
			}
		},
		{
			"doubleSided":true,
			"extensions":{
				"KHR_materials_specular":{
					"specularColorFactor":[
						0.04800000041723251,
						0.04800000041723251,
						0.04800000041723251
					]
				},
				"KHR_materials_ior":{
					"ior":0
				}
			},
			"name":"ConcreteBollard_u2EBuild2_1",
			"pbrMetallicRoughness":{
				"baseColorTexture":{
					"index":6
				},
				"metallicFactor":0,
				"roughnessFactor":0.9687750339508057
			}
		},
		{
			"doubleSided":true,
			"extensions":{
				"KHR_materials_specular":{
					"specularColorFactor":[
						0.04800000041723251,
						0.04800000041723251,
						0.04800000041723251
					]
				},
				"KHR_materials_ior":{
					"ior":0
				}
			},
			"name":"MetalGalvanized_u2EBuild2_1",
			"pbrMetallicRoughness":{
				"baseColorTexture":{
					"index":7
				},
				"metallicFactor":0,
				"roughnessFactor":0.9687750339508057
			}
		},
		{
			"doubleSided":true,
			"extensions":{
				"KHR_materials_specular":{
					"specularColorFactor":[
						0.04800000041723251,
						0.04800000041723251,
						0.04800000041723251
					]
				},
				"KHR_materials_ior":{
					"ior":0
				}
			},
			"name":"Doors_u2EBuild2_1",
			"pbrMetallicRoughness":{
				"baseColorTexture":{
					"index":8
				},
				"metallicFactor":0,
				"roughnessFactor":0.9691779017448425
			}
		},
		{
			"doubleSided":true,
			"extensions":{
				"KHR_materials_specular":{
					"specularColorFactor":[
						0.04800000041723251,
						0.04800000041723251,
						0.04800000041723251
					]
				},
				"KHR_materials_ior":{
					"ior":0
				}
			},
			"name":"AirCon3_u2EBuild2_1",
			"pbrMetallicRoughness":{
				"baseColorTexture":{
					"index":9
				},
				"metallicFactor":0,
				"roughnessFactor":0.9685357213020325
			}
		},
		{
			"doubleSided":true,
			"extensions":{
				"KHR_materials_specular":{
					"specularColorFactor":[
						0.04800000041723251,
						0.04800000041723251,
						0.04800000041723251
					]
				},
				"KHR_materials_ior":{
					"ior":0
				}
			},
			"name":"YellowPaint_u2EBuild2_1",
			"pbrMetallicRoughness":{
				"baseColorTexture":{
					"index":10
				},
				"metallicFactor":0,
				"roughnessFactor":0.9693813920021057
			}
		},
		{
			"doubleSided":true,
			"extensions":{
				"KHR_materials_specular":{
					"specularColorFactor":[
						0.04800000041723251,
						0.04800000041723251,
						0.04800000041723251
					]
				},
				"KHR_materials_ior":{
					"ior":0
				}
			},
			"name":"Props1_u2EBuild2_1",
			"pbrMetallicRoughness":{
				"baseColorTexture":{
					"index":11
				},
				"metallicFactor":0,
				"roughnessFactor":0.9691779017448425
			}
		},
		{
			"doubleSided":true,
			"extensions":{
				"KHR_materials_specular":{
					"specularColorFactor":[
						0.04800000041723251,
						0.04800000041723251,
						0.04800000041723251
					]
				},
				"KHR_materials_ior":{
					"ior":0
				}
			},
			"name":"Props2_u2EBuild2_1",
			"pbrMetallicRoughness":{
				"baseColorTexture":{
					"index":12
				},
				"metallicFactor":0,
				"roughnessFactor":0.9685357213020325
			}
		}
	],
	"meshes":[
		{
			"name":"Urban Sprawl 2.050",
			"primitives":[
				{
					"attributes":{
						"POSITION":0,
						"NORMAL":1,
						"TEXCOORD_0":2
					},
					"indices":3,
					"material":0
				},
				{
					"attributes":{
						"POSITION":4,
						"NORMAL":5,
						"TEXCOORD_0":6
					},
					"indices":7,
					"material":1
				},
				{
					"attributes":{
						"POSITION":8,
						"NORMAL":9,
						"TEXCOORD_0":10
					},
					"indices":11,
					"material":2
				},
				{
					"attributes":{
						"POSITION":12,
						"NORMAL":13,
						"TEXCOORD_0":14
					},
					"indices":15,
					"material":3
				},
				{
					"attributes":{
						"POSITION":16,
						"NORMAL":17,
						"TEXCOORD_0":18
					},
					"indices":19,
					"material":4
				},
				{
					"attributes":{
						"POSITION":20,
						"NORMAL":21,
						"TEXCOORD_0":22
					},
					"indices":23,
					"material":5
				},
				{
					"attributes":{
						"POSITION":24,
						"NORMAL":25,
						"TEXCOORD_0":26
					},
					"indices":27,
					"material":6
				},
				{
					"attributes":{
						"POSITION":28,
						"NORMAL":29,
						"TEXCOORD_0":30
					},
					"indices":31,
					"material":7
				},
				{
					"attributes":{
						"POSITION":32,
						"NORMAL":33,
						"TEXCOORD_0":34
					},
					"indices":35,
					"material":8
				},
				{
					"attributes":{
						"POSITION":36,
						"NORMAL":37,
						"TEXCOORD_0":38
					},
					"indices":39,
					"material":9
				},
				{
					"attributes":{
						"POSITION":40,
						"NORMAL":41,
						"TEXCOORD_0":42
					},
					"indices":43,
					"material":10
				},
				{
					"attributes":{
						"POSITION":44,
						"NORMAL":45,
						"TEXCOORD_0":46
					},
					"indices":47,
					"material":11
				},
				{
					"attributes":{
						"POSITION":48,
						"NORMAL":49,
						"TEXCOORD_0":50
					},
					"indices":51,
					"material":12
				}
			]
		}
	],
	"textures":[
		{
			"sampler":0,
			"source":0
		},
		{
			"sampler":0,
			"source":1
		},
		{
			"sampler":0,
			"source":1
		},
		{
			"sampler":0,
			"source":1
		},
		{
			"sampler":0,
			"source":2
		},
		{
			"sampler":0,
			"source":3
		},
		{
			"sampler":0,
			"source":3
		},
		{
			"sampler":0,
			"source":4
		},
		{
			"sampler":0,
			"source":5
		},
		{
			"sampler":0,
			"source":6
		},
		{
			"sampler":0,
			"source":7
		},
		{
			"sampler":0,
			"source":8
		},
		{
			"sampler":0,
			"source":9
		}
	],
	"images":[
		{
			"mimeType":"image/jpeg",
			"name":"u2crete2",
			"uri":"u2crete2.jpg"
		},
		{
			"mimeType":"image/jpeg",
			"name":"u2SEBuild11",
			"uri":"u2SEBuild11.jpg"
		},
		{
			"mimeType":"image/jpeg",
			"name":"u2props4",
			"uri":"u2props4.jpg"
		},
		{
			"mimeType":"image/jpeg",
			"name":"u2road1",
			"uri":"u2road1.jpg"
		},
		{
			"mimeType":"image/jpeg",
			"name":"u2metal1",
			"uri":"u2metal1.jpg"
		},
		{
			"mimeType":"image/jpeg",
			"name":"u2doors1",
			"uri":"u2doors1.jpg"
		},
		{
			"mimeType":"image/jpeg",
			"name":"u2acunit1",
			"uri":"u2acunit1.jpg"
		},
		{
			"mimeType":"image/jpeg",
			"name":"u2yellow",
			"uri":"u2yellow.jpg"
		},
		{
			"mimeType":"image/jpeg",
			"name":"u2props1",
			"uri":"u2props1.jpg"
		},
		{
			"mimeType":"image/jpeg",
			"name":"u2props2",
			"uri":"u2props2.jpg"
		}
	],
	"accessors":[
		{
			"bufferView":0,
			"componentType":5126,
			"count":106,
			"max":[
				76.54290008544922,
				17.423900604248047,
				-5.673009872436523
			],
			"min":[
				65.05359649658203,
				-4.0420098304748535,
				-6.2040300369262695
			],
			"type":"VEC3"
		},
		{
			"bufferView":1,
			"componentType":5126,
			"count":106,
			"type":"VEC3"
		},
		{
			"bufferView":2,
			"componentType":5126,
			"count":106,
			"type":"VEC2"
		},
		{
			"bufferView":3,
			"componentType":5123,
			"count":204,
			"type":"SCALAR"
		},
		{
			"bufferView":4,
			"componentType":5126,
			"count":14,
			"max":[
				76.12560272216797,
				16.936399459838867,
				-0.26925399899482727
			],
			"min":[
				65.63800048828125,
				-3.610379934310913,
				-5.400040149688721
			],
			"type":"VEC3"
		},
		{
			"bufferView":5,
			"componentType":5126,
			"count":14,
			"type":"VEC3"
		},
		{
			"bufferView":6,
			"componentType":5126,
			"count":14,
			"type":"VEC2"
		},
		{
			"bufferView":7,
			"componentType":5123,
			"count":24,
			"type":"SCALAR"
		},
		{
			"bufferView":8,
			"componentType":5126,
			"count":808,
			"max":[
				76.48139953613281,
				17.306100845336914,
				0.15485399961471558
			],
			"min":[
				65.16230010986328,
				-3.9721899032592773,
				-5.730199813842773
			],
			"type":"VEC3"
		},
		{
			"bufferView":9,
			"componentType":5126,
			"count":808,
			"type":"VEC3"
		},
		{
			"bufferView":10,
			"componentType":5126,
			"count":808,
			"type":"VEC2"
		},
		{
			"bufferView":11,
			"componentType":5123,
			"count":1308,
			"type":"SCALAR"
		},
		{
			"bufferView":12,
			"componentType":5126,
			"count":8,
			"max":[
				76.12560272216797,
				6.641210079193115,
				-0.26925399899482727
			],
			"min":[
				65.70369720458984,
				-3.610379934310913,
				-5.400040149688721
			],
			"type":"VEC3"
		},
		{
			"bufferView":13,
			"componentType":5126,
			"count":8,
			"type":"VEC3"
		},
		{
			"bufferView":14,
			"componentType":5126,
			"count":8,
			"type":"VEC2"
		},
		{
			"bufferView":15,
			"componentType":5123,
			"count":12,
			"type":"SCALAR"
		},
		{
			"bufferView":16,
			"componentType":5126,
			"count":4277,
			"max":[
				74.93930053710938,
				14.916399955749512,
				-5.794139862060547
			],
			"min":[
				65.6720962524414,
				-2.843940019607544,
				-7.54203987121582
			],
			"type":"VEC3"
		},
		{
			"bufferView":17,
			"componentType":5126,
			"count":4277,
			"type":"VEC3"
		},
		{
			"bufferView":18,
			"componentType":5126,
			"count":4277,
			"type":"VEC2"
		},
		{
			"bufferView":19,
			"componentType":5123,
			"count":7842,
			"type":"SCALAR"
		},
		{
			"bufferView":20,
			"componentType":5126,
			"count":20,
			"max":[
				76.12999725341797,
				3.691649913787842,
				-5.759550094604492
			],
			"min":[
				65.28389739990234,
				1.066540002822876,
				-5.836470127105713
			],
			"type":"VEC3"
		},
		{
			"bufferView":21,
			"componentType":5126,
			"count":20,
			"type":"VEC3"
		},
		{
			"bufferView":22,
			"componentType":5126,
			"count":20,
			"type":"VEC2"
		},
		{
			"bufferView":23,
			"componentType":5123,
			"count":30,
			"type":"SCALAR"
		},
		{
			"bufferView":24,
			"componentType":5126,
			"count":255,
			"max":[
				74.30490112304688,
				9.925809860229492,
				-5.795100212097168
			],
			"min":[
				72.10559844970703,
				8.093400001525879,
				-7.298540115356445
			],
			"type":"VEC3"
		},
		{
			"bufferView":25,
			"componentType":5126,
			"count":255,
			"type":"VEC3"
		},
		{
			"bufferView":26,
			"componentType":5126,
			"count":255,
			"type":"VEC2"
		},
		{
			"bufferView":27,
			"componentType":5123,
			"count":438,
			"type":"SCALAR"
		},
		{
			"bufferView":28,
			"componentType":5126,
			"count":74,
			"max":[
				74.30490112304688,
				9.925809860229492,
				-5.790480136871338
			],
			"min":[
				72.60910034179688,
				8.093400001525879,
				-7.298540115356445
			],
			"type":"VEC3"
		},
		{
			"bufferView":29,
			"componentType":5126,
			"count":74,
			"type":"VEC3"
		},
		{
			"bufferView":30,
			"componentType":5126,
			"count":74,
			"type":"VEC2"
		},
		{
			"bufferView":31,
			"componentType":5123,
			"count":108,
			"type":"SCALAR"
		},
		{
			"bufferView":32,
			"componentType":5126,
			"count":4,
			"max":[
				72.6532974243164,
				9.759739875793457,
				-6.028180122375488
			],
			"min":[
				72.6520004272461,
				9.380040168762207,
				-6.842350006103516
			],
			"type":"VEC3"
		},
		{
			"bufferView":33,
			"componentType":5126,
			"count":4,
			"type":"VEC3"
		},
		{
			"bufferView":34,
			"componentType":5126,
			"count":4,
			"type":"VEC2"
		},
		{
			"bufferView":35,
			"componentType":5123,
			"count":6,
			"type":"SCALAR"
		},
		{
			"bufferView":36,
			"componentType":5126,
			"count":1353,
			"max":[
				74.24130249023438,
				11.07859992980957,
				-5.789589881896973
			],
			"min":[
				72.677001953125,
				8.08098030090332,
				-6.777339935302734
			],
			"type":"VEC3"
		},
		{
			"bufferView":37,
			"componentType":5126,
			"count":1353,
			"type":"VEC3"
		},
		{
			"bufferView":38,
			"componentType":5126,
			"count":1353,
			"type":"VEC2"
		},
		{
			"bufferView":39,
			"componentType":5123,
			"count":2394,
			"type":"SCALAR"
		},
		{
			"bufferView":40,
			"componentType":5126,
			"count":147,
			"max":[
				72.71859741210938,
				9.854630470275879,
				-5.794219970703125
			],
			"min":[
				72.17890167236328,
				9.293510437011719,
				-6.347370147705078
			],
			"type":"VEC3"
		},
		{
			"bufferView":41,
			"componentType":5126,
			"count":147,
			"type":"VEC3"
		},
		{
			"bufferView":42,
			"componentType":5126,
			"count":147,
			"type":"VEC2"
		},
		{
			"bufferView":43,
			"componentType":5123,
			"count":384,
			"type":"SCALAR"
		},
		{
			"bufferView":44,
			"componentType":5126,
			"count":14,
			"max":[
				74.27120208740234,
				9.274060249328613,
				-6.075890064239502
			],
			"min":[
				72.64209747314453,
				8.116979598999023,
				-6.455709934234619
			],
			"type":"VEC3"
		},
		{
			"bufferView":45,
			"componentType":5126,
			"count":14,
			"type":"VEC3"
		},
		{
			"bufferView":46,
			"componentType":5126,
			"count":14,
			"type":"VEC2"
		},
		{
			"bufferView":47,
			"componentType":5123,
			"count":18,
			"type":"SCALAR"
		},
		{
			"bufferView":48,
			"componentType":5126,
			"count":48,
			"max":[
				74.31320190429688,
				9.761630058288574,
				-6.8092498779296875
			],
			"min":[
				74.26719665527344,
				9.509309768676758,
				-6.983349800109863
			],
			"type":"VEC3"
		},
		{
			"bufferView":49,
			"componentType":5126,
			"count":48,
			"type":"VEC3"
		},
		{
			"bufferView":50,
			"componentType":5126,
			"count":48,
			"type":"VEC2"
		},
		{
			"bufferView":51,
			"componentType":5123,
			"count":78,
			"type":"SCALAR"
		}
	],
	"bufferViews":[
		{
			"buffer":0,
			"byteLength":1272,
			"byteOffset":0,
			"target":34962
		},
		{
			"buffer":0,
			"byteLength":1272,
			"byteOffset":1272,
			"target":34962
		},
		{
			"buffer":0,
			"byteLength":848,
			"byteOffset":2544,
			"target":34962
		},
		{
			"buffer":0,
			"byteLength":408,
			"byteOffset":3392,
			"target":34963
		},
		{
			"buffer":0,
			"byteLength":168,
			"byteOffset":3800,
			"target":34962
		},
		{
			"buffer":0,
			"byteLength":168,
			"byteOffset":3968,
			"target":34962
		},
		{
			"buffer":0,
			"byteLength":112,
			"byteOffset":4136,
			"target":34962
		},
		{
			"buffer":0,
			"byteLength":48,
			"byteOffset":4248,
			"target":34963
		},
		{
			"buffer":0,
			"byteLength":9696,
			"byteOffset":4296,
			"target":34962
		},
		{
			"buffer":0,
			"byteLength":9696,
			"byteOffset":13992,
			"target":34962
		},
		{
			"buffer":0,
			"byteLength":6464,
			"byteOffset":23688,
			"target":34962
		},
		{
			"buffer":0,
			"byteLength":2616,
			"byteOffset":30152,
			"target":34963
		},
		{
			"buffer":0,
			"byteLength":96,
			"byteOffset":32768,
			"target":34962
		},
		{
			"buffer":0,
			"byteLength":96,
			"byteOffset":32864,
			"target":34962
		},
		{
			"buffer":0,
			"byteLength":64,
			"byteOffset":32960,
			"target":34962
		},
		{
			"buffer":0,
			"byteLength":24,
			"byteOffset":33024,
			"target":34963
		},
		{
			"buffer":0,
			"byteLength":51324,
			"byteOffset":33048,
			"target":34962
		},
		{
			"buffer":0,
			"byteLength":51324,
			"byteOffset":84372,
			"target":34962
		},
		{
			"buffer":0,
			"byteLength":34216,
			"byteOffset":135696,
			"target":34962
		},
		{
			"buffer":0,
			"byteLength":15684,
			"byteOffset":169912,
			"target":34963
		},
		{
			"buffer":0,
			"byteLength":240,
			"byteOffset":185596,
			"target":34962
		},
		{
			"buffer":0,
			"byteLength":240,
			"byteOffset":185836,
			"target":34962
		},
		{
			"buffer":0,
			"byteLength":160,
			"byteOffset":186076,
			"target":34962
		},
		{
			"buffer":0,
			"byteLength":60,
			"byteOffset":186236,
			"target":34963
		},
		{
			"buffer":0,
			"byteLength":3060,
			"byteOffset":186296,
			"target":34962
		},
		{
			"buffer":0,
			"byteLength":3060,
			"byteOffset":189356,
			"target":34962
		},
		{
			"buffer":0,
			"byteLength":2040,
			"byteOffset":192416,
			"target":34962
		},
		{
			"buffer":0,
			"byteLength":876,
			"byteOffset":194456,
			"target":34963
		},
		{
			"buffer":0,
			"byteLength":888,
			"byteOffset":195332,
			"target":34962
		},
		{
			"buffer":0,
			"byteLength":888,
			"byteOffset":196220,
			"target":34962
		},
		{
			"buffer":0,
			"byteLength":592,
			"byteOffset":197108,
			"target":34962
		},
		{
			"buffer":0,
			"byteLength":216,
			"byteOffset":197700,
			"target":34963
		},
		{
			"buffer":0,
			"byteLength":48,
			"byteOffset":197916,
			"target":34962
		},
		{
			"buffer":0,
			"byteLength":48,
			"byteOffset":197964,
			"target":34962
		},
		{
			"buffer":0,
			"byteLength":32,
			"byteOffset":198012,
			"target":34962
		},
		{
			"buffer":0,
			"byteLength":12,
			"byteOffset":198044,
			"target":34963
		},
		{
			"buffer":0,
			"byteLength":16236,
			"byteOffset":198056,
			"target":34962
		},
		{
			"buffer":0,
			"byteLength":16236,
			"byteOffset":214292,
			"target":34962
		},
		{
			"buffer":0,
			"byteLength":10824,
			"byteOffset":230528,
			"target":34962
		},
		{
			"buffer":0,
			"byteLength":4788,
			"byteOffset":241352,
			"target":34963
		},
		{
			"buffer":0,
			"byteLength":1764,
			"byteOffset":246140,
			"target":34962
		},
		{
			"buffer":0,
			"byteLength":1764,
			"byteOffset":247904,
			"target":34962
		},
		{
			"buffer":0,
			"byteLength":1176,
			"byteOffset":249668,
			"target":34962
		},
		{
			"buffer":0,
			"byteLength":768,
			"byteOffset":250844,
			"target":34963
		},
		{
			"buffer":0,
			"byteLength":168,
			"byteOffset":251612,
			"target":34962
		},
		{
			"buffer":0,
			"byteLength":168,
			"byteOffset":251780,
			"target":34962
		},
		{
			"buffer":0,
			"byteLength":112,
			"byteOffset":251948,
			"target":34962
		},
		{
			"buffer":0,
			"byteLength":36,
			"byteOffset":252060,
			"target":34963
		},
		{
			"buffer":0,
			"byteLength":576,
			"byteOffset":252096,
			"target":34962
		},
		{
			"buffer":0,
			"byteLength":576,
			"byteOffset":252672,
			"target":34962
		},
		{
			"buffer":0,
			"byteLength":384,
			"byteOffset":253248,
			"target":34962
		},
		{
			"buffer":0,
			"byteLength":156,
			"byteOffset":253632,
			"target":34963
		}
	],
	"samplers":[
		{
			"magFilter":9729,
			"minFilter":9987
		}
	],
	"buffers":[
		{
			"byteLength":253788,
			"uri":"u2EBuild2.bin"
		}
	]
}
