{
	"asset":{
		"generator":"Khronos glTF Blender I/O v5.0.21",
		"version":"2.0"
	},
	"extensionsUsed":[
		"KHR_materials_specular",
		"KHR_materials_ior"
	],
	"scene":0,
	"scenes":[
		{
			"name":"Scene",
			"nodes":[
				0
			]
		}
	],
	"nodes":[
		{
			"mesh":0,
			"name":"u2NBuild3",
			"rotation":[
				0.70710688829422,
				0,
				0,
				0.7071066498756409
			]
		}
	],
	"materials":[
		{
			"doubleSided":true,
			"extensions":{
				"KHR_materials_specular":{
					"specularColorFactor":[
						0.04800000041723251,
						0.04800000041723251,
						0.04800000041723251
					]
				},
				"KHR_materials_ior":{
					"ior":0
				}
			},
			"name":"Concrete_u2NBuild3_1",
			"pbrMetallicRoughness":{
				"baseColorTexture":{
					"index":0
				},
				"metallicFactor":0,
				"roughnessFactor":0.9687750339508057
			}
		},
		{
			"doubleSided":true,
			"extensions":{
				"KHR_materials_specular":{
					"specularColorFactor":[
						0.04800000041723251,
						0.04800000041723251,
						0.04800000041723251
					]
				},
				"KHR_materials_ior":{
					"ior":0
				}
			},
			"name":"WindowA_u2NBuild3_1",
			"pbrMetallicRoughness":{
				"baseColorTexture":{
					"index":1
				},
				"metallicFactor":0,
				"roughnessFactor":0.9691779017448425
			}
		},
		{
			"doubleSided":true,
			"extensions":{
				"KHR_materials_specular":{
					"specularColorFactor":[
						0.04800000041723251,
						0.04800000041723251,
						0.04800000041723251
					]
				},
				"KHR_materials_ior":{
					"ior":0
				}
			},
			"name":"Building11_u2NBuild3_1",
			"pbrMetallicRoughness":{
				"baseColorTexture":{
					"index":2
				},
				"metallicFactor":0,
				"roughnessFactor":0.9691779017448425
			}
		},
		{
			"doubleSided":true,
			"extensions":{
				"KHR_materials_specular":{
					"specularColorFactor":[
						0.04800000041723251,
						0.04800000041723251,
						0.04800000041723251
					]
				},
				"KHR_materials_ior":{
					"ior":0
				}
			},
			"name":"WindowsB_u2NBuild3_1",
			"pbrMetallicRoughness":{
				"baseColorTexture":{
					"index":3
				},
				"metallicFactor":0,
				"roughnessFactor":0.9691779017448425
			}
		},
		{
			"doubleSided":true,
			"extensions":{
				"KHR_materials_specular":{
					"specularColorFactor":[
						0.04800000041723251,
						0.04800000041723251,
						0.04800000041723251
					]
				},
				"KHR_materials_ior":{
					"ior":0
				}
			},
			"name":"ConcreteBollard_u2NBuild3_1",
			"pbrMetallicRoughness":{
				"baseColorTexture":{
					"index":4
				},
				"metallicFactor":0,
				"roughnessFactor":0.9686418771743774
			}
		},
		{
			"doubleSided":true,
			"extensions":{
				"KHR_materials_specular":{
					"specularColorFactor":[
						0.04800000041723251,
						0.04800000041723251,
						0.04800000041723251
					]
				},
				"KHR_materials_ior":{
					"ior":0
				}
			},
			"name":"RooftopProps_u2NBuild3_1",
			"pbrMetallicRoughness":{
				"baseColorTexture":{
					"index":5
				},
				"metallicFactor":0,
				"roughnessFactor":0.9685357213020325
			}
		},
		{
			"doubleSided":true,
			"extensions":{
				"KHR_materials_specular":{
					"specularColorFactor":[
						0.04800000041723251,
						0.04800000041723251,
						0.04800000041723251
					]
				},
				"KHR_materials_ior":{
					"ior":0
				}
			},
			"name":"MetalGalvanized_u2NBuild3_1",
			"pbrMetallicRoughness":{
				"baseColorTexture":{
					"index":6
				},
				"metallicFactor":0,
				"roughnessFactor":0.9687750339508057
			}
		},
		{
			"doubleSided":true,
			"extensions":{
				"KHR_materials_specular":{
					"specularColorFactor":[
						0.04800000041723251,
						0.04800000041723251,
						0.04800000041723251
					]
				},
				"KHR_materials_ior":{
					"ior":0
				}
			},
			"name":"Doors_u2NBuild3_1",
			"pbrMetallicRoughness":{
				"baseColorTexture":{
					"index":7
				},
				"metallicFactor":0,
				"roughnessFactor":0.9691779017448425
			}
		},
		{
			"doubleSided":true,
			"extensions":{
				"KHR_materials_specular":{
					"specularColorFactor":[
						0.04800000041723251,
						0.04800000041723251,
						0.04800000041723251
					]
				},
				"KHR_materials_ior":{
					"ior":0
				}
			},
			"name":"AirCon3_u2NBuild3_1",
			"pbrMetallicRoughness":{
				"baseColorTexture":{
					"index":8
				},
				"metallicFactor":0,
				"roughnessFactor":0.9685357213020325
			}
		},
		{
			"doubleSided":true,
			"extensions":{
				"KHR_materials_specular":{
					"specularColorFactor":[
						0.04800000041723251,
						0.04800000041723251,
						0.04800000041723251
					]
				},
				"KHR_materials_ior":{
					"ior":0
				}
			},
			"name":"YellowPaint_u2NBuild3_1",
			"pbrMetallicRoughness":{
				"baseColorTexture":{
					"index":9
				},
				"metallicFactor":0,
				"roughnessFactor":0.9693813920021057
			}
		},
		{
			"doubleSided":true,
			"extensions":{
				"KHR_materials_specular":{
					"specularColorFactor":[
						0.04800000041723251,
						0.04800000041723251,
						0.04800000041723251
					]
				},
				"KHR_materials_ior":{
					"ior":0
				}
			},
			"name":"Props1_u2NBuild3_1",
			"pbrMetallicRoughness":{
				"baseColorTexture":{
					"index":10
				},
				"metallicFactor":0,
				"roughnessFactor":0.9691779017448425
			}
		},
		{
			"doubleSided":true,
			"extensions":{
				"KHR_materials_specular":{
					"specularColorFactor":[
						0.04800000041723251,
						0.04800000041723251,
						0.04800000041723251
					]
				},
				"KHR_materials_ior":{
					"ior":0
				}
			},
			"name":"Props2_u2NBuild3_1",
			"pbrMetallicRoughness":{
				"baseColorTexture":{
					"index":11
				},
				"metallicFactor":0,
				"roughnessFactor":0.9685357213020325
			}
		},
		{
			"doubleSided":true,
			"extensions":{
				"KHR_materials_specular":{
					"specularColorFactor":[
						0.04800000041723251,
						0.04800000041723251,
						0.04800000041723251
					]
				},
				"KHR_materials_ior":{
					"ior":0
				}
			},
			"name":"Concrete1_u2NBuild3_1",
			"pbrMetallicRoughness":{
				"baseColorTexture":{
					"index":12
				},
				"metallicFactor":0,
				"roughnessFactor":0.9687750339508057
			}
		}
	],
	"meshes":[
		{
			"name":"Urban Sprawl 2.055",
			"primitives":[
				{
					"attributes":{
						"POSITION":0,
						"NORMAL":1,
						"TEXCOORD_0":2
					},
					"indices":3,
					"material":0
				},
				{
					"attributes":{
						"POSITION":4,
						"NORMAL":5,
						"TEXCOORD_0":6
					},
					"indices":7,
					"material":1
				},
				{
					"attributes":{
						"POSITION":8,
						"NORMAL":9,
						"TEXCOORD_0":10
					},
					"indices":11,
					"material":2
				},
				{
					"attributes":{
						"POSITION":12,
						"NORMAL":13,
						"TEXCOORD_0":14
					},
					"indices":15,
					"material":3
				},
				{
					"attributes":{
						"POSITION":16,
						"NORMAL":17,
						"TEXCOORD_0":18
					},
					"indices":19,
					"material":4
				},
				{
					"attributes":{
						"POSITION":20,
						"NORMAL":21,
						"TEXCOORD_0":22
					},
					"indices":23,
					"material":5
				},
				{
					"attributes":{
						"POSITION":24,
						"NORMAL":25,
						"TEXCOORD_0":26
					},
					"indices":27,
					"material":6
				},
				{
					"attributes":{
						"POSITION":28,
						"NORMAL":29,
						"TEXCOORD_0":30
					},
					"indices":31,
					"material":7
				},
				{
					"attributes":{
						"POSITION":32,
						"NORMAL":33,
						"TEXCOORD_0":34
					},
					"indices":35,
					"material":8
				},
				{
					"attributes":{
						"POSITION":36,
						"NORMAL":37,
						"TEXCOORD_0":38
					},
					"indices":39,
					"material":9
				},
				{
					"attributes":{
						"POSITION":40,
						"NORMAL":41,
						"TEXCOORD_0":42
					},
					"indices":43,
					"material":10
				},
				{
					"attributes":{
						"POSITION":44,
						"NORMAL":45,
						"TEXCOORD_0":46
					},
					"indices":47,
					"material":11
				},
				{
					"attributes":{
						"POSITION":48,
						"NORMAL":49,
						"TEXCOORD_0":50
					},
					"indices":51,
					"material":12
				}
			]
		}
	],
	"textures":[
		{
			"sampler":0,
			"source":0
		},
		{
			"sampler":0,
			"source":1
		},
		{
			"sampler":0,
			"source":1
		},
		{
			"sampler":0,
			"source":1
		},
		{
			"sampler":0,
			"source":0
		},
		{
			"sampler":0,
			"source":2
		},
		{
			"sampler":0,
			"source":3
		},
		{
			"sampler":0,
			"source":4
		},
		{
			"sampler":0,
			"source":5
		},
		{
			"sampler":0,
			"source":6
		},
		{
			"sampler":0,
			"source":7
		},
		{
			"sampler":0,
			"source":8
		},
		{
			"sampler":0,
			"source":9
		}
	],
	"images":[
		{
			"mimeType":"image/jpeg",
			"name":"u2crete2",
			"uri":"u2crete2.jpg"
		},
		{
			"mimeType":"image/jpeg",
			"name":"u2SEBuild11",
			"uri":"u2SEBuild11.jpg"
		},
		{
			"mimeType":"image/jpeg",
			"name":"u2props4",
			"uri":"u2props4.jpg"
		},
		{
			"mimeType":"image/jpeg",
			"name":"u2metal1",
			"uri":"u2metal1.jpg"
		},
		{
			"mimeType":"image/jpeg",
			"name":"u2doors1",
			"uri":"u2doors1.jpg"
		},
		{
			"mimeType":"image/jpeg",
			"name":"u2acunit1",
			"uri":"u2acunit1.jpg"
		},
		{
			"mimeType":"image/jpeg",
			"name":"u2yellow",
			"uri":"u2yellow.jpg"
		},
		{
			"mimeType":"image/jpeg",
			"name":"u2props1",
			"uri":"u2props1.jpg"
		},
		{
			"mimeType":"image/jpeg",
			"name":"u2props2",
			"uri":"u2props2.jpg"
		},
		{
			"mimeType":"image/jpeg",
			"name":"u2white",
			"uri":"u2white.jpg"
		}
	],
	"accessors":[
		{
			"bufferView":0,
			"componentType":5126,
			"count":115,
			"max":[
				19.476200103759766,
				-46.801700592041016,
				-12.582099914550781
			],
			"min":[
				-1.989650011062622,
				-58.29100036621094,
				-13.113200187683105
			],
			"type":"VEC3"
		},
		{
			"bufferView":1,
			"componentType":5126,
			"count":115,
			"type":"VEC3"
		},
		{
			"bufferView":2,
			"componentType":5126,
			"count":115,
			"type":"VEC2"
		},
		{
			"bufferView":3,
			"componentType":5123,
			"count":204,
			"type":"SCALAR"
		},
		{
			"bufferView":4,
			"componentType":5126,
			"count":28,
			"max":[
				19.044599533081055,
				-47.21900177001953,
				-1.7328499555587769
			],
			"min":[
				-1.5022200345993042,
				-57.706600189208984,
				-12.309200286865234
			],
			"type":"VEC3"
		},
		{
			"bufferView":5,
			"componentType":5126,
			"count":28,
			"type":"VEC3"
		},
		{
			"bufferView":6,
			"componentType":5126,
			"count":28,
			"type":"VEC2"
		},
		{
			"bufferView":7,
			"componentType":5123,
			"count":48,
			"type":"SCALAR"
		},
		{
			"bufferView":8,
			"componentType":5126,
			"count":1564,
			"max":[
				19.406400680541992,
				-46.86320114135742,
				-1.2718600034713745
			],
			"min":[
				-1.871880054473877,
				-58.18230056762695,
				-12.639300346374512
			],
			"type":"VEC3"
		},
		{
			"bufferView":9,
			"componentType":5126,
			"count":1564,
			"type":"VEC3"
		},
		{
			"bufferView":10,
			"componentType":5126,
			"count":1564,
			"type":"VEC2"
		},
		{
			"bufferView":11,
			"componentType":5123,
			"count":2532,
			"type":"SCALAR"
		},
		{
			"bufferView":12,
			"componentType":5126,
			"count":16,
			"max":[
				19.044599533081055,
				-47.21900177001953,
				-1.7328499555587769
			],
			"min":[
				-1.5022200345993042,
				-57.706600189208984,
				-12.309200286865234
			],
			"type":"VEC3"
		},
		{
			"bufferView":13,
			"componentType":5126,
			"count":16,
			"type":"VEC3"
		},
		{
			"bufferView":14,
			"componentType":5126,
			"count":16,
			"type":"VEC2"
		},
		{
			"bufferView":15,
			"componentType":5123,
			"count":24,
			"type":"SCALAR"
		},
		{
			"bufferView":16,
			"componentType":5126,
			"count":259,
			"max":[
				8.527290344238281,
				-52.289100646972656,
				-12.70419979095459
			],
			"min":[
				6.32804012298584,
				-54.121498107910156,
				-14.2076997756958
			],
			"type":"VEC3"
		},
		{
			"bufferView":17,
			"componentType":5126,
			"count":259,
			"type":"VEC3"
		},
		{
			"bufferView":18,
			"componentType":5126,
			"count":259,
			"type":"VEC2"
		},
		{
			"bufferView":19,
			"componentType":5123,
			"count":438,
			"type":"SCALAR"
		},
		{
			"bufferView":20,
			"componentType":5126,
			"count":4226,
			"max":[
				18.278200149536133,
				-48.405399322509766,
				-12.703300476074219
			],
			"min":[
				0.5178049802780151,
				-57.67259979248047,
				-14.451199531555176
			],
			"type":"VEC3"
		},
		{
			"bufferView":21,
			"componentType":5126,
			"count":4226,
			"type":"VEC3"
		},
		{
			"bufferView":22,
			"componentType":5126,
			"count":4226,
			"type":"VEC2"
		},
		{
			"bufferView":23,
			"componentType":5123,
			"count":7842,
			"type":"SCALAR"
		},
		{
			"bufferView":24,
			"componentType":5126,
			"count":67,
			"max":[
				8.527290344238281,
				-52.289100646972656,
				-12.699600219726562
			],
			"min":[
				6.831560134887695,
				-54.121498107910156,
				-14.2076997756958
			],
			"type":"VEC3"
		},
		{
			"bufferView":25,
			"componentType":5126,
			"count":67,
			"type":"VEC3"
		},
		{
			"bufferView":26,
			"componentType":5126,
			"count":67,
			"type":"VEC2"
		},
		{
			"bufferView":27,
			"componentType":5123,
			"count":108,
			"type":"SCALAR"
		},
		{
			"bufferView":28,
			"componentType":5126,
			"count":4,
			"max":[
				6.8757500648498535,
				-52.4552001953125,
				-12.937299728393555
			],
			"min":[
				6.874390125274658,
				-52.83489990234375,
				-13.751500129699707
			],
			"type":"VEC3"
		},
		{
			"bufferView":29,
			"componentType":5126,
			"count":4,
			"type":"VEC3"
		},
		{
			"bufferView":30,
			"componentType":5126,
			"count":4,
			"type":"VEC2"
		},
		{
			"bufferView":31,
			"componentType":5123,
			"count":6,
			"type":"SCALAR"
		},
		{
			"bufferView":32,
			"componentType":5126,
			"count":1349,
			"max":[
				8.463720321655273,
				-51.13629913330078,
				-12.698699951171875
			],
			"min":[
				6.899429798126221,
				-54.1338996887207,
				-13.68649959564209
			],
			"type":"VEC3"
		},
		{
			"bufferView":33,
			"componentType":5126,
			"count":1349,
			"type":"VEC3"
		},
		{
			"bufferView":34,
			"componentType":5126,
			"count":1349,
			"type":"VEC2"
		},
		{
			"bufferView":35,
			"componentType":5123,
			"count":2394,
			"type":"SCALAR"
		},
		{
			"bufferView":36,
			"componentType":5126,
			"count":138,
			"max":[
				6.941009998321533,
				-52.36029815673828,
				-12.703300476074219
			],
			"min":[
				6.401269912719727,
				-52.9213981628418,
				-13.256500244140625
			],
			"type":"VEC3"
		},
		{
			"bufferView":37,
			"componentType":5126,
			"count":138,
			"type":"VEC3"
		},
		{
			"bufferView":38,
			"componentType":5126,
			"count":138,
			"type":"VEC2"
		},
		{
			"bufferView":39,
			"componentType":5123,
			"count":384,
			"type":"SCALAR"
		},
		{
			"bufferView":40,
			"componentType":5126,
			"count":16,
			"max":[
				8.493599891662598,
				-52.94089889526367,
				-12.984999656677246
			],
			"min":[
				6.8645100593566895,
				-54.097900390625,
				-13.364800453186035
			],
			"type":"VEC3"
		},
		{
			"bufferView":41,
			"componentType":5126,
			"count":16,
			"type":"VEC3"
		},
		{
			"bufferView":42,
			"componentType":5126,
			"count":16,
			"type":"VEC2"
		},
		{
			"bufferView":43,
			"componentType":5123,
			"count":18,
			"type":"SCALAR"
		},
		{
			"bufferView":44,
			"componentType":5126,
			"count":60,
			"max":[
				8.535619735717773,
				-52.45330047607422,
				-13.718400001525879
			],
			"min":[
				8.489629745483398,
				-52.70560073852539,
				-13.892499923706055
			],
			"type":"VEC3"
		},
		{
			"bufferView":45,
			"componentType":5126,
			"count":60,
			"type":"VEC3"
		},
		{
			"bufferView":46,
			"componentType":5126,
			"count":60,
			"type":"VEC2"
		},
		{
			"bufferView":47,
			"componentType":5123,
			"count":78,
			"type":"SCALAR"
		},
		{
			"bufferView":48,
			"componentType":5126,
			"count":20,
			"max":[
				14.36769962310791,
				-47.214698791503906,
				-12.668700218200684
			],
			"min":[
				11.742600440979004,
				-58.060699462890625,
				-12.745599746704102
			],
			"type":"VEC3"
		},
		{
			"bufferView":49,
			"componentType":5126,
			"count":20,
			"type":"VEC3"
		},
		{
			"bufferView":50,
			"componentType":5126,
			"count":20,
			"type":"VEC2"
		},
		{
			"bufferView":51,
			"componentType":5123,
			"count":30,
			"type":"SCALAR"
		}
	],
	"bufferViews":[
		{
			"buffer":0,
			"byteLength":1380,
			"byteOffset":0,
			"target":34962
		},
		{
			"buffer":0,
			"byteLength":1380,
			"byteOffset":1380,
			"target":34962
		},
		{
			"buffer":0,
			"byteLength":920,
			"byteOffset":2760,
			"target":34962
		},
		{
			"buffer":0,
			"byteLength":408,
			"byteOffset":3680,
			"target":34963
		},
		{
			"buffer":0,
			"byteLength":336,
			"byteOffset":4088,
			"target":34962
		},
		{
			"buffer":0,
			"byteLength":336,
			"byteOffset":4424,
			"target":34962
		},
		{
			"buffer":0,
			"byteLength":224,
			"byteOffset":4760,
			"target":34962
		},
		{
			"buffer":0,
			"byteLength":96,
			"byteOffset":4984,
			"target":34963
		},
		{
			"buffer":0,
			"byteLength":18768,
			"byteOffset":5080,
			"target":34962
		},
		{
			"buffer":0,
			"byteLength":18768,
			"byteOffset":23848,
			"target":34962
		},
		{
			"buffer":0,
			"byteLength":12512,
			"byteOffset":42616,
			"target":34962
		},
		{
			"buffer":0,
			"byteLength":5064,
			"byteOffset":55128,
			"target":34963
		},
		{
			"buffer":0,
			"byteLength":192,
			"byteOffset":60192,
			"target":34962
		},
		{
			"buffer":0,
			"byteLength":192,
			"byteOffset":60384,
			"target":34962
		},
		{
			"buffer":0,
			"byteLength":128,
			"byteOffset":60576,
			"target":34962
		},
		{
			"buffer":0,
			"byteLength":48,
			"byteOffset":60704,
			"target":34963
		},
		{
			"buffer":0,
			"byteLength":3108,
			"byteOffset":60752,
			"target":34962
		},
		{
			"buffer":0,
			"byteLength":3108,
			"byteOffset":63860,
			"target":34962
		},
		{
			"buffer":0,
			"byteLength":2072,
			"byteOffset":66968,
			"target":34962
		},
		{
			"buffer":0,
			"byteLength":876,
			"byteOffset":69040,
			"target":34963
		},
		{
			"buffer":0,
			"byteLength":50712,
			"byteOffset":69916,
			"target":34962
		},
		{
			"buffer":0,
			"byteLength":50712,
			"byteOffset":120628,
			"target":34962
		},
		{
			"buffer":0,
			"byteLength":33808,
			"byteOffset":171340,
			"target":34962
		},
		{
			"buffer":0,
			"byteLength":15684,
			"byteOffset":205148,
			"target":34963
		},
		{
			"buffer":0,
			"byteLength":804,
			"byteOffset":220832,
			"target":34962
		},
		{
			"buffer":0,
			"byteLength":804,
			"byteOffset":221636,
			"target":34962
		},
		{
			"buffer":0,
			"byteLength":536,
			"byteOffset":222440,
			"target":34962
		},
		{
			"buffer":0,
			"byteLength":216,
			"byteOffset":222976,
			"target":34963
		},
		{
			"buffer":0,
			"byteLength":48,
			"byteOffset":223192,
			"target":34962
		},
		{
			"buffer":0,
			"byteLength":48,
			"byteOffset":223240,
			"target":34962
		},
		{
			"buffer":0,
			"byteLength":32,
			"byteOffset":223288,
			"target":34962
		},
		{
			"buffer":0,
			"byteLength":12,
			"byteOffset":223320,
			"target":34963
		},
		{
			"buffer":0,
			"byteLength":16188,
			"byteOffset":223332,
			"target":34962
		},
		{
			"buffer":0,
			"byteLength":16188,
			"byteOffset":239520,
			"target":34962
		},
		{
			"buffer":0,
			"byteLength":10792,
			"byteOffset":255708,
			"target":34962
		},
		{
			"buffer":0,
			"byteLength":4788,
			"byteOffset":266500,
			"target":34963
		},
		{
			"buffer":0,
			"byteLength":1656,
			"byteOffset":271288,
			"target":34962
		},
		{
			"buffer":0,
			"byteLength":1656,
			"byteOffset":272944,
			"target":34962
		},
		{
			"buffer":0,
			"byteLength":1104,
			"byteOffset":274600,
			"target":34962
		},
		{
			"buffer":0,
			"byteLength":768,
			"byteOffset":275704,
			"target":34963
		},
		{
			"buffer":0,
			"byteLength":192,
			"byteOffset":276472,
			"target":34962
		},
		{
			"buffer":0,
			"byteLength":192,
			"byteOffset":276664,
			"target":34962
		},
		{
			"buffer":0,
			"byteLength":128,
			"byteOffset":276856,
			"target":34962
		},
		{
			"buffer":0,
			"byteLength":36,
			"byteOffset":276984,
			"target":34963
		},
		{
			"buffer":0,
			"byteLength":720,
			"byteOffset":277020,
			"target":34962
		},
		{
			"buffer":0,
			"byteLength":720,
			"byteOffset":277740,
			"target":34962
		},
		{
			"buffer":0,
			"byteLength":480,
			"byteOffset":278460,
			"target":34962
		},
		{
			"buffer":0,
			"byteLength":156,
			"byteOffset":278940,
			"target":34963
		},
		{
			"buffer":0,
			"byteLength":240,
			"byteOffset":279096,
			"target":34962
		},
		{
			"buffer":0,
			"byteLength":240,
			"byteOffset":279336,
			"target":34962
		},
		{
			"buffer":0,
			"byteLength":160,
			"byteOffset":279576,
			"target":34962
		},
		{
			"buffer":0,
			"byteLength":60,
			"byteOffset":279736,
			"target":34963
		}
	],
	"samplers":[
		{
			"magFilter":9729,
			"minFilter":9987
		}
	],
	"buffers":[
		{
			"byteLength":279796,
			"uri":"u2NBuild3.bin"
		}
	]
}
