{
	"asset":{
		"generator":"Khronos glTF Blender I/O v5.0.21",
		"version":"2.0"
	},
	"extensionsUsed":[
		"KHR_materials_specular",
		"KHR_materials_ior"
	],
	"scene":0,
	"scenes":[
		{
			"name":"Scene",
			"nodes":[
				0
			]
		}
	],
	"nodes":[
		{
			"mesh":0,
			"name":"u2NBuild4",
			"rotation":[
				0.70710688829422,
				0,
				0,
				0.7071066498756409
			]
		}
	],
	"materials":[
		{
			"doubleSided":true,
			"extensions":{
				"KHR_materials_specular":{
					"specularColorFactor":[
						0.04800000041723251,
						0.04800000041723251,
						0.04800000041723251
					]
				},
				"KHR_materials_ior":{
					"ior":0
				}
			},
			"name":"BlackMetalPanels_u2NBuild4_1",
			"pbrMetallicRoughness":{
				"baseColorTexture":{
					"index":0
				},
				"metallicFactor":0,
				"roughnessFactor":0.9691779017448425
			}
		},
		{
			"doubleSided":true,
			"extensions":{
				"KHR_materials_specular":{
					"specularColorFactor":[
						0.04800000041723251,
						0.04800000041723251,
						0.04800000041723251
					]
				},
				"KHR_materials_ior":{
					"ior":0
				}
			},
			"name":"Concrete_u2NBuild4_1",
			"pbrMetallicRoughness":{
				"baseColorTexture":{
					"index":1
				},
				"metallicFactor":0,
				"roughnessFactor":0.9687750339508057
			}
		},
		{
			"doubleSided":true,
			"extensions":{
				"KHR_materials_specular":{
					"specularColorFactor":[
						0.04800000041723251,
						0.04800000041723251,
						0.04800000041723251
					]
				},
				"KHR_materials_ior":{
					"ior":0
				}
			},
			"name":"MetalGalvanized_u2NBuild4_1",
			"pbrMetallicRoughness":{
				"baseColorTexture":{
					"index":2
				},
				"metallicFactor":0,
				"roughnessFactor":0.9700000286102295
			}
		},
		{
			"doubleSided":true,
			"extensions":{
				"KHR_materials_specular":{
					"specularColorFactor":[
						0.04800000041723251,
						0.04800000041723251,
						0.04800000041723251
					]
				},
				"KHR_materials_ior":{
					"ior":0
				}
			},
			"name":"RooftopProps_u2NBuild4_1",
			"pbrMetallicRoughness":{
				"baseColorTexture":{
					"index":3
				},
				"metallicFactor":0,
				"roughnessFactor":0.9685357213020325
			}
		},
		{
			"doubleSided":true,
			"extensions":{
				"KHR_materials_specular":{
					"specularColorFactor":[
						0.04800000041723251,
						0.04800000041723251,
						0.04800000041723251
					]
				},
				"KHR_materials_ior":{
					"ior":0
				}
			},
			"name":"Doors_u2NBuild4_1",
			"pbrMetallicRoughness":{
				"baseColorTexture":{
					"index":4
				},
				"metallicFactor":0,
				"roughnessFactor":0.9691779017448425
			}
		},
		{
			"doubleSided":true,
			"extensions":{
				"KHR_materials_specular":{
					"specularColorFactor":[
						0.04800000041723251,
						0.04800000041723251,
						0.04800000041723251
					]
				},
				"KHR_materials_ior":{
					"ior":0
				}
			},
			"name":"Paving2_u2NBuild4_1",
			"pbrMetallicRoughness":{
				"baseColorTexture":{
					"index":5
				},
				"metallicFactor":0,
				"roughnessFactor":0.9687750339508057
			}
		},
		{
			"doubleSided":true,
			"extensions":{
				"KHR_materials_specular":{
					"specularColorFactor":[
						0.04800000041723251,
						0.04800000041723251,
						0.04800000041723251
					]
				},
				"KHR_materials_ior":{
					"ior":0
				}
			},
			"name":"Brick4_u2NBuild4_1",
			"pbrMetallicRoughness":{
				"baseColorTexture":{
					"index":6
				},
				"metallicFactor":0,
				"roughnessFactor":0.9691779017448425
			}
		}
	],
	"meshes":[
		{
			"name":"Urban Sprawl 2.056",
			"primitives":[
				{
					"attributes":{
						"POSITION":0,
						"NORMAL":1,
						"TEXCOORD_0":2
					},
					"indices":3,
					"material":0
				},
				{
					"attributes":{
						"POSITION":4,
						"NORMAL":5,
						"TEXCOORD_0":6
					},
					"indices":7,
					"material":1
				},
				{
					"attributes":{
						"POSITION":8,
						"NORMAL":9,
						"TEXCOORD_0":10
					},
					"indices":11,
					"material":2
				},
				{
					"attributes":{
						"POSITION":12,
						"NORMAL":13,
						"TEXCOORD_0":14
					},
					"indices":15,
					"material":3
				},
				{
					"attributes":{
						"POSITION":16,
						"NORMAL":17,
						"TEXCOORD_0":18
					},
					"indices":19,
					"material":4
				},
				{
					"attributes":{
						"POSITION":20,
						"NORMAL":21,
						"TEXCOORD_0":22
					},
					"indices":23,
					"material":5
				},
				{
					"attributes":{
						"POSITION":24,
						"NORMAL":25,
						"TEXCOORD_0":26
					},
					"indices":27,
					"material":6
				}
			]
		}
	],
	"textures":[
		{
			"sampler":0,
			"source":0
		},
		{
			"sampler":0,
			"source":1
		},
		{
			"sampler":0,
			"source":2
		},
		{
			"sampler":0,
			"source":3
		},
		{
			"sampler":0,
			"source":4
		},
		{
			"sampler":0,
			"source":5
		},
		{
			"sampler":0,
			"source":6
		}
	],
	"images":[
		{
			"mimeType":"image/jpeg",
			"name":"u2blackpanel",
			"uri":"u2blackpanel.jpg"
		},
		{
			"mimeType":"image/jpeg",
			"name":"u2crete1",
			"uri":"u2crete1.jpg"
		},
		{
			"mimeType":"image/jpeg",
			"name":"u2metdark",
			"uri":"u2metdark.jpg"
		},
		{
			"mimeType":"image/jpeg",
			"name":"u2props4",
			"uri":"u2props4.jpg"
		},
		{
			"mimeType":"image/jpeg",
			"name":"u2doors1",
			"uri":"u2doors1.jpg"
		},
		{
			"mimeType":"image/jpeg",
			"name":"u2pave4",
			"uri":"u2pave4.jpg"
		},
		{
			"mimeType":"image/jpeg",
			"name":"u2brick4",
			"uri":"u2brick4.jpg"
		}
	],
	"accessors":[
		{
			"bufferView":0,
			"componentType":5126,
			"count":2010,
			"max":[
				35.60380172729492,
				-47.66230010986328,
				-1.7009600400924683
			],
			"min":[
				21.05190086364746,
				-62.19969940185547,
				-66.20390319824219
			],
			"type":"VEC3"
		},
		{
			"bufferView":1,
			"componentType":5126,
			"count":2010,
			"type":"VEC3"
		},
		{
			"bufferView":2,
			"componentType":5126,
			"count":2010,
			"type":"VEC2"
		},
		{
			"bufferView":3,
			"componentType":5123,
			"count":2928,
			"type":"SCALAR"
		},
		{
			"bufferView":4,
			"componentType":5126,
			"count":1436,
			"max":[
				36.500301361083984,
				-44.75389862060547,
				-1.3060499429702759
			],
			"min":[
				20.033300399780273,
				-69.25509643554688,
				-65.94270324707031
			],
			"type":"VEC3"
		},
		{
			"bufferView":5,
			"componentType":5126,
			"count":1436,
			"type":"VEC3"
		},
		{
			"bufferView":6,
			"componentType":5126,
			"count":1436,
			"type":"VEC2"
		},
		{
			"bufferView":7,
			"componentType":5123,
			"count":2160,
			"type":"SCALAR"
		},
		{
			"bufferView":8,
			"componentType":5126,
			"count":2540,
			"max":[
				31.752300262451172,
				-51.10260009765625,
				-64.39929962158203
			],
			"min":[
				23.183399200439453,
				-61.71480178833008,
				-69.65260314941406
			],
			"type":"VEC3"
		},
		{
			"bufferView":9,
			"componentType":5126,
			"count":2540,
			"type":"VEC3"
		},
		{
			"bufferView":10,
			"componentType":5126,
			"count":2540,
			"type":"VEC2"
		},
		{
			"bufferView":11,
			"componentType":5123,
			"count":4803,
			"type":"SCALAR"
		},
		{
			"bufferView":12,
			"componentType":5126,
			"count":9918,
			"max":[
				34.2489013671875,
				-49.0171012878418,
				-46.155799865722656
			],
			"min":[
				22.68090057373047,
				-61.64950180053711,
				-66.12200164794922
			],
			"type":"VEC3"
		},
		{
			"bufferView":13,
			"componentType":5126,
			"count":9918,
			"type":"VEC3"
		},
		{
			"bufferView":14,
			"componentType":5126,
			"count":9918,
			"type":"VEC2"
		},
		{
			"bufferView":15,
			"componentType":5123,
			"count":18456,
			"type":"SCALAR"
		},
		{
			"bufferView":16,
			"componentType":5126,
			"count":68,
			"max":[
				29.702899932861328,
				-53.12080001831055,
				-63.1885986328125
			],
			"min":[
				25.042800903320312,
				-59.942100524902344,
				-65.66590118408203
			],
			"type":"VEC3"
		},
		{
			"bufferView":17,
			"componentType":5126,
			"count":68,
			"type":"VEC3"
		},
		{
			"bufferView":18,
			"componentType":5126,
			"count":68,
			"type":"VEC2"
		},
		{
			"bufferView":19,
			"componentType":5123,
			"count":90,
			"type":"SCALAR"
		},
		{
			"bufferView":20,
			"componentType":5126,
			"count":4,
			"max":[
				29.924299240112305,
				-46.30339813232422,
				-2.0838499069213867
			],
			"min":[
				25.756399154663086,
				-51.80690002441406,
				-2.0838499069213867
			],
			"type":"VEC3"
		},
		{
			"bufferView":21,
			"componentType":5126,
			"count":4,
			"type":"VEC3"
		},
		{
			"bufferView":22,
			"componentType":5126,
			"count":4,
			"type":"VEC2"
		},
		{
			"bufferView":23,
			"componentType":5123,
			"count":6,
			"type":"SCALAR"
		},
		{
			"bufferView":24,
			"componentType":5126,
			"count":81,
			"max":[
				30.005599975585938,
				-44.81779861450195,
				-1.180590033531189
			],
			"min":[
				25.681100845336914,
				-51.779300689697266,
				-2.1653800010681152
			],
			"type":"VEC3"
		},
		{
			"bufferView":25,
			"componentType":5126,
			"count":81,
			"type":"VEC3"
		},
		{
			"bufferView":26,
			"componentType":5126,
			"count":81,
			"type":"VEC2"
		},
		{
			"bufferView":27,
			"componentType":5123,
			"count":168,
			"type":"SCALAR"
		}
	],
	"bufferViews":[
		{
			"buffer":0,
			"byteLength":24120,
			"byteOffset":0,
			"target":34962
		},
		{
			"buffer":0,
			"byteLength":24120,
			"byteOffset":24120,
			"target":34962
		},
		{
			"buffer":0,
			"byteLength":16080,
			"byteOffset":48240,
			"target":34962
		},
		{
			"buffer":0,
			"byteLength":5856,
			"byteOffset":64320,
			"target":34963
		},
		{
			"buffer":0,
			"byteLength":17232,
			"byteOffset":70176,
			"target":34962
		},
		{
			"buffer":0,
			"byteLength":17232,
			"byteOffset":87408,
			"target":34962
		},
		{
			"buffer":0,
			"byteLength":11488,
			"byteOffset":104640,
			"target":34962
		},
		{
			"buffer":0,
			"byteLength":4320,
			"byteOffset":116128,
			"target":34963
		},
		{
			"buffer":0,
			"byteLength":30480,
			"byteOffset":120448,
			"target":34962
		},
		{
			"buffer":0,
			"byteLength":30480,
			"byteOffset":150928,
			"target":34962
		},
		{
			"buffer":0,
			"byteLength":20320,
			"byteOffset":181408,
			"target":34962
		},
		{
			"buffer":0,
			"byteLength":9606,
			"byteOffset":201728,
			"target":34963
		},
		{
			"buffer":0,
			"byteLength":119016,
			"byteOffset":211336,
			"target":34962
		},
		{
			"buffer":0,
			"byteLength":119016,
			"byteOffset":330352,
			"target":34962
		},
		{
			"buffer":0,
			"byteLength":79344,
			"byteOffset":449368,
			"target":34962
		},
		{
			"buffer":0,
			"byteLength":36912,
			"byteOffset":528712,
			"target":34963
		},
		{
			"buffer":0,
			"byteLength":816,
			"byteOffset":565624,
			"target":34962
		},
		{
			"buffer":0,
			"byteLength":816,
			"byteOffset":566440,
			"target":34962
		},
		{
			"buffer":0,
			"byteLength":544,
			"byteOffset":567256,
			"target":34962
		},
		{
			"buffer":0,
			"byteLength":180,
			"byteOffset":567800,
			"target":34963
		},
		{
			"buffer":0,
			"byteLength":48,
			"byteOffset":567980,
			"target":34962
		},
		{
			"buffer":0,
			"byteLength":48,
			"byteOffset":568028,
			"target":34962
		},
		{
			"buffer":0,
			"byteLength":32,
			"byteOffset":568076,
			"target":34962
		},
		{
			"buffer":0,
			"byteLength":12,
			"byteOffset":568108,
			"target":34963
		},
		{
			"buffer":0,
			"byteLength":972,
			"byteOffset":568120,
			"target":34962
		},
		{
			"buffer":0,
			"byteLength":972,
			"byteOffset":569092,
			"target":34962
		},
		{
			"buffer":0,
			"byteLength":648,
			"byteOffset":570064,
			"target":34962
		},
		{
			"buffer":0,
			"byteLength":336,
			"byteOffset":570712,
			"target":34963
		}
	],
	"samplers":[
		{
			"magFilter":9729,
			"minFilter":9987
		}
	],
	"buffers":[
		{
			"byteLength":571048,
			"uri":"u2NBuild4.bin"
		}
	]
}
