{
	"asset":{
		"generator":"Khronos glTF Blender I/O v5.0.21",
		"version":"2.0"
	},
	"extensionsUsed":[
		"KHR_materials_specular",
		"KHR_materials_ior"
	],
	"scene":0,
	"scenes":[
		{
			"name":"Scene",
			"nodes":[
				0
			]
		}
	],
	"nodes":[
		{
			"mesh":0,
			"name":"u2NBuild5",
			"rotation":[
				0.70710688829422,
				0,
				0,
				0.7071066498756409
			]
		}
	],
	"materials":[
		{
			"doubleSided":true,
			"extensions":{
				"KHR_materials_specular":{
					"specularColorFactor":[
						0.04800000041723251,
						0.04800000041723251,
						0.04800000041723251
					]
				},
				"KHR_materials_ior":{
					"ior":0
				}
			},
			"name":"Concrete_u2NBuild5_1",
			"pbrMetallicRoughness":{
				"baseColorTexture":{
					"index":0
				},
				"metallicFactor":0,
				"roughnessFactor":0.9687750339508057
			}
		},
		{
			"doubleSided":true,
			"extensions":{
				"KHR_materials_specular":{
					"specularColorFactor":[
						0.04800000041723251,
						0.04800000041723251,
						0.04800000041723251
					]
				},
				"KHR_materials_ior":{
					"ior":0
				}
			},
			"name":"WindowA_u2NBuild5_1",
			"pbrMetallicRoughness":{
				"baseColorTexture":{
					"index":1
				},
				"metallicFactor":0,
				"roughnessFactor":0.9691779017448425
			}
		},
		{
			"doubleSided":true,
			"extensions":{
				"KHR_materials_specular":{
					"specularColorFactor":[
						0.04800000041723251,
						0.04800000041723251,
						0.04800000041723251
					]
				},
				"KHR_materials_ior":{
					"ior":0
				}
			},
			"name":"Building11_u2NBuild5_1",
			"pbrMetallicRoughness":{
				"baseColorTexture":{
					"index":2
				},
				"metallicFactor":0,
				"roughnessFactor":0.9691779017448425
			}
		},
		{
			"doubleSided":true,
			"extensions":{
				"KHR_materials_specular":{
					"specularColorFactor":[
						0.04800000041723251,
						0.04800000041723251,
						0.04800000041723251
					]
				},
				"KHR_materials_ior":{
					"ior":0
				}
			},
			"name":"WindowsB_u2NBuild5_1",
			"pbrMetallicRoughness":{
				"baseColorTexture":{
					"index":3
				},
				"metallicFactor":0,
				"roughnessFactor":0.9691779017448425
			}
		},
		{
			"doubleSided":true,
			"extensions":{
				"KHR_materials_specular":{
					"specularColorFactor":[
						0.04800000041723251,
						0.04800000041723251,
						0.04800000041723251
					]
				},
				"KHR_materials_ior":{
					"ior":0
				}
			},
			"name":"RooftopProps_u2NBuild5_1",
			"pbrMetallicRoughness":{
				"baseColorTexture":{
					"index":4
				},
				"metallicFactor":0,
				"roughnessFactor":0.9685357213020325
			}
		},
		{
			"doubleSided":true,
			"extensions":{
				"KHR_materials_specular":{
					"specularColorFactor":[
						0.04800000041723251,
						0.04800000041723251,
						0.04800000041723251
					]
				},
				"KHR_materials_ior":{
					"ior":0
				}
			},
			"name":"Concrete1_u2NBuild5_1",
			"pbrMetallicRoughness":{
				"baseColorTexture":{
					"index":5
				},
				"metallicFactor":0,
				"roughnessFactor":0.9687750339508057
			}
		},
		{
			"doubleSided":true,
			"extensions":{
				"KHR_materials_specular":{
					"specularColorFactor":[
						0.04800000041723251,
						0.04800000041723251,
						0.04800000041723251
					]
				},
				"KHR_materials_ior":{
					"ior":0
				}
			},
			"name":"MetalGalvanized_u2NBuild5_1",
			"pbrMetallicRoughness":{
				"baseColorTexture":{
					"index":6
				},
				"metallicFactor":0,
				"roughnessFactor":0.9687750339508057
			}
		},
		{
			"doubleSided":true,
			"extensions":{
				"KHR_materials_specular":{
					"specularColorFactor":[
						0.04800000041723251,
						0.04800000041723251,
						0.04800000041723251
					]
				},
				"KHR_materials_ior":{
					"ior":0
				}
			},
			"name":"Doors_u2NBuild5_1",
			"pbrMetallicRoughness":{
				"baseColorTexture":{
					"index":7
				},
				"metallicFactor":0,
				"roughnessFactor":0.9691779017448425
			}
		},
		{
			"doubleSided":true,
			"extensions":{
				"KHR_materials_specular":{
					"specularColorFactor":[
						0.04800000041723251,
						0.04800000041723251,
						0.04800000041723251
					]
				},
				"KHR_materials_ior":{
					"ior":0
				}
			},
			"name":"AirCon3_u2NBuild5_1",
			"pbrMetallicRoughness":{
				"baseColorTexture":{
					"index":8
				},
				"metallicFactor":0,
				"roughnessFactor":0.9685357213020325
			}
		},
		{
			"doubleSided":true,
			"extensions":{
				"KHR_materials_specular":{
					"specularColorFactor":[
						0.04800000041723251,
						0.04800000041723251,
						0.04800000041723251
					]
				},
				"KHR_materials_ior":{
					"ior":0
				}
			},
			"name":"YellowPaint_u2NBuild5_1",
			"pbrMetallicRoughness":{
				"baseColorTexture":{
					"index":9
				},
				"metallicFactor":0,
				"roughnessFactor":0.9693813920021057
			}
		},
		{
			"doubleSided":true,
			"extensions":{
				"KHR_materials_specular":{
					"specularColorFactor":[
						0.04800000041723251,
						0.04800000041723251,
						0.04800000041723251
					]
				},
				"KHR_materials_ior":{
					"ior":0
				}
			},
			"name":"Props1_u2NBuild5_1",
			"pbrMetallicRoughness":{
				"baseColorTexture":{
					"index":10
				},
				"metallicFactor":0,
				"roughnessFactor":0.9685357213020325
			}
		},
		{
			"doubleSided":true,
			"extensions":{
				"KHR_materials_specular":{
					"specularColorFactor":[
						0.04800000041723251,
						0.04800000041723251,
						0.04800000041723251
					]
				},
				"KHR_materials_ior":{
					"ior":0
				}
			},
			"name":"Props2_u2NBuild5_1",
			"pbrMetallicRoughness":{
				"baseColorTexture":{
					"index":11
				},
				"metallicFactor":0,
				"roughnessFactor":0.9691779017448425
			}
		},
		{
			"doubleSided":true,
			"extensions":{
				"KHR_materials_specular":{
					"specularColorFactor":[
						0.04800000041723251,
						0.04800000041723251,
						0.04800000041723251
					]
				},
				"KHR_materials_ior":{
					"ior":0
				}
			},
			"name":"Paving2_u2NBuild5_1",
			"pbrMetallicRoughness":{
				"baseColorTexture":{
					"index":12
				},
				"metallicFactor":0,
				"roughnessFactor":0.9687750339508057
			}
		},
		{
			"doubleSided":true,
			"extensions":{
				"KHR_materials_specular":{
					"specularColorFactor":[
						0.04800000041723251,
						0.04800000041723251,
						0.04800000041723251
					]
				},
				"KHR_materials_ior":{
					"ior":0
				}
			},
			"name":"Paving3_u2NBuild5_1",
			"pbrMetallicRoughness":{
				"baseColorTexture":{
					"index":13
				},
				"metallicFactor":0,
				"roughnessFactor":0.9687750339508057
			}
		}
	],
	"meshes":[
		{
			"name":"Urban Sprawl 2.057",
			"primitives":[
				{
					"attributes":{
						"POSITION":0,
						"NORMAL":1,
						"TEXCOORD_0":2
					},
					"indices":3,
					"material":0
				},
				{
					"attributes":{
						"POSITION":4,
						"NORMAL":5,
						"TEXCOORD_0":6
					},
					"indices":7,
					"material":1
				},
				{
					"attributes":{
						"POSITION":8,
						"NORMAL":9,
						"TEXCOORD_0":10
					},
					"indices":11,
					"material":2
				},
				{
					"attributes":{
						"POSITION":12,
						"NORMAL":13,
						"TEXCOORD_0":14
					},
					"indices":15,
					"material":3
				},
				{
					"attributes":{
						"POSITION":16,
						"NORMAL":17,
						"TEXCOORD_0":18
					},
					"indices":19,
					"material":4
				},
				{
					"attributes":{
						"POSITION":20,
						"NORMAL":21,
						"TEXCOORD_0":22
					},
					"indices":23,
					"material":5
				},
				{
					"attributes":{
						"POSITION":24,
						"NORMAL":25,
						"TEXCOORD_0":26
					},
					"indices":27,
					"material":6
				},
				{
					"attributes":{
						"POSITION":28,
						"NORMAL":29,
						"TEXCOORD_0":30
					},
					"indices":31,
					"material":7
				},
				{
					"attributes":{
						"POSITION":32,
						"NORMAL":33,
						"TEXCOORD_0":34
					},
					"indices":35,
					"material":8
				},
				{
					"attributes":{
						"POSITION":36,
						"NORMAL":37,
						"TEXCOORD_0":38
					},
					"indices":39,
					"material":9
				},
				{
					"attributes":{
						"POSITION":40,
						"NORMAL":41,
						"TEXCOORD_0":42
					},
					"indices":43,
					"material":10
				},
				{
					"attributes":{
						"POSITION":44,
						"NORMAL":45,
						"TEXCOORD_0":46
					},
					"indices":47,
					"material":11
				},
				{
					"attributes":{
						"POSITION":48,
						"NORMAL":49,
						"TEXCOORD_0":50
					},
					"indices":51,
					"material":12
				},
				{
					"attributes":{
						"POSITION":52,
						"NORMAL":53,
						"TEXCOORD_0":54
					},
					"indices":55,
					"material":13
				}
			]
		}
	],
	"textures":[
		{
			"sampler":0,
			"source":0
		},
		{
			"sampler":0,
			"source":1
		},
		{
			"sampler":0,
			"source":1
		},
		{
			"sampler":0,
			"source":1
		},
		{
			"sampler":0,
			"source":2
		},
		{
			"sampler":0,
			"source":3
		},
		{
			"sampler":0,
			"source":4
		},
		{
			"sampler":0,
			"source":5
		},
		{
			"sampler":0,
			"source":6
		},
		{
			"sampler":0,
			"source":7
		},
		{
			"sampler":0,
			"source":8
		},
		{
			"sampler":0,
			"source":9
		},
		{
			"sampler":0,
			"source":10
		},
		{
			"sampler":0,
			"source":11
		}
	],
	"images":[
		{
			"mimeType":"image/jpeg",
			"name":"u2crete1",
			"uri":"u2crete1.jpg"
		},
		{
			"mimeType":"image/jpeg",
			"name":"u2SEBuild11",
			"uri":"u2SEBuild11.jpg"
		},
		{
			"mimeType":"image/jpeg",
			"name":"u2props4",
			"uri":"u2props4.jpg"
		},
		{
			"mimeType":"image/jpeg",
			"name":"u2crete2",
			"uri":"u2crete2.jpg"
		},
		{
			"mimeType":"image/jpeg",
			"name":"u2metal1",
			"uri":"u2metal1.jpg"
		},
		{
			"mimeType":"image/jpeg",
			"name":"u2doors1",
			"uri":"u2doors1.jpg"
		},
		{
			"mimeType":"image/jpeg",
			"name":"u2acunit1",
			"uri":"u2acunit1.jpg"
		},
		{
			"mimeType":"image/jpeg",
			"name":"u2yellow",
			"uri":"u2yellow.jpg"
		},
		{
			"mimeType":"image/jpeg",
			"name":"u2props1",
			"uri":"u2props1.jpg"
		},
		{
			"mimeType":"image/jpeg",
			"name":"u2props2",
			"uri":"u2props2.jpg"
		},
		{
			"mimeType":"image/jpeg",
			"name":"u2pave4",
			"uri":"u2pave4.jpg"
		},
		{
			"mimeType":"image/jpeg",
			"name":"u2pave3",
			"uri":"u2pave3.jpg"
		}
	],
	"accessors":[
		{
			"bufferView":0,
			"componentType":5126,
			"count":403,
			"max":[
				62.35150146484375,
				-45.73040008544922,
				-7.2771501541137695
			],
			"min":[
				40.74610137939453,
				-57.48350143432617,
				-8.902680397033691
			],
			"type":"VEC3"
		},
		{
			"bufferView":1,
			"componentType":5126,
			"count":403,
			"type":"VEC3"
		},
		{
			"bufferView":2,
			"componentType":5126,
			"count":403,
			"type":"VEC2"
		},
		{
			"bufferView":3,
			"componentType":5123,
			"count":636,
			"type":"SCALAR"
		},
		{
			"bufferView":4,
			"componentType":5126,
			"count":14,
			"max":[
				61.8567008972168,
				-46.319400787353516,
				-1.8733899593353271
			],
			"min":[
				41.312198638916016,
				-57.060298919677734,
				-7.004179954528809
			],
			"type":"VEC3"
		},
		{
			"bufferView":5,
			"componentType":5126,
			"count":14,
			"type":"VEC3"
		},
		{
			"bufferView":6,
			"componentType":5126,
			"count":14,
			"type":"VEC2"
		},
		{
			"bufferView":7,
			"componentType":5123,
			"count":24,
			"type":"SCALAR"
		},
		{
			"bufferView":8,
			"componentType":5126,
			"count":866,
			"max":[
				62.233001708984375,
				-45.839298248291016,
				-1.4492900371551514
			],
			"min":[
				40.81610107421875,
				-57.42129898071289,
				-7.3343400955200195
			],
			"type":"VEC3"
		},
		{
			"bufferView":9,
			"componentType":5126,
			"count":866,
			"type":"VEC3"
		},
		{
			"bufferView":10,
			"componentType":5126,
			"count":866,
			"type":"VEC2"
		},
		{
			"bufferView":11,
			"componentType":5123,
			"count":1308,
			"type":"SCALAR"
		},
		{
			"bufferView":12,
			"componentType":5126,
			"count":8,
			"max":[
				51.433101654052734,
				-46.38610076904297,
				-1.8733899593353271
			],
			"min":[
				41.18230056762695,
				-56.93320083618164,
				-7.004179954528809
			],
			"type":"VEC3"
		},
		{
			"bufferView":13,
			"componentType":5126,
			"count":8,
			"type":"VEC3"
		},
		{
			"bufferView":14,
			"componentType":5126,
			"count":8,
			"type":"VEC2"
		},
		{
			"bufferView":15,
			"componentType":5123,
			"count":12,
			"type":"SCALAR"
		},
		{
			"bufferView":16,
			"componentType":5126,
			"count":4206,
			"max":[
				59.81909942626953,
				-46.41780090332031,
				-7.398280143737793
			],
			"min":[
				41.97909927368164,
				-55.70399856567383,
				-9.146180152893066
			],
			"type":"VEC3"
		},
		{
			"bufferView":17,
			"componentType":5126,
			"count":4206,
			"type":"VEC3"
		},
		{
			"bufferView":18,
			"componentType":5126,
			"count":4206,
			"type":"VEC2"
		},
		{
			"bufferView":19,
			"componentType":5123,
			"count":7842,
			"type":"SCALAR"
		},
		{
			"bufferView":20,
			"componentType":5126,
			"count":20,
			"max":[
				48.618099212646484,
				-46.02330017089844,
				-7.36368989944458
			],
			"min":[
				45.85879898071289,
				-56.901100158691406,
				-7.440609931945801
			],
			"type":"VEC3"
		},
		{
			"bufferView":21,
			"componentType":5126,
			"count":20,
			"type":"VEC3"
		},
		{
			"bufferView":22,
			"componentType":5126,
			"count":20,
			"type":"VEC2"
		},
		{
			"bufferView":23,
			"componentType":5123,
			"count":30,
			"type":"SCALAR"
		},
		{
			"bufferView":24,
			"componentType":5126,
			"count":64,
			"max":[
				54.760799407958984,
				-53.435298919677734,
				-7.394619941711426
			],
			"min":[
				52.907901763916016,
				-55.1531982421875,
				-8.902680397033691
			],
			"type":"VEC3"
		},
		{
			"bufferView":25,
			"componentType":5126,
			"count":64,
			"type":"VEC3"
		},
		{
			"bufferView":26,
			"componentType":5126,
			"count":64,
			"type":"VEC2"
		},
		{
			"bufferView":27,
			"componentType":5123,
			"count":108,
			"type":"SCALAR"
		},
		{
			"bufferView":28,
			"componentType":5126,
			"count":4,
			"max":[
				54.594398498535156,
				-53.493900299072266,
				-7.632319927215576
			],
			"min":[
				54.214698791503906,
				-53.499900817871094,
				-8.446490287780762
			],
			"type":"VEC3"
		},
		{
			"bufferView":29,
			"componentType":5126,
			"count":4,
			"type":"VEC3"
		},
		{
			"bufferView":30,
			"componentType":5126,
			"count":4,
			"type":"VEC2"
		},
		{
			"bufferView":31,
			"componentType":5123,
			"count":6,
			"type":"SCALAR"
		},
		{
			"bufferView":32,
			"componentType":5126,
			"count":1614,
			"max":[
				55.907798767089844,
				-53.50299835205078,
				-7.393730163574219
			],
			"min":[
				52.909000396728516,
				-55.09830093383789,
				-8.38148021697998
			],
			"type":"VEC3"
		},
		{
			"bufferView":33,
			"componentType":5126,
			"count":1614,
			"type":"VEC3"
		},
		{
			"bufferView":34,
			"componentType":5126,
			"count":1614,
			"type":"VEC2"
		},
		{
			"bufferView":35,
			"componentType":5123,
			"count":2394,
			"type":"SCALAR"
		},
		{
			"bufferView":36,
			"componentType":5126,
			"count":145,
			"max":[
				54.69490051269531,
				-53.019901275634766,
				-7.398359775543213
			],
			"min":[
				54.127498626708984,
				-53.566200256347656,
				-7.951509952545166
			],
			"type":"VEC3"
		},
		{
			"bufferView":37,
			"componentType":5126,
			"count":145,
			"type":"VEC3"
		},
		{
			"bufferView":38,
			"componentType":5126,
			"count":145,
			"type":"VEC2"
		},
		{
			"bufferView":39,
			"componentType":5123,
			"count":384,
			"type":"SCALAR"
		},
		{
			"bufferView":40,
			"componentType":5126,
			"count":14,
			"max":[
				54.10879898071289,
				-53.480201721191406,
				-7.680019855499268
			],
			"min":[
				52.941898345947266,
				-55.10260009765625,
				-8.059849739074707
			],
			"type":"VEC3"
		},
		{
			"bufferView":41,
			"componentType":5126,
			"count":14,
			"type":"VEC3"
		},
		{
			"bufferView":42,
			"componentType":5126,
			"count":14,
			"type":"VEC2"
		},
		{
			"bufferView":43,
			"componentType":5123,
			"count":18,
			"type":"SCALAR"
		},
		{
			"bufferView":44,
			"componentType":5126,
			"count":53,
			"max":[
				54.57619857788086,
				-55.110599517822266,
				-8.413390159606934
			],
			"min":[
				54.32339859008789,
				-55.159698486328125,
				-8.58749008178711
			],
			"type":"VEC3"
		},
		{
			"bufferView":45,
			"componentType":5126,
			"count":53,
			"type":"VEC3"
		},
		{
			"bufferView":46,
			"componentType":5126,
			"count":53,
			"type":"VEC2"
		},
		{
			"bufferView":47,
			"componentType":5123,
			"count":78,
			"type":"SCALAR"
		},
		{
			"bufferView":48,
			"componentType":5126,
			"count":7,
			"max":[
				62.16780090332031,
				-46.0447998046875,
				-7.405059814453125
			],
			"min":[
				40.9297981262207,
				-57.16910171508789,
				-7.405059814453125
			],
			"type":"VEC3"
		},
		{
			"bufferView":49,
			"componentType":5126,
			"count":7,
			"type":"VEC3"
		},
		{
			"bufferView":50,
			"componentType":5126,
			"count":7,
			"type":"VEC2"
		},
		{
			"bufferView":51,
			"componentType":5123,
			"count":12,
			"type":"SCALAR"
		},
		{
			"bufferView":52,
			"componentType":5126,
			"count":7,
			"max":[
				62.098899841308594,
				-45.914100646972656,
				-7.405059814453125
			],
			"min":[
				40.99869918823242,
				-57.299800872802734,
				-7.405059814453125
			],
			"type":"VEC3"
		},
		{
			"bufferView":53,
			"componentType":5126,
			"count":7,
			"type":"VEC3"
		},
		{
			"bufferView":54,
			"componentType":5126,
			"count":7,
			"type":"VEC2"
		},
		{
			"bufferView":55,
			"componentType":5123,
			"count":12,
			"type":"SCALAR"
		}
	],
	"bufferViews":[
		{
			"buffer":0,
			"byteLength":4836,
			"byteOffset":0,
			"target":34962
		},
		{
			"buffer":0,
			"byteLength":4836,
			"byteOffset":4836,
			"target":34962
		},
		{
			"buffer":0,
			"byteLength":3224,
			"byteOffset":9672,
			"target":34962
		},
		{
			"buffer":0,
			"byteLength":1272,
			"byteOffset":12896,
			"target":34963
		},
		{
			"buffer":0,
			"byteLength":168,
			"byteOffset":14168,
			"target":34962
		},
		{
			"buffer":0,
			"byteLength":168,
			"byteOffset":14336,
			"target":34962
		},
		{
			"buffer":0,
			"byteLength":112,
			"byteOffset":14504,
			"target":34962
		},
		{
			"buffer":0,
			"byteLength":48,
			"byteOffset":14616,
			"target":34963
		},
		{
			"buffer":0,
			"byteLength":10392,
			"byteOffset":14664,
			"target":34962
		},
		{
			"buffer":0,
			"byteLength":10392,
			"byteOffset":25056,
			"target":34962
		},
		{
			"buffer":0,
			"byteLength":6928,
			"byteOffset":35448,
			"target":34962
		},
		{
			"buffer":0,
			"byteLength":2616,
			"byteOffset":42376,
			"target":34963
		},
		{
			"buffer":0,
			"byteLength":96,
			"byteOffset":44992,
			"target":34962
		},
		{
			"buffer":0,
			"byteLength":96,
			"byteOffset":45088,
			"target":34962
		},
		{
			"buffer":0,
			"byteLength":64,
			"byteOffset":45184,
			"target":34962
		},
		{
			"buffer":0,
			"byteLength":24,
			"byteOffset":45248,
			"target":34963
		},
		{
			"buffer":0,
			"byteLength":50472,
			"byteOffset":45272,
			"target":34962
		},
		{
			"buffer":0,
			"byteLength":50472,
			"byteOffset":95744,
			"target":34962
		},
		{
			"buffer":0,
			"byteLength":33648,
			"byteOffset":146216,
			"target":34962
		},
		{
			"buffer":0,
			"byteLength":15684,
			"byteOffset":179864,
			"target":34963
		},
		{
			"buffer":0,
			"byteLength":240,
			"byteOffset":195548,
			"target":34962
		},
		{
			"buffer":0,
			"byteLength":240,
			"byteOffset":195788,
			"target":34962
		},
		{
			"buffer":0,
			"byteLength":160,
			"byteOffset":196028,
			"target":34962
		},
		{
			"buffer":0,
			"byteLength":60,
			"byteOffset":196188,
			"target":34963
		},
		{
			"buffer":0,
			"byteLength":768,
			"byteOffset":196248,
			"target":34962
		},
		{
			"buffer":0,
			"byteLength":768,
			"byteOffset":197016,
			"target":34962
		},
		{
			"buffer":0,
			"byteLength":512,
			"byteOffset":197784,
			"target":34962
		},
		{
			"buffer":0,
			"byteLength":216,
			"byteOffset":198296,
			"target":34963
		},
		{
			"buffer":0,
			"byteLength":48,
			"byteOffset":198512,
			"target":34962
		},
		{
			"buffer":0,
			"byteLength":48,
			"byteOffset":198560,
			"target":34962
		},
		{
			"buffer":0,
			"byteLength":32,
			"byteOffset":198608,
			"target":34962
		},
		{
			"buffer":0,
			"byteLength":12,
			"byteOffset":198640,
			"target":34963
		},
		{
			"buffer":0,
			"byteLength":19368,
			"byteOffset":198652,
			"target":34962
		},
		{
			"buffer":0,
			"byteLength":19368,
			"byteOffset":218020,
			"target":34962
		},
		{
			"buffer":0,
			"byteLength":12912,
			"byteOffset":237388,
			"target":34962
		},
		{
			"buffer":0,
			"byteLength":4788,
			"byteOffset":250300,
			"target":34963
		},
		{
			"buffer":0,
			"byteLength":1740,
			"byteOffset":255088,
			"target":34962
		},
		{
			"buffer":0,
			"byteLength":1740,
			"byteOffset":256828,
			"target":34962
		},
		{
			"buffer":0,
			"byteLength":1160,
			"byteOffset":258568,
			"target":34962
		},
		{
			"buffer":0,
			"byteLength":768,
			"byteOffset":259728,
			"target":34963
		},
		{
			"buffer":0,
			"byteLength":168,
			"byteOffset":260496,
			"target":34962
		},
		{
			"buffer":0,
			"byteLength":168,
			"byteOffset":260664,
			"target":34962
		},
		{
			"buffer":0,
			"byteLength":112,
			"byteOffset":260832,
			"target":34962
		},
		{
			"buffer":0,
			"byteLength":36,
			"byteOffset":260944,
			"target":34963
		},
		{
			"buffer":0,
			"byteLength":636,
			"byteOffset":260980,
			"target":34962
		},
		{
			"buffer":0,
			"byteLength":636,
			"byteOffset":261616,
			"target":34962
		},
		{
			"buffer":0,
			"byteLength":424,
			"byteOffset":262252,
			"target":34962
		},
		{
			"buffer":0,
			"byteLength":156,
			"byteOffset":262676,
			"target":34963
		},
		{
			"buffer":0,
			"byteLength":84,
			"byteOffset":262832,
			"target":34962
		},
		{
			"buffer":0,
			"byteLength":84,
			"byteOffset":262916,
			"target":34962
		},
		{
			"buffer":0,
			"byteLength":56,
			"byteOffset":263000,
			"target":34962
		},
		{
			"buffer":0,
			"byteLength":24,
			"byteOffset":263056,
			"target":34963
		},
		{
			"buffer":0,
			"byteLength":84,
			"byteOffset":263080,
			"target":34962
		},
		{
			"buffer":0,
			"byteLength":84,
			"byteOffset":263164,
			"target":34962
		},
		{
			"buffer":0,
			"byteLength":56,
			"byteOffset":263248,
			"target":34962
		},
		{
			"buffer":0,
			"byteLength":24,
			"byteOffset":263304,
			"target":34963
		}
	],
	"samplers":[
		{
			"magFilter":9729,
			"minFilter":9987
		}
	],
	"buffers":[
		{
			"byteLength":263328,
			"uri":"u2NBuild5.bin"
		}
	]
}
