{
	"asset":{
		"generator":"Khronos glTF Blender I/O v5.0.21",
		"version":"2.0"
	},
	"extensionsUsed":[
		"KHR_materials_specular",
		"KHR_materials_ior"
	],
	"scene":0,
	"scenes":[
		{
			"name":"Scene",
			"nodes":[
				0
			]
		}
	],
	"nodes":[
		{
			"mesh":0,
			"name":"u2NBuild1",
			"rotation":[
				0.70710688829422,
				0,
				0,
				0.7071066498756409
			]
		}
	],
	"materials":[
		{
			"doubleSided":true,
			"extensions":{
				"KHR_materials_specular":{
					"specularColorFactor":[
						0.04800000041723251,
						0.04800000041723251,
						0.04800000041723251
					]
				},
				"KHR_materials_ior":{
					"ior":0
				}
			},
			"name":"Building9_u2NBuild1_1",
			"pbrMetallicRoughness":{
				"baseColorTexture":{
					"index":0
				},
				"metallicFactor":0,
				"roughnessFactor":0.9691779017448425
			}
		},
		{
			"doubleSided":true,
			"extensions":{
				"KHR_materials_specular":{
					"specularColorFactor":[
						0.04800000041723251,
						0.04800000041723251,
						0.04800000041723251
					]
				},
				"KHR_materials_ior":{
					"ior":0
				}
			},
			"name":"Props1_u2NBuild1_1",
			"pbrMetallicRoughness":{
				"baseColorTexture":{
					"index":1
				},
				"metallicFactor":0,
				"roughnessFactor":0.9685357213020325
			}
		},
		{
			"doubleSided":true,
			"extensions":{
				"KHR_materials_specular":{
					"specularColorFactor":[
						0.04800000041723251,
						0.04800000041723251,
						0.04800000041723251
					]
				},
				"KHR_materials_ior":{
					"ior":0
				}
			},
			"name":"Concrete2_u2NBuild1_1",
			"pbrMetallicRoughness":{
				"baseColorTexture":{
					"index":2
				},
				"metallicFactor":0,
				"roughnessFactor":0.9687750339508057
			}
		},
		{
			"doubleSided":true,
			"extensions":{
				"KHR_materials_specular":{
					"specularColorFactor":[
						0.04800000041723251,
						0.04800000041723251,
						0.04800000041723251
					]
				},
				"KHR_materials_ior":{
					"ior":0
				}
			},
			"name":"Rooftop_u2NBuild1_1",
			"pbrMetallicRoughness":{
				"baseColorTexture":{
					"index":3
				},
				"metallicFactor":0,
				"roughnessFactor":0.9687750339508057
			}
		},
		{
			"doubleSided":true,
			"extensions":{
				"KHR_materials_specular":{
					"specularColorFactor":[
						0.04800000041723251,
						0.04800000041723251,
						0.04800000041723251
					]
				},
				"KHR_materials_ior":{
					"ior":0
				}
			},
			"name":"MetalDark_u2NBuild1_1",
			"pbrMetallicRoughness":{
				"baseColorTexture":{
					"index":4
				},
				"metallicFactor":0,
				"roughnessFactor":0.9691779017448425
			}
		},
		{
			"doubleSided":true,
			"extensions":{
				"KHR_materials_specular":{
					"specularColorFactor":[
						0.04800000041723251,
						0.04800000041723251,
						0.04800000041723251
					]
				},
				"KHR_materials_ior":{
					"ior":0
				}
			},
			"name":"RooftopProps_u2NBuild1_1",
			"pbrMetallicRoughness":{
				"baseColorTexture":{
					"index":5
				},
				"metallicFactor":0,
				"roughnessFactor":0.9685357213020325
			}
		},
		{
			"doubleSided":true,
			"extensions":{
				"KHR_materials_specular":{
					"specularColorFactor":[
						0.04800000041723251,
						0.04800000041723251,
						0.04800000041723251
					]
				},
				"KHR_materials_ior":{
					"ior":0
				}
			},
			"name":"LEDRed_u2NBuild1_1",
			"pbrMetallicRoughness":{
				"baseColorFactor":[
					0.800000011920929,
					0.800000011920929,
					0.800000011920929,
					1
				],
				"metallicFactor":0,
				"roughnessFactor":0.9691779017448425
			}
		},
		{
			"doubleSided":true,
			"extensions":{
				"KHR_materials_specular":{
					"specularColorFactor":[
						0.04800000041723251,
						0.04800000041723251,
						0.04800000041723251
					]
				},
				"KHR_materials_ior":{
					"ior":0
				}
			},
			"name":"Building9Windows_u2NBuild1_1",
			"pbrMetallicRoughness":{
				"baseColorTexture":{
					"index":6
				},
				"metallicFactor":0,
				"roughnessFactor":0.9691779017448425
			}
		},
		{
			"doubleSided":true,
			"extensions":{
				"KHR_materials_specular":{
					"specularColorFactor":[
						0.04800000041723251,
						0.04800000041723251,
						0.04800000041723251
					]
				},
				"KHR_materials_ior":{
					"ior":0
				}
			},
			"name":"Building9WindowsB_u2NBuild1_1",
			"pbrMetallicRoughness":{
				"baseColorTexture":{
					"index":7
				},
				"metallicFactor":0,
				"roughnessFactor":0.9691779017448425
			}
		},
		{
			"doubleSided":true,
			"extensions":{
				"KHR_materials_specular":{
					"specularColorFactor":[
						0.04800000041723251,
						0.04800000041723251,
						0.04800000041723251
					]
				},
				"KHR_materials_ior":{
					"ior":0
				}
			},
			"name":"Grass1_u2NBuild1_1",
			"pbrMetallicRoughness":{
				"baseColorTexture":{
					"index":8
				},
				"metallicFactor":0,
				"roughnessFactor":0.9691779017448425
			}
		},
		{
			"doubleSided":true,
			"extensions":{
				"KHR_materials_specular":{
					"specularColorFactor":[
						0.04800000041723251,
						0.04800000041723251,
						0.04800000041723251
					]
				},
				"KHR_materials_ior":{
					"ior":0
				}
			},
			"name":"Brick4_u2NBuild1_1",
			"pbrMetallicRoughness":{
				"baseColorTexture":{
					"index":9
				},
				"metallicFactor":0,
				"roughnessFactor":0.9691779017448425
			}
		}
	],
	"meshes":[
		{
			"name":"Urban Sprawl 2.053",
			"primitives":[
				{
					"attributes":{
						"POSITION":0,
						"NORMAL":1,
						"TEXCOORD_0":2
					},
					"indices":3,
					"material":0
				},
				{
					"attributes":{
						"POSITION":4,
						"NORMAL":5,
						"TEXCOORD_0":6
					},
					"indices":7,
					"material":1
				},
				{
					"attributes":{
						"POSITION":8,
						"NORMAL":9,
						"TEXCOORD_0":10
					},
					"indices":11,
					"material":2
				},
				{
					"attributes":{
						"POSITION":12,
						"NORMAL":13,
						"TEXCOORD_0":14
					},
					"indices":15,
					"material":3
				},
				{
					"attributes":{
						"POSITION":16,
						"NORMAL":17,
						"TEXCOORD_0":18
					},
					"indices":19,
					"material":4
				},
				{
					"attributes":{
						"POSITION":20,
						"NORMAL":21,
						"TEXCOORD_0":22
					},
					"indices":23,
					"material":5
				},
				{
					"attributes":{
						"POSITION":24,
						"NORMAL":25,
						"TEXCOORD_0":26
					},
					"indices":27,
					"material":6
				},
				{
					"attributes":{
						"POSITION":28,
						"NORMAL":29,
						"TEXCOORD_0":30
					},
					"indices":31,
					"material":7
				},
				{
					"attributes":{
						"POSITION":32,
						"NORMAL":33,
						"TEXCOORD_0":34
					},
					"indices":35,
					"material":8
				},
				{
					"attributes":{
						"POSITION":36,
						"NORMAL":37,
						"TEXCOORD_0":38
					},
					"indices":39,
					"material":9
				},
				{
					"attributes":{
						"POSITION":40,
						"NORMAL":41,
						"TEXCOORD_0":42
					},
					"indices":43,
					"material":10
				}
			]
		}
	],
	"textures":[
		{
			"sampler":0,
			"source":0
		},
		{
			"sampler":0,
			"source":1
		},
		{
			"sampler":0,
			"source":2
		},
		{
			"sampler":0,
			"source":3
		},
		{
			"sampler":0,
			"source":4
		},
		{
			"sampler":0,
			"source":5
		},
		{
			"sampler":0,
			"source":0
		},
		{
			"sampler":0,
			"source":0
		},
		{
			"sampler":0,
			"source":6
		},
		{
			"sampler":0,
			"source":7
		}
	],
	"images":[
		{
			"mimeType":"image/jpeg",
			"name":"u2NWBuild12",
			"uri":"u2NWBuild12.jpg"
		},
		{
			"mimeType":"image/jpeg",
			"name":"u2props1",
			"uri":"u2props1.jpg"
		},
		{
			"mimeType":"image/jpeg",
			"name":"u2crete2",
			"uri":"u2crete2.jpg"
		},
		{
			"mimeType":"image/jpeg",
			"name":"u2white",
			"uri":"u2white.jpg"
		},
		{
			"mimeType":"image/jpeg",
			"name":"u2metdark",
			"uri":"u2metdark.jpg"
		},
		{
			"mimeType":"image/jpeg",
			"name":"u2props4",
			"uri":"u2props4.jpg"
		},
		{
			"mimeType":"image/jpeg",
			"name":"u2grass",
			"uri":"u2grass.jpg"
		},
		{
			"mimeType":"image/jpeg",
			"name":"u2brick4",
			"uri":"u2brick4.jpg"
		}
	],
	"accessors":[
		{
			"bufferView":0,
			"componentType":5126,
			"count":3994,
			"max":[
				-15.682299613952637,
				-45.772300720214844,
				-1.375290036201477
			],
			"min":[
				-39.477699279785156,
				-55.098899841308594,
				-14.001500129699707
			],
			"type":"VEC3"
		},
		{
			"bufferView":1,
			"componentType":5126,
			"count":3994,
			"type":"VEC3"
		},
		{
			"bufferView":2,
			"componentType":5126,
			"count":3994,
			"type":"VEC2"
		},
		{
			"bufferView":3,
			"componentType":5123,
			"count":6978,
			"type":"SCALAR"
		},
		{
			"bufferView":4,
			"componentType":5126,
			"count":560,
			"max":[
				-15.845000267028809,
				-45.84040069580078,
				-2.239449977874756
			],
			"min":[
				-36.31169891357422,
				-52.12590026855469,
				-14.84119987487793
			],
			"type":"VEC3"
		},
		{
			"bufferView":5,
			"componentType":5126,
			"count":560,
			"type":"VEC3"
		},
		{
			"bufferView":6,
			"componentType":5126,
			"count":560,
			"type":"VEC2"
		},
		{
			"bufferView":7,
			"componentType":5123,
			"count":786,
			"type":"SCALAR"
		},
		{
			"bufferView":8,
			"componentType":5126,
			"count":1033,
			"max":[
				-15.82919979095459,
				-45.942501068115234,
				-2.5585100650787354
			],
			"min":[
				-35.724098205566406,
				-52.35639953613281,
				-13.648599624633789
			],
			"type":"VEC3"
		},
		{
			"bufferView":9,
			"componentType":5126,
			"count":1033,
			"type":"VEC3"
		},
		{
			"bufferView":10,
			"componentType":5126,
			"count":1033,
			"type":"VEC2"
		},
		{
			"bufferView":11,
			"componentType":5123,
			"count":1560,
			"type":"SCALAR"
		},
		{
			"bufferView":12,
			"componentType":5126,
			"count":16,
			"max":[
				-16.15399932861328,
				-46.10940170288086,
				-12.722200393676758
			],
			"min":[
				-39.00600051879883,
				-54.76169967651367,
				-12.722200393676758
			],
			"type":"VEC3"
		},
		{
			"bufferView":13,
			"componentType":5126,
			"count":16,
			"type":"VEC3"
		},
		{
			"bufferView":14,
			"componentType":5126,
			"count":16,
			"type":"VEC2"
		},
		{
			"bufferView":15,
			"componentType":5123,
			"count":42,
			"type":"SCALAR"
		},
		{
			"bufferView":16,
			"componentType":5126,
			"count":20,
			"max":[
				-31.335899353027344,
				-47.466400146484375,
				-14.001500129699707
			],
			"min":[
				-35.71480178833008,
				-49.71179962158203,
				-14.083000183105469
			],
			"type":"VEC3"
		},
		{
			"bufferView":17,
			"componentType":5126,
			"count":20,
			"type":"VEC3"
		},
		{
			"bufferView":18,
			"componentType":5126,
			"count":20,
			"type":"VEC2"
		},
		{
			"bufferView":19,
			"componentType":5123,
			"count":30,
			"type":"SCALAR"
		},
		{
			"bufferView":20,
			"componentType":5126,
			"count":633,
			"max":[
				-22.50279998779297,
				-53.560699462890625,
				-12.719499588012695
			],
			"min":[
				-35.39550018310547,
				-53.93980026245117,
				-12.91759967803955
			],
			"type":"VEC3"
		},
		{
			"bufferView":21,
			"componentType":5126,
			"count":633,
			"type":"VEC3"
		},
		{
			"bufferView":22,
			"componentType":5126,
			"count":633,
			"type":"VEC2"
		},
		{
			"bufferView":23,
			"componentType":5123,
			"count":828,
			"type":"SCALAR"
		},
		{
			"bufferView":24,
			"componentType":5126,
			"count":77,
			"max":[
				-16.147499084472656,
				-51.3140983581543,
				-13.692999839782715
			],
			"min":[
				-30.792400360107422,
				-52.11709976196289,
				-14.866900444030762
			],
			"type":"VEC3"
		},
		{
			"bufferView":25,
			"componentType":5126,
			"count":77,
			"type":"VEC3"
		},
		{
			"bufferView":26,
			"componentType":5126,
			"count":77,
			"type":"VEC2"
		},
		{
			"bufferView":27,
			"componentType":5123,
			"count":117,
			"type":"SCALAR"
		},
		{
			"bufferView":28,
			"componentType":5126,
			"count":213,
			"max":[
				-15.932900428771973,
				-46.025699615478516,
				-1.7845200300216675
			],
			"min":[
				-39.22710037231445,
				-54.845401763916016,
				-12.838399887084961
			],
			"type":"VEC3"
		},
		{
			"bufferView":29,
			"componentType":5126,
			"count":213,
			"type":"VEC3"
		},
		{
			"bufferView":30,
			"componentType":5126,
			"count":213,
			"type":"VEC2"
		},
		{
			"bufferView":31,
			"componentType":5123,
			"count":423,
			"type":"SCALAR"
		},
		{
			"bufferView":32,
			"componentType":5126,
			"count":172,
			"max":[
				-15.932900428771973,
				-46.02579879760742,
				-1.7845200300216675
			],
			"min":[
				-39.22710037231445,
				-54.845401763916016,
				-12.838399887084961
			],
			"type":"VEC3"
		},
		{
			"bufferView":33,
			"componentType":5126,
			"count":172,
			"type":"VEC3"
		},
		{
			"bufferView":34,
			"componentType":5126,
			"count":172,
			"type":"VEC2"
		},
		{
			"bufferView":35,
			"componentType":5123,
			"count":312,
			"type":"SCALAR"
		},
		{
			"bufferView":36,
			"componentType":5126,
			"count":8,
			"max":[
				-36.76300048828125,
				-45.97809982299805,
				-1.773319959640503
			],
			"min":[
				-38.779998779296875,
				-54.897701263427734,
				-1.7738200426101685
			],
			"type":"VEC3"
		},
		{
			"bufferView":37,
			"componentType":5126,
			"count":8,
			"type":"VEC3"
		},
		{
			"bufferView":38,
			"componentType":5126,
			"count":8,
			"type":"VEC2"
		},
		{
			"bufferView":39,
			"componentType":5123,
			"count":12,
			"type":"SCALAR"
		},
		{
			"bufferView":40,
			"componentType":5126,
			"count":230,
			"max":[
				-36.858001708984375,
				-45.85459899902344,
				-1.3600399494171143
			],
			"min":[
				-38.93389892578125,
				-55.02130126953125,
				-2.028369903564453
			],
			"type":"VEC3"
		},
		{
			"bufferView":41,
			"componentType":5126,
			"count":230,
			"type":"VEC3"
		},
		{
			"bufferView":42,
			"componentType":5126,
			"count":230,
			"type":"VEC2"
		},
		{
			"bufferView":43,
			"componentType":5123,
			"count":312,
			"type":"SCALAR"
		}
	],
	"bufferViews":[
		{
			"buffer":0,
			"byteLength":47928,
			"byteOffset":0,
			"target":34962
		},
		{
			"buffer":0,
			"byteLength":47928,
			"byteOffset":47928,
			"target":34962
		},
		{
			"buffer":0,
			"byteLength":31952,
			"byteOffset":95856,
			"target":34962
		},
		{
			"buffer":0,
			"byteLength":13956,
			"byteOffset":127808,
			"target":34963
		},
		{
			"buffer":0,
			"byteLength":6720,
			"byteOffset":141764,
			"target":34962
		},
		{
			"buffer":0,
			"byteLength":6720,
			"byteOffset":148484,
			"target":34962
		},
		{
			"buffer":0,
			"byteLength":4480,
			"byteOffset":155204,
			"target":34962
		},
		{
			"buffer":0,
			"byteLength":1572,
			"byteOffset":159684,
			"target":34963
		},
		{
			"buffer":0,
			"byteLength":12396,
			"byteOffset":161256,
			"target":34962
		},
		{
			"buffer":0,
			"byteLength":12396,
			"byteOffset":173652,
			"target":34962
		},
		{
			"buffer":0,
			"byteLength":8264,
			"byteOffset":186048,
			"target":34962
		},
		{
			"buffer":0,
			"byteLength":3120,
			"byteOffset":194312,
			"target":34963
		},
		{
			"buffer":0,
			"byteLength":192,
			"byteOffset":197432,
			"target":34962
		},
		{
			"buffer":0,
			"byteLength":192,
			"byteOffset":197624,
			"target":34962
		},
		{
			"buffer":0,
			"byteLength":128,
			"byteOffset":197816,
			"target":34962
		},
		{
			"buffer":0,
			"byteLength":84,
			"byteOffset":197944,
			"target":34963
		},
		{
			"buffer":0,
			"byteLength":240,
			"byteOffset":198028,
			"target":34962
		},
		{
			"buffer":0,
			"byteLength":240,
			"byteOffset":198268,
			"target":34962
		},
		{
			"buffer":0,
			"byteLength":160,
			"byteOffset":198508,
			"target":34962
		},
		{
			"buffer":0,
			"byteLength":60,
			"byteOffset":198668,
			"target":34963
		},
		{
			"buffer":0,
			"byteLength":7596,
			"byteOffset":198728,
			"target":34962
		},
		{
			"buffer":0,
			"byteLength":7596,
			"byteOffset":206324,
			"target":34962
		},
		{
			"buffer":0,
			"byteLength":5064,
			"byteOffset":213920,
			"target":34962
		},
		{
			"buffer":0,
			"byteLength":1656,
			"byteOffset":218984,
			"target":34963
		},
		{
			"buffer":0,
			"byteLength":924,
			"byteOffset":220640,
			"target":34962
		},
		{
			"buffer":0,
			"byteLength":924,
			"byteOffset":221564,
			"target":34962
		},
		{
			"buffer":0,
			"byteLength":616,
			"byteOffset":222488,
			"target":34962
		},
		{
			"buffer":0,
			"byteLength":234,
			"byteOffset":223104,
			"target":34963
		},
		{
			"buffer":0,
			"byteLength":2556,
			"byteOffset":223340,
			"target":34962
		},
		{
			"buffer":0,
			"byteLength":2556,
			"byteOffset":225896,
			"target":34962
		},
		{
			"buffer":0,
			"byteLength":1704,
			"byteOffset":228452,
			"target":34962
		},
		{
			"buffer":0,
			"byteLength":846,
			"byteOffset":230156,
			"target":34963
		},
		{
			"buffer":0,
			"byteLength":2064,
			"byteOffset":231004,
			"target":34962
		},
		{
			"buffer":0,
			"byteLength":2064,
			"byteOffset":233068,
			"target":34962
		},
		{
			"buffer":0,
			"byteLength":1376,
			"byteOffset":235132,
			"target":34962
		},
		{
			"buffer":0,
			"byteLength":624,
			"byteOffset":236508,
			"target":34963
		},
		{
			"buffer":0,
			"byteLength":96,
			"byteOffset":237132,
			"target":34962
		},
		{
			"buffer":0,
			"byteLength":96,
			"byteOffset":237228,
			"target":34962
		},
		{
			"buffer":0,
			"byteLength":64,
			"byteOffset":237324,
			"target":34962
		},
		{
			"buffer":0,
			"byteLength":24,
			"byteOffset":237388,
			"target":34963
		},
		{
			"buffer":0,
			"byteLength":2760,
			"byteOffset":237412,
			"target":34962
		},
		{
			"buffer":0,
			"byteLength":2760,
			"byteOffset":240172,
			"target":34962
		},
		{
			"buffer":0,
			"byteLength":1840,
			"byteOffset":242932,
			"target":34962
		},
		{
			"buffer":0,
			"byteLength":624,
			"byteOffset":244772,
			"target":34963
		}
	],
	"samplers":[
		{
			"magFilter":9729,
			"minFilter":9987
		}
	],
	"buffers":[
		{
			"byteLength":245396,
			"uri":"u2NBuild1.bin"
		}
	]
}
