{
	"asset":{
		"generator":"Khronos glTF Blender I/O v5.0.21",
		"version":"2.0"
	},
	"extensionsUsed":[
		"KHR_materials_specular",
		"KHR_materials_ior"
	],
	"scene":0,
	"scenes":[
		{
			"name":"Scene",
			"nodes":[
				0
			]
		}
	],
	"nodes":[
		{
			"mesh":0,
			"name":"u2NBuild6",
			"rotation":[
				0.70710688829422,
				0,
				0,
				0.7071066498756409
			]
		}
	],
	"materials":[
		{
			"doubleSided":true,
			"extensions":{
				"KHR_materials_specular":{
					"specularColorFactor":[
						0.04800000041723251,
						0.04800000041723251,
						0.04800000041723251
					]
				},
				"KHR_materials_ior":{
					"ior":0
				}
			},
			"name":"Concrete_u2NBuild6_1",
			"pbrMetallicRoughness":{
				"baseColorTexture":{
					"index":0
				},
				"metallicFactor":0,
				"roughnessFactor":0.9687750339508057
			}
		},
		{
			"doubleSided":true,
			"extensions":{
				"KHR_materials_specular":{
					"specularColorFactor":[
						0.04800000041723251,
						0.04800000041723251,
						0.04800000041723251
					]
				},
				"KHR_materials_ior":{
					"ior":0
				}
			},
			"name":"WindowA_u2NBuild6_1",
			"pbrMetallicRoughness":{
				"baseColorTexture":{
					"index":1
				},
				"metallicFactor":0,
				"roughnessFactor":0.9691779017448425
			}
		},
		{
			"doubleSided":true,
			"extensions":{
				"KHR_materials_specular":{
					"specularColorFactor":[
						0.04800000041723251,
						0.04800000041723251,
						0.04800000041723251
					]
				},
				"KHR_materials_ior":{
					"ior":0
				}
			},
			"name":"Building11_u2NBuild6_1",
			"pbrMetallicRoughness":{
				"baseColorTexture":{
					"index":2
				},
				"metallicFactor":0,
				"roughnessFactor":0.9691779017448425
			}
		},
		{
			"doubleSided":true,
			"extensions":{
				"KHR_materials_specular":{
					"specularColorFactor":[
						0.04800000041723251,
						0.04800000041723251,
						0.04800000041723251
					]
				},
				"KHR_materials_ior":{
					"ior":0
				}
			},
			"name":"WindowsB_u2NBuild6_1",
			"pbrMetallicRoughness":{
				"baseColorTexture":{
					"index":3
				},
				"metallicFactor":0,
				"roughnessFactor":0.9691779017448425
			}
		},
		{
			"doubleSided":true,
			"extensions":{
				"KHR_materials_specular":{
					"specularColorFactor":[
						0.04800000041723251,
						0.04800000041723251,
						0.04800000041723251
					]
				},
				"KHR_materials_ior":{
					"ior":0
				}
			},
			"name":"RooftopProps_u2NBuild6_1",
			"pbrMetallicRoughness":{
				"baseColorTexture":{
					"index":4
				},
				"metallicFactor":0,
				"roughnessFactor":0.9685357213020325
			}
		},
		{
			"doubleSided":true,
			"extensions":{
				"KHR_materials_specular":{
					"specularColorFactor":[
						0.04800000041723251,
						0.04800000041723251,
						0.04800000041723251
					]
				},
				"KHR_materials_ior":{
					"ior":0
				}
			},
			"name":"Concrete1_u2NBuild6_1",
			"pbrMetallicRoughness":{
				"baseColorTexture":{
					"index":5
				},
				"metallicFactor":0,
				"roughnessFactor":0.9687750339508057
			}
		},
		{
			"doubleSided":true,
			"extensions":{
				"KHR_materials_specular":{
					"specularColorFactor":[
						0.04800000041723251,
						0.04800000041723251,
						0.04800000041723251
					]
				},
				"KHR_materials_ior":{
					"ior":0
				}
			},
			"name":"MetalGalvanized_u2NBuild6_1",
			"pbrMetallicRoughness":{
				"baseColorTexture":{
					"index":6
				},
				"metallicFactor":0,
				"roughnessFactor":0.9687750339508057
			}
		},
		{
			"doubleSided":true,
			"extensions":{
				"KHR_materials_specular":{
					"specularColorFactor":[
						0.04800000041723251,
						0.04800000041723251,
						0.04800000041723251
					]
				},
				"KHR_materials_ior":{
					"ior":0
				}
			},
			"name":"Doors_u2NBuild6_1",
			"pbrMetallicRoughness":{
				"baseColorTexture":{
					"index":7
				},
				"metallicFactor":0,
				"roughnessFactor":0.9691779017448425
			}
		},
		{
			"doubleSided":true,
			"extensions":{
				"KHR_materials_specular":{
					"specularColorFactor":[
						0.04800000041723251,
						0.04800000041723251,
						0.04800000041723251
					]
				},
				"KHR_materials_ior":{
					"ior":0
				}
			},
			"name":"AirCon3_u2NBuild6_1",
			"pbrMetallicRoughness":{
				"baseColorTexture":{
					"index":8
				},
				"metallicFactor":0,
				"roughnessFactor":0.9685357213020325
			}
		},
		{
			"doubleSided":true,
			"extensions":{
				"KHR_materials_specular":{
					"specularColorFactor":[
						0.04800000041723251,
						0.04800000041723251,
						0.04800000041723251
					]
				},
				"KHR_materials_ior":{
					"ior":0
				}
			},
			"name":"YellowPaint_u2NBuild6_1",
			"pbrMetallicRoughness":{
				"baseColorTexture":{
					"index":9
				},
				"metallicFactor":0,
				"roughnessFactor":0.9693813920021057
			}
		},
		{
			"doubleSided":true,
			"extensions":{
				"KHR_materials_specular":{
					"specularColorFactor":[
						0.04800000041723251,
						0.04800000041723251,
						0.04800000041723251
					]
				},
				"KHR_materials_ior":{
					"ior":0
				}
			},
			"name":"Props1_u2NBuild6_1",
			"pbrMetallicRoughness":{
				"baseColorTexture":{
					"index":10
				},
				"metallicFactor":0,
				"roughnessFactor":0.9685357213020325
			}
		},
		{
			"doubleSided":true,
			"extensions":{
				"KHR_materials_specular":{
					"specularColorFactor":[
						0.04800000041723251,
						0.04800000041723251,
						0.04800000041723251
					]
				},
				"KHR_materials_ior":{
					"ior":0
				}
			},
			"name":"Props2_u2NBuild6_1",
			"pbrMetallicRoughness":{
				"baseColorTexture":{
					"index":11
				},
				"metallicFactor":0,
				"roughnessFactor":0.9691779017448425
			}
		}
	],
	"meshes":[
		{
			"name":"Urban Sprawl 2.058",
			"primitives":[
				{
					"attributes":{
						"POSITION":0,
						"NORMAL":1,
						"TEXCOORD_0":2
					},
					"indices":3,
					"material":0
				},
				{
					"attributes":{
						"POSITION":4,
						"NORMAL":5,
						"TEXCOORD_0":6
					},
					"indices":7,
					"material":1
				},
				{
					"attributes":{
						"POSITION":8,
						"NORMAL":9,
						"TEXCOORD_0":10
					},
					"indices":11,
					"material":2
				},
				{
					"attributes":{
						"POSITION":12,
						"NORMAL":13,
						"TEXCOORD_0":14
					},
					"indices":15,
					"material":3
				},
				{
					"attributes":{
						"POSITION":16,
						"NORMAL":17,
						"TEXCOORD_0":18
					},
					"indices":19,
					"material":4
				},
				{
					"attributes":{
						"POSITION":20,
						"NORMAL":21,
						"TEXCOORD_0":22
					},
					"indices":23,
					"material":5
				},
				{
					"attributes":{
						"POSITION":24,
						"NORMAL":25,
						"TEXCOORD_0":26
					},
					"indices":27,
					"material":6
				},
				{
					"attributes":{
						"POSITION":28,
						"NORMAL":29,
						"TEXCOORD_0":30
					},
					"indices":31,
					"material":7
				},
				{
					"attributes":{
						"POSITION":32,
						"NORMAL":33,
						"TEXCOORD_0":34
					},
					"indices":35,
					"material":8
				},
				{
					"attributes":{
						"POSITION":36,
						"NORMAL":37,
						"TEXCOORD_0":38
					},
					"indices":39,
					"material":9
				},
				{
					"attributes":{
						"POSITION":40,
						"NORMAL":41,
						"TEXCOORD_0":42
					},
					"indices":43,
					"material":10
				},
				{
					"attributes":{
						"POSITION":44,
						"NORMAL":45,
						"TEXCOORD_0":46
					},
					"indices":47,
					"material":11
				}
			]
		}
	],
	"textures":[
		{
			"sampler":0,
			"source":0
		},
		{
			"sampler":0,
			"source":1
		},
		{
			"sampler":0,
			"source":1
		},
		{
			"sampler":0,
			"source":1
		},
		{
			"sampler":0,
			"source":2
		},
		{
			"sampler":0,
			"source":3
		},
		{
			"sampler":0,
			"source":4
		},
		{
			"sampler":0,
			"source":5
		},
		{
			"sampler":0,
			"source":6
		},
		{
			"sampler":0,
			"source":7
		},
		{
			"sampler":0,
			"source":8
		},
		{
			"sampler":0,
			"source":9
		}
	],
	"images":[
		{
			"mimeType":"image/jpeg",
			"name":"u2crete1",
			"uri":"u2crete1.jpg"
		},
		{
			"mimeType":"image/jpeg",
			"name":"u2SEBuild11",
			"uri":"u2SEBuild11.jpg"
		},
		{
			"mimeType":"image/jpeg",
			"name":"u2props4",
			"uri":"u2props4.jpg"
		},
		{
			"mimeType":"image/jpeg",
			"name":"u2white",
			"uri":"u2white.jpg"
		},
		{
			"mimeType":"image/jpeg",
			"name":"u2metal1",
			"uri":"u2metal1.jpg"
		},
		{
			"mimeType":"image/jpeg",
			"name":"u2doors1",
			"uri":"u2doors1.jpg"
		},
		{
			"mimeType":"image/jpeg",
			"name":"u2acunit1",
			"uri":"u2acunit1.jpg"
		},
		{
			"mimeType":"image/jpeg",
			"name":"u2yellow",
			"uri":"u2yellow.jpg"
		},
		{
			"mimeType":"image/jpeg",
			"name":"u2props1",
			"uri":"u2props1.jpg"
		},
		{
			"mimeType":"image/jpeg",
			"name":"u2props2",
			"uri":"u2props2.jpg"
		}
	],
	"accessors":[
		{
			"bufferView":0,
			"componentType":5126,
			"count":374,
			"max":[
				-43.20650100708008,
				-46.362300872802734,
				-6.947360038757324
			],
			"min":[
				-64.67240142822266,
				-57.85150146484375,
				-8.572890281677246
			],
			"type":"VEC3"
		},
		{
			"bufferView":1,
			"componentType":5126,
			"count":374,
			"type":"VEC3"
		},
		{
			"bufferView":2,
			"componentType":5126,
			"count":374,
			"type":"VEC2"
		},
		{
			"bufferView":3,
			"componentType":5123,
			"count":642,
			"type":"SCALAR"
		},
		{
			"bufferView":4,
			"componentType":5126,
			"count":14,
			"max":[
				-43.694000244140625,
				-46.94670104980469,
				-1.5435999631881714
			],
			"min":[
				-64.24079895019531,
				-57.434200286865234,
				-6.674389839172363
			],
			"type":"VEC3"
		},
		{
			"bufferView":5,
			"componentType":5126,
			"count":14,
			"type":"VEC3"
		},
		{
			"bufferView":6,
			"componentType":5126,
			"count":14,
			"type":"VEC2"
		},
		{
			"bufferView":7,
			"componentType":5123,
			"count":24,
			"type":"SCALAR"
		},
		{
			"bufferView":8,
			"componentType":5126,
			"count":808,
			"max":[
				-43.32429885864258,
				-46.47100067138672,
				-1.1194900274276733
			],
			"min":[
				-64.60260009765625,
				-57.79010009765625,
				-7.004549980163574
			],
			"type":"VEC3"
		},
		{
			"bufferView":9,
			"componentType":5126,
			"count":808,
			"type":"VEC3"
		},
		{
			"bufferView":10,
			"componentType":5126,
			"count":808,
			"type":"VEC2"
		},
		{
			"bufferView":11,
			"componentType":5123,
			"count":1308,
			"type":"SCALAR"
		},
		{
			"bufferView":12,
			"componentType":5126,
			"count":8,
			"max":[
				-53.989200592041016,
				-47.01240158081055,
				-1.5435999631881714
			],
			"min":[
				-64.24079895019531,
				-57.434200286865234,
				-6.674389839172363
			],
			"type":"VEC3"
		},
		{
			"bufferView":13,
			"componentType":5126,
			"count":8,
			"type":"VEC3"
		},
		{
			"bufferView":14,
			"componentType":5126,
			"count":8,
			"type":"VEC2"
		},
		{
			"bufferView":15,
			"componentType":5123,
			"count":12,
			"type":"SCALAR"
		},
		{
			"bufferView":16,
			"componentType":5126,
			"count":4228,
			"max":[
				-45.7140007019043,
				-46.9807014465332,
				-7.068490028381348
			],
			"min":[
				-63.474300384521484,
				-56.24789810180664,
				-8.816390037536621
			],
			"type":"VEC3"
		},
		{
			"bufferView":17,
			"componentType":5126,
			"count":4228,
			"type":"VEC3"
		},
		{
			"bufferView":18,
			"componentType":5126,
			"count":4228,
			"type":"VEC2"
		},
		{
			"bufferView":19,
			"componentType":5123,
			"count":7842,
			"type":"SCALAR"
		},
		{
			"bufferView":20,
			"componentType":5126,
			"count":20,
			"max":[
				-56.93870162963867,
				-46.59260177612305,
				-7.0338897705078125
			],
			"min":[
				-59.563899993896484,
				-57.4385986328125,
				-7.1108198165893555
			],
			"type":"VEC3"
		},
		{
			"bufferView":21,
			"componentType":5126,
			"count":20,
			"type":"VEC3"
		},
		{
			"bufferView":22,
			"componentType":5126,
			"count":20,
			"type":"VEC2"
		},
		{
			"bufferView":23,
			"componentType":5123,
			"count":30,
			"type":"SCALAR"
		},
		{
			"bufferView":24,
			"componentType":5126,
			"count":64,
			"max":[
				-50.7046012878418,
				-53.91780090332031,
				-7.0648298263549805
			],
			"min":[
				-52.5369987487793,
				-55.61349868774414,
				-8.572890281677246
			],
			"type":"VEC3"
		},
		{
			"bufferView":25,
			"componentType":5126,
			"count":64,
			"type":"VEC3"
		},
		{
			"bufferView":26,
			"componentType":5126,
			"count":64,
			"type":"VEC2"
		},
		{
			"bufferView":27,
			"componentType":5123,
			"count":108,
			"type":"SCALAR"
		},
		{
			"bufferView":28,
			"componentType":5126,
			"count":4,
			"max":[
				-50.870601654052734,
				-53.960601806640625,
				-7.302529811859131
			],
			"min":[
				-51.25040054321289,
				-53.96200180053711,
				-8.116700172424316
			],
			"type":"VEC3"
		},
		{
			"bufferView":29,
			"componentType":5126,
			"count":4,
			"type":"VEC3"
		},
		{
			"bufferView":30,
			"componentType":5126,
			"count":4,
			"type":"VEC2"
		},
		{
			"bufferView":31,
			"componentType":5123,
			"count":6,
			"type":"SCALAR"
		},
		{
			"bufferView":32,
			"componentType":5126,
			"count":1390,
			"max":[
				-49.55179977416992,
				-53.98569869995117,
				-7.063940048217773
			],
			"min":[
				-52.549400329589844,
				-55.54999923706055,
				-8.051690101623535
			],
			"type":"VEC3"
		},
		{
			"bufferView":33,
			"componentType":5126,
			"count":1390,
			"type":"VEC3"
		},
		{
			"bufferView":34,
			"componentType":5126,
			"count":1390,
			"type":"VEC2"
		},
		{
			"bufferView":35,
			"componentType":5123,
			"count":2394,
			"type":"SCALAR"
		},
		{
			"bufferView":36,
			"componentType":5126,
			"count":149,
			"max":[
				-50.77579879760742,
				-53.48749923706055,
				-7.068570137023926
			],
			"min":[
				-51.33689880371094,
				-54.02730178833008,
				-7.621719837188721
			],
			"type":"VEC3"
		},
		{
			"bufferView":37,
			"componentType":5126,
			"count":149,
			"type":"VEC3"
		},
		{
			"bufferView":38,
			"componentType":5126,
			"count":149,
			"type":"VEC2"
		},
		{
			"bufferView":39,
			"componentType":5123,
			"count":384,
			"type":"SCALAR"
		},
		{
			"bufferView":40,
			"componentType":5126,
			"count":12,
			"max":[
				-51.356300354003906,
				-53.950801849365234,
				-7.3502302169799805
			],
			"min":[
				-52.51340103149414,
				-55.579898834228516,
				-7.73006010055542
			],
			"type":"VEC3"
		},
		{
			"bufferView":41,
			"componentType":5126,
			"count":12,
			"type":"VEC3"
		},
		{
			"bufferView":42,
			"componentType":5126,
			"count":12,
			"type":"VEC2"
		},
		{
			"bufferView":43,
			"componentType":5123,
			"count":18,
			"type":"SCALAR"
		},
		{
			"bufferView":44,
			"componentType":5126,
			"count":49,
			"max":[
				-50.86880111694336,
				-55.57590103149414,
				-8.083600044250488
			],
			"min":[
				-51.12110137939453,
				-55.62189865112305,
				-8.257699966430664
			],
			"type":"VEC3"
		},
		{
			"bufferView":45,
			"componentType":5126,
			"count":49,
			"type":"VEC3"
		},
		{
			"bufferView":46,
			"componentType":5126,
			"count":49,
			"type":"VEC2"
		},
		{
			"bufferView":47,
			"componentType":5123,
			"count":78,
			"type":"SCALAR"
		}
	],
	"bufferViews":[
		{
			"buffer":0,
			"byteLength":4488,
			"byteOffset":0,
			"target":34962
		},
		{
			"buffer":0,
			"byteLength":4488,
			"byteOffset":4488,
			"target":34962
		},
		{
			"buffer":0,
			"byteLength":2992,
			"byteOffset":8976,
			"target":34962
		},
		{
			"buffer":0,
			"byteLength":1284,
			"byteOffset":11968,
			"target":34963
		},
		{
			"buffer":0,
			"byteLength":168,
			"byteOffset":13252,
			"target":34962
		},
		{
			"buffer":0,
			"byteLength":168,
			"byteOffset":13420,
			"target":34962
		},
		{
			"buffer":0,
			"byteLength":112,
			"byteOffset":13588,
			"target":34962
		},
		{
			"buffer":0,
			"byteLength":48,
			"byteOffset":13700,
			"target":34963
		},
		{
			"buffer":0,
			"byteLength":9696,
			"byteOffset":13748,
			"target":34962
		},
		{
			"buffer":0,
			"byteLength":9696,
			"byteOffset":23444,
			"target":34962
		},
		{
			"buffer":0,
			"byteLength":6464,
			"byteOffset":33140,
			"target":34962
		},
		{
			"buffer":0,
			"byteLength":2616,
			"byteOffset":39604,
			"target":34963
		},
		{
			"buffer":0,
			"byteLength":96,
			"byteOffset":42220,
			"target":34962
		},
		{
			"buffer":0,
			"byteLength":96,
			"byteOffset":42316,
			"target":34962
		},
		{
			"buffer":0,
			"byteLength":64,
			"byteOffset":42412,
			"target":34962
		},
		{
			"buffer":0,
			"byteLength":24,
			"byteOffset":42476,
			"target":34963
		},
		{
			"buffer":0,
			"byteLength":50736,
			"byteOffset":42500,
			"target":34962
		},
		{
			"buffer":0,
			"byteLength":50736,
			"byteOffset":93236,
			"target":34962
		},
		{
			"buffer":0,
			"byteLength":33824,
			"byteOffset":143972,
			"target":34962
		},
		{
			"buffer":0,
			"byteLength":15684,
			"byteOffset":177796,
			"target":34963
		},
		{
			"buffer":0,
			"byteLength":240,
			"byteOffset":193480,
			"target":34962
		},
		{
			"buffer":0,
			"byteLength":240,
			"byteOffset":193720,
			"target":34962
		},
		{
			"buffer":0,
			"byteLength":160,
			"byteOffset":193960,
			"target":34962
		},
		{
			"buffer":0,
			"byteLength":60,
			"byteOffset":194120,
			"target":34963
		},
		{
			"buffer":0,
			"byteLength":768,
			"byteOffset":194180,
			"target":34962
		},
		{
			"buffer":0,
			"byteLength":768,
			"byteOffset":194948,
			"target":34962
		},
		{
			"buffer":0,
			"byteLength":512,
			"byteOffset":195716,
			"target":34962
		},
		{
			"buffer":0,
			"byteLength":216,
			"byteOffset":196228,
			"target":34963
		},
		{
			"buffer":0,
			"byteLength":48,
			"byteOffset":196444,
			"target":34962
		},
		{
			"buffer":0,
			"byteLength":48,
			"byteOffset":196492,
			"target":34962
		},
		{
			"buffer":0,
			"byteLength":32,
			"byteOffset":196540,
			"target":34962
		},
		{
			"buffer":0,
			"byteLength":12,
			"byteOffset":196572,
			"target":34963
		},
		{
			"buffer":0,
			"byteLength":16680,
			"byteOffset":196584,
			"target":34962
		},
		{
			"buffer":0,
			"byteLength":16680,
			"byteOffset":213264,
			"target":34962
		},
		{
			"buffer":0,
			"byteLength":11120,
			"byteOffset":229944,
			"target":34962
		},
		{
			"buffer":0,
			"byteLength":4788,
			"byteOffset":241064,
			"target":34963
		},
		{
			"buffer":0,
			"byteLength":1788,
			"byteOffset":245852,
			"target":34962
		},
		{
			"buffer":0,
			"byteLength":1788,
			"byteOffset":247640,
			"target":34962
		},
		{
			"buffer":0,
			"byteLength":1192,
			"byteOffset":249428,
			"target":34962
		},
		{
			"buffer":0,
			"byteLength":768,
			"byteOffset":250620,
			"target":34963
		},
		{
			"buffer":0,
			"byteLength":144,
			"byteOffset":251388,
			"target":34962
		},
		{
			"buffer":0,
			"byteLength":144,
			"byteOffset":251532,
			"target":34962
		},
		{
			"buffer":0,
			"byteLength":96,
			"byteOffset":251676,
			"target":34962
		},
		{
			"buffer":0,
			"byteLength":36,
			"byteOffset":251772,
			"target":34963
		},
		{
			"buffer":0,
			"byteLength":588,
			"byteOffset":251808,
			"target":34962
		},
		{
			"buffer":0,
			"byteLength":588,
			"byteOffset":252396,
			"target":34962
		},
		{
			"buffer":0,
			"byteLength":392,
			"byteOffset":252984,
			"target":34962
		},
		{
			"buffer":0,
			"byteLength":156,
			"byteOffset":253376,
			"target":34963
		}
	],
	"samplers":[
		{
			"magFilter":9729,
			"minFilter":9987
		}
	],
	"buffers":[
		{
			"byteLength":253532,
			"uri":"u2NBuild6.bin"
		}
	]
}
