{
	"asset":{
		"generator":"Khronos glTF Blender I/O v5.0.21",
		"version":"2.0"
	},
	"extensionsUsed":[
		"KHR_materials_specular",
		"KHR_materials_ior"
	],
	"scene":0,
	"scenes":[
		{
			"name":"Scene",
			"nodes":[
				0
			]
		}
	],
	"nodes":[
		{
			"mesh":0,
			"name":"u2NEBuild5",
			"rotation":[
				0.70710688829422,
				0,
				0,
				0.7071066498756409
			]
		}
	],
	"materials":[
		{
			"doubleSided":true,
			"extensions":{
				"KHR_materials_specular":{
					"specularColorFactor":[
						0.04800000041723251,
						0.04800000041723251,
						0.04800000041723251
					]
				},
				"KHR_materials_ior":{
					"ior":0
				}
			},
			"name":"Concrete_u2NEBuild5_1",
			"pbrMetallicRoughness":{
				"baseColorTexture":{
					"index":0
				},
				"metallicFactor":0,
				"roughnessFactor":0.9687750339508057
			}
		},
		{
			"doubleSided":true,
			"extensions":{
				"KHR_materials_specular":{
					"specularColorFactor":[
						0.04800000041723251,
						0.04800000041723251,
						0.04800000041723251
					]
				},
				"KHR_materials_ior":{
					"ior":0
				}
			},
			"name":"RooftopProps_u2NEBuild5_1",
			"pbrMetallicRoughness":{
				"baseColorTexture":{
					"index":1
				},
				"metallicFactor":0,
				"roughnessFactor":0.9685357213020325
			}
		},
		{
			"doubleSided":true,
			"extensions":{
				"KHR_materials_specular":{
					"specularColorFactor":[
						0.04800000041723251,
						0.04800000041723251,
						0.04800000041723251
					]
				},
				"KHR_materials_ior":{
					"ior":0
				}
			},
			"name":"MetalGrey_u2NEBuild5_1",
			"pbrMetallicRoughness":{
				"baseColorTexture":{
					"index":2
				},
				"metallicFactor":0,
				"roughnessFactor":0.9687750339508057
			}
		},
		{
			"doubleSided":true,
			"extensions":{
				"KHR_materials_specular":{
					"specularColorFactor":[
						0.04800000041723251,
						0.04800000041723251,
						0.04800000041723251
					]
				},
				"KHR_materials_ior":{
					"ior":0
				}
			},
			"name":"BlackMetalPanels_u2NEBuild5_1",
			"pbrMetallicRoughness":{
				"baseColorFactor":[
					0.800000011920929,
					0.800000011920929,
					0.800000011920929,
					1
				],
				"metallicFactor":0,
				"roughnessFactor":0.9691779017448425
			}
		},
		{
			"doubleSided":true,
			"extensions":{
				"KHR_materials_specular":{
					"specularColorFactor":[
						0.04800000041723251,
						0.04800000041723251,
						0.04800000041723251
					]
				},
				"KHR_materials_ior":{
					"ior":0
				}
			},
			"name":"SkylightGlass_u2NEBuild5_1",
			"pbrMetallicRoughness":{
				"baseColorTexture":{
					"index":3
				},
				"metallicFactor":0,
				"roughnessFactor":0.9687750339508057
			}
		},
		{
			"doubleSided":true,
			"extensions":{
				"KHR_materials_specular":{
					"specularColorFactor":[
						0.04800000041723251,
						0.04800000041723251,
						0.04800000041723251
					]
				},
				"KHR_materials_ior":{
					"ior":0
				}
			},
			"name":"MetalDark_u2NEBuild5_1",
			"pbrMetallicRoughness":{
				"baseColorTexture":{
					"index":4
				},
				"metallicFactor":0,
				"roughnessFactor":0.9691779017448425
			}
		},
		{
			"doubleSided":true,
			"extensions":{
				"KHR_materials_specular":{
					"specularColorFactor":[
						0.04800000041723251,
						0.04800000041723251,
						0.04800000041723251
					]
				},
				"KHR_materials_ior":{
					"ior":0
				}
			},
			"name":"Props2_u2NEBuild5_1",
			"pbrMetallicRoughness":{
				"baseColorTexture":{
					"index":5
				},
				"metallicFactor":0,
				"roughnessFactor":0.9691779017448425
			}
		}
	],
	"meshes":[
		{
			"name":"Urban Sprawl 2.008",
			"primitives":[
				{
					"attributes":{
						"POSITION":0,
						"NORMAL":1,
						"TEXCOORD_0":2
					},
					"indices":3,
					"material":0
				},
				{
					"attributes":{
						"POSITION":4,
						"NORMAL":5,
						"TEXCOORD_0":6
					},
					"indices":7,
					"material":1
				},
				{
					"attributes":{
						"POSITION":8,
						"NORMAL":9,
						"TEXCOORD_0":10
					},
					"indices":11,
					"material":2
				},
				{
					"attributes":{
						"POSITION":12,
						"NORMAL":13,
						"TEXCOORD_0":14
					},
					"indices":15,
					"material":3
				},
				{
					"attributes":{
						"POSITION":16,
						"NORMAL":17,
						"TEXCOORD_0":18
					},
					"indices":19,
					"material":4
				},
				{
					"attributes":{
						"POSITION":20,
						"NORMAL":21,
						"TEXCOORD_0":22
					},
					"indices":23,
					"material":5
				},
				{
					"attributes":{
						"POSITION":24,
						"NORMAL":25,
						"TEXCOORD_0":26
					},
					"indices":27,
					"material":6
				}
			]
		}
	],
	"textures":[
		{
			"sampler":0,
			"source":0
		},
		{
			"sampler":0,
			"source":1
		},
		{
			"sampler":0,
			"source":2
		},
		{
			"sampler":0,
			"source":2
		},
		{
			"sampler":0,
			"source":3
		},
		{
			"sampler":0,
			"source":4
		}
	],
	"images":[
		{
			"mimeType":"image/jpeg",
			"name":"u2white",
			"uri":"u2white.jpg"
		},
		{
			"mimeType":"image/jpeg",
			"name":"u2props4",
			"uri":"u2props4.jpg"
		},
		{
			"mimeType":"image/jpeg",
			"name":"u2metal1",
			"uri":"u2metal1.jpg"
		},
		{
			"mimeType":"image/jpeg",
			"name":"u2metdark",
			"uri":"u2metdark.jpg"
		},
		{
			"mimeType":"image/jpeg",
			"name":"u2props2",
			"uri":"u2props2.jpg"
		}
	],
	"accessors":[
		{
			"bufferView":0,
			"componentType":5126,
			"count":204,
			"max":[
				48.5364990234375,
				-15.979399681091309,
				-25.171100616455078
			],
			"min":[
				35.45800018310547,
				-29.057899475097656,
				-29.318700790405273
			],
			"type":"VEC3"
		},
		{
			"bufferView":1,
			"componentType":5126,
			"count":204,
			"type":"VEC3"
		},
		{
			"bufferView":2,
			"componentType":5126,
			"count":204,
			"type":"VEC2"
		},
		{
			"bufferView":3,
			"componentType":5123,
			"count":330,
			"type":"SCALAR"
		},
		{
			"bufferView":4,
			"componentType":5126,
			"count":4613,
			"max":[
				47.119598388671875,
				-17.485200881958008,
				-25.301300048828125
			],
			"min":[
				37.1697998046875,
				-27.093799591064453,
				-29.54450035095215
			],
			"type":"VEC3"
		},
		{
			"bufferView":5,
			"componentType":5126,
			"count":4613,
			"type":"VEC3"
		},
		{
			"bufferView":6,
			"componentType":5126,
			"count":4613,
			"type":"VEC2"
		},
		{
			"bufferView":7,
			"componentType":5123,
			"count":8604,
			"type":"SCALAR"
		},
		{
			"bufferView":8,
			"componentType":5126,
			"count":893,
			"max":[
				46.352298736572266,
				-17.41160011291504,
				-25.248300552368164
			],
			"min":[
				36.19300079345703,
				-27.91230010986328,
				-29.117700576782227
			],
			"type":"VEC3"
		},
		{
			"bufferView":9,
			"componentType":5126,
			"count":893,
			"type":"VEC3"
		},
		{
			"bufferView":10,
			"componentType":5126,
			"count":893,
			"type":"VEC2"
		},
		{
			"bufferView":11,
			"componentType":5123,
			"count":1320,
			"type":"SCALAR"
		},
		{
			"bufferView":12,
			"componentType":5126,
			"count":80,
			"max":[
				47.07509994506836,
				-16.778400421142578,
				-25.289499282836914
			],
			"min":[
				43.777198791503906,
				-27.52790069580078,
				-25.898500442504883
			],
			"type":"VEC3"
		},
		{
			"bufferView":13,
			"componentType":5126,
			"count":80,
			"type":"VEC3"
		},
		{
			"bufferView":14,
			"componentType":5126,
			"count":80,
			"type":"VEC2"
		},
		{
			"bufferView":15,
			"componentType":5123,
			"count":120,
			"type":"SCALAR"
		},
		{
			"bufferView":16,
			"componentType":5126,
			"count":66,
			"max":[
				37.878299713134766,
				-17.440099716186523,
				-25.50469970703125
			],
			"min":[
				37.39950180053711,
				-21.67930030822754,
				-25.632299423217773
			],
			"type":"VEC3"
		},
		{
			"bufferView":17,
			"componentType":5126,
			"count":66,
			"type":"VEC3"
		},
		{
			"bufferView":18,
			"componentType":5126,
			"count":66,
			"type":"VEC2"
		},
		{
			"bufferView":19,
			"componentType":5123,
			"count":96,
			"type":"SCALAR"
		},
		{
			"bufferView":20,
			"componentType":5126,
			"count":685,
			"max":[
				37.90190124511719,
				-17.42300033569336,
				-25.43829917907715
			],
			"min":[
				37.37590026855469,
				-21.702899932861328,
				-25.64889907836914
			],
			"type":"VEC3"
		},
		{
			"bufferView":21,
			"componentType":5126,
			"count":685,
			"type":"VEC3"
		},
		{
			"bufferView":22,
			"componentType":5126,
			"count":685,
			"type":"VEC2"
		},
		{
			"bufferView":23,
			"componentType":5123,
			"count":1008,
			"type":"SCALAR"
		},
		{
			"bufferView":24,
			"componentType":5126,
			"count":1501,
			"max":[
				45.92290115356445,
				-22.760900497436523,
				-26.145999908447266
			],
			"min":[
				37.242401123046875,
				-27.994699478149414,
				-26.672300338745117
			],
			"type":"VEC3"
		},
		{
			"bufferView":25,
			"componentType":5126,
			"count":1501,
			"type":"VEC3"
		},
		{
			"bufferView":26,
			"componentType":5126,
			"count":1501,
			"type":"VEC2"
		},
		{
			"bufferView":27,
			"componentType":5123,
			"count":2208,
			"type":"SCALAR"
		}
	],
	"bufferViews":[
		{
			"buffer":0,
			"byteLength":2448,
			"byteOffset":0,
			"target":34962
		},
		{
			"buffer":0,
			"byteLength":2448,
			"byteOffset":2448,
			"target":34962
		},
		{
			"buffer":0,
			"byteLength":1632,
			"byteOffset":4896,
			"target":34962
		},
		{
			"buffer":0,
			"byteLength":660,
			"byteOffset":6528,
			"target":34963
		},
		{
			"buffer":0,
			"byteLength":55356,
			"byteOffset":7188,
			"target":34962
		},
		{
			"buffer":0,
			"byteLength":55356,
			"byteOffset":62544,
			"target":34962
		},
		{
			"buffer":0,
			"byteLength":36904,
			"byteOffset":117900,
			"target":34962
		},
		{
			"buffer":0,
			"byteLength":17208,
			"byteOffset":154804,
			"target":34963
		},
		{
			"buffer":0,
			"byteLength":10716,
			"byteOffset":172012,
			"target":34962
		},
		{
			"buffer":0,
			"byteLength":10716,
			"byteOffset":182728,
			"target":34962
		},
		{
			"buffer":0,
			"byteLength":7144,
			"byteOffset":193444,
			"target":34962
		},
		{
			"buffer":0,
			"byteLength":2640,
			"byteOffset":200588,
			"target":34963
		},
		{
			"buffer":0,
			"byteLength":960,
			"byteOffset":203228,
			"target":34962
		},
		{
			"buffer":0,
			"byteLength":960,
			"byteOffset":204188,
			"target":34962
		},
		{
			"buffer":0,
			"byteLength":640,
			"byteOffset":205148,
			"target":34962
		},
		{
			"buffer":0,
			"byteLength":240,
			"byteOffset":205788,
			"target":34963
		},
		{
			"buffer":0,
			"byteLength":792,
			"byteOffset":206028,
			"target":34962
		},
		{
			"buffer":0,
			"byteLength":792,
			"byteOffset":206820,
			"target":34962
		},
		{
			"buffer":0,
			"byteLength":528,
			"byteOffset":207612,
			"target":34962
		},
		{
			"buffer":0,
			"byteLength":192,
			"byteOffset":208140,
			"target":34963
		},
		{
			"buffer":0,
			"byteLength":8220,
			"byteOffset":208332,
			"target":34962
		},
		{
			"buffer":0,
			"byteLength":8220,
			"byteOffset":216552,
			"target":34962
		},
		{
			"buffer":0,
			"byteLength":5480,
			"byteOffset":224772,
			"target":34962
		},
		{
			"buffer":0,
			"byteLength":2016,
			"byteOffset":230252,
			"target":34963
		},
		{
			"buffer":0,
			"byteLength":18012,
			"byteOffset":232268,
			"target":34962
		},
		{
			"buffer":0,
			"byteLength":18012,
			"byteOffset":250280,
			"target":34962
		},
		{
			"buffer":0,
			"byteLength":12008,
			"byteOffset":268292,
			"target":34962
		},
		{
			"buffer":0,
			"byteLength":4416,
			"byteOffset":280300,
			"target":34963
		}
	],
	"samplers":[
		{
			"magFilter":9729,
			"minFilter":9987
		}
	],
	"buffers":[
		{
			"byteLength":284716,
			"uri":"u2NEBuild5.bin"
		}
	]
}
