{
	"asset":{
		"generator":"Khronos glTF Blender I/O v5.0.21",
		"version":"2.0"
	},
	"extensionsUsed":[
		"KHR_materials_specular",
		"KHR_materials_ior"
	],
	"scene":0,
	"scenes":[
		{
			"name":"Scene",
			"nodes":[
				0
			]
		}
	],
	"nodes":[
		{
			"mesh":0,
			"name":"u2NEBuild4",
			"rotation":[
				0.70710688829422,
				0,
				0,
				0.7071066498756409
			]
		}
	],
	"materials":[
		{
			"doubleSided":true,
			"extensions":{
				"KHR_materials_specular":{
					"specularColorFactor":[
						0.04800000041723251,
						0.04800000041723251,
						0.04800000041723251
					]
				},
				"KHR_materials_ior":{
					"ior":0
				}
			},
			"name":"Props1_u2NEBuild4_1",
			"pbrMetallicRoughness":{
				"baseColorTexture":{
					"index":0
				},
				"metallicFactor":0,
				"roughnessFactor":0.9685357213020325
			}
		},
		{
			"doubleSided":true,
			"extensions":{
				"KHR_materials_specular":{
					"specularColorFactor":[
						0.04800000041723251,
						0.04800000041723251,
						0.04800000041723251
					]
				},
				"KHR_materials_ior":{
					"ior":0
				}
			},
			"name":"WindowE_u2NEBuild4_1",
			"pbrMetallicRoughness":{
				"baseColorTexture":{
					"index":1
				},
				"metallicFactor":0,
				"roughnessFactor":0.9691779017448425
			}
		},
		{
			"doubleSided":true,
			"extensions":{
				"KHR_materials_specular":{
					"specularColorFactor":[
						0.04800000041723251,
						0.04800000041723251,
						0.04800000041723251
					]
				},
				"KHR_materials_ior":{
					"ior":0
				}
			},
			"name":"Facade_u2NEBuild4_1",
			"pbrMetallicRoughness":{
				"baseColorTexture":{
					"index":2
				},
				"metallicFactor":0,
				"roughnessFactor":0.9687750339508057
			}
		},
		{
			"doubleSided":true,
			"extensions":{
				"KHR_materials_specular":{
					"specularColorFactor":[
						0.04800000041723251,
						0.04800000041723251,
						0.04800000041723251
					]
				},
				"KHR_materials_ior":{
					"ior":0
				}
			},
			"name":"Concrete_u2NEBuild4_1",
			"pbrMetallicRoughness":{
				"baseColorTexture":{
					"index":3
				},
				"metallicFactor":0,
				"roughnessFactor":0.9687750339508057
			}
		},
		{
			"doubleSided":true,
			"extensions":{
				"KHR_materials_specular":{
					"specularColorFactor":[
						0.04800000041723251,
						0.04800000041723251,
						0.04800000041723251
					]
				},
				"KHR_materials_ior":{
					"ior":0
				}
			},
			"name":"Brick3_u2NEBuild4_1",
			"pbrMetallicRoughness":{
				"baseColorTexture":{
					"index":4
				},
				"metallicFactor":0,
				"roughnessFactor":0.9687750339508057
			}
		},
		{
			"doubleSided":true,
			"extensions":{
				"KHR_materials_specular":{
					"specularColorFactor":[
						0.04800000041723251,
						0.04800000041723251,
						0.04800000041723251
					]
				},
				"KHR_materials_ior":{
					"ior":0
				}
			},
			"name":"RooftopProps_u2NEBuild4_1",
			"pbrMetallicRoughness":{
				"baseColorTexture":{
					"index":5
				},
				"metallicFactor":0,
				"roughnessFactor":0.9685357213020325
			}
		},
		{
			"doubleSided":true,
			"extensions":{
				"KHR_materials_specular":{
					"specularColorFactor":[
						0.04800000041723251,
						0.04800000041723251,
						0.04800000041723251
					]
				},
				"KHR_materials_ior":{
					"ior":0
				}
			},
			"name":"Doors_u2NEBuild4_1",
			"pbrMetallicRoughness":{
				"baseColorTexture":{
					"index":6
				},
				"metallicFactor":0,
				"roughnessFactor":0.9691779017448425
			}
		},
		{
			"doubleSided":true,
			"extensions":{
				"KHR_materials_specular":{
					"specularColorFactor":[
						0.04800000041723251,
						0.04800000041723251,
						0.04800000041723251
					]
				},
				"KHR_materials_ior":{
					"ior":0
				}
			},
			"name":"PlyWood_u2NEBuild4_1",
			"pbrMetallicRoughness":{
				"baseColorTexture":{
					"index":7
				},
				"metallicFactor":0,
				"roughnessFactor":0.9691779017448425
			}
		},
		{
			"doubleSided":true,
			"extensions":{
				"KHR_materials_specular":{
					"specularColorFactor":[
						0.04800000041723251,
						0.04800000041723251,
						0.04800000041723251
					]
				},
				"KHR_materials_ior":{
					"ior":0
				}
			},
			"name":"Rollup_u2NEBuild4_1",
			"pbrMetallicRoughness":{
				"baseColorTexture":{
					"index":8
				},
				"metallicFactor":0,
				"roughnessFactor":0.9693813920021057
			}
		},
		{
			"doubleSided":true,
			"extensions":{
				"KHR_materials_specular":{
					"specularColorFactor":[
						0.04800000041723251,
						0.04800000041723251,
						0.04800000041723251
					]
				},
				"KHR_materials_ior":{
					"ior":0
				}
			},
			"name":"Metalgrey_u2NEBuild4_1",
			"pbrMetallicRoughness":{
				"baseColorTexture":{
					"index":9
				},
				"metallicFactor":0,
				"roughnessFactor":0.9687750339508057
			}
		}
	],
	"meshes":[
		{
			"name":"Urban Sprawl 2.007",
			"primitives":[
				{
					"attributes":{
						"POSITION":0,
						"NORMAL":1,
						"TEXCOORD_0":2
					},
					"indices":3,
					"material":0
				},
				{
					"attributes":{
						"POSITION":4,
						"NORMAL":5,
						"TEXCOORD_0":6
					},
					"indices":7,
					"material":1
				},
				{
					"attributes":{
						"POSITION":8,
						"NORMAL":9,
						"TEXCOORD_0":10
					},
					"indices":11,
					"material":2
				},
				{
					"attributes":{
						"POSITION":12,
						"NORMAL":13,
						"TEXCOORD_0":14
					},
					"indices":15,
					"material":3
				},
				{
					"attributes":{
						"POSITION":16,
						"NORMAL":17,
						"TEXCOORD_0":18
					},
					"indices":19,
					"material":4
				},
				{
					"attributes":{
						"POSITION":20,
						"NORMAL":21,
						"TEXCOORD_0":22
					},
					"indices":23,
					"material":5
				},
				{
					"attributes":{
						"POSITION":24,
						"NORMAL":25,
						"TEXCOORD_0":26
					},
					"indices":27,
					"material":6
				},
				{
					"attributes":{
						"POSITION":28,
						"NORMAL":29,
						"TEXCOORD_0":30
					},
					"indices":31,
					"material":7
				},
				{
					"attributes":{
						"POSITION":32,
						"NORMAL":33,
						"TEXCOORD_0":34
					},
					"indices":35,
					"material":8
				},
				{
					"attributes":{
						"POSITION":36,
						"NORMAL":37,
						"TEXCOORD_0":38
					},
					"indices":39,
					"material":9
				}
			]
		}
	],
	"textures":[
		{
			"sampler":0,
			"source":0
		},
		{
			"sampler":0,
			"source":1
		},
		{
			"sampler":0,
			"source":2
		},
		{
			"sampler":0,
			"source":3
		},
		{
			"sampler":0,
			"source":4
		},
		{
			"sampler":0,
			"source":5
		},
		{
			"sampler":0,
			"source":6
		},
		{
			"sampler":0,
			"source":7
		},
		{
			"sampler":0,
			"source":8
		},
		{
			"sampler":0,
			"source":9
		}
	],
	"images":[
		{
			"mimeType":"image/jpeg",
			"name":"u2props1",
			"uri":"u2props1.jpg"
		},
		{
			"mimeType":"image/jpeg",
			"name":"u2win3",
			"uri":"u2win3.jpg"
		},
		{
			"mimeType":"image/jpeg",
			"name":"u2brick9",
			"uri":"u2brick9.jpg"
		},
		{
			"mimeType":"image/jpeg",
			"name":"u2crete2",
			"uri":"u2crete2.jpg"
		},
		{
			"mimeType":"image/jpeg",
			"name":"Bricks",
			"uri":"Bricks.jpg"
		},
		{
			"mimeType":"image/jpeg",
			"name":"u2props4",
			"uri":"u2props4.jpg"
		},
		{
			"mimeType":"image/jpeg",
			"name":"u2doors1",
			"uri":"u2doors1.jpg"
		},
		{
			"mimeType":"image/jpeg",
			"name":"u2ply",
			"uri":"u2ply.jpg"
		},
		{
			"mimeType":"image/jpeg",
			"name":"u2rollup1",
			"uri":"u2rollup1.jpg"
		},
		{
			"mimeType":"image/jpeg",
			"name":"u2metal1",
			"uri":"u2metal1.jpg"
		}
	],
	"accessors":[
		{
			"bufferView":0,
			"componentType":5126,
			"count":1992,
			"max":[
				29.956100463867188,
				-33.33300018310547,
				-1.4474200010299683
			],
			"min":[
				18.230899810791016,
				-38.221500396728516,
				-20.070499420166016
			],
			"type":"VEC3"
		},
		{
			"bufferView":1,
			"componentType":5126,
			"count":1992,
			"type":"VEC3"
		},
		{
			"bufferView":2,
			"componentType":5126,
			"count":1992,
			"type":"VEC2"
		},
		{
			"bufferView":3,
			"componentType":5123,
			"count":2670,
			"type":"SCALAR"
		},
		{
			"bufferView":4,
			"componentType":5126,
			"count":62,
			"max":[
				29.89419937133789,
				-33.7515983581543,
				-4.16294002532959
			],
			"min":[
				18.292800903320312,
				-37.534400939941406,
				-19.252599716186523
			],
			"type":"VEC3"
		},
		{
			"bufferView":5,
			"componentType":5126,
			"count":62,
			"type":"VEC3"
		},
		{
			"bufferView":6,
			"componentType":5126,
			"count":62,
			"type":"VEC2"
		},
		{
			"bufferView":7,
			"componentType":5123,
			"count":90,
			"type":"SCALAR"
		},
		{
			"bufferView":8,
			"componentType":5126,
			"count":1128,
			"max":[
				29.914199829101562,
				-33.714500427246094,
				-1.2840800285339355
			],
			"min":[
				18.272899627685547,
				-38.21189880371094,
				-19.289600372314453
			],
			"type":"VEC3"
		},
		{
			"bufferView":9,
			"componentType":5126,
			"count":1128,
			"type":"VEC3"
		},
		{
			"bufferView":10,
			"componentType":5126,
			"count":1128,
			"type":"VEC2"
		},
		{
			"bufferView":11,
			"componentType":5123,
			"count":1728,
			"type":"SCALAR"
		},
		{
			"bufferView":12,
			"componentType":5126,
			"count":138,
			"max":[
				30.008899688720703,
				-33.29790115356445,
				-1.0888500213623047
			],
			"min":[
				18.199499130249023,
				-38.231201171875,
				-20.916099548339844
			],
			"type":"VEC3"
		},
		{
			"bufferView":13,
			"componentType":5126,
			"count":138,
			"type":"VEC3"
		},
		{
			"bufferView":14,
			"componentType":5126,
			"count":138,
			"type":"VEC2"
		},
		{
			"bufferView":15,
			"componentType":5123,
			"count":240,
			"type":"SCALAR"
		},
		{
			"bufferView":16,
			"componentType":5126,
			"count":26,
			"max":[
				29.952299118041992,
				-33.32149887084961,
				-1.1181000471115112
			],
			"min":[
				18.256099700927734,
				-38.04650115966797,
				-2.6488699913024902
			],
			"type":"VEC3"
		},
		{
			"bufferView":17,
			"componentType":5126,
			"count":26,
			"type":"VEC3"
		},
		{
			"bufferView":18,
			"componentType":5126,
			"count":26,
			"type":"VEC2"
		},
		{
			"bufferView":19,
			"componentType":5123,
			"count":48,
			"type":"SCALAR"
		},
		{
			"bufferView":20,
			"componentType":5126,
			"count":754,
			"max":[
				27.15489959716797,
				-34.19390106201172,
				-1.3842799663543701
			],
			"min":[
				19.33639907836914,
				-38.16569900512695,
				-21.094100952148438
			],
			"type":"VEC3"
		},
		{
			"bufferView":21,
			"componentType":5126,
			"count":754,
			"type":"VEC3"
		},
		{
			"bufferView":22,
			"componentType":5126,
			"count":754,
			"type":"VEC2"
		},
		{
			"bufferView":23,
			"componentType":5123,
			"count":1398,
			"type":"SCALAR"
		},
		{
			"bufferView":24,
			"componentType":5126,
			"count":4,
			"max":[
				23.32550048828125,
				-38.16419982910156,
				-1.3858000040054321
			],
			"min":[
				22.912799835205078,
				-38.16569900512695,
				-2.2708699703216553
			],
			"type":"VEC3"
		},
		{
			"bufferView":25,
			"componentType":5126,
			"count":4,
			"type":"VEC3"
		},
		{
			"bufferView":26,
			"componentType":5126,
			"count":4,
			"type":"VEC2"
		},
		{
			"bufferView":27,
			"componentType":5123,
			"count":6,
			"type":"SCALAR"
		},
		{
			"bufferView":28,
			"componentType":5126,
			"count":150,
			"max":[
				29.209199905395508,
				-38.15010070800781,
				-1.3926199674606323
			],
			"min":[
				18.906700134277344,
				-38.1599006652832,
				-2.3171000480651855
			],
			"type":"VEC3"
		},
		{
			"bufferView":29,
			"componentType":5126,
			"count":150,
			"type":"VEC3"
		},
		{
			"bufferView":30,
			"componentType":5126,
			"count":150,
			"type":"VEC2"
		},
		{
			"bufferView":31,
			"componentType":5123,
			"count":210,
			"type":"SCALAR"
		},
		{
			"bufferView":32,
			"componentType":5126,
			"count":24,
			"max":[
				29.111799240112305,
				-38.06769943237305,
				-1.3645700216293335
			],
			"min":[
				18.974899291992188,
				-38.06769943237305,
				-2.406909942626953
			],
			"type":"VEC3"
		},
		{
			"bufferView":33,
			"componentType":5126,
			"count":24,
			"type":"VEC3"
		},
		{
			"bufferView":34,
			"componentType":5126,
			"count":24,
			"type":"VEC2"
		},
		{
			"bufferView":35,
			"componentType":5123,
			"count":36,
			"type":"SCALAR"
		},
		{
			"bufferView":36,
			"componentType":5126,
			"count":553,
			"max":[
				29.132099151611328,
				-38.06769943237305,
				-1.3482600450515747
			],
			"min":[
				18.958599090576172,
				-38.217899322509766,
				-2.423229932785034
			],
			"type":"VEC3"
		},
		{
			"bufferView":37,
			"componentType":5126,
			"count":553,
			"type":"VEC3"
		},
		{
			"bufferView":38,
			"componentType":5126,
			"count":553,
			"type":"VEC2"
		},
		{
			"bufferView":39,
			"componentType":5123,
			"count":936,
			"type":"SCALAR"
		}
	],
	"bufferViews":[
		{
			"buffer":0,
			"byteLength":23904,
			"byteOffset":0,
			"target":34962
		},
		{
			"buffer":0,
			"byteLength":23904,
			"byteOffset":23904,
			"target":34962
		},
		{
			"buffer":0,
			"byteLength":15936,
			"byteOffset":47808,
			"target":34962
		},
		{
			"buffer":0,
			"byteLength":5340,
			"byteOffset":63744,
			"target":34963
		},
		{
			"buffer":0,
			"byteLength":744,
			"byteOffset":69084,
			"target":34962
		},
		{
			"buffer":0,
			"byteLength":744,
			"byteOffset":69828,
			"target":34962
		},
		{
			"buffer":0,
			"byteLength":496,
			"byteOffset":70572,
			"target":34962
		},
		{
			"buffer":0,
			"byteLength":180,
			"byteOffset":71068,
			"target":34963
		},
		{
			"buffer":0,
			"byteLength":13536,
			"byteOffset":71248,
			"target":34962
		},
		{
			"buffer":0,
			"byteLength":13536,
			"byteOffset":84784,
			"target":34962
		},
		{
			"buffer":0,
			"byteLength":9024,
			"byteOffset":98320,
			"target":34962
		},
		{
			"buffer":0,
			"byteLength":3456,
			"byteOffset":107344,
			"target":34963
		},
		{
			"buffer":0,
			"byteLength":1656,
			"byteOffset":110800,
			"target":34962
		},
		{
			"buffer":0,
			"byteLength":1656,
			"byteOffset":112456,
			"target":34962
		},
		{
			"buffer":0,
			"byteLength":1104,
			"byteOffset":114112,
			"target":34962
		},
		{
			"buffer":0,
			"byteLength":480,
			"byteOffset":115216,
			"target":34963
		},
		{
			"buffer":0,
			"byteLength":312,
			"byteOffset":115696,
			"target":34962
		},
		{
			"buffer":0,
			"byteLength":312,
			"byteOffset":116008,
			"target":34962
		},
		{
			"buffer":0,
			"byteLength":208,
			"byteOffset":116320,
			"target":34962
		},
		{
			"buffer":0,
			"byteLength":96,
			"byteOffset":116528,
			"target":34963
		},
		{
			"buffer":0,
			"byteLength":9048,
			"byteOffset":116624,
			"target":34962
		},
		{
			"buffer":0,
			"byteLength":9048,
			"byteOffset":125672,
			"target":34962
		},
		{
			"buffer":0,
			"byteLength":6032,
			"byteOffset":134720,
			"target":34962
		},
		{
			"buffer":0,
			"byteLength":2796,
			"byteOffset":140752,
			"target":34963
		},
		{
			"buffer":0,
			"byteLength":48,
			"byteOffset":143548,
			"target":34962
		},
		{
			"buffer":0,
			"byteLength":48,
			"byteOffset":143596,
			"target":34962
		},
		{
			"buffer":0,
			"byteLength":32,
			"byteOffset":143644,
			"target":34962
		},
		{
			"buffer":0,
			"byteLength":12,
			"byteOffset":143676,
			"target":34963
		},
		{
			"buffer":0,
			"byteLength":1800,
			"byteOffset":143688,
			"target":34962
		},
		{
			"buffer":0,
			"byteLength":1800,
			"byteOffset":145488,
			"target":34962
		},
		{
			"buffer":0,
			"byteLength":1200,
			"byteOffset":147288,
			"target":34962
		},
		{
			"buffer":0,
			"byteLength":420,
			"byteOffset":148488,
			"target":34963
		},
		{
			"buffer":0,
			"byteLength":288,
			"byteOffset":148908,
			"target":34962
		},
		{
			"buffer":0,
			"byteLength":288,
			"byteOffset":149196,
			"target":34962
		},
		{
			"buffer":0,
			"byteLength":192,
			"byteOffset":149484,
			"target":34962
		},
		{
			"buffer":0,
			"byteLength":72,
			"byteOffset":149676,
			"target":34963
		},
		{
			"buffer":0,
			"byteLength":6636,
			"byteOffset":149748,
			"target":34962
		},
		{
			"buffer":0,
			"byteLength":6636,
			"byteOffset":156384,
			"target":34962
		},
		{
			"buffer":0,
			"byteLength":4424,
			"byteOffset":163020,
			"target":34962
		},
		{
			"buffer":0,
			"byteLength":1872,
			"byteOffset":167444,
			"target":34963
		}
	],
	"samplers":[
		{
			"magFilter":9729,
			"minFilter":9987
		}
	],
	"buffers":[
		{
			"byteLength":169316,
			"uri":"u2NEBuild4.bin"
		}
	]
}
