{
	"asset":{
		"generator":"Khronos glTF Blender I/O v5.0.21",
		"version":"2.0"
	},
	"extensionsUsed":[
		"KHR_materials_specular",
		"KHR_materials_ior"
	],
	"scene":0,
	"scenes":[
		{
			"name":"Scene",
			"nodes":[
				0
			]
		}
	],
	"nodes":[
		{
			"mesh":0,
			"name":"u2NEBuild3",
			"rotation":[
				0.70710688829422,
				0,
				0,
				0.7071066498756409
			]
		}
	],
	"materials":[
		{
			"doubleSided":true,
			"extensions":{
				"KHR_materials_specular":{
					"specularColorFactor":[
						0.04800000041723251,
						0.04800000041723251,
						0.04800000041723251
					]
				},
				"KHR_materials_ior":{
					"ior":0
				}
			},
			"name":"Concrete_u2NEBuild3_1",
			"pbrMetallicRoughness":{
				"baseColorTexture":{
					"index":0
				},
				"metallicFactor":0,
				"roughnessFactor":0.9687750339508057
			}
		},
		{
			"doubleSided":true,
			"extensions":{
				"KHR_materials_specular":{
					"specularColorFactor":[
						0.04800000041723251,
						0.04800000041723251,
						0.04800000041723251
					]
				},
				"KHR_materials_ior":{
					"ior":0
				}
			},
			"name":"Rooftop_u2NEBuild3_1",
			"pbrMetallicRoughness":{
				"baseColorTexture":{
					"index":1
				},
				"metallicFactor":0,
				"roughnessFactor":0.9685357213020325
			}
		},
		{
			"doubleSided":true,
			"extensions":{
				"KHR_materials_specular":{
					"specularColorFactor":[
						0.04800000041723251,
						0.04800000041723251,
						0.04800000041723251
					]
				},
				"KHR_materials_ior":{
					"ior":0
				}
			},
			"name":"BrickRed_u2NEBuild3_1",
			"pbrMetallicRoughness":{
				"baseColorTexture":{
					"index":2
				},
				"metallicFactor":0,
				"roughnessFactor":0.9687750339508057
			}
		},
		{
			"doubleSided":true,
			"extensions":{
				"KHR_materials_specular":{
					"specularColorFactor":[
						0.04800000041723251,
						0.04800000041723251,
						0.04800000041723251
					]
				},
				"KHR_materials_ior":{
					"ior":0
				}
			},
			"name":"Building12_u2NEBuild3_1",
			"pbrMetallicRoughness":{
				"baseColorTexture":{
					"index":3
				},
				"metallicFactor":0,
				"roughnessFactor":0.9691779017448425
			}
		},
		{
			"doubleSided":true,
			"extensions":{
				"KHR_materials_specular":{
					"specularColorFactor":[
						0.04800000041723251,
						0.04800000041723251,
						0.04800000041723251
					]
				},
				"KHR_materials_ior":{
					"ior":0
				}
			},
			"name":"Props2_u2NEBuild3_1",
			"pbrMetallicRoughness":{
				"baseColorTexture":{
					"index":4
				},
				"metallicFactor":0,
				"roughnessFactor":0.9691779017448425
			}
		},
		{
			"doubleSided":true,
			"extensions":{
				"KHR_materials_specular":{
					"specularColorFactor":[
						0.04800000041723251,
						0.04800000041723251,
						0.04800000041723251
					]
				},
				"KHR_materials_ior":{
					"ior":0
				}
			},
			"name":"SkylightGlass_u2NEBuild3_1",
			"pbrMetallicRoughness":{
				"baseColorTexture":{
					"index":5
				},
				"metallicFactor":0,
				"roughnessFactor":0.9687750339508057
			}
		},
		{
			"doubleSided":true,
			"extensions":{
				"KHR_materials_specular":{
					"specularColorFactor":[
						0.04800000041723251,
						0.04800000041723251,
						0.04800000041723251
					]
				},
				"KHR_materials_ior":{
					"ior":0
				}
			},
			"name":"PlyWood_u2NEBuild3_1",
			"pbrMetallicRoughness":{
				"baseColorTexture":{
					"index":6
				},
				"metallicFactor":0,
				"roughnessFactor":0.9691779017448425
			}
		},
		{
			"doubleSided":true,
			"extensions":{
				"KHR_materials_specular":{
					"specularColorFactor":[
						0.04800000041723251,
						0.04800000041723251,
						0.04800000041723251
					]
				},
				"KHR_materials_ior":{
					"ior":0
				}
			},
			"name":"Facade_u2NEBuild3_1",
			"pbrMetallicRoughness":{
				"baseColorTexture":{
					"index":7
				},
				"metallicFactor":0,
				"roughnessFactor":0.9687750339508057
			}
		},
		{
			"doubleSided":true,
			"extensions":{
				"KHR_materials_specular":{
					"specularColorFactor":[
						0.04800000041723251,
						0.04800000041723251,
						0.04800000041723251
					]
				},
				"KHR_materials_ior":{
					"ior":0
				}
			},
			"name":"WindowA_u2NEBuild3_1",
			"pbrMetallicRoughness":{
				"baseColorTexture":{
					"index":8
				},
				"metallicFactor":0,
				"roughnessFactor":0.9691779017448425
			}
		},
		{
			"doubleSided":true,
			"extensions":{
				"KHR_materials_specular":{
					"specularColorFactor":[
						0.04800000041723251,
						0.04800000041723251,
						0.04800000041723251
					]
				},
				"KHR_materials_ior":{
					"ior":0
				}
			},
			"name":"Props1_u2NEBuild3_1",
			"pbrMetallicRoughness":{
				"baseColorTexture":{
					"index":9
				},
				"metallicFactor":0,
				"roughnessFactor":0.9685357213020325
			}
		},
		{
			"doubleSided":true,
			"extensions":{
				"KHR_materials_specular":{
					"specularColorFactor":[
						0.04800000041723251,
						0.04800000041723251,
						0.04800000041723251
					]
				},
				"KHR_materials_ior":{
					"ior":0
				}
			},
			"name":"WindowF_u2NEBuild3_1",
			"pbrMetallicRoughness":{
				"baseColorTexture":{
					"index":10
				},
				"metallicFactor":0,
				"roughnessFactor":0.9691779017448425
			}
		}
	],
	"meshes":[
		{
			"name":"Urban Sprawl 2.006",
			"primitives":[
				{
					"attributes":{
						"POSITION":0,
						"NORMAL":1,
						"TEXCOORD_0":2
					},
					"indices":3,
					"material":0
				},
				{
					"attributes":{
						"POSITION":4,
						"NORMAL":5,
						"TEXCOORD_0":6
					},
					"indices":7,
					"material":1
				},
				{
					"attributes":{
						"POSITION":8,
						"NORMAL":9,
						"TEXCOORD_0":10
					},
					"indices":11,
					"material":2
				},
				{
					"attributes":{
						"POSITION":12,
						"NORMAL":13,
						"TEXCOORD_0":14
					},
					"indices":15,
					"material":3
				},
				{
					"attributes":{
						"POSITION":16,
						"NORMAL":17,
						"TEXCOORD_0":18
					},
					"indices":19,
					"material":4
				},
				{
					"attributes":{
						"POSITION":20,
						"NORMAL":21,
						"TEXCOORD_0":22
					},
					"indices":23,
					"material":5
				},
				{
					"attributes":{
						"POSITION":24,
						"NORMAL":25,
						"TEXCOORD_0":26
					},
					"indices":27,
					"material":6
				},
				{
					"attributes":{
						"POSITION":28,
						"NORMAL":29,
						"TEXCOORD_0":30
					},
					"indices":31,
					"material":7
				},
				{
					"attributes":{
						"POSITION":32,
						"NORMAL":33,
						"TEXCOORD_0":34
					},
					"indices":35,
					"material":8
				},
				{
					"attributes":{
						"POSITION":36,
						"NORMAL":37,
						"TEXCOORD_0":38
					},
					"indices":39,
					"material":9
				},
				{
					"attributes":{
						"POSITION":40,
						"NORMAL":41,
						"TEXCOORD_0":42
					},
					"indices":43,
					"material":10
				}
			]
		}
	],
	"textures":[
		{
			"sampler":0,
			"source":0
		},
		{
			"sampler":0,
			"source":1
		},
		{
			"sampler":0,
			"source":2
		},
		{
			"sampler":0,
			"source":3
		},
		{
			"sampler":0,
			"source":4
		},
		{
			"sampler":0,
			"source":5
		},
		{
			"sampler":0,
			"source":6
		},
		{
			"sampler":0,
			"source":7
		},
		{
			"sampler":0,
			"source":7
		},
		{
			"sampler":0,
			"source":8
		},
		{
			"sampler":0,
			"source":9
		}
	],
	"images":[
		{
			"mimeType":"image/jpeg",
			"name":"u2crete1",
			"uri":"u2crete1.jpg"
		},
		{
			"mimeType":"image/jpeg",
			"name":"u2pave3",
			"uri":"u2pave3.jpg"
		},
		{
			"mimeType":"image/jpeg",
			"name":"u2brick2",
			"uri":"u2brick2.jpg"
		},
		{
			"mimeType":"image/jpeg",
			"name":"u2redbldg",
			"uri":"u2redbldg.jpg"
		},
		{
			"mimeType":"image/jpeg",
			"name":"u2props2",
			"uri":"u2props2.jpg"
		},
		{
			"mimeType":"image/jpeg",
			"name":"u2metal1",
			"uri":"u2metal1.jpg"
		},
		{
			"mimeType":"image/jpeg",
			"name":"u2ply",
			"uri":"u2ply.jpg"
		},
		{
			"mimeType":"image/jpeg",
			"name":"u2brick9",
			"uri":"u2brick9.jpg"
		},
		{
			"mimeType":"image/jpeg",
			"name":"u2props1",
			"uri":"u2props1.jpg"
		},
		{
			"mimeType":"image/jpeg",
			"name":"u2win3",
			"uri":"u2win3.jpg"
		}
	],
	"accessors":[
		{
			"bufferView":0,
			"componentType":5126,
			"count":1110,
			"max":[
				51.25699996948242,
				-7.97983980178833,
				-0.013411000370979309
			],
			"min":[
				46.65510177612305,
				-14.999699592590332,
				-8.412059783935547
			],
			"type":"VEC3"
		},
		{
			"bufferView":1,
			"componentType":5126,
			"count":1110,
			"type":"VEC3"
		},
		{
			"bufferView":2,
			"componentType":5126,
			"count":1110,
			"type":"VEC2"
		},
		{
			"bufferView":3,
			"componentType":5123,
			"count":1872,
			"type":"SCALAR"
		},
		{
			"bufferView":4,
			"componentType":5126,
			"count":12,
			"max":[
				51.09579849243164,
				-8.410140037536621,
				-7.873489856719971
			],
			"min":[
				46.826900482177734,
				-14.752099990844727,
				-8.177780151367188
			],
			"type":"VEC3"
		},
		{
			"bufferView":5,
			"componentType":5126,
			"count":12,
			"type":"VEC3"
		},
		{
			"bufferView":6,
			"componentType":5126,
			"count":12,
			"type":"VEC2"
		},
		{
			"bufferView":7,
			"componentType":5123,
			"count":18,
			"type":"SCALAR"
		},
		{
			"bufferView":8,
			"componentType":5126,
			"count":162,
			"max":[
				51.18539810180664,
				-8.199319839477539,
				-0.2084600031375885
			],
			"min":[
				46.72800064086914,
				-14.889200210571289,
				-8.052430152893066
			],
			"type":"VEC3"
		},
		{
			"bufferView":9,
			"componentType":5126,
			"count":162,
			"type":"VEC3"
		},
		{
			"bufferView":10,
			"componentType":5126,
			"count":162,
			"type":"VEC2"
		},
		{
			"bufferView":11,
			"componentType":5123,
			"count":222,
			"type":"SCALAR"
		},
		{
			"bufferView":12,
			"componentType":5126,
			"count":224,
			"max":[
				47.811100006103516,
				-8.253609657287598,
				-0.19685900211334229
			],
			"min":[
				47.347900390625,
				-8.305839538574219,
				-1.568019986152649
			],
			"type":"VEC3"
		},
		{
			"bufferView":13,
			"componentType":5126,
			"count":224,
			"type":"VEC3"
		},
		{
			"bufferView":14,
			"componentType":5126,
			"count":224,
			"type":"VEC2"
		},
		{
			"bufferView":15,
			"componentType":5123,
			"count":324,
			"type":"SCALAR"
		},
		{
			"bufferView":16,
			"componentType":5126,
			"count":96,
			"max":[
				50.76169967651367,
				-7.822690010070801,
				-2.9819300174713135
			],
			"min":[
				47.2411003112793,
				-8.247320175170898,
				-3.2295899391174316
			],
			"type":"VEC3"
		},
		{
			"bufferView":17,
			"componentType":5126,
			"count":96,
			"type":"VEC3"
		},
		{
			"bufferView":18,
			"componentType":5126,
			"count":96,
			"type":"VEC2"
		},
		{
			"bufferView":19,
			"componentType":5123,
			"count":144,
			"type":"SCALAR"
		},
		{
			"bufferView":20,
			"componentType":5126,
			"count":72,
			"max":[
				50.500999450683594,
				-10.439000129699707,
				-8.157690048217773
			],
			"min":[
				47.4911994934082,
				-14.38640022277832,
				-8.255249977111816
			],
			"type":"VEC3"
		},
		{
			"bufferView":21,
			"componentType":5126,
			"count":72,
			"type":"VEC3"
		},
		{
			"bufferView":22,
			"componentType":5126,
			"count":72,
			"type":"VEC2"
		},
		{
			"bufferView":23,
			"componentType":5123,
			"count":96,
			"type":"SCALAR"
		},
		{
			"bufferView":24,
			"componentType":5126,
			"count":126,
			"max":[
				50.72079849243164,
				-8.195730209350586,
				-2.0940101146698
			],
			"min":[
				48.631500244140625,
				-8.205559730529785,
				-3.2825698852539062
			],
			"type":"VEC3"
		},
		{
			"bufferView":25,
			"componentType":5126,
			"count":126,
			"type":"VEC3"
		},
		{
			"bufferView":26,
			"componentType":5126,
			"count":126,
			"type":"VEC2"
		},
		{
			"bufferView":27,
			"componentType":5123,
			"count":180,
			"type":"SCALAR"
		},
		{
			"bufferView":28,
			"componentType":5126,
			"count":1408,
			"max":[
				51.223899841308594,
				-8.14385986328125,
				-0.14729799330234528
			],
			"min":[
				46.68730163574219,
				-14.928500175476074,
				-8.312399864196777
			],
			"type":"VEC3"
		},
		{
			"bufferView":29,
			"componentType":5126,
			"count":1408,
			"type":"VEC3"
		},
		{
			"bufferView":30,
			"componentType":5126,
			"count":1408,
			"type":"VEC2"
		},
		{
			"bufferView":31,
			"componentType":5123,
			"count":2388,
			"type":"SCALAR"
		},
		{
			"bufferView":32,
			"componentType":5126,
			"count":36,
			"max":[
				50.668800354003906,
				-8.271750450134277,
				-2.0944600105285645
			],
			"min":[
				47.34370040893555,
				-8.271750450134277,
				-7.7995100021362305
			],
			"type":"VEC3"
		},
		{
			"bufferView":33,
			"componentType":5126,
			"count":36,
			"type":"VEC3"
		},
		{
			"bufferView":34,
			"componentType":5126,
			"count":36,
			"type":"VEC2"
		},
		{
			"bufferView":35,
			"componentType":5123,
			"count":54,
			"type":"SCALAR"
		},
		{
			"bufferView":36,
			"componentType":5126,
			"count":414,
			"max":[
				51.28139877319336,
				-8.199580192565918,
				-0.6109820008277893
			],
			"min":[
				46.65589904785156,
				-14.40410041809082,
				-7.035240173339844
			],
			"type":"VEC3"
		},
		{
			"bufferView":37,
			"componentType":5126,
			"count":414,
			"type":"VEC3"
		},
		{
			"bufferView":38,
			"componentType":5126,
			"count":414,
			"type":"VEC2"
		},
		{
			"bufferView":39,
			"componentType":5123,
			"count":594,
			"type":"SCALAR"
		},
		{
			"bufferView":40,
			"componentType":5126,
			"count":24,
			"max":[
				51.19649887084961,
				-8.81093978881836,
				-4.471459865570068
			],
			"min":[
				46.714698791503906,
				-14.901100158691406,
				-7.632579803466797
			],
			"type":"VEC3"
		},
		{
			"bufferView":41,
			"componentType":5126,
			"count":24,
			"type":"VEC3"
		},
		{
			"bufferView":42,
			"componentType":5126,
			"count":24,
			"type":"VEC2"
		},
		{
			"bufferView":43,
			"componentType":5123,
			"count":36,
			"type":"SCALAR"
		}
	],
	"bufferViews":[
		{
			"buffer":0,
			"byteLength":13320,
			"byteOffset":0,
			"target":34962
		},
		{
			"buffer":0,
			"byteLength":13320,
			"byteOffset":13320,
			"target":34962
		},
		{
			"buffer":0,
			"byteLength":8880,
			"byteOffset":26640,
			"target":34962
		},
		{
			"buffer":0,
			"byteLength":3744,
			"byteOffset":35520,
			"target":34963
		},
		{
			"buffer":0,
			"byteLength":144,
			"byteOffset":39264,
			"target":34962
		},
		{
			"buffer":0,
			"byteLength":144,
			"byteOffset":39408,
			"target":34962
		},
		{
			"buffer":0,
			"byteLength":96,
			"byteOffset":39552,
			"target":34962
		},
		{
			"buffer":0,
			"byteLength":36,
			"byteOffset":39648,
			"target":34963
		},
		{
			"buffer":0,
			"byteLength":1944,
			"byteOffset":39684,
			"target":34962
		},
		{
			"buffer":0,
			"byteLength":1944,
			"byteOffset":41628,
			"target":34962
		},
		{
			"buffer":0,
			"byteLength":1296,
			"byteOffset":43572,
			"target":34962
		},
		{
			"buffer":0,
			"byteLength":444,
			"byteOffset":44868,
			"target":34963
		},
		{
			"buffer":0,
			"byteLength":2688,
			"byteOffset":45312,
			"target":34962
		},
		{
			"buffer":0,
			"byteLength":2688,
			"byteOffset":48000,
			"target":34962
		},
		{
			"buffer":0,
			"byteLength":1792,
			"byteOffset":50688,
			"target":34962
		},
		{
			"buffer":0,
			"byteLength":648,
			"byteOffset":52480,
			"target":34963
		},
		{
			"buffer":0,
			"byteLength":1152,
			"byteOffset":53128,
			"target":34962
		},
		{
			"buffer":0,
			"byteLength":1152,
			"byteOffset":54280,
			"target":34962
		},
		{
			"buffer":0,
			"byteLength":768,
			"byteOffset":55432,
			"target":34962
		},
		{
			"buffer":0,
			"byteLength":288,
			"byteOffset":56200,
			"target":34963
		},
		{
			"buffer":0,
			"byteLength":864,
			"byteOffset":56488,
			"target":34962
		},
		{
			"buffer":0,
			"byteLength":864,
			"byteOffset":57352,
			"target":34962
		},
		{
			"buffer":0,
			"byteLength":576,
			"byteOffset":58216,
			"target":34962
		},
		{
			"buffer":0,
			"byteLength":192,
			"byteOffset":58792,
			"target":34963
		},
		{
			"buffer":0,
			"byteLength":1512,
			"byteOffset":58984,
			"target":34962
		},
		{
			"buffer":0,
			"byteLength":1512,
			"byteOffset":60496,
			"target":34962
		},
		{
			"buffer":0,
			"byteLength":1008,
			"byteOffset":62008,
			"target":34962
		},
		{
			"buffer":0,
			"byteLength":360,
			"byteOffset":63016,
			"target":34963
		},
		{
			"buffer":0,
			"byteLength":16896,
			"byteOffset":63376,
			"target":34962
		},
		{
			"buffer":0,
			"byteLength":16896,
			"byteOffset":80272,
			"target":34962
		},
		{
			"buffer":0,
			"byteLength":11264,
			"byteOffset":97168,
			"target":34962
		},
		{
			"buffer":0,
			"byteLength":4776,
			"byteOffset":108432,
			"target":34963
		},
		{
			"buffer":0,
			"byteLength":432,
			"byteOffset":113208,
			"target":34962
		},
		{
			"buffer":0,
			"byteLength":432,
			"byteOffset":113640,
			"target":34962
		},
		{
			"buffer":0,
			"byteLength":288,
			"byteOffset":114072,
			"target":34962
		},
		{
			"buffer":0,
			"byteLength":108,
			"byteOffset":114360,
			"target":34963
		},
		{
			"buffer":0,
			"byteLength":4968,
			"byteOffset":114468,
			"target":34962
		},
		{
			"buffer":0,
			"byteLength":4968,
			"byteOffset":119436,
			"target":34962
		},
		{
			"buffer":0,
			"byteLength":3312,
			"byteOffset":124404,
			"target":34962
		},
		{
			"buffer":0,
			"byteLength":1188,
			"byteOffset":127716,
			"target":34963
		},
		{
			"buffer":0,
			"byteLength":288,
			"byteOffset":128904,
			"target":34962
		},
		{
			"buffer":0,
			"byteLength":288,
			"byteOffset":129192,
			"target":34962
		},
		{
			"buffer":0,
			"byteLength":192,
			"byteOffset":129480,
			"target":34962
		},
		{
			"buffer":0,
			"byteLength":72,
			"byteOffset":129672,
			"target":34963
		}
	],
	"samplers":[
		{
			"magFilter":9729,
			"minFilter":9987
		}
	],
	"buffers":[
		{
			"byteLength":129744,
			"uri":"u2NEBuild3.bin"
		}
	]
}
