{
	"asset":{
		"generator":"Khronos glTF Blender I/O v5.0.21",
		"version":"2.0"
	},
	"extensionsUsed":[
		"KHR_materials_specular",
		"KHR_materials_ior"
	],
	"scene":0,
	"scenes":[
		{
			"name":"Scene",
			"nodes":[
				0
			]
		}
	],
	"nodes":[
		{
			"mesh":0,
			"name":"u2NEBuild1",
			"rotation":[
				0.70710688829422,
				0,
				0,
				0.7071066498756409
			]
		}
	],
	"materials":[
		{
			"doubleSided":true,
			"extensions":{
				"KHR_materials_specular":{
					"specularColorFactor":[
						0.04800000041723251,
						0.04800000041723251,
						0.04800000041723251
					]
				},
				"KHR_materials_ior":{
					"ior":0
				}
			},
			"name":"MetalDark_u2NEBuild1_1",
			"pbrMetallicRoughness":{
				"baseColorTexture":{
					"index":0
				},
				"metallicFactor":0,
				"roughnessFactor":0.9700000286102295
			}
		},
		{
			"doubleSided":true,
			"extensions":{
				"KHR_materials_specular":{
					"specularColorFactor":[
						0.04800000041723251,
						0.04800000041723251,
						0.04800000041723251
					]
				},
				"KHR_materials_ior":{
					"ior":0
				}
			},
			"name":"Concrete1_u2NEBuild1_1",
			"pbrMetallicRoughness":{
				"baseColorTexture":{
					"index":1
				},
				"metallicFactor":0,
				"roughnessFactor":0.9687750339508057
			}
		},
		{
			"doubleSided":true,
			"extensions":{
				"KHR_materials_specular":{
					"specularColorFactor":[
						0.04800000041723251,
						0.04800000041723251,
						0.04800000041723251
					]
				},
				"KHR_materials_ior":{
					"ior":0
				}
			},
			"name":"Brick1_u2NEBuild1_1",
			"pbrMetallicRoughness":{
				"baseColorTexture":{
					"index":2
				},
				"metallicFactor":0,
				"roughnessFactor":0.9687750339508057
			}
		},
		{
			"doubleSided":true,
			"extensions":{
				"KHR_materials_specular":{
					"specularColorFactor":[
						0.04800000041723251,
						0.04800000041723251,
						0.04800000041723251
					]
				},
				"KHR_materials_ior":{
					"ior":0
				}
			},
			"name":"Door2_u2NEBuild1_1",
			"pbrMetallicRoughness":{
				"baseColorTexture":{
					"index":3
				},
				"metallicFactor":0,
				"roughnessFactor":0.9691779017448425
			}
		},
		{
			"doubleSided":true,
			"extensions":{
				"KHR_materials_specular":{
					"specularColorFactor":[
						0.04800000041723251,
						0.04800000041723251,
						0.04800000041723251
					]
				},
				"KHR_materials_ior":{
					"ior":0
				}
			},
			"name":"RollUpDoor_u2NEBuild1_1",
			"pbrMetallicRoughness":{
				"baseColorTexture":{
					"index":4
				},
				"metallicFactor":0,
				"roughnessFactor":0.9693813920021057
			}
		},
		{
			"doubleSided":true,
			"extensions":{
				"KHR_materials_specular":{
					"specularColorFactor":[
						0.04800000041723251,
						0.04800000041723251,
						0.04800000041723251
					]
				},
				"KHR_materials_ior":{
					"ior":0
				}
			},
			"name":"Concrete2_u2NEBuild1_1",
			"pbrMetallicRoughness":{
				"baseColorTexture":{
					"index":5
				},
				"metallicFactor":0,
				"roughnessFactor":0.9687750339508057
			}
		},
		{
			"doubleSided":true,
			"extensions":{
				"KHR_materials_specular":{
					"specularColorFactor":[
						0.04800000041723251,
						0.04800000041723251,
						0.04800000041723251
					]
				},
				"KHR_materials_ior":{
					"ior":0
				}
			},
			"name":"RollUpDoor2_u2NEBuild1_1",
			"pbrMetallicRoughness":{
				"baseColorTexture":{
					"index":6
				},
				"metallicFactor":0,
				"roughnessFactor":0.9693813920021057
			}
		},
		{
			"doubleSided":true,
			"extensions":{
				"KHR_materials_specular":{
					"specularColorFactor":[
						0.04800000041723251,
						0.04800000041723251,
						0.04800000041723251
					]
				},
				"KHR_materials_ior":{
					"ior":0
				}
			},
			"name":"MetalLight_u2NEBuild1_1",
			"pbrMetallicRoughness":{
				"baseColorTexture":{
					"index":7
				},
				"metallicFactor":0,
				"roughnessFactor":0.9687750339508057
			}
		},
		{
			"doubleSided":true,
			"extensions":{
				"KHR_materials_specular":{
					"specularColorFactor":[
						0.04800000041723251,
						0.04800000041723251,
						0.04800000041723251
					]
				},
				"KHR_materials_ior":{
					"ior":0
				}
			},
			"name":"SkylightGlass_u2NEBuild1_1",
			"pbrMetallicRoughness":{
				"baseColorTexture":{
					"index":8
				},
				"metallicFactor":0,
				"roughnessFactor":0.9687750339508057
			}
		},
		{
			"doubleSided":true,
			"extensions":{
				"KHR_materials_specular":{
					"specularColorFactor":[
						0.04800000041723251,
						0.04800000041723251,
						0.04800000041723251
					]
				},
				"KHR_materials_ior":{
					"ior":0
				}
			},
			"name":"MetalGalvanized_u2NEBuild1_1",
			"pbrMetallicRoughness":{
				"baseColorTexture":{
					"index":9
				},
				"metallicFactor":0,
				"roughnessFactor":0.9700000286102295
			}
		}
	],
	"meshes":[
		{
			"name":"Urban Sprawl 2.004",
			"primitives":[
				{
					"attributes":{
						"POSITION":0,
						"NORMAL":1,
						"TEXCOORD_0":2
					},
					"indices":3,
					"material":0
				},
				{
					"attributes":{
						"POSITION":4,
						"NORMAL":5,
						"TEXCOORD_0":6
					},
					"indices":7,
					"material":1
				},
				{
					"attributes":{
						"POSITION":8,
						"NORMAL":9,
						"TEXCOORD_0":10
					},
					"indices":11,
					"material":2
				},
				{
					"attributes":{
						"POSITION":12,
						"NORMAL":13,
						"TEXCOORD_0":14
					},
					"indices":15,
					"material":3
				},
				{
					"attributes":{
						"POSITION":16,
						"NORMAL":17,
						"TEXCOORD_0":18
					},
					"indices":19,
					"material":4
				},
				{
					"attributes":{
						"POSITION":20,
						"NORMAL":21,
						"TEXCOORD_0":22
					},
					"indices":23,
					"material":5
				},
				{
					"attributes":{
						"POSITION":24,
						"NORMAL":25,
						"TEXCOORD_0":26
					},
					"indices":27,
					"material":6
				},
				{
					"attributes":{
						"POSITION":28,
						"NORMAL":29,
						"TEXCOORD_0":30
					},
					"indices":31,
					"material":7
				},
				{
					"attributes":{
						"POSITION":32,
						"NORMAL":33,
						"TEXCOORD_0":34
					},
					"indices":35,
					"material":8
				},
				{
					"attributes":{
						"POSITION":36,
						"NORMAL":37,
						"TEXCOORD_0":38
					},
					"indices":39,
					"material":9
				}
			]
		}
	],
	"textures":[
		{
			"sampler":0,
			"source":0
		},
		{
			"sampler":0,
			"source":1
		},
		{
			"sampler":0,
			"source":2
		},
		{
			"sampler":0,
			"source":3
		},
		{
			"sampler":0,
			"source":4
		},
		{
			"sampler":0,
			"source":1
		},
		{
			"sampler":0,
			"source":5
		},
		{
			"sampler":0,
			"source":6
		},
		{
			"sampler":0,
			"source":7
		},
		{
			"sampler":0,
			"source":0
		}
	],
	"images":[
		{
			"mimeType":"image/jpeg",
			"name":"u2metdark",
			"uri":"u2metdark.jpg"
		},
		{
			"mimeType":"image/jpeg",
			"name":"u2crete2",
			"uri":"u2crete2.jpg"
		},
		{
			"mimeType":"image/jpeg",
			"name":"Bricks",
			"uri":"Bricks.jpg"
		},
		{
			"mimeType":"image/jpeg",
			"name":"u2door2",
			"uri":"u2door2.jpg"
		},
		{
			"mimeType":"image/jpeg",
			"name":"u2rollup2",
			"uri":"u2rollup2.jpg"
		},
		{
			"mimeType":"image/jpeg",
			"name":"u2rollup1",
			"uri":"u2rollup1.jpg"
		},
		{
			"mimeType":"image/jpeg",
			"name":"u2white",
			"uri":"u2white.jpg"
		},
		{
			"mimeType":"image/jpeg",
			"name":"u2metal1",
			"uri":"u2metal1.jpg"
		}
	],
	"accessors":[
		{
			"bufferView":0,
			"componentType":5126,
			"count":16630,
			"max":[
				10.696100234985352,
				-8.251119613647461,
				-0.09071619808673859
			],
			"min":[
				2.19963002204895,
				-14.454899787902832,
				-10.242300033569336
			],
			"type":"VEC3"
		},
		{
			"bufferView":1,
			"componentType":5126,
			"count":16630,
			"type":"VEC3"
		},
		{
			"bufferView":2,
			"componentType":5126,
			"count":16630,
			"type":"VEC2"
		},
		{
			"bufferView":3,
			"componentType":5123,
			"count":29130,
			"type":"SCALAR"
		},
		{
			"bufferView":4,
			"componentType":5126,
			"count":19427,
			"max":[
				11.555000305175781,
				-8.19629955291748,
				0.036664098501205444
			],
			"min":[
				3.1920199394226074,
				-14.627300262451172,
				-9.03909969329834
			],
			"type":"VEC3"
		},
		{
			"bufferView":5,
			"componentType":5126,
			"count":19427,
			"type":"VEC3"
		},
		{
			"bufferView":6,
			"componentType":5126,
			"count":19427,
			"type":"VEC2"
		},
		{
			"bufferView":7,
			"componentType":5123,
			"count":29514,
			"type":"SCALAR"
		},
		{
			"bufferView":8,
			"componentType":5126,
			"count":132,
			"max":[
				8.021550178527832,
				-8.492170333862305,
				-0.031988900154829025
			],
			"min":[
				3.4363598823547363,
				-14.418700218200684,
				-8.988579750061035
			],
			"type":"VEC3"
		},
		{
			"bufferView":9,
			"componentType":5126,
			"count":132,
			"type":"VEC3"
		},
		{
			"bufferView":10,
			"componentType":5126,
			"count":132,
			"type":"VEC2"
		},
		{
			"bufferView":11,
			"componentType":5123,
			"count":264,
			"type":"SCALAR"
		},
		{
			"bufferView":12,
			"componentType":5126,
			"count":419,
			"max":[
				5.260159969329834,
				-8.4718599319458,
				-0.5042619705200195
			],
			"min":[
				3.4588799476623535,
				-14.484399795532227,
				-1.2661000490188599
			],
			"type":"VEC3"
		},
		{
			"bufferView":13,
			"componentType":5126,
			"count":419,
			"type":"VEC3"
		},
		{
			"bufferView":14,
			"componentType":5126,
			"count":419,
			"type":"VEC2"
		},
		{
			"bufferView":15,
			"componentType":5123,
			"count":972,
			"type":"SCALAR"
		},
		{
			"bufferView":16,
			"componentType":5126,
			"count":8,
			"max":[
				9.22288990020752,
				-8.468379974365234,
				-0.48006299138069153
			],
			"min":[
				5.933030128479004,
				-8.468379974365234,
				-1.7914600372314453
			],
			"type":"VEC3"
		},
		{
			"bufferView":17,
			"componentType":5126,
			"count":8,
			"type":"VEC3"
		},
		{
			"bufferView":18,
			"componentType":5126,
			"count":8,
			"type":"VEC2"
		},
		{
			"bufferView":19,
			"componentType":5123,
			"count":12,
			"type":"SCALAR"
		},
		{
			"bufferView":20,
			"componentType":5126,
			"count":53,
			"max":[
				11.564299583435059,
				-8.478639602661133,
				0.05393889918923378
			],
			"min":[
				4.2087202072143555,
				-14.578800201416016,
				-9.069840431213379
			],
			"type":"VEC3"
		},
		{
			"bufferView":21,
			"componentType":5126,
			"count":53,
			"type":"VEC3"
		},
		{
			"bufferView":22,
			"componentType":5126,
			"count":53,
			"type":"VEC2"
		},
		{
			"bufferView":23,
			"componentType":5123,
			"count":105,
			"type":"SCALAR"
		},
		{
			"bufferView":24,
			"componentType":5126,
			"count":4,
			"max":[
				10.883500099182129,
				-8.468379974365234,
				-0.48006299138069153
			],
			"min":[
				9.40604019165039,
				-8.468379974365234,
				-1.7914600372314453
			],
			"type":"VEC3"
		},
		{
			"bufferView":25,
			"componentType":5126,
			"count":4,
			"type":"VEC3"
		},
		{
			"bufferView":26,
			"componentType":5126,
			"count":4,
			"type":"VEC2"
		},
		{
			"bufferView":27,
			"componentType":5123,
			"count":6,
			"type":"SCALAR"
		},
		{
			"bufferView":28,
			"componentType":5126,
			"count":1238,
			"max":[
				2.817310094833374,
				-14.34179973602295,
				-4.4688801765441895
			],
			"min":[
				2.5088601112365723,
				-14.436400413513184,
				-7.751339912414551
			],
			"type":"VEC3"
		},
		{
			"bufferView":29,
			"componentType":5126,
			"count":1238,
			"type":"VEC3"
		},
		{
			"bufferView":30,
			"componentType":5126,
			"count":1238,
			"type":"VEC2"
		},
		{
			"bufferView":31,
			"componentType":5123,
			"count":2010,
			"type":"SCALAR"
		},
		{
			"bufferView":32,
			"componentType":5126,
			"count":130,
			"max":[
				10.49120044708252,
				-11.208700180053711,
				-8.964469909667969
			],
			"min":[
				4.403260231018066,
				-13.389800071716309,
				-9.09469985961914
			],
			"type":"VEC3"
		},
		{
			"bufferView":33,
			"componentType":5126,
			"count":130,
			"type":"VEC3"
		},
		{
			"bufferView":34,
			"componentType":5126,
			"count":130,
			"type":"VEC2"
		},
		{
			"bufferView":35,
			"componentType":5123,
			"count":192,
			"type":"SCALAR"
		},
		{
			"bufferView":36,
			"componentType":5126,
			"count":255,
			"max":[
				10.542099952697754,
				-11.179699897766113,
				-8.823960304260254
			],
			"min":[
				4.352389812469482,
				-13.418899536132812,
				-8.896710395812988
			],
			"type":"VEC3"
		},
		{
			"bufferView":37,
			"componentType":5126,
			"count":255,
			"type":"VEC3"
		},
		{
			"bufferView":38,
			"componentType":5126,
			"count":255,
			"type":"VEC2"
		},
		{
			"bufferView":39,
			"componentType":5123,
			"count":384,
			"type":"SCALAR"
		}
	],
	"bufferViews":[
		{
			"buffer":0,
			"byteLength":199560,
			"byteOffset":0,
			"target":34962
		},
		{
			"buffer":0,
			"byteLength":199560,
			"byteOffset":199560,
			"target":34962
		},
		{
			"buffer":0,
			"byteLength":133040,
			"byteOffset":399120,
			"target":34962
		},
		{
			"buffer":0,
			"byteLength":58260,
			"byteOffset":532160,
			"target":34963
		},
		{
			"buffer":0,
			"byteLength":233124,
			"byteOffset":590420,
			"target":34962
		},
		{
			"buffer":0,
			"byteLength":233124,
			"byteOffset":823544,
			"target":34962
		},
		{
			"buffer":0,
			"byteLength":155416,
			"byteOffset":1056668,
			"target":34962
		},
		{
			"buffer":0,
			"byteLength":59028,
			"byteOffset":1212084,
			"target":34963
		},
		{
			"buffer":0,
			"byteLength":1584,
			"byteOffset":1271112,
			"target":34962
		},
		{
			"buffer":0,
			"byteLength":1584,
			"byteOffset":1272696,
			"target":34962
		},
		{
			"buffer":0,
			"byteLength":1056,
			"byteOffset":1274280,
			"target":34962
		},
		{
			"buffer":0,
			"byteLength":528,
			"byteOffset":1275336,
			"target":34963
		},
		{
			"buffer":0,
			"byteLength":5028,
			"byteOffset":1275864,
			"target":34962
		},
		{
			"buffer":0,
			"byteLength":5028,
			"byteOffset":1280892,
			"target":34962
		},
		{
			"buffer":0,
			"byteLength":3352,
			"byteOffset":1285920,
			"target":34962
		},
		{
			"buffer":0,
			"byteLength":1944,
			"byteOffset":1289272,
			"target":34963
		},
		{
			"buffer":0,
			"byteLength":96,
			"byteOffset":1291216,
			"target":34962
		},
		{
			"buffer":0,
			"byteLength":96,
			"byteOffset":1291312,
			"target":34962
		},
		{
			"buffer":0,
			"byteLength":64,
			"byteOffset":1291408,
			"target":34962
		},
		{
			"buffer":0,
			"byteLength":24,
			"byteOffset":1291472,
			"target":34963
		},
		{
			"buffer":0,
			"byteLength":636,
			"byteOffset":1291496,
			"target":34962
		},
		{
			"buffer":0,
			"byteLength":636,
			"byteOffset":1292132,
			"target":34962
		},
		{
			"buffer":0,
			"byteLength":424,
			"byteOffset":1292768,
			"target":34962
		},
		{
			"buffer":0,
			"byteLength":210,
			"byteOffset":1293192,
			"target":34963
		},
		{
			"buffer":0,
			"byteLength":48,
			"byteOffset":1293404,
			"target":34962
		},
		{
			"buffer":0,
			"byteLength":48,
			"byteOffset":1293452,
			"target":34962
		},
		{
			"buffer":0,
			"byteLength":32,
			"byteOffset":1293500,
			"target":34962
		},
		{
			"buffer":0,
			"byteLength":12,
			"byteOffset":1293532,
			"target":34963
		},
		{
			"buffer":0,
			"byteLength":14856,
			"byteOffset":1293544,
			"target":34962
		},
		{
			"buffer":0,
			"byteLength":14856,
			"byteOffset":1308400,
			"target":34962
		},
		{
			"buffer":0,
			"byteLength":9904,
			"byteOffset":1323256,
			"target":34962
		},
		{
			"buffer":0,
			"byteLength":4020,
			"byteOffset":1333160,
			"target":34963
		},
		{
			"buffer":0,
			"byteLength":1560,
			"byteOffset":1337180,
			"target":34962
		},
		{
			"buffer":0,
			"byteLength":1560,
			"byteOffset":1338740,
			"target":34962
		},
		{
			"buffer":0,
			"byteLength":1040,
			"byteOffset":1340300,
			"target":34962
		},
		{
			"buffer":0,
			"byteLength":384,
			"byteOffset":1341340,
			"target":34963
		},
		{
			"buffer":0,
			"byteLength":3060,
			"byteOffset":1341724,
			"target":34962
		},
		{
			"buffer":0,
			"byteLength":3060,
			"byteOffset":1344784,
			"target":34962
		},
		{
			"buffer":0,
			"byteLength":2040,
			"byteOffset":1347844,
			"target":34962
		},
		{
			"buffer":0,
			"byteLength":768,
			"byteOffset":1349884,
			"target":34963
		}
	],
	"samplers":[
		{
			"magFilter":9729,
			"minFilter":9987
		}
	],
	"buffers":[
		{
			"byteLength":1350652,
			"uri":"u2NEBuild1.bin"
		}
	]
}
