{
	"asset":{
		"generator":"Khronos glTF Blender I/O v5.0.21",
		"version":"2.0"
	},
	"extensionsUsed":[
		"KHR_materials_specular",
		"KHR_materials_ior"
	],
	"scene":0,
	"scenes":[
		{
			"name":"Scene",
			"nodes":[
				0
			]
		}
	],
	"nodes":[
		{
			"mesh":0,
			"name":"u2NEBuild6",
			"rotation":[
				0.70710688829422,
				0,
				0,
				0.7071066498756409
			]
		}
	],
	"materials":[
		{
			"doubleSided":true,
			"extensions":{
				"KHR_materials_specular":{
					"specularColorFactor":[
						0.04800000041723251,
						0.04800000041723251,
						0.04800000041723251
					]
				},
				"KHR_materials_ior":{
					"ior":0
				}
			},
			"name":"Brick3_u2NEBuild6_1",
			"pbrMetallicRoughness":{
				"baseColorTexture":{
					"index":0
				},
				"metallicFactor":0,
				"roughnessFactor":0.9687750339508057
			}
		},
		{
			"doubleSided":true,
			"extensions":{
				"KHR_materials_specular":{
					"specularColorFactor":[
						0.04800000041723251,
						0.04800000041723251,
						0.04800000041723251
					]
				},
				"KHR_materials_ior":{
					"ior":0
				}
			},
			"name":"Brick2_u2NEBuild6_1",
			"pbrMetallicRoughness":{
				"baseColorTexture":{
					"index":1
				},
				"metallicFactor":0,
				"roughnessFactor":0.9687750339508057
			}
		},
		{
			"doubleSided":true,
			"extensions":{
				"KHR_materials_specular":{
					"specularColorFactor":[
						0.04800000041723251,
						0.04800000041723251,
						0.04800000041723251
					]
				},
				"KHR_materials_ior":{
					"ior":0
				}
			},
			"name":"Concrete2_u2NEBuild6_1",
			"pbrMetallicRoughness":{
				"baseColorTexture":{
					"index":2
				},
				"metallicFactor":0,
				"roughnessFactor":0.9687750339508057
			}
		},
		{
			"doubleSided":true,
			"extensions":{
				"KHR_materials_specular":{
					"specularColorFactor":[
						0.04800000041723251,
						0.04800000041723251,
						0.04800000041723251
					]
				},
				"KHR_materials_ior":{
					"ior":0
				}
			},
			"name":"LED_Light_u2NEBuild6_1",
			"pbrMetallicRoughness":{
				"baseColorFactor":[
					0.800000011920929,
					0.800000011920929,
					0.800000011920929,
					1
				],
				"metallicFactor":0,
				"roughnessFactor":0.9691779017448425
			}
		},
		{
			"doubleSided":true,
			"extensions":{
				"KHR_materials_specular":{
					"specularColorFactor":[
						0.04800000041723251,
						0.04800000041723251,
						0.04800000041723251
					]
				},
				"KHR_materials_ior":{
					"ior":0
				}
			},
			"name":"MetalDark_u2NEBuild6_1",
			"pbrMetallicRoughness":{
				"baseColorTexture":{
					"index":3
				},
				"metallicFactor":0,
				"roughnessFactor":0.9700000286102295
			}
		},
		{
			"doubleSided":true,
			"extensions":{
				"KHR_materials_specular":{
					"specularColorFactor":[
						0.04800000041723251,
						0.04800000041723251,
						0.04800000041723251
					]
				},
				"KHR_materials_ior":{
					"ior":0
				}
			},
			"name":"RooftopProps_u2NEBuild6_1",
			"pbrMetallicRoughness":{
				"baseColorTexture":{
					"index":4
				},
				"metallicFactor":0,
				"roughnessFactor":0.9685357213020325
			}
		},
		{
			"doubleSided":true,
			"extensions":{
				"KHR_materials_specular":{
					"specularColorFactor":[
						0.04800000041723251,
						0.04800000041723251,
						0.04800000041723251
					]
				},
				"KHR_materials_ior":{
					"ior":0
				}
			},
			"name":"Props2_u2NEBuild6_1",
			"pbrMetallicRoughness":{
				"baseColorTexture":{
					"index":5
				},
				"metallicFactor":0,
				"roughnessFactor":0.9691779017448425
			}
		},
		{
			"doubleSided":true,
			"extensions":{
				"KHR_materials_specular":{
					"specularColorFactor":[
						0.04800000041723251,
						0.04800000041723251,
						0.04800000041723251
					]
				},
				"KHR_materials_ior":{
					"ior":0
				}
			},
			"name":"Signs3_u2NEBuild6_1",
			"pbrMetallicRoughness":{
				"baseColorTexture":{
					"index":6
				},
				"metallicFactor":0,
				"roughnessFactor":0.9691779017448425
			}
		},
		{
			"doubleSided":true,
			"extensions":{
				"KHR_materials_specular":{
					"specularColorFactor":[
						0.04800000041723251,
						0.04800000041723251,
						0.04800000041723251
					]
				},
				"KHR_materials_ior":{
					"ior":0
				}
			},
			"name":"Concrete1_u2NEBuild6_1",
			"pbrMetallicRoughness":{
				"baseColorTexture":{
					"index":7
				},
				"metallicFactor":0,
				"roughnessFactor":0.9687750339508057
			}
		},
		{
			"doubleSided":true,
			"extensions":{
				"KHR_materials_specular":{
					"specularColorFactor":[
						0.04800000041723251,
						0.04800000041723251,
						0.04800000041723251
					]
				},
				"KHR_materials_ior":{
					"ior":0
				}
			},
			"name":"Window1C_u2NEBuild6_1",
			"pbrMetallicRoughness":{
				"baseColorTexture":{
					"index":8
				},
				"metallicFactor":0,
				"roughnessFactor":0.9691779017448425
			}
		},
		{
			"doubleSided":true,
			"extensions":{
				"KHR_materials_specular":{
					"specularColorFactor":[
						0.04800000041723251,
						0.04800000041723251,
						0.04800000041723251
					]
				},
				"KHR_materials_ior":{
					"ior":0
				}
			},
			"name":"Window1A_u2NEBuild6_1",
			"pbrMetallicRoughness":{
				"baseColorTexture":{
					"index":9
				},
				"metallicFactor":0,
				"roughnessFactor":0.9691779017448425
			}
		},
		{
			"doubleSided":true,
			"extensions":{
				"KHR_materials_specular":{
					"specularColorFactor":[
						0.04800000041723251,
						0.04800000041723251,
						0.04800000041723251
					]
				},
				"KHR_materials_ior":{
					"ior":0
				}
			},
			"name":"SkylightGlass_u2NEBuild6_1",
			"pbrMetallicRoughness":{
				"baseColorTexture":{
					"index":10
				},
				"metallicFactor":0,
				"roughnessFactor":0.9687750339508057
			}
		},
		{
			"doubleSided":true,
			"extensions":{
				"KHR_materials_specular":{
					"specularColorFactor":[
						0.04800000041723251,
						0.04800000041723251,
						0.04800000041723251
					]
				},
				"KHR_materials_ior":{
					"ior":0
				}
			},
			"name":"Window1B_u2NEBuild6_1",
			"pbrMetallicRoughness":{
				"baseColorTexture":{
					"index":11
				},
				"metallicFactor":0,
				"roughnessFactor":0.9691779017448425
			}
		}
	],
	"meshes":[
		{
			"name":"Urban Sprawl 2.009",
			"primitives":[
				{
					"attributes":{
						"POSITION":0,
						"NORMAL":1,
						"TEXCOORD_0":2
					},
					"indices":3,
					"material":0
				},
				{
					"attributes":{
						"POSITION":4,
						"NORMAL":5,
						"TEXCOORD_0":6
					},
					"indices":7,
					"material":1
				},
				{
					"attributes":{
						"POSITION":8,
						"NORMAL":9,
						"TEXCOORD_0":10
					},
					"indices":11,
					"material":2
				},
				{
					"attributes":{
						"POSITION":12,
						"NORMAL":13,
						"TEXCOORD_0":14
					},
					"indices":15,
					"material":3
				},
				{
					"attributes":{
						"POSITION":16,
						"NORMAL":17,
						"TEXCOORD_0":18
					},
					"indices":19,
					"material":4
				},
				{
					"attributes":{
						"POSITION":20,
						"NORMAL":21,
						"TEXCOORD_0":22
					},
					"indices":23,
					"material":5
				},
				{
					"attributes":{
						"POSITION":24,
						"NORMAL":25,
						"TEXCOORD_0":26
					},
					"indices":27,
					"material":6
				},
				{
					"attributes":{
						"POSITION":28,
						"NORMAL":29,
						"TEXCOORD_0":30
					},
					"indices":31,
					"material":7
				},
				{
					"attributes":{
						"POSITION":32,
						"NORMAL":33,
						"TEXCOORD_0":34
					},
					"indices":35,
					"material":8
				},
				{
					"attributes":{
						"POSITION":36,
						"NORMAL":37,
						"TEXCOORD_0":38
					},
					"indices":39,
					"material":9
				},
				{
					"attributes":{
						"POSITION":40,
						"NORMAL":41,
						"TEXCOORD_0":42
					},
					"indices":43,
					"material":10
				},
				{
					"attributes":{
						"POSITION":44,
						"NORMAL":45,
						"TEXCOORD_0":46
					},
					"indices":47,
					"material":11
				},
				{
					"attributes":{
						"POSITION":48,
						"NORMAL":49,
						"TEXCOORD_0":50
					},
					"indices":51,
					"material":12
				}
			]
		}
	],
	"textures":[
		{
			"sampler":0,
			"source":0
		},
		{
			"sampler":0,
			"source":1
		},
		{
			"sampler":0,
			"source":2
		},
		{
			"sampler":0,
			"source":3
		},
		{
			"sampler":0,
			"source":4
		},
		{
			"sampler":0,
			"source":5
		},
		{
			"sampler":0,
			"source":6
		},
		{
			"sampler":0,
			"source":7
		},
		{
			"sampler":0,
			"source":8
		},
		{
			"sampler":0,
			"source":8
		},
		{
			"sampler":0,
			"source":9
		},
		{
			"sampler":0,
			"source":10
		}
	],
	"images":[
		{
			"mimeType":"image/jpeg",
			"name":"Bricks",
			"uri":"Bricks.jpg"
		},
		{
			"mimeType":"image/jpeg",
			"name":"u2brick2",
			"uri":"u2brick2.jpg"
		},
		{
			"mimeType":"image/jpeg",
			"name":"u2crete2",
			"uri":"u2crete2.jpg"
		},
		{
			"mimeType":"image/jpeg",
			"name":"u2metdark",
			"uri":"u2metdark.jpg"
		},
		{
			"mimeType":"image/jpeg",
			"name":"u2props4",
			"uri":"u2props4.jpg"
		},
		{
			"mimeType":"image/jpeg",
			"name":"u2props2",
			"uri":"u2props2.jpg"
		},
		{
			"mimeType":"image/jpeg",
			"name":"u2signs3",
			"uri":"u2signs3.jpg"
		},
		{
			"mimeType":"image/jpeg",
			"name":"u2crete1",
			"uri":"u2crete1.jpg"
		},
		{
			"mimeType":"image/jpeg",
			"name":"u2win1",
			"uri":"u2win1.jpg"
		},
		{
			"mimeType":"image/jpeg",
			"name":"u2metal1",
			"uri":"u2metal1.jpg"
		},
		{
			"mimeType":"image/jpeg",
			"name":"u2redbldg",
			"uri":"u2redbldg.jpg"
		}
	],
	"accessors":[
		{
			"bufferView":0,
			"componentType":5126,
			"count":74,
			"max":[
				30.652700424194336,
				-8.002099990844727,
				-0.16540999710559845
			],
			"min":[
				25.738100051879883,
				-16.606599807739258,
				-2.492569923400879
			],
			"type":"VEC3"
		},
		{
			"bufferView":1,
			"componentType":5126,
			"count":74,
			"type":"VEC3"
		},
		{
			"bufferView":2,
			"componentType":5126,
			"count":74,
			"type":"VEC2"
		},
		{
			"bufferView":3,
			"componentType":5123,
			"count":150,
			"type":"SCALAR"
		},
		{
			"bufferView":4,
			"componentType":5126,
			"count":667,
			"max":[
				30.645000457763672,
				-8.084360122680664,
				-2.520519971847534
			],
			"min":[
				25.732099533081055,
				-16.613399505615234,
				-13.060999870300293
			],
			"type":"VEC3"
		},
		{
			"bufferView":5,
			"componentType":5126,
			"count":667,
			"type":"VEC3"
		},
		{
			"bufferView":6,
			"componentType":5126,
			"count":667,
			"type":"VEC2"
		},
		{
			"bufferView":7,
			"componentType":5123,
			"count":1560,
			"type":"SCALAR"
		},
		{
			"bufferView":8,
			"componentType":5126,
			"count":5417,
			"max":[
				30.716400146484375,
				-7.938199996948242,
				-0.062060900032520294
			],
			"min":[
				25.662799835205078,
				-16.70870018005371,
				-13.801799774169922
			],
			"type":"VEC3"
		},
		{
			"bufferView":9,
			"componentType":5126,
			"count":5417,
			"type":"VEC3"
		},
		{
			"bufferView":10,
			"componentType":5126,
			"count":5417,
			"type":"VEC2"
		},
		{
			"bufferView":11,
			"componentType":5123,
			"count":10278,
			"type":"SCALAR"
		},
		{
			"bufferView":12,
			"componentType":5126,
			"count":206,
			"max":[
				29.97170066833496,
				-8.65758991241455,
				-13.21500015258789
			],
			"min":[
				26.78619956970215,
				-13.14490032196045,
				-14.239399909973145
			],
			"type":"VEC3"
		},
		{
			"bufferView":13,
			"componentType":5126,
			"count":206,
			"type":"VEC3"
		},
		{
			"bufferView":14,
			"componentType":5126,
			"count":206,
			"type":"VEC2"
		},
		{
			"bufferView":15,
			"componentType":5123,
			"count":390,
			"type":"SCALAR"
		},
		{
			"bufferView":16,
			"componentType":5126,
			"count":3455,
			"max":[
				30.71150016784668,
				-6.53587007522583,
				-1.4371399879455566
			],
			"min":[
				25.773700714111328,
				-13.149200439453125,
				-15.859000205993652
			],
			"type":"VEC3"
		},
		{
			"bufferView":17,
			"componentType":5126,
			"count":3455,
			"type":"VEC3"
		},
		{
			"bufferView":18,
			"componentType":5126,
			"count":3455,
			"type":"VEC2"
		},
		{
			"bufferView":19,
			"componentType":5123,
			"count":8013,
			"type":"SCALAR"
		},
		{
			"bufferView":20,
			"componentType":5126,
			"count":1233,
			"max":[
				27.567399978637695,
				-8.831459999084473,
				-12.784899711608887
			],
			"min":[
				26.435300827026367,
				-12.970999717712402,
				-12.927200317382812
			],
			"type":"VEC3"
		},
		{
			"bufferView":21,
			"componentType":5126,
			"count":1233,
			"type":"VEC3"
		},
		{
			"bufferView":22,
			"componentType":5126,
			"count":1233,
			"type":"VEC2"
		},
		{
			"bufferView":23,
			"componentType":5123,
			"count":2532,
			"type":"SCALAR"
		},
		{
			"bufferView":24,
			"componentType":5126,
			"count":1207,
			"max":[
				30.454700469970703,
				-7.649849891662598,
				-2.1487600803375244
			],
			"min":[
				25.890199661254883,
				-8.112560272216797,
				-12.592599868774414
			],
			"type":"VEC3"
		},
		{
			"bufferView":25,
			"componentType":5126,
			"count":1207,
			"type":"VEC3"
		},
		{
			"bufferView":26,
			"componentType":5126,
			"count":1207,
			"type":"VEC2"
		},
		{
			"bufferView":27,
			"componentType":5123,
			"count":2142,
			"type":"SCALAR"
		},
		{
			"bufferView":28,
			"componentType":5126,
			"count":46,
			"max":[
				30.689899444580078,
				-6.541709899902344,
				-0.45455101132392883
			],
			"min":[
				25.780899047851562,
				-10.400699615478516,
				-11.419899940490723
			],
			"type":"VEC3"
		},
		{
			"bufferView":29,
			"componentType":5126,
			"count":46,
			"type":"VEC3"
		},
		{
			"bufferView":30,
			"componentType":5126,
			"count":46,
			"type":"VEC2"
		},
		{
			"bufferView":31,
			"componentType":5123,
			"count":72,
			"type":"SCALAR"
		},
		{
			"bufferView":32,
			"componentType":5126,
			"count":337,
			"max":[
				30.6299991607666,
				-7.915040016174316,
				-12.691800117492676
			],
			"min":[
				25.763599395751953,
				-8.114219665527344,
				-12.907999992370605
			],
			"type":"VEC3"
		},
		{
			"bufferView":33,
			"componentType":5126,
			"count":337,
			"type":"VEC3"
		},
		{
			"bufferView":34,
			"componentType":5126,
			"count":337,
			"type":"VEC2"
		},
		{
			"bufferView":35,
			"componentType":5123,
			"count":540,
			"type":"SCALAR"
		},
		{
			"bufferView":36,
			"componentType":5126,
			"count":52,
			"max":[
				30.241199493408203,
				-8.187270164489746,
				-2.8617799282073975
			],
			"min":[
				26.160999298095703,
				-8.198869705200195,
				-12.449799537658691
			],
			"type":"VEC3"
		},
		{
			"bufferView":37,
			"componentType":5126,
			"count":52,
			"type":"VEC3"
		},
		{
			"bufferView":38,
			"componentType":5126,
			"count":52,
			"type":"VEC2"
		},
		{
			"bufferView":39,
			"componentType":5123,
			"count":78,
			"type":"SCALAR"
		},
		{
			"bufferView":40,
			"componentType":5126,
			"count":64,
			"max":[
				30.3572998046875,
				-8.055910110473633,
				-0.9852759838104248
			],
			"min":[
				26.160999298095703,
				-8.20911979675293,
				-12.437600135803223
			],
			"type":"VEC3"
		},
		{
			"bufferView":41,
			"componentType":5126,
			"count":64,
			"type":"VEC3"
		},
		{
			"bufferView":42,
			"componentType":5126,
			"count":64,
			"type":"VEC2"
		},
		{
			"bufferView":43,
			"componentType":5123,
			"count":96,
			"type":"SCALAR"
		},
		{
			"bufferView":44,
			"componentType":5126,
			"count":16,
			"max":[
				29.779800415039062,
				-8.79220962524414,
				-13.19789981842041
			],
			"min":[
				28.747900009155273,
				-9.227749824523926,
				-13.324700355529785
			],
			"type":"VEC3"
		},
		{
			"bufferView":45,
			"componentType":5126,
			"count":16,
			"type":"VEC3"
		},
		{
			"bufferView":46,
			"componentType":5126,
			"count":16,
			"type":"VEC2"
		},
		{
			"bufferView":47,
			"componentType":5123,
			"count":24,
			"type":"SCALAR"
		},
		{
			"bufferView":48,
			"componentType":5126,
			"count":18,
			"max":[
				28.832000732421875,
				-8.103739738464355,
				-0.3378570079803467
			],
			"min":[
				26.418800354003906,
				-8.115579605102539,
				-1.4350600242614746
			],
			"type":"VEC3"
		},
		{
			"bufferView":49,
			"componentType":5126,
			"count":18,
			"type":"VEC3"
		},
		{
			"bufferView":50,
			"componentType":5126,
			"count":18,
			"type":"VEC2"
		},
		{
			"bufferView":51,
			"componentType":5123,
			"count":24,
			"type":"SCALAR"
		}
	],
	"bufferViews":[
		{
			"buffer":0,
			"byteLength":888,
			"byteOffset":0,
			"target":34962
		},
		{
			"buffer":0,
			"byteLength":888,
			"byteOffset":888,
			"target":34962
		},
		{
			"buffer":0,
			"byteLength":592,
			"byteOffset":1776,
			"target":34962
		},
		{
			"buffer":0,
			"byteLength":300,
			"byteOffset":2368,
			"target":34963
		},
		{
			"buffer":0,
			"byteLength":8004,
			"byteOffset":2668,
			"target":34962
		},
		{
			"buffer":0,
			"byteLength":8004,
			"byteOffset":10672,
			"target":34962
		},
		{
			"buffer":0,
			"byteLength":5336,
			"byteOffset":18676,
			"target":34962
		},
		{
			"buffer":0,
			"byteLength":3120,
			"byteOffset":24012,
			"target":34963
		},
		{
			"buffer":0,
			"byteLength":65004,
			"byteOffset":27132,
			"target":34962
		},
		{
			"buffer":0,
			"byteLength":65004,
			"byteOffset":92136,
			"target":34962
		},
		{
			"buffer":0,
			"byteLength":43336,
			"byteOffset":157140,
			"target":34962
		},
		{
			"buffer":0,
			"byteLength":20556,
			"byteOffset":200476,
			"target":34963
		},
		{
			"buffer":0,
			"byteLength":2472,
			"byteOffset":221032,
			"target":34962
		},
		{
			"buffer":0,
			"byteLength":2472,
			"byteOffset":223504,
			"target":34962
		},
		{
			"buffer":0,
			"byteLength":1648,
			"byteOffset":225976,
			"target":34962
		},
		{
			"buffer":0,
			"byteLength":780,
			"byteOffset":227624,
			"target":34963
		},
		{
			"buffer":0,
			"byteLength":41460,
			"byteOffset":228404,
			"target":34962
		},
		{
			"buffer":0,
			"byteLength":41460,
			"byteOffset":269864,
			"target":34962
		},
		{
			"buffer":0,
			"byteLength":27640,
			"byteOffset":311324,
			"target":34962
		},
		{
			"buffer":0,
			"byteLength":16026,
			"byteOffset":338964,
			"target":34963
		},
		{
			"buffer":0,
			"byteLength":14796,
			"byteOffset":354992,
			"target":34962
		},
		{
			"buffer":0,
			"byteLength":14796,
			"byteOffset":369788,
			"target":34962
		},
		{
			"buffer":0,
			"byteLength":9864,
			"byteOffset":384584,
			"target":34962
		},
		{
			"buffer":0,
			"byteLength":5064,
			"byteOffset":394448,
			"target":34963
		},
		{
			"buffer":0,
			"byteLength":14484,
			"byteOffset":399512,
			"target":34962
		},
		{
			"buffer":0,
			"byteLength":14484,
			"byteOffset":413996,
			"target":34962
		},
		{
			"buffer":0,
			"byteLength":9656,
			"byteOffset":428480,
			"target":34962
		},
		{
			"buffer":0,
			"byteLength":4284,
			"byteOffset":438136,
			"target":34963
		},
		{
			"buffer":0,
			"byteLength":552,
			"byteOffset":442420,
			"target":34962
		},
		{
			"buffer":0,
			"byteLength":552,
			"byteOffset":442972,
			"target":34962
		},
		{
			"buffer":0,
			"byteLength":368,
			"byteOffset":443524,
			"target":34962
		},
		{
			"buffer":0,
			"byteLength":144,
			"byteOffset":443892,
			"target":34963
		},
		{
			"buffer":0,
			"byteLength":4044,
			"byteOffset":444036,
			"target":34962
		},
		{
			"buffer":0,
			"byteLength":4044,
			"byteOffset":448080,
			"target":34962
		},
		{
			"buffer":0,
			"byteLength":2696,
			"byteOffset":452124,
			"target":34962
		},
		{
			"buffer":0,
			"byteLength":1080,
			"byteOffset":454820,
			"target":34963
		},
		{
			"buffer":0,
			"byteLength":624,
			"byteOffset":455900,
			"target":34962
		},
		{
			"buffer":0,
			"byteLength":624,
			"byteOffset":456524,
			"target":34962
		},
		{
			"buffer":0,
			"byteLength":416,
			"byteOffset":457148,
			"target":34962
		},
		{
			"buffer":0,
			"byteLength":156,
			"byteOffset":457564,
			"target":34963
		},
		{
			"buffer":0,
			"byteLength":768,
			"byteOffset":457720,
			"target":34962
		},
		{
			"buffer":0,
			"byteLength":768,
			"byteOffset":458488,
			"target":34962
		},
		{
			"buffer":0,
			"byteLength":512,
			"byteOffset":459256,
			"target":34962
		},
		{
			"buffer":0,
			"byteLength":192,
			"byteOffset":459768,
			"target":34963
		},
		{
			"buffer":0,
			"byteLength":192,
			"byteOffset":459960,
			"target":34962
		},
		{
			"buffer":0,
			"byteLength":192,
			"byteOffset":460152,
			"target":34962
		},
		{
			"buffer":0,
			"byteLength":128,
			"byteOffset":460344,
			"target":34962
		},
		{
			"buffer":0,
			"byteLength":48,
			"byteOffset":460472,
			"target":34963
		},
		{
			"buffer":0,
			"byteLength":216,
			"byteOffset":460520,
			"target":34962
		},
		{
			"buffer":0,
			"byteLength":216,
			"byteOffset":460736,
			"target":34962
		},
		{
			"buffer":0,
			"byteLength":144,
			"byteOffset":460952,
			"target":34962
		},
		{
			"buffer":0,
			"byteLength":48,
			"byteOffset":461096,
			"target":34963
		}
	],
	"samplers":[
		{
			"magFilter":9729,
			"minFilter":9987
		}
	],
	"buffers":[
		{
			"byteLength":461144,
			"uri":"u2NEBuild6.bin"
		}
	]
}
