{
	"asset":{
		"generator":"Khronos glTF Blender I/O v5.0.21",
		"version":"2.0"
	},
	"extensionsUsed":[
		"KHR_materials_specular",
		"KHR_materials_ior"
	],
	"scene":0,
	"scenes":[
		{
			"name":"Scene",
			"nodes":[
				0
			]
		}
	],
	"nodes":[
		{
			"mesh":0,
			"name":"u2NWBuild9",
			"rotation":[
				0.70710688829422,
				0,
				0,
				0.7071066498756409
			]
		}
	],
	"materials":[
		{
			"doubleSided":true,
			"extensions":{
				"KHR_materials_specular":{
					"specularColorFactor":[
						0.04800000041723251,
						0.04800000041723251,
						0.04800000041723251
					]
				},
				"KHR_materials_ior":{
					"ior":0
				}
			},
			"name":"WindowE2_u2NWBuild9_1",
			"pbrMetallicRoughness":{
				"baseColorTexture":{
					"index":0
				},
				"metallicFactor":0,
				"roughnessFactor":0.9691779017448425
			}
		},
		{
			"doubleSided":true,
			"extensions":{
				"KHR_materials_specular":{
					"specularColorFactor":[
						0.04800000041723251,
						0.04800000041723251,
						0.04800000041723251
					]
				},
				"KHR_materials_ior":{
					"ior":0
				}
			},
			"name":"WindowE1_u2NWBuild9_1",
			"pbrMetallicRoughness":{
				"baseColorTexture":{
					"index":1
				},
				"metallicFactor":0,
				"roughnessFactor":0.9691779017448425
			}
		},
		{
			"doubleSided":true,
			"extensions":{
				"KHR_materials_specular":{
					"specularColorFactor":[
						0.04800000041723251,
						0.04800000041723251,
						0.04800000041723251
					]
				},
				"KHR_materials_ior":{
					"ior":0
				}
			},
			"name":"Concrete2_u2NWBuild9_1",
			"pbrMetallicRoughness":{
				"baseColorTexture":{
					"index":2
				},
				"metallicFactor":0,
				"roughnessFactor":0.9687750339508057
			}
		},
		{
			"doubleSided":true,
			"extensions":{
				"KHR_materials_specular":{
					"specularColorFactor":[
						0.04800000041723251,
						0.04800000041723251,
						0.04800000041723251
					]
				},
				"KHR_materials_ior":{
					"ior":0
				}
			},
			"name":"Props1_u2NWBuild9_1",
			"pbrMetallicRoughness":{
				"baseColorTexture":{
					"index":3
				},
				"metallicFactor":0,
				"roughnessFactor":0.9685357213020325
			}
		},
		{
			"doubleSided":true,
			"extensions":{
				"KHR_materials_specular":{
					"specularColorFactor":[
						0.04800000041723251,
						0.04800000041723251,
						0.04800000041723251
					]
				},
				"KHR_materials_ior":{
					"ior":0
				}
			},
			"name":"BrickRed_u2NWBuild9_1",
			"pbrMetallicRoughness":{
				"baseColorTexture":{
					"index":4
				},
				"metallicFactor":0,
				"roughnessFactor":0.9687750339508057
			}
		},
		{
			"doubleSided":true,
			"extensions":{
				"KHR_materials_specular":{
					"specularColorFactor":[
						0.04800000041723251,
						0.04800000041723251,
						0.04800000041723251
					]
				},
				"KHR_materials_ior":{
					"ior":0
				}
			},
			"name":"Brick3_u2NWBuild9_1",
			"pbrMetallicRoughness":{
				"baseColorTexture":{
					"index":5
				},
				"metallicFactor":0,
				"roughnessFactor":0.9687750339508057
			}
		},
		{
			"doubleSided":true,
			"extensions":{
				"KHR_materials_specular":{
					"specularColorFactor":[
						0.04800000041723251,
						0.04800000041723251,
						0.04800000041723251
					]
				},
				"KHR_materials_ior":{
					"ior":0
				}
			},
			"name":"MetalLight_u2NWBuild9_1",
			"pbrMetallicRoughness":{
				"baseColorTexture":{
					"index":6
				},
				"metallicFactor":0,
				"roughnessFactor":0.9700000286102295
			}
		},
		{
			"doubleSided":true,
			"extensions":{
				"KHR_materials_specular":{
					"specularColorFactor":[
						0.04800000041723251,
						0.04800000041723251,
						0.04800000041723251
					]
				},
				"KHR_materials_ior":{
					"ior":0
				}
			},
			"name":"RooftopProps_u2NWBuild9_1",
			"pbrMetallicRoughness":{
				"baseColorTexture":{
					"index":7
				},
				"metallicFactor":0,
				"roughnessFactor":0.9687750339508057
			}
		},
		{
			"doubleSided":true,
			"extensions":{
				"KHR_materials_specular":{
					"specularColorFactor":[
						0.04800000041723251,
						0.04800000041723251,
						0.04800000041723251
					]
				},
				"KHR_materials_ior":{
					"ior":0
				}
			},
			"name":"SkylightGlass_u2NWBuild9_1",
			"pbrMetallicRoughness":{
				"baseColorTexture":{
					"index":8
				},
				"metallicFactor":0,
				"roughnessFactor":0.9687750339508057
			}
		},
		{
			"doubleSided":true,
			"extensions":{
				"KHR_materials_specular":{
					"specularColorFactor":[
						0.04800000041723251,
						0.04800000041723251,
						0.04800000041723251
					]
				},
				"KHR_materials_ior":{
					"ior":0
				}
			},
			"name":"MetalGrey_u2NWBuild9_1",
			"pbrMetallicRoughness":{
				"baseColorTexture":{
					"index":9
				},
				"metallicFactor":0,
				"roughnessFactor":0.9687750339508057
			}
		},
		{
			"doubleSided":true,
			"extensions":{
				"KHR_materials_specular":{
					"specularColorFactor":[
						0.04800000041723251,
						0.04800000041723251,
						0.04800000041723251
					]
				},
				"KHR_materials_ior":{
					"ior":0
				}
			},
			"name":"MetalDark_u2NWBuild9_1",
			"pbrMetallicRoughness":{
				"baseColorTexture":{
					"index":10
				},
				"metallicFactor":0,
				"roughnessFactor":0.9700000286102295
			}
		},
		{
			"doubleSided":true,
			"extensions":{
				"KHR_materials_specular":{
					"specularColorFactor":[
						0.04800000041723251,
						0.04800000041723251,
						0.04800000041723251
					]
				},
				"KHR_materials_ior":{
					"ior":0
				}
			},
			"name":"YellowPaint_u2NWBuild9_1",
			"pbrMetallicRoughness":{
				"baseColorTexture":{
					"index":11
				},
				"metallicFactor":0,
				"roughnessFactor":0.9693813920021057
			}
		},
		{
			"doubleSided":true,
			"extensions":{
				"KHR_materials_specular":{
					"specularColorFactor":[
						0.04800000041723251,
						0.04800000041723251,
						0.04800000041723251
					]
				},
				"KHR_materials_ior":{
					"ior":0
				}
			},
			"name":"Concrete1_u2NWBuild9_1",
			"pbrMetallicRoughness":{
				"baseColorTexture":{
					"index":12
				},
				"metallicFactor":0,
				"roughnessFactor":0.9687750339508057
			}
		}
	],
	"meshes":[
		{
			"name":"Urban Sprawl 2.024",
			"primitives":[
				{
					"attributes":{
						"POSITION":0,
						"NORMAL":1,
						"TEXCOORD_0":2
					},
					"indices":3,
					"material":0
				},
				{
					"attributes":{
						"POSITION":4,
						"NORMAL":5,
						"TEXCOORD_0":6
					},
					"indices":7,
					"material":1
				},
				{
					"attributes":{
						"POSITION":8,
						"NORMAL":9,
						"TEXCOORD_0":10
					},
					"indices":11,
					"material":2
				},
				{
					"attributes":{
						"POSITION":12,
						"NORMAL":13,
						"TEXCOORD_0":14
					},
					"indices":15,
					"material":3
				},
				{
					"attributes":{
						"POSITION":16,
						"NORMAL":17,
						"TEXCOORD_0":18
					},
					"indices":19,
					"material":4
				},
				{
					"attributes":{
						"POSITION":20,
						"NORMAL":21,
						"TEXCOORD_0":22
					},
					"indices":23,
					"material":5
				},
				{
					"attributes":{
						"POSITION":24,
						"NORMAL":25,
						"TEXCOORD_0":26
					},
					"indices":27,
					"material":6
				},
				{
					"attributes":{
						"POSITION":28,
						"NORMAL":29,
						"TEXCOORD_0":30
					},
					"indices":31,
					"material":7
				},
				{
					"attributes":{
						"POSITION":32,
						"NORMAL":33,
						"TEXCOORD_0":34
					},
					"indices":35,
					"material":8
				},
				{
					"attributes":{
						"POSITION":36,
						"NORMAL":37,
						"TEXCOORD_0":38
					},
					"indices":39,
					"material":9
				},
				{
					"attributes":{
						"POSITION":40,
						"NORMAL":41,
						"TEXCOORD_0":42
					},
					"indices":43,
					"material":10
				},
				{
					"attributes":{
						"POSITION":44,
						"NORMAL":45,
						"TEXCOORD_0":46
					},
					"indices":47,
					"material":11
				},
				{
					"attributes":{
						"POSITION":48,
						"NORMAL":49,
						"TEXCOORD_0":50
					},
					"indices":51,
					"material":12
				}
			]
		}
	],
	"textures":[
		{
			"sampler":0,
			"source":0
		},
		{
			"sampler":0,
			"source":0
		},
		{
			"sampler":0,
			"source":1
		},
		{
			"sampler":0,
			"source":2
		},
		{
			"sampler":0,
			"source":3
		},
		{
			"sampler":0,
			"source":3
		},
		{
			"sampler":0,
			"source":4
		},
		{
			"sampler":0,
			"source":5
		},
		{
			"sampler":0,
			"source":5
		},
		{
			"sampler":0,
			"source":5
		},
		{
			"sampler":0,
			"source":4
		},
		{
			"sampler":0,
			"source":6
		},
		{
			"sampler":0,
			"source":1
		}
	],
	"images":[
		{
			"mimeType":"image/jpeg",
			"name":"u2win3",
			"uri":"u2win3.jpg"
		},
		{
			"mimeType":"image/jpeg",
			"name":"u2crete1",
			"uri":"u2crete1.jpg"
		},
		{
			"mimeType":"image/jpeg",
			"name":"u2props1",
			"uri":"u2props1.jpg"
		},
		{
			"mimeType":"image/jpeg",
			"name":"Bricks",
			"uri":"Bricks.jpg"
		},
		{
			"mimeType":"image/jpeg",
			"name":"u2metdark",
			"uri":"u2metdark.jpg"
		},
		{
			"mimeType":"image/jpeg",
			"name":"u2metal1",
			"uri":"u2metal1.jpg"
		},
		{
			"mimeType":"image/jpeg",
			"name":"u2red",
			"uri":"u2red.jpg"
		}
	],
	"accessors":[
		{
			"bufferView":0,
			"componentType":5126,
			"count":172,
			"max":[
				-11.565500259399414,
				-20.359100341796875,
				-2.3094699382781982
			],
			"min":[
				-14.988499641418457,
				-31.322200775146484,
				-10.055299758911133
			],
			"type":"VEC3"
		},
		{
			"bufferView":1,
			"componentType":5126,
			"count":172,
			"type":"VEC3"
		},
		{
			"bufferView":2,
			"componentType":5126,
			"count":172,
			"type":"VEC2"
		},
		{
			"bufferView":3,
			"componentType":5123,
			"count":258,
			"type":"SCALAR"
		},
		{
			"bufferView":4,
			"componentType":5126,
			"count":408,
			"max":[
				-11.565500259399414,
				-20.359100341796875,
				-2.3094699382781982
			],
			"min":[
				-14.988499641418457,
				-31.322200775146484,
				-10.055299758911133
			],
			"type":"VEC3"
		},
		{
			"bufferView":5,
			"componentType":5126,
			"count":408,
			"type":"VEC3"
		},
		{
			"bufferView":6,
			"componentType":5126,
			"count":408,
			"type":"VEC2"
		},
		{
			"bufferView":7,
			"componentType":5123,
			"count":606,
			"type":"SCALAR"
		},
		{
			"bufferView":8,
			"componentType":5126,
			"count":582,
			"max":[
				-11.295299530029297,
				-20.01059913635254,
				-4.056049823760986
			],
			"min":[
				-15.281499862670898,
				-31.657100677490234,
				-10.330400466918945
			],
			"type":"VEC3"
		},
		{
			"bufferView":9,
			"componentType":5126,
			"count":582,
			"type":"VEC3"
		},
		{
			"bufferView":10,
			"componentType":5126,
			"count":582,
			"type":"VEC2"
		},
		{
			"bufferView":11,
			"componentType":5123,
			"count":1362,
			"type":"SCALAR"
		},
		{
			"bufferView":12,
			"componentType":5126,
			"count":382,
			"max":[
				-11.406000137329102,
				-20.199499130249023,
				-3.497620105743408
			],
			"min":[
				-15.14799976348877,
				-31.481700897216797,
				-9.744759559631348
			],
			"type":"VEC3"
		},
		{
			"bufferView":13,
			"componentType":5126,
			"count":382,
			"type":"VEC3"
		},
		{
			"bufferView":14,
			"componentType":5126,
			"count":382,
			"type":"VEC2"
		},
		{
			"bufferView":15,
			"componentType":5123,
			"count":570,
			"type":"SCALAR"
		},
		{
			"bufferView":16,
			"componentType":5126,
			"count":5820,
			"max":[
				-11.38129997253418,
				-20.174800872802734,
				-1.7252600193023682
			],
			"min":[
				-15.172699928283691,
				-31.506399154663086,
				-10.19379997253418
			],
			"type":"VEC3"
		},
		{
			"bufferView":17,
			"componentType":5126,
			"count":5820,
			"type":"VEC3"
		},
		{
			"bufferView":18,
			"componentType":5126,
			"count":5820,
			"type":"VEC2"
		},
		{
			"bufferView":19,
			"componentType":5123,
			"count":10680,
			"type":"SCALAR"
		},
		{
			"bufferView":20,
			"componentType":5126,
			"count":640,
			"max":[
				-11.38129997253418,
				-20.174800872802734,
				-1.7252600193023682
			],
			"min":[
				-15.172699928283691,
				-31.506399154663086,
				-10.10789966583252
			],
			"type":"VEC3"
		},
		{
			"bufferView":21,
			"componentType":5126,
			"count":640,
			"type":"VEC3"
		},
		{
			"bufferView":22,
			"componentType":5126,
			"count":640,
			"type":"VEC2"
		},
		{
			"bufferView":23,
			"componentType":5123,
			"count":960,
			"type":"SCALAR"
		},
		{
			"bufferView":24,
			"componentType":5126,
			"count":33,
			"max":[
				-12.3100004196167,
				-21.895599365234375,
				-10.308899879455566
			],
			"min":[
				-12.516799926757812,
				-22.10540008544922,
				-10.519700050354004
			],
			"type":"VEC3"
		},
		{
			"bufferView":25,
			"componentType":5126,
			"count":33,
			"type":"VEC3"
		},
		{
			"bufferView":26,
			"componentType":5126,
			"count":33,
			"type":"VEC2"
		},
		{
			"bufferView":27,
			"componentType":5123,
			"count":54,
			"type":"SCALAR"
		},
		{
			"bufferView":28,
			"componentType":5126,
			"count":262,
			"max":[
				-12.293999671936035,
				-21.8794002532959,
				-10.261300086975098
			],
			"min":[
				-13.637200355529785,
				-22.45490074157715,
				-11.025500297546387
			],
			"type":"VEC3"
		},
		{
			"bufferView":29,
			"componentType":5126,
			"count":262,
			"type":"VEC3"
		},
		{
			"bufferView":30,
			"componentType":5126,
			"count":262,
			"type":"VEC2"
		},
		{
			"bufferView":31,
			"componentType":5123,
			"count":582,
			"type":"SCALAR"
		},
		{
			"bufferView":32,
			"componentType":5126,
			"count":76,
			"max":[
				-12.340999603271484,
				-21.25,
				-10.400199890136719
			],
			"min":[
				-13.6850004196167,
				-23.50160026550293,
				-10.512200355529785
			],
			"type":"VEC3"
		},
		{
			"bufferView":33,
			"componentType":5126,
			"count":76,
			"type":"VEC3"
		},
		{
			"bufferView":34,
			"componentType":5126,
			"count":76,
			"type":"VEC2"
		},
		{
			"bufferView":35,
			"componentType":5123,
			"count":96,
			"type":"SCALAR"
		},
		{
			"bufferView":36,
			"componentType":5126,
			"count":120,
			"max":[
				-12.297300338745117,
				-21.206199645996094,
				-10.27929973602295
			],
			"min":[
				-13.710000038146973,
				-23.545299530029297,
				-10.341899871826172
			],
			"type":"VEC3"
		},
		{
			"bufferView":37,
			"componentType":5126,
			"count":120,
			"type":"VEC3"
		},
		{
			"bufferView":38,
			"componentType":5126,
			"count":120,
			"type":"VEC2"
		},
		{
			"bufferView":39,
			"componentType":5123,
			"count":192,
			"type":"SCALAR"
		},
		{
			"bufferView":40,
			"componentType":5126,
			"count":573,
			"max":[
				-12.320300102233887,
				-21.229299545288086,
				-10.341899871826172
			],
			"min":[
				-13.699899673461914,
				-23.522300720214844,
				-10.526800155639648
			],
			"type":"VEC3"
		},
		{
			"bufferView":41,
			"componentType":5126,
			"count":573,
			"type":"VEC3"
		},
		{
			"bufferView":42,
			"componentType":5126,
			"count":573,
			"type":"VEC2"
		},
		{
			"bufferView":43,
			"componentType":5123,
			"count":1008,
			"type":"SCALAR"
		},
		{
			"bufferView":44,
			"componentType":5126,
			"count":838,
			"max":[
				-11.77810001373291,
				-21.057899475097656,
				-10.281499862670898
			],
			"min":[
				-14.785499572753906,
				-24.061800003051758,
				-10.559800148010254
			],
			"type":"VEC3"
		},
		{
			"bufferView":45,
			"componentType":5126,
			"count":838,
			"type":"VEC3"
		},
		{
			"bufferView":46,
			"componentType":5126,
			"count":838,
			"type":"VEC2"
		},
		{
			"bufferView":47,
			"componentType":5123,
			"count":1248,
			"type":"SCALAR"
		},
		{
			"bufferView":48,
			"componentType":5126,
			"count":19,
			"max":[
				-11.109600067138672,
				-19.92259979248047,
				-0.348239004611969
			],
			"min":[
				-15.43179988861084,
				-31.716299057006836,
				-1.8783600330352783
			],
			"type":"VEC3"
		},
		{
			"bufferView":49,
			"componentType":5126,
			"count":19,
			"type":"VEC3"
		},
		{
			"bufferView":50,
			"componentType":5126,
			"count":19,
			"type":"VEC2"
		},
		{
			"bufferView":51,
			"componentType":5123,
			"count":30,
			"type":"SCALAR"
		}
	],
	"bufferViews":[
		{
			"buffer":0,
			"byteLength":2064,
			"byteOffset":0,
			"target":34962
		},
		{
			"buffer":0,
			"byteLength":2064,
			"byteOffset":2064,
			"target":34962
		},
		{
			"buffer":0,
			"byteLength":1376,
			"byteOffset":4128,
			"target":34962
		},
		{
			"buffer":0,
			"byteLength":516,
			"byteOffset":5504,
			"target":34963
		},
		{
			"buffer":0,
			"byteLength":4896,
			"byteOffset":6020,
			"target":34962
		},
		{
			"buffer":0,
			"byteLength":4896,
			"byteOffset":10916,
			"target":34962
		},
		{
			"buffer":0,
			"byteLength":3264,
			"byteOffset":15812,
			"target":34962
		},
		{
			"buffer":0,
			"byteLength":1212,
			"byteOffset":19076,
			"target":34963
		},
		{
			"buffer":0,
			"byteLength":6984,
			"byteOffset":20288,
			"target":34962
		},
		{
			"buffer":0,
			"byteLength":6984,
			"byteOffset":27272,
			"target":34962
		},
		{
			"buffer":0,
			"byteLength":4656,
			"byteOffset":34256,
			"target":34962
		},
		{
			"buffer":0,
			"byteLength":2724,
			"byteOffset":38912,
			"target":34963
		},
		{
			"buffer":0,
			"byteLength":4584,
			"byteOffset":41636,
			"target":34962
		},
		{
			"buffer":0,
			"byteLength":4584,
			"byteOffset":46220,
			"target":34962
		},
		{
			"buffer":0,
			"byteLength":3056,
			"byteOffset":50804,
			"target":34962
		},
		{
			"buffer":0,
			"byteLength":1140,
			"byteOffset":53860,
			"target":34963
		},
		{
			"buffer":0,
			"byteLength":69840,
			"byteOffset":55000,
			"target":34962
		},
		{
			"buffer":0,
			"byteLength":69840,
			"byteOffset":124840,
			"target":34962
		},
		{
			"buffer":0,
			"byteLength":46560,
			"byteOffset":194680,
			"target":34962
		},
		{
			"buffer":0,
			"byteLength":21360,
			"byteOffset":241240,
			"target":34963
		},
		{
			"buffer":0,
			"byteLength":7680,
			"byteOffset":262600,
			"target":34962
		},
		{
			"buffer":0,
			"byteLength":7680,
			"byteOffset":270280,
			"target":34962
		},
		{
			"buffer":0,
			"byteLength":5120,
			"byteOffset":277960,
			"target":34962
		},
		{
			"buffer":0,
			"byteLength":1920,
			"byteOffset":283080,
			"target":34963
		},
		{
			"buffer":0,
			"byteLength":396,
			"byteOffset":285000,
			"target":34962
		},
		{
			"buffer":0,
			"byteLength":396,
			"byteOffset":285396,
			"target":34962
		},
		{
			"buffer":0,
			"byteLength":264,
			"byteOffset":285792,
			"target":34962
		},
		{
			"buffer":0,
			"byteLength":108,
			"byteOffset":286056,
			"target":34963
		},
		{
			"buffer":0,
			"byteLength":3144,
			"byteOffset":286164,
			"target":34962
		},
		{
			"buffer":0,
			"byteLength":3144,
			"byteOffset":289308,
			"target":34962
		},
		{
			"buffer":0,
			"byteLength":2096,
			"byteOffset":292452,
			"target":34962
		},
		{
			"buffer":0,
			"byteLength":1164,
			"byteOffset":294548,
			"target":34963
		},
		{
			"buffer":0,
			"byteLength":912,
			"byteOffset":295712,
			"target":34962
		},
		{
			"buffer":0,
			"byteLength":912,
			"byteOffset":296624,
			"target":34962
		},
		{
			"buffer":0,
			"byteLength":608,
			"byteOffset":297536,
			"target":34962
		},
		{
			"buffer":0,
			"byteLength":192,
			"byteOffset":298144,
			"target":34963
		},
		{
			"buffer":0,
			"byteLength":1440,
			"byteOffset":298336,
			"target":34962
		},
		{
			"buffer":0,
			"byteLength":1440,
			"byteOffset":299776,
			"target":34962
		},
		{
			"buffer":0,
			"byteLength":960,
			"byteOffset":301216,
			"target":34962
		},
		{
			"buffer":0,
			"byteLength":384,
			"byteOffset":302176,
			"target":34963
		},
		{
			"buffer":0,
			"byteLength":6876,
			"byteOffset":302560,
			"target":34962
		},
		{
			"buffer":0,
			"byteLength":6876,
			"byteOffset":309436,
			"target":34962
		},
		{
			"buffer":0,
			"byteLength":4584,
			"byteOffset":316312,
			"target":34962
		},
		{
			"buffer":0,
			"byteLength":2016,
			"byteOffset":320896,
			"target":34963
		},
		{
			"buffer":0,
			"byteLength":10056,
			"byteOffset":322912,
			"target":34962
		},
		{
			"buffer":0,
			"byteLength":10056,
			"byteOffset":332968,
			"target":34962
		},
		{
			"buffer":0,
			"byteLength":6704,
			"byteOffset":343024,
			"target":34962
		},
		{
			"buffer":0,
			"byteLength":2496,
			"byteOffset":349728,
			"target":34963
		},
		{
			"buffer":0,
			"byteLength":228,
			"byteOffset":352224,
			"target":34962
		},
		{
			"buffer":0,
			"byteLength":228,
			"byteOffset":352452,
			"target":34962
		},
		{
			"buffer":0,
			"byteLength":152,
			"byteOffset":352680,
			"target":34962
		},
		{
			"buffer":0,
			"byteLength":60,
			"byteOffset":352832,
			"target":34963
		}
	],
	"samplers":[
		{
			"magFilter":9729,
			"minFilter":9987
		}
	],
	"buffers":[
		{
			"byteLength":352892,
			"uri":"u2NWBuild9.bin"
		}
	]
}
