{
	"asset":{
		"generator":"Khronos glTF Blender I/O v5.0.21",
		"version":"2.0"
	},
	"extensionsUsed":[
		"KHR_materials_specular",
		"KHR_materials_ior"
	],
	"scene":0,
	"scenes":[
		{
			"name":"Scene",
			"nodes":[
				0
			]
		}
	],
	"nodes":[
		{
			"mesh":0,
			"name":"u2NWBuild12",
			"rotation":[
				0.70710688829422,
				0,
				0,
				0.7071066498756409
			]
		}
	],
	"materials":[
		{
			"doubleSided":true,
			"extensions":{
				"KHR_materials_specular":{
					"specularColorFactor":[
						0.04800000041723251,
						0.04800000041723251,
						0.04800000041723251
					]
				},
				"KHR_materials_ior":{
					"ior":0
				}
			},
			"name":"Concrete2_u2NWBuild12_1",
			"pbrMetallicRoughness":{
				"baseColorTexture":{
					"index":0
				},
				"metallicFactor":0,
				"roughnessFactor":0.9687750339508057
			}
		},
		{
			"doubleSided":true,
			"extensions":{
				"KHR_materials_specular":{
					"specularColorFactor":[
						0.04800000041723251,
						0.04800000041723251,
						0.04800000041723251
					]
				},
				"KHR_materials_ior":{
					"ior":0
				}
			},
			"name":"Props1_u2NWBuild12_1",
			"pbrMetallicRoughness":{
				"baseColorTexture":{
					"index":1
				},
				"metallicFactor":0,
				"roughnessFactor":0.9685357213020325
			}
		},
		{
			"doubleSided":true,
			"extensions":{
				"KHR_materials_specular":{
					"specularColorFactor":[
						0.04800000041723251,
						0.04800000041723251,
						0.04800000041723251
					]
				},
				"KHR_materials_ior":{
					"ior":0
				}
			},
			"name":"WindowE_u2NWBuild12_1",
			"pbrMetallicRoughness":{
				"baseColorTexture":{
					"index":2
				},
				"metallicFactor":0,
				"roughnessFactor":0.9691779017448425
			}
		},
		{
			"doubleSided":true,
			"extensions":{
				"KHR_materials_specular":{
					"specularColorFactor":[
						0.04800000041723251,
						0.04800000041723251,
						0.04800000041723251
					]
				},
				"KHR_materials_ior":{
					"ior":0
				}
			},
			"name":"Facade_u2NWBuild12_1",
			"pbrMetallicRoughness":{
				"baseColorTexture":{
					"index":3
				},
				"metallicFactor":0,
				"roughnessFactor":0.9687750339508057
			}
		},
		{
			"doubleSided":true,
			"extensions":{
				"KHR_materials_specular":{
					"specularColorFactor":[
						0.04800000041723251,
						0.04800000041723251,
						0.04800000041723251
					]
				},
				"KHR_materials_ior":{
					"ior":0
				}
			},
			"name":"WindowsK_u2NWBuild12_1",
			"pbrMetallicRoughness":{
				"baseColorTexture":{
					"index":4
				},
				"metallicFactor":0,
				"roughnessFactor":0.9691779017448425
			}
		},
		{
			"doubleSided":true,
			"extensions":{
				"KHR_materials_specular":{
					"specularColorFactor":[
						0.04800000041723251,
						0.04800000041723251,
						0.04800000041723251
					]
				},
				"KHR_materials_ior":{
					"ior":0
				}
			},
			"name":"WindowsJ_u2NWBuild12_1",
			"pbrMetallicRoughness":{
				"baseColorTexture":{
					"index":5
				},
				"metallicFactor":0,
				"roughnessFactor":0.9691779017448425
			}
		},
		{
			"doubleSided":true,
			"extensions":{
				"KHR_materials_specular":{
					"specularColorFactor":[
						0.04800000041723251,
						0.04800000041723251,
						0.04800000041723251
					]
				},
				"KHR_materials_ior":{
					"ior":0
				}
			},
			"name":"Concrete_u2NWBuild12_1",
			"pbrMetallicRoughness":{
				"baseColorTexture":{
					"index":6
				},
				"metallicFactor":0,
				"roughnessFactor":0.9687750339508057
			}
		},
		{
			"doubleSided":true,
			"extensions":{
				"KHR_materials_specular":{
					"specularColorFactor":[
						0.04800000041723251,
						0.04800000041723251,
						0.04800000041723251
					]
				},
				"KHR_materials_ior":{
					"ior":0
				}
			},
			"name":"Brick3_u2NWBuild12_1",
			"pbrMetallicRoughness":{
				"baseColorTexture":{
					"index":7
				},
				"metallicFactor":0,
				"roughnessFactor":0.9687750339508057
			}
		},
		{
			"doubleSided":true,
			"extensions":{
				"KHR_materials_specular":{
					"specularColorFactor":[
						0.04800000041723251,
						0.04800000041723251,
						0.04800000041723251
					]
				},
				"KHR_materials_ior":{
					"ior":0
				}
			},
			"name":"RooftopProps_u2NWBuild12_1",
			"pbrMetallicRoughness":{
				"baseColorTexture":{
					"index":8
				},
				"metallicFactor":0,
				"roughnessFactor":0.9685357213020325
			}
		},
		{
			"doubleSided":true,
			"extensions":{
				"KHR_materials_specular":{
					"specularColorFactor":[
						0.04800000041723251,
						0.04800000041723251,
						0.04800000041723251
					]
				},
				"KHR_materials_ior":{
					"ior":0
				}
			},
			"name":"Doors_u2NWBuild12_1",
			"pbrMetallicRoughness":{
				"baseColorTexture":{
					"index":9
				},
				"metallicFactor":0,
				"roughnessFactor":0.9691779017448425
			}
		},
		{
			"doubleSided":true,
			"extensions":{
				"KHR_materials_specular":{
					"specularColorFactor":[
						0.04800000041723251,
						0.04800000041723251,
						0.04800000041723251
					]
				},
				"KHR_materials_ior":{
					"ior":0
				}
			},
			"name":"PlyWood_u2NWBuild12_1",
			"pbrMetallicRoughness":{
				"baseColorTexture":{
					"index":10
				},
				"metallicFactor":0,
				"roughnessFactor":0.9691779017448425
			}
		},
		{
			"doubleSided":true,
			"extensions":{
				"KHR_materials_specular":{
					"specularColorFactor":[
						0.04800000041723251,
						0.04800000041723251,
						0.04800000041723251
					]
				},
				"KHR_materials_ior":{
					"ior":0
				}
			},
			"name":"Rollup_u2NWBuild12_1",
			"pbrMetallicRoughness":{
				"baseColorTexture":{
					"index":11
				},
				"metallicFactor":0,
				"roughnessFactor":0.9693813920021057
			}
		},
		{
			"doubleSided":true,
			"extensions":{
				"KHR_materials_specular":{
					"specularColorFactor":[
						0.04800000041723251,
						0.04800000041723251,
						0.04800000041723251
					]
				},
				"KHR_materials_ior":{
					"ior":0
				}
			},
			"name":"Metalgrey_u2NWBuild12_1",
			"pbrMetallicRoughness":{
				"baseColorTexture":{
					"index":12
				},
				"metallicFactor":0,
				"roughnessFactor":0.9687750339508057
			}
		}
	],
	"meshes":[
		{
			"name":"Urban Sprawl 2.027",
			"primitives":[
				{
					"attributes":{
						"POSITION":0,
						"NORMAL":1,
						"TEXCOORD_0":2
					},
					"indices":3,
					"material":0
				},
				{
					"attributes":{
						"POSITION":4,
						"NORMAL":5,
						"TEXCOORD_0":6
					},
					"indices":7,
					"material":1
				},
				{
					"attributes":{
						"POSITION":8,
						"NORMAL":9,
						"TEXCOORD_0":10
					},
					"indices":11,
					"material":2
				},
				{
					"attributes":{
						"POSITION":12,
						"NORMAL":13,
						"TEXCOORD_0":14
					},
					"indices":15,
					"material":3
				},
				{
					"attributes":{
						"POSITION":16,
						"NORMAL":17,
						"TEXCOORD_0":18
					},
					"indices":19,
					"material":4
				},
				{
					"attributes":{
						"POSITION":20,
						"NORMAL":21,
						"TEXCOORD_0":22
					},
					"indices":23,
					"material":5
				},
				{
					"attributes":{
						"POSITION":24,
						"NORMAL":25,
						"TEXCOORD_0":26
					},
					"indices":27,
					"material":6
				},
				{
					"attributes":{
						"POSITION":28,
						"NORMAL":29,
						"TEXCOORD_0":30
					},
					"indices":31,
					"material":7
				},
				{
					"attributes":{
						"POSITION":32,
						"NORMAL":33,
						"TEXCOORD_0":34
					},
					"indices":35,
					"material":8
				},
				{
					"attributes":{
						"POSITION":36,
						"NORMAL":37,
						"TEXCOORD_0":38
					},
					"indices":39,
					"material":9
				},
				{
					"attributes":{
						"POSITION":40,
						"NORMAL":41,
						"TEXCOORD_0":42
					},
					"indices":43,
					"material":10
				},
				{
					"attributes":{
						"POSITION":44,
						"NORMAL":45,
						"TEXCOORD_0":46
					},
					"indices":47,
					"material":11
				},
				{
					"attributes":{
						"POSITION":48,
						"NORMAL":49,
						"TEXCOORD_0":50
					},
					"indices":51,
					"material":12
				}
			]
		}
	],
	"textures":[
		{
			"sampler":0,
			"source":0
		},
		{
			"sampler":0,
			"source":1
		},
		{
			"sampler":0,
			"source":2
		},
		{
			"sampler":0,
			"source":3
		},
		{
			"sampler":0,
			"source":4
		},
		{
			"sampler":0,
			"source":4
		},
		{
			"sampler":0,
			"source":5
		},
		{
			"sampler":0,
			"source":6
		},
		{
			"sampler":0,
			"source":7
		},
		{
			"sampler":0,
			"source":8
		},
		{
			"sampler":0,
			"source":9
		},
		{
			"sampler":0,
			"source":10
		},
		{
			"sampler":0,
			"source":11
		}
	],
	"images":[
		{
			"mimeType":"image/jpeg",
			"name":"u2crete2",
			"uri":"u2crete2.jpg"
		},
		{
			"mimeType":"image/jpeg",
			"name":"u2props1",
			"uri":"u2props1.jpg"
		},
		{
			"mimeType":"image/jpeg",
			"name":"u2win3",
			"uri":"u2win3.jpg"
		},
		{
			"mimeType":"image/jpeg",
			"name":"u2brick9",
			"uri":"u2brick9.jpg"
		},
		{
			"mimeType":"image/jpeg",
			"name":"u2nebldg4",
			"uri":"u2nebldg4.jpg"
		},
		{
			"mimeType":"image/jpeg",
			"name":"u2pave4",
			"uri":"u2pave4.jpg"
		},
		{
			"mimeType":"image/jpeg",
			"name":"Bricks",
			"uri":"Bricks.jpg"
		},
		{
			"mimeType":"image/jpeg",
			"name":"u2props4",
			"uri":"u2props4.jpg"
		},
		{
			"mimeType":"image/jpeg",
			"name":"u2doors1",
			"uri":"u2doors1.jpg"
		},
		{
			"mimeType":"image/jpeg",
			"name":"u2ply",
			"uri":"u2ply.jpg"
		},
		{
			"mimeType":"image/jpeg",
			"name":"u2rollup1",
			"uri":"u2rollup1.jpg"
		},
		{
			"mimeType":"image/jpeg",
			"name":"u2metal1",
			"uri":"u2metal1.jpg"
		}
	],
	"accessors":[
		{
			"bufferView":0,
			"componentType":5126,
			"count":599,
			"max":[
				-52.61629867553711,
				-16.22559928894043,
				0.17594900727272034
			],
			"min":[
				-57.549598693847656,
				-28.03499984741211,
				-20.191299438476562
			],
			"type":"VEC3"
		},
		{
			"bufferView":1,
			"componentType":5126,
			"count":599,
			"type":"VEC3"
		},
		{
			"bufferView":2,
			"componentType":5126,
			"count":599,
			"type":"VEC2"
		},
		{
			"bufferView":3,
			"componentType":5123,
			"count":1056,
			"type":"SCALAR"
		},
		{
			"bufferView":4,
			"componentType":5126,
			"count":1952,
			"max":[
				-52.65140151977539,
				-16.257099151611328,
				-0.5541430115699768
			],
			"min":[
				-57.53990173339844,
				-27.9822998046875,
				-19.177200317382812
			],
			"type":"VEC3"
		},
		{
			"bufferView":5,
			"componentType":5126,
			"count":1952,
			"type":"VEC3"
		},
		{
			"bufferView":6,
			"componentType":5126,
			"count":1952,
			"type":"VEC2"
		},
		{
			"bufferView":7,
			"componentType":5123,
			"count":2670,
			"type":"SCALAR"
		},
		{
			"bufferView":8,
			"componentType":5126,
			"count":60,
			"max":[
				-53.06990051269531,
				-16.319000244140625,
				-3.269659996032715
			],
			"min":[
				-56.85279846191406,
				-27.920400619506836,
				-18.35930061340332
			],
			"type":"VEC3"
		},
		{
			"bufferView":9,
			"componentType":5126,
			"count":60,
			"type":"VEC3"
		},
		{
			"bufferView":10,
			"componentType":5126,
			"count":60,
			"type":"VEC2"
		},
		{
			"bufferView":11,
			"componentType":5123,
			"count":90,
			"type":"SCALAR"
		},
		{
			"bufferView":12,
			"componentType":5126,
			"count":1079,
			"max":[
				-53.032901763916016,
				-16.298999786376953,
				-0.39080798625946045
			],
			"min":[
				-57.53020095825195,
				-27.94029998779297,
				-18.396400451660156
			],
			"type":"VEC3"
		},
		{
			"bufferView":13,
			"componentType":5126,
			"count":1079,
			"type":"VEC3"
		},
		{
			"bufferView":14,
			"componentType":5126,
			"count":1079,
			"type":"VEC2"
		},
		{
			"bufferView":15,
			"componentType":5123,
			"count":1728,
			"type":"SCALAR"
		},
		{
			"bufferView":16,
			"componentType":5126,
			"count":372,
			"max":[
				-52.757598876953125,
				-16.73509979248047,
				-2.2931599617004395
			],
			"min":[
				-57.427799224853516,
				-27.521099090576172,
				-19.598899841308594
			],
			"type":"VEC3"
		},
		{
			"bufferView":17,
			"componentType":5126,
			"count":372,
			"type":"VEC3"
		},
		{
			"bufferView":18,
			"componentType":5126,
			"count":372,
			"type":"VEC2"
		},
		{
			"bufferView":19,
			"componentType":5123,
			"count":558,
			"type":"SCALAR"
		},
		{
			"bufferView":20,
			"componentType":5126,
			"count":588,
			"max":[
				-52.757598876953125,
				-16.73509979248047,
				-2.2931599617004395
			],
			"min":[
				-57.427799224853516,
				-27.521099090576172,
				-19.598899841308594
			],
			"type":"VEC3"
		},
		{
			"bufferView":21,
			"componentType":5126,
			"count":588,
			"type":"VEC3"
		},
		{
			"bufferView":22,
			"componentType":5126,
			"count":588,
			"type":"VEC2"
		},
		{
			"bufferView":23,
			"componentType":5123,
			"count":882,
			"type":"SCALAR"
		},
		{
			"bufferView":24,
			"componentType":5126,
			"count":145,
			"max":[
				-52.61629867553711,
				-16.22559928894043,
				-0.19557300209999084
			],
			"min":[
				-57.549598693847656,
				-28.03499984741211,
				-20.02280044555664
			],
			"type":"VEC3"
		},
		{
			"bufferView":25,
			"componentType":5126,
			"count":145,
			"type":"VEC3"
		},
		{
			"bufferView":26,
			"componentType":5126,
			"count":145,
			"type":"VEC2"
		},
		{
			"bufferView":27,
			"componentType":5123,
			"count":240,
			"type":"SCALAR"
		},
		{
			"bufferView":28,
			"componentType":5126,
			"count":24,
			"max":[
				-52.63990020751953,
				-16.28219985961914,
				-0.2248300015926361
			],
			"min":[
				-57.364898681640625,
				-27.978500366210938,
				-1.7555899620056152
			],
			"type":"VEC3"
		},
		{
			"bufferView":29,
			"componentType":5126,
			"count":24,
			"type":"VEC3"
		},
		{
			"bufferView":30,
			"componentType":5126,
			"count":24,
			"type":"VEC2"
		},
		{
			"bufferView":31,
			"componentType":5123,
			"count":48,
			"type":"SCALAR"
		},
		{
			"bufferView":32,
			"componentType":5126,
			"count":735,
			"max":[
				-53.512298583984375,
				-17.362600326538086,
				-0.4910010099411011
			],
			"min":[
				-57.48400115966797,
				-25.180999755859375,
				-20.200899124145508
			],
			"type":"VEC3"
		},
		{
			"bufferView":33,
			"componentType":5126,
			"count":735,
			"type":"VEC3"
		},
		{
			"bufferView":34,
			"componentType":5126,
			"count":735,
			"type":"VEC2"
		},
		{
			"bufferView":35,
			"componentType":5123,
			"count":1398,
			"type":"SCALAR"
		},
		{
			"bufferView":36,
			"componentType":5126,
			"count":4,
			"max":[
				-57.482601165771484,
				-20.938899993896484,
				-0.4925270080566406
			],
			"min":[
				-57.48400115966797,
				-21.351699829101562,
				-1.3775899410247803
			],
			"type":"VEC3"
		},
		{
			"bufferView":37,
			"componentType":5126,
			"count":4,
			"type":"VEC3"
		},
		{
			"bufferView":38,
			"componentType":5126,
			"count":4,
			"type":"VEC2"
		},
		{
			"bufferView":39,
			"componentType":5123,
			"count":6,
			"type":"SCALAR"
		},
		{
			"bufferView":40,
			"componentType":5126,
			"count":172,
			"max":[
				-57.46849822998047,
				-16.93280029296875,
				-0.49935001134872437
			],
			"min":[
				-57.47829818725586,
				-27.235300064086914,
				-1.4238300323486328
			],
			"type":"VEC3"
		},
		{
			"bufferView":41,
			"componentType":5126,
			"count":172,
			"type":"VEC3"
		},
		{
			"bufferView":42,
			"componentType":5126,
			"count":172,
			"type":"VEC2"
		},
		{
			"bufferView":43,
			"componentType":5123,
			"count":210,
			"type":"SCALAR"
		},
		{
			"bufferView":44,
			"componentType":5126,
			"count":24,
			"max":[
				-57.38600158691406,
				-17.000999450683594,
				-0.47129499912261963
			],
			"min":[
				-57.38600158691406,
				-27.13789939880371,
				-1.51364004611969
			],
			"type":"VEC3"
		},
		{
			"bufferView":45,
			"componentType":5126,
			"count":24,
			"type":"VEC3"
		},
		{
			"bufferView":46,
			"componentType":5126,
			"count":24,
			"type":"VEC2"
		},
		{
			"bufferView":47,
			"componentType":5123,
			"count":36,
			"type":"SCALAR"
		},
		{
			"bufferView":48,
			"componentType":5126,
			"count":524,
			"max":[
				-57.38600158691406,
				-16.984699249267578,
				-0.4549809992313385
			],
			"min":[
				-57.53630065917969,
				-27.158199310302734,
				-1.5299500226974487
			],
			"type":"VEC3"
		},
		{
			"bufferView":49,
			"componentType":5126,
			"count":524,
			"type":"VEC3"
		},
		{
			"bufferView":50,
			"componentType":5126,
			"count":524,
			"type":"VEC2"
		},
		{
			"bufferView":51,
			"componentType":5123,
			"count":936,
			"type":"SCALAR"
		}
	],
	"bufferViews":[
		{
			"buffer":0,
			"byteLength":7188,
			"byteOffset":0,
			"target":34962
		},
		{
			"buffer":0,
			"byteLength":7188,
			"byteOffset":7188,
			"target":34962
		},
		{
			"buffer":0,
			"byteLength":4792,
			"byteOffset":14376,
			"target":34962
		},
		{
			"buffer":0,
			"byteLength":2112,
			"byteOffset":19168,
			"target":34963
		},
		{
			"buffer":0,
			"byteLength":23424,
			"byteOffset":21280,
			"target":34962
		},
		{
			"buffer":0,
			"byteLength":23424,
			"byteOffset":44704,
			"target":34962
		},
		{
			"buffer":0,
			"byteLength":15616,
			"byteOffset":68128,
			"target":34962
		},
		{
			"buffer":0,
			"byteLength":5340,
			"byteOffset":83744,
			"target":34963
		},
		{
			"buffer":0,
			"byteLength":720,
			"byteOffset":89084,
			"target":34962
		},
		{
			"buffer":0,
			"byteLength":720,
			"byteOffset":89804,
			"target":34962
		},
		{
			"buffer":0,
			"byteLength":480,
			"byteOffset":90524,
			"target":34962
		},
		{
			"buffer":0,
			"byteLength":180,
			"byteOffset":91004,
			"target":34963
		},
		{
			"buffer":0,
			"byteLength":12948,
			"byteOffset":91184,
			"target":34962
		},
		{
			"buffer":0,
			"byteLength":12948,
			"byteOffset":104132,
			"target":34962
		},
		{
			"buffer":0,
			"byteLength":8632,
			"byteOffset":117080,
			"target":34962
		},
		{
			"buffer":0,
			"byteLength":3456,
			"byteOffset":125712,
			"target":34963
		},
		{
			"buffer":0,
			"byteLength":4464,
			"byteOffset":129168,
			"target":34962
		},
		{
			"buffer":0,
			"byteLength":4464,
			"byteOffset":133632,
			"target":34962
		},
		{
			"buffer":0,
			"byteLength":2976,
			"byteOffset":138096,
			"target":34962
		},
		{
			"buffer":0,
			"byteLength":1116,
			"byteOffset":141072,
			"target":34963
		},
		{
			"buffer":0,
			"byteLength":7056,
			"byteOffset":142188,
			"target":34962
		},
		{
			"buffer":0,
			"byteLength":7056,
			"byteOffset":149244,
			"target":34962
		},
		{
			"buffer":0,
			"byteLength":4704,
			"byteOffset":156300,
			"target":34962
		},
		{
			"buffer":0,
			"byteLength":1764,
			"byteOffset":161004,
			"target":34963
		},
		{
			"buffer":0,
			"byteLength":1740,
			"byteOffset":162768,
			"target":34962
		},
		{
			"buffer":0,
			"byteLength":1740,
			"byteOffset":164508,
			"target":34962
		},
		{
			"buffer":0,
			"byteLength":1160,
			"byteOffset":166248,
			"target":34962
		},
		{
			"buffer":0,
			"byteLength":480,
			"byteOffset":167408,
			"target":34963
		},
		{
			"buffer":0,
			"byteLength":288,
			"byteOffset":167888,
			"target":34962
		},
		{
			"buffer":0,
			"byteLength":288,
			"byteOffset":168176,
			"target":34962
		},
		{
			"buffer":0,
			"byteLength":192,
			"byteOffset":168464,
			"target":34962
		},
		{
			"buffer":0,
			"byteLength":96,
			"byteOffset":168656,
			"target":34963
		},
		{
			"buffer":0,
			"byteLength":8820,
			"byteOffset":168752,
			"target":34962
		},
		{
			"buffer":0,
			"byteLength":8820,
			"byteOffset":177572,
			"target":34962
		},
		{
			"buffer":0,
			"byteLength":5880,
			"byteOffset":186392,
			"target":34962
		},
		{
			"buffer":0,
			"byteLength":2796,
			"byteOffset":192272,
			"target":34963
		},
		{
			"buffer":0,
			"byteLength":48,
			"byteOffset":195068,
			"target":34962
		},
		{
			"buffer":0,
			"byteLength":48,
			"byteOffset":195116,
			"target":34962
		},
		{
			"buffer":0,
			"byteLength":32,
			"byteOffset":195164,
			"target":34962
		},
		{
			"buffer":0,
			"byteLength":12,
			"byteOffset":195196,
			"target":34963
		},
		{
			"buffer":0,
			"byteLength":2064,
			"byteOffset":195208,
			"target":34962
		},
		{
			"buffer":0,
			"byteLength":2064,
			"byteOffset":197272,
			"target":34962
		},
		{
			"buffer":0,
			"byteLength":1376,
			"byteOffset":199336,
			"target":34962
		},
		{
			"buffer":0,
			"byteLength":420,
			"byteOffset":200712,
			"target":34963
		},
		{
			"buffer":0,
			"byteLength":288,
			"byteOffset":201132,
			"target":34962
		},
		{
			"buffer":0,
			"byteLength":288,
			"byteOffset":201420,
			"target":34962
		},
		{
			"buffer":0,
			"byteLength":192,
			"byteOffset":201708,
			"target":34962
		},
		{
			"buffer":0,
			"byteLength":72,
			"byteOffset":201900,
			"target":34963
		},
		{
			"buffer":0,
			"byteLength":6288,
			"byteOffset":201972,
			"target":34962
		},
		{
			"buffer":0,
			"byteLength":6288,
			"byteOffset":208260,
			"target":34962
		},
		{
			"buffer":0,
			"byteLength":4192,
			"byteOffset":214548,
			"target":34962
		},
		{
			"buffer":0,
			"byteLength":1872,
			"byteOffset":218740,
			"target":34963
		}
	],
	"samplers":[
		{
			"magFilter":9729,
			"minFilter":9987
		}
	],
	"buffers":[
		{
			"byteLength":220612,
			"uri":"u2NWBuild12.bin"
		}
	]
}
