{
	"asset":{
		"generator":"Khronos glTF Blender I/O v5.0.21",
		"version":"2.0"
	},
	"extensionsUsed":[
		"KHR_materials_specular",
		"KHR_materials_ior"
	],
	"scene":0,
	"scenes":[
		{
			"name":"Scene",
			"nodes":[
				0
			]
		}
	],
	"nodes":[
		{
			"mesh":0,
			"name":"u2NWBuild2",
			"rotation":[
				0.70710688829422,
				0,
				0,
				0.7071066498756409
			]
		}
	],
	"materials":[
		{
			"doubleSided":true,
			"extensions":{
				"KHR_materials_specular":{
					"specularColorFactor":[
						0.04800000041723251,
						0.04800000041723251,
						0.04800000041723251
					]
				},
				"KHR_materials_ior":{
					"ior":0
				}
			},
			"name":"Concrete2_u2NWBuild2_1",
			"pbrMetallicRoughness":{
				"baseColorTexture":{
					"index":0
				},
				"metallicFactor":0,
				"roughnessFactor":0.9687750339508057
			}
		},
		{
			"doubleSided":true,
			"extensions":{
				"KHR_materials_specular":{
					"specularColorFactor":[
						0.04800000041723251,
						0.04800000041723251,
						0.04800000041723251
					]
				},
				"KHR_materials_ior":{
					"ior":0
				}
			},
			"name":"MetalLight_u2NWBuild2_1",
			"pbrMetallicRoughness":{
				"baseColorTexture":{
					"index":1
				},
				"metallicFactor":0,
				"roughnessFactor":0.9687750339508057
			}
		},
		{
			"doubleSided":true,
			"extensions":{
				"KHR_materials_specular":{
					"specularColorFactor":[
						0.04800000041723251,
						0.04800000041723251,
						0.04800000041723251
					]
				},
				"KHR_materials_ior":{
					"ior":0
				}
			},
			"name":"RooftopProps_u2NWBuild2_1",
			"pbrMetallicRoughness":{
				"baseColorTexture":{
					"index":2
				},
				"metallicFactor":0,
				"roughnessFactor":0.9685357213020325
			}
		},
		{
			"doubleSided":true,
			"extensions":{
				"KHR_materials_specular":{
					"specularColorFactor":[
						0.04800000041723251,
						0.04800000041723251,
						0.04800000041723251
					]
				},
				"KHR_materials_ior":{
					"ior":0
				}
			},
			"name":"MetalDark_u2NWBuild2_1",
			"pbrMetallicRoughness":{
				"baseColorTexture":{
					"index":3
				},
				"metallicFactor":0,
				"roughnessFactor":0.9700000286102295
			}
		}
	],
	"meshes":[
		{
			"name":"Urban Sprawl 2.017",
			"primitives":[
				{
					"attributes":{
						"POSITION":0,
						"NORMAL":1,
						"TEXCOORD_0":2
					},
					"indices":3,
					"material":0
				},
				{
					"attributes":{
						"POSITION":4,
						"NORMAL":5,
						"TEXCOORD_0":6
					},
					"indices":7,
					"material":1
				},
				{
					"attributes":{
						"POSITION":8,
						"NORMAL":9,
						"TEXCOORD_0":10
					},
					"indices":11,
					"material":2
				},
				{
					"attributes":{
						"POSITION":12,
						"NORMAL":13,
						"TEXCOORD_0":14
					},
					"indices":15,
					"material":3
				}
			]
		}
	],
	"textures":[
		{
			"sampler":0,
			"source":0
		},
		{
			"sampler":0,
			"source":1
		},
		{
			"sampler":0,
			"source":2
		},
		{
			"sampler":0,
			"source":3
		}
	],
	"images":[
		{
			"mimeType":"image/jpeg",
			"name":"u2crete2",
			"uri":"u2crete2.jpg"
		},
		{
			"mimeType":"image/jpeg",
			"name":"u2white",
			"uri":"u2white.jpg"
		},
		{
			"mimeType":"image/jpeg",
			"name":"u2props4",
			"uri":"u2props4.jpg"
		},
		{
			"mimeType":"image/jpeg",
			"name":"u2metdark",
			"uri":"u2metdark.jpg"
		}
	],
	"accessors":[
		{
			"bufferView":0,
			"componentType":5126,
			"count":2531,
			"max":[
				-24.653499603271484,
				-20.41349983215332,
				-0.8517869710922241
			],
			"min":[
				-37.5629997253418,
				-33.19260025024414,
				-39.45750045776367
			],
			"type":"VEC3"
		},
		{
			"bufferView":1,
			"componentType":5126,
			"count":2531,
			"type":"VEC3"
		},
		{
			"bufferView":2,
			"componentType":5126,
			"count":2531,
			"type":"VEC2"
		},
		{
			"bufferView":3,
			"componentType":5123,
			"count":3864,
			"type":"SCALAR"
		},
		{
			"bufferView":4,
			"componentType":5126,
			"count":81,
			"max":[
				-30.59119987487793,
				-26.564699172973633,
				-39.296600341796875
			],
			"min":[
				-32.07979965209961,
				-28.180400848388672,
				-39.45560073852539
			],
			"type":"VEC3"
		},
		{
			"bufferView":5,
			"componentType":5126,
			"count":81,
			"type":"VEC3"
		},
		{
			"bufferView":6,
			"componentType":5126,
			"count":81,
			"type":"VEC2"
		},
		{
			"bufferView":7,
			"componentType":5123,
			"count":117,
			"type":"SCALAR"
		},
		{
			"bufferView":8,
			"componentType":5126,
			"count":15218,
			"max":[
				-25.128799438476562,
				-20.86400032043457,
				-16.314599990844727
			],
			"min":[
				-37.232601165771484,
				-32.694400787353516,
				-40.213401794433594
			],
			"type":"VEC3"
		},
		{
			"bufferView":9,
			"componentType":5126,
			"count":15218,
			"type":"VEC3"
		},
		{
			"bufferView":10,
			"componentType":5126,
			"count":15218,
			"type":"VEC2"
		},
		{
			"bufferView":11,
			"componentType":5123,
			"count":21492,
			"type":"SCALAR"
		},
		{
			"bufferView":12,
			"componentType":5126,
			"count":1321,
			"max":[
				-28.02199935913086,
				-21.566999435424805,
				-30.700599670410156
			],
			"min":[
				-35.06570053100586,
				-32.552398681640625,
				-39.7234001159668
			],
			"type":"VEC3"
		},
		{
			"bufferView":13,
			"componentType":5126,
			"count":1321,
			"type":"VEC3"
		},
		{
			"bufferView":14,
			"componentType":5126,
			"count":1321,
			"type":"VEC2"
		},
		{
			"bufferView":15,
			"componentType":5123,
			"count":1893,
			"type":"SCALAR"
		}
	],
	"bufferViews":[
		{
			"buffer":0,
			"byteLength":30372,
			"byteOffset":0,
			"target":34962
		},
		{
			"buffer":0,
			"byteLength":30372,
			"byteOffset":30372,
			"target":34962
		},
		{
			"buffer":0,
			"byteLength":20248,
			"byteOffset":60744,
			"target":34962
		},
		{
			"buffer":0,
			"byteLength":7728,
			"byteOffset":80992,
			"target":34963
		},
		{
			"buffer":0,
			"byteLength":972,
			"byteOffset":88720,
			"target":34962
		},
		{
			"buffer":0,
			"byteLength":972,
			"byteOffset":89692,
			"target":34962
		},
		{
			"buffer":0,
			"byteLength":648,
			"byteOffset":90664,
			"target":34962
		},
		{
			"buffer":0,
			"byteLength":234,
			"byteOffset":91312,
			"target":34963
		},
		{
			"buffer":0,
			"byteLength":182616,
			"byteOffset":91548,
			"target":34962
		},
		{
			"buffer":0,
			"byteLength":182616,
			"byteOffset":274164,
			"target":34962
		},
		{
			"buffer":0,
			"byteLength":121744,
			"byteOffset":456780,
			"target":34962
		},
		{
			"buffer":0,
			"byteLength":42984,
			"byteOffset":578524,
			"target":34963
		},
		{
			"buffer":0,
			"byteLength":15852,
			"byteOffset":621508,
			"target":34962
		},
		{
			"buffer":0,
			"byteLength":15852,
			"byteOffset":637360,
			"target":34962
		},
		{
			"buffer":0,
			"byteLength":10568,
			"byteOffset":653212,
			"target":34962
		},
		{
			"buffer":0,
			"byteLength":3786,
			"byteOffset":663780,
			"target":34963
		}
	],
	"samplers":[
		{
			"magFilter":9729,
			"minFilter":9987
		}
	],
	"buffers":[
		{
			"byteLength":667568,
			"uri":"u2NWBuild2.bin"
		}
	]
}
