{
	"asset":{
		"generator":"Khronos glTF Blender I/O v5.0.21",
		"version":"2.0"
	},
	"extensionsUsed":[
		"KHR_materials_specular",
		"KHR_materials_ior"
	],
	"scene":0,
	"scenes":[
		{
			"name":"Scene",
			"nodes":[
				0
			]
		}
	],
	"nodes":[
		{
			"mesh":0,
			"name":"u2NWBuild7",
			"rotation":[
				0.70710688829422,
				0,
				0,
				0.7071066498756409
			]
		}
	],
	"materials":[
		{
			"doubleSided":true,
			"extensions":{
				"KHR_materials_specular":{
					"specularColorFactor":[
						0.04800000041723251,
						0.04800000041723251,
						0.04800000041723251
					]
				},
				"KHR_materials_ior":{
					"ior":0
				}
			},
			"name":"WindowsA_u2NWBuild7_1",
			"pbrMetallicRoughness":{
				"baseColorTexture":{
					"index":0
				},
				"metallicFactor":0,
				"roughnessFactor":0.9691779017448425
			}
		},
		{
			"doubleSided":true,
			"extensions":{
				"KHR_materials_specular":{
					"specularColorFactor":[
						0.04800000041723251,
						0.04800000041723251,
						0.04800000041723251
					]
				},
				"KHR_materials_ior":{
					"ior":0
				}
			},
			"name":"WindowsB_u2NWBuild7_1",
			"pbrMetallicRoughness":{
				"baseColorTexture":{
					"index":1
				},
				"metallicFactor":0,
				"roughnessFactor":0.9691779017448425
			}
		},
		{
			"doubleSided":true,
			"extensions":{
				"KHR_materials_specular":{
					"specularColorFactor":[
						0.04800000041723251,
						0.04800000041723251,
						0.04800000041723251
					]
				},
				"KHR_materials_ior":{
					"ior":0
				}
			},
			"name":"Concrete2_u2NWBuild7_1",
			"pbrMetallicRoughness":{
				"baseColorTexture":{
					"index":2
				},
				"metallicFactor":0,
				"roughnessFactor":0.9687750339508057
			}
		},
		{
			"doubleSided":true,
			"extensions":{
				"KHR_materials_specular":{
					"specularColorFactor":[
						0.04800000041723251,
						0.04800000041723251,
						0.04800000041723251
					]
				},
				"KHR_materials_ior":{
					"ior":0
				}
			},
			"name":"Signs3_u2NWBuild7_1",
			"pbrMetallicRoughness":{
				"baseColorTexture":{
					"index":3
				},
				"metallicFactor":0,
				"roughnessFactor":0.9691779017448425
			}
		},
		{
			"doubleSided":true,
			"extensions":{
				"KHR_materials_specular":{
					"specularColorFactor":[
						0.04800000041723251,
						0.04800000041723251,
						0.04800000041723251
					]
				},
				"KHR_materials_ior":{
					"ior":0
				}
			},
			"name":"MetalDark_u2NWBuild7_1",
			"pbrMetallicRoughness":{
				"baseColorTexture":{
					"index":4
				},
				"metallicFactor":0,
				"roughnessFactor":0.9700000286102295
			}
		},
		{
			"doubleSided":true,
			"extensions":{
				"KHR_materials_specular":{
					"specularColorFactor":[
						0.04800000041723251,
						0.04800000041723251,
						0.04800000041723251
					]
				},
				"KHR_materials_ior":{
					"ior":0
				}
			},
			"name":"BlackMetalPanels_u2NWBuild7_1",
			"pbrMetallicRoughness":{
				"baseColorTexture":{
					"index":5
				},
				"metallicFactor":0,
				"roughnessFactor":0.9691779017448425
			}
		},
		{
			"doubleSided":true,
			"extensions":{
				"KHR_materials_specular":{
					"specularColorFactor":[
						0.04800000041723251,
						0.04800000041723251,
						0.04800000041723251
					]
				},
				"KHR_materials_ior":{
					"ior":0
				}
			},
			"name":"MetalLight_u2NWBuild7_1",
			"pbrMetallicRoughness":{
				"baseColorTexture":{
					"index":6
				},
				"metallicFactor":0,
				"roughnessFactor":0.9687750339508057
			}
		},
		{
			"doubleSided":true,
			"extensions":{
				"KHR_materials_specular":{
					"specularColorFactor":[
						0.04800000041723251,
						0.04800000041723251,
						0.04800000041723251
					]
				},
				"KHR_materials_ior":{
					"ior":0
				}
			},
			"name":"Concrete1_u2NWBuild7_1",
			"pbrMetallicRoughness":{
				"baseColorTexture":{
					"index":7
				},
				"metallicFactor":0,
				"roughnessFactor":0.9687750339508057
			}
		},
		{
			"doubleSided":true,
			"extensions":{
				"KHR_materials_specular":{
					"specularColorFactor":[
						0.04800000041723251,
						0.04800000041723251,
						0.04800000041723251
					]
				},
				"KHR_materials_ior":{
					"ior":0
				}
			},
			"name":"MetalGrey_u2NWBuild7_1",
			"pbrMetallicRoughness":{
				"baseColorTexture":{
					"index":8
				},
				"metallicFactor":0,
				"roughnessFactor":0.9687750339508057
			}
		},
		{
			"doubleSided":true,
			"extensions":{
				"KHR_materials_specular":{
					"specularColorFactor":[
						0.04800000041723251,
						0.04800000041723251,
						0.04800000041723251
					]
				},
				"KHR_materials_ior":{
					"ior":0
				}
			},
			"name":"Props2_u2NWBuild7_1",
			"pbrMetallicRoughness":{
				"baseColorTexture":{
					"index":9
				},
				"metallicFactor":0,
				"roughnessFactor":0.9691779017448425
			}
		},
		{
			"doubleSided":true,
			"extensions":{
				"KHR_materials_specular":{
					"specularColorFactor":[
						0.04800000041723251,
						0.04800000041723251,
						0.04800000041723251
					]
				},
				"KHR_materials_ior":{
					"ior":0
				}
			},
			"name":"Vent1_u2NWBuild7_1",
			"pbrMetallicRoughness":{
				"baseColorTexture":{
					"index":10
				},
				"metallicFactor":0,
				"roughnessFactor":0.9693813920021057
			}
		},
		{
			"doubleSided":true,
			"extensions":{
				"KHR_materials_specular":{
					"specularColorFactor":[
						0.04800000041723251,
						0.04800000041723251,
						0.04800000041723251
					]
				},
				"KHR_materials_ior":{
					"ior":0
				}
			},
			"name":"Props1_u2NWBuild7_1",
			"pbrMetallicRoughness":{
				"baseColorTexture":{
					"index":11
				},
				"metallicFactor":0,
				"roughnessFactor":0.9691779017448425
			}
		}
	],
	"meshes":[
		{
			"name":"Urban Sprawl 2.022",
			"primitives":[
				{
					"attributes":{
						"POSITION":0,
						"NORMAL":1,
						"TEXCOORD_0":2
					},
					"indices":3,
					"material":0
				},
				{
					"attributes":{
						"POSITION":4,
						"NORMAL":5,
						"TEXCOORD_0":6
					},
					"indices":7,
					"material":1
				},
				{
					"attributes":{
						"POSITION":8,
						"NORMAL":9,
						"TEXCOORD_0":10
					},
					"indices":11,
					"material":2
				},
				{
					"attributes":{
						"POSITION":12,
						"NORMAL":13,
						"TEXCOORD_0":14
					},
					"indices":15,
					"material":3
				},
				{
					"attributes":{
						"POSITION":16,
						"NORMAL":17,
						"TEXCOORD_0":18
					},
					"indices":19,
					"material":4
				},
				{
					"attributes":{
						"POSITION":20,
						"NORMAL":21,
						"TEXCOORD_0":22
					},
					"indices":23,
					"material":5
				},
				{
					"attributes":{
						"POSITION":24,
						"NORMAL":25,
						"TEXCOORD_0":26
					},
					"indices":27,
					"material":6
				},
				{
					"attributes":{
						"POSITION":28,
						"NORMAL":29,
						"TEXCOORD_0":30
					},
					"indices":31,
					"material":7
				},
				{
					"attributes":{
						"POSITION":32,
						"NORMAL":33,
						"TEXCOORD_0":34
					},
					"indices":35,
					"material":8
				},
				{
					"attributes":{
						"POSITION":36,
						"NORMAL":37,
						"TEXCOORD_0":38
					},
					"indices":39,
					"material":9
				},
				{
					"attributes":{
						"POSITION":40,
						"NORMAL":41,
						"TEXCOORD_0":42
					},
					"indices":43,
					"material":10
				},
				{
					"attributes":{
						"POSITION":44,
						"NORMAL":45,
						"TEXCOORD_0":46
					},
					"indices":47,
					"material":11
				}
			]
		}
	],
	"textures":[
		{
			"sampler":0,
			"source":0
		},
		{
			"sampler":0,
			"source":0
		},
		{
			"sampler":0,
			"source":1
		},
		{
			"sampler":0,
			"source":2
		},
		{
			"sampler":0,
			"source":3
		},
		{
			"sampler":0,
			"source":4
		},
		{
			"sampler":0,
			"source":5
		},
		{
			"sampler":0,
			"source":6
		},
		{
			"sampler":0,
			"source":7
		},
		{
			"sampler":0,
			"source":8
		},
		{
			"sampler":0,
			"source":9
		},
		{
			"sampler":0,
			"source":10
		}
	],
	"images":[
		{
			"mimeType":"image/jpeg",
			"name":"u2nwbldg7",
			"uri":"u2nwbldg7.jpg"
		},
		{
			"mimeType":"image/jpeg",
			"name":"u2crete1",
			"uri":"u2crete1.jpg"
		},
		{
			"mimeType":"image/jpeg",
			"name":"u2signs3",
			"uri":"u2signs3.jpg"
		},
		{
			"mimeType":"image/jpeg",
			"name":"u2metdark",
			"uri":"u2metdark.jpg"
		},
		{
			"mimeType":"image/jpeg",
			"name":"u2blackpanel",
			"uri":"u2blackpanel.jpg"
		},
		{
			"mimeType":"image/jpeg",
			"name":"u2white",
			"uri":"u2white.jpg"
		},
		{
			"mimeType":"image/jpeg",
			"name":"u2crete2",
			"uri":"u2crete2.jpg"
		},
		{
			"mimeType":"image/jpeg",
			"name":"u2metal1",
			"uri":"u2metal1.jpg"
		},
		{
			"mimeType":"image/jpeg",
			"name":"u2props2",
			"uri":"u2props2.jpg"
		},
		{
			"mimeType":"image/jpeg",
			"name":"u2vent1",
			"uri":"u2vent1.jpg"
		},
		{
			"mimeType":"image/jpeg",
			"name":"u2props1",
			"uri":"u2props1.jpg"
		}
	],
	"accessors":[
		{
			"bufferView":0,
			"componentType":5126,
			"count":174,
			"max":[
				-3.6604700088500977,
				-8.145919799804688,
				-0.5495700240135193
			],
			"min":[
				-10.786299705505371,
				-12.203800201416016,
				-11.480600357055664
			],
			"type":"VEC3"
		},
		{
			"bufferView":1,
			"componentType":5126,
			"count":174,
			"type":"VEC3"
		},
		{
			"bufferView":2,
			"componentType":5126,
			"count":174,
			"type":"VEC2"
		},
		{
			"bufferView":3,
			"componentType":5123,
			"count":288,
			"type":"SCALAR"
		},
		{
			"bufferView":4,
			"componentType":5126,
			"count":80,
			"max":[
				-3.6604700088500977,
				-8.145919799804688,
				-0.5495700240135193
			],
			"min":[
				-10.786299705505371,
				-12.203800201416016,
				-11.480600357055664
			],
			"type":"VEC3"
		},
		{
			"bufferView":5,
			"componentType":5126,
			"count":80,
			"type":"VEC3"
		},
		{
			"bufferView":6,
			"componentType":5126,
			"count":80,
			"type":"VEC2"
		},
		{
			"bufferView":7,
			"componentType":5123,
			"count":120,
			"type":"SCALAR"
		},
		{
			"bufferView":8,
			"componentType":5126,
			"count":23,
			"max":[
				-3.524139881134033,
				-8.017609596252441,
				-9.063949584960938
			],
			"min":[
				-11.574199676513672,
				-12.555299758911133,
				-12.338700294494629
			],
			"type":"VEC3"
		},
		{
			"bufferView":9,
			"componentType":5126,
			"count":23,
			"type":"VEC3"
		},
		{
			"bufferView":10,
			"componentType":5126,
			"count":23,
			"type":"VEC2"
		},
		{
			"bufferView":11,
			"componentType":5123,
			"count":45,
			"type":"SCALAR"
		},
		{
			"bufferView":12,
			"componentType":5126,
			"count":98,
			"max":[
				-5.150829792022705,
				-6.942570209503174,
				-5.338029861450195
			],
			"min":[
				-5.2041401863098145,
				-7.3971099853515625,
				-9.112990379333496
			],
			"type":"VEC3"
		},
		{
			"bufferView":13,
			"componentType":5126,
			"count":98,
			"type":"VEC3"
		},
		{
			"bufferView":14,
			"componentType":5126,
			"count":98,
			"type":"VEC2"
		},
		{
			"bufferView":15,
			"componentType":5123,
			"count":132,
			"type":"SCALAR"
		},
		{
			"bufferView":16,
			"componentType":5126,
			"count":3174,
			"max":[
				-4.997960090637207,
				-6.9322099685668945,
				-5.32682991027832
			],
			"min":[
				-6.49045991897583,
				-11.460599899291992,
				-14.546899795532227
			],
			"type":"VEC3"
		},
		{
			"bufferView":17,
			"componentType":5126,
			"count":3174,
			"type":"VEC3"
		},
		{
			"bufferView":18,
			"componentType":5126,
			"count":3174,
			"type":"VEC2"
		},
		{
			"bufferView":19,
			"componentType":5123,
			"count":7335,
			"type":"SCALAR"
		},
		{
			"bufferView":20,
			"componentType":5126,
			"count":136,
			"max":[
				-7.053919792175293,
				-7.9524102210998535,
				-12.1048002243042
			],
			"min":[
				-11.731599807739258,
				-12.587400436401367,
				-13.050999641418457
			],
			"type":"VEC3"
		},
		{
			"bufferView":21,
			"componentType":5126,
			"count":136,
			"type":"VEC3"
		},
		{
			"bufferView":22,
			"componentType":5126,
			"count":136,
			"type":"VEC2"
		},
		{
			"bufferView":23,
			"componentType":5123,
			"count":264,
			"type":"SCALAR"
		},
		{
			"bufferView":24,
			"componentType":5126,
			"count":80,
			"max":[
				-9.064470291137695,
				-8.245519638061523,
				-12.27929973602295
			],
			"min":[
				-11.608200073242188,
				-11.769800186157227,
				-15.17300033569336
			],
			"type":"VEC3"
		},
		{
			"bufferView":25,
			"componentType":5126,
			"count":80,
			"type":"VEC3"
		},
		{
			"bufferView":26,
			"componentType":5126,
			"count":80,
			"type":"VEC2"
		},
		{
			"bufferView":27,
			"componentType":5123,
			"count":126,
			"type":"SCALAR"
		},
		{
			"bufferView":28,
			"componentType":5126,
			"count":42,
			"max":[
				-9.120140075683594,
				-8.190679550170898,
				-12.812299728393555
			],
			"min":[
				-11.666899681091309,
				-11.824999809265137,
				-15.245699882507324
			],
			"type":"VEC3"
		},
		{
			"bufferView":29,
			"componentType":5126,
			"count":42,
			"type":"VEC3"
		},
		{
			"bufferView":30,
			"componentType":5126,
			"count":42,
			"type":"VEC2"
		},
		{
			"bufferView":31,
			"componentType":5123,
			"count":72,
			"type":"SCALAR"
		},
		{
			"bufferView":32,
			"componentType":5126,
			"count":690,
			"max":[
				-7.909470081329346,
				-8.2524995803833,
				-12.30109977722168
			],
			"min":[
				-11.575400352478027,
				-11.95989990234375,
				-13.134599685668945
			],
			"type":"VEC3"
		},
		{
			"bufferView":33,
			"componentType":5126,
			"count":690,
			"type":"VEC3"
		},
		{
			"bufferView":34,
			"componentType":5126,
			"count":690,
			"type":"VEC2"
		},
		{
			"bufferView":35,
			"componentType":5123,
			"count":1098,
			"type":"SCALAR"
		},
		{
			"bufferView":36,
			"componentType":5126,
			"count":750,
			"max":[
				-7.917840003967285,
				-8.11067008972168,
				-12.581700325012207
			],
			"min":[
				-11.244799613952637,
				-11.951700210571289,
				-14.922200202941895
			],
			"type":"VEC3"
		},
		{
			"bufferView":37,
			"componentType":5126,
			"count":750,
			"type":"VEC3"
		},
		{
			"bufferView":38,
			"componentType":5126,
			"count":750,
			"type":"VEC2"
		},
		{
			"bufferView":39,
			"componentType":5123,
			"count":1116,
			"type":"SCALAR"
		},
		{
			"bufferView":40,
			"componentType":5126,
			"count":336,
			"max":[
				-7.911230087280273,
				-8.443280220031738,
				-12.21720027923584
			],
			"min":[
				-9.143010139465332,
				-11.958200454711914,
				-13.13230037689209
			],
			"type":"VEC3"
		},
		{
			"bufferView":41,
			"componentType":5126,
			"count":336,
			"type":"VEC3"
		},
		{
			"bufferView":42,
			"componentType":5126,
			"count":336,
			"type":"VEC2"
		},
		{
			"bufferView":43,
			"componentType":5123,
			"count":540,
			"type":"SCALAR"
		},
		{
			"bufferView":44,
			"componentType":5126,
			"count":42,
			"max":[
				-3.5124900341033936,
				-8.028059959411621,
				-0.17009399831295013
			],
			"min":[
				-8.840510368347168,
				-12.302800178527832,
				-0.45729100704193115
			],
			"type":"VEC3"
		},
		{
			"bufferView":45,
			"componentType":5126,
			"count":42,
			"type":"VEC3"
		},
		{
			"bufferView":46,
			"componentType":5126,
			"count":42,
			"type":"VEC2"
		},
		{
			"bufferView":47,
			"componentType":5123,
			"count":60,
			"type":"SCALAR"
		}
	],
	"bufferViews":[
		{
			"buffer":0,
			"byteLength":2088,
			"byteOffset":0,
			"target":34962
		},
		{
			"buffer":0,
			"byteLength":2088,
			"byteOffset":2088,
			"target":34962
		},
		{
			"buffer":0,
			"byteLength":1392,
			"byteOffset":4176,
			"target":34962
		},
		{
			"buffer":0,
			"byteLength":576,
			"byteOffset":5568,
			"target":34963
		},
		{
			"buffer":0,
			"byteLength":960,
			"byteOffset":6144,
			"target":34962
		},
		{
			"buffer":0,
			"byteLength":960,
			"byteOffset":7104,
			"target":34962
		},
		{
			"buffer":0,
			"byteLength":640,
			"byteOffset":8064,
			"target":34962
		},
		{
			"buffer":0,
			"byteLength":240,
			"byteOffset":8704,
			"target":34963
		},
		{
			"buffer":0,
			"byteLength":276,
			"byteOffset":8944,
			"target":34962
		},
		{
			"buffer":0,
			"byteLength":276,
			"byteOffset":9220,
			"target":34962
		},
		{
			"buffer":0,
			"byteLength":184,
			"byteOffset":9496,
			"target":34962
		},
		{
			"buffer":0,
			"byteLength":90,
			"byteOffset":9680,
			"target":34963
		},
		{
			"buffer":0,
			"byteLength":1176,
			"byteOffset":9772,
			"target":34962
		},
		{
			"buffer":0,
			"byteLength":1176,
			"byteOffset":10948,
			"target":34962
		},
		{
			"buffer":0,
			"byteLength":784,
			"byteOffset":12124,
			"target":34962
		},
		{
			"buffer":0,
			"byteLength":264,
			"byteOffset":12908,
			"target":34963
		},
		{
			"buffer":0,
			"byteLength":38088,
			"byteOffset":13172,
			"target":34962
		},
		{
			"buffer":0,
			"byteLength":38088,
			"byteOffset":51260,
			"target":34962
		},
		{
			"buffer":0,
			"byteLength":25392,
			"byteOffset":89348,
			"target":34962
		},
		{
			"buffer":0,
			"byteLength":14670,
			"byteOffset":114740,
			"target":34963
		},
		{
			"buffer":0,
			"byteLength":1632,
			"byteOffset":129412,
			"target":34962
		},
		{
			"buffer":0,
			"byteLength":1632,
			"byteOffset":131044,
			"target":34962
		},
		{
			"buffer":0,
			"byteLength":1088,
			"byteOffset":132676,
			"target":34962
		},
		{
			"buffer":0,
			"byteLength":528,
			"byteOffset":133764,
			"target":34963
		},
		{
			"buffer":0,
			"byteLength":960,
			"byteOffset":134292,
			"target":34962
		},
		{
			"buffer":0,
			"byteLength":960,
			"byteOffset":135252,
			"target":34962
		},
		{
			"buffer":0,
			"byteLength":640,
			"byteOffset":136212,
			"target":34962
		},
		{
			"buffer":0,
			"byteLength":252,
			"byteOffset":136852,
			"target":34963
		},
		{
			"buffer":0,
			"byteLength":504,
			"byteOffset":137104,
			"target":34962
		},
		{
			"buffer":0,
			"byteLength":504,
			"byteOffset":137608,
			"target":34962
		},
		{
			"buffer":0,
			"byteLength":336,
			"byteOffset":138112,
			"target":34962
		},
		{
			"buffer":0,
			"byteLength":144,
			"byteOffset":138448,
			"target":34963
		},
		{
			"buffer":0,
			"byteLength":8280,
			"byteOffset":138592,
			"target":34962
		},
		{
			"buffer":0,
			"byteLength":8280,
			"byteOffset":146872,
			"target":34962
		},
		{
			"buffer":0,
			"byteLength":5520,
			"byteOffset":155152,
			"target":34962
		},
		{
			"buffer":0,
			"byteLength":2196,
			"byteOffset":160672,
			"target":34963
		},
		{
			"buffer":0,
			"byteLength":9000,
			"byteOffset":162868,
			"target":34962
		},
		{
			"buffer":0,
			"byteLength":9000,
			"byteOffset":171868,
			"target":34962
		},
		{
			"buffer":0,
			"byteLength":6000,
			"byteOffset":180868,
			"target":34962
		},
		{
			"buffer":0,
			"byteLength":2232,
			"byteOffset":186868,
			"target":34963
		},
		{
			"buffer":0,
			"byteLength":4032,
			"byteOffset":189100,
			"target":34962
		},
		{
			"buffer":0,
			"byteLength":4032,
			"byteOffset":193132,
			"target":34962
		},
		{
			"buffer":0,
			"byteLength":2688,
			"byteOffset":197164,
			"target":34962
		},
		{
			"buffer":0,
			"byteLength":1080,
			"byteOffset":199852,
			"target":34963
		},
		{
			"buffer":0,
			"byteLength":504,
			"byteOffset":200932,
			"target":34962
		},
		{
			"buffer":0,
			"byteLength":504,
			"byteOffset":201436,
			"target":34962
		},
		{
			"buffer":0,
			"byteLength":336,
			"byteOffset":201940,
			"target":34962
		},
		{
			"buffer":0,
			"byteLength":120,
			"byteOffset":202276,
			"target":34963
		}
	],
	"samplers":[
		{
			"magFilter":9729,
			"minFilter":9987
		}
	],
	"buffers":[
		{
			"byteLength":202396,
			"uri":"u2NWBuild7.bin"
		}
	]
}
