{
	"asset":{
		"generator":"Khronos glTF Blender I/O v5.0.21",
		"version":"2.0"
	},
	"extensionsUsed":[
		"KHR_materials_specular",
		"KHR_materials_ior"
	],
	"scene":0,
	"scenes":[
		{
			"name":"Scene",
			"nodes":[
				0
			]
		}
	],
	"nodes":[
		{
			"mesh":0,
			"name":"u2SEBuild12",
			"rotation":[
				0.70710688829422,
				0,
				0,
				0.7071066498756409
			]
		}
	],
	"materials":[
		{
			"doubleSided":true,
			"extensions":{
				"KHR_materials_specular":{
					"specularColorFactor":[
						0.04800000041723251,
						0.04800000041723251,
						0.04800000041723251
					]
				},
				"KHR_materials_ior":{
					"ior":0
				}
			},
			"name":"Props1_u2SEBuild12_1",
			"pbrMetallicRoughness":{
				"baseColorTexture":{
					"index":0
				},
				"metallicFactor":0,
				"roughnessFactor":0.9685357213020325
			}
		},
		{
			"doubleSided":true,
			"extensions":{
				"KHR_materials_specular":{
					"specularColorFactor":[
						0.04800000041723251,
						0.04800000041723251,
						0.04800000041723251
					]
				},
				"KHR_materials_ior":{
					"ior":0
				}
			},
			"name":"WindowE_u2SEBuild12_1",
			"pbrMetallicRoughness":{
				"baseColorTexture":{
					"index":1
				},
				"metallicFactor":0,
				"roughnessFactor":0.9691779017448425
			}
		},
		{
			"doubleSided":true,
			"extensions":{
				"KHR_materials_specular":{
					"specularColorFactor":[
						0.04800000041723251,
						0.04800000041723251,
						0.04800000041723251
					]
				},
				"KHR_materials_ior":{
					"ior":0
				}
			},
			"name":"Facade_u2SEBuild12_1",
			"pbrMetallicRoughness":{
				"baseColorTexture":{
					"index":2
				},
				"metallicFactor":0,
				"roughnessFactor":0.9687750339508057
			}
		},
		{
			"doubleSided":true,
			"extensions":{
				"KHR_materials_specular":{
					"specularColorFactor":[
						0.04800000041723251,
						0.04800000041723251,
						0.04800000041723251
					]
				},
				"KHR_materials_ior":{
					"ior":0
				}
			},
			"name":"WindowsK_u2SEBuild12_1",
			"pbrMetallicRoughness":{
				"baseColorTexture":{
					"index":3
				},
				"metallicFactor":0,
				"roughnessFactor":0.9691779017448425
			}
		},
		{
			"doubleSided":true,
			"extensions":{
				"KHR_materials_specular":{
					"specularColorFactor":[
						0.04800000041723251,
						0.04800000041723251,
						0.04800000041723251
					]
				},
				"KHR_materials_ior":{
					"ior":0
				}
			},
			"name":"WindowsJ_u2SEBuild12_1",
			"pbrMetallicRoughness":{
				"baseColorTexture":{
					"index":4
				},
				"metallicFactor":0,
				"roughnessFactor":0.9691779017448425
			}
		},
		{
			"doubleSided":true,
			"extensions":{
				"KHR_materials_specular":{
					"specularColorFactor":[
						0.04800000041723251,
						0.04800000041723251,
						0.04800000041723251
					]
				},
				"KHR_materials_ior":{
					"ior":0
				}
			},
			"name":"Concrete_u2SEBuild12_1",
			"pbrMetallicRoughness":{
				"baseColorTexture":{
					"index":5
				},
				"metallicFactor":0,
				"roughnessFactor":0.9687750339508057
			}
		},
		{
			"doubleSided":true,
			"extensions":{
				"KHR_materials_specular":{
					"specularColorFactor":[
						0.04800000041723251,
						0.04800000041723251,
						0.04800000041723251
					]
				},
				"KHR_materials_ior":{
					"ior":0
				}
			},
			"name":"Brick3_u2SEBuild12_1",
			"pbrMetallicRoughness":{
				"baseColorTexture":{
					"index":6
				},
				"metallicFactor":0,
				"roughnessFactor":0.9687750339508057
			}
		},
		{
			"doubleSided":true,
			"extensions":{
				"KHR_materials_specular":{
					"specularColorFactor":[
						0.04800000041723251,
						0.04800000041723251,
						0.04800000041723251
					]
				},
				"KHR_materials_ior":{
					"ior":0
				}
			},
			"name":"RooftopProps_u2SEBuild12_1",
			"pbrMetallicRoughness":{
				"baseColorTexture":{
					"index":7
				},
				"metallicFactor":0,
				"roughnessFactor":0.9685357213020325
			}
		},
		{
			"doubleSided":true,
			"extensions":{
				"KHR_materials_specular":{
					"specularColorFactor":[
						0.04800000041723251,
						0.04800000041723251,
						0.04800000041723251
					]
				},
				"KHR_materials_ior":{
					"ior":0
				}
			},
			"name":"Doors_u2SEBuild12_1",
			"pbrMetallicRoughness":{
				"baseColorTexture":{
					"index":8
				},
				"metallicFactor":0,
				"roughnessFactor":0.9691779017448425
			}
		},
		{
			"doubleSided":true,
			"extensions":{
				"KHR_materials_specular":{
					"specularColorFactor":[
						0.04800000041723251,
						0.04800000041723251,
						0.04800000041723251
					]
				},
				"KHR_materials_ior":{
					"ior":0
				}
			},
			"name":"PlyWood_u2SEBuild12_1",
			"pbrMetallicRoughness":{
				"baseColorTexture":{
					"index":9
				},
				"metallicFactor":0,
				"roughnessFactor":0.9691779017448425
			}
		},
		{
			"doubleSided":true,
			"extensions":{
				"KHR_materials_specular":{
					"specularColorFactor":[
						0.04800000041723251,
						0.04800000041723251,
						0.04800000041723251
					]
				},
				"KHR_materials_ior":{
					"ior":0
				}
			},
			"name":"Rollup_u2SEBuild12_1",
			"pbrMetallicRoughness":{
				"baseColorTexture":{
					"index":10
				},
				"metallicFactor":0,
				"roughnessFactor":0.9693813920021057
			}
		},
		{
			"doubleSided":true,
			"extensions":{
				"KHR_materials_specular":{
					"specularColorFactor":[
						0.04800000041723251,
						0.04800000041723251,
						0.04800000041723251
					]
				},
				"KHR_materials_ior":{
					"ior":0
				}
			},
			"name":"Metalgrey_u2SEBuild12_1",
			"pbrMetallicRoughness":{
				"baseColorTexture":{
					"index":11
				},
				"metallicFactor":0,
				"roughnessFactor":0.9687750339508057
			}
		}
	],
	"meshes":[
		{
			"name":"Urban Sprawl 2.039",
			"primitives":[
				{
					"attributes":{
						"POSITION":0,
						"NORMAL":1,
						"TEXCOORD_0":2
					},
					"indices":3,
					"material":0
				},
				{
					"attributes":{
						"POSITION":4,
						"NORMAL":5,
						"TEXCOORD_0":6
					},
					"indices":7,
					"material":1
				},
				{
					"attributes":{
						"POSITION":8,
						"NORMAL":9,
						"TEXCOORD_0":10
					},
					"indices":11,
					"material":2
				},
				{
					"attributes":{
						"POSITION":12,
						"NORMAL":13,
						"TEXCOORD_0":14
					},
					"indices":15,
					"material":3
				},
				{
					"attributes":{
						"POSITION":16,
						"NORMAL":17,
						"TEXCOORD_0":18
					},
					"indices":19,
					"material":4
				},
				{
					"attributes":{
						"POSITION":20,
						"NORMAL":21,
						"TEXCOORD_0":22
					},
					"indices":23,
					"material":5
				},
				{
					"attributes":{
						"POSITION":24,
						"NORMAL":25,
						"TEXCOORD_0":26
					},
					"indices":27,
					"material":6
				},
				{
					"attributes":{
						"POSITION":28,
						"NORMAL":29,
						"TEXCOORD_0":30
					},
					"indices":31,
					"material":7
				},
				{
					"attributes":{
						"POSITION":32,
						"NORMAL":33,
						"TEXCOORD_0":34
					},
					"indices":35,
					"material":8
				},
				{
					"attributes":{
						"POSITION":36,
						"NORMAL":37,
						"TEXCOORD_0":38
					},
					"indices":39,
					"material":9
				},
				{
					"attributes":{
						"POSITION":40,
						"NORMAL":41,
						"TEXCOORD_0":42
					},
					"indices":43,
					"material":10
				},
				{
					"attributes":{
						"POSITION":44,
						"NORMAL":45,
						"TEXCOORD_0":46
					},
					"indices":47,
					"material":11
				}
			]
		}
	],
	"textures":[
		{
			"sampler":0,
			"source":0
		},
		{
			"sampler":0,
			"source":1
		},
		{
			"sampler":0,
			"source":2
		},
		{
			"sampler":0,
			"source":3
		},
		{
			"sampler":0,
			"source":3
		},
		{
			"sampler":0,
			"source":4
		},
		{
			"sampler":0,
			"source":5
		},
		{
			"sampler":0,
			"source":6
		},
		{
			"sampler":0,
			"source":7
		},
		{
			"sampler":0,
			"source":8
		},
		{
			"sampler":0,
			"source":9
		},
		{
			"sampler":0,
			"source":10
		}
	],
	"images":[
		{
			"mimeType":"image/jpeg",
			"name":"u2props1",
			"uri":"u2props1.jpg"
		},
		{
			"mimeType":"image/jpeg",
			"name":"u2win3",
			"uri":"u2win3.jpg"
		},
		{
			"mimeType":"image/jpeg",
			"name":"u2brick9",
			"uri":"u2brick9.jpg"
		},
		{
			"mimeType":"image/jpeg",
			"name":"u2nebldg4",
			"uri":"u2nebldg4.jpg"
		},
		{
			"mimeType":"image/jpeg",
			"name":"u2crete1",
			"uri":"u2crete1.jpg"
		},
		{
			"mimeType":"image/jpeg",
			"name":"Bricks",
			"uri":"Bricks.jpg"
		},
		{
			"mimeType":"image/jpeg",
			"name":"u2props4",
			"uri":"u2props4.jpg"
		},
		{
			"mimeType":"image/jpeg",
			"name":"u2redbldg",
			"uri":"u2redbldg.jpg"
		},
		{
			"mimeType":"image/jpeg",
			"name":"u2ply",
			"uri":"u2ply.jpg"
		},
		{
			"mimeType":"image/jpeg",
			"name":"u2rollup1",
			"uri":"u2rollup1.jpg"
		},
		{
			"mimeType":"image/jpeg",
			"name":"u2metal1",
			"uri":"u2metal1.jpg"
		}
	],
	"accessors":[
		{
			"bufferView":0,
			"componentType":5126,
			"count":1978,
			"max":[
				58.21329879760742,
				37.63750076293945,
				-0.43198299407958984
			],
			"min":[
				46.48809814453125,
				32.749000549316406,
				-19.05500030517578
			],
			"type":"VEC3"
		},
		{
			"bufferView":1,
			"componentType":5126,
			"count":1978,
			"type":"VEC3"
		},
		{
			"bufferView":2,
			"componentType":5126,
			"count":1978,
			"type":"VEC2"
		},
		{
			"bufferView":3,
			"componentType":5123,
			"count":2670,
			"type":"SCALAR"
		},
		{
			"bufferView":4,
			"componentType":5126,
			"count":60,
			"max":[
				58.15140151977539,
				37.21889877319336,
				-3.1475000381469727
			],
			"min":[
				46.54999923706055,
				33.436100006103516,
				-18.23710060119629
			],
			"type":"VEC3"
		},
		{
			"bufferView":5,
			"componentType":5126,
			"count":60,
			"type":"VEC3"
		},
		{
			"bufferView":6,
			"componentType":5126,
			"count":60,
			"type":"VEC2"
		},
		{
			"bufferView":7,
			"componentType":5123,
			"count":90,
			"type":"SCALAR"
		},
		{
			"bufferView":8,
			"componentType":5126,
			"count":1137,
			"max":[
				58.17129898071289,
				37.25600051879883,
				-0.2686479985713959
			],
			"min":[
				46.529998779296875,
				32.75859832763672,
				-18.274200439453125
			],
			"type":"VEC3"
		},
		{
			"bufferView":9,
			"componentType":5126,
			"count":1137,
			"type":"VEC3"
		},
		{
			"bufferView":10,
			"componentType":5126,
			"count":1137,
			"type":"VEC2"
		},
		{
			"bufferView":11,
			"componentType":5123,
			"count":1728,
			"type":"SCALAR"
		},
		{
			"bufferView":12,
			"componentType":5126,
			"count":372,
			"max":[
				57.75210189819336,
				37.53129959106445,
				-2.1710000038146973
			],
			"min":[
				46.96609878540039,
				32.861000061035156,
				-19.4768009185791
			],
			"type":"VEC3"
		},
		{
			"bufferView":13,
			"componentType":5126,
			"count":372,
			"type":"VEC3"
		},
		{
			"bufferView":14,
			"componentType":5126,
			"count":372,
			"type":"VEC2"
		},
		{
			"bufferView":15,
			"componentType":5123,
			"count":558,
			"type":"SCALAR"
		},
		{
			"bufferView":16,
			"componentType":5126,
			"count":588,
			"max":[
				57.75210189819336,
				37.53129959106445,
				-2.1710000038146973
			],
			"min":[
				46.96609878540039,
				32.861000061035156,
				-19.4768009185791
			],
			"type":"VEC3"
		},
		{
			"bufferView":17,
			"componentType":5126,
			"count":588,
			"type":"VEC3"
		},
		{
			"bufferView":18,
			"componentType":5126,
			"count":588,
			"type":"VEC2"
		},
		{
			"bufferView":19,
			"componentType":5123,
			"count":882,
			"type":"SCALAR"
		},
		{
			"bufferView":20,
			"componentType":5126,
			"count":143,
			"max":[
				58.26599884033203,
				37.67259979248047,
				-0.0734144002199173
			],
			"min":[
				46.456600189208984,
				32.73929977416992,
				-19.900699615478516
			],
			"type":"VEC3"
		},
		{
			"bufferView":21,
			"componentType":5126,
			"count":143,
			"type":"VEC3"
		},
		{
			"bufferView":22,
			"componentType":5126,
			"count":143,
			"type":"VEC2"
		},
		{
			"bufferView":23,
			"componentType":5123,
			"count":234,
			"type":"SCALAR"
		},
		{
			"bufferView":24,
			"componentType":5126,
			"count":36,
			"max":[
				58.20949935913086,
				37.64899826049805,
				-0.10266999900341034
			],
			"min":[
				46.51319885253906,
				32.92399978637695,
				-1.633430004119873
			],
			"type":"VEC3"
		},
		{
			"bufferView":25,
			"componentType":5126,
			"count":36,
			"type":"VEC3"
		},
		{
			"bufferView":26,
			"componentType":5126,
			"count":36,
			"type":"VEC2"
		},
		{
			"bufferView":27,
			"componentType":5123,
			"count":48,
			"type":"SCALAR"
		},
		{
			"bufferView":28,
			"componentType":5126,
			"count":1096,
			"max":[
				55.4119987487793,
				36.7765998840332,
				-0.3688409924507141
			],
			"min":[
				47.59360122680664,
				32.8047981262207,
				-20.078699111938477
			],
			"type":"VEC3"
		},
		{
			"bufferView":29,
			"componentType":5126,
			"count":1096,
			"type":"VEC3"
		},
		{
			"bufferView":30,
			"componentType":5126,
			"count":1096,
			"type":"VEC2"
		},
		{
			"bufferView":31,
			"componentType":5123,
			"count":1398,
			"type":"SCALAR"
		},
		{
			"bufferView":32,
			"componentType":5126,
			"count":4,
			"max":[
				51.582698822021484,
				32.80630111694336,
				-0.37036699056625366
			],
			"min":[
				51.169898986816406,
				32.8047981262207,
				-1.255429983139038
			],
			"type":"VEC3"
		},
		{
			"bufferView":33,
			"componentType":5126,
			"count":4,
			"type":"VEC3"
		},
		{
			"bufferView":34,
			"componentType":5126,
			"count":4,
			"type":"VEC2"
		},
		{
			"bufferView":35,
			"componentType":5123,
			"count":6,
			"type":"SCALAR"
		},
		{
			"bufferView":36,
			"componentType":5126,
			"count":152,
			"max":[
				57.46630096435547,
				32.82040023803711,
				-0.3771910071372986
			],
			"min":[
				47.16379928588867,
				32.81060028076172,
				-1.301669955253601
			],
			"type":"VEC3"
		},
		{
			"bufferView":37,
			"componentType":5126,
			"count":152,
			"type":"VEC3"
		},
		{
			"bufferView":38,
			"componentType":5126,
			"count":152,
			"type":"VEC2"
		},
		{
			"bufferView":39,
			"componentType":5123,
			"count":210,
			"type":"SCALAR"
		},
		{
			"bufferView":40,
			"componentType":5126,
			"count":24,
			"max":[
				57.368900299072266,
				32.902801513671875,
				-0.34913501143455505
			],
			"min":[
				47.231998443603516,
				32.902801513671875,
				-1.3914799690246582
			],
			"type":"VEC3"
		},
		{
			"bufferView":41,
			"componentType":5126,
			"count":24,
			"type":"VEC3"
		},
		{
			"bufferView":42,
			"componentType":5126,
			"count":24,
			"type":"VEC2"
		},
		{
			"bufferView":43,
			"componentType":5123,
			"count":36,
			"type":"SCALAR"
		},
		{
			"bufferView":44,
			"componentType":5126,
			"count":659,
			"max":[
				57.389198303222656,
				32.902801513671875,
				-0.3328219950199127
			],
			"min":[
				47.2156982421875,
				32.752601623535156,
				-1.407789945602417
			],
			"type":"VEC3"
		},
		{
			"bufferView":45,
			"componentType":5126,
			"count":659,
			"type":"VEC3"
		},
		{
			"bufferView":46,
			"componentType":5126,
			"count":659,
			"type":"VEC2"
		},
		{
			"bufferView":47,
			"componentType":5123,
			"count":936,
			"type":"SCALAR"
		}
	],
	"bufferViews":[
		{
			"buffer":0,
			"byteLength":23736,
			"byteOffset":0,
			"target":34962
		},
		{
			"buffer":0,
			"byteLength":23736,
			"byteOffset":23736,
			"target":34962
		},
		{
			"buffer":0,
			"byteLength":15824,
			"byteOffset":47472,
			"target":34962
		},
		{
			"buffer":0,
			"byteLength":5340,
			"byteOffset":63296,
			"target":34963
		},
		{
			"buffer":0,
			"byteLength":720,
			"byteOffset":68636,
			"target":34962
		},
		{
			"buffer":0,
			"byteLength":720,
			"byteOffset":69356,
			"target":34962
		},
		{
			"buffer":0,
			"byteLength":480,
			"byteOffset":70076,
			"target":34962
		},
		{
			"buffer":0,
			"byteLength":180,
			"byteOffset":70556,
			"target":34963
		},
		{
			"buffer":0,
			"byteLength":13644,
			"byteOffset":70736,
			"target":34962
		},
		{
			"buffer":0,
			"byteLength":13644,
			"byteOffset":84380,
			"target":34962
		},
		{
			"buffer":0,
			"byteLength":9096,
			"byteOffset":98024,
			"target":34962
		},
		{
			"buffer":0,
			"byteLength":3456,
			"byteOffset":107120,
			"target":34963
		},
		{
			"buffer":0,
			"byteLength":4464,
			"byteOffset":110576,
			"target":34962
		},
		{
			"buffer":0,
			"byteLength":4464,
			"byteOffset":115040,
			"target":34962
		},
		{
			"buffer":0,
			"byteLength":2976,
			"byteOffset":119504,
			"target":34962
		},
		{
			"buffer":0,
			"byteLength":1116,
			"byteOffset":122480,
			"target":34963
		},
		{
			"buffer":0,
			"byteLength":7056,
			"byteOffset":123596,
			"target":34962
		},
		{
			"buffer":0,
			"byteLength":7056,
			"byteOffset":130652,
			"target":34962
		},
		{
			"buffer":0,
			"byteLength":4704,
			"byteOffset":137708,
			"target":34962
		},
		{
			"buffer":0,
			"byteLength":1764,
			"byteOffset":142412,
			"target":34963
		},
		{
			"buffer":0,
			"byteLength":1716,
			"byteOffset":144176,
			"target":34962
		},
		{
			"buffer":0,
			"byteLength":1716,
			"byteOffset":145892,
			"target":34962
		},
		{
			"buffer":0,
			"byteLength":1144,
			"byteOffset":147608,
			"target":34962
		},
		{
			"buffer":0,
			"byteLength":468,
			"byteOffset":148752,
			"target":34963
		},
		{
			"buffer":0,
			"byteLength":432,
			"byteOffset":149220,
			"target":34962
		},
		{
			"buffer":0,
			"byteLength":432,
			"byteOffset":149652,
			"target":34962
		},
		{
			"buffer":0,
			"byteLength":288,
			"byteOffset":150084,
			"target":34962
		},
		{
			"buffer":0,
			"byteLength":96,
			"byteOffset":150372,
			"target":34963
		},
		{
			"buffer":0,
			"byteLength":13152,
			"byteOffset":150468,
			"target":34962
		},
		{
			"buffer":0,
			"byteLength":13152,
			"byteOffset":163620,
			"target":34962
		},
		{
			"buffer":0,
			"byteLength":8768,
			"byteOffset":176772,
			"target":34962
		},
		{
			"buffer":0,
			"byteLength":2796,
			"byteOffset":185540,
			"target":34963
		},
		{
			"buffer":0,
			"byteLength":48,
			"byteOffset":188336,
			"target":34962
		},
		{
			"buffer":0,
			"byteLength":48,
			"byteOffset":188384,
			"target":34962
		},
		{
			"buffer":0,
			"byteLength":32,
			"byteOffset":188432,
			"target":34962
		},
		{
			"buffer":0,
			"byteLength":12,
			"byteOffset":188464,
			"target":34963
		},
		{
			"buffer":0,
			"byteLength":1824,
			"byteOffset":188476,
			"target":34962
		},
		{
			"buffer":0,
			"byteLength":1824,
			"byteOffset":190300,
			"target":34962
		},
		{
			"buffer":0,
			"byteLength":1216,
			"byteOffset":192124,
			"target":34962
		},
		{
			"buffer":0,
			"byteLength":420,
			"byteOffset":193340,
			"target":34963
		},
		{
			"buffer":0,
			"byteLength":288,
			"byteOffset":193760,
			"target":34962
		},
		{
			"buffer":0,
			"byteLength":288,
			"byteOffset":194048,
			"target":34962
		},
		{
			"buffer":0,
			"byteLength":192,
			"byteOffset":194336,
			"target":34962
		},
		{
			"buffer":0,
			"byteLength":72,
			"byteOffset":194528,
			"target":34963
		},
		{
			"buffer":0,
			"byteLength":7908,
			"byteOffset":194600,
			"target":34962
		},
		{
			"buffer":0,
			"byteLength":7908,
			"byteOffset":202508,
			"target":34962
		},
		{
			"buffer":0,
			"byteLength":5272,
			"byteOffset":210416,
			"target":34962
		},
		{
			"buffer":0,
			"byteLength":1872,
			"byteOffset":215688,
			"target":34963
		}
	],
	"samplers":[
		{
			"magFilter":9729,
			"minFilter":9987
		}
	],
	"buffers":[
		{
			"byteLength":217560,
			"uri":"u2SEBuild12.bin"
		}
	]
}
