{
	"asset":{
		"generator":"Khronos glTF Blender I/O v5.0.21",
		"version":"2.0"
	},
	"extensionsUsed":[
		"KHR_materials_specular",
		"KHR_materials_ior"
	],
	"scene":0,
	"scenes":[
		{
			"name":"Scene",
			"nodes":[
				0
			]
		}
	],
	"nodes":[
		{
			"mesh":0,
			"name":"u2SEBuild5",
			"rotation":[
				0.70710688829422,
				0,
				0,
				0.7071066498756409
			]
		}
	],
	"materials":[
		{
			"doubleSided":true,
			"extensions":{
				"KHR_materials_specular":{
					"specularColorFactor":[
						0.04800000041723251,
						0.04800000041723251,
						0.04800000041723251
					]
				},
				"KHR_materials_ior":{
					"ior":0
				}
			},
			"name":"Concrete2_u2SEBuild5_1",
			"pbrMetallicRoughness":{
				"baseColorTexture":{
					"index":0
				},
				"metallicFactor":0,
				"roughnessFactor":0.9687750339508057
			}
		},
		{
			"doubleSided":true,
			"extensions":{
				"KHR_materials_specular":{
					"specularColorFactor":[
						0.04800000041723251,
						0.04800000041723251,
						0.04800000041723251
					]
				},
				"KHR_materials_ior":{
					"ior":0
				}
			},
			"name":"Props1_u2SEBuild5_1",
			"pbrMetallicRoughness":{
				"baseColorTexture":{
					"index":1
				},
				"metallicFactor":0,
				"roughnessFactor":0.9685357213020325
			}
		},
		{
			"doubleSided":true,
			"extensions":{
				"KHR_materials_specular":{
					"specularColorFactor":[
						0.04800000041723251,
						0.04800000041723251,
						0.04800000041723251
					]
				},
				"KHR_materials_ior":{
					"ior":0
				}
			},
			"name":"BrickRed_u2SEBuild5_1",
			"pbrMetallicRoughness":{
				"baseColorTexture":{
					"index":2
				},
				"metallicFactor":0,
				"roughnessFactor":0.9687750339508057
			}
		},
		{
			"doubleSided":true,
			"extensions":{
				"KHR_materials_specular":{
					"specularColorFactor":[
						0.04800000041723251,
						0.04800000041723251,
						0.04800000041723251
					]
				},
				"KHR_materials_ior":{
					"ior":0
				}
			},
			"name":"Brick3_u2SEBuild5_1",
			"pbrMetallicRoughness":{
				"baseColorTexture":{
					"index":3
				},
				"metallicFactor":0,
				"roughnessFactor":0.9687750339508057
			}
		},
		{
			"doubleSided":true,
			"extensions":{
				"KHR_materials_specular":{
					"specularColorFactor":[
						0.04800000041723251,
						0.04800000041723251,
						0.04800000041723251
					]
				},
				"KHR_materials_ior":{
					"ior":0
				}
			},
			"name":"MetalLight_u2SEBuild5_1",
			"pbrMetallicRoughness":{
				"baseColorTexture":{
					"index":4
				},
				"metallicFactor":0,
				"roughnessFactor":0.9687750339508057
			}
		},
		{
			"doubleSided":true,
			"extensions":{
				"KHR_materials_specular":{
					"specularColorFactor":[
						0.04800000041723251,
						0.04800000041723251,
						0.04800000041723251
					]
				},
				"KHR_materials_ior":{
					"ior":0
				}
			},
			"name":"RooftopProps_u2SEBuild5_1",
			"pbrMetallicRoughness":{
				"baseColorTexture":{
					"index":5
				},
				"metallicFactor":0,
				"roughnessFactor":0.9685357213020325
			}
		},
		{
			"doubleSided":true,
			"extensions":{
				"KHR_materials_specular":{
					"specularColorFactor":[
						0.04800000041723251,
						0.04800000041723251,
						0.04800000041723251
					]
				},
				"KHR_materials_ior":{
					"ior":0
				}
			},
			"name":"MetalDark_u2SEBuild5_1",
			"pbrMetallicRoughness":{
				"baseColorTexture":{
					"index":6
				},
				"metallicFactor":0,
				"roughnessFactor":0.9691779017448425
			}
		},
		{
			"doubleSided":true,
			"extensions":{
				"KHR_materials_specular":{
					"specularColorFactor":[
						0.04800000041723251,
						0.04800000041723251,
						0.04800000041723251
					]
				},
				"KHR_materials_ior":{
					"ior":0
				}
			},
			"name":"SkylightGlass_u2SEBuild5_1",
			"pbrMetallicRoughness":{
				"baseColorTexture":{
					"index":7
				},
				"metallicFactor":0,
				"roughnessFactor":0.9687750339508057
			}
		},
		{
			"doubleSided":true,
			"extensions":{
				"KHR_materials_specular":{
					"specularColorFactor":[
						0.04800000041723251,
						0.04800000041723251,
						0.04800000041723251
					]
				},
				"KHR_materials_ior":{
					"ior":0
				}
			},
			"name":"MetalGrey_u2SEBuild5_1",
			"pbrMetallicRoughness":{
				"baseColorTexture":{
					"index":8
				},
				"metallicFactor":0,
				"roughnessFactor":0.9687750339508057
			}
		},
		{
			"doubleSided":true,
			"extensions":{
				"KHR_materials_specular":{
					"specularColorFactor":[
						0.04800000041723251,
						0.04800000041723251,
						0.04800000041723251
					]
				},
				"KHR_materials_ior":{
					"ior":0
				}
			},
			"name":"YellowPaint_u2SEBuild5_1",
			"pbrMetallicRoughness":{
				"baseColorTexture":{
					"index":9
				},
				"metallicFactor":0,
				"roughnessFactor":0.9693813920021057
			}
		},
		{
			"doubleSided":true,
			"extensions":{
				"KHR_materials_specular":{
					"specularColorFactor":[
						0.04800000041723251,
						0.04800000041723251,
						0.04800000041723251
					]
				},
				"KHR_materials_ior":{
					"ior":0
				}
			},
			"name":"WindowE2_u2SEBuild5_1",
			"pbrMetallicRoughness":{
				"baseColorTexture":{
					"index":10
				},
				"metallicFactor":0,
				"roughnessFactor":0.9691779017448425
			}
		},
		{
			"doubleSided":true,
			"extensions":{
				"KHR_materials_specular":{
					"specularColorFactor":[
						0.04800000041723251,
						0.04800000041723251,
						0.04800000041723251
					]
				},
				"KHR_materials_ior":{
					"ior":0
				}
			},
			"name":"WindowE1_u2SEBuild5_1",
			"pbrMetallicRoughness":{
				"baseColorTexture":{
					"index":11
				},
				"metallicFactor":0,
				"roughnessFactor":0.9691779017448425
			}
		}
	],
	"meshes":[
		{
			"name":"Urban Sprawl 2.032",
			"primitives":[
				{
					"attributes":{
						"POSITION":0,
						"NORMAL":1,
						"TEXCOORD_0":2
					},
					"indices":3,
					"material":0
				},
				{
					"attributes":{
						"POSITION":4,
						"NORMAL":5,
						"TEXCOORD_0":6
					},
					"indices":7,
					"material":1
				},
				{
					"attributes":{
						"POSITION":8,
						"NORMAL":9,
						"TEXCOORD_0":10
					},
					"indices":11,
					"material":2
				},
				{
					"attributes":{
						"POSITION":12,
						"NORMAL":13,
						"TEXCOORD_0":14
					},
					"indices":15,
					"material":3
				},
				{
					"attributes":{
						"POSITION":16,
						"NORMAL":17,
						"TEXCOORD_0":18
					},
					"indices":19,
					"material":4
				},
				{
					"attributes":{
						"POSITION":20,
						"NORMAL":21,
						"TEXCOORD_0":22
					},
					"indices":23,
					"material":5
				},
				{
					"attributes":{
						"POSITION":24,
						"NORMAL":25,
						"TEXCOORD_0":26
					},
					"indices":27,
					"material":6
				},
				{
					"attributes":{
						"POSITION":28,
						"NORMAL":29,
						"TEXCOORD_0":30
					},
					"indices":31,
					"material":7
				},
				{
					"attributes":{
						"POSITION":32,
						"NORMAL":33,
						"TEXCOORD_0":34
					},
					"indices":35,
					"material":8
				},
				{
					"attributes":{
						"POSITION":36,
						"NORMAL":37,
						"TEXCOORD_0":38
					},
					"indices":39,
					"material":9
				},
				{
					"attributes":{
						"POSITION":40,
						"NORMAL":41,
						"TEXCOORD_0":42
					},
					"indices":43,
					"material":10
				},
				{
					"attributes":{
						"POSITION":44,
						"NORMAL":45,
						"TEXCOORD_0":46
					},
					"indices":47,
					"material":11
				}
			]
		}
	],
	"textures":[
		{
			"sampler":0,
			"source":0
		},
		{
			"sampler":0,
			"source":1
		},
		{
			"sampler":0,
			"source":2
		},
		{
			"sampler":0,
			"source":3
		},
		{
			"sampler":0,
			"source":4
		},
		{
			"sampler":0,
			"source":5
		},
		{
			"sampler":0,
			"source":6
		},
		{
			"sampler":0,
			"source":4
		},
		{
			"sampler":0,
			"source":4
		},
		{
			"sampler":0,
			"source":7
		},
		{
			"sampler":0,
			"source":8
		},
		{
			"sampler":0,
			"source":8
		}
	],
	"images":[
		{
			"mimeType":"image/jpeg",
			"name":"u2crete1",
			"uri":"u2crete1.jpg"
		},
		{
			"mimeType":"image/jpeg",
			"name":"u2props1",
			"uri":"u2props1.jpg"
		},
		{
			"mimeType":"image/jpeg",
			"name":"u2brick2",
			"uri":"u2brick2.jpg"
		},
		{
			"mimeType":"image/jpeg",
			"name":"Bricks",
			"uri":"Bricks.jpg"
		},
		{
			"mimeType":"image/jpeg",
			"name":"u2metal1",
			"uri":"u2metal1.jpg"
		},
		{
			"mimeType":"image/jpeg",
			"name":"u2props4",
			"uri":"u2props4.jpg"
		},
		{
			"mimeType":"image/jpeg",
			"name":"u2metdark",
			"uri":"u2metdark.jpg"
		},
		{
			"mimeType":"image/jpeg",
			"name":"u2yellow",
			"uri":"u2yellow.jpg"
		},
		{
			"mimeType":"image/jpeg",
			"name":"u2win3",
			"uri":"u2win3.jpg"
		}
	],
	"accessors":[
		{
			"bufferView":0,
			"componentType":5126,
			"count":781,
			"max":[
				27.153400421142578,
				24.212200164794922,
				0.4799039959907532
			],
			"min":[
				15.222599983215332,
				20.110300064086914,
				-15.14109992980957
			],
			"type":"VEC3"
		},
		{
			"bufferView":1,
			"componentType":5126,
			"count":781,
			"type":"VEC3"
		},
		{
			"bufferView":2,
			"componentType":5126,
			"count":781,
			"type":"VEC2"
		},
		{
			"bufferView":3,
			"componentType":5123,
			"count":2268,
			"type":"SCALAR"
		},
		{
			"bufferView":4,
			"componentType":5126,
			"count":700,
			"max":[
				26.99970054626465,
				24.09830093383789,
				-2.602099895477295
			],
			"min":[
				15.39009952545166,
				20.247600555419922,
				-14.538399696350098
			],
			"type":"VEC3"
		},
		{
			"bufferView":5,
			"componentType":5126,
			"count":700,
			"type":"VEC3"
		},
		{
			"bufferView":6,
			"componentType":5126,
			"count":700,
			"type":"VEC2"
		},
		{
			"bufferView":7,
			"componentType":5123,
			"count":1050,
			"type":"SCALAR"
		},
		{
			"bufferView":8,
			"componentType":5126,
			"count":11199,
			"max":[
				27.025100708007812,
				24.123699188232422,
				-0.1910420060157776
			],
			"min":[
				15.364700317382812,
				20.222200393676758,
				-15.000399589538574
			],
			"type":"VEC3"
		},
		{
			"bufferView":9,
			"componentType":5126,
			"count":11199,
			"type":"VEC3"
		},
		{
			"bufferView":10,
			"componentType":5126,
			"count":11199,
			"type":"VEC2"
		},
		{
			"bufferView":11,
			"componentType":5123,
			"count":20424,
			"type":"SCALAR"
		},
		{
			"bufferView":12,
			"componentType":5126,
			"count":960,
			"max":[
				27.025100708007812,
				24.123699188232422,
				-1.0504200458526611
			],
			"min":[
				15.364700317382812,
				20.222200393676758,
				-14.911999702453613
			],
			"type":"VEC3"
		},
		{
			"bufferView":13,
			"componentType":5126,
			"count":960,
			"type":"VEC3"
		},
		{
			"bufferView":14,
			"componentType":5126,
			"count":960,
			"type":"VEC2"
		},
		{
			"bufferView":15,
			"componentType":5123,
			"count":1440,
			"type":"SCALAR"
		},
		{
			"bufferView":16,
			"componentType":5126,
			"count":33,
			"max":[
				17.351299285888672,
				23.168100357055664,
				-15.118900299072266
			],
			"min":[
				17.135400772094727,
				22.955299377441406,
				-15.335800170898438
			],
			"type":"VEC3"
		},
		{
			"bufferView":17,
			"componentType":5126,
			"count":33,
			"type":"VEC3"
		},
		{
			"bufferView":18,
			"componentType":5126,
			"count":33,
			"type":"VEC2"
		},
		{
			"bufferView":19,
			"componentType":5123,
			"count":54,
			"type":"SCALAR"
		},
		{
			"bufferView":20,
			"componentType":5126,
			"count":262,
			"max":[
				17.710899353027344,
				23.184499740600586,
				-15.069899559020996
			],
			"min":[
				17.11870002746582,
				21.80229949951172,
				-15.856300354003906
			],
			"type":"VEC3"
		},
		{
			"bufferView":21,
			"componentType":5126,
			"count":262,
			"type":"VEC3"
		},
		{
			"bufferView":22,
			"componentType":5126,
			"count":262,
			"type":"VEC2"
		},
		{
			"bufferView":23,
			"componentType":5123,
			"count":582,
			"type":"SCALAR"
		},
		{
			"bufferView":24,
			"componentType":5126,
			"count":1668,
			"max":[
				19.617700576782227,
				23.157400131225586,
				-15.018899917602539
			],
			"min":[
				16.44969940185547,
				20.196399688720703,
				-17.05430030822754
			],
			"type":"VEC3"
		},
		{
			"bufferView":25,
			"componentType":5126,
			"count":1668,
			"type":"VEC3"
		},
		{
			"bufferView":26,
			"componentType":5126,
			"count":1668,
			"type":"VEC2"
		},
		{
			"bufferView":27,
			"componentType":5123,
			"count":2472,
			"type":"SCALAR"
		},
		{
			"bufferView":28,
			"componentType":5126,
			"count":68,
			"max":[
				18.788000106811523,
				23.13610076904297,
				-15.212800025939941
			],
			"min":[
				16.471099853515625,
				21.75320053100586,
				-15.328100204467773
			],
			"type":"VEC3"
		},
		{
			"bufferView":29,
			"componentType":5126,
			"count":68,
			"type":"VEC3"
		},
		{
			"bufferView":30,
			"componentType":5126,
			"count":68,
			"type":"VEC2"
		},
		{
			"bufferView":31,
			"componentType":5123,
			"count":96,
			"type":"SCALAR"
		},
		{
			"bufferView":32,
			"componentType":5126,
			"count":126,
			"max":[
				18.83300018310547,
				23.181100845336914,
				-15.088500022888184
			],
			"min":[
				16.426000595092773,
				21.727399826049805,
				-15.152899742126465
			],
			"type":"VEC3"
		},
		{
			"bufferView":33,
			"componentType":5126,
			"count":126,
			"type":"VEC3"
		},
		{
			"bufferView":34,
			"componentType":5126,
			"count":126,
			"type":"VEC2"
		},
		{
			"bufferView":35,
			"componentType":5123,
			"count":192,
			"type":"SCALAR"
		},
		{
			"bufferView":36,
			"componentType":5126,
			"count":836,
			"max":[
				19.36440086364746,
				23.71540069580078,
				-15.090700149536133
			],
			"min":[
				16.273300170898438,
				20.62070083618164,
				-15.377099990844727
			],
			"type":"VEC3"
		},
		{
			"bufferView":37,
			"componentType":5126,
			"count":836,
			"type":"VEC3"
		},
		{
			"bufferView":38,
			"componentType":5126,
			"count":836,
			"type":"VEC2"
		},
		{
			"bufferView":39,
			"componentType":5123,
			"count":1248,
			"type":"SCALAR"
		},
		{
			"bufferView":40,
			"componentType":5126,
			"count":626,
			"max":[
				26.835500717163086,
				23.934099197387695,
				-1.3870099782943726
			],
			"min":[
				15.554200172424316,
				20.411800384521484,
				-14.85789966583252
			],
			"type":"VEC3"
		},
		{
			"bufferView":41,
			"componentType":5126,
			"count":626,
			"type":"VEC3"
		},
		{
			"bufferView":42,
			"componentType":5126,
			"count":626,
			"type":"VEC2"
		},
		{
			"bufferView":43,
			"componentType":5123,
			"count":1386,
			"type":"SCALAR"
		},
		{
			"bufferView":44,
			"componentType":5126,
			"count":1714,
			"max":[
				26.835500717163086,
				23.934099197387695,
				-1.3870099782943726
			],
			"min":[
				15.554200172424316,
				20.411800384521484,
				-14.85789966583252
			],
			"type":"VEC3"
		},
		{
			"bufferView":45,
			"componentType":5126,
			"count":1714,
			"type":"VEC3"
		},
		{
			"bufferView":46,
			"componentType":5126,
			"count":1714,
			"type":"VEC2"
		},
		{
			"bufferView":47,
			"componentType":5123,
			"count":3798,
			"type":"SCALAR"
		}
	],
	"bufferViews":[
		{
			"buffer":0,
			"byteLength":9372,
			"byteOffset":0,
			"target":34962
		},
		{
			"buffer":0,
			"byteLength":9372,
			"byteOffset":9372,
			"target":34962
		},
		{
			"buffer":0,
			"byteLength":6248,
			"byteOffset":18744,
			"target":34962
		},
		{
			"buffer":0,
			"byteLength":4536,
			"byteOffset":24992,
			"target":34963
		},
		{
			"buffer":0,
			"byteLength":8400,
			"byteOffset":29528,
			"target":34962
		},
		{
			"buffer":0,
			"byteLength":8400,
			"byteOffset":37928,
			"target":34962
		},
		{
			"buffer":0,
			"byteLength":5600,
			"byteOffset":46328,
			"target":34962
		},
		{
			"buffer":0,
			"byteLength":2100,
			"byteOffset":51928,
			"target":34963
		},
		{
			"buffer":0,
			"byteLength":134388,
			"byteOffset":54028,
			"target":34962
		},
		{
			"buffer":0,
			"byteLength":134388,
			"byteOffset":188416,
			"target":34962
		},
		{
			"buffer":0,
			"byteLength":89592,
			"byteOffset":322804,
			"target":34962
		},
		{
			"buffer":0,
			"byteLength":40848,
			"byteOffset":412396,
			"target":34963
		},
		{
			"buffer":0,
			"byteLength":11520,
			"byteOffset":453244,
			"target":34962
		},
		{
			"buffer":0,
			"byteLength":11520,
			"byteOffset":464764,
			"target":34962
		},
		{
			"buffer":0,
			"byteLength":7680,
			"byteOffset":476284,
			"target":34962
		},
		{
			"buffer":0,
			"byteLength":2880,
			"byteOffset":483964,
			"target":34963
		},
		{
			"buffer":0,
			"byteLength":396,
			"byteOffset":486844,
			"target":34962
		},
		{
			"buffer":0,
			"byteLength":396,
			"byteOffset":487240,
			"target":34962
		},
		{
			"buffer":0,
			"byteLength":264,
			"byteOffset":487636,
			"target":34962
		},
		{
			"buffer":0,
			"byteLength":108,
			"byteOffset":487900,
			"target":34963
		},
		{
			"buffer":0,
			"byteLength":3144,
			"byteOffset":488008,
			"target":34962
		},
		{
			"buffer":0,
			"byteLength":3144,
			"byteOffset":491152,
			"target":34962
		},
		{
			"buffer":0,
			"byteLength":2096,
			"byteOffset":494296,
			"target":34962
		},
		{
			"buffer":0,
			"byteLength":1164,
			"byteOffset":496392,
			"target":34963
		},
		{
			"buffer":0,
			"byteLength":20016,
			"byteOffset":497556,
			"target":34962
		},
		{
			"buffer":0,
			"byteLength":20016,
			"byteOffset":517572,
			"target":34962
		},
		{
			"buffer":0,
			"byteLength":13344,
			"byteOffset":537588,
			"target":34962
		},
		{
			"buffer":0,
			"byteLength":4944,
			"byteOffset":550932,
			"target":34963
		},
		{
			"buffer":0,
			"byteLength":816,
			"byteOffset":555876,
			"target":34962
		},
		{
			"buffer":0,
			"byteLength":816,
			"byteOffset":556692,
			"target":34962
		},
		{
			"buffer":0,
			"byteLength":544,
			"byteOffset":557508,
			"target":34962
		},
		{
			"buffer":0,
			"byteLength":192,
			"byteOffset":558052,
			"target":34963
		},
		{
			"buffer":0,
			"byteLength":1512,
			"byteOffset":558244,
			"target":34962
		},
		{
			"buffer":0,
			"byteLength":1512,
			"byteOffset":559756,
			"target":34962
		},
		{
			"buffer":0,
			"byteLength":1008,
			"byteOffset":561268,
			"target":34962
		},
		{
			"buffer":0,
			"byteLength":384,
			"byteOffset":562276,
			"target":34963
		},
		{
			"buffer":0,
			"byteLength":10032,
			"byteOffset":562660,
			"target":34962
		},
		{
			"buffer":0,
			"byteLength":10032,
			"byteOffset":572692,
			"target":34962
		},
		{
			"buffer":0,
			"byteLength":6688,
			"byteOffset":582724,
			"target":34962
		},
		{
			"buffer":0,
			"byteLength":2496,
			"byteOffset":589412,
			"target":34963
		},
		{
			"buffer":0,
			"byteLength":7512,
			"byteOffset":591908,
			"target":34962
		},
		{
			"buffer":0,
			"byteLength":7512,
			"byteOffset":599420,
			"target":34962
		},
		{
			"buffer":0,
			"byteLength":5008,
			"byteOffset":606932,
			"target":34962
		},
		{
			"buffer":0,
			"byteLength":2772,
			"byteOffset":611940,
			"target":34963
		},
		{
			"buffer":0,
			"byteLength":20568,
			"byteOffset":614712,
			"target":34962
		},
		{
			"buffer":0,
			"byteLength":20568,
			"byteOffset":635280,
			"target":34962
		},
		{
			"buffer":0,
			"byteLength":13712,
			"byteOffset":655848,
			"target":34962
		},
		{
			"buffer":0,
			"byteLength":7596,
			"byteOffset":669560,
			"target":34963
		}
	],
	"samplers":[
		{
			"magFilter":9729,
			"minFilter":9987
		}
	],
	"buffers":[
		{
			"byteLength":677156,
			"uri":"u2SEBuild5.bin"
		}
	]
}
