{
	"asset":{
		"generator":"Khronos glTF Blender I/O v5.0.21",
		"version":"2.0"
	},
	"extensionsUsed":[
		"KHR_materials_specular",
		"KHR_materials_ior"
	],
	"scene":0,
	"scenes":[
		{
			"name":"Scene",
			"nodes":[
				0
			]
		}
	],
	"nodes":[
		{
			"mesh":0,
			"name":"u2SEBuild9",
			"rotation":[
				0.70710688829422,
				0,
				0,
				0.7071066498756409
			]
		}
	],
	"materials":[
		{
			"doubleSided":true,
			"extensions":{
				"KHR_materials_specular":{
					"specularColorFactor":[
						0.04800000041723251,
						0.04800000041723251,
						0.04800000041723251
					]
				},
				"KHR_materials_ior":{
					"ior":0
				}
			},
			"name":"Brick2_u2SEBuild9_1",
			"pbrMetallicRoughness":{
				"baseColorTexture":{
					"index":0
				},
				"metallicFactor":0,
				"roughnessFactor":0.9687750339508057
			}
		},
		{
			"doubleSided":true,
			"extensions":{
				"KHR_materials_specular":{
					"specularColorFactor":[
						0.04800000041723251,
						0.04800000041723251,
						0.04800000041723251
					]
				},
				"KHR_materials_ior":{
					"ior":0
				}
			},
			"name":"Concrete2_u2SEBuild9_1",
			"pbrMetallicRoughness":{
				"baseColorTexture":{
					"index":1
				},
				"metallicFactor":0,
				"roughnessFactor":0.9687750339508057
			}
		},
		{
			"doubleSided":true,
			"extensions":{
				"KHR_materials_specular":{
					"specularColorFactor":[
						0.04800000041723251,
						0.04800000041723251,
						0.04800000041723251
					]
				},
				"KHR_materials_ior":{
					"ior":0
				}
			},
			"name":"Signs2_u2SEBuild9_1",
			"pbrMetallicRoughness":{
				"baseColorTexture":{
					"index":2
				},
				"metallicFactor":0,
				"roughnessFactor":0.9686418771743774
			}
		},
		{
			"doubleSided":true,
			"extensions":{
				"KHR_materials_specular":{
					"specularColorFactor":[
						0.04800000041723251,
						0.04800000041723251,
						0.04800000041723251
					]
				},
				"KHR_materials_ior":{
					"ior":0
				}
			},
			"name":"MetalDark_u2SEBuild9_1",
			"pbrMetallicRoughness":{
				"baseColorTexture":{
					"index":3
				},
				"metallicFactor":0,
				"roughnessFactor":0.9700000286102295
			}
		},
		{
			"doubleSided":true,
			"extensions":{
				"KHR_materials_specular":{
					"specularColorFactor":[
						0.04800000041723251,
						0.04800000041723251,
						0.04800000041723251
					]
				},
				"KHR_materials_ior":{
					"ior":0
				}
			},
			"name":"Props2_u2SEBuild9_1",
			"pbrMetallicRoughness":{
				"baseColorTexture":{
					"index":4
				},
				"metallicFactor":0,
				"roughnessFactor":0.9685357213020325
			}
		},
		{
			"doubleSided":true,
			"extensions":{
				"KHR_materials_specular":{
					"specularColorFactor":[
						0.04800000041723251,
						0.04800000041723251,
						0.04800000041723251
					]
				},
				"KHR_materials_ior":{
					"ior":0
				}
			},
			"name":"RooftopProps_u2SEBuild9_1",
			"pbrMetallicRoughness":{
				"baseColorTexture":{
					"index":5
				},
				"metallicFactor":0,
				"roughnessFactor":0.9685357213020325
			}
		}
	],
	"meshes":[
		{
			"name":"Urban Sprawl 2.036",
			"primitives":[
				{
					"attributes":{
						"POSITION":0,
						"NORMAL":1,
						"TEXCOORD_0":2
					},
					"indices":3,
					"material":0
				},
				{
					"attributes":{
						"POSITION":4,
						"NORMAL":5,
						"TEXCOORD_0":6
					},
					"indices":7,
					"material":1
				},
				{
					"attributes":{
						"POSITION":8,
						"NORMAL":9,
						"TEXCOORD_0":10
					},
					"indices":11,
					"material":2
				},
				{
					"attributes":{
						"POSITION":12,
						"NORMAL":13,
						"TEXCOORD_0":14
					},
					"indices":15,
					"material":3
				},
				{
					"attributes":{
						"POSITION":16,
						"NORMAL":17,
						"TEXCOORD_0":18
					},
					"indices":19,
					"material":4
				},
				{
					"attributes":{
						"POSITION":20,
						"NORMAL":21,
						"TEXCOORD_0":22
					},
					"indices":23,
					"material":5
				}
			]
		}
	],
	"textures":[
		{
			"sampler":0,
			"source":0
		},
		{
			"sampler":0,
			"source":1
		},
		{
			"sampler":0,
			"source":2
		},
		{
			"sampler":0,
			"source":3
		},
		{
			"sampler":0,
			"source":4
		},
		{
			"sampler":0,
			"source":5
		}
	],
	"images":[
		{
			"mimeType":"image/jpeg",
			"name":"u2brick2",
			"uri":"u2brick2.jpg"
		},
		{
			"mimeType":"image/jpeg",
			"name":"u2pave3",
			"uri":"u2pave3.jpg"
		},
		{
			"mimeType":"image/jpeg",
			"name":"u2signs1",
			"uri":"u2signs1.jpg"
		},
		{
			"mimeType":"image/jpeg",
			"name":"u2metdark",
			"uri":"u2metdark.jpg"
		},
		{
			"mimeType":"image/jpeg",
			"name":"u2props2",
			"uri":"u2props2.jpg"
		},
		{
			"mimeType":"image/jpeg",
			"name":"u2props4",
			"uri":"u2props4.jpg"
		}
	],
	"accessors":[
		{
			"bufferView":0,
			"componentType":5126,
			"count":168,
			"max":[
				9.16316032409668,
				37.929901123046875,
				-0.18183200061321259
			],
			"min":[
				4.46589994430542,
				32.306800842285156,
				-3.965329885482788
			],
			"type":"VEC3"
		},
		{
			"bufferView":1,
			"componentType":5126,
			"count":168,
			"type":"VEC3"
		},
		{
			"bufferView":2,
			"componentType":5126,
			"count":168,
			"type":"VEC2"
		},
		{
			"bufferView":3,
			"componentType":5123,
			"count":336,
			"type":"SCALAR"
		},
		{
			"bufferView":4,
			"componentType":5126,
			"count":5,
			"max":[
				9.16310977935791,
				37.929901123046875,
				-3.660989999771118
			],
			"min":[
				4.46589994430542,
				32.3202018737793,
				-3.660989999771118
			],
			"type":"VEC3"
		},
		{
			"bufferView":5,
			"componentType":5126,
			"count":5,
			"type":"VEC3"
		},
		{
			"bufferView":6,
			"componentType":5126,
			"count":5,
			"type":"VEC2"
		},
		{
			"bufferView":7,
			"componentType":5123,
			"count":9,
			"type":"SCALAR"
		},
		{
			"bufferView":8,
			"componentType":5126,
			"count":24,
			"max":[
				7.950039863586426,
				37.959999084472656,
				-1.5479099750518799
			],
			"min":[
				3.1975700855255127,
				32.274600982666016,
				-3.622469902038574
			],
			"type":"VEC3"
		},
		{
			"bufferView":9,
			"componentType":5126,
			"count":24,
			"type":"VEC3"
		},
		{
			"bufferView":10,
			"componentType":5126,
			"count":24,
			"type":"VEC2"
		},
		{
			"bufferView":11,
			"componentType":5123,
			"count":36,
			"type":"SCALAR"
		},
		{
			"bufferView":12,
			"componentType":5126,
			"count":321,
			"max":[
				7.959499835968018,
				37.97930145263672,
				-0.25093400478363037
			],
			"min":[
				3.194040060043335,
				32.262298583984375,
				-3.563380002975464
			],
			"type":"VEC3"
		},
		{
			"bufferView":13,
			"componentType":5126,
			"count":321,
			"type":"VEC3"
		},
		{
			"bufferView":14,
			"componentType":5126,
			"count":321,
			"type":"VEC2"
		},
		{
			"bufferView":15,
			"componentType":5123,
			"count":480,
			"type":"SCALAR"
		},
		{
			"bufferView":16,
			"componentType":5126,
			"count":393,
			"max":[
				4.473100185394287,
				37.301700592041016,
				-1.1354199647903442
			],
			"min":[
				4.433949947357178,
				32.91619873046875,
				-3.5075600147247314
			],
			"type":"VEC3"
		},
		{
			"bufferView":17,
			"componentType":5126,
			"count":393,
			"type":"VEC3"
		},
		{
			"bufferView":18,
			"componentType":5126,
			"count":393,
			"type":"VEC2"
		},
		{
			"bufferView":19,
			"componentType":5123,
			"count":786,
			"type":"SCALAR"
		},
		{
			"bufferView":20,
			"componentType":5126,
			"count":294,
			"max":[
				8.149649620056152,
				35.81380081176758,
				-3.6529901027679443
			],
			"min":[
				6.012959957122803,
				33.799598693847656,
				-3.858959913253784
			],
			"type":"VEC3"
		},
		{
			"bufferView":21,
			"componentType":5126,
			"count":294,
			"type":"VEC3"
		},
		{
			"bufferView":22,
			"componentType":5126,
			"count":294,
			"type":"VEC2"
		},
		{
			"bufferView":23,
			"componentType":5123,
			"count":552,
			"type":"SCALAR"
		}
	],
	"bufferViews":[
		{
			"buffer":0,
			"byteLength":2016,
			"byteOffset":0,
			"target":34962
		},
		{
			"buffer":0,
			"byteLength":2016,
			"byteOffset":2016,
			"target":34962
		},
		{
			"buffer":0,
			"byteLength":1344,
			"byteOffset":4032,
			"target":34962
		},
		{
			"buffer":0,
			"byteLength":672,
			"byteOffset":5376,
			"target":34963
		},
		{
			"buffer":0,
			"byteLength":60,
			"byteOffset":6048,
			"target":34962
		},
		{
			"buffer":0,
			"byteLength":60,
			"byteOffset":6108,
			"target":34962
		},
		{
			"buffer":0,
			"byteLength":40,
			"byteOffset":6168,
			"target":34962
		},
		{
			"buffer":0,
			"byteLength":18,
			"byteOffset":6208,
			"target":34963
		},
		{
			"buffer":0,
			"byteLength":288,
			"byteOffset":6228,
			"target":34962
		},
		{
			"buffer":0,
			"byteLength":288,
			"byteOffset":6516,
			"target":34962
		},
		{
			"buffer":0,
			"byteLength":192,
			"byteOffset":6804,
			"target":34962
		},
		{
			"buffer":0,
			"byteLength":72,
			"byteOffset":6996,
			"target":34963
		},
		{
			"buffer":0,
			"byteLength":3852,
			"byteOffset":7068,
			"target":34962
		},
		{
			"buffer":0,
			"byteLength":3852,
			"byteOffset":10920,
			"target":34962
		},
		{
			"buffer":0,
			"byteLength":2568,
			"byteOffset":14772,
			"target":34962
		},
		{
			"buffer":0,
			"byteLength":960,
			"byteOffset":17340,
			"target":34963
		},
		{
			"buffer":0,
			"byteLength":4716,
			"byteOffset":18300,
			"target":34962
		},
		{
			"buffer":0,
			"byteLength":4716,
			"byteOffset":23016,
			"target":34962
		},
		{
			"buffer":0,
			"byteLength":3144,
			"byteOffset":27732,
			"target":34962
		},
		{
			"buffer":0,
			"byteLength":1572,
			"byteOffset":30876,
			"target":34963
		},
		{
			"buffer":0,
			"byteLength":3528,
			"byteOffset":32448,
			"target":34962
		},
		{
			"buffer":0,
			"byteLength":3528,
			"byteOffset":35976,
			"target":34962
		},
		{
			"buffer":0,
			"byteLength":2352,
			"byteOffset":39504,
			"target":34962
		},
		{
			"buffer":0,
			"byteLength":1104,
			"byteOffset":41856,
			"target":34963
		}
	],
	"samplers":[
		{
			"magFilter":9729,
			"minFilter":9987
		}
	],
	"buffers":[
		{
			"byteLength":42960,
			"uri":"u2SEBuild9.bin"
		}
	]
}
