{
	"asset":{
		"generator":"Khronos glTF Blender I/O v5.0.21",
		"version":"2.0"
	},
	"extensionsUsed":[
		"KHR_materials_specular",
		"KHR_materials_ior"
	],
	"scene":0,
	"scenes":[
		{
			"name":"Scene",
			"nodes":[
				0
			]
		}
	],
	"nodes":[
		{
			"mesh":0,
			"name":"u2SWBuild3",
			"rotation":[
				0.70710688829422,
				0,
				0,
				0.7071066498756409
			]
		}
	],
	"materials":[
		{
			"doubleSided":true,
			"extensions":{
				"KHR_materials_specular":{
					"specularColorFactor":[
						0.04800000041723251,
						0.04800000041723251,
						0.04800000041723251
					]
				},
				"KHR_materials_ior":{
					"ior":0
				}
			},
			"name":"Building6_u2SWBuild3_1",
			"pbrMetallicRoughness":{
				"baseColorTexture":{
					"index":0
				},
				"metallicFactor":0,
				"roughnessFactor":0.9687750339508057
			}
		},
		{
			"doubleSided":true,
			"extensions":{
				"KHR_materials_specular":{
					"specularColorFactor":[
						0.04800000041723251,
						0.04800000041723251,
						0.04800000041723251
					]
				},
				"KHR_materials_ior":{
					"ior":0
				}
			},
			"name":"Concrete_u2SWBuild3_1",
			"pbrMetallicRoughness":{
				"baseColorTexture":{
					"index":1
				},
				"metallicFactor":0,
				"roughnessFactor":0.9687750339508057
			}
		},
		{
			"doubleSided":true,
			"extensions":{
				"KHR_materials_specular":{
					"specularColorFactor":[
						0.04800000041723251,
						0.04800000041723251,
						0.04800000041723251
					]
				},
				"KHR_materials_ior":{
					"ior":0
				}
			},
			"name":"Building6Windows1_u2SWBuild3_1",
			"pbrMetallicRoughness":{
				"baseColorTexture":{
					"index":2
				},
				"metallicFactor":0,
				"roughnessFactor":0.9691779017448425
			}
		},
		{
			"doubleSided":true,
			"extensions":{
				"KHR_materials_specular":{
					"specularColorFactor":[
						0.04800000041723251,
						0.04800000041723251,
						0.04800000041723251
					]
				},
				"KHR_materials_ior":{
					"ior":0
				}
			},
			"name":"Building6Windows2_u2SWBuild3_1",
			"pbrMetallicRoughness":{
				"baseColorTexture":{
					"index":3
				},
				"metallicFactor":0,
				"roughnessFactor":0.9691779017448425
			}
		},
		{
			"doubleSided":true,
			"extensions":{
				"KHR_materials_specular":{
					"specularColorFactor":[
						0.04800000041723251,
						0.04800000041723251,
						0.04800000041723251
					]
				},
				"KHR_materials_ior":{
					"ior":0
				}
			},
			"name":"RooftopProps_u2SWBuild3_1",
			"pbrMetallicRoughness":{
				"baseColorTexture":{
					"index":4
				},
				"metallicFactor":0,
				"roughnessFactor":0.9685357213020325
			}
		},
		{
			"doubleSided":true,
			"extensions":{
				"KHR_materials_specular":{
					"specularColorFactor":[
						0.04800000041723251,
						0.04800000041723251,
						0.04800000041723251
					]
				},
				"KHR_materials_ior":{
					"ior":0
				}
			},
			"name":"MetalGrey_u2SWBuild3_1",
			"pbrMetallicRoughness":{
				"baseColorTexture":{
					"index":5
				},
				"metallicFactor":0,
				"roughnessFactor":0.9687750339508057
			}
		},
		{
			"doubleSided":true,
			"extensions":{
				"KHR_materials_specular":{
					"specularColorFactor":[
						0.04800000041723251,
						0.04800000041723251,
						0.04800000041723251
					]
				},
				"KHR_materials_ior":{
					"ior":0
				}
			},
			"name":"BlackMetalPanels_u2SWBuild3_1",
			"pbrMetallicRoughness":{
				"baseColorTexture":{
					"index":6
				},
				"metallicFactor":0,
				"roughnessFactor":0.9691779017448425
			}
		},
		{
			"doubleSided":true,
			"extensions":{
				"KHR_materials_specular":{
					"specularColorFactor":[
						0.04800000041723251,
						0.04800000041723251,
						0.04800000041723251
					]
				},
				"KHR_materials_ior":{
					"ior":0
				}
			},
			"name":"SkylightGlass_u2SWBuild3_1",
			"pbrMetallicRoughness":{
				"baseColorTexture":{
					"index":7
				},
				"metallicFactor":0,
				"roughnessFactor":0.9687750339508057
			}
		},
		{
			"doubleSided":true,
			"extensions":{
				"KHR_materials_specular":{
					"specularColorFactor":[
						0.04800000041723251,
						0.04800000041723251,
						0.04800000041723251
					]
				},
				"KHR_materials_ior":{
					"ior":0
				}
			},
			"name":"MetalDark_u2SWBuild3_1",
			"pbrMetallicRoughness":{
				"baseColorTexture":{
					"index":8
				},
				"metallicFactor":0,
				"roughnessFactor":0.9700000286102295
			}
		},
		{
			"doubleSided":true,
			"extensions":{
				"KHR_materials_specular":{
					"specularColorFactor":[
						0.04800000041723251,
						0.04800000041723251,
						0.04800000041723251
					]
				},
				"KHR_materials_ior":{
					"ior":0
				}
			},
			"name":"MetalLight_u2SWBuild3_1",
			"pbrMetallicRoughness":{
				"baseColorTexture":{
					"index":9
				},
				"metallicFactor":0,
				"roughnessFactor":0.9700000286102295
			}
		},
		{
			"doubleSided":true,
			"extensions":{
				"KHR_materials_specular":{
					"specularColorFactor":[
						0.04800000041723251,
						0.04800000041723251,
						0.04800000041723251
					]
				},
				"KHR_materials_ior":{
					"ior":0
				}
			},
			"name":"Props2_u2SWBuild3_1",
			"pbrMetallicRoughness":{
				"baseColorTexture":{
					"index":10
				},
				"metallicFactor":0,
				"roughnessFactor":0.9691779017448425
			}
		}
	],
	"meshes":[
		{
			"name":"Urban Sprawl 2.042",
			"primitives":[
				{
					"attributes":{
						"POSITION":0,
						"NORMAL":1,
						"TEXCOORD_0":2
					},
					"indices":3,
					"material":0
				},
				{
					"attributes":{
						"POSITION":4,
						"NORMAL":5,
						"TEXCOORD_0":6
					},
					"indices":7,
					"material":1
				},
				{
					"attributes":{
						"POSITION":8,
						"NORMAL":9,
						"TEXCOORD_0":10
					},
					"indices":11,
					"material":2
				},
				{
					"attributes":{
						"POSITION":12,
						"NORMAL":13,
						"TEXCOORD_0":14
					},
					"indices":15,
					"material":3
				},
				{
					"attributes":{
						"POSITION":16,
						"NORMAL":17,
						"TEXCOORD_0":18
					},
					"indices":19,
					"material":4
				},
				{
					"attributes":{
						"POSITION":20,
						"NORMAL":21,
						"TEXCOORD_0":22
					},
					"indices":23,
					"material":5
				},
				{
					"attributes":{
						"POSITION":24,
						"NORMAL":25,
						"TEXCOORD_0":26
					},
					"indices":27,
					"material":6
				},
				{
					"attributes":{
						"POSITION":28,
						"NORMAL":29,
						"TEXCOORD_0":30
					},
					"indices":31,
					"material":7
				},
				{
					"attributes":{
						"POSITION":32,
						"NORMAL":33,
						"TEXCOORD_0":34
					},
					"indices":35,
					"material":8
				},
				{
					"attributes":{
						"POSITION":36,
						"NORMAL":37,
						"TEXCOORD_0":38
					},
					"indices":39,
					"material":9
				},
				{
					"attributes":{
						"POSITION":40,
						"NORMAL":41,
						"TEXCOORD_0":42
					},
					"indices":43,
					"material":10
				}
			]
		}
	],
	"textures":[
		{
			"sampler":0,
			"source":0
		},
		{
			"sampler":0,
			"source":1
		},
		{
			"sampler":0,
			"source":0
		},
		{
			"sampler":0,
			"source":0
		},
		{
			"sampler":0,
			"source":2
		},
		{
			"sampler":0,
			"source":3
		},
		{
			"sampler":0,
			"source":4
		},
		{
			"sampler":0,
			"source":3
		},
		{
			"sampler":0,
			"source":5
		},
		{
			"sampler":0,
			"source":5
		},
		{
			"sampler":0,
			"source":6
		}
	],
	"images":[
		{
			"mimeType":"image/jpeg",
			"name":"u2bldg3",
			"uri":"u2bldg3.jpg"
		},
		{
			"mimeType":"image/jpeg",
			"name":"u2white",
			"uri":"u2white.jpg"
		},
		{
			"mimeType":"image/jpeg",
			"name":"u2props4",
			"uri":"u2props4.jpg"
		},
		{
			"mimeType":"image/jpeg",
			"name":"u2metal1",
			"uri":"u2metal1.jpg"
		},
		{
			"mimeType":"image/jpeg",
			"name":"u2blackpanel",
			"uri":"u2blackpanel.jpg"
		},
		{
			"mimeType":"image/jpeg",
			"name":"u2metdark",
			"uri":"u2metdark.jpg"
		},
		{
			"mimeType":"image/jpeg",
			"name":"u2props2",
			"uri":"u2props2.jpg"
		}
	],
	"accessors":[
		{
			"bufferView":0,
			"componentType":5126,
			"count":1200,
			"max":[
				-45.087501525878906,
				38.45930099487305,
				0.271373987197876
			],
			"min":[
				-58.08700180053711,
				25.45989990234375,
				-24.68899917602539
			],
			"type":"VEC3"
		},
		{
			"bufferView":1,
			"componentType":5126,
			"count":1200,
			"type":"VEC3"
		},
		{
			"bufferView":2,
			"componentType":5126,
			"count":1200,
			"type":"VEC2"
		},
		{
			"bufferView":3,
			"componentType":5123,
			"count":2448,
			"type":"SCALAR"
		},
		{
			"bufferView":4,
			"componentType":5126,
			"count":197,
			"max":[
				-45.087501525878906,
				38.45930099487305,
				-24.68899917602539
			],
			"min":[
				-58.08700180053711,
				25.45989990234375,
				-28.811500549316406
			],
			"type":"VEC3"
		},
		{
			"bufferView":5,
			"componentType":5126,
			"count":197,
			"type":"VEC3"
		},
		{
			"bufferView":6,
			"componentType":5126,
			"count":197,
			"type":"VEC2"
		},
		{
			"bufferView":7,
			"componentType":5123,
			"count":330,
			"type":"SCALAR"
		},
		{
			"bufferView":8,
			"componentType":5126,
			"count":106,
			"max":[
				-45.81010055541992,
				37.73680114746094,
				-0.9040669798851013
			],
			"min":[
				-57.36439895629883,
				26.18239974975586,
				-24.636999130249023
			],
			"type":"VEC3"
		},
		{
			"bufferView":9,
			"componentType":5126,
			"count":106,
			"type":"VEC3"
		},
		{
			"bufferView":10,
			"componentType":5126,
			"count":106,
			"type":"VEC2"
		},
		{
			"bufferView":11,
			"componentType":5123,
			"count":216,
			"type":"SCALAR"
		},
		{
			"bufferView":12,
			"componentType":5126,
			"count":65,
			"max":[
				-45.81010055541992,
				37.73680114746094,
				-2.3167099952697754
			],
			"min":[
				-57.36439895629883,
				26.18239974975586,
				-24.636999130249023
			],
			"type":"VEC3"
		},
		{
			"bufferView":13,
			"componentType":5126,
			"count":65,
			"type":"VEC3"
		},
		{
			"bufferView":14,
			"componentType":5126,
			"count":65,
			"type":"VEC2"
		},
		{
			"bufferView":15,
			"componentType":5123,
			"count":120,
			"type":"SCALAR"
		},
		{
			"bufferView":16,
			"componentType":5126,
			"count":4616,
			"max":[
				-46.49580001831055,
				36.96269989013672,
				-24.81839942932129
			],
			"min":[
				-56.385501861572266,
				27.412099838256836,
				-29.035999298095703
			],
			"type":"VEC3"
		},
		{
			"bufferView":17,
			"componentType":5126,
			"count":4616,
			"type":"VEC3"
		},
		{
			"bufferView":18,
			"componentType":5126,
			"count":4616,
			"type":"VEC2"
		},
		{
			"bufferView":19,
			"componentType":5123,
			"count":8604,
			"type":"SCALAR"
		},
		{
			"bufferView":20,
			"componentType":5126,
			"count":867,
			"max":[
				-47.38159942626953,
				37.03580093383789,
				-24.76569938659668
			],
			"min":[
				-56.61709976196289,
				26.681699752807617,
				-25.396799087524414
			],
			"type":"VEC3"
		},
		{
			"bufferView":21,
			"componentType":5126,
			"count":867,
			"type":"VEC3"
		},
		{
			"bufferView":22,
			"componentType":5126,
			"count":867,
			"type":"VEC2"
		},
		{
			"bufferView":23,
			"componentType":5123,
			"count":1266,
			"type":"SCALAR"
		},
		{
			"bufferView":24,
			"componentType":5126,
			"count":80,
			"max":[
				-46.54010009765625,
				37.66510009765625,
				-24.806699752807617
			],
			"min":[
				-49.81809997558594,
				26.980600357055664,
				-25.41200065612793
			],
			"type":"VEC3"
		},
		{
			"bufferView":25,
			"componentType":5126,
			"count":80,
			"type":"VEC3"
		},
		{
			"bufferView":26,
			"componentType":5126,
			"count":80,
			"type":"VEC2"
		},
		{
			"bufferView":27,
			"componentType":5123,
			"count":120,
			"type":"SCALAR"
		},
		{
			"bufferView":28,
			"componentType":5126,
			"count":72,
			"max":[
				-55.68130111694336,
				37.00749969482422,
				-25.020599365234375
			],
			"min":[
				-56.15719985961914,
				32.79389953613281,
				-25.14739990234375
			],
			"type":"VEC3"
		},
		{
			"bufferView":29,
			"componentType":5126,
			"count":72,
			"type":"VEC3"
		},
		{
			"bufferView":30,
			"componentType":5126,
			"count":72,
			"type":"VEC2"
		},
		{
			"bufferView":31,
			"componentType":5123,
			"count":96,
			"type":"SCALAR"
		},
		{
			"bufferView":32,
			"componentType":5126,
			"count":618,
			"max":[
				-55.657798767089844,
				37.02450180053711,
				-24.954599380493164
			],
			"min":[
				-56.18069839477539,
				32.77050018310547,
				-25.16390037536621
			],
			"type":"VEC3"
		},
		{
			"bufferView":33,
			"componentType":5126,
			"count":618,
			"type":"VEC3"
		},
		{
			"bufferView":34,
			"componentType":5126,
			"count":618,
			"type":"VEC2"
		},
		{
			"bufferView":35,
			"componentType":5123,
			"count":1008,
			"type":"SCALAR"
		},
		{
			"bufferView":36,
			"componentType":5126,
			"count":36,
			"max":[
				-47.25849914550781,
				31.63680076599121,
				-24.84709930419922
			],
			"min":[
				-57.35639953613281,
				26.598600387573242,
				-28.6117000579834
			],
			"type":"VEC3"
		},
		{
			"bufferView":37,
			"componentType":5126,
			"count":36,
			"type":"VEC3"
		},
		{
			"bufferView":38,
			"componentType":5126,
			"count":36,
			"type":"VEC2"
		},
		{
			"bufferView":39,
			"componentType":5123,
			"count":54,
			"type":"SCALAR"
		},
		{
			"bufferView":40,
			"componentType":5126,
			"count":1470,
			"max":[
				-47.685298919677734,
				31.718799591064453,
				-25.658100128173828
			],
			"min":[
				-56.31340026855469,
				26.516599655151367,
				-26.181100845336914
			],
			"type":"VEC3"
		},
		{
			"bufferView":41,
			"componentType":5126,
			"count":1470,
			"type":"VEC3"
		},
		{
			"bufferView":42,
			"componentType":5126,
			"count":1470,
			"type":"VEC2"
		},
		{
			"bufferView":43,
			"componentType":5123,
			"count":2208,
			"type":"SCALAR"
		}
	],
	"bufferViews":[
		{
			"buffer":0,
			"byteLength":14400,
			"byteOffset":0,
			"target":34962
		},
		{
			"buffer":0,
			"byteLength":14400,
			"byteOffset":14400,
			"target":34962
		},
		{
			"buffer":0,
			"byteLength":9600,
			"byteOffset":28800,
			"target":34962
		},
		{
			"buffer":0,
			"byteLength":4896,
			"byteOffset":38400,
			"target":34963
		},
		{
			"buffer":0,
			"byteLength":2364,
			"byteOffset":43296,
			"target":34962
		},
		{
			"buffer":0,
			"byteLength":2364,
			"byteOffset":45660,
			"target":34962
		},
		{
			"buffer":0,
			"byteLength":1576,
			"byteOffset":48024,
			"target":34962
		},
		{
			"buffer":0,
			"byteLength":660,
			"byteOffset":49600,
			"target":34963
		},
		{
			"buffer":0,
			"byteLength":1272,
			"byteOffset":50260,
			"target":34962
		},
		{
			"buffer":0,
			"byteLength":1272,
			"byteOffset":51532,
			"target":34962
		},
		{
			"buffer":0,
			"byteLength":848,
			"byteOffset":52804,
			"target":34962
		},
		{
			"buffer":0,
			"byteLength":432,
			"byteOffset":53652,
			"target":34963
		},
		{
			"buffer":0,
			"byteLength":780,
			"byteOffset":54084,
			"target":34962
		},
		{
			"buffer":0,
			"byteLength":780,
			"byteOffset":54864,
			"target":34962
		},
		{
			"buffer":0,
			"byteLength":520,
			"byteOffset":55644,
			"target":34962
		},
		{
			"buffer":0,
			"byteLength":240,
			"byteOffset":56164,
			"target":34963
		},
		{
			"buffer":0,
			"byteLength":55392,
			"byteOffset":56404,
			"target":34962
		},
		{
			"buffer":0,
			"byteLength":55392,
			"byteOffset":111796,
			"target":34962
		},
		{
			"buffer":0,
			"byteLength":36928,
			"byteOffset":167188,
			"target":34962
		},
		{
			"buffer":0,
			"byteLength":17208,
			"byteOffset":204116,
			"target":34963
		},
		{
			"buffer":0,
			"byteLength":10404,
			"byteOffset":221324,
			"target":34962
		},
		{
			"buffer":0,
			"byteLength":10404,
			"byteOffset":231728,
			"target":34962
		},
		{
			"buffer":0,
			"byteLength":6936,
			"byteOffset":242132,
			"target":34962
		},
		{
			"buffer":0,
			"byteLength":2532,
			"byteOffset":249068,
			"target":34963
		},
		{
			"buffer":0,
			"byteLength":960,
			"byteOffset":251600,
			"target":34962
		},
		{
			"buffer":0,
			"byteLength":960,
			"byteOffset":252560,
			"target":34962
		},
		{
			"buffer":0,
			"byteLength":640,
			"byteOffset":253520,
			"target":34962
		},
		{
			"buffer":0,
			"byteLength":240,
			"byteOffset":254160,
			"target":34963
		},
		{
			"buffer":0,
			"byteLength":864,
			"byteOffset":254400,
			"target":34962
		},
		{
			"buffer":0,
			"byteLength":864,
			"byteOffset":255264,
			"target":34962
		},
		{
			"buffer":0,
			"byteLength":576,
			"byteOffset":256128,
			"target":34962
		},
		{
			"buffer":0,
			"byteLength":192,
			"byteOffset":256704,
			"target":34963
		},
		{
			"buffer":0,
			"byteLength":7416,
			"byteOffset":256896,
			"target":34962
		},
		{
			"buffer":0,
			"byteLength":7416,
			"byteOffset":264312,
			"target":34962
		},
		{
			"buffer":0,
			"byteLength":4944,
			"byteOffset":271728,
			"target":34962
		},
		{
			"buffer":0,
			"byteLength":2016,
			"byteOffset":276672,
			"target":34963
		},
		{
			"buffer":0,
			"byteLength":432,
			"byteOffset":278688,
			"target":34962
		},
		{
			"buffer":0,
			"byteLength":432,
			"byteOffset":279120,
			"target":34962
		},
		{
			"buffer":0,
			"byteLength":288,
			"byteOffset":279552,
			"target":34962
		},
		{
			"buffer":0,
			"byteLength":108,
			"byteOffset":279840,
			"target":34963
		},
		{
			"buffer":0,
			"byteLength":17640,
			"byteOffset":279948,
			"target":34962
		},
		{
			"buffer":0,
			"byteLength":17640,
			"byteOffset":297588,
			"target":34962
		},
		{
			"buffer":0,
			"byteLength":11760,
			"byteOffset":315228,
			"target":34962
		},
		{
			"buffer":0,
			"byteLength":4416,
			"byteOffset":326988,
			"target":34963
		}
	],
	"samplers":[
		{
			"magFilter":9729,
			"minFilter":9987
		}
	],
	"buffers":[
		{
			"byteLength":331404,
			"uri":"u2SWBuild3.bin"
		}
	]
}
