{
	"asset":{
		"generator":"Khronos glTF Blender I/O v5.0.21",
		"version":"2.0"
	},
	"extensionsUsed":[
		"KHR_materials_specular",
		"KHR_materials_ior"
	],
	"scene":0,
	"scenes":[
		{
			"name":"Scene",
			"nodes":[
				0
			]
		}
	],
	"nodes":[
		{
			"mesh":0,
			"name":"u2SWBuild5",
			"rotation":[
				0.70710688829422,
				0,
				0,
				0.7071066498756409
			]
		}
	],
	"materials":[
		{
			"doubleSided":true,
			"extensions":{
				"KHR_materials_specular":{
					"specularColorFactor":[
						0.04800000041723251,
						0.04800000041723251,
						0.04800000041723251
					]
				},
				"KHR_materials_ior":{
					"ior":0
				}
			},
			"name":"Concrete1_u2SWBuild5_1",
			"pbrMetallicRoughness":{
				"baseColorTexture":{
					"index":0
				},
				"metallicFactor":0,
				"roughnessFactor":0.9687750339508057
			}
		},
		{
			"doubleSided":true,
			"extensions":{
				"KHR_materials_specular":{
					"specularColorFactor":[
						0.07790850102901459,
						0.07790850102901459,
						0.07790850102901459
					]
				},
				"KHR_materials_ior":{
					"ior":0
				}
			},
			"name":"WindowGroundlevel1_u2SWBuild5_1",
			"pbrMetallicRoughness":{
				"baseColorFactor":[
					0.9490200281143188,
					0.9568629860877991,
					0.9568629860877991,
					1
				],
				"metallicFactor":0,
				"roughnessFactor":0.9776393175125122
			}
		},
		{
			"doubleSided":true,
			"extensions":{
				"KHR_materials_specular":{
					"specularColorFactor":[
						0.04800000041723251,
						0.04800000041723251,
						0.04800000041723251
					]
				},
				"KHR_materials_ior":{
					"ior":0
				}
			},
			"name":"MetalGalvanized_u2SWBuild5_1",
			"pbrMetallicRoughness":{
				"baseColorTexture":{
					"index":1
				},
				"metallicFactor":0,
				"roughnessFactor":0.9687750339508057
			}
		},
		{
			"doubleSided":true,
			"extensions":{
				"KHR_materials_specular":{
					"specularColorFactor":[
						0.04800000041723251,
						0.04800000041723251,
						0.04800000041723251
					]
				},
				"KHR_materials_ior":{
					"ior":0
				}
			},
			"name":"Concrete2_u2SWBuild5_1",
			"pbrMetallicRoughness":{
				"baseColorTexture":{
					"index":2
				},
				"metallicFactor":0,
				"roughnessFactor":0.9687750339508057
			}
		},
		{
			"doubleSided":true,
			"extensions":{
				"KHR_materials_specular":{
					"specularColorFactor":[
						0.04800000041723251,
						0.04800000041723251,
						0.04800000041723251
					]
				},
				"KHR_materials_ior":{
					"ior":0
				}
			},
			"name":"MetalLight_u2SWBuild5_1",
			"pbrMetallicRoughness":{
				"baseColorTexture":{
					"index":3
				},
				"metallicFactor":0,
				"roughnessFactor":0.9700000286102295
			}
		},
		{
			"doubleSided":true,
			"extensions":{
				"KHR_materials_specular":{
					"specularColorFactor":[
						0.04800000041723251,
						0.04800000041723251,
						0.04800000041723251
					]
				},
				"KHR_materials_ior":{
					"ior":0
				}
			},
			"name":"Props2_u2SWBuild5_1",
			"pbrMetallicRoughness":{
				"baseColorTexture":{
					"index":4
				},
				"metallicFactor":0,
				"roughnessFactor":0.9691779017448425
			}
		},
		{
			"doubleSided":true,
			"extensions":{
				"KHR_materials_specular":{
					"specularColorFactor":[
						0.04800000041723251,
						0.04800000041723251,
						0.04800000041723251
					]
				},
				"KHR_materials_ior":{
					"ior":0
				}
			},
			"name":"Props1_u2SWBuild5_1",
			"pbrMetallicRoughness":{
				"baseColorTexture":{
					"index":5
				},
				"metallicFactor":0,
				"roughnessFactor":0.9685357213020325
			}
		},
		{
			"doubleSided":true,
			"extensions":{
				"KHR_materials_specular":{
					"specularColorFactor":[
						0.04800000041723251,
						0.04800000041723251,
						0.04800000041723251
					]
				},
				"KHR_materials_ior":{
					"ior":0
				}
			},
			"name":"Vent1_u2SWBuild5_1",
			"pbrMetallicRoughness":{
				"baseColorTexture":{
					"index":6
				},
				"metallicFactor":0,
				"roughnessFactor":0.9693813920021057
			}
		},
		{
			"doubleSided":true,
			"extensions":{
				"KHR_materials_specular":{
					"specularColorFactor":[
						0.04800000041723251,
						0.04800000041723251,
						0.04800000041723251
					]
				},
				"KHR_materials_ior":{
					"ior":0
				}
			},
			"name":"MetalGrey_u2SWBuild5_1",
			"pbrMetallicRoughness":{
				"baseColorTexture":{
					"index":7
				},
				"metallicFactor":0,
				"roughnessFactor":0.9687750339508057
			}
		},
		{
			"doubleSided":true,
			"extensions":{
				"KHR_materials_specular":{
					"specularColorFactor":[
						0.04800000041723251,
						0.04800000041723251,
						0.04800000041723251
					]
				},
				"KHR_materials_ior":{
					"ior":0
				}
			},
			"name":"RooftopProps_u2SWBuild5_1",
			"pbrMetallicRoughness":{
				"baseColorTexture":{
					"index":8
				},
				"metallicFactor":0,
				"roughnessFactor":0.9685357213020325
			}
		}
	],
	"meshes":[
		{
			"name":"Urban Sprawl 2.044",
			"primitives":[
				{
					"attributes":{
						"POSITION":0,
						"NORMAL":1,
						"TEXCOORD_0":2
					},
					"indices":3,
					"material":0
				},
				{
					"attributes":{
						"POSITION":4,
						"NORMAL":5,
						"TEXCOORD_0":6
					},
					"indices":7,
					"material":1
				},
				{
					"attributes":{
						"POSITION":8,
						"NORMAL":9,
						"TEXCOORD_0":10
					},
					"indices":11,
					"material":2
				},
				{
					"attributes":{
						"POSITION":12,
						"NORMAL":13,
						"TEXCOORD_0":14
					},
					"indices":15,
					"material":3
				},
				{
					"attributes":{
						"POSITION":16,
						"NORMAL":17,
						"TEXCOORD_0":18
					},
					"indices":19,
					"material":4
				},
				{
					"attributes":{
						"POSITION":20,
						"NORMAL":21,
						"TEXCOORD_0":22
					},
					"indices":23,
					"material":5
				},
				{
					"attributes":{
						"POSITION":24,
						"NORMAL":25,
						"TEXCOORD_0":26
					},
					"indices":27,
					"material":6
				},
				{
					"attributes":{
						"POSITION":28,
						"NORMAL":29,
						"TEXCOORD_0":30
					},
					"indices":31,
					"material":7
				},
				{
					"attributes":{
						"POSITION":32,
						"NORMAL":33,
						"TEXCOORD_0":34
					},
					"indices":35,
					"material":8
				},
				{
					"attributes":{
						"POSITION":36,
						"NORMAL":37,
						"TEXCOORD_0":38
					},
					"indices":39,
					"material":9
				}
			]
		}
	],
	"textures":[
		{
			"sampler":0,
			"source":0
		},
		{
			"sampler":0,
			"source":1
		},
		{
			"sampler":0,
			"source":0
		},
		{
			"sampler":0,
			"source":2
		},
		{
			"sampler":0,
			"source":3
		},
		{
			"sampler":0,
			"source":4
		},
		{
			"sampler":0,
			"source":5
		},
		{
			"sampler":0,
			"source":1
		},
		{
			"sampler":0,
			"source":6
		}
	],
	"images":[
		{
			"mimeType":"image/jpeg",
			"name":"u2crete2",
			"uri":"u2crete2.jpg"
		},
		{
			"mimeType":"image/jpeg",
			"name":"u2metal1",
			"uri":"u2metal1.jpg"
		},
		{
			"mimeType":"image/jpeg",
			"name":"u2metdark",
			"uri":"u2metdark.jpg"
		},
		{
			"mimeType":"image/jpeg",
			"name":"u2props2",
			"uri":"u2props2.jpg"
		},
		{
			"mimeType":"image/jpeg",
			"name":"u2props1",
			"uri":"u2props1.jpg"
		},
		{
			"mimeType":"image/jpeg",
			"name":"u2vent1",
			"uri":"u2vent1.jpg"
		},
		{
			"mimeType":"image/jpeg",
			"name":"u2props4",
			"uri":"u2props4.jpg"
		}
	],
	"accessors":[
		{
			"bufferView":0,
			"componentType":5126,
			"count":554,
			"max":[
				4.226359844207764,
				61.58319854736328,
				-0.4419749975204468
			],
			"min":[
				-9.458749771118164,
				46.89699935913086,
				-27.18079948425293
			],
			"type":"VEC3"
		},
		{
			"bufferView":1,
			"componentType":5126,
			"count":554,
			"type":"VEC3"
		},
		{
			"bufferView":2,
			"componentType":5126,
			"count":554,
			"type":"VEC2"
		},
		{
			"bufferView":3,
			"componentType":5123,
			"count":750,
			"type":"SCALAR"
		},
		{
			"bufferView":4,
			"componentType":5126,
			"count":12,
			"max":[
				-0.5187979936599731,
				48.11280059814453,
				-0.8543210029602051
			],
			"min":[
				-4.619170188903809,
				48.11280059814453,
				-2.076469898223877
			],
			"type":"VEC3"
		},
		{
			"bufferView":5,
			"componentType":5126,
			"count":12,
			"type":"VEC3"
		},
		{
			"bufferView":6,
			"componentType":5126,
			"count":12,
			"type":"VEC2"
		},
		{
			"bufferView":7,
			"componentType":5123,
			"count":24,
			"type":"SCALAR"
		},
		{
			"bufferView":8,
			"componentType":5126,
			"count":160,
			"max":[
				-0.5670769810676575,
				48.14390182495117,
				-0.4003320038318634
			],
			"min":[
				-4.60345983505249,
				48.09410095214844,
				-2.0024800300598145
			],
			"type":"VEC3"
		},
		{
			"bufferView":9,
			"componentType":5126,
			"count":160,
			"type":"VEC3"
		},
		{
			"bufferView":10,
			"componentType":5126,
			"count":160,
			"type":"VEC2"
		},
		{
			"bufferView":11,
			"componentType":5123,
			"count":240,
			"type":"SCALAR"
		},
		{
			"bufferView":12,
			"componentType":5126,
			"count":1491,
			"max":[
				5.243639945983887,
				69.87920379638672,
				-0.061875201761722565
			],
			"min":[
				-11.223400115966797,
				45.37799835205078,
				-10.627799987792969
			],
			"type":"VEC3"
		},
		{
			"bufferView":13,
			"componentType":5126,
			"count":1491,
			"type":"VEC3"
		},
		{
			"bufferView":14,
			"componentType":5126,
			"count":1491,
			"type":"VEC2"
		},
		{
			"bufferView":15,
			"componentType":5123,
			"count":2190,
			"type":"SCALAR"
		},
		{
			"bufferView":16,
			"componentType":5126,
			"count":20,
			"max":[
				3.4518799781799316,
				52.84379959106445,
				-9.928279876708984
			],
			"min":[
				-0.04562139883637428,
				49.26689910888672,
				-10.484100341796875
			],
			"type":"VEC3"
		},
		{
			"bufferView":17,
			"componentType":5126,
			"count":20,
			"type":"VEC3"
		},
		{
			"bufferView":18,
			"componentType":5126,
			"count":20,
			"type":"VEC2"
		},
		{
			"bufferView":19,
			"componentType":5123,
			"count":30,
			"type":"SCALAR"
		},
		{
			"bufferView":20,
			"componentType":5126,
			"count":171,
			"max":[
				3.505340099334717,
				52.66740036010742,
				-9.138349533081055
			],
			"min":[
				-0.19961600005626678,
				48.88050079345703,
				-10.44890022277832
			],
			"type":"VEC3"
		},
		{
			"bufferView":21,
			"componentType":5126,
			"count":171,
			"type":"VEC3"
		},
		{
			"bufferView":22,
			"componentType":5126,
			"count":171,
			"type":"VEC2"
		},
		{
			"bufferView":23,
			"componentType":5123,
			"count":240,
			"type":"SCALAR"
		},
		{
			"bufferView":24,
			"componentType":5126,
			"count":18,
			"max":[
				2.9750099182128906,
				49.32229995727539,
				-9.279190063476562
			],
			"min":[
				0.3050149977207184,
				49.3213005065918,
				-9.661279678344727
			],
			"type":"VEC3"
		},
		{
			"bufferView":25,
			"componentType":5126,
			"count":18,
			"type":"VEC3"
		},
		{
			"bufferView":26,
			"componentType":5126,
			"count":18,
			"type":"VEC2"
		},
		{
			"bufferView":27,
			"componentType":5123,
			"count":24,
			"type":"SCALAR"
		},
		{
			"bufferView":28,
			"componentType":5126,
			"count":273,
			"max":[
				1.2267500162124634,
				49.31850051879883,
				-9.105770111083984
			],
			"min":[
				-0.20520299673080444,
				48.82529830932617,
				-9.52344036102295
			],
			"type":"VEC3"
		},
		{
			"bufferView":29,
			"componentType":5126,
			"count":273,
			"type":"VEC3"
		},
		{
			"bufferView":30,
			"componentType":5126,
			"count":273,
			"type":"VEC2"
		},
		{
			"bufferView":31,
			"componentType":5123,
			"count":378,
			"type":"SCALAR"
		},
		{
			"bufferView":32,
			"componentType":5126,
			"count":400,
			"max":[
				1.2286399602890015,
				49.331600189208984,
				-9.319490432739258
			],
			"min":[
				-0.20660400390625,
				48.82400131225586,
				-9.527259826660156
			],
			"type":"VEC3"
		},
		{
			"bufferView":33,
			"componentType":5126,
			"count":400,
			"type":"VEC3"
		},
		{
			"bufferView":34,
			"componentType":5126,
			"count":400,
			"type":"VEC2"
		},
		{
			"bufferView":35,
			"componentType":5123,
			"count":552,
			"type":"SCALAR"
		},
		{
			"bufferView":36,
			"componentType":5126,
			"count":1658,
			"max":[
				-2.033629894256592,
				56.48310089111328,
				-13.57800006866455
			],
			"min":[
				-8.128089904785156,
				49.03300094604492,
				-27.591100692749023
			],
			"type":"VEC3"
		},
		{
			"bufferView":37,
			"componentType":5126,
			"count":1658,
			"type":"VEC3"
		},
		{
			"bufferView":38,
			"componentType":5126,
			"count":1658,
			"type":"VEC2"
		},
		{
			"bufferView":39,
			"componentType":5123,
			"count":3504,
			"type":"SCALAR"
		}
	],
	"bufferViews":[
		{
			"buffer":0,
			"byteLength":6648,
			"byteOffset":0,
			"target":34962
		},
		{
			"buffer":0,
			"byteLength":6648,
			"byteOffset":6648,
			"target":34962
		},
		{
			"buffer":0,
			"byteLength":4432,
			"byteOffset":13296,
			"target":34962
		},
		{
			"buffer":0,
			"byteLength":1500,
			"byteOffset":17728,
			"target":34963
		},
		{
			"buffer":0,
			"byteLength":144,
			"byteOffset":19228,
			"target":34962
		},
		{
			"buffer":0,
			"byteLength":144,
			"byteOffset":19372,
			"target":34962
		},
		{
			"buffer":0,
			"byteLength":96,
			"byteOffset":19516,
			"target":34962
		},
		{
			"buffer":0,
			"byteLength":48,
			"byteOffset":19612,
			"target":34963
		},
		{
			"buffer":0,
			"byteLength":1920,
			"byteOffset":19660,
			"target":34962
		},
		{
			"buffer":0,
			"byteLength":1920,
			"byteOffset":21580,
			"target":34962
		},
		{
			"buffer":0,
			"byteLength":1280,
			"byteOffset":23500,
			"target":34962
		},
		{
			"buffer":0,
			"byteLength":480,
			"byteOffset":24780,
			"target":34963
		},
		{
			"buffer":0,
			"byteLength":17892,
			"byteOffset":25260,
			"target":34962
		},
		{
			"buffer":0,
			"byteLength":17892,
			"byteOffset":43152,
			"target":34962
		},
		{
			"buffer":0,
			"byteLength":11928,
			"byteOffset":61044,
			"target":34962
		},
		{
			"buffer":0,
			"byteLength":4380,
			"byteOffset":72972,
			"target":34963
		},
		{
			"buffer":0,
			"byteLength":240,
			"byteOffset":77352,
			"target":34962
		},
		{
			"buffer":0,
			"byteLength":240,
			"byteOffset":77592,
			"target":34962
		},
		{
			"buffer":0,
			"byteLength":160,
			"byteOffset":77832,
			"target":34962
		},
		{
			"buffer":0,
			"byteLength":60,
			"byteOffset":77992,
			"target":34963
		},
		{
			"buffer":0,
			"byteLength":2052,
			"byteOffset":78052,
			"target":34962
		},
		{
			"buffer":0,
			"byteLength":2052,
			"byteOffset":80104,
			"target":34962
		},
		{
			"buffer":0,
			"byteLength":1368,
			"byteOffset":82156,
			"target":34962
		},
		{
			"buffer":0,
			"byteLength":480,
			"byteOffset":83524,
			"target":34963
		},
		{
			"buffer":0,
			"byteLength":216,
			"byteOffset":84004,
			"target":34962
		},
		{
			"buffer":0,
			"byteLength":216,
			"byteOffset":84220,
			"target":34962
		},
		{
			"buffer":0,
			"byteLength":144,
			"byteOffset":84436,
			"target":34962
		},
		{
			"buffer":0,
			"byteLength":48,
			"byteOffset":84580,
			"target":34963
		},
		{
			"buffer":0,
			"byteLength":3276,
			"byteOffset":84628,
			"target":34962
		},
		{
			"buffer":0,
			"byteLength":3276,
			"byteOffset":87904,
			"target":34962
		},
		{
			"buffer":0,
			"byteLength":2184,
			"byteOffset":91180,
			"target":34962
		},
		{
			"buffer":0,
			"byteLength":756,
			"byteOffset":93364,
			"target":34963
		},
		{
			"buffer":0,
			"byteLength":4800,
			"byteOffset":94120,
			"target":34962
		},
		{
			"buffer":0,
			"byteLength":4800,
			"byteOffset":98920,
			"target":34962
		},
		{
			"buffer":0,
			"byteLength":3200,
			"byteOffset":103720,
			"target":34962
		},
		{
			"buffer":0,
			"byteLength":1104,
			"byteOffset":106920,
			"target":34963
		},
		{
			"buffer":0,
			"byteLength":19896,
			"byteOffset":108024,
			"target":34962
		},
		{
			"buffer":0,
			"byteLength":19896,
			"byteOffset":127920,
			"target":34962
		},
		{
			"buffer":0,
			"byteLength":13264,
			"byteOffset":147816,
			"target":34962
		},
		{
			"buffer":0,
			"byteLength":7008,
			"byteOffset":161080,
			"target":34963
		}
	],
	"samplers":[
		{
			"magFilter":9729,
			"minFilter":9987
		}
	],
	"buffers":[
		{
			"byteLength":168088,
			"uri":"u2SWBuild5.bin"
		}
	]
}
