{
	"asset":{
		"generator":"Khronos glTF Blender I/O v5.0.21",
		"version":"2.0"
	},
	"extensionsUsed":[
		"KHR_materials_specular",
		"KHR_materials_ior"
	],
	"scene":0,
	"scenes":[
		{
			"name":"Scene",
			"nodes":[
				0
			]
		}
	],
	"nodes":[
		{
			"mesh":0,
			"name":"u2WBuild5",
			"rotation":[
				0.70710688829422,
				0,
				0,
				0.7071066498756409
			]
		}
	],
	"materials":[
		{
			"doubleSided":true,
			"extensions":{
				"KHR_materials_specular":{
					"specularColorFactor":[
						0.04800000041723251,
						0.04800000041723251,
						0.04800000041723251
					]
				},
				"KHR_materials_ior":{
					"ior":0
				}
			},
			"name":"Concrete_u2WBuild5_1",
			"pbrMetallicRoughness":{
				"baseColorTexture":{
					"index":0
				},
				"metallicFactor":0,
				"roughnessFactor":0.9687750339508057
			}
		},
		{
			"doubleSided":true,
			"extensions":{
				"KHR_materials_specular":{
					"specularColorFactor":[
						0.04800000041723251,
						0.04800000041723251,
						0.04800000041723251
					]
				},
				"KHR_materials_ior":{
					"ior":0
				}
			},
			"name":"Rooftop_u2WBuild5_1",
			"pbrMetallicRoughness":{
				"baseColorTexture":{
					"index":1
				},
				"metallicFactor":0,
				"roughnessFactor":0.9687750339508057
			}
		},
		{
			"doubleSided":true,
			"extensions":{
				"KHR_materials_specular":{
					"specularColorFactor":[
						0.04800000041723251,
						0.04800000041723251,
						0.04800000041723251
					]
				},
				"KHR_materials_ior":{
					"ior":0
				}
			},
			"name":"WindowA_u2WBuild5_1",
			"pbrMetallicRoughness":{
				"baseColorTexture":{
					"index":2
				},
				"metallicFactor":0,
				"roughnessFactor":0.9691779017448425
			}
		},
		{
			"doubleSided":true,
			"extensions":{
				"KHR_materials_specular":{
					"specularColorFactor":[
						0.04800000041723251,
						0.04800000041723251,
						0.04800000041723251
					]
				},
				"KHR_materials_ior":{
					"ior":0
				}
			},
			"name":"Building11_u2WBuild5_1",
			"pbrMetallicRoughness":{
				"baseColorTexture":{
					"index":3
				},
				"metallicFactor":0,
				"roughnessFactor":0.9691779017448425
			}
		},
		{
			"doubleSided":true,
			"extensions":{
				"KHR_materials_specular":{
					"specularColorFactor":[
						0.04800000041723251,
						0.04800000041723251,
						0.04800000041723251
					]
				},
				"KHR_materials_ior":{
					"ior":0
				}
			},
			"name":"WindowsB_u2WBuild5_1",
			"pbrMetallicRoughness":{
				"baseColorTexture":{
					"index":4
				},
				"metallicFactor":0,
				"roughnessFactor":0.9691779017448425
			}
		},
		{
			"doubleSided":true,
			"extensions":{
				"KHR_materials_specular":{
					"specularColorFactor":[
						0.04800000041723251,
						0.04800000041723251,
						0.04800000041723251
					]
				},
				"KHR_materials_ior":{
					"ior":0
				}
			},
			"name":"RooftopProps_u2WBuild5_1",
			"pbrMetallicRoughness":{
				"baseColorTexture":{
					"index":5
				},
				"metallicFactor":0,
				"roughnessFactor":0.9685357213020325
			}
		},
		{
			"doubleSided":true,
			"extensions":{
				"KHR_materials_specular":{
					"specularColorFactor":[
						0.04800000041723251,
						0.04800000041723251,
						0.04800000041723251
					]
				},
				"KHR_materials_ior":{
					"ior":0
				}
			},
			"name":"MetalGalvanized_u2WBuild5_1",
			"pbrMetallicRoughness":{
				"baseColorTexture":{
					"index":6
				},
				"metallicFactor":0,
				"roughnessFactor":0.9687750339508057
			}
		},
		{
			"doubleSided":true,
			"extensions":{
				"KHR_materials_specular":{
					"specularColorFactor":[
						0.04800000041723251,
						0.04800000041723251,
						0.04800000041723251
					]
				},
				"KHR_materials_ior":{
					"ior":0
				}
			},
			"name":"Doors_u2WBuild5_1",
			"pbrMetallicRoughness":{
				"baseColorTexture":{
					"index":7
				},
				"metallicFactor":0,
				"roughnessFactor":0.9691779017448425
			}
		},
		{
			"doubleSided":true,
			"extensions":{
				"KHR_materials_specular":{
					"specularColorFactor":[
						0.04800000041723251,
						0.04800000041723251,
						0.04800000041723251
					]
				},
				"KHR_materials_ior":{
					"ior":0
				}
			},
			"name":"AirCon3_u2WBuild5_1",
			"pbrMetallicRoughness":{
				"baseColorTexture":{
					"index":8
				},
				"metallicFactor":0,
				"roughnessFactor":0.9685357213020325
			}
		},
		{
			"doubleSided":true,
			"extensions":{
				"KHR_materials_specular":{
					"specularColorFactor":[
						0.04800000041723251,
						0.04800000041723251,
						0.04800000041723251
					]
				},
				"KHR_materials_ior":{
					"ior":0
				}
			},
			"name":"Props1_u2WBuild5_1",
			"pbrMetallicRoughness":{
				"baseColorTexture":{
					"index":9
				},
				"metallicFactor":0,
				"roughnessFactor":0.9691779017448425
			}
		},
		{
			"doubleSided":true,
			"extensions":{
				"KHR_materials_specular":{
					"specularColorFactor":[
						0.04800000041723251,
						0.04800000041723251,
						0.04800000041723251
					]
				},
				"KHR_materials_ior":{
					"ior":0
				}
			},
			"name":"Props2_u2WBuild5_1",
			"pbrMetallicRoughness":{
				"baseColorTexture":{
					"index":10
				},
				"metallicFactor":0,
				"roughnessFactor":0.9691779017448425
			}
		}
	],
	"meshes":[
		{
			"name":"Urban Sprawl 2.049",
			"primitives":[
				{
					"attributes":{
						"POSITION":0,
						"NORMAL":1,
						"TEXCOORD_0":2
					},
					"indices":3,
					"material":0
				},
				{
					"attributes":{
						"POSITION":4,
						"NORMAL":5,
						"TEXCOORD_0":6
					},
					"indices":7,
					"material":1
				},
				{
					"attributes":{
						"POSITION":8,
						"NORMAL":9,
						"TEXCOORD_0":10
					},
					"indices":11,
					"material":2
				},
				{
					"attributes":{
						"POSITION":12,
						"NORMAL":13,
						"TEXCOORD_0":14
					},
					"indices":15,
					"material":3
				},
				{
					"attributes":{
						"POSITION":16,
						"NORMAL":17,
						"TEXCOORD_0":18
					},
					"indices":19,
					"material":4
				},
				{
					"attributes":{
						"POSITION":20,
						"NORMAL":21,
						"TEXCOORD_0":22
					},
					"indices":23,
					"material":5
				},
				{
					"attributes":{
						"POSITION":24,
						"NORMAL":25,
						"TEXCOORD_0":26
					},
					"indices":27,
					"material":6
				},
				{
					"attributes":{
						"POSITION":28,
						"NORMAL":29,
						"TEXCOORD_0":30
					},
					"indices":7,
					"material":7
				},
				{
					"attributes":{
						"POSITION":31,
						"NORMAL":32,
						"TEXCOORD_0":33
					},
					"indices":34,
					"material":8
				},
				{
					"attributes":{
						"POSITION":35,
						"NORMAL":36,
						"TEXCOORD_0":37
					},
					"indices":38,
					"material":9
				},
				{
					"attributes":{
						"POSITION":39,
						"NORMAL":40,
						"TEXCOORD_0":41
					},
					"indices":42,
					"material":10
				}
			]
		}
	],
	"textures":[
		{
			"sampler":0,
			"source":0
		},
		{
			"sampler":0,
			"source":0
		},
		{
			"sampler":0,
			"source":1
		},
		{
			"sampler":0,
			"source":1
		},
		{
			"sampler":0,
			"source":1
		},
		{
			"sampler":0,
			"source":2
		},
		{
			"sampler":0,
			"source":3
		},
		{
			"sampler":0,
			"source":4
		},
		{
			"sampler":0,
			"source":5
		},
		{
			"sampler":0,
			"source":6
		},
		{
			"sampler":0,
			"source":7
		}
	],
	"images":[
		{
			"mimeType":"image/jpeg",
			"name":"u2crete1",
			"uri":"u2crete1.jpg"
		},
		{
			"mimeType":"image/jpeg",
			"name":"u2SEBuild11",
			"uri":"u2SEBuild11.jpg"
		},
		{
			"mimeType":"image/jpeg",
			"name":"u2props4",
			"uri":"u2props4.jpg"
		},
		{
			"mimeType":"image/jpeg",
			"name":"u2metal1",
			"uri":"u2metal1.jpg"
		},
		{
			"mimeType":"image/jpeg",
			"name":"u2doors1",
			"uri":"u2doors1.jpg"
		},
		{
			"mimeType":"image/jpeg",
			"name":"u2acunit1",
			"uri":"u2acunit1.jpg"
		},
		{
			"mimeType":"image/jpeg",
			"name":"u2props1",
			"uri":"u2props1.jpg"
		},
		{
			"mimeType":"image/jpeg",
			"name":"u2props2",
			"uri":"u2props2.jpg"
		}
	],
	"accessors":[
		{
			"bufferView":0,
			"componentType":5126,
			"count":423,
			"max":[
				-65.53600311279297,
				36.12379837036133,
				-11.043700218200684
			],
			"min":[
				-87.00180053710938,
				24.63450050354004,
				-12.66919994354248
			],
			"type":"VEC3"
		},
		{
			"bufferView":1,
			"componentType":5126,
			"count":423,
			"type":"VEC3"
		},
		{
			"bufferView":2,
			"componentType":5126,
			"count":423,
			"type":"VEC2"
		},
		{
			"bufferView":3,
			"componentType":5123,
			"count":666,
			"type":"SCALAR"
		},
		{
			"bufferView":4,
			"componentType":5126,
			"count":4,
			"max":[
				-65.71800231933594,
				35.94169998168945,
				-11.171600341796875
			],
			"min":[
				-86.8198013305664,
				24.816600799560547,
				-11.171600341796875
			],
			"type":"VEC3"
		},
		{
			"bufferView":5,
			"componentType":5126,
			"count":4,
			"type":"VEC3"
		},
		{
			"bufferView":6,
			"componentType":5126,
			"count":4,
			"type":"VEC2"
		},
		{
			"bufferView":7,
			"componentType":5123,
			"count":6,
			"type":"SCALAR"
		},
		{
			"bufferView":8,
			"componentType":5126,
			"count":28,
			"max":[
				-65.96759796142578,
				35.70650100708008,
				-0.19437499344348907
			],
			"min":[
				-86.51439666748047,
				25.218900680541992,
				-10.770700454711914
			],
			"type":"VEC3"
		},
		{
			"bufferView":9,
			"componentType":5126,
			"count":28,
			"type":"VEC3"
		},
		{
			"bufferView":10,
			"componentType":5126,
			"count":28,
			"type":"VEC2"
		},
		{
			"bufferView":11,
			"componentType":5123,
			"count":48,
			"type":"SCALAR"
		},
		{
			"bufferView":12,
			"componentType":5126,
			"count":1564,
			"max":[
				-65.60579681396484,
				36.062400817871094,
				0.2666119933128357
			],
			"min":[
				-86.88410186767578,
				24.743200302124023,
				-11.100899696350098
			],
			"type":"VEC3"
		},
		{
			"bufferView":13,
			"componentType":5126,
			"count":1564,
			"type":"VEC3"
		},
		{
			"bufferView":14,
			"componentType":5126,
			"count":1564,
			"type":"VEC2"
		},
		{
			"bufferView":15,
			"componentType":5123,
			"count":2532,
			"type":"SCALAR"
		},
		{
			"bufferView":16,
			"componentType":5126,
			"count":16,
			"max":[
				-65.96759796142578,
				35.70650100708008,
				-0.19437499344348907
			],
			"min":[
				-86.51439666748047,
				25.218900680541992,
				-10.770700454711914
			],
			"type":"VEC3"
		},
		{
			"bufferView":17,
			"componentType":5126,
			"count":16,
			"type":"VEC3"
		},
		{
			"bufferView":18,
			"componentType":5126,
			"count":16,
			"type":"VEC2"
		},
		{
			"bufferView":19,
			"componentType":5123,
			"count":24,
			"type":"SCALAR"
		},
		{
			"bufferView":20,
			"componentType":5126,
			"count":4154,
			"max":[
				-66.73400115966797,
				34.520198822021484,
				-11.164799690246582
			],
			"min":[
				-84.49440002441406,
				25.253000259399414,
				-12.912699699401855
			],
			"type":"VEC3"
		},
		{
			"bufferView":21,
			"componentType":5126,
			"count":4154,
			"type":"VEC3"
		},
		{
			"bufferView":22,
			"componentType":5126,
			"count":4154,
			"type":"VEC2"
		},
		{
			"bufferView":23,
			"componentType":5123,
			"count":7842,
			"type":"SCALAR"
		},
		{
			"bufferView":24,
			"componentType":5126,
			"count":74,
			"max":[
				-76.48490142822266,
				30.63640022277832,
				-11.161100387573242
			],
			"min":[
				-78.18060302734375,
				28.804000854492188,
				-12.66919994354248
			],
			"type":"VEC3"
		},
		{
			"bufferView":25,
			"componentType":5126,
			"count":74,
			"type":"VEC3"
		},
		{
			"bufferView":26,
			"componentType":5126,
			"count":74,
			"type":"VEC2"
		},
		{
			"bufferView":27,
			"componentType":5123,
			"count":108,
			"type":"SCALAR"
		},
		{
			"bufferView":28,
			"componentType":5126,
			"count":4,
			"max":[
				-78.1364974975586,
				30.470399856567383,
				-11.398799896240234
			],
			"min":[
				-78.13780212402344,
				30.090700149536133,
				-12.213000297546387
			],
			"type":"VEC3"
		},
		{
			"bufferView":29,
			"componentType":5126,
			"count":4,
			"type":"VEC3"
		},
		{
			"bufferView":30,
			"componentType":5126,
			"count":4,
			"type":"VEC2"
		},
		{
			"bufferView":31,
			"componentType":5126,
			"count":1630,
			"max":[
				-76.54850006103516,
				31.789199829101562,
				-11.160200119018555
			],
			"min":[
				-78.11280059814453,
				28.79159927368164,
				-12.14799976348877
			],
			"type":"VEC3"
		},
		{
			"bufferView":32,
			"componentType":5126,
			"count":1630,
			"type":"VEC3"
		},
		{
			"bufferView":33,
			"componentType":5126,
			"count":1630,
			"type":"VEC2"
		},
		{
			"bufferView":34,
			"componentType":5123,
			"count":2394,
			"type":"SCALAR"
		},
		{
			"bufferView":35,
			"componentType":5126,
			"count":14,
			"max":[
				-76.51860046386719,
				29.984699249267578,
				-11.446499824523926
			],
			"min":[
				-78.14769744873047,
				28.827600479125977,
				-11.826399803161621
			],
			"type":"VEC3"
		},
		{
			"bufferView":36,
			"componentType":5126,
			"count":14,
			"type":"VEC3"
		},
		{
			"bufferView":37,
			"componentType":5126,
			"count":14,
			"type":"VEC2"
		},
		{
			"bufferView":38,
			"componentType":5123,
			"count":18,
			"type":"SCALAR"
		},
		{
			"bufferView":39,
			"componentType":5126,
			"count":50,
			"max":[
				-76.47660064697266,
				30.472200393676758,
				-12.179900169372559
			],
			"min":[
				-76.52259826660156,
				30.219900131225586,
				-12.354000091552734
			],
			"type":"VEC3"
		},
		{
			"bufferView":40,
			"componentType":5126,
			"count":50,
			"type":"VEC3"
		},
		{
			"bufferView":41,
			"componentType":5126,
			"count":50,
			"type":"VEC2"
		},
		{
			"bufferView":42,
			"componentType":5123,
			"count":78,
			"type":"SCALAR"
		}
	],
	"bufferViews":[
		{
			"buffer":0,
			"byteLength":5076,
			"byteOffset":0,
			"target":34962
		},
		{
			"buffer":0,
			"byteLength":5076,
			"byteOffset":5076,
			"target":34962
		},
		{
			"buffer":0,
			"byteLength":3384,
			"byteOffset":10152,
			"target":34962
		},
		{
			"buffer":0,
			"byteLength":1332,
			"byteOffset":13536,
			"target":34963
		},
		{
			"buffer":0,
			"byteLength":48,
			"byteOffset":14868,
			"target":34962
		},
		{
			"buffer":0,
			"byteLength":48,
			"byteOffset":14916,
			"target":34962
		},
		{
			"buffer":0,
			"byteLength":32,
			"byteOffset":14964,
			"target":34962
		},
		{
			"buffer":0,
			"byteLength":12,
			"byteOffset":14996,
			"target":34963
		},
		{
			"buffer":0,
			"byteLength":336,
			"byteOffset":15008,
			"target":34962
		},
		{
			"buffer":0,
			"byteLength":336,
			"byteOffset":15344,
			"target":34962
		},
		{
			"buffer":0,
			"byteLength":224,
			"byteOffset":15680,
			"target":34962
		},
		{
			"buffer":0,
			"byteLength":96,
			"byteOffset":15904,
			"target":34963
		},
		{
			"buffer":0,
			"byteLength":18768,
			"byteOffset":16000,
			"target":34962
		},
		{
			"buffer":0,
			"byteLength":18768,
			"byteOffset":34768,
			"target":34962
		},
		{
			"buffer":0,
			"byteLength":12512,
			"byteOffset":53536,
			"target":34962
		},
		{
			"buffer":0,
			"byteLength":5064,
			"byteOffset":66048,
			"target":34963
		},
		{
			"buffer":0,
			"byteLength":192,
			"byteOffset":71112,
			"target":34962
		},
		{
			"buffer":0,
			"byteLength":192,
			"byteOffset":71304,
			"target":34962
		},
		{
			"buffer":0,
			"byteLength":128,
			"byteOffset":71496,
			"target":34962
		},
		{
			"buffer":0,
			"byteLength":48,
			"byteOffset":71624,
			"target":34963
		},
		{
			"buffer":0,
			"byteLength":49848,
			"byteOffset":71672,
			"target":34962
		},
		{
			"buffer":0,
			"byteLength":49848,
			"byteOffset":121520,
			"target":34962
		},
		{
			"buffer":0,
			"byteLength":33232,
			"byteOffset":171368,
			"target":34962
		},
		{
			"buffer":0,
			"byteLength":15684,
			"byteOffset":204600,
			"target":34963
		},
		{
			"buffer":0,
			"byteLength":888,
			"byteOffset":220284,
			"target":34962
		},
		{
			"buffer":0,
			"byteLength":888,
			"byteOffset":221172,
			"target":34962
		},
		{
			"buffer":0,
			"byteLength":592,
			"byteOffset":222060,
			"target":34962
		},
		{
			"buffer":0,
			"byteLength":216,
			"byteOffset":222652,
			"target":34963
		},
		{
			"buffer":0,
			"byteLength":48,
			"byteOffset":222868,
			"target":34962
		},
		{
			"buffer":0,
			"byteLength":48,
			"byteOffset":222916,
			"target":34962
		},
		{
			"buffer":0,
			"byteLength":32,
			"byteOffset":222964,
			"target":34962
		},
		{
			"buffer":0,
			"byteLength":19560,
			"byteOffset":222996,
			"target":34962
		},
		{
			"buffer":0,
			"byteLength":19560,
			"byteOffset":242556,
			"target":34962
		},
		{
			"buffer":0,
			"byteLength":13040,
			"byteOffset":262116,
			"target":34962
		},
		{
			"buffer":0,
			"byteLength":4788,
			"byteOffset":275156,
			"target":34963
		},
		{
			"buffer":0,
			"byteLength":168,
			"byteOffset":279944,
			"target":34962
		},
		{
			"buffer":0,
			"byteLength":168,
			"byteOffset":280112,
			"target":34962
		},
		{
			"buffer":0,
			"byteLength":112,
			"byteOffset":280280,
			"target":34962
		},
		{
			"buffer":0,
			"byteLength":36,
			"byteOffset":280392,
			"target":34963
		},
		{
			"buffer":0,
			"byteLength":600,
			"byteOffset":280428,
			"target":34962
		},
		{
			"buffer":0,
			"byteLength":600,
			"byteOffset":281028,
			"target":34962
		},
		{
			"buffer":0,
			"byteLength":400,
			"byteOffset":281628,
			"target":34962
		},
		{
			"buffer":0,
			"byteLength":156,
			"byteOffset":282028,
			"target":34963
		}
	],
	"samplers":[
		{
			"magFilter":9729,
			"minFilter":9987
		}
	],
	"buffers":[
		{
			"byteLength":282184,
			"uri":"u2WBuild5.bin"
		}
	]
}
