{
	"asset":{
		"generator":"Khronos glTF Blender I/O v5.0.21",
		"version":"2.0"
	},
	"scene":0,
	"scenes":[
		{
			"name":"Scene",
			"nodes":[
				1
			]
		}
	],
	"nodes":[
		{
			"mesh":0,
			"name":"geometry_0",
			"translation":[
				0.007352600339800119,
				0.12251188606023788,
				-0.047384459525346756
			]
		},
		{
			"children":[
				0
			],
			"name":"world"
		}
	],
	"materials":[
		{
			"name":"Material_0",
			"pbrMetallicRoughness":{
				"baseColorTexture":{
					"index":0
				}
			}
		}
	],
	"meshes":[
		{
			"name":"geometry_0",
			"primitives":[
				{
					"attributes":{
						"POSITION":0,
						"NORMAL":1,
						"TEXCOORD_0":2
					},
					"indices":3,
					"material":0
				}
			]
		}
	],
	"textures":[
		{
			"sampler":0,
			"source":0
		}
	],
	"images":[
		{
			"mimeType":"image/png",
			"name":"Image_0",
			"uri":"Image_0.png"
		}
	],
	"accessors":[
		{
			"bufferView":0,
			"componentType":5126,
			"count":56422,
			"max":[
				0.17604529857635498,
				0.15885864198207855,
				0.4985019564628601
			],
			"min":[
				-0.17516514658927917,
				-0.160355344414711,
				-0.5003778338432312
			],
			"type":"VEC3"
		},
		{
			"bufferView":1,
			"componentType":5126,
			"count":56422,
			"type":"VEC3"
		},
		{
			"bufferView":2,
			"componentType":5126,
			"count":56422,
			"type":"VEC2"
		},
		{
			"bufferView":3,
			"componentType":5123,
			"count":56436,
			"type":"SCALAR"
		}
	],
	"bufferViews":[
		{
			"buffer":0,
			"byteLength":677064,
			"byteOffset":0,
			"target":34962
		},
		{
			"buffer":0,
			"byteLength":677064,
			"byteOffset":677064,
			"target":34962
		},
		{
			"buffer":0,
			"byteLength":451376,
			"byteOffset":1354128,
			"target":34962
		},
		{
			"buffer":0,
			"byteLength":112872,
			"byteOffset":1805504,
			"target":34963
		}
	],
	"samplers":[
		{
			"magFilter":9729,
			"minFilter":9987
		}
	],
	"buffers":[
		{
			"byteLength":1918376,
			"uri":"bus_1960_gmc.bin"
		}
	]
}
