{
	"asset":{
		"generator":"Khronos glTF Blender I/O v5.0.21",
		"version":"2.0"
	},
	"scene":0,
	"scenes":[
		{
			"name":"Scene",
			"nodes":[
				0
			]
		}
	],
	"nodes":[
		{
			"mesh":0,
			"name":"AlarmBox"
		}
	],
	"materials":[
		{
			"doubleSided":true,
			"emissiveFactor":[
				1,
				1,
				1
			],
			"emissiveTexture":{
				"index":0
			},
			"name":"model",
			"pbrMetallicRoughness":{
				"baseColorFactor":[
					0,
					0,
					0,
					1
				],
				"metallicFactor":0
			}
		}
	],
	"meshes":[
		{
			"name":"AlarmBox_Mesh",
			"primitives":[
				{
					"attributes":{
						"POSITION":0,
						"NORMAL":1,
						"TEXCOORD_0":2
					},
					"indices":3,
					"material":0
				}
			]
		}
	],
	"textures":[
		{
			"sampler":0,
			"source":0
		}
	],
	"images":[
		{
			"mimeType":"image/png",
			"name":"shaded",
			"uri":"shaded.png"
		}
	],
	"accessors":[
		{
			"bufferView":0,
			"componentType":5126,
			"count":24369,
			"max":[
				0.21534515917301178,
				1.8057868480682373,
				0.21304619312286377
			],
			"min":[
				-0.21550066769123077,
				0,
				-0.2129358947277069
			],
			"type":"VEC3"
		},
		{
			"bufferView":1,
			"componentType":5126,
			"count":24369,
			"type":"VEC3"
		},
		{
			"bufferView":2,
			"componentType":5126,
			"count":24369,
			"type":"VEC2"
		},
		{
			"bufferView":3,
			"componentType":5123,
			"count":59370,
			"type":"SCALAR"
		}
	],
	"bufferViews":[
		{
			"buffer":0,
			"byteLength":292428,
			"byteOffset":0,
			"target":34962
		},
		{
			"buffer":0,
			"byteLength":292428,
			"byteOffset":292428,
			"target":34962
		},
		{
			"buffer":0,
			"byteLength":194952,
			"byteOffset":584856,
			"target":34962
		},
		{
			"buffer":0,
			"byteLength":118740,
			"byteOffset":779808,
			"target":34963
		}
	],
	"samplers":[
		{
			"magFilter":9729,
			"minFilter":9987
		}
	],
	"buffers":[
		{
			"byteLength":898548,
			"uri":"alarm_box.bin"
		}
	]
}
