{
	"asset":{
		"generator":"Khronos glTF Blender I/O v5.0.21",
		"version":"2.0"
	},
	"scene":0,
	"scenes":[
		{
			"name":"Scene",
			"nodes":[
				0
			]
		}
	],
	"nodes":[
		{
			"mesh":0,
			"name":"prop_street_mailbox"
		}
	],
	"materials":[
		{
			"doubleSided":true,
			"name":"Blue",
			"pbrMetallicRoughness":{
				"baseColorFactor":[
					0.10000000149011612,
					0.20000000298023224,
					0.6000000238418579,
					1
				],
				"metallicFactor":0.10000000149011612,
				"roughnessFactor":0.6000000238418579
			}
		},
		{
			"doubleSided":true,
			"name":"Red",
			"pbrMetallicRoughness":{
				"baseColorFactor":[
					0.800000011920929,
					0.10000000149011612,
					0.10000000149011612,
					1
				],
				"metallicFactor":0.10000000149011612,
				"roughnessFactor":0.6000000238418579
			}
		}
	],
	"meshes":[
		{
			"name":"Cube.034",
			"primitives":[
				{
					"attributes":{
						"POSITION":0,
						"NORMAL":1,
						"TEXCOORD_0":2
					},
					"indices":3,
					"material":0
				},
				{
					"attributes":{
						"POSITION":4,
						"NORMAL":5,
						"TEXCOORD_0":6
					},
					"indices":7,
					"material":1
				}
			]
		}
	],
	"accessors":[
		{
			"bufferView":0,
			"componentType":5126,
			"count":432,
			"max":[
				0.18000000715255737,
				0.5999997854232788,
				0.1550000011920929
			],
			"min":[
				-0.18000000715255737,
				-1.2000001668930054,
				-0.1550000011920929
			],
			"type":"VEC3"
		},
		{
			"bufferView":1,
			"componentType":5126,
			"count":432,
			"type":"VEC3"
		},
		{
			"bufferView":2,
			"componentType":5126,
			"count":432,
			"type":"VEC2"
		},
		{
			"bufferView":3,
			"componentType":5123,
			"count":816,
			"type":"SCALAR"
		},
		{
			"bufferView":4,
			"componentType":5126,
			"count":24,
			"max":[
				0.125,
				0.1299997866153717,
				-0.30000001192092896
			],
			"min":[
				-0.125,
				0.06999978423118591,
				-0.3199999928474426
			],
			"type":"VEC3"
		},
		{
			"bufferView":5,
			"componentType":5126,
			"count":24,
			"type":"VEC3"
		},
		{
			"bufferView":6,
			"componentType":5126,
			"count":24,
			"type":"VEC2"
		},
		{
			"bufferView":7,
			"componentType":5123,
			"count":36,
			"type":"SCALAR"
		}
	],
	"bufferViews":[
		{
			"buffer":0,
			"byteLength":5184,
			"byteOffset":0,
			"target":34962
		},
		{
			"buffer":0,
			"byteLength":5184,
			"byteOffset":5184,
			"target":34962
		},
		{
			"buffer":0,
			"byteLength":3456,
			"byteOffset":10368,
			"target":34962
		},
		{
			"buffer":0,
			"byteLength":1632,
			"byteOffset":13824,
			"target":34963
		},
		{
			"buffer":0,
			"byteLength":288,
			"byteOffset":15456,
			"target":34962
		},
		{
			"buffer":0,
			"byteLength":288,
			"byteOffset":15744,
			"target":34962
		},
		{
			"buffer":0,
			"byteLength":192,
			"byteOffset":16032,
			"target":34962
		},
		{
			"buffer":0,
			"byteLength":72,
			"byteOffset":16224,
			"target":34963
		}
	],
	"buffers":[
		{
			"byteLength":16296,
			"uri":"prop_street_mailbox_lod0.bin"
		}
	]
}
