{
	"asset":{
		"generator":"Khronos glTF Blender I/O v5.0.21",
		"version":"2.0"
	},
	"scene":0,
	"scenes":[
		{
			"name":"Scene",
			"nodes":[
				0
			]
		}
	],
	"nodes":[
		{
			"mesh":0,
			"name":"char_player_male_placeholder"
		}
	],
	"materials":[
		{
			"doubleSided":true,
			"name":"Boots",
			"pbrMetallicRoughness":{
				"baseColorFactor":[
					0.23999999463558197,
					0.15000000596046448,
					0.10000000149011612,
					1
				],
				"metallicFactor":0,
				"roughnessFactor":0.6000000238418579
			}
		},
		{
			"doubleSided":true,
			"name":"Skin",
			"pbrMetallicRoughness":{
				"baseColorFactor":[
					0.8199999928474426,
					0.6499999761581421,
					0.4699999988079071,
					1
				],
				"metallicFactor":0,
				"roughnessFactor":0.5
			}
		},
		{
			"doubleSided":true,
			"name":"Hair",
			"pbrMetallicRoughness":{
				"baseColorFactor":[
					0.15000000596046448,
					0.10000000149011612,
					0.05000000074505806,
					1
				],
				"metallicFactor":0,
				"roughnessFactor":0.699999988079071
			}
		},
		{
			"doubleSided":true,
			"name":"Jacket",
			"pbrMetallicRoughness":{
				"baseColorFactor":[
					0.550000011920929,
					0.27000001072883606,
					0.07000000029802322,
					1
				],
				"metallicFactor":0,
				"roughnessFactor":0.5
			}
		},
		{
			"doubleSided":true,
			"name":"Pants",
			"pbrMetallicRoughness":{
				"baseColorFactor":[
					0.28999999165534973,
					0.28999999165534973,
					0.28999999165534973,
					1
				],
				"metallicFactor":0,
				"roughnessFactor":0.800000011920929
			}
		}
	],
	"meshes":[
		{
			"name":"Cube.003",
			"primitives":[
				{
					"attributes":{
						"POSITION":0,
						"NORMAL":1,
						"TEXCOORD_0":2
					},
					"indices":3,
					"material":0
				},
				{
					"attributes":{
						"POSITION":4,
						"NORMAL":5,
						"TEXCOORD_0":6
					},
					"indices":7,
					"material":1
				},
				{
					"attributes":{
						"POSITION":8,
						"NORMAL":9,
						"TEXCOORD_0":10
					},
					"indices":11,
					"material":2
				},
				{
					"attributes":{
						"POSITION":12,
						"NORMAL":13,
						"TEXCOORD_0":14
					},
					"indices":15,
					"material":3
				},
				{
					"attributes":{
						"POSITION":16,
						"NORMAL":17,
						"TEXCOORD_0":18
					},
					"indices":19,
					"material":4
				}
			]
		}
	],
	"accessors":[
		{
			"bufferView":0,
			"componentType":5126,
			"count":48,
			"max":[
				0.15000000596046448,
				0.10000000149011612,
				0.07000000029802322
			],
			"min":[
				-0.15000000596046448,
				0,
				-0.12999999523162842
			],
			"type":"VEC3"
		},
		{
			"bufferView":1,
			"componentType":5126,
			"count":48,
			"type":"VEC3"
		},
		{
			"bufferView":2,
			"componentType":5126,
			"count":48,
			"type":"VEC2"
		},
		{
			"bufferView":3,
			"componentType":5123,
			"count":72,
			"type":"SCALAR"
		},
		{
			"bufferView":4,
			"componentType":5126,
			"count":1360,
			"max":[
				0.3449999988079071,
				1.75,
				0.10999999195337296
			],
			"min":[
				-0.3449999988079071,
				0.699999988079071,
				-0.10999999940395355
			],
			"type":"VEC3"
		},
		{
			"bufferView":5,
			"componentType":5126,
			"count":1360,
			"type":"VEC3"
		},
		{
			"bufferView":6,
			"componentType":5126,
			"count":1360,
			"type":"VEC2"
		},
		{
			"bufferView":7,
			"componentType":5123,
			"count":2244,
			"type":"SCALAR"
		},
		{
			"bufferView":8,
			"componentType":5126,
			"count":360,
			"max":[
				0.09999999403953552,
				1.7599999904632568,
				0.09999999403953552
			],
			"min":[
				-0.09999998658895493,
				1.6800000667572021,
				-0.09999997913837433
			],
			"type":"VEC3"
		},
		{
			"bufferView":9,
			"componentType":5126,
			"count":360,
			"type":"VEC3"
		},
		{
			"bufferView":10,
			"componentType":5126,
			"count":360,
			"type":"VEC2"
		},
		{
			"bufferView":11,
			"componentType":5123,
			"count":504,
			"type":"SCALAR"
		},
		{
			"bufferView":12,
			"componentType":5126,
			"count":408,
			"max":[
				0.2999892830848694,
				1.4500000476837158,
				0.11999999731779099
			],
			"min":[
				-0.2999892830848694,
				0.8499999642372131,
				-0.11999999731779099
			],
			"type":"VEC3"
		},
		{
			"bufferView":13,
			"componentType":5126,
			"count":408,
			"type":"VEC3"
		},
		{
			"bufferView":14,
			"componentType":5126,
			"count":408,
			"type":"VEC2"
		},
		{
			"bufferView":15,
			"componentType":5123,
			"count":780,
			"type":"SCALAR"
		},
		{
			"bufferView":16,
			"componentType":5126,
			"count":792,
			"max":[
				0.17499999701976776,
				0.8999999761581421,
				0.10000000149011612
			],
			"min":[
				-0.17499999701976776,
				0,
				-0.10000000149011612
			],
			"type":"VEC3"
		},
		{
			"bufferView":17,
			"componentType":5126,
			"count":792,
			"type":"VEC3"
		},
		{
			"bufferView":18,
			"componentType":5126,
			"count":792,
			"type":"VEC2"
		},
		{
			"bufferView":19,
			"componentType":5123,
			"count":1524,
			"type":"SCALAR"
		}
	],
	"bufferViews":[
		{
			"buffer":0,
			"byteLength":576,
			"byteOffset":0,
			"target":34962
		},
		{
			"buffer":0,
			"byteLength":576,
			"byteOffset":576,
			"target":34962
		},
		{
			"buffer":0,
			"byteLength":384,
			"byteOffset":1152,
			"target":34962
		},
		{
			"buffer":0,
			"byteLength":144,
			"byteOffset":1536,
			"target":34963
		},
		{
			"buffer":0,
			"byteLength":16320,
			"byteOffset":1680,
			"target":34962
		},
		{
			"buffer":0,
			"byteLength":16320,
			"byteOffset":18000,
			"target":34962
		},
		{
			"buffer":0,
			"byteLength":10880,
			"byteOffset":34320,
			"target":34962
		},
		{
			"buffer":0,
			"byteLength":4488,
			"byteOffset":45200,
			"target":34963
		},
		{
			"buffer":0,
			"byteLength":4320,
			"byteOffset":49688,
			"target":34962
		},
		{
			"buffer":0,
			"byteLength":4320,
			"byteOffset":54008,
			"target":34962
		},
		{
			"buffer":0,
			"byteLength":2880,
			"byteOffset":58328,
			"target":34962
		},
		{
			"buffer":0,
			"byteLength":1008,
			"byteOffset":61208,
			"target":34963
		},
		{
			"buffer":0,
			"byteLength":4896,
			"byteOffset":62216,
			"target":34962
		},
		{
			"buffer":0,
			"byteLength":4896,
			"byteOffset":67112,
			"target":34962
		},
		{
			"buffer":0,
			"byteLength":3264,
			"byteOffset":72008,
			"target":34962
		},
		{
			"buffer":0,
			"byteLength":1560,
			"byteOffset":75272,
			"target":34963
		},
		{
			"buffer":0,
			"byteLength":9504,
			"byteOffset":76832,
			"target":34962
		},
		{
			"buffer":0,
			"byteLength":9504,
			"byteOffset":86336,
			"target":34962
		},
		{
			"buffer":0,
			"byteLength":6336,
			"byteOffset":95840,
			"target":34962
		},
		{
			"buffer":0,
			"byteLength":3048,
			"byteOffset":102176,
			"target":34963
		}
	],
	"buffers":[
		{
			"byteLength":105224,
			"uri":"char_player_male_placeholder.bin"
		}
	]
}
