{
	"asset":{
		"generator":"Khronos glTF Blender I/O v5.0.21",
		"version":"2.0"
	},
	"scene":0,
	"scenes":[
		{
			"name":"Scene",
			"nodes":[
				1
			]
		}
	],
	"nodes":[
		{
			"mesh":0,
			"name":"geometry_0"
		},
		{
			"children":[
				0
			],
			"name":"world"
		}
	],
	"materials":[
		{
			"name":"Material_0",
			"pbrMetallicRoughness":{
				"baseColorTexture":{
					"index":0
				}
			}
		}
	],
	"meshes":[
		{
			"name":"geometry_0",
			"primitives":[
				{
					"attributes":{
						"POSITION":0,
						"NORMAL":1,
						"TEXCOORD_0":2
					},
					"indices":3,
					"material":0
				}
			]
		}
	],
	"textures":[
		{
			"sampler":0,
			"source":0
		}
	],
	"images":[
		{
			"mimeType":"image/png",
			"name":"Image_0",
			"uri":"Image_0.png"
		}
	],
	"accessors":[
		{
			"bufferView":0,
			"componentType":5126,
			"count":83082,
			"max":[
				0.24388624727725983,
				0.20819585025310516,
				0.5002137422561646
			],
			"min":[
				-0.24298179149627686,
				-0.2192366123199463,
				-0.5000046491622925
			],
			"type":"VEC3"
		},
		{
			"bufferView":1,
			"componentType":5126,
			"count":83082,
			"type":"VEC3"
		},
		{
			"bufferView":2,
			"componentType":5126,
			"count":83082,
			"type":"VEC2"
		},
		{
			"bufferView":3,
			"componentType":5125,
			"count":83094,
			"type":"SCALAR"
		}
	],
	"bufferViews":[
		{
			"buffer":0,
			"byteLength":996984,
			"byteOffset":0,
			"target":34962
		},
		{
			"buffer":0,
			"byteLength":996984,
			"byteOffset":996984,
			"target":34962
		},
		{
			"buffer":0,
			"byteLength":664656,
			"byteOffset":1993968,
			"target":34962
		},
		{
			"buffer":0,
			"byteLength":332376,
			"byteOffset":2658624,
			"target":34963
		}
	],
	"samplers":[
		{
			"magFilter":9729,
			"minFilter":9987
		}
	],
	"buffers":[
		{
			"byteLength":2991000,
			"uri":"m48_patton_tank.bin"
		}
	]
}
